<svg width="36" height="36" fill="none" xmlns="http://www.w3.org/2000/svg"><path d="M27.487 8.888c.583 0 1.055-.473 1.055-1.055V1.055C28.542.472 28.069 0 27.487 0h-7.908a6.71 6.71 0 00-6.703 6.703v6.853H8.508c-.583 0-1.055.472-1.055 1.055v6.778c0 .583.472 1.055 1.055 1.055h4.368v12.501c0 .583.472 1.055 1.054 1.055h6.779c.582 0 1.054-.472 1.054-1.055V22.444h4.368c.503 0 .936-.355 1.035-.848l1.355-6.778a1.054 1.054 0 00-1.034-1.262h-5.724V8.888h5.724zm-6.778 6.778H26.2l-.934 4.668h-4.558c-.583 0-1.055.473-1.055 1.055v12.502h-4.669V21.389c0-.582-.472-1.055-1.055-1.055H9.563v-4.668h4.367c.583 0 1.055-.473 1.055-1.055V6.703a4.599 4.599 0 014.594-4.594h6.853v4.67H20.71c-.583 0-1.055.471-1.055 1.054v6.778c0 .582.472 1.055 1.055 1.055z" fill="#fff"/></svg>