<svg width="36" height="36" fill="none" xmlns="http://www.w3.org/2000/svg"><g clip-path="url(#clip0)" fill="#fff"><path d="M8.466 11.297H1.688c-.583 0-1.055.472-1.055 1.055v22.594c0 .582.472 1.054 1.054 1.054h6.779c.582 0 1.054-.472 1.054-1.054V12.352c0-.583-.472-1.055-1.054-1.055zM7.41 33.89H2.742V13.406h4.669v20.485zM5.077 0A4.449 4.449 0 00.633 4.443a4.449 4.449 0 004.444 4.444A4.449 4.449 0 009.52 4.443 4.448 4.448 0 005.077 0zm0 6.778a2.337 2.337 0 01-2.335-2.335A2.337 2.337 0 015.077 2.11 2.337 2.337 0 017.41 4.443a2.337 2.337 0 01-2.334 2.335zm20.335 4.37c-1.603 0-3.183.386-4.598 1.109-.049-.538-.5-.96-1.051-.96h-6.779c-.582 0-1.054.472-1.054 1.054v22.594c0 .583.472 1.055 1.054 1.055h6.779c.582 0 1.055-.472 1.055-1.055V22.52c0-1.599 1.3-2.9 2.899-2.9a2.903 2.903 0 012.899 2.9v12.426c0 .583.472 1.055 1.054 1.055h6.779c.582 0 1.054-.472 1.054-1.055V21.24c0-5.565-4.527-10.091-10.091-10.091zm7.982 22.743h-4.669V22.519a5.014 5.014 0 00-5.008-5.009 5.014 5.014 0 00-5.009 5.009V33.89H14.04V13.406h4.67v.78a1.054 1.054 0 001.714.822 7.893 7.893 0 014.989-1.751c4.401 0 7.982 3.58 7.982 7.982v12.652z"/></g><defs><clipPath id="clip0"><path fill="#fff" d="M0 0h36v36H0z"/></clipPath></defs></svg>