<svg width="36" height="36" fill="none" xmlns="http://www.w3.org/2000/svg"><g clip-path="url(#clip0)" fill="#fff"><path d="M18 8.473c-5.253 0-9.527 4.274-9.527 9.527 0 5.253 4.274 9.527 9.527 9.527 5.253 0 9.527-4.274 9.527-9.527 0-5.253-4.274-9.527-9.527-9.527zm0 16.945c-4.09 0-7.418-3.328-7.418-7.418S13.91 10.582 18 10.582 25.418 13.91 25.418 18 22.09 25.418 18 25.418z"/><path d="M32.373 3.627A12.263 12.263 0 0023.649 0H12.35a12.263 12.263 0 00-8.724 3.627A12.263 12.263 0 000 12.351v11.297c0 3.287 1.288 6.386 3.627 8.725A12.263 12.263 0 0012.351 36H23.65c3.286 0 6.385-1.288 8.724-3.627A12.263 12.263 0 0036 23.648V12.351c0-3.286-1.288-6.385-3.627-8.724zm1.518 20.021c0 5.648-4.595 10.243-10.242 10.243H12.35c-5.647 0-10.242-4.595-10.242-10.243V12.351C2.11 6.704 6.704 2.11 12.351 2.11H23.65c5.647 0 10.242 4.595 10.242 10.242v11.297z"/><path d="M27.81 7.136c-.278 0-.55.113-.747.31a1.062 1.062 0 00-.308.744c0 .278.112.55.308.746.197.197.469.31.747.31a1.06 1.06 0 001.055-1.056c0-.276-.114-.549-.31-.745a1.063 1.063 0 00-.745-.31z"/></g><defs><clipPath id="clip0"><path fill="#fff" d="M0 0h36v36H0z"/></clipPath></defs></svg>