<svg width="24" height="24" fill="none" xmlns="http://www.w3.org/2000/svg"><g clip-path="url(#clip0)"><path d="M23.946 13.122H.053h23.893zm-1.244-6.551H1.299h21.403zm.85 2.184H.448h23.104zM5.158 21.856h13.685H5.157zM12 0c-.236 0-.47.009-.702.022h1.403A12.29 12.29 0 0012 0zm11.95 10.938H.05h23.9z" fill="#C42126"/><path d="M15.547 4.389h5.73a12.061 12.061 0 00-2.348-2.183h-4.303c.356.626.662 1.365.92 2.183z" fill="#E7E7E7"/><path d="M14.626 2.205h4.303A11.933 11.933 0 0012.702.021h-.37c1.089.137 1.589.943 2.294 2.184z" fill="#DC3027"/><path d="M23.553 8.755c-.214-.76-.5-1.49-.851-2.183h-6.593c.134.701.24 1.433.317 2.183h7.127z" fill="#E7E7E7"/><path d="M15.739 6.572H22.7a12.009 12.009 0 00-1.424-2.183h-6.082c.214.679.396 1.41.543 2.183z" fill="#DC3027"/><path d="M16.678 13.122h7.267c.035-.37.055-.744.055-1.122 0-.358-.02-.711-.05-1.062h-7.27a32.63 32.63 0 01-.002 2.184z" fill="#E7E7E7"/><path d="M23.951 10.939c-.066-.75-.2-1.48-.398-2.183H16.12c.075.715.124 1.446.148 2.183h7.683z" fill="#DC3027"/><path d="M15.984 17.488h6.686c.357-.69.647-1.421.865-2.183h-7.228c-.08.751-.188 1.483-.323 2.183z" fill="#E7E7E7"/><path d="M23.535 15.306c.202-.704.341-1.433.411-2.183h-7.494a30.727 30.727 0 01-.152 2.183h7.235z" fill="#DC3027"/><path d="M18.843 21.855a12.068 12.068 0 002.383-2.183h-5.63c-.263.821-.576 1.56-.938 2.183h4.185z" fill="#E7E7E7"/><path d="M15.384 19.672h5.842a12.016 12.016 0 001.444-2.183h-6.735c-.15.772-.334 1.505-.551 2.183zm-3.819 4.319l-.073-.002.073.002zM12 24c2.544 0 4.901-.794 6.843-2.144H14.5C13.729 23.184 13.22 24 12 24z" fill="#DC3027"/><path d="M15.023 2.206H5.071a12.062 12.062 0 00-2.348 2.183h13.22c-.258-.818-.564-1.557-.92-2.183z" fill="#F3F4F5"/><path d="M5.072 2.205h9.952C14.318.965 13.42.158 12.333.021h-1.034a11.932 11.932 0 00-6.227 2.184z" fill="#E73625"/><path d="M.448 8.755h16.357a26.166 26.166 0 00-.317-2.183H1.298a11.918 11.918 0 00-.85 2.183z" fill="#F3F4F5"/><path d="M2.723 4.389c-.55.67-1.028 1.402-1.424 2.183h15.188a19.238 19.238 0 00-.544-2.183H2.723z" fill="#E73625"/><path d="M0 12c0 .378.02.753.054 1.122h16.897c.025-.726.026-1.457.002-2.183H.05C.019 11.289 0 11.642 0 12z" fill="#F3F4F5"/><path d="M.05 10.939h16.903a30.835 30.835 0 00-.148-2.183H.447a11.936 11.936 0 00-.397 2.183z" fill="#E73625"/><path d="M16.799 15.306H.465c.218.761.509 1.492.865 2.183h15.146c.135-.7.243-1.432.323-2.183z" fill="#F3F4F5"/><path d="M.465 15.306h16.334c.076-.715.127-1.446.152-2.183H.054c.07.75.21 1.479.411 2.183z" fill="#E73625"/><path d="M5.157 21.855h9.83c.363-.624.675-1.362.938-2.183H2.775c.69.83 1.493 1.565 2.382 2.183z" fill="#F3F4F5"/><path d="M1.33 17.489c.403.781.887 1.513 1.444 2.183h13.151c.217-.678.401-1.41.55-2.183H1.33zm10.162 6.5l.073.002c.145.006.29.009.435.009 1.22 0 2.216-.816 2.986-2.144H5.159a11.936 11.936 0 006.334 2.133z" fill="#E73625"/><path d="M11.752.006C5.602.131.591 4.88.052 10.92h11.7V.006z" fill="#283991"/><path d="M2.4 6.799l.183.563h.593l-.48.348.184.563-.48-.348-.478.348.182-.563-.479-.348h.593l.183-.563zm0 1.989l.183.563h.593l-.48.348.184.563-.48-.348-.478.348.182-.563-.479-.348h.593l.183-.563zm1.99-4.973l.183.564h.592l-.48.348.184.563-.48-.348-.478.348.183-.563-.48-.348h.593l.183-.564zm0 1.989l.183.563h.592l-.48.348.184.563-.48-.348-.478.348.183-.563-.48-.348h.593l.183-.563zm0 1.989l.183.564h.592l-.48.347.184.564-.48-.348-.478.348.183-.564-.48-.347h.593l.183-.564zM.89 9.267l-.182-.563.479-.348H.595L.58 8.315c-.065.201-.123.404-.177.61l.008-.006.479.348zm1.032-2.983l.479-.348.479.348-.183-.563.479-.349h-.592L2.4 4.81l-.183.562H2l-.12.186.225.163-.183.563zM4.39 2.952l.479.348-.183-.563.479-.348h-.342c-.29.217-.57.447-.84.69l-.072.22.48-.347zm1.51-.646l.48-.348.478.348-.183-.563.479-.348h-.592l-.025-.076c-.2.102-.4.209-.593.323l.139.1-.183.564zm.48.514l.182.564h.592l-.479.348.183.563-.479-.348-.479.348.183-.563-.479-.348h.592l.183-.563zm0 1.99l.182.562h.592l-.479.349.183.563-.479-.348-.479.348.183-.563-.479-.349h.592l.183-.562zm0 1.989l.182.563h.592l-.479.348.183.563-.479-.348-.479.348.183-.563-.479-.348h.592l.183-.563zm0 1.989l.182.563h.592l-.479.348.183.563-.479-.348-.479.348.183-.563-.479-.348h.592l.183-.563zm1.988-6.962l.183.563h.592l-.479.348.183.563-.479-.348-.48.348.184-.563-.48-.348h.593l.183-.563zm0 1.989l.183.564h.592l-.479.348.183.563-.479-.348-.48.348.184-.563-.48-.348h.593l.183-.564zm0 1.989l.183.563h.592l-.479.348.183.563-.479-.348-.48.348.184-.563-.48-.348h.593l.183-.563zm0 1.989l.183.564h.592l-.479.347.183.564-.479-.348-.48.348.184-.564-.48-.347h.593l.183-.564zM10.357.832l.183.563h.592l-.479.348.183.563-.479-.348-.479.348.183-.563-.479-.348h.592l.183-.563zm0 1.988l.183.564h.592l-.479.348.183.563-.479-.348-.479.348.183-.563-.479-.348h.592l.183-.563zm0 1.99l.183.562h.592l-.479.349.183.563-.479-.348-.479.348.183-.563-.479-.349h.592l.183-.562zm0 1.989l.183.563h.592l-.479.348.183.563-.479-.348-.479.348.183-.563-.479-.348h.592l.183-.563zm0 1.989l.183.563h.592l-.479.348.183.563-.479-.348-.479.348.183-.563-.479-.348h.592l.183-.563z" fill="#EFEFEF"/></g><defs><clipPath id="clip0"><path fill="#fff" d="M0 0h24v24H0z"/></clipPath></defs></svg>