<svg width="24" height="24" fill="none" xmlns="http://www.w3.org/2000/svg"><g clip-path="url(#clip0)"><path d="M12.001 24c6.627 0 12-5.372 12-11.999 0-6.627-5.373-12-12-12s-12 5.373-12 12 5.373 12 12 12z" fill="#fff"/><path d="M23.314 7.999H15.92a33.13 33.13 0 01.007 7.955h7.403c.432-1.239.67-2.568.67-3.954 0-1.403-.243-2.75-.686-4.001z" fill="#2B479D"/><path d="M15.92 7.999h7.394a.083.083 0 00-.004-.01C21.775 3.659 17.824.472 13.078.049 14.915 1.056 15.45 4.246 15.92 8z" fill="#EFECEC"/><path d="M13.078 23.95c4.755-.423 8.71-3.62 10.24-7.962l.012-.034h-7.403c-.466 3.773-1.005 6.985-2.85 7.996z" fill="#E63026"/><path d="M0 12c0 1.386.238 2.715.67 3.954h15.874a33.183 33.183 0 00-.005-7.955H.686A11.976 11.976 0 000 12z" fill="#3757A6"/><path d="M.69 7.989a.169.169 0 01-.004.01h15.852c-.47-3.753-1.624-6.943-3.46-7.95A12.21 12.21 0 0012 0C6.78 0 2.34 3.334.69 7.989z" fill="#EFEFEF"/><path d="M16.545 15.954H.67l.011.034C2.326 20.654 6.771 24 12 24c.363 0 .723-.018 1.078-.05 1.844-1.01 3-4.223 3.467-7.996z" fill="#E73B36"/></g><defs><clipPath id="clip0"><path fill="#fff" d="M0 0h24v24H0z"/></clipPath></defs></svg>