<svg width="181" height="91" fill="none" xmlns="http://www.w3.org/2000/svg"><path d="M2.387 90.452H1.343V79.37h1.044v11.082zm3.111 0H4.46V79.37h1.037l6.497 9.254h.054V79.37h1.037v11.082h-1.014l-6.52-9.262h-.054v9.262zm9.132-3.011h1.052c.056.666.37 1.206.944 1.62.574.41 1.293.615 2.159.615.829 0 1.51-.202 2.042-.606.538-.405.807-.92.807-1.544 0-.517-.187-.937-.56-1.26-.375-.327-.974-.596-1.798-.806l-1.375-.353c-1.029-.261-1.782-.62-2.258-1.076-.47-.455-.706-1.047-.706-1.774 0-.89.358-1.623 1.075-2.196.717-.579 1.623-.868 2.719-.868 1.075 0 1.968.287 2.68.86.717.568 1.09 1.293 1.121 2.174H21.48a2.007 2.007 0 00-.837-1.506c-.507-.384-1.155-.576-1.943-.576-.773 0-1.413.195-1.92.584-.502.384-.753.88-.753 1.49 0 .476.182.865.546 1.167.363.297.954.55 1.774.76l1.198.308c1.116.281 1.922.653 2.42 1.113.496.461.744 1.076.744 1.844 0 .972-.363 1.753-1.09 2.342-.728.584-1.703.876-2.927.876-1.157 0-2.11-.292-2.857-.876-.747-.589-1.15-1.36-1.206-2.312zm10.66-8.071v7.15c0 .942.289 1.7.867 2.273.579.573 1.37.86 2.374.86 1.003 0 1.794-.287 2.373-.86.578-.573.868-1.331.868-2.273v-7.15h1.052v7.211c0 1.209-.387 2.186-1.16 2.934-.773.742-1.818 1.114-3.133 1.114-1.316 0-2.36-.372-3.134-1.114-.768-.748-1.152-1.725-1.152-2.934V79.37h1.045zm10.644.936v4.678h2.834c.804 0 1.429-.205 1.874-.615.45-.41.676-.985.676-1.728 0-.732-.23-1.303-.691-1.712-.456-.415-1.088-.623-1.897-.623h-2.796zm0 5.607v4.539H34.89V79.37h3.963c1.08 0 1.94.294 2.58.883.645.583.968 1.37.968 2.358 0 .783-.21 1.454-.63 2.012-.42.558-1 .932-1.743 1.121l2.68 4.708h-1.22l-2.55-4.539h-3.004zm15.537 4.539l-1.228-3.395h-4.655l-1.229 3.395h-1.113l4.147-11.082h1.045l4.14 11.082H51.47zm-3.579-9.784l-1.989 5.483h4.025l-1.99-5.483h-.046zm6.943 9.784h-1.037V79.37h1.037l6.498 9.254h.053V79.37h1.037v11.082H61.41l-6.52-9.262h-.054v9.262zm14.163.177c-1.511 0-2.712-.517-3.603-1.552-.89-1.04-1.336-2.437-1.336-4.193 0-1.736.446-3.118 1.337-4.147.895-1.03 2.096-1.544 3.602-1.544a4.82 4.82 0 012.127.468c.65.313 1.183.75 1.597 1.314.415.563.671 1.2.768 1.912h-1.052a3.193 3.193 0 00-1.19-1.958c-.64-.507-1.39-.76-2.25-.76-1.178 0-2.118.427-2.82 1.282-.695.85-1.044 1.994-1.044 3.433 0 1.46.349 2.619 1.045 3.479.701.86 1.643 1.29 2.826 1.29.886 0 1.639-.223 2.258-.668a2.906 2.906 0 001.175-1.812h1.052c-.194 1.08-.69 1.927-1.49 2.542-.798.609-1.8.914-3.002.914zM81.731 89.5v.952h-6.69V79.37h6.69v.952h-5.645v3.986h5.361v.937h-5.36V89.5h5.644zm9.769 1.129c-1.51 0-2.71-.517-3.602-1.552-.89-1.04-1.336-2.437-1.336-4.193 0-1.736.445-3.118 1.336-4.147.896-1.03 2.097-1.544 3.602-1.544.773 0 1.483.156 2.128.468.65.313 1.183.75 1.597 1.314.415.563.671 1.2.768 1.912h-1.052a3.193 3.193 0 00-1.19-1.958c-.64-.507-1.39-.76-2.25-.76-1.178 0-2.118.427-2.82 1.282-.696.85-1.044 1.994-1.044 3.433 0 1.46.348 2.619 1.045 3.479.701.86 1.643 1.29 2.826 1.29.886 0 1.639-.223 2.258-.668a2.906 2.906 0 001.175-1.812h1.052c-.194 1.08-.69 1.927-1.49 2.542-.798.609-1.8.914-3.003.914zm10.63-11.436c1.546 0 2.772.514 3.679 1.544.906 1.029 1.359 2.421 1.359 4.178 0 1.756-.453 3.148-1.359 4.178-.907 1.024-2.133 1.536-3.679 1.536-1.547 0-2.773-.512-3.679-1.536-.901-1.03-1.352-2.422-1.352-4.178 0-1.757.453-3.15 1.36-4.178.906-1.03 2.13-1.544 3.671-1.544zm2.888 2.258c-.712-.855-1.675-1.283-2.888-1.283-1.214 0-2.176.428-2.888 1.283-.712.855-1.068 2.01-1.068 3.464 0 1.449.356 2.6 1.068 3.456.717.855 1.679 1.282 2.888 1.282 1.213 0 2.176-.427 2.888-1.282.716-.855 1.075-2.007 1.075-3.456 0-1.455-.359-2.61-1.075-3.464zm14.461-2.081v11.082h-.983v-9.093h-.046l-3.855 9.04h-.914l-3.848-9.04h-.046v9.093h-.983V79.37h1.206l4.109 9.7h.046l4.101-9.7h1.213zm2.074 0h3.932c1.055 0 1.91.317 2.565.952.661.635.991 1.467.991 2.496 0 1.03-.33 1.864-.991 2.504-.66.635-1.518.952-2.572.952h-2.881v4.178h-1.044V79.37zm1.044.936v5.031h2.642c.85 0 1.516-.223 1.997-.668.487-.446.73-1.063.73-1.851 0-.789-.241-1.403-.722-1.843-.481-.446-1.15-.668-2.005-.668h-2.642zm14.324 10.146l-1.229-3.395h-4.654l-1.229 3.395h-1.113l4.147-11.082h1.044l4.14 11.082h-1.106zm-3.579-9.784l-1.989 5.483h4.024l-1.989-5.483h-.046zm6.943 9.784h-1.037V79.37h1.037l6.497 9.254h.054V79.37h1.037v11.082h-1.014l-6.52-9.262h-.054v9.262zm13.84 0h-1.053V85.66l-3.97-6.29h1.198l3.279 5.26h.039l3.279-5.26h1.198l-3.97 6.29v4.792zM.134 18.05c0-1.525.807-2.287 2.42-2.287h25.262c1.613 0 2.419.762 2.419 2.286v1.906c0 1.524-.806 2.286-2.419 2.286H7.256v16.006h16.126c1.612 0 2.418.762 2.418 2.286v1.906c0 1.524-.806 2.286-2.418 2.286H7.256V61.62h20.426c1.612 0 2.419.762 2.419 2.287v1.905c0 1.524-.807 2.286-2.42 2.286H2.42c-1.48 0-2.42-.762-2.42-2.286V18.049h.134zm44.613-2.16h2.42c1.612 0 2.418.762 2.418 2.287v22.992l18.41-23.754c.671-1.017 1.478-1.525 3.09-1.525h3.36c1.478 0 2.015 1.651 1.21 2.668l-15.59 19.054 15.991 27.692c.672 1.144.135 2.54-1.478 2.54h-3.09c-1.613 0-2.42-.507-3.091-1.778L55.632 43.201l-5.913 7.24v15.117c0 1.525-.806 2.287-2.419 2.287h-2.418c-1.478 0-2.42-.762-2.42-2.287V18.05c-.133-1.525.807-2.16 2.285-2.16zm50.393 6.351H84.926c-1.613 0-2.42-.762-2.42-2.286v-1.906c0-1.524.807-2.286 2.42-2.286h27.681c1.613 0 2.419.762 2.419 2.286v1.906c0 1.524-.806 2.286-2.419 2.286H102.26v43.444c0 1.524-.806 2.286-2.418 2.286h-2.42c-1.612 0-2.418-.762-2.418-2.286V22.24h.134zm28.756 8.72c0-10.67 7.391-15.96 16.797-15.96 9.407 0 16.529 5.335 16.529 16.005v34.679c0 1.524-.807 2.286-2.419 2.286h-2.419c-1.613 0-2.419-.762-2.419-2.286v-15.37h-18.813v15.37c0 1.524-.806 2.286-2.418 2.286h-2.419c-1.613 0-2.419-.762-2.419-2.286V30.96zm7.391 13.002H150.1V31.641c0-7.621-4.301-10.29-9.407-10.29-5.241 0-9.406 2.541-9.406 10.29v12.322zM170.254.393c-5.509 0-9.943 4.192-9.943 9.4s4.434 9.4 9.943 9.4c5.51 0 9.944-4.192 9.944-9.4.135-5.208-4.434-9.4-9.944-9.4zm0 15.116c-3.225 0-5.912-2.54-5.912-5.59 0-3.048 2.687-5.589 5.912-5.589s5.913 2.541 5.913 5.59c.134 3.048-2.553 5.589-5.913 5.589z" fill="#252627"/></svg>