<svg width="36" height="36" fill="none" xmlns="http://www.w3.org/2000/svg"><g clip-path="url(#clip0)" fill="#fff"><path d="M30.716 5.316C27.317 2.024 22.802.211 18 .211S8.682 2.024 5.284 5.316C1.877 8.616 0 13.008 0 17.681c0 4.808 2.053 9.412 5.648 12.706v2.464c0 .844.256 1.578.74 2.122.502.565 1.211.875 1.998.875.435 0 .883-.094 1.33-.279l2.918-1.208c1.731.524 3.535.79 5.366.79 4.802 0 9.317-1.814 12.716-5.106C34.123 26.745 36 22.353 36 17.681c0-4.673-1.877-9.064-5.284-12.365zM18 33.041c-1.742 0-3.454-.27-5.089-.804a1.055 1.055 0 00-.73.028L8.908 33.62a1.405 1.405 0 01-.523.119c-.52 0-.628-.483-.628-.888v-2.936c0-.306-.133-.597-.364-.797C4.036 26.206 2.11 22.037 2.11 17.68 2.11 9.21 9.238 2.32 18 2.32s15.89 6.89 15.89 15.36c0 8.47-7.128 15.36-15.89 15.36z"/><path d="M27.734 11.087c-.458 0-.977.207-1.631.652l-5.204 3.534-3.652-2.598a3.672 3.672 0 00-2.136-.692c-1.285 0-2.453.676-3.123 1.807L7.5 21.37c-.395.667-.795 1.527-.376 2.261.23.403.657.644 1.143.644.458 0 .976-.207 1.63-.652l5.204-3.535 3.652 2.598a3.673 3.673 0 002.136.692c1.285 0 2.453-.675 3.123-1.807l4.49-7.58c.394-.666.794-1.527.376-2.26a1.292 1.292 0 00-1.143-.644zm-5.538 9.41c-.286.483-.775.772-1.308.772-.32 0-.636-.104-.913-.302l-4.25-3.023a1.052 1.052 0 00-1.204-.013l-4.24 2.88 3.522-5.946c.287-.484.776-.773 1.308-.773.32 0 .636.105.913.302l4.25 3.023c.36.256.84.261 1.204.013l4.24-2.88-3.522 5.946z"/></g><defs><clipPath id="clip0"><path fill="#fff" d="M0 0h36v36H0z"/></clipPath></defs></svg>