<svg width="24" height="24" fill="none" xmlns="http://www.w3.org/2000/svg"><g clip-path="url(#clip0)" fill="#242424"><path d="M11.979 24c-2.01 0-4.033-.501-5.865-1.533a.706.706 0 11.693-1.23c4.12 2.32 9.336 1.602 12.683-1.746 4.13-4.13 4.13-10.85 0-14.981S8.64.38 4.51 4.51C.38 8.64.38 15.36 4.51 19.49a.706.706 0 01-1 1c-4.68-4.682-4.68-12.298 0-16.979 4.682-4.68 12.298-4.681 16.98 0 4.68 4.681 4.68 12.297 0 16.978A12.031 12.031 0 0111.978 24z"/><path d="M17.304 12.937H6.696a.706.706 0 010-1.412h10.608a.706.706 0 010 1.412z"/></g><defs><clipPath id="clip0"><path fill="#fff" d="M0 0h24v24H0z"/></clipPath></defs></svg>