<svg width="36" height="36" fill="none" xmlns="http://www.w3.org/2000/svg"><g clip-path="url(#clip0)"><path d="M35.443 3.576c-.44-.538-1.098-.834-1.855-.834-.41 0-.846.087-1.294.258L1.82 14.632C.203 15.25-.014 16.176 0 16.672c.014.498.284 1.41 1.933 1.935l.03.01 6.32 1.808 3.42 9.775c.465 1.333 1.511 2.16 2.73 2.16.768 0 1.524-.321 2.185-.93l3.91-3.6 5.67 4.566.003.002.053.043.016.012c.63.489 1.318.747 1.99.747 1.313 0 2.36-.972 2.664-2.476L35.917 6.07c.2-.99.032-1.875-.474-2.494zM10.4 20.081l12.195-6.23L15 21.92a1.053 1.053 0 00-.256.47l-1.464 5.93-2.881-8.239zm4.79 9.797c-.05.047-.101.088-.152.126l1.358-5.502 2.471 1.99-3.677 3.386zM33.85 5.651l-4.993 24.654c-.048.236-.201.785-.596.785-.195 0-.44-.106-.69-.299l-6.427-5.174-.003-.002-3.823-3.079 10.98-11.668a1.055 1.055 0 00-1.247-1.662L8.99 18.433l-6.408-1.834L33.046 4.97a1.55 1.55 0 01.542-.118c.065 0 .18.007.222.06.056.068.128.301.04.739z" fill="#fff"/></g><defs><clipPath id="clip0"><path fill="#fff" d="M0 0h36v36H0z"/></clipPath></defs></svg>