<svg width="36" height="36" fill="none" xmlns="http://www.w3.org/2000/svg"><path d="M26.455 25.418H14.801v-6.363h11.654a5.297 5.297 0 005.291-5.291 5.297 5.297 0 00-5.29-5.291H14.8V5.29A5.297 5.297 0 009.51 0a5.297 5.297 0 00-5.291 5.291v25.418A5.297 5.297 0 009.509 36h16.946a5.297 5.297 0 005.291-5.291 5.297 5.297 0 00-5.29-5.291zm0 8.473H9.51a3.185 3.185 0 01-3.182-3.182V5.291A3.185 3.185 0 019.51 2.109a3.185 3.185 0 013.181 3.182v4.236c0 .583.473 1.055 1.055 1.055h12.71a3.185 3.185 0 013.18 3.182 3.185 3.185 0 01-3.18 3.181h-12.71c-.582 0-1.055.472-1.055 1.055v8.473c0 .582.473 1.054 1.055 1.054h12.71a3.185 3.185 0 013.18 3.182 3.185 3.185 0 01-3.18 3.182z" fill="#fff"/></svg>