<svg width="36" height="36" fill="none" xmlns="http://www.w3.org/2000/svg"><path d="M34.487 12.706c0-3.381-1.325-6.568-3.731-8.974C28.35 1.325 25.163 0 21.781 0h-7.528a12.617 12.617 0 00-8.975 3.731c-2.406 2.407-3.731 5.594-3.731 8.975v5.918c0 2.618.799 5.137 2.31 7.284a12.75 12.75 0 005.216 4.311v3.4c0 1.757.984 2.381 1.827 2.381.602 0 1.204-.297 1.79-.883l3.787-3.787h5.305c3.38 0 6.568-1.325 8.974-3.731 2.406-2.407 3.731-5.594 3.731-8.975v-5.918zM21.781 29.22h-5.74c-.28 0-.548.112-.746.31l-4.096 4.095a.405.405 0 01-.016.016v-4.125c0-.438-.27-.83-.679-.986-4.096-1.563-6.847-5.544-6.847-9.906v-5.918c0-2.818 1.105-5.475 3.113-7.483a10.52 10.52 0 017.483-3.114h7.528a10.52 10.52 0 017.483 3.114 10.52 10.52 0 013.114 7.483v5.918c0 5.843-4.754 10.596-10.596 10.596z" fill="#fff"/><path d="M20.822 17.25a1.054 1.054 0 00-1.491 0l-.852.852-3.302-3.301.852-.852a1.055 1.055 0 000-1.492l-3.994-3.994a1.054 1.054 0 00-1.491 0L7.748 11.26a3.884 3.884 0 000 5.486l8.787 8.787a3.853 3.853 0 002.742 1.132 3.853 3.853 0 002.743-1.132l2.796-2.796a1.056 1.056 0 000-1.492l-3.994-3.994zm-.293 6.79a1.757 1.757 0 01-1.252.515c-.475 0-.919-.183-1.251-.515L9.24 15.253a1.771 1.771 0 010-2.502l2.05-2.05 2.502 2.502-.852.852a1.055 1.055 0 000 1.491l4.793 4.793c.412.412 1.08.412 1.491 0l.852-.851 2.503 2.502-2.05 2.05zM18.273 4.666a1.055 1.055 0 100 2.109c2.414 0 4.683.94 6.39 2.647a8.976 8.976 0 012.647 6.39 1.055 1.055 0 002.11 0 11.07 11.07 0 00-3.266-7.882 11.073 11.073 0 00-7.881-3.264z" fill="#fff"/><path d="M22.791 15.811a1.055 1.055 0 002.11 0 6.635 6.635 0 00-6.628-6.627 1.055 1.055 0 100 2.11 4.523 4.523 0 014.518 4.517z" fill="#fff"/></svg>