<svg width="36" height="36" fill="none" xmlns="http://www.w3.org/2000/svg"><g clip-path="url(#clip0)" fill="#fff"><path d="M24.55 17.841a1.055 1.055 0 00-1.492 0l-1.65 1.65-4.9-4.898 1.65-1.651a1.054 1.054 0 000-1.492l-3.993-3.994a1.054 1.054 0 00-1.491 0L8.28 11.85a3.884 3.884 0 000 5.485L18.665 27.72a3.852 3.852 0 002.742 1.133 3.851 3.851 0 002.743-1.133l4.394-4.393a1.054 1.054 0 000-1.492l-3.994-3.994zm-1.891 8.387a1.756 1.756 0 01-1.252.515c-.475 0-.919-.183-1.251-.514L9.772 15.844a1.772 1.772 0 010-2.503l3.647-3.647 2.502 2.502-1.65 1.65a1.054 1.054 0 000 1.492l6.39 6.39c.412.412 1.08.412 1.492 0l1.65-1.65 2.503 2.503-3.647 3.647z"/><path d="M30.728 5.272C27.328 1.872 22.808 0 18 0A17.885 17.885 0 005.272 5.272C1.872 8.672 0 13.192 0 18c0 3.507 1.003 6.887 2.906 9.808l-1.464 5.694a1.055 1.055 0 001.284 1.285l5.788-1.488A17.925 17.925 0 0018 36c4.808 0 9.328-1.872 12.728-5.272C34.128 27.328 36 22.808 36 18s-1.873-9.328-5.272-12.728zM18 33.891c-3.115 0-6.132-.902-8.724-2.608a1.054 1.054 0 00-.842-.141L3.93 32.3l1.137-4.424c.076-.296.02-.61-.154-.862A15.797 15.797 0 012.11 18c0-4.245 1.653-8.235 4.654-11.236A15.788 15.788 0 0118 2.109c8.762 0 15.89 7.13 15.89 15.89 0 8.763-7.128 15.892-15.89 15.892z"/></g><defs><clipPath id="clip0"><path fill="#fff" d="M0 0h36v36H0z"/></clipPath></defs></svg>