<svg width="21" height="19" fill="none" xmlns="http://www.w3.org/2000/svg"><path fill-rule="evenodd" clip-rule="evenodd" d="M20.618 16.448c-.434 1.17-2.538 2.299-3.488 2.378-.95.08-.95.758-6.203-1.249-5.253-2.006-8.565-7.24-8.823-7.573C1.846 9.66 0 7.281 0 4.81 0 2.338 1.33 1.13 1.805.624A1.91 1.91 0 013.19 0c.339 0 .692.04.99.04.3 0 .734-.173 1.168.837.434 1.01 1.466 3.48 1.588 3.72.136.252.217.545.04.877-.176.332-.257.545-.515.837-.258.292-.543.65-.774.877-.258.252-.53.518-.23 1.023.298.505 1.33 2.152 2.877 3.48 1.968 1.701 3.638 2.233 4.153 2.485.516.253.815.213 1.113-.12.299-.331 1.29-1.46 1.643-1.966.34-.505.692-.412 1.167-.252.475.173 3.013 1.382 3.53 1.634.515.253.854.372.99.585.122.212.122 1.209-.312 2.391z" fill="#333"/></svg>