<svg width="69" height="70" fill="none" xmlns="http://www.w3.org/2000/svg"><path d="M61.76 28.33c-.127-7.968-3.354-15.192-9.118-20.388C46.96 2.821 39.232 0 30.882 0h-3.431C12.315 0 0 12.315 0 27.451c0 6.899 3.213 12.47 6.504 17.584l.078.114c5.108 6.879 4.509 13.34 1.747 22.178L7.494 70h37.8v-7.755c0-1.4 1.14-2.54 2.54-2.54h5.009c4.92 0 8.922-4.001 8.922-8.92v-6.066l7.02-2.34-7.024-14.05zm-4.112 13.42v9.033a4.81 4.81 0 01-4.804 4.804h-5.01a6.665 6.665 0 00-6.657 6.657v3.637h-28.13c1.161-4.231 1.609-7.505 1.478-10.612-.188-4.495-1.691-8.59-4.594-12.52-2.947-4.583-5.812-9.54-5.812-15.299 0-12.866 10.467-23.333 23.333-23.333h3.431c15.509 0 26.765 10.39 26.765 24.706v.486l5.332 10.664-5.332 1.777z" fill="#767676"/></svg>