<svg width="69" height="69" fill="none" xmlns="http://www.w3.org/2000/svg"><path d="M69 .388H0v50.735h36.53v17.49l10.146-5.074 10.148 5.074v-17.49H69V.388zM32.47 38.947H16.13l-3.953-3.953V16.517l3.953-3.953h36.74l3.953 3.953v12.498a14.163 14.163 0 00-10.148-4.274c-7.833 0-14.205 6.372-14.205 14.206zm14.206 10.147c-5.595 0-10.147-4.552-10.147-10.148 0-5.595 4.552-10.146 10.147-10.146 5.596 0 10.148 4.551 10.148 10.146 0 5.596-4.552 10.148-10.148 10.148zm-6.088 2.686a14.09 14.09 0 004.06 1.227v7.009l-4.06 2.03V51.78zm8.118 8.236v-7.01a14.09 14.09 0 004.059-1.226v10.265l-4.06-2.03zM64.94 47.064h-6.613a14.126 14.126 0 002.554-8.117V14.835l-6.33-6.33H14.448l-6.33 6.33v21.84l6.33 6.33h18.614a14.16 14.16 0 001.963 4.06H4.06V4.446h60.88v42.617z" fill="#767676"/></svg>