<svg width="64" height="68" fill="none" xmlns="http://www.w3.org/2000/svg"><path d="M60.778 45.705c-.421-3.05-1.993-6.38-4.481-9.706.22-.295.435-.59.642-.886C60.995 29.317 61.973 23.95 59.692 20c-2.28-3.95-7.417-5.787-14.465-5.172-.36.03-.723.07-1.088.113-1.637-3.818-3.734-6.844-6.165-8.734C38.091 2.777 35.332 0 31.98 0c-3.355 0-6.112 2.78-5.995 6.207-2.43 1.89-4.528 4.916-6.165 8.734a34.98 34.98 0 00-1.088-.113C11.684 14.213 6.547 16.05 4.267 20c-2.28 3.95-1.303 9.317 2.753 15.113.207.296.422.591.643.886-2.489 3.327-4.06 6.655-4.482 9.706-.06.032-.122.064-.182.099A6.007 6.007 0 00.803 54a5.994 5.994 0 008.373 2.088c3.242 1.319 7.142 1.387 10.645.97.145.339.294.673.447 1C23.259 64.47 27.418 68 31.98 68c4.56 0 8.72-3.53 11.711-9.941.153-.328.302-.662.447-1.001 3.504.417 7.403.349 10.645-.97 2.93 1.826 6.707.798 8.373-2.088 1.689-2.924.628-6.698-2.378-8.295zM45.575 18.813c5.333-.465 9.215.697 10.653 3.187 1.438 2.49.503 6.434-2.566 10.82l-.01.015c-1.812-1.96-3.92-3.888-6.276-5.724-.412-2.959-1.028-5.748-1.82-8.297l.019-.001zm-4.02 33.766a44.231 44.231 0 01-4.41-1.177 66.424 66.424 0 005.595-3.23 43.745 43.745 0 01-1.186 4.407zm-9.575-3.142a62.43 62.43 0 01-11.64-6.717 62.426 62.426 0 01.002-13.44 62.567 62.567 0 0111.637-6.717 62.572 62.572 0 0111.636 6.717c.5 4.547.469 9.183.002 13.44a62.43 62.43 0 01-11.639 6.718zm-10.761-1.265a66.422 66.422 0 005.596 3.23 44.24 44.24 0 01-4.41 1.177 43.833 43.833 0 01-1.186-4.407zm-5.161-8.939a43.815 43.815 0 01-3.224-3.23 44.23 44.23 0 013.223-3.233 67.28 67.28 0 000 6.463zm10.76-18.638a66.901 66.901 0 00-5.595 3.23 44.205 44.205 0 011.187-4.407c1.436.301 2.911.696 4.409 1.177zm14.732-1.176c.46 1.4.854 2.875 1.186 4.405a66.963 66.963 0 00-5.596-3.23 43.764 43.764 0 014.41-1.175zm6.352 13.35a44.231 44.231 0 013.223 3.234 43.817 43.817 0 01-3.224 3.23 66.9 66.9 0 000-6.463zM31.98 4c1.102 0 2 .897 2 2s-.898 2-2 2c-1.103 0-2-.897-2-2s.897-2 2-2zm-4.38 6.095a5.987 5.987 0 008.76 0c1.357 1.316 2.621 3.207 3.714 5.554-2.626.594-5.35 1.46-8.094 2.573-2.746-1.113-5.469-1.98-8.095-2.573 1.093-2.347 2.357-4.238 3.715-5.554zM10.297 32.82C7.228 28.434 6.293 24.49 7.731 22c1.438-2.49 5.321-3.652 10.653-3.187l.018.001c-.791 2.55-1.407 5.338-1.819 8.297-2.356 1.836-4.464 3.764-6.275 5.724l-.01-.015zM7 52.732a1.999 1.999 0 11-2-3.464A2.002 2.002 0 017.73 50c.551.955.223 2.18-.732 2.732zm4.736.014a5.987 5.987 0 00-4.38-7.587c.461-1.833 1.467-3.874 2.953-5.994 1.827 1.978 3.94 3.903 6.275 5.724.409 2.933 1.02 5.725 1.82 8.296-2.58.228-4.85.078-6.668-.44zm28.332 3.621C37.803 61.218 34.855 64 31.98 64c-3.65 0-6.576-4.33-8.095-7.65 2.603-.588 5.326-1.45 8.094-2.572 2.769 1.122 5.492 1.984 8.095 2.573l-.007.017zm5.49-3.181c.799-2.572 1.41-5.363 1.819-8.297 2.336-1.82 4.448-3.746 6.275-5.724 1.487 2.12 2.492 4.16 2.953 5.995a5.987 5.987 0 00-4.38 7.586c-1.818.517-4.088.667-6.667.44zM59.692 52a2.002 2.002 0 01-2.732.732A2.002 2.002 0 0156.228 50a2.002 2.002 0 012.732-.732A2.002 2.002 0 0159.692 52z" fill="#767676"/></svg>