<svg width="88" height="70" fill="none" xmlns="http://www.w3.org/2000/svg"><path d="M88 19.019L44 0 0 19.019l6.754 2.919v27.058a8.058 8.058 0 00-5.321 7.588V70h15.963V56.584a8.058 8.058 0 00-5.321-7.588V24.238l7.981 3.45v19.821L44 59.584l23.944-12.075V27.688L88 19.018zM12.075 64.634H6.754v-8.05c0-1.48 1.193-2.683 2.66-2.683s2.66 1.203 2.66 2.683v8.05zM44 5.839l30.492 13.18L44 32.199l-30.492-13.18L44 5.839zm18.623 38.354L44 53.583l-18.623-9.39V29.988L44 38.038l18.623-8.05v14.205z" fill="#767676"/></svg>