<svg width="50" height="50" fill="none" xmlns="http://www.w3.org/2000/svg"><path d="M38.184 30.762H50V19.043h-6.876a18.922 18.922 0 00-1.167-2.812l4.795-4.794-8.287-8.287-4.794 4.795a18.93 18.93 0 00-2.812-1.167V0H19.141v6.778a18.93 18.93 0 00-2.812 1.167L11.535 3.15l-8.287 8.287 4.795 4.794a18.927 18.927 0 00-1.167 2.812H0v11.719h11.816V42.48H8.79v-2.93H0v8.79h8.79v-2.93h5.956V30.762h8.79v5.86h-2.93v8.788h8.788v-8.789h-2.93v-5.86h8.79v16.31h5.957V50H50v-8.79h-8.79v2.93h-3.026V30.763zM5.859 45.41H2.93v-2.93h2.93v2.93zm20.606-2.93h-2.93v-2.93h2.93v2.93zM2.93 27.832v-5.86h6.18c.212-.676.515-2.729 2.007-5.253l.578-.978-4.305-4.304 4.144-4.143 4.304 4.304c.603-.316 2.308-1.575 5.132-2.301l1.1-.283V2.93h5.859v6.084c.677.212 2.73.515 5.253 2.006l.978.578 4.304-4.304 4.144 4.143-4.305 4.304c.317.604 1.575 2.308 2.302 5.132l.283 1.1h6.181v5.859H35.254v-2.93c0-5.654-4.6-10.254-10.254-10.254s-10.254 4.6-10.254 10.254v2.93H2.93zm14.746 0v-2.93c0-4.038 3.285-7.324 7.324-7.324s7.324 3.286 7.324 7.324v2.93H17.676zM44.14 44.141h2.93v2.93h-2.93v-2.93z" fill="#000"/></svg>