<svg width="50" height="53" fill="none" xmlns="http://www.w3.org/2000/svg"><path d="M44.419 35.102H34.205c4.77-4.553 9.109-9.015 9.109-16.788C43.314 7.84 35.45 0 25 0 14.53 0 6.686 7.864 6.686 18.314c0 7.773 4.34 12.235 9.11 16.788H5.58L0 52.091h50l-5.581-16.99zM9.739 18.314C9.738 9.47 16.156 3.052 25 3.052s15.261 6.419 15.261 15.262c0 9.893-8.35 13.397-15.26 21.918-2.078-2.56-4.299-4.674-6.459-6.73-4.918-4.68-8.804-8.376-8.804-15.188zM5.451 45.276h11.001v-3.053H6.455l1.336-4.07h11.104v-.068c4.055 4.02 5.151 6.035 6.105 7.237.978-1.232 2.039-3.205 6.105-7.237v.069h11.104l1.337 4.07h-10v3.052h11.002l1.237 3.764H4.215l1.237-3.764z" fill="#000"/></svg>