<svg width="50" height="51" fill="none" xmlns="http://www.w3.org/2000/svg"><path d="M50 23.55h-3.07c-.674-11.04-9.482-19.837-20.465-20.555V.015h-2.93v2.98A21.78 21.78 0 0010.533 8.38L6.67 4.516V0H3.74v3.658H0v2.93h4.598l3.864 3.863a21.782 21.782 0 00-5.391 13.1H0v2.93h3.083c.76 10.887 9.476 19.643 20.452 20.36v3.175h2.93V46.84c10.913-.713 19.688-9.41 20.452-20.36H50v-2.93zm-6.007 0h-4.409c-.647-6.955-6.177-12.515-13.12-13.207V5.93c9.368.716 16.86 8.24 17.53 17.62zM25 36.638c-6.462 0-11.719-5.257-11.719-11.719 0-2.704.921-5.197 2.465-7.182l3.146 3.146a7.28 7.28 0 00-1.216 4.036c0 4.038 3.285 7.324 7.324 7.324 4.038 0 7.324-3.285 7.324-7.324S29.04 17.594 25 17.594a7.28 7.28 0 00-4.036 1.216l-3.146-3.145A11.66 11.66 0 0125 13.198c6.462 0 11.719 5.257 11.719 11.719s-5.257 11.719-11.72 11.719zm-1.036-10.683l2.072-2.072-2.93-2.93c2.901-1.39 6.288.736 6.288 3.966A4.4 4.4 0 0125 29.313c-3.232 0-5.355-3.389-3.965-6.288l2.93 2.929zM23.535 5.93v4.412a14.583 14.583 0 00-7.8 3.238l-3.118-3.118A18.963 18.963 0 0123.535 5.93zm-12.99 6.604l3.118 3.118a14.582 14.582 0 00-3.247 7.898h-4.41a18.96 18.96 0 014.54-11.016zM6.021 26.48h4.414c.731 6.865 6.223 12.327 13.1 13.013v4.412C14.233 43.195 6.78 35.77 6.021 26.48zm20.444 17.425v-4.412c6.877-.686 12.369-6.148 13.1-13.013h4.413c-.758 9.29-8.211 16.714-17.513 17.425z" fill="#000"/></svg>