<svg width="50" height="50" fill="none" xmlns="http://www.w3.org/2000/svg"><path d="M47.059 17.647V4.412h-1.47a2.944 2.944 0 01-2.942-2.941V0H7.353v1.47a2.945 2.945 0 01-2.941 2.942h-1.47v13.235H0V50h50V17.647h-2.941zM5.882 11.765h2.942V8.824H5.882V7.167a5.904 5.904 0 004.226-4.226h29.784a5.904 5.904 0 004.226 4.226v1.657h-2.942v2.94h2.942v5.883h-5.883v-2.286L25 7.09l-13.235 8.272v2.286H5.882v-5.882zm-2.94 8.823h8.823v2.941H2.94v-2.94zm8.823 26.47H2.94V26.472h8.824V47.06zm23.53 0h-20.59V16.993L25 10.558l10.294 6.434v30.067zm11.764 0h-8.824V26.472h8.824V47.06zM38.235 23.53v-2.94h8.824v2.94h-8.824z" fill="#000"/></svg>