<svg width="51" height="50" fill="none" xmlns="http://www.w3.org/2000/svg"><path d="M42.678 7.322A24.834 24.834 0 0025.073 0C11.286-.054 0 11.11 0 25c0 13.816 11.181 25 25 25a24.845 24.845 0 0017.678-7.322c9.77-9.77 9.772-25.585 0-35.356zM26.465 45.766V36.81c2.278.15 4.492.646 6.58 1.462a27.447 27.447 0 01-6.58 7.494zm0-11.89v-7.411H36.73a25.85 25.85 0 01-2.316 9.197 24.897 24.897 0 00-7.949-1.786zm0-10.341v-7.411a24.9 24.9 0 007.949-1.787 25.855 25.855 0 012.316 9.198H26.465zm0-10.346V4.234a27.446 27.446 0 016.58 7.493 21.979 21.979 0 01-6.58 1.462zm3.685-9.652a22.02 22.02 0 019.017 4.553 22.055 22.055 0 01-3.464 2.386 30.41 30.41 0 00-5.553-6.939zm-6.614.853v8.799a21.97 21.97 0 01-6.42-1.4 27.447 27.447 0 016.42-7.4zm-9.09 6.167a22.061 22.061 0 01-3.613-2.467 22.016 22.016 0 019.28-4.615 30.41 30.41 0 00-5.667 7.082zm9.09 5.567v7.41h-10.07a25.847 25.847 0 012.286-9.13 24.906 24.906 0 007.782 1.72zm0 10.34v7.412c-2.698.155-5.32.74-7.783 1.72a25.847 25.847 0 01-2.286-9.131h10.068zm0 10.346v8.8a27.447 27.447 0 01-6.42-7.4c2.04-.78 4.2-1.254 6.42-1.4zm-3.423 9.714a22.015 22.015 0 01-9.28-4.615 22.064 22.064 0 013.613-2.467 30.41 30.41 0 005.667 7.082zm15.59-7c1.22.677 2.38 1.474 3.464 2.385a22.02 22.02 0 01-9.017 4.553 30.417 30.417 0 005.553-6.939zm1.352-2.602c1.511-3.29 2.416-6.839 2.61-10.457h7.356a21.988 21.988 0 01-5.728 13.407 25.009 25.009 0 00-4.237-2.95zm9.966-13.387h-7.357c-.193-3.619-1.098-7.167-2.608-10.458a25.003 25.003 0 004.237-2.95 21.988 21.988 0 015.728 13.408zM8.708 10.127a24.995 24.995 0 004.395 3.035c-1.488 3.267-2.378 6.785-2.57 10.373H2.98a21.989 21.989 0 015.728-13.408zM2.98 26.464h7.553c.192 3.588 1.082 7.107 2.57 10.373a25 25 0 00-4.395 3.035A21.988 21.988 0 012.98 26.465z" fill="#000"/></svg>