<svg width="36" height="28" fill="none" xmlns="http://www.w3.org/2000/svg"><path d="M21.422 27.719c0-5.532.031-9.063.094-10.594.218-5.906 1.172-10.172 2.859-12.797C26.063 1.672 29.031.344 33.281.344l1.172 4.968c-2.312 0-3.875.735-4.687 2.204-.782 1.468-1.172 3.64-1.172 6.515h6.703V27.72H21.422zm-20.672 0c0-5.532.031-9.063.094-10.594.219-5.906 1.172-10.172 2.86-12.797C5.39 1.672 8.358.344 12.608.344l1.172 4.968c-2.312 0-3.875.735-4.687 2.204-.781 1.468-1.172 3.64-1.172 6.515h6.703V27.72H.75z" fill="#333"/></svg>