<svg width="50" height="50" fill="none" xmlns="http://www.w3.org/2000/svg"><path d="M42.676 36.816V7.252C42.676 3.253 39.423 0 35.424 0H5.078v.001A5.132 5.132 0 000 5.127v8.057h7.324v3.247C3.173 17.131 0 20.751 0 25.098a8.769 8.769 0 002.93 6.545v12.305l4.394-2.93v1.73c0 3.999 3.253 7.252 7.252 7.252h30.346v-.001A5.132 5.132 0 0050 44.873v-8.057h-7.324zM2.93 5.126A2.2 2.2 0 015.127 2.93a2.2 2.2 0 012.197 2.197v5.127H2.93V5.127zm5.86 14.112a5.866 5.866 0 015.858 5.86 5.866 5.866 0 01-5.859 5.859 5.866 5.866 0 01-5.86-5.86c0-3.23 2.63-5.859 5.86-5.859zM5.86 33.384a8.785 8.785 0 005.859 0v5.09l-2.93-1.953-2.93 1.953v-5.09zm4.394 9.364v-1.73l4.394 2.93V31.643a8.769 8.769 0 002.93-6.545c0-4.348-3.173-7.967-7.324-8.667V5.127c0-.786-.178-1.53-.496-2.197h25.666a4.327 4.327 0 014.322 4.322v37.621c0 .786.178 1.53.496 2.197H14.576a4.327 4.327 0 01-4.322-4.322zm36.816 2.125a2.2 2.2 0 01-2.197 2.197 2.2 2.2 0 01-2.197-2.197v-5.127h4.394v5.127z" fill="#000"/><path d="M21.973 8.79h13.183v2.929H21.973v-2.93zm0 7.519h13.183v2.93H21.973v-2.93zm0 7.324h13.183v2.93H21.973v-2.93zm0 7.324h13.183v2.93H21.973v-2.93zm0 7.324h13.183v2.93H21.973v-2.93z" fill="#000"/></svg>