<svg width="51" height="51" fill="none" xmlns="http://www.w3.org/2000/svg"><path d="M42.715 11.684V.049L18.05 7.921H6.06v4.398H0v14.662h6.06v4.399h4.399v18.67h14.07l-1.98-8.407h2.083v-2.932h-2.775L20.3 32.097l22.416 7.154V26.346c4.214 0 7.33-3.286 7.33-7.331 0-4.05-3.12-7.331-7.33-7.331zm-8.797-5.75v27.432l-14.173-4.523V10.457l14.173-4.523zM2.932 24.05v-8.797H6.06v8.797H2.932zm6.06-13.196h7.82v17.594h-7.82V10.853zm4.4 36.264V31.38h3.726l3.707 15.737h-7.434zm26.39-11.88l-2.932-.935V4.999l2.932-.936v31.174zm2.933-11.824v-8.797c2.507 0 4.398 1.891 4.398 4.399 0 2.507-1.89 4.398-4.398 4.398z" fill="#000"/></svg>