<svg width="50" height="44" fill="none" xmlns="http://www.w3.org/2000/svg"><path d="M45.46 34.79a5.837 5.837 0 001.61-4.028 5.866 5.866 0 00-5.86-5.86 5.866 5.866 0 00-5.858 5.86c0 1.559.613 2.977 1.61 4.027a8.843 8.843 0 00-3.857 4.294 8.845 8.845 0 00-3.855-4.294 5.837 5.837 0 001.61-4.027c0-3.231-2.63-5.86-5.86-5.86a5.866 5.866 0 00-5.86 5.86c0 1.559.614 2.977 1.61 4.027a8.844 8.844 0 00-3.855 4.294 8.844 8.844 0 00-3.856-4.294 5.837 5.837 0 001.61-4.027c0-3.231-2.63-5.86-5.86-5.86a5.866 5.866 0 00-5.86 5.86c0 1.559.614 2.977 1.61 4.027A8.795 8.795 0 000 42.48v1.465h50V42.48a8.795 8.795 0 00-4.54-7.69zM8.79 27.831a2.933 2.933 0 012.929 2.93 2.933 2.933 0 01-2.93 2.93 2.933 2.933 0 01-2.93-2.93 2.933 2.933 0 012.93-2.93zM3.114 41.016a5.87 5.87 0 015.674-4.395 5.87 5.87 0 015.674 4.395H3.115zM25 27.832a2.933 2.933 0 012.93 2.93 2.933 2.933 0 01-2.93 2.93 2.933 2.933 0 01-2.93-2.93 2.933 2.933 0 012.93-2.93zm-5.674 13.184A5.87 5.87 0 0125 36.62a5.87 5.87 0 015.674 4.395H19.326zm21.885-13.184a2.933 2.933 0 012.93 2.93 2.933 2.933 0 01-2.93 2.93 2.933 2.933 0 01-2.93-2.93 2.933 2.933 0 012.93-2.93zm-5.674 13.184a5.87 5.87 0 015.674-4.395 5.87 5.87 0 015.674 4.395H35.537zM33.79 17.578a8.796 8.796 0 00-4.54-7.691 5.837 5.837 0 001.61-4.028A5.868 5.868 0 0025 0a5.866 5.866 0 00-5.86 5.86 5.84 5.84 0 001.61 4.027 8.796 8.796 0 00-4.54 7.691v1.465h17.58v-1.465zM25 2.93a2.933 2.933 0 012.93 2.93A2.933 2.933 0 0125 8.79a2.933 2.933 0 01-2.93-2.93A2.933 2.933 0 0125 2.93zm-5.674 13.183A5.87 5.87 0 0125 11.72a5.87 5.87 0 015.674 4.394H19.326zm23.35 5.86h2.93V7.324H35.352v2.93h7.324v11.719zM7.324 10.254h7.324v-2.93H4.395v14.649h2.93v-11.72z" fill="#000"/></svg>