<svg width="10" height="10" viewBox="0 0 10 10" fill="none" xmlns="http://www.w3.org/2000/svg">
<path d="M8.57162 0.12793H1.42838C0.640762 0.12793 0 0.768691 0 1.55631V5.97832C0 6.76594 0.640762 7.4067 1.42836 7.4067H2.46611V9.6775C2.46611 9.75599 2.51311 9.82683 2.58539 9.8574C2.60992 9.86777 2.63576 9.87281 2.66139 9.87281C2.71127 9.87281 2.76035 9.85369 2.79754 9.81756L5.27832 7.4067H8.57162C9.35924 7.4067 10 6.76594 10 5.97832V1.55631C10 0.768691 9.35924 0.12793 8.57162 0.12793ZM9.60938 5.97832C9.60938 6.55053 9.14385 7.01607 8.57162 7.01607H5.19904C5.1482 7.01607 5.09937 7.0359 5.06293 7.07133L2.85676 9.21535V7.21139C2.85676 7.10352 2.76932 7.01607 2.66145 7.01607H1.42838C0.856152 7.01607 0.390625 6.55053 0.390625 5.97832V1.55631C0.390625 0.984102 0.856152 0.518574 1.42836 0.518574H8.5716C9.14383 0.518574 9.60935 0.984102 9.60935 1.55631V5.97832H9.60938Z" fill="black"/>
</svg>
