<svg width="10" height="8" viewBox="0 0 10 8" fill="none" xmlns="http://www.w3.org/2000/svg">
<path d="M9.93643 3.80578C9.84709 3.68357 7.71852 0.813477 4.99994 0.813477C2.28137 0.813477 0.152695 3.68357 0.063457 3.80566C-0.0211523 3.9216 -0.0211523 4.07885 0.063457 4.19479C0.152695 4.31699 2.28137 7.18709 4.99994 7.18709C7.71852 7.18709 9.84709 4.31697 9.93643 4.19488C10.0212 4.07897 10.0212 3.9216 9.93643 3.80578ZM4.99994 6.52775C2.99742 6.52775 1.26303 4.62281 0.749609 4.00006C1.26236 3.37676 2.99313 1.47281 4.99994 1.47281C7.00236 1.47281 8.73664 3.37742 9.25027 4.00051C8.73752 4.62379 7.00676 6.52775 4.99994 6.52775Z" fill="black"/>
<path d="M4.99951 2.02246C3.90885 2.02246 3.02148 2.90982 3.02148 4.00049C3.02148 5.09115 3.90885 5.97852 4.99951 5.97852C6.09018 5.97852 6.97754 5.09115 6.97754 4.00049C6.97754 2.90982 6.09018 2.02246 4.99951 2.02246ZM4.99951 5.31916C4.27236 5.31916 3.68084 4.72762 3.68084 4.00049C3.68084 3.27336 4.27238 2.68182 4.99951 2.68182C5.72664 2.68182 6.31818 3.27336 6.31818 4.00049C6.31818 4.72762 5.72666 5.31916 4.99951 5.31916Z" fill="black"/>
</svg>
