<svg width="10" height="9" viewBox="0 0 10 9" fill="none" xmlns="http://www.w3.org/2000/svg">
<path d="M4.99999 8.89677C4.85763 8.89677 4.72037 8.8452 4.61341 8.75151C4.20943 8.39827 3.81995 8.06631 3.47633 7.7735L3.47457 7.77197C2.46711 6.91344 1.59713 6.17202 0.991819 5.44166C0.31517 4.62516 0 3.85101 0 3.00529C0 2.1836 0.281753 1.42555 0.793303 0.870665C1.31096 0.309219 2.02125 0 2.79357 0C3.37081 0 3.89945 0.182495 4.36477 0.542373C4.5996 0.724028 4.81246 0.946348 4.99999 1.20567C5.1876 0.946348 5.40038 0.724028 5.63529 0.542373C6.1006 0.182495 6.62924 0 7.20648 0C7.97873 0 8.6891 0.309219 9.20675 0.870665C9.7183 1.42555 9.99998 2.1836 9.99998 3.00529C9.99998 3.85101 9.68489 4.62516 9.00824 5.44158C8.40292 6.17202 7.53302 6.91336 6.52571 7.77182C6.18148 8.06509 5.79139 8.39758 5.38649 8.75166C5.27961 8.8452 5.14228 8.89677 4.99999 8.89677ZM2.79357 0.585784C2.18681 0.585784 1.62941 0.82794 1.2239 1.2677C0.812376 1.71409 0.585707 2.33116 0.585707 3.00529C0.585707 3.71658 0.850065 4.35271 1.44279 5.06789C2.01568 5.75919 2.86781 6.48535 3.85444 7.32619L3.85627 7.32771C4.20119 7.62167 4.5922 7.95493 4.99915 8.31076C5.40854 7.95424 5.80016 7.62045 6.14577 7.32604C7.13233 6.4852 7.98437 5.75919 8.55726 5.06789C9.14991 4.35271 9.41427 3.71658 9.41427 3.00529C9.41427 2.33116 9.1876 1.71409 8.77608 1.2677C8.37065 0.82794 7.81317 0.585784 7.20648 0.585784C6.762 0.585784 6.3539 0.72708 5.99356 1.0057C5.67244 1.25412 5.44875 1.56814 5.3176 1.78787C5.25016 1.90086 5.13144 1.9683 4.99999 1.9683C4.86854 1.9683 4.74982 1.90086 4.68238 1.78787C4.55131 1.56814 4.32761 1.25412 4.00642 1.0057C3.64608 0.72708 3.23798 0.585784 2.79357 0.585784Z" fill="#D56359"/>
</svg>
