<svg height="512" width="512" xmlns="http://www.w3.org/2000/svg"><path d="M138 364.5c-37.818 1.57-37.789 55.444 0 57h78c37.818-1.57 37.789-55.444 0-57zm91.5 28.5c0 7.444-6.056 13.5-13.5 13.5h-78c-17.914-.743-17.9-26.264 0-27h78c7.444 0 13.5 6.056 13.5 13.5z"/><path d="M462.369 79.5h-38.178c-9.931.344-9.923 14.66 0 15h38.178c6.689 0 12.131 5.441 12.131 12.131v200.738c0 6.689-5.441 12.131-12.131 12.131H117.631c-6.689 0-12.131-5.441-12.131-12.131v-10.043H186c44.453-1.846 44.419-65.171 0-67h-80.5V106.631c0-6.689 5.441-12.131 12.131-12.131h271.305c9.931-.344 9.923-14.66 0-15H331.5v-32C331.5 21.309 310.191 0 284 0H70C43.809 0 22.5 21.309 22.5 47.5v43.039c.344 9.931 14.66 9.923 15 0V47.5C37.5 29.579 52.079 15 70 15h214c17.921 0 32.5 14.579 32.5 32.5v32h-11v-32c0-11.855-9.645-21.5-21.5-21.5h-40.1a12.98 12.98 0 00-12.263 8.741l-4.805 13.979h-99.666l-4.809-13.989a12.973 12.973 0 00-12.259-8.73H70c-11.855 0-21.5 9.645-21.5 21.5v417c0 11.855 9.645 21.5 21.5 21.5h214c11.855 0 21.5-9.645 21.5-21.5v-23.45c-.344-9.931-14.66-9.923-15 0v23.45c0 3.584-2.916 6.5-6.5 6.5H70a6.508 6.508 0 01-6.5-6.5v-417c0-3.584 2.916-6.5 6.5-6.5h38.652l4.809 13.988a12.97 12.97 0 0012.259 8.731h102.56a12.977 12.977 0 0012.263-8.741L245.348 41H284c3.584 0 6.5 2.916 6.5 6.5v32H117.631c-14.96 0-27.131 12.171-27.131 27.131v200.738c0 14.96 12.171 27.131 27.131 27.131H290.5v71.573c.344 9.931 14.66 9.923 15 0V334.5h11v130c0 17.921-14.579 32.5-32.5 32.5H70c-17.921 0-32.5-14.579-32.5-32.5V126c-.344-9.931-14.66-9.923-15 0v338.5c0 26.191 21.309 47.5 47.5 47.5h214c26.191 0 47.5-21.309 47.5-47.5v-130h130.869c14.96 0 27.131-12.171 27.131-27.131V106.631c0-14.96-12.171-27.131-27.131-27.131zM186 245.326c24.549 1.019 24.53 35.99 0 37h-80.5v-37z"/><path d="M347.18 299.755a7.5 7.5 0 009.679-4.339l3.569-9.372h24.542l3.529 9.351c1.458 3.914 5.891 5.823 9.665 4.368a7.499 7.499 0 004.368-9.665l-21.521-57.027a8.78 8.78 0 00-8.228-5.663h-.012a8.778 8.778 0 00-8.211 5.645l-21.719 57.024a7.5 7.5 0 004.339 9.678zm25.575-46.077l6.554 17.366h-13.168zm42.911 11.747l-.067 27.302a7.5 7.5 0 007.481 7.519h.019a7.5 7.5 0 007.5-7.481l.067-27.33 17.114-26.29a7.5 7.5 0 00-2.193-10.377 7.497 7.497 0 00-10.377 2.193l-12.048 18.507-12.185-18.662a7.502 7.502 0 00-12.561 8.201zm-115.244 27.321c.344 9.931 14.66 9.923 15 0v-17.664c3.167-.016 6.598-.03 8.604-.03 32.031-1.314 32.016-46.338 0-47.645h-16.104c-4.038-.08-7.592 3.487-7.5 7.523zm23.604-50.339c4.955 0 9.142 4.04 9.142 8.822s-4.187 8.822-9.142 8.822c-1.993 0-5.383.014-8.533.03-.04-7.441-.026-10.009-.049-17.675h8.582zM149 118.5c-7.444 0-13.5 6.056-13.5 13.5v40c0 7.444 6.056 13.5 13.5 13.5h62c7.444 0 13.5-6.056 13.5-13.5v-40c0-7.444-6.056-13.5-13.5-13.5zm60.5 52h-59v-37h59zm64.404-26.431v12c.344 9.931 14.66 9.923 15 0v-12c-.343-9.931-14.66-9.923-15 0zm131.202 19.5c4.143 0 7.5-3.357 7.5-7.5v-12c-.344-9.931-14.66-9.923-15 0v12a7.5 7.5 0 007.5 7.5zm34.236-7.5v-12c-.344-9.931-14.66-9.923-15 0v12c.343 9.931 14.66 9.924 15 0zm-111.619 0v-12c-.344-9.931-14.66-9.923-15 0v12c.343 9.931 14.66 9.924 15 0zm20.837 7.5c4.143 0 7.5-3.357 7.5-7.5v-12c-.344-9.931-14.66-9.923-15 0v12c0 4.143 3.357 7.5 7.5 7.5z"/></svg>