<svg version="1.1" id="Слой_1" xmlns="http://www.w3.org/2000/svg" x="0" y="0" viewBox="0 0 682.7 682.7" xml:space="preserve"><style>.st0{fill:#666}</style><path class="st0" d="M21 154v374c0 73.4 59.5 133 133 133h374c73.4 0 133-59.5 133-133V154c0-73.4-59.5-133-133-133H154C80.5 21 21 80.5 21 154zm387.8 368.3C250.9 576.8 105.2 431 159.7 273.2 178 220 220 178 273.2 159.7c157.9-54.5 303.6 91.3 249.1 249.1C504 462 462 504 408.8 522.3zm154.3-374.8c-2.5 13.2-13.4 20.8-24.7 20.8-6.9 0-13.8-2.8-19.2-9-.5-.5-.9-1.1-1.3-1.7-5.5-8.4-5.7-18.5-1-26.6 3.3-5.8 8.7-9.9 15.1-11.6 6.4-1.7 13.1-.8 18.9 2.5 8.1 4.7 13 13.5 12.4 23.5 0 .7-.1 1.4-.2 2.1z"/><path class="st0" d="M341 185.5c-85.7 0-155.5 69.7-155.5 155.5S255.3 496.5 341 496.5 496.5 426.7 496.5 341 426.7 185.5 341 185.5z"/></svg>