<svg version="1.1" id="Слой_1" xmlns="http://www.w3.org/2000/svg" x="0" y="0" viewBox="0 0 3545 2977.4" xml:space="preserve"><style>.st0{fill-rule:evenodd;clip-rule:evenodd}</style><path class="st0" d="M1113 1310.4c-145.8 56.8-298.3 99-437.5 170.6-50.9 26.2-94.4 69.6-124.4 118.4-39.3 63.8-63.9 137.2-78.3 210.7-12.8 65.7-17.5 135.6-2 200.7 14.9 62.6 43.4 126.5 90.3 170.6 58.6 55.1 134.7 94.5 212.7 114.4 81.7 20.8 170.1 20 252.8 4 70.2-13.5 140.8-43.2 194.6-90.3 51.6-45.1 86.2-109.8 108.4-174.6 20.4-59.7 25.4-126.2 16.1-188.6-8.6-57.5-31.8-115.2-68.2-160.5-32.7-40.6-80.2-72.2-130.4-86.3-56.7-15.9-120.6-18.1-176.6 0-57 18.4-111.2 55.9-146.5 104.3-36.5 50.1-54.2 114.7-58.2 176.6-4.3 67.1 18.2 133.4 34.1 198.7 9 36.8 26.8 70.9 40.1 106.4-44.1-29.4-97.3-48.5-132.4-88.3-42-47.6-79.6-104.4-92.3-166.6-10.7-52.5 3-110.2 26.1-158.5 27.4-57.5 70.2-109.3 120.4-148.5 46.7-36.5 105.1-57.6 162.5-72.2 59.9-15.2 123.5-25.2 184.6-16.1 71.1 10.7 142.9 34.3 202.7 74.2 54.8 36.6 100.4 89.9 130.4 148.5 27.4 53.5 41.6 116.8 36.1 176.6-6.3 68.7-31.1 137.9-70.2 194.6-42.2 61.2-103 109.9-166.6 148.5-59.7 36.3-127.9 60.2-196.7 72.2-81.7 14.4-167.6 23-248.8 6-98.6-20.6-194.5-61.4-278.9-116.4C454.2 2198.7 403 2139 364.4 2075c-33.3-55.2-54.5-120.2-58.2-184.6-3.8-66.5 5.2-137.6 36.1-196.7 36.5-69.6 93.9-129.9 158.5-174.6 88.1-61 189.6-101.9 291-136.5 104-35.4 214.2-48.2 321.2-72.2zm1186.6-31.6l-301.2-92.4c-5.3 166-35.9 333.1-16.1 497.9 23.4 194.7 32.2 396.2 144.6 570.2-161.9-61.6-200.2-167.5-257-281.1-56-112-71.1-244.2-68.3-369.4l12-534.1c2.3-103.9 53.9-274.4 116.5-357.4 68.7-91.1 163.5-164.7 265-216.8 93.3-47.9 200.5-70.4 305.2-76.3 113.1-6.4 229.8 4.6 337.3 40.2 91.3 30.2 177.3 84.2 245 152.6 56.9 57.5 101.2 133.4 116.5 212.8 14.3 74.3.8 156.7-32.1 224.9-29.3 60.5-85.5 108.5-144.6 140.5-68.2 37.1-148.3 56.9-225.9 56.2-81.8-.7-164.2-20.8-235.9-60.3-66.4-36.5-138.7-85.5-164.6-156.6-26.3-72.1-5.6-158.1 24.1-228.9 25.3-60.3 88.3-96.4 132.5-144.6-12 89.7-49.7 179.6-36.1 269 11.7 77.5 51.1 155.3 108.4 208.8 48.9 45.6 118.9 71 185.7 68.3 84.4-3.4 160.7-72.4 207.8-140.5 46.2-66.8 72-157.3 56.2-236.9-17.7-89.2-80.1-169-148.6-228.9-64.1-56-149.2-89.3-232.9-104.4-98.8-17.8-203-13.3-301.2 8-96.7 21-195.9 54.5-273.1 116.5-65.7 52.8-123.3 129.6-136.5 212.8-11.9 74.8 24.6 154.9 68.3 216.8 65.5 93 166 155.5 249 233.1z"/><path class="st0" d="M2439.9 1310.4c145.8 56.8 298.3 99 437.5 170.6 50.9 26.2 94.4 69.6 124.4 118.4 39.3 63.8 63.9 137.2 78.3 210.7 12.8 65.7 17.5 135.6 2 200.7-14.9 62.6-43.4 126.5-90.3 170.6-58.6 55.1-134.7 94.5-212.7 114.4-81.7 20.8-170.1 20-252.8 4-70.2-13.5-140.8-43.2-194.7-90.3-51.6-45.1-86.2-109.8-108.4-174.6-20.4-59.7-25.4-126.2-16.1-188.6 8.6-57.5 31.8-115.2 68.2-160.5 32.7-40.6 80.3-72.2 130.4-86.3 56.7-15.9 120.6-18.1 176.6 0 57 18.4 111.2 55.9 146.5 104.3 36.5 50.1 54.2 114.7 58.2 176.6 4.3 67.1-18.2 133.4-34.1 198.7-9 36.8-26.8 70.9-40.1 106.4 44.1-29.4 97.3-48.5 132.4-88.3 42-47.6 79.6-104.4 92.3-166.6 10.7-52.5-3-110.2-26.1-158.5-27.4-57.5-70.2-109.3-120.4-148.5-46.7-36.5-105.1-57.6-162.5-72.2-59.9-15.2-123.5-25.2-184.6-16.1-71.1 10.7-142.9 34.3-202.7 74.2-54.8 36.6-100.4 89.9-130.4 148.5-27.4 53.5-41.6 116.8-36.1 176.6 6.3 68.7 31.1 137.9 70.2 194.6 42.2 61.2 103 109.9 166.5 148.5 59.7 36.3 127.9 60.2 196.7 72.2 81.7 14.4 167.6 23 248.8 6 98.6-20.6 194.5-61.4 278.9-116.4 62.7-40.8 113.9-100.5 152.5-164.5 33.3-55.2 54.5-120.2 58.2-184.6 3.9-66.5-5.2-137.6-36.1-196.7-36.5-69.6-93.9-129.9-158.5-174.6-88.1-61-189.6-101.9-291-136.5-103.8-35.4-214-48.2-321-72.2zM2026.5 0c-8 32.1-22.5 63.3-24.1 96.3-1.8 35.7 16 70.6 14 106.4-2.1 38.4-7.2 78.8-26.1 112.4-38 67.6-139.7 99.7-213.9 96.8-74.2 2.8-175.9-29.2-213.9-96.8-18.8-33.5-24-74-26.1-112.4-2-35.7 15.8-70.6 14-106.4-1.6-33.1-16.1-64.2-24.1-96.3-18.1 16.1-38.8 29.6-54.2 48.2-20.4 24.6-42.3 49.9-52.2 80.3-10.8 33.2-19.3 71.3-8 104.3 15.7 45.8 48.7 85.5 84.3 118.4 69.7 64.6 183.1 119.7 280.1 119.7s210.4-55.1 280.1-119.7c35.5-32.9 68.6-72.6 84.3-118.4 11.3-33 2.8-71.2-8-104.3-9.9-30.3-31.8-55.7-52.2-80.3-15.3-18.6-36-32.1-54-48.2zm-773.2 1278.8l301.2-92.4c5.4 166 35.9 333.1 16.1 497.9-23.4 194.7-32.2 396.2-144.6 570.2 161.9-61.6 200.2-167.5 257-281.1 56-112 71.1-244.2 68.3-369.4l-12-534.1c-2.3-103.9-53.9-274.4-116.5-357.4-68.7-91.1-163.5-164.7-265-216.8-93.3-47.9-200.5-70.4-305.2-76.3-113.1-6.4-229.8 4.6-337.3 40.2-91.3 30.2-177.3 84.2-245 152.6-56.9 57.5-101.2 133.4-116.5 212.8-14.3 74.3-.8 156.7 32.1 224.9 29.2 60.5 85.5 108.5 144.6 140.5 68.2 37.1 148.3 56.9 225.9 56.2 81.8-.7 164.2-20.8 235.9-60.3 66.4-36.5 138.7-85.5 164.6-156.6 26.3-72.1 5.6-158.1-24.1-228.9-25.3-60.3-88.3-96.4-132.5-144.6 12 89.7 49.7 179.6 36.1 269-11.7 77.5-51.1 155.3-108.4 208.8-48.9 45.6-118.9 71-185.7 68.3-84.4-3.4-160.7-72.4-207.8-140.5-46.2-66.8-72-157.3-56.2-236.9 17.7-89.2 80.1-169 148.6-228.9 64.1-56 149.2-89.3 232.9-104.4 98.8-17.8 203-13.3 301.2 8 96.7 21 195.9 54.5 273.1 116.5 65.7 52.8 123.3 129.6 136.5 212.8 11.9 74.8-24.6 154.9-68.3 216.8-65.6 93-166 155.5-249 233.1zm-880.6 1444c0-59.8-19.5-105.5-58.6-137.1-39-31.6-95.7-47.3-170.1-47.3H95.5v369H139c79.4 0 138.3-15.2 176.5-45.6 38.1-30.5 57.2-76.8 57.2-139zm69.1.6c0 78.8-26.1 138.5-78.3 179-52.2 40.6-128.6 60.9-229.2 60.9h-108v-481.1h109.8c98.4 0 173.9 20.8 226.6 62.7 52.7 41.7 79.1 101.3 79.1 178.5zm205.9-241.2h60.1v481.1h-60.1zm520.6 291.1l-77.3-174.8-77.2 174.8h154.5zm149.8 190.1h-66.4l-61.4-139H990.6l-61.1 139h-66.4l227.8-495.2 227.2 495.2zm657.3 0h-60.1l-45.9-311.9-153.2 325.9-151.8-325.9-45.9 311.9h-60.7l81-495.2 178.5 382.4 178.9-382.4zm465.8-190.1l-77.3-174.8-77.2 174.8h154.5zm149.8 190.1h-66.4l-61.4-139h-199.8l-61.1 139h-66.4l227.8-495.2 227.3 495.2zm484.3 0h-59.9V2735h-221.6v228.4h-60.1v-481.2h60.1v196.7h221.6v-196.7h59.9zm451.3-427.5h-109v427.5h-59.9v-427.5h-109.3v-53.7h278.2z"/></svg>