<svg xmlns="http://www.w3.org/2000/svg" viewBox="0 0 3545 509.2"><path d="M372.7 254.6c0-59.8-19.5-105.5-58.6-137.1-39-31.6-95.7-47.3-170.1-47.3H95.5v369H139c79.4 0 138.3-15.2 176.5-45.6 38.1-30.5 57.2-76.8 57.2-139zm69.1.6c0 78.8-26.1 138.5-78.3 179-52.2 40.6-128.6 60.9-229.2 60.9h-108V14h109.8c98.4 0 173.9 20.8 226.6 62.7 52.7 41.7 79.1 101.3 79.1 178.5zM647.7 14h60.1v481.1h-60.1zm520.6 291.1L1091 130.3l-77.2 174.8h154.5zm149.8 190.1h-66.4l-61.4-139H990.6l-61.1 139h-66.4L1090.9 0l227.2 495.2zm657.3 0h-60.1l-45.9-311.9-153.2 325.9-151.8-325.9-45.9 311.9h-60.7l81-495.2 178.5 382.4L1896.2 0zm465.8-190.1l-77.3-174.8-77.2 174.8h154.5zM2591 495.2h-66.4l-61.4-139h-199.8l-61.1 139h-66.4L2363.7 0 2591 495.2zm484.3 0h-59.9V266.8h-221.6v228.4h-60.1V14h60.1v196.7h221.6V14h59.9zm451.3-427.5h-109v427.5h-59.9V67.7h-109.3V14h278.2z"/></svg>