<svg xmlns="http://www.w3.org/2000/svg" viewBox="0 0 512 512"><path d="M511.3 197.3c-1.8-5.4-6.5-9.4-12.1-10.2L340.4 164l-71-143.8c-2.5-5.1-7.7-8.4-13.5-8.4-5.7 0-10.9 3.2-13.5 8.4l-71 143.8-158.6 23c-5.7.8-10.3 4.8-12.1 10.2-1.8 5.4-.3 11.4 3.8 15.4l114.8 112-27 158.1c-1 5.6 1.3 11.3 6 14.7 4.6 3.4 10.7 3.8 15.8 1.1l142-74.6 142 74.6c2.2 1.2 4.6 1.7 7 1.7 3.1 0 6.2-1 8.8-2.9 4.6-3.4 6.9-9 6-14.7l-27.1-158.1 114.9-112c3.9-3.9 5.3-9.8 3.6-15.2zM366 308.6c-3.5 3.4-5.1 8.4-4.3 13.3L385 457.8l-122-64.2c-4.4-2.3-9.6-2.3-14 0l-122 64.2 23.3-135.9c.8-4.9-.8-9.8-4.3-13.3l-98.7-96.2 136.4-19.8c4.9-.7 9.1-3.8 11.3-8.2l61-123.6 61 123.6c2.2 4.4 6.4 7.5 11.3 8.2l136.4 19.8-98.7 96.2z"/><path d="M317 184.3L256 60.7l-61 123.6c-2.2 4.4-6.4 7.5-11.3 8.2L47.2 212.4l98.7 96.2c3.5 3.4 5.1 8.4 4.3 13.3L127 457.8l122-64.2c4.4-2.3 9.6-2.3 14 0l122 64.2-23.3-135.9c-.8-4.9.8-9.8 4.3-13.3l98.7-96.2-136.4-19.8c-4.9-.8-9.1-3.8-11.3-8.3z"/></svg>