<svg version="1.1" id="Слой_1" xmlns="http://www.w3.org/2000/svg" x="0" y="0" viewBox="0 0 512 512" xml:space="preserve"><style>.st0{fill:#fff}</style><path class="st0" d="M273.4 289.3c-5.9 5.9-15.4 5.9-21.2 0L184 221.1c-2.8-2.8-4.4-6.6-4.4-10.6s1.6-7.8 4.4-10.6l12.1-12.1-35.6-35.6-29.2 29.2c-9.8 9.8-9.8 25.8 0 35.6l125 125c4.7 4.7 11 7.3 17.8 7.3s13.1-2.6 17.8-7.3l29.2-29.2-35.6-35.6-12.1 12.1z"/><path class="st0" d="M490.5 180.7c0-48.1-18.8-93.4-53.1-127.6C403.2 18.8 357.9 0 309.8 0H202.7c-48.1 0-93.4 18.8-127.6 53.1C40.8 87.3 22 132.6 22 180.7v84.2c0 37.2 11.4 73.1 32.9 103.6 19 26.9 44.5 48 74.2 61.3v48.3c0 25 14 33.9 26 33.9 8.6 0 17.1-4.2 25.5-12.6l53.9-53.9h75.4c48.1 0 93.4-18.8 127.6-53.1s53.1-79.6 53.1-127.6l-.1-84.1zM352.9 323.4l-39.8 39.8c-10.4 10.4-24.2 16.1-39 16.1s-28.6-5.7-39-16.1l-125-125c-21.5-21.5-21.5-56.5 0-78l39.8-39.8c2.8-2.8 6.6-4.4 10.6-4.4s7.8 1.6 10.6 4.4l56.8 56.8c2.8 2.8 4.4 6.6 4.4 10.6s-1.6 7.8-4.4 10.6l-12.1 12.1 47 47 12.1-12.1c5.9-5.9 15.4-5.9 21.2 0l56.8 56.8c2.8 2.8 4.4 6.6 4.4 10.6 0 3.9-1.5 7.7-4.4 10.6zm-108-177.8c0-8.3 6.7-15 15-15 52 0 94.3 42.3 94.3 94.3 0 8.3-6.7 15-15 15s-15-6.7-15-15c0-35.4-28.8-64.3-64.3-64.3-8.3 0-15-6.7-15-15zm158.5 94.3c-8.3 0-15-6.7-15-15 0-34.3-13.4-66.6-37.6-90.9-24.3-24.3-56.6-37.6-90.9-37.6-8.3 0-15-6.7-15-15s6.7-15 15-15c42.3 0 82.2 16.5 112.1 46.4 29.9 29.9 46.4 69.8 46.4 112.1 0 8.3-6.7 15-15 15z"/></svg>