<svg width="66" height="66" viewBox="0 0 66 66" fill="none" xmlns="http://www.w3.org/2000/svg">
<path d="M45.5399 54.1199H20.4599C15.7211 54.1199 11.8799 50.2787 11.8799 45.5399V20.4599C11.8799 15.7211 15.7211 11.8799 20.4599 11.8799H45.5399C50.2787 11.8799 54.1199 15.7211 54.1199 20.4599V45.5399C54.1199 50.2787 50.2787 54.1199 45.5399 54.1199Z" fill="#F15B6C"/>
<path d="M45.5402 54.7802H20.4602C15.365 54.7802 11.2202 50.6354 11.2202 45.5402V20.4602C11.2202 15.365 15.365 11.2202 20.4602 11.2202H45.5402C50.6354 11.2202 54.7802 15.365 54.7802 20.4602V45.5402C54.7802 50.6354 50.6354 54.7802 45.5402 54.7802ZM20.4602 12.5402C16.093 12.5402 12.5402 16.093 12.5402 20.4602V45.5402C12.5402 49.9074 16.093 53.4602 20.4602 53.4602H45.5402C49.9074 53.4602 53.4602 49.9074 53.4602 45.5402V20.4602C53.4602 16.093 49.9074 12.5402 45.5402 12.5402H20.4602Z" fill="black"/>
<path d="M43.89 51.48H22.11C17.925 51.48 14.52 48.0751 14.52 43.89V22.11C14.52 17.925 17.925 14.52 22.11 14.52H43.89C44.123 14.52 44.352 14.5339 44.5797 14.555C44.7612 14.5715 44.8952 14.7319 44.8787 14.9134C44.8622 15.0949 44.7005 15.2295 44.5203 15.2124C44.3124 15.1939 44.1032 15.18 43.89 15.18H22.11C18.2886 15.18 15.18 18.2886 15.18 22.11V43.89C15.18 47.7114 18.2886 50.82 22.11 50.82H43.89C47.7114 50.82 50.82 47.7114 50.82 43.89V32.67C50.82 32.4879 50.9679 32.34 51.15 32.34C51.3322 32.34 51.48 32.4879 51.48 32.67V43.89C51.48 48.0751 48.0751 51.48 43.89 51.48Z" fill="black"/>
<path d="M51.1498 26.3999C50.9677 26.3999 50.8198 26.2521 50.8198 26.0699V24.7499C50.8198 24.5678 50.9677 24.4199 51.1498 24.4199C51.332 24.4199 51.4798 24.5678 51.4798 24.7499V26.0699C51.4798 26.2521 51.332 26.3999 51.1498 26.3999Z" fill="black"/>
<path d="M51.1498 31.0202C50.9677 31.0202 50.8198 30.8724 50.8198 30.6902V28.0502C50.8198 27.8681 50.9677 27.7202 51.1498 27.7202C51.332 27.7202 51.4798 27.8681 51.4798 28.0502V30.6902C51.4798 30.8724 51.332 31.0202 51.1498 31.0202Z" fill="black"/>
<path d="M45.3729 34.4828C45.1003 33.5099 44.2958 32.7424 43.2728 32.4817C41.4208 32.0098 32.9999 32.0098 32.9999 32.0098C32.9999 32.0098 24.5789 32.0098 22.727 32.4836C21.706 32.743 20.8994 33.5106 20.6269 34.4828C20.1299 36.2483 20.1299 39.9298 20.1299 39.9298C20.1299 39.9298 20.1299 43.6112 20.6269 45.3767C20.8994 46.3496 21.704 47.1172 22.727 47.3779C24.5789 47.8498 32.9999 47.8498 32.9999 47.8498C32.9999 47.8498 41.4208 47.8498 43.2728 47.3759C44.2938 47.1165 45.1003 46.3489 45.3729 45.3767C45.8699 43.6112 45.8699 39.9298 45.8699 39.9298C45.8699 39.9298 45.8699 36.2483 45.3729 34.4828Z" fill="white"/>
<path d="M32.9998 48.1802C32.6546 48.1802 24.5162 48.1749 22.6451 47.6984C21.5085 47.4086 20.6136 46.5533 20.3087 45.4663C19.8057 43.6783 19.7998 40.082 19.7998 39.9302C19.7998 39.7784 19.8057 36.182 20.3087 34.3934C20.6136 33.3071 21.5085 32.4524 22.6451 32.164C24.5162 31.6861 32.6546 31.6802 32.9998 31.6802C33.345 31.6802 41.4834 31.6855 43.3545 32.162C44.4911 32.4517 45.386 33.3064 45.6909 34.3934C46.1939 36.182 46.1998 39.7784 46.1998 39.9302C46.1998 40.082 46.1939 43.6783 45.6909 45.4669C45.386 46.5533 44.4911 47.408 43.3545 47.6964C41.4834 48.1742 33.345 48.1802 32.9998 48.1802ZM32.9998 32.3402C32.916 32.3402 24.5993 32.3455 22.8087 32.8035C21.8999 33.0345 21.1858 33.7117 20.9449 34.5723C20.4657 36.2738 20.4598 39.8939 20.4598 39.9302C20.4598 39.9665 20.4657 43.5866 20.9442 45.2874C21.1851 46.1487 21.8993 46.8265 22.8081 47.0588C24.5993 47.5149 32.916 47.5202 32.9998 47.5202C33.0836 47.5202 41.4003 47.5149 43.1909 47.0569C44.0997 46.8259 44.8138 46.1487 45.0547 45.2881C45.5339 43.5866 45.5398 39.9665 45.5398 39.9302C45.5398 39.8939 45.5339 36.2738 45.0554 34.573V34.5723C44.8145 33.7117 44.1003 33.0338 43.1915 32.8015C41.4003 32.3455 33.0836 32.3402 32.9998 32.3402Z" fill="black"/>
<path d="M25.7386 45.5398H24.0913V35.8669H22.4399V34.3198H27.3899V35.8669H25.7386V45.5398Z" fill="#F15B6C"/>
<path d="M32.0101 45.54H30.5251L30.3587 44.4807C29.7093 45.1453 28.9338 45.54 28.3306 45.54C27.8026 45.54 27.4316 45.3248 27.2495 44.9302C27.1412 44.682 27.0601 44.3131 27.0601 43.756V36.6577H28.7114V43.9111C28.7516 44.1335 28.9259 44.22 29.1384 44.22C29.4691 44.22 29.9971 43.8801 30.3587 43.4313V36.6577H32.0101V45.54Z" fill="#F15B6C"/>
<path d="M43.5599 41.4716V38.9399C43.5599 38.2106 43.3704 37.6832 43.0319 37.3427C42.5791 36.8774 41.9257 36.6299 41.1099 36.6299C40.2764 36.6299 39.6329 36.8774 39.1629 37.3427C38.8072 37.6832 38.6099 38.2423 38.6099 38.9696V43.2781C38.6099 43.9981 38.8323 44.509 39.1781 44.8442C39.65 45.3076 40.2922 45.5399 41.1509 45.5399C42.0016 45.5399 42.6689 45.2996 43.1157 44.8033C43.313 44.5868 43.4444 44.338 43.5024 44.0668C43.5097 43.9447 43.5599 43.6107 43.5599 43.2154H41.9085V43.8364C41.9085 44.1915 41.537 44.4865 41.0849 44.4865C40.6328 44.4865 40.2612 44.1915 40.2612 43.8364V41.4716H43.5599ZM40.2612 38.4046C40.2612 38.0403 40.6328 37.7525 41.0849 37.7525C41.537 37.7525 41.9085 38.0403 41.9085 38.4046V40.3958H40.2592V38.4046H40.2612Z" fill="#F15B6C"/>
<path d="M37.7375 37.5848C37.5302 36.9803 37.0273 36.6483 36.401 36.6404C35.6004 36.6331 35.2691 37.0278 34.6507 37.7069V34.3198H33V45.5398H34.4857L34.652 44.5736C35.1701 45.1762 35.8472 45.5398 36.4003 45.5398C37.0273 45.5398 37.5626 45.2309 37.7698 44.627C37.8682 44.3017 37.9421 44.0007 37.95 43.3176V39.256C37.952 38.491 37.8457 37.9102 37.7375 37.5848ZM36.3 43.1183C36.3 43.9307 36.1027 44.2086 35.6578 44.2086C35.4024 44.2086 34.9153 44.0462 34.65 43.7994V38.4818C34.9153 38.2349 35.4004 37.996 35.6578 37.996C36.1027 37.996 36.3 38.2501 36.3 39.0626V43.1183Z" fill="#F15B6C"/>
<path d="M24.4199 18.48L26.3003 18.482L27.5147 23.8214H27.6328L28.7891 18.482H30.6899L28.5172 25.8594V29.7H26.6507L26.6468 26.068L24.4199 18.48Z" fill="white"/>
<path d="M30.6919 23.1952C30.6919 22.5635 30.9058 22.0586 31.3354 21.6857C31.7611 21.3095 32.336 21.1221 33.0593 21.1201C33.718 21.1201 34.2566 21.3168 34.6763 21.7135C35.0961 22.1062 35.3066 22.615 35.3066 23.2381L35.3106 27.4548C35.3106 28.1524 35.106 28.7015 34.6942 29.1022C34.283 29.5001 33.718 29.7001 32.992 29.7001C32.2951 29.7001 31.7413 29.4929 31.3196 29.083C30.9018 28.6732 30.6932 28.1207 30.6932 27.4284L30.6899 23.1932L30.6919 23.1952ZM32.3419 27.5809C32.3419 27.8033 32.3954 27.9795 32.5102 28.1003C32.6191 28.2217 32.7749 28.2818 32.9795 28.2818C33.1887 28.2818 33.353 28.2191 33.4751 28.0924C33.5972 27.9709 33.6599 27.7967 33.6599 27.5782L33.658 23.1305C33.658 22.9523 33.5933 22.8091 33.4672 22.6988C33.3431 22.5886 33.1788 22.5338 32.9755 22.5338C32.7868 22.5338 32.6336 22.5906 32.5155 22.6988C32.3993 22.8097 32.3399 22.9549 32.3399 23.1311L32.3419 27.5809Z" fill="white"/>
<path d="M41.58 21.1201V29.7001H40.186L39.9643 28.652C39.6666 28.9926 39.3571 29.2513 39.0324 29.4282C38.7116 29.6051 38.3981 29.7001 38.0965 29.7001C37.7203 29.7001 37.4398 29.5734 37.2484 29.3239C37.0596 29.0784 36.9639 28.7042 36.9639 28.2046L36.96 21.1201H38.5776L38.5816 27.6257C38.5816 27.8211 38.6159 27.9643 38.6845 28.0541C38.7492 28.1399 38.8641 28.1881 39.0112 28.1881C39.1333 28.1881 39.2845 28.1287 39.462 28.0112C39.6455 27.8937 39.8118 27.7432 39.9623 27.5624L39.9603 21.1201H41.58Z" fill="white"/>
</svg>
