<svg width="36" height="46" viewBox="0 0 36 46" fill="none" xmlns="http://www.w3.org/2000/svg">
<path d="M3.58509 45.0596H10.4879C10.7492 45.0596 10.9596 44.8483 10.9596 44.5879C10.9596 44.3276 10.7492 44.1162 10.4879 44.1162H3.58509C2.33792 44.1162 1.32377 43.1021 1.32377 41.8549V22.4219C1.32377 22.1615 1.11245 21.9502 0.852069 21.9502C0.590748 21.9502 0.380371 22.1615 0.380371 22.4219V41.8549C0.380371 43.6219 1.81717 45.0596 3.58509 45.0596Z" fill="white"/>
<path d="M0.851581 18.0555C1.11196 18.0555 1.32328 17.8442 1.32328 17.5838V4.1461C1.32328 2.89891 2.33837 1.88383 3.5846 1.88383H32.4157C33.6629 1.88383 34.677 2.89891 34.677 4.1461V41.8555C34.677 43.1017 33.6629 44.1168 32.4157 44.1168H15.4742C15.2138 44.1168 15.0025 44.3272 15.0025 44.5885C15.0025 44.8489 15.2138 45.0602 15.4742 45.0602H32.4157C34.1837 45.0602 35.6204 43.6225 35.6204 41.8555V4.1461C35.6204 2.37815 34.1837 0.94043 32.4157 0.94043H3.5846C1.81762 0.94043 0.379883 2.37815 0.379883 4.1461V17.5838C0.379883 17.8442 0.591203 18.0555 0.851581 18.0555Z" fill="white"/>
<path d="M4.69531 8.73635V37.2637C4.69531 37.5251 4.90663 37.7354 5.16701 37.7354H30.833C31.0944 37.7354 31.3047 37.5251 31.3047 37.2637V8.73635C31.3047 8.47603 31.0944 8.26465 30.833 8.26465H29.1123C28.851 8.26465 28.6406 8.47603 28.6406 8.73635C28.6406 8.99672 28.851 9.20804 29.1123 9.20804H30.3613V36.792H5.63871V9.20804H14.0085V17.3977C14.0085 17.592 14.1264 17.7656 14.3066 17.8364C14.4878 17.9071 14.6934 17.8609 14.8246 17.7194L18 14.3185L21.1764 17.7194C21.267 17.8165 21.3925 17.8694 21.5208 17.8694C21.5783 17.8694 21.6378 17.859 21.6934 17.8364C21.8736 17.7656 21.9925 17.592 21.9925 17.3977V9.20804H25.1434C25.4038 9.20804 25.6151 8.99672 25.6151 8.73635C25.6151 8.47603 25.4038 8.26465 25.1434 8.26465H21.5208H14.4802H5.16701C4.90663 8.26465 4.69531 8.47603 4.69531 8.73635ZM14.9519 9.20804H21.0491V16.2015L18.3453 13.3062C18.2557 13.2109 18.1312 13.1562 18 13.1562C17.8698 13.1562 17.7444 13.2109 17.6557 13.3062L14.9519 16.2015V9.20804Z" fill="white"/>
<path d="M21.2952 5.48539C21.5555 5.48539 21.7669 5.27407 21.7669 5.01369C21.7669 4.75337 21.5555 4.54199 21.2952 4.54199H14.7046C14.4442 4.54199 14.2329 4.75337 14.2329 5.01369C14.2329 5.27407 14.4442 5.48539 14.7046 5.48539H21.2952Z" fill="white"/>
<path d="M17.0069 40.5156C16.7465 40.5156 16.5352 40.727 16.5352 40.9873C16.5352 41.2477 16.7465 41.459 17.0069 41.459H18.9936C19.255 41.459 19.4653 41.2477 19.4653 40.9873C19.4653 40.727 19.255 40.5156 18.9936 40.5156H17.0069Z" fill="white"/>
<path d="M9.18264 25.6023H26.8091C27.0694 25.6023 27.2808 25.3919 27.2808 25.1306V21.0401C27.2808 20.7787 27.0694 20.5684 26.8091 20.5684H9.18264C8.92131 20.5684 8.71094 20.7787 8.71094 21.0401V25.1306C8.71094 25.3919 8.92131 25.6023 9.18264 25.6023ZM9.65433 21.5118H26.3374V24.6589H9.65433V21.5118Z" fill="#EF6D4C"/>
<path d="M9.18264 29.6944H26.809C27.0694 29.6944 27.2807 29.4831 27.2807 29.2227C27.2807 28.9624 27.0694 28.751 26.809 28.751H9.18264C8.92226 28.751 8.71094 28.9624 8.71094 29.2227C8.71094 29.4831 8.92226 29.6944 9.18264 29.6944Z" fill="#EF6D4C"/>
<path d="M9.18264 33.5313H26.809C27.0694 33.5313 27.2807 33.32 27.2807 33.0596C27.2807 32.7993 27.0694 32.5879 26.809 32.5879H9.18264C8.92226 32.5879 8.71094 32.7993 8.71094 33.0596C8.71094 33.32 8.92226 33.5313 9.18264 33.5313Z" fill="#EF6D4C"/>
</svg>
