<svg width="48" height="54" viewBox="0 0 48 54" fill="none" xmlns="http://www.w3.org/2000/svg">
<path d="M11.6406 5.53767C11.6406 8.49237 14.0384 10.8958 16.9863 10.8958C19.9398 10.8958 22.3432 8.49237 22.3432 5.53767C22.3432 2.58408 19.9398 0.180664 16.9863 0.180664C14.0384 0.180664 11.6406 2.58408 11.6406 5.53767ZM16.9863 1.31274C19.3161 1.31274 21.2112 3.20785 21.2112 5.53767C21.2112 7.86861 19.3161 9.76371 16.9863 9.76371C14.6633 9.76371 12.7727 7.86861 12.7727 5.53767C12.7727 3.20785 14.6633 1.31274 16.9863 1.31274Z" fill="white"/>
<path d="M27.0811 5.53862C27.0811 8.49221 29.4788 10.8956 32.4268 10.8956C35.3804 10.8956 37.7838 8.49221 37.7838 5.53862C37.7838 2.58506 35.3804 0.181641 32.4268 0.181641C29.4788 0.181641 27.0811 2.58506 27.0811 5.53862ZM36.6517 5.53862C36.6517 7.86844 34.7555 9.76355 32.4268 9.76355C30.1037 9.76355 28.2131 7.86844 28.2131 5.53862C28.2131 3.20882 30.1037 1.31372 32.4268 1.31372C34.7555 1.31372 36.6517 3.20882 36.6517 5.53862Z" fill="white"/>
<path d="M35.7065 13.9229H29.0872C28.0751 13.9229 27.1208 14.2749 26.334 14.8896C25.5778 14.2942 24.637 13.9229 23.6024 13.9229H12.2929C10.9978 13.9229 9.77963 14.4278 8.86272 15.3436L6.14682 18.0606C5.92502 18.2813 5.92502 18.6402 6.14682 18.861C6.36765 19.0817 6.72529 19.0817 6.94723 18.861L9.66313 16.144C10.3661 15.4421 11.2989 15.0549 12.2929 15.0549H23.6024C25.425 15.0549 26.909 16.538 26.909 18.3606V31.1372C26.909 32.5795 25.7351 33.7535 24.2929 33.7535H22.9956C22.6831 33.7535 22.4295 34.0059 22.4295 34.3195C22.4295 34.6319 22.6831 34.8855 22.9956 34.8855H24.2929C26.3589 34.8855 28.0411 33.2044 28.0411 31.1372V18.3606C28.0411 17.3565 27.6925 16.4406 27.1288 15.6957C27.6981 15.2859 28.3729 15.0549 29.0872 15.0549H35.7065C36.7004 15.0549 37.6332 15.4421 38.3363 16.144L45.8375 23.6451C46.2337 24.0414 46.451 24.5666 46.451 25.1259C46.451 25.6863 46.2337 26.2115 45.8375 26.6078C45.0223 27.4229 43.6944 27.4263 42.8771 26.6089L37.897 21.6346C37.6751 21.4138 37.3175 21.4138 37.0966 21.6346C36.8748 21.8565 36.8748 22.2142 37.0966 22.4361L42.0767 27.4104C42.7061 28.0376 43.5314 28.3512 44.3567 28.3512C44.814 28.3512 45.268 28.2447 45.6914 28.0523V53.2534C45.6914 53.567 45.945 53.8195 46.2574 53.8195C46.571 53.8195 46.8235 53.567 46.8235 53.2534V27.1817C47.3069 26.6033 47.5831 25.8889 47.5831 25.1259C47.5831 24.2644 47.2469 23.4549 46.6377 22.8448L39.1366 15.3436C38.2208 14.4278 37.0026 13.9229 35.7065 13.9229Z" fill="white"/>
<path d="M1.19599 53.253C1.19599 53.5654 1.44957 53.819 1.76202 53.819C2.07434 53.819 2.32806 53.5654 2.32806 53.253V28.0621C2.74568 28.2489 3.19398 28.3508 3.64352 28.3508C4.46881 28.3508 5.29409 28.0372 5.92342 27.4089L11.3132 22.027C11.5341 21.8051 11.5341 21.4474 11.3132 21.2255C11.0914 21.0047 10.7336 21.0047 10.5117 21.2243L5.12315 26.6073C4.30463 27.4258 2.97674 27.4224 2.16264 26.6073V26.6062C1.76645 26.21 1.54907 25.6847 1.54907 25.1255C1.54907 24.5662 1.76645 24.0409 2.16264 23.6447L4.21854 21.5889C4.43937 21.367 4.43937 21.0092 4.21854 20.7885C3.99784 20.5666 3.63896 20.5666 3.41813 20.7885L1.36126 22.8443C0.75211 23.4545 0.416992 24.2639 0.416992 25.1255C0.416992 25.8987 0.700011 26.6232 1.19599 27.2051V53.253Z" fill="white"/>
<path d="M10.5435 21.4147V37.0656C10.5435 37.3792 10.797 37.6317 11.1095 37.6317C11.4218 37.6317 11.6755 37.3792 11.6755 37.0656V21.4147C11.6755 21.1023 11.4218 20.8486 11.1095 20.8486C10.797 20.8486 10.5435 21.1023 10.5435 21.4147Z" fill="#D56359"/>
<path d="M38.9516 28.9344C38.9991 28.9344 39.0478 28.9288 39.0964 28.9152C39.3986 28.836 39.5787 28.5269 39.4983 28.2246L37.7662 21.6575C37.6859 21.3552 37.3813 21.1741 37.0745 21.2544C36.7723 21.3348 36.5922 21.6439 36.6715 21.9461L38.4048 28.5122C38.4715 28.7669 38.7002 28.9344 38.9516 28.9344Z" fill="#D56359"/>
<path d="M40.7195 41.2458C41.2515 41.2458 41.7428 41.0047 42.0677 40.5847C42.3937 40.1635 42.5035 39.6269 42.3699 39.1107L40.6537 32.6069C40.5734 32.3047 40.2666 32.1247 39.962 32.2039C39.6598 32.2832 39.4797 32.5922 39.5602 32.8956L41.2742 39.3971C41.3193 39.5703 41.282 39.7503 41.1722 39.8907C41.0636 40.0322 40.8983 40.1137 40.7195 40.1137H38.342C37.2145 40.1137 36.2976 41.0307 36.2976 42.1583V50.0069C36.2976 51.2817 35.2606 52.3186 33.987 52.3186H30.8805C29.6058 52.3186 28.5688 51.2817 28.5688 50.0069V42.1583C28.5688 41.0307 27.6518 40.1137 26.5243 40.1137H23.548V27.0983C23.548 26.7858 23.2944 26.5322 22.982 26.5322C22.6695 26.5322 22.416 26.7858 22.416 27.0983V48.8919C22.416 50.4982 21.1096 51.8058 19.5031 51.8058H14.5888C12.9824 51.8058 11.676 50.4982 11.676 48.8919V41.6001C11.676 41.2877 11.4224 41.0341 11.11 41.0341C10.7964 41.0341 10.5439 41.2877 10.5439 41.6001V48.8919C10.5439 51.1232 12.3574 52.9379 14.5888 52.9379H19.5031C21.7333 52.9379 23.548 51.1232 23.548 48.8919V41.2458H26.5243C27.0269 41.2458 27.4368 41.6545 27.4368 42.1583V50.0069C27.4368 51.9066 28.9809 53.4507 30.8805 53.4507H33.987C35.8842 53.4507 37.4296 51.9066 37.4296 50.0069V42.1583C37.4296 41.6545 37.8394 41.2458 38.342 41.2458H40.7195Z" fill="#D56359"/>
</svg>
