<svg width="12" height="12" fill="none" xmlns="http://www.w3.org/2000/svg"><path d="M8.667 6.667a.667.667 0 100-1.334.667.667 0 000 1.334zm0 2.666a.667.667 0 100-1.333.667.667 0 000 1.333zm-2-.666a.667.667 0 11-1.334 0 .667.667 0 011.334 0zm-3.334.666a.667.667 0 100-1.333.667.667 0 000 1.333zM6.667 6a.667.667 0 11-1.334 0 .667.667 0 011.334 0zm-3.334.667a.667.667 0 100-1.334.667.667 0 000 1.334zm5.334-4a.667.667 0 110 1.333H3.333a.667.667 0 010-1.333h5.334z" fill="#000"/><path fill-rule="evenodd" clip-rule="evenodd" d="M10 0a2 2 0 012 2v8a2 2 0 01-2 2H2a2 2 0 01-2-2V2a2 2 0 012-2h8zM2 1.333h8c.368 0 .667.299.667.667v8a.667.667 0 01-.667.667H2A.667.667 0 011.333 10V2c0-.368.299-.667.667-.667z" fill="#000"/></svg>