<svg width="80" height="28" fill="none" xmlns="http://www.w3.org/2000/svg"><path fill-rule="evenodd" clip-rule="evenodd" d="M72.8 13.736c-.125.4-.272.794-.44 1.179-.179.415-.37.84-.574 1.274a99.54 99.54 0 00-.804 1.802c-.216.476-.39.97-.517 1.476v-.019c-.052.22-.078.445-.076.671-.012.4.12.792.373 1.102.249.3.622.457 1.12.47a3.55 3.55 0 001.312-.25 4.46 4.46 0 00.498-.239c.146-.083.27-.156.373-.22.296-.204.577-.428.842-.671-.217.434-.45.856-.699 1.265-.249.409-.5.812-.756 1.208a10.5 10.5 0 00-.785-.23 7.543 7.543 0 00-.794-.154 11.398 11.398 0 00-.89-.086c-.32-.019-.677-.028-1.073-.028a7.727 7.727 0 00-1.98.25 6.125 6.125 0 00-1.667.692c-.451.27-.842.63-1.148 1.058-.28.387-.43.851-.43 1.328-.011.342.101.676.315.943.224.266.505.476.823.615.364.162.747.278 1.14.347a7.15 7.15 0 001.282.116 9.903 9.903 0 001.981-.183 7.119 7.119 0 003.044-1.403 8.57 8.57 0 001.197-1.165c.204.103.412.212.622.328a9.7 9.7 0 01.642.384l.785.443c.114.05.309.047.584-.01.269-.056.532-.14.785-.25.21-.084.402-.208.564-.366.128-.135.096-.253-.096-.356a1.098 1.098 0 01-.143-.086 1.086 1.086 0 00-.144-.087h.02a49.353 49.353 0 00-1.293-.702c-.427-.223-.87-.438-1.33-.644.293-.436.574-.894.842-1.375.268-.48.543-.988.823-1.526l2.834-5.482a.608.608 0 00-.096-.595 1.988 1.988 0 00-.565-.536 2.795 2.795 0 00-.756-.345c-.268-.077-.479-.083-.632-.02a40.345 40.345 0 01-1.398 3.355 4.413 4.413 0 01-.153.182c-.05.057-.095.118-.134.183h.02c-.218.294-.45.594-.7.9-.245.303-.507.59-.785.863a6.532 6.532 0 01-.89.729 3.147 3.147 0 01-1.014.46h-.211c-.076 0-.115-.077-.115-.23.016-.275.08-.544.192-.796.127-.326.283-.677.469-1.055.185-.377.383-.757.593-1.14.21-.384.405-.729.584-1.036.242-.409.414-.722.517-.939a.62.62 0 00-.086-.594 1.955 1.955 0 00-.536-.537 2.567 2.567 0 00-.718-.345 1.043 1.043 0 00-.613-.038l-.134.115zm-5.57 12.969a2.626 2.626 0 01-.698-.182c-.2-.082-.38-.207-.527-.365a.82.82 0 01-.21-.575 1.053 1.053 0 01.373-.853 3.097 3.097 0 011.014-.585c.44-.16.896-.275 1.36-.345a9.147 9.147 0 011.406-.115 9.46 9.46 0 011.407.096c.405.062.805.151 1.197.269a9.717 9.717 0 01-2.116 1.945 4.389 4.389 0 01-2.478.757c-.244 0-.487-.017-.728-.047zM55.495 14.886a98.07 98.07 0 01-.555 1.208l-.412.862c-.133.281-.258.556-.373.825-.191.37-.396.747-.613 1.13-.217.384-.44.767-.67 1.15-.268.46-.53.918-.785 1.371a21.53 21.53 0 00-.699 1.352c-.206.437-.38.888-.517 1.351-.131.44-.211.894-.239 1.352.013.102.115.214.306.335a3.018 3.018 0 001.216.441c.185.02.284-.022.297-.124a7.2 7.2 0 01.325-1.313c.156-.448.339-.887.546-1.314.21-.434.437-.862.68-1.284.242-.422.484-.824.727-1.208v.02l.325-.499c.158.338.42.617.747.796.357.21.893.31 1.608.297a5.466 5.466 0 002.02-.422 7.022 7.022 0 001.77-1.064 8.09 8.09 0 002.355-3.23c.162-.389.247-.806.25-1.227 0-.236-.032-.472-.096-.7a1.617 1.617 0 00-.335-.613 1.957 1.957 0 00-.632-.47 2.854 2.854 0 00-.967-.249 3.674 3.674 0 00-.91.039 5.902 5.902 0 00-.947.24 7.645 7.645 0 00-.957.402c-.308.154-.609.323-.9.508a1.067 1.067 0 00-.306-.499 2.324 2.324 0 00-.584-.421 2.864 2.864 0 00-.67-.25.91.91 0 00-.526 0c-.14.41-.3.812-.479 1.208zm.632 3.815a34.977 34.977 0 011.148-2.186 6.692 6.692 0 011.857-1.188c.323-.137.656-.25.996-.336.3-.079.609-.114.919-.105.42.013.631.205.631.575a2.153 2.153 0 01-.23.882c-.17.361-.375.704-.612 1.026-.267.364-.557.71-.871 1.035a8.258 8.258 0 01-1.015.9 5.35 5.35 0 01-1.053.624 2.19 2.19 0 01-.966.21c-.345-.025-.581-.134-.709-.325a1.116 1.116 0 01-.191-.633c0-.149.019-.297.057-.441 0-.013.003-.02.01-.02.006 0 .01-.006.01-.019h.019z" fill="#3581CB"/><path fill-rule="evenodd" clip-rule="evenodd" d="M63.914 14.886c-.179.396-.364.799-.555 1.208l-.411.862c-.134.281-.259.556-.374.825-.191.37-.395.747-.613 1.13-.217.384-.44.767-.67 1.15-.268.46-.53.918-.785 1.371a21.07 21.07 0 00-.699 1.352 9.548 9.548 0 00-.517 1.351c-.13.44-.211.893-.239 1.352.013.102.115.214.306.335a3.022 3.022 0 001.217.441c.185.02.284-.022.296-.125.067-.446.176-.886.326-1.313.156-.447.338-.886.545-1.313.21-.434.437-.862.68-1.284.242-.422.485-.824.727-1.208v.02l.326-.499c.157.338.419.617.746.796.357.21.894.31 1.608.297a5.469 5.469 0 002.02-.422 7.026 7.026 0 001.77-1.064 8.093 8.093 0 002.356-3.23c.161-.389.246-.806.248-1.227a2.515 2.515 0 00-.095-.7 1.617 1.617 0 00-.335-.613 1.955 1.955 0 00-.632-.47 2.852 2.852 0 00-.967-.249 3.673 3.673 0 00-.909.038 5.901 5.901 0 00-.948.24 7.637 7.637 0 00-.957.403 9.97 9.97 0 00-.9.508 1.065 1.065 0 00-.306-.499 2.326 2.326 0 00-.584-.421 2.864 2.864 0 00-.67-.25.91.91 0 00-.526 0c-.14.41-.3.812-.479 1.208zm.632 3.815a34.977 34.977 0 011.149-2.186 6.692 6.692 0 011.857-1.188 6.8 6.8 0 01.995-.336c.3-.08.61-.115.919-.105.421.013.632.204.632.575a2.153 2.153 0 01-.23.882c-.17.36-.376.704-.613 1.025-.266.365-.557.71-.871 1.036a8.258 8.258 0 01-1.015.9 5.29 5.29 0 01-1.052.623 2.19 2.19 0 01-.967.211c-.345-.025-.58-.134-.709-.326a1.116 1.116 0 01-.191-.632c0-.15.019-.298.057-.441 0-.013.003-.02.01-.02s.01-.006.01-.019h.02zM52.73 15.173a2.277 2.277 0 00-.192-.67 1.546 1.546 0 00-.421-.537 1.661 1.661 0 00-.718-.326 2.884 2.884 0 00-.47-.077 6.611 6.611 0 00-.507-.019c-.543 0-1.083.086-1.598.259a7.036 7.036 0 00-1.474.69 8.187 8.187 0 00-1.302.997c-.386.36-.741.75-1.062 1.17-.29.376-.544.78-.756 1.207a3.87 3.87 0 00-.403 1.312 3.42 3.42 0 00-.01.27c.004.234.042.467.116.69.08.25.21.481.383.68.204.23.456.413.737.537.367.16.759.254 1.158.278a3.52 3.52 0 001.666-.498 9.69 9.69 0 001.57-1.112v.096a1.53 1.53 0 00.42 1.083c.281.3.734.47 1.36.508a2.45 2.45 0 00.69-.058c.205-.047.407-.111.602-.191.17-.07.337-.15.498-.24.146-.083.27-.157.373-.22a8.09 8.09 0 001.599-1.42c.49-.561.94-1.11 1.35-1.648l.44-.556a.198.198 0 00-.01-.24.807.807 0 00-.24-.22.887.887 0 00-.315-.124.214.214 0 00-.22.048l-.364.479c-.217.294-.45.6-.699.92a9.761 9.761 0 01-.794.901c-.278.279-.583.53-.91.748a3.26 3.26 0 01-1.024.46h-.23a.265.265 0 01-.057-.192c0-.256.099-.594.297-1.016.197-.422.392-.818.584-1.189l.23-.46a.607.607 0 00-.096-.594 2.436 2.436 0 00-1.263-.901 1.044 1.044 0 00-.614-.038l-.134.153c-.034.24-.095.474-.182.7a11.29 11.29 0 01-.335.815 8.199 8.199 0 01-.641.728 13.36 13.36 0 01-.814.767c-.266.231-.544.449-.832.651a2.37 2.37 0 01-.7.365c-.446.076-.746.032-.899-.134a.871.871 0 01-.23-.614c.002-.145.022-.29.058-.431.038-.16.076-.304.115-.432.162-.428.367-.84.612-1.227.284-.463.618-.894.996-1.284a5.985 5.985 0 011.254-.997 2.622 2.622 0 011.426-.383.973.973 0 01.488.105.873.873 0 01.287.259.81.81 0 01.134.325c.02.115.036.224.048.326 0 .04.007.078.02.115.01.031.017.064.019.096a.21.21 0 00.162.182 1.006 1.006 0 00.688.01.195.195 0 00.163-.172 3.846 3.846 0 00-.028-.71z" fill="#3581CB"/><path fill-rule="evenodd" clip-rule="evenodd" d="M45.56 9.452a49.165 49.165 0 00-1.512 2.252 60.905 60.905 0 00-1.512 2.521 49.13 49.13 0 00-1.379 2.597 37.089 37.089 0 00-2.373-.977 29.6 29.6 0 001.378-1.755c.421-.581.791-1.144 1.11-1.687.294-.49.55-1.004.766-1.533a4.84 4.84 0 00.344-1.294 2.084 2.084 0 00-.277-1.045 2.615 2.615 0 00-.757-.834 3.874 3.874 0 00-1.129-.546 4.33 4.33 0 00-1.398-.182c-.889.014-1.77.18-2.603.489-.846.308-1.655.71-2.412 1.198a11.67 11.67 0 00-2.03 1.648 10.568 10.568 0 00-1.75 2.33 2.89 2.89 0 00-.173.345 4.796 4.796 0 00-.24.757l-.057.249c0 .09.106.128.316.115a4.98 4.98 0 001.445-.355c.23-.095.364-.188.402-.278l.02-.019a8.91 8.91 0 012.622-3.7 8.034 8.034 0 012.068-1.245 6.352 6.352 0 012.47-.48c.498-.012.887.087 1.168.298.28.21.427.52.44.93-.067.37-.19.729-.363 1.063-.24.492-.508.969-.804 1.428a28.07 28.07 0 01-1.158 1.678 25.52 25.52 0 01-1.465 1.792 19.227 19.227 0 00-4.46-.498h-.565a8.74 8.74 0 00-.584.019 15.77 15.77 0 00-3.36.518c-1.04.268-2.04.67-2.976 1.198a7.282 7.282 0 00-2.125 1.773 3.53 3.53 0 00-.804 2.243c0 1.086.399 1.862 1.196 2.329.798.466 2 .7 3.609.7a7.817 7.817 0 002.709-.528 16.266 16.266 0 002.861-1.409 23.971 23.971 0 002.824-2.041 31.356 31.356 0 002.594-2.425c.485.14.97.29 1.455.45.485.16.976.329 1.474.508a28.86 28.86 0 00-.948 2.415 7.972 7.972 0 00-.43 1.917c0 .077.076.198.23.365.158.17.327.33.507.479.16.136.334.258.517.364.159.09.245.096.258.02.127-.73.322-1.446.584-2.138.338-.927.731-1.832 1.177-2.712l.517.191 1.474.575c.154-.035.303-.093.44-.172a1.93 1.93 0 00.412-.287.667.667 0 00.201-.297c.026-.096-.038-.163-.191-.202-.421-.14-.82-.287-1.197-.441a68.715 68.715 0 01-1.1-.46 44.452 44.452 0 012.747-4.543 30.869 30.869 0 011.57-2.08A22.422 22.422 0 0148.95 9.27c.09-.205.051-.419-.115-.643a2.57 2.57 0 00-.631-.594 2.865 2.865 0 00-.757-.374c-.248-.076-.411-.076-.488 0a23.69 23.69 0 00-1.399 1.793zM24.79 22.008a2.994 2.994 0 01-.823-.289 2.243 2.243 0 01-.651-.51 1.384 1.384 0 01-.326-.75c0-.449.237-.898.709-1.346a7.324 7.324 0 011.857-1.231 14.1 14.1 0 012.574-.933 15.204 15.204 0 013.475-.5 22.015 22.015 0 012.268.048c.517.038 1.018.09 1.503.154a31.891 31.891 0 01-2.269 2.067 19.742 19.742 0 01-2.45 1.741c-.8.483-1.646.883-2.527 1.193a7.585 7.585 0 01-2.498.442 4.382 4.382 0 01-.842-.086z" fill="#3581CB"/><path fill-rule="evenodd" clip-rule="evenodd" d="M23.297 15.96c.306-.384.459-.754.459-1.112a1.092 1.092 0 00-.44-.901c-.294-.23-.683-.351-1.168-.364a4.844 4.844 0 00-1.465.191c-.482.138-.95.32-1.397.547-.417.209-.817.45-1.197.719a5.94 5.94 0 00-.861.728c-.651.69-1.123 1.332-1.417 1.927a3.697 3.697 0 00-.402 1.811 2.09 2.09 0 00.842 1.63c.524.396 1.258.594 2.202.594.153 0 .36-.01.622-.029.293-.023.584-.065.871-.124a6.29 6.29 0 001.024-.307 5.858 5.858 0 001.1-.575 10.36 10.36 0 001.59-1.457c.446-.511.836-.977 1.168-1.4l.363-.479a.35.35 0 00.048-.335.523.523 0 00-.21-.23.562.562 0 00-.326-.077.47.47 0 00-.316.144 24.07 24.07 0 01-1.053 1.38 7.756 7.756 0 01-1.177 1.131 7.471 7.471 0 01-1.177.748c-.345.178-.712.31-1.091.393a2.62 2.62 0 01-.9.048 1.112 1.112 0 01-.737-.508 1.693 1.693 0 01-.258-.815 10.43 10.43 0 003.063-1.207 7.03 7.03 0 002.24-2.09v.02-.001zm-.709-.96a.992.992 0 01-.153.48v-.02a6.206 6.206 0 01-1.809 1.793c-.76.49-1.589.862-2.46 1.102a6.16 6.16 0 01.574-1.064c.263-.4.565-.772.9-1.112a6.478 6.478 0 011.149-.93 3.528 3.528 0 011.359-.517c.293-.039.44.05.44.268z" fill="#3581CB"/><path fill-rule="evenodd" clip-rule="evenodd" d="M13.093 19.334a5.523 5.523 0 01-1.742 1.562 9.21 9.21 0 01-2.508.987c-.946.23-1.916.346-2.89.345-.46.003-.92-.045-1.369-.143a5.09 5.09 0 01-1.13-.384 2.463 2.463 0 01-.774-.565 1.03 1.03 0 01-.288-.69c0-.23.112-.477.335-.738.224-.262.584-.528 1.082-.796-.026-.077-.17-.153-.43-.23a8.74 8.74 0 00-.852-.201 13.255 13.255 0 00-.861-.135 2.174 2.174 0 00-.48-.028l.02-.02c-.37.264-.684.596-.928.978a1.87 1.87 0 00-.278.94c.009.443.183.867.488 1.188.37.403.815.729 1.312.959a8.68 8.68 0 001.876.642c.722.162 1.46.248 2.201.258a16.88 16.88 0 004.058-.431 12.194 12.194 0 003.303-1.265c.938-.544 1.675-1.192 2.21-1.946a4.148 4.148 0 00.805-2.454 2.092 2.092 0 00-.258-.805 3.71 3.71 0 00-.565-.767 5.245 5.245 0 00-.794-.68 6.56 6.56 0 00-.929-.547c.511-.154 1.01-.346 1.493-.575a7.127 7.127 0 001.33-.815c.399-.309.75-.673 1.044-1.083a3.996 3.996 0 00.689-1.696 2.346 2.346 0 00-.249-1.39 2.765 2.765 0 00-.794-.92 4.142 4.142 0 00-1.302-.642 6.003 6.003 0 00-1.77-.24h-.02c-1.473.04-2.93.325-4.308.844a15.485 15.485 0 00-3.647 1.964A15.037 15.037 0 003.33 12.51a13.379 13.379 0 00-1.876 3.029 1.24 1.24 0 00-.115.479c.01.29.125.567.326.776.203.238.442.441.708.604.21.136.444.23.69.278.203.032.3-.035.286-.201-.038-.32.032-.71.211-1.17a8.93 8.93 0 01.766-1.485c.365-.575.77-1.123 1.215-1.639a20.977 20.977 0 011.57-1.648 16.632 16.632 0 011.828-1.495 14.631 14.631 0 011.991-1.189 64.72 64.72 0 00-3.264 5.444 47.348 47.348 0 00-1.407 2.866 20.661 20.661 0 00-.976 2.579c-.026.102.028.243.163.421.14.187.297.36.469.518.155.15.329.278.516.383.166.09.275.09.326 0 .37-.83.791-1.7 1.263-2.607a65.674 65.674 0 013.245-5.53 53.553 53.553 0 011.867-2.674.579.579 0 00-.039-.499 1.883 1.883 0 00-.383-.508 2.911 2.911 0 00-.564-.422 2.85 2.85 0 00-.565-.258 8.484 8.484 0 011.311-.422c.43-.1.87-.158 1.312-.172a2.45 2.45 0 01.88.106c.215.066.411.181.575.335.14.14.244.31.306.498.064.192.096.393.096.595-.006.347-.07.69-.192 1.016a3.83 3.83 0 01-.947 1.418c-.418.401-.88.752-1.379 1.045a9.621 9.621 0 01-1.445.7 6.869 6.869 0 01-1.13.345.669.669 0 00-.315.23.277.277 0 00-.038.258c.04.094.107.174.191.23.11.075.24.112.373.106h.115a.536.536 0 00.287 0c.26-.01.518.05.747.172.26.132.494.31.69.527.21.233.38.498.507.786.133.298.202.622.2.949a3.368 3.368 0 01-.632 2.05zM27.025 3.148a.43.43 0 01-.678.054l-.002-.001-.006-.007-.027-.03a9.576 9.576 0 00-.533-.514 8.677 8.677 0 00-1.431-1.045c-.57-.325-1.178-.556-1.76-.577-.563-.021-1.122.152-1.637.68-.54.552-.744 1.086-.756 1.584-.013.51.174 1.037.517 1.568.69 1.07 1.937 2.036 2.999 2.686 1.304.737 2.153 1.4 2.674 2 .354-.322.822-.71 1.583-1.275 1.652-1.226 3.043-2.567 3.723-3.803.338-.615.48-1.167.43-1.647-.05-.466-.287-.92-.828-1.345-.529-.414-1.028-.512-1.486-.452-.474.063-.94.3-1.364.619a6.37 6.37 0 00-1.03.996 6.994 6.994 0 00-.365.477c-.009.011-.014.02-.018.026l-.004.006zm-.15 7.117c.348-.323.805-.708 1.606-1.302 1.681-1.249 3.193-2.679 3.964-4.08.387-.704.607-1.437.53-2.154-.077-.731-.457-1.386-1.152-1.93-.707-.555-1.437-.72-2.128-.628-.675.088-1.278.415-1.768.783a7.228 7.228 0 00-1.31 1.3 10.902 10.902 0 00-.267-.246 9.542 9.542 0 00-1.576-1.15c-.633-.362-1.38-.662-2.154-.69-.793-.03-1.59.227-2.284.937-.668.685-.983 1.418-1.001 2.166-.018.737.253 1.434.654 2.056.797 1.235 2.179 2.284 3.28 2.958a.602.602 0 00.013.008c1.302.734 2.061 1.353 2.483 1.853a55.478 55.478 0 01-.157.158c-.325.325-.614.834-.753 1.297-.069.231-.113.49-.079.732.036.255.172.538.493.666.214.086.437.103.651.044a1.15 1.15 0 00.52-.316c.27-.273.458-.671.583-1.077.125-.41.102-.876-.148-1.385zm-.668.657a2.47 2.47 0 00-.528.927.94.94 0 00-.051.363.131.131 0 00.067 0 .317.317 0 00.134-.09c.13-.131.265-.378.371-.726a.863.863 0 00.007-.474z" fill="#3581CB"/></svg>