<svg width="130" height="45" fill="none" xmlns="http://www.w3.org/2000/svg"><path fill-rule="evenodd" clip-rule="evenodd" d="M118.301 22.075a19.15 19.15 0 01-.715 1.895 73.99 73.99 0 01-.934 2.049c-.456.986-.892 1.95-1.306 2.896a13.79 13.79 0 00-.84 2.372v-.03a4.402 4.402 0 00-.124 1.077c-.02.644.196 1.273.606 1.772.404.482 1.011.734 1.82.755.381.001.762-.035 1.136-.108.341-.066.674-.163.996-.293a7.36 7.36 0 00.808-.385c.239-.133.441-.251.607-.354.481-.328.938-.688 1.369-1.078a27.977 27.977 0 01-1.136 2.033 86.83 86.83 0 01-1.229 1.94 17.18 17.18 0 00-1.275-.369 12.448 12.448 0 00-1.291-.246 18.756 18.756 0 00-1.447-.139 29.872 29.872 0 00-1.742-.046 12.688 12.688 0 00-3.219.402 10.02 10.02 0 00-2.707 1.113 6.18 6.18 0 00-1.866 1.7 3.621 3.621 0 00-.7 2.134 2.29 2.29 0 00.513 1.516 3.67 3.67 0 001.338.989c.591.26 1.213.446 1.85.556.688.124 1.386.187 2.084.187a16.34 16.34 0 003.221-.294 11.975 11.975 0 002.675-.865 11.608 11.608 0 002.272-1.39 13.855 13.855 0 001.944-1.871c.331.164.668.34 1.011.526.342.186.69.392 1.042.618l1.276.71c.186.083.502.078.948-.015.438-.09.866-.225 1.276-.402.342-.134.654-.334.918-.588.207-.216.155-.407-.156-.572a1.81 1.81 0 01-.233-.138 1.774 1.774 0 00-.233-.14h.031a83.463 83.463 0 00-2.1-1.127 39.26 39.26 0 00-2.162-1.036c.477-.7.933-1.437 1.369-2.209.435-.772.881-1.59 1.337-2.453l4.604-8.811a.973.973 0 00-.155-.955 3.23 3.23 0 00-.918-.863 4.567 4.567 0 00-1.229-.554c-.435-.123-.777-.134-1.026-.031a64.729 64.729 0 01-2.272 5.391c-.083.104-.166.2-.249.293-.081.09-.154.189-.217.293h.031c-.353.473-.732.955-1.136 1.448-.398.486-.824.949-1.276 1.386-.446.432-.93.824-1.446 1.171a5.142 5.142 0 01-1.649.74h-.342c-.125 0-.187-.124-.187-.37a3.67 3.67 0 01.311-1.279c.207-.524.461-1.089.762-1.695.301-.606.623-1.218.965-1.834.342-.616.658-1.17.948-1.663.394-.657.674-1.16.84-1.51a.986.986 0 00-.139-.955 3.167 3.167 0 00-.871-.863 4.198 4.198 0 00-1.167-.554 1.713 1.713 0 00-.996-.062l-.218.185zm-9.051 20.843a4.295 4.295 0 01-1.136-.293 2.425 2.425 0 01-.856-.585 1.307 1.307 0 01-.343-.924 1.678 1.678 0 01.607-1.371 5.043 5.043 0 011.649-.94 11.554 11.554 0 012.208-.554c.756-.12 1.521-.182 2.287-.185a15.2 15.2 0 012.286.154c.658.099 1.307.243 1.944.431a15.708 15.708 0 01-3.437 3.127 7.188 7.188 0 01-4.028 1.216 9.693 9.693 0 01-1.182-.076h.001zM90.18 23.924c-.29.637-.592 1.284-.903 1.94l-.668 1.387c-.218.451-.42.893-.607 1.325a52.51 52.51 0 01-.996 1.818 91.547 91.547 0 01-1.088 1.848c-.436.74-.861 1.474-1.276 2.203-.415.73-.793 1.453-1.136 2.172a15.085 15.085 0 00-.84 2.172 9.5 9.5 0 00-.389 2.172c.021.164.187.344.498.54.313.195.647.355.996.477.316.114.645.192.98.23.3.031.461-.035.482-.2.109-.718.286-1.425.529-2.11.254-.72.55-1.424.886-2.11a32.8 32.8 0 011.105-2.064c.394-.678.788-1.325 1.182-1.941v.03l.529-.8c.256.543.68.991 1.213 1.278.58.339 1.451.498 2.613.478a8.97 8.97 0 003.282-.678 11.435 11.435 0 002.877-1.71 13.01 13.01 0 003.827-5.191c.263-.625.4-1.295.405-1.972a4.035 4.035 0 00-.156-1.125 2.594 2.594 0 00-.544-.985 3.181 3.181 0 00-1.027-.755 4.676 4.676 0 00-1.571-.4c-.493-.04-.99-.02-1.477.06a9.677 9.677 0 00-1.54.386 12.43 12.43 0 00-1.555.647c-.502.247-.99.52-1.463.816a1.711 1.711 0 00-.497-.8 3.776 3.776 0 00-.95-.678 4.685 4.685 0 00-1.088-.4 1.495 1.495 0 00-.855 0 22.178 22.178 0 01-.778 1.94zm1.026 6.13a56.397 56.397 0 011.867-3.511c.446-.398.924-.76 1.43-1.079.505-.32 1.036-.6 1.587-.832a11.12 11.12 0 011.618-.539 5.33 5.33 0 011.493-.17c.684.022 1.026.33 1.026.925a3.42 3.42 0 01-.373 1.417 9.78 9.78 0 01-.996 1.648 15.818 15.818 0 01-1.415 1.664 13.354 13.354 0 01-1.649 1.448 8.72 8.72 0 01-1.71 1.002 3.6 3.6 0 01-1.572.338c-.56-.04-.943-.215-1.15-.523a1.78 1.78 0 01-.312-1.017c0-.24.03-.478.094-.71 0-.02.004-.03.015-.03.01 0 .016-.01.016-.03h.031z" fill="#0658A8"/><path fill-rule="evenodd" clip-rule="evenodd" d="M103.861 23.924a158.65 158.65 0 01-.902 1.94l-.669 1.387c-.217.451-.42.893-.607 1.325a52.6 52.6 0 01-.996 1.817 91.526 91.526 0 01-1.088 1.85 158.08 158.08 0 00-1.276 2.202c-.415.73-.793 1.453-1.136 2.172a15.09 15.09 0 00-.84 2.172 9.497 9.497 0 00-.388 2.172c.02.164.186.344.497.54.313.195.647.355.996.477.317.114.646.192.98.23.301.031.462-.035.482-.2.11-.718.286-1.425.53-2.11a19.2 19.2 0 01.886-2.11 32.49 32.49 0 011.104-2.064c.394-.678.788-1.325 1.182-1.941v.03l.529-.8a2.82 2.82 0 001.213 1.278c.581.339 1.452.498 2.613.478a8.976 8.976 0 003.282-.678 11.448 11.448 0 002.878-1.71 13.006 13.006 0 003.826-5.191 5.163 5.163 0 00.405-1.972 4.035 4.035 0 00-.156-1.125 2.58 2.58 0 00-.544-.985 3.17 3.17 0 00-1.027-.755 4.67 4.67 0 00-1.57-.4c-.494-.04-.99-.02-1.478.06a9.696 9.696 0 00-1.54.386 12.49 12.49 0 00-1.555.647c-.501.247-.989.52-1.462.816a1.71 1.71 0 00-.498-.8 3.779 3.779 0 00-.949-.678 4.683 4.683 0 00-1.089-.401 1.494 1.494 0 00-.855 0 22.242 22.242 0 01-.778 1.941zm1.027 6.13a55.841 55.841 0 011.866-3.512c.446-.398.925-.758 1.431-1.078.504-.321 1.035-.6 1.586-.832.525-.22 1.066-.4 1.618-.539a5.33 5.33 0 011.493-.17c.685.021 1.027.33 1.027.925a3.436 3.436 0 01-.373 1.417 9.848 9.848 0 01-.996 1.648 15.88 15.88 0 01-1.416 1.664 13.282 13.282 0 01-1.649 1.448 8.666 8.666 0 01-1.711 1.001 3.59 3.59 0 01-1.57.34c-.56-.042-.944-.216-1.151-.525a1.777 1.777 0 01-.312-1.016c-.001-.24.031-.478.094-.71 0-.02.005-.03.015-.03.011 0 .016-.01.016-.031h.032zm-19.203-5.668a3.63 3.63 0 00-.311-1.078 2.49 2.49 0 00-.685-.863 2.715 2.715 0 00-1.166-.524 4.754 4.754 0 00-.762-.123c-.26-.02-.535-.03-.825-.03a8.233 8.233 0 00-2.597.415c-.84.277-1.643.65-2.395 1.11-.758.462-1.467.998-2.116 1.601a15.288 15.288 0 00-1.726 1.88 11.808 11.808 0 00-1.23 1.94 6.203 6.203 0 00-.606 1.772 3.144 3.144 0 00-.046.339 5.48 5.48 0 00-.016.431c.005.377.068.751.187 1.11.13.402.342.774.622 1.093.332.37.74.665 1.198.863a5.567 5.567 0 001.882.447 5.765 5.765 0 002.707-.8 15.737 15.737 0 002.55-1.788v.154a2.443 2.443 0 00.685 1.741c.456.482 1.192.754 2.209.816.376.022.753-.009 1.12-.092a6.59 6.59 0 00.98-.308c.277-.112.547-.24.808-.385.239-.133.44-.252.607-.355a13.1 13.1 0 002.598-2.28 50.942 50.942 0 002.193-2.649l.715-.893a.315.315 0 00-.015-.386 1.303 1.303 0 00-.39-.354 1.45 1.45 0 00-.512-.2.35.35 0 00-.358.077l-.591.77c-.353.473-.732.966-1.136 1.479-.4.509-.831.992-1.291 1.448-.451.448-.946.85-1.478 1.202-.507.34-1.07.59-1.664.739h-.373a.422.422 0 01-.094-.308c0-.41.161-.955.483-1.633.32-.678.637-1.315.948-1.91l.374-.74a.965.965 0 00-.156-.954 3.6 3.6 0 00-.886-.879 3.979 3.979 0 00-1.167-.57 1.714 1.714 0 00-.996-.061l-.218.246a5.184 5.184 0 01-.295 1.124 18.51 18.51 0 01-.545 1.31c-.323.41-.671.801-1.042 1.17a21.33 21.33 0 01-1.322 1.233 16.67 16.67 0 01-1.353 1.047 3.866 3.866 0 01-1.136.586c-.726.123-1.213.051-1.462-.216a1.39 1.39 0 01-.373-.986c.004-.234.035-.466.093-.693.063-.257.125-.488.187-.693.264-.69.598-1.35.996-1.972a11.856 11.856 0 011.618-2.064 9.703 9.703 0 012.037-1.602 4.297 4.297 0 012.318-.617c.274-.012.548.046.793.17.185.102.344.244.466.415.111.157.186.335.218.524.032.184.057.359.078.524 0 .063.01.125.031.184.018.05.029.102.031.154a.336.336 0 00.265.293c.177.072.367.11.559.108.19.001.38-.03.559-.092a.318.318 0 00.264-.277 6.21 6.21 0 00-.045-1.14z" fill="#0658A8"/><path fill-rule="evenodd" clip-rule="evenodd" d="M74.035 15.19a79.066 79.066 0 00-2.457 3.62 97.581 97.581 0 00-2.458 4.052 78.663 78.663 0 00-2.24 4.174 60.5 60.5 0 00-1.913-.816 68.468 68.468 0 00-1.944-.755 47.178 47.178 0 002.24-2.82 34.218 34.218 0 001.804-2.71c.477-.79.893-1.614 1.245-2.465.282-.665.47-1.364.559-2.08a3.322 3.322 0 00-.451-1.68 4.218 4.218 0 00-1.23-1.34 6.328 6.328 0 00-1.834-.877 7.111 7.111 0 00-2.271-.293 12.893 12.893 0 00-4.231.786 19.81 19.81 0 00-3.92 1.925 18.92 18.92 0 00-3.297 2.65 17.014 17.014 0 00-2.396 2.988c-.186.308-.336.56-.45.755a4.62 4.62 0 00-.28.555c-.073.174-.14.354-.202.539-.062.184-.124.41-.187.678l-.093.4c0 .144.17.206.513.185.388-.028.774-.09 1.15-.185.41-.097.81-.226 1.199-.385.373-.154.59-.303.653-.447l.031-.03a14.326 14.326 0 014.262-5.947 13.086 13.086 0 013.36-2.002 10.42 10.42 0 014.014-.77c.808-.02 1.44.139 1.897.478.456.338.695.836.716 1.494a6.082 6.082 0 01-.59 1.71c-.39.79-.826 1.556-1.307 2.295a45.01 45.01 0 01-1.882 2.696 41.045 41.045 0 01-2.38 2.88 31.545 31.545 0 00-7.248-.8h-.918c-.322 0-.638.01-.949.03-1.844.082-3.675.36-5.459.832a20.196 20.196 0 00-4.837 1.925 11.805 11.805 0 00-3.453 2.85 5.637 5.637 0 00-1.307 3.605c0 1.745.648 2.993 1.944 3.743 1.296.75 3.251 1.125 5.864 1.124a12.829 12.829 0 004.402-.847 26.563 26.563 0 004.65-2.265 38.929 38.929 0 004.589-3.28 50.725 50.725 0 004.215-3.898c.788.226 1.576.468 2.364.724a90.9 90.9 0 012.396.817 45.856 45.856 0 00-1.54 3.881 12.7 12.7 0 00-.7 3.081c0 .123.124.319.373.586.257.274.533.532.825.77.261.22.542.415.84.585.259.143.399.154.419.03a18.78 18.78 0 01.949-3.434 39.87 39.87 0 011.913-4.36l.84.309 2.395.924a2.62 2.62 0 00.716-.277c.243-.124.468-.28.67-.462.15-.126.263-.291.326-.477.041-.154-.063-.262-.311-.324a32.09 32.09 0 01-1.944-.709 109.1 109.1 0 01-1.79-.74 71.328 71.328 0 014.465-7.3 49.65 49.65 0 012.551-3.344 36.205 36.205 0 012.629-2.85c.145-.328.082-.672-.187-1.031a4.157 4.157 0 00-1.027-.956 4.675 4.675 0 00-1.228-.6c-.405-.124-.67-.124-.794 0a38.146 38.146 0 00-2.273 2.88zM40.283 35.37a4.905 4.905 0 01-1.338-.464 3.641 3.641 0 01-1.057-.82 2.21 2.21 0 01-.529-1.205c0-.721.384-1.443 1.151-2.164a11.916 11.916 0 013.018-1.979 23.077 23.077 0 014.184-1.499 24.949 24.949 0 014.619-.757 31.347 31.347 0 012.053-.062c.933 0 1.82.031 2.66.093.84.062 1.654.144 2.442.247a51.643 51.643 0 01-3.687 3.323 32.09 32.09 0 01-3.982 2.798 22.265 22.265 0 01-4.106 1.916 12.45 12.45 0 01-4.06.712 7.204 7.204 0 01-1.368-.14z" fill="#0658A8"/><path fill-rule="evenodd" clip-rule="evenodd" d="M37.857 25.65c.498-.616.746-1.212.746-1.787a1.74 1.74 0 00-.715-1.448c-.478-.37-1.11-.565-1.898-.585a7.955 7.955 0 00-2.38.308c-.783.22-1.544.514-2.271.878-.676.336-1.326.722-1.944 1.155a9.631 9.631 0 00-1.4 1.17c-1.058 1.11-1.825 2.142-2.302 3.097-.465.9-.69 1.902-.653 2.911.011.511.14 1.013.378 1.466.237.454.576.849.99 1.153.85.636 2.043.955 3.578.955.249 0 .586-.015 1.01-.046.476-.038.95-.105 1.416-.2a10.311 10.311 0 001.665-.493 9.57 9.57 0 001.788-.925c.94-.69 1.806-1.474 2.582-2.341a57.57 57.57 0 001.898-2.249l.59-.77a.559.559 0 00.079-.539.845.845 0 00-.343-.37.92.92 0 00-.529-.123.767.767 0 00-.513.231 38.9 38.9 0 01-1.71 2.218 12.572 12.572 0 01-1.914 1.818 12.15 12.15 0 01-1.913 1.202 7.246 7.246 0 01-1.773.631c-.48.11-.974.136-1.462.077a1.819 1.819 0 01-1.198-.816 2.698 2.698 0 01-.42-1.31 17.062 17.062 0 004.978-1.94 11.375 11.375 0 003.64-3.359v.031zm-1.151-1.54c-.015.273-.1.538-.25.77v-.031a10.032 10.032 0 01-2.939 2.88 14.488 14.488 0 01-3.997 1.772 9.865 9.865 0 01.933-1.71 11.79 11.79 0 011.462-1.788 10.515 10.515 0 011.867-1.494 5.772 5.772 0 012.208-.832c.477-.061.715.082.716.432z" fill="#0658A8"/><path fill-rule="evenodd" clip-rule="evenodd" d="M21.276 31.072a8.943 8.943 0 01-2.83 2.511 15.072 15.072 0 01-4.076 1.587c-1.537.37-3.114.556-4.697.554a10.263 10.263 0 01-2.224-.23 8.34 8.34 0 01-1.835-.617 4.002 4.002 0 01-1.26-.909 1.647 1.647 0 01-.466-1.11c0-.369.181-.764.544-1.185.363-.421.949-.847 1.758-1.279-.042-.123-.275-.246-.7-.37a14.324 14.324 0 00-1.384-.323 21.667 21.667 0 00-1.4-.216 3.567 3.567 0 00-.777-.046l.03-.03a5.71 5.71 0 00-1.508 1.57A2.986 2.986 0 000 32.489c.014.713.297 1.394.793 1.91a6.715 6.715 0 002.131 1.54c.973.46 1.996.806 3.049 1.033 1.175.26 2.373.4 3.577.415 2.219.033 4.433-.2 6.595-.693a19.951 19.951 0 005.366-2.034c1.524-.872 2.722-1.915 3.593-3.127a6.619 6.619 0 001.307-3.943 3.335 3.335 0 00-.42-1.294 5.972 5.972 0 00-.917-1.233 8.498 8.498 0 00-1.291-1.093 10.669 10.669 0 00-1.51-.878 17.375 17.375 0 002.427-.925 11.602 11.602 0 002.162-1.31 8.46 8.46 0 001.695-1.74 6.388 6.388 0 001.12-2.726 3.737 3.737 0 00-.404-2.234 4.456 4.456 0 00-1.291-1.479 6.764 6.764 0 00-2.115-1.032 9.855 9.855 0 00-2.878-.385h-.032a21.732 21.732 0 00-7 1.356 25.256 25.256 0 00-5.926 3.158 24.327 24.327 0 00-4.62 4.328 21.464 21.464 0 00-3.048 4.868 1.975 1.975 0 00-.186.77c.014.467.202.911.528 1.248.33.382.718.71 1.151.97.342.219.722.37 1.12.447.332.052.487-.056.467-.323-.062-.513.052-1.14.342-1.88a14.29 14.29 0 011.244-2.386 22.616 22.616 0 011.975-2.634 33.883 33.883 0 012.552-2.65 26.964 26.964 0 012.97-2.403 23.827 23.827 0 013.236-1.91 103.862 103.862 0 00-5.304 8.75 75.788 75.788 0 00-2.287 4.606 32.972 32.972 0 00-1.586 4.144c-.042.164.046.39.264.677.228.3.483.578.762.832.253.24.535.447.84.616.27.144.446.144.529 0a76.245 76.245 0 012.053-4.19 101.703 101.703 0 012.473-4.42 105.274 105.274 0 012.8-4.468 85.999 85.999 0 013.033-4.298.922.922 0 00-.062-.8 3.025 3.025 0 00-.622-.817 4.724 4.724 0 00-.918-.678 4.659 4.659 0 00-.918-.415c.69-.283 1.403-.51 2.131-.678.7-.162 1.413-.255 2.131-.277a4.03 4.03 0 011.431.17c.348.107.668.291.933.539.227.225.398.499.498.8.103.309.156.631.155.956a4.821 4.821 0 01-.31 1.633 6.15 6.15 0 01-1.54 2.28 12.02 12.02 0 01-2.24 1.679c-.75.439-1.536.815-2.349 1.124a11.25 11.25 0 01-1.835.555c-.204.07-.383.198-.513.37a.441.441 0 00-.062.415c.065.15.173.279.311.37.178.12.391.179.607.169h.186a.882.882 0 00.467 0 2.44 2.44 0 011.213.276c.423.212.802.5 1.12.848.341.375.62.8.824 1.263.217.48.329 1 .327 1.525a5.373 5.373 0 01-1.027 3.296zM43.916 5.06a.7.7 0 01-1.103.086l-.002-.002-.01-.01a15.474 15.474 0 00-.911-.873c-.59-.52-1.404-1.162-2.325-1.68-.927-.524-1.914-.895-2.86-.93-.914-.033-1.822.245-2.66 1.093-.877.889-1.209 1.746-1.228 2.547-.02.818.283 1.667.84 2.52 1.121 1.719 3.148 3.272 4.873 4.317 2.12 1.184 3.498 2.249 4.346 3.215.575-.518 1.335-1.14 2.572-2.05 2.685-1.971 4.945-4.126 6.05-6.113.55-.987.78-1.875.698-2.647-.08-.748-.466-1.48-1.345-2.16-.859-.666-1.67-.824-2.414-.727-.771.1-1.527.483-2.217.995a10.304 10.304 0 00-1.675 1.6 11.31 11.31 0 00-.622.808l-.006.01zm-.244 11.438c.565-.52 1.308-1.138 2.61-2.093 2.731-2.007 5.188-4.306 6.44-6.557.63-1.132.988-2.31.864-3.461-.127-1.176-.745-2.229-1.873-3.104C50.563.392 49.377.128 48.254.274c-1.096.143-2.076.669-2.873 1.26a11.69 11.69 0 00-2.128 2.088c-.128-.12-.273-.253-.434-.395-.632-.557-1.527-1.266-2.562-1.85C39.23.798 38.016.316 36.757.27c-1.287-.05-2.584.365-3.71 1.506-1.086 1.1-1.597 2.28-1.627 3.481-.03 1.185.411 2.305 1.063 3.305 1.295 1.983 3.54 3.67 5.33 4.753a.743.743 0 00.021.013c2.117 1.18 3.35 2.175 4.036 2.978l-.038.038-.217.216c-.529.523-.998 1.34-1.224 2.085-.112.37-.184.788-.13 1.176.06.41.281.864.802 1.07.348.138.71.165 1.058.072.34-.091.62-.283.846-.509.438-.438.743-1.079.946-1.731.204-.658.167-1.407-.24-2.225zm-1.085 1.056c-.341.344-.693.944-.858 1.488-.084.277-.1.475-.084.585.05.011.085.007.11 0a.516.516 0 00.217-.146c.21-.21.43-.607.604-1.165.06-.194.09-.445.01-.762z" fill="#0658A8"/></svg>