<svg width="67" height="24" fill="none" xmlns="http://www.w3.org/2000/svg"><path fill-rule="evenodd" clip-rule="evenodd" d="M60.97 11.783a9.694 9.694 0 01-.368.968c-.15.341-.31.69-.481 1.047-.235.504-.46.998-.674 1.48-.18.391-.326.797-.432 1.213v-.016c-.045.18-.066.366-.065.551-.01.33.102.65.313.906.209.246.521.375.938.386.197 0 .393-.018.585-.055.176-.034.348-.084.514-.15a3.81 3.81 0 00.417-.197c.122-.068.227-.128.312-.18.248-.168.484-.352.706-.552-.182.357-.377.703-.586 1.04-.208.335-.42.666-.633.991a8.926 8.926 0 00-.657-.189 6.44 6.44 0 00-.666-.126 9.713 9.713 0 00-.745-.07 15.6 15.6 0 00-.898-.024 6.59 6.59 0 00-1.66.206 5.185 5.185 0 00-1.394.569 3.177 3.177 0 00-.962.869 1.84 1.84 0 00-.361 1.09c-.009.28.085.556.264.774.188.219.424.392.69.506.305.133.625.228.954.285.354.063.714.095 1.074.095a8.455 8.455 0 001.66-.15 5.975 5.975 0 002.55-1.153 7.13 7.13 0 001.001-.956c.171.084.345.174.521.268.177.096.356.2.537.316l.658.364c.096.042.259.04.489-.008.225-.046.446-.115.657-.206.176-.068.337-.17.473-.3.107-.11.08-.208-.08-.292a.94.94 0 01-.12-.071.898.898 0 00-.12-.072h.015a42 42 0 00-1.082-.576c-.358-.184-.73-.36-1.114-.53.246-.357.48-.734.705-1.128.225-.395.455-.813.69-1.254l2.373-4.503a.49.49 0 00-.08-.489 1.653 1.653 0 00-.474-.44 2.36 2.36 0 00-.633-.284c-.224-.063-.4-.068-.529-.016a32.746 32.746 0 01-1.17 2.756 3.509 3.509 0 01-.129.15.915.915 0 00-.112.15h.016c-.182.24-.377.488-.585.74a8.385 8.385 0 01-.658.708c-.23.22-.48.42-.745.598a2.662 2.662 0 01-.85.378h-.176c-.065 0-.097-.063-.097-.189.014-.225.068-.447.16-.653.107-.268.238-.557.394-.867.155-.31.32-.622.497-.937.176-.315.339-.598.489-.85.202-.336.347-.593.432-.772a.5.5 0 00-.072-.488 1.619 1.619 0 00-.449-.44 2.168 2.168 0 00-.6-.284.89.89 0 00-.514-.032l-.112.095zm-4.664 10.653a2.228 2.228 0 01-.586-.15 1.252 1.252 0 01-.441-.299.666.666 0 01-.177-.472.85.85 0 01.313-.701c.25-.212.538-.375.85-.48.369-.132.75-.226 1.138-.284a7.8 7.8 0 011.179-.094 7.94 7.94 0 011.178.079c.339.05.674.124 1.002.22a8.081 8.081 0 01-1.772 1.598 3.727 3.727 0 01-2.076.622c-.203 0-.407-.014-.609-.04zm-9.829-9.708a79.975 79.975 0 01-.81 1.7c-.112.231-.216.457-.312.677-.16.305-.332.615-.513.93-.182.314-.37.63-.562.944-.224.378-.443.754-.657 1.126a17.03 17.03 0 00-.585 1.11c-.173.359-.318.73-.433 1.11a4.82 4.82 0 00-.2 1.11c.01.085.096.176.256.276a2.554 2.554 0 001.018.362c.155.016.238-.018.249-.102.056-.367.147-.728.272-1.079a9.88 9.88 0 01.457-1.078c.177-.357.366-.709.57-1.055.202-.346.406-.677.609-.992v.015l.272-.409c.132.278.351.507.625.654.3.173.748.254 1.347.244a4.657 4.657 0 001.692-.347 5.909 5.909 0 001.483-.874 6.655 6.655 0 001.972-2.653c.135-.32.206-.662.208-1.008 0-.194-.026-.387-.08-.574a1.321 1.321 0 00-.28-.504 1.635 1.635 0 00-.53-.386 2.427 2.427 0 00-.81-.205c-.253-.02-.51-.01-.76.032a5.03 5.03 0 00-.794.196 6.474 6.474 0 00-.802.331c-.258.127-.51.266-.753.417a.873.873 0 00-.257-.409 1.944 1.944 0 00-.489-.346 2.427 2.427 0 00-.561-.205.777.777 0 00-.441 0 11.61 11.61 0 01-.4.992zm.53 3.133a28.506 28.506 0 01.961-1.795 5.589 5.589 0 011.555-.976c.27-.113.55-.205.834-.276.25-.065.51-.094.77-.086.352.01.529.168.529.472-.011.252-.077.5-.193.725a4.99 4.99 0 01-.513.842c-.223.3-.467.584-.73.85a6.73 6.73 0 01-.85.74 4.503 4.503 0 01-.881.512c-.253.118-.53.177-.81.173-.288-.02-.486-.11-.593-.267a.904.904 0 01-.16-.52c0-.122.015-.244.048-.362 0-.01.002-.016.008-.016.005 0 .008-.005.008-.016h.016z" fill="#fff"/><path fill-rule="evenodd" clip-rule="evenodd" d="M53.528 12.728c-.15.325-.304.656-.465.992l-.344.708c-.112.231-.217.457-.313.677-.16.305-.331.615-.513.93-.182.314-.37.63-.561.944-.225.378-.444.754-.658 1.126a17.23 17.23 0 00-.585 1.11c-.173.359-.318.73-.433 1.11a4.83 4.83 0 00-.2 1.11c.01.085.096.176.256.276a2.548 2.548 0 001.018.362c.155.016.238-.018.249-.102.056-.367.147-.728.272-1.079.131-.368.284-.728.457-1.078.177-.357.366-.709.57-1.055.203-.346.406-.677.609-.992v.015l.272-.409c.132.278.351.507.626.653.299.174.748.255 1.346.245a4.657 4.657 0 001.692-.347 5.906 5.906 0 001.483-.874 6.655 6.655 0 001.972-2.653c.136-.32.206-.662.208-1.008a2.05 2.05 0 00-.08-.574 1.32 1.32 0 00-.28-.504 1.637 1.637 0 00-.53-.386 2.429 2.429 0 00-.809-.205c-.254-.02-.51-.01-.762.032-.27.044-.535.11-.793.196a6.483 6.483 0 00-.802.331c-.258.126-.51.266-.753.417a.873.873 0 00-.257-.409 1.945 1.945 0 00-.489-.346 2.428 2.428 0 00-.56-.205.776.776 0 00-.442 0 11.26 11.26 0 01-.4.992zm.53 3.133a28.614 28.614 0 01.961-1.795 5.598 5.598 0 011.556-.976c.27-.113.549-.205.833-.276.251-.065.51-.094.77-.086.353.01.529.168.529.472-.01.252-.076.5-.193.724a4.99 4.99 0 01-.513.843c-.223.3-.466.584-.73.85a6.72 6.72 0 01-.849.74 4.498 4.498 0 01-.882.512c-.253.118-.53.177-.81.173-.288-.02-.486-.11-.593-.268a.904.904 0 01-.16-.52c0-.122.016-.243.048-.362 0-.01.003-.015.008-.015.006 0 .008-.006.008-.016h.017zm-9.898-2.897a1.84 1.84 0 00-.16-.551 1.273 1.273 0 00-.353-.441 1.404 1.404 0 00-.6-.268 2.468 2.468 0 00-.394-.063 5.7 5.7 0 00-.425-.016c-.455 0-.907.072-1.338.213a5.948 5.948 0 00-1.235.567 6.84 6.84 0 00-1.09.819 7.826 7.826 0 00-.89.96c-.243.31-.455.642-.633.992a3.15 3.15 0 00-.313.906c-.01.057-.019.115-.024.173a2.757 2.757 0 00-.008.22c.003.193.035.384.096.567a1.6 1.6 0 00.321.56c.171.188.382.339.618.44.307.132.635.21.97.229a2.99 2.99 0 001.395-.41c.468-.26.908-.566 1.314-.913v.079c-.006.33.12.65.353.89.235.246.614.385 1.138.417a2.12 2.12 0 00.578-.047 3.35 3.35 0 00.505-.158c.142-.057.282-.123.416-.197.123-.068.227-.128.313-.18.497-.33.947-.721 1.339-1.166a26 26 0 001.13-1.354l.369-.457a.16.16 0 00-.008-.197.75.75 0 00-.465-.283.181.181 0 00-.184.04l-.305.393a36.44 36.44 0 01-.586.756c-.206.26-.428.507-.665.74a4.978 4.978 0 01-.761.614 2.756 2.756 0 01-.858.378h-.192a.214.214 0 01-.049-.158c0-.21.083-.488.249-.834.166-.347.328-.672.489-.976l.192-.378a.49.49 0 00-.08-.488 1.845 1.845 0 00-.457-.45 2.055 2.055 0 00-.601-.29.89.89 0 00-.513-.032l-.113.126c-.028.196-.08.39-.152.574-.08.216-.174.439-.28.67-.167.21-.347.41-.538.598-.219.22-.446.43-.68.63-.224.19-.457.369-.698.535a2 2 0 01-.586.3c-.374.063-.625.026-.753-.11a.708.708 0 01-.193-.505 1.51 1.51 0 01.048-.354c.033-.131.065-.25.097-.354.136-.352.308-.69.513-1.008a6.05 6.05 0 01.834-1.055 4.992 4.992 0 011.05-.819c.36-.215.774-.324 1.194-.315a.83.83 0 01.41.087.726.726 0 01.24.212c.057.08.095.171.112.268.016.094.03.183.04.267a.29.29 0 00.016.095c.01.025.015.052.016.079a.17.17 0 00.044.096.177.177 0 00.092.053c.092.037.19.056.289.055a.874.874 0 00.288-.047.164.164 0 00.092-.048.158.158 0 00.044-.093 3.07 3.07 0 00-.024-.583z" fill="#fff"/><path fill-rule="evenodd" clip-rule="evenodd" d="M38.157 8.264a40.408 40.408 0 00-1.267 1.85c-.428.661-.85 1.352-1.267 2.07-.416.72-.801 1.431-1.154 2.135a31.263 31.263 0 00-1.988-.804c.417-.482.801-.963 1.154-1.44.353-.479.663-.94.93-1.386.246-.404.46-.825.642-1.26a3.97 3.97 0 00.288-1.063c0-.301-.08-.597-.233-.858a2.165 2.165 0 00-.633-.685 3.272 3.272 0 00-.946-.449 3.693 3.693 0 00-1.17-.15 6.694 6.694 0 00-2.18.402 10.25 10.25 0 00-2.02.984 9.737 9.737 0 00-1.7 1.354 8.706 8.706 0 00-1.467 1.914 2.365 2.365 0 00-.145.283 3.937 3.937 0 00-.2.622l-.048.205c0 .073.088.105.265.094a4.236 4.236 0 001.21-.291c.192-.079.305-.155.337-.229l.016-.015a7.325 7.325 0 012.196-3.04 6.757 6.757 0 011.732-1.023 5.41 5.41 0 012.069-.393c.416-.01.742.07.977.244.236.173.359.427.37.764-.057.304-.16.599-.305.873-.2.404-.425.796-.673 1.174-.278.43-.602.89-.97 1.377a21.04 21.04 0 01-1.227 1.473 16.4 16.4 0 00-3.735-.41h-.473c-.166 0-.33.006-.49.016a13.51 13.51 0 00-2.813.425c-.871.22-1.71.551-2.493.984a6.074 6.074 0 00-1.78 1.457 2.867 2.867 0 00-.673 1.842c0 .893.334 1.53 1.002 1.914.668.383 1.675.574 3.022.574a6.662 6.662 0 002.269-.433 13.739 13.739 0 002.397-1.157 20.066 20.066 0 002.364-1.677 26.068 26.068 0 002.173-1.992 43.878 43.878 0 012.453.787c-.32.714-.585 1.375-.794 1.984a6.436 6.436 0 00-.36 1.575c0 .063.064.162.192.299.132.14.274.272.425.394.135.112.28.212.433.299.133.073.205.079.216.015.106-.598.27-1.186.489-1.755.283-.761.613-1.505.986-2.228l.433.157 1.234.473c.13-.03.254-.077.37-.142a1.62 1.62 0 00.344-.236.547.547 0 00.168-.244c.022-.079-.032-.134-.16-.165a16.628 16.628 0 01-1.002-.363 56.78 56.78 0 01-.922-.378 36.346 36.346 0 012.3-3.732 25.52 25.52 0 011.316-1.708c.425-.51.877-.995 1.354-1.457.075-.167.043-.343-.096-.527a2.135 2.135 0 00-.529-.488 2.418 2.418 0 00-.633-.307c-.209-.063-.345-.063-.409 0-.364.409-.755.9-1.172 1.472zM20.76 18.578a2.541 2.541 0 01-.69-.237 1.87 1.87 0 01-.544-.419 1.125 1.125 0 01-.273-.616c0-.369.198-.738.593-1.106a6.145 6.145 0 011.555-1.011 11.98 11.98 0 012.157-.767 12.969 12.969 0 012.91-.41 18.858 18.858 0 011.9.04c.433.03.852.073 1.258.125a26.53 26.53 0 01-1.9 1.699 16.552 16.552 0 01-2.052 1.43c-.67.397-1.379.725-2.117.98a6.467 6.467 0 01-2.092.363 3.732 3.732 0 01-.705-.071z" fill="#fff"/><path fill-rule="evenodd" clip-rule="evenodd" d="M19.51 13.61c.257-.315.385-.62.385-.913a.883.883 0 00-.368-.74c-.247-.19-.573-.29-.978-.3a4.13 4.13 0 00-1.227.158 6.668 6.668 0 00-1.17.449 7.81 7.81 0 00-1.003.59c-.259.177-.5.377-.721.598-.545.567-.94 1.095-1.187 1.583-.239.46-.355.972-.336 1.488.006.261.072.517.195.75.122.231.296.433.51.588.439.326 1.053.488 1.844.489.128 0 .302-.008.521-.024.245-.02.489-.054.73-.102.292-.06.58-.145.857-.252.324-.125.633-.284.922-.473a8.59 8.59 0 001.33-1.196c.375-.42.7-.803.979-1.15l.304-.393a.284.284 0 00.04-.276.433.433 0 00-.176-.189.477.477 0 00-.272-.063.397.397 0 00-.265.118 19.856 19.856 0 01-.882 1.134 6.443 6.443 0 01-.986.93c-.308.233-.638.44-.986.613a3.756 3.756 0 01-.914.323c-.247.056-.502.07-.753.04a.94.94 0 01-.617-.418 1.372 1.372 0 01-.216-.67 8.84 8.84 0 002.565-.991 5.846 5.846 0 001.875-1.717v.016zm-.593-.787a.804.804 0 01-.128.393v-.015a5.15 5.15 0 01-1.515 1.472 7.499 7.499 0 01-2.06.905c.13-.306.291-.599.48-.874a6.03 6.03 0 01.754-.913c.29-.29.613-.546.962-.764a2.99 2.99 0 011.139-.425c.245-.032.368.042.368.22z" fill="#fff"/><path fill-rule="evenodd" clip-rule="evenodd" d="M10.966 16.381a4.596 4.596 0 01-1.46 1.284 7.803 7.803 0 01-2.1.81c-.792.19-1.605.285-2.42.284a5.326 5.326 0 01-1.147-.118 4.325 4.325 0 01-.946-.315 2.061 2.061 0 01-.649-.465.838.838 0 01-.24-.566c0-.19.093-.392.28-.607.187-.215.49-.433.906-.653-.021-.063-.142-.126-.36-.19a7.432 7.432 0 00-.714-.165 11.289 11.289 0 00-.721-.11 1.849 1.849 0 00-.4-.023l.015-.016a2.93 2.93 0 00-.777.803 1.515 1.515 0 00-.233.772c.007.364.153.712.409.976.31.331.683.599 1.098.787a7.314 7.314 0 001.571.528 9.137 9.137 0 001.844.212 14.406 14.406 0 003.399-.354c.968-.213 1.9-.563 2.765-1.04.786-.446 1.403-.979 1.852-1.598.438-.584.673-1.29.674-2.016a1.695 1.695 0 00-.216-.661 3.05 3.05 0 00-.474-.63 4.358 4.358 0 00-.665-.559 5.502 5.502 0 00-.777-.449 8.988 8.988 0 001.25-.472 5.99 5.99 0 001.114-.67c.334-.253.628-.553.874-.889a3.251 3.251 0 00.577-1.393 1.898 1.898 0 00-.208-1.142 2.285 2.285 0 00-.665-.756 3.498 3.498 0 00-1.09-.527 5.12 5.12 0 00-1.484-.197h-.017a11.283 11.283 0 00-3.607.693A13.052 13.052 0 005.17 8.563a12.497 12.497 0 00-2.38 2.212 10.957 10.957 0 00-1.572 2.488 1.003 1.003 0 00-.096.394.955.955 0 00.272.637c.17.195.37.363.593.496.176.112.372.19.578.229.17.026.25-.029.24-.165-.032-.263.027-.583.177-.961.174-.426.389-.834.64-1.22.306-.472.647-.922 1.019-1.346a17.38 17.38 0 011.315-1.354c.48-.445.991-.855 1.53-1.229a12.304 12.304 0 011.668-.976A53.032 53.032 0 006.42 12.24a38.596 38.596 0 00-1.178 2.354c-.32.688-.593 1.395-.818 2.118-.021.084.024.2.137.347.117.153.249.295.392.425.13.122.276.228.433.315.14.073.23.073.273 0 .31-.683.662-1.396 1.058-2.142a53.718 53.718 0 012.718-4.543 44.046 44.046 0 011.563-2.196.468.468 0 00-.032-.41 1.55 1.55 0 00-.32-.417 2.435 2.435 0 00-.474-.346 2.408 2.408 0 00-.473-.213 7.2 7.2 0 011.098-.346 5.68 5.68 0 011.099-.141c.249-.016.499.014.737.086.18.055.344.15.481.276.117.114.205.255.257.409.053.157.08.322.08.488a2.446 2.446 0 01-.16.835 3.15 3.15 0 01-.794 1.165 6.19 6.19 0 01-1.155.858 8.126 8.126 0 01-1.21.575 5.84 5.84 0 01-.946.283.56.56 0 00-.264.19.224.224 0 00-.032.211c.034.077.09.143.16.19a.522.522 0 00.313.086h.096a.458.458 0 00.24 0c.218-.007.434.042.626.142.218.108.413.255.577.433.176.191.32.409.425.645.112.245.169.51.168.78a2.73 2.73 0 01-.53 1.684zM22.634 3.086a.364.364 0 01-.569.044l-.006-.006a2.574 2.574 0 00-.116-.119 7.924 7.924 0 00-.354-.327 7.265 7.265 0 00-1.197-.86c-.478-.267-.987-.456-1.474-.474-.472-.017-.94.125-1.371.558-.453.455-.623.893-.634 1.302-.01.419.146.852.433 1.288.578.879 1.623 1.673 2.512 2.207 1.093.605 1.803 1.15 2.24 1.643.296-.265.688-.583 1.326-1.048 1.383-1.007 2.548-2.109 3.117-3.124.284-.505.403-.958.36-1.353-.041-.382-.24-.756-.693-1.105-.443-.34-.86-.42-1.244-.37-.398.05-.787.246-1.143.508-.353.26-.651.57-.863.818a5.782 5.782 0 00-.32.413l-.004.005zm-.126 5.846c.291-.265.674-.581 1.345-1.07 1.408-1.025 2.674-2.2 3.32-3.35.324-.58.508-1.181.445-1.77-.066-.601-.384-1.139-.966-1.586C26.06.7 25.448.566 24.87.64c-.565.073-1.07.342-1.48.644a6.001 6.001 0 00-1.098 1.067 7.981 7.981 0 00-1.544-1.147c-.53-.296-1.155-.543-1.803-.567-.665-.024-1.333.188-1.913.771-.56.562-.824 1.165-.839 1.78-.015.604.212 1.177.548 1.688.667 1.014 1.825 1.876 2.747 2.43a.477.477 0 00.01.006c1.091.603 1.727 1.112 2.08 1.522l-.019.02-.112.11a2.699 2.699 0 00-.63 1.066 1.42 1.42 0 00-.067.6c.03.21.145.442.413.548.18.07.366.084.545.036a.98.98 0 00.436-.26c.226-.224.383-.551.488-.885.105-.336.086-.719-.124-1.137zm-.56.54a2.014 2.014 0 00-.441.76.76.76 0 00-.044.3.113.113 0 00.057 0 .266.266 0 00.112-.075c.108-.107.222-.31.311-.596a.697.697 0 00.006-.39z" fill="#fff"/></svg>