<svg width="56" height="39" viewBox="0 0 56 39" fill="none" xmlns="http://www.w3.org/2000/svg">
<path d="M54.5907 29.4372C52.2741 25.6343 51.2435 23.1743 45.7784 23.2206C44.5837 23.2883 42.6448 22.1783 38.0805 19.1971C36.7491 19.0119 36.4461 20.353 37.5066 21.755C39.5268 23.5917 41.2217 24.5996 45.2936 26.3572C38.2042 26.6059 29.4294 27.0133 26.4812 24.8682C26.4258 24.8279 26.3689 24.7907 26.3072 24.7609C24.7979 24.031 24.4137 25.1863 25.895 26.3178C29.5245 29.0907 35.4268 29.4372 39.1844 31.4364C47.1526 33.8807 49.4946 35.2828 55.3362 38.096" stroke="#7F8489"/>
<path d="M37.6165 26.5764C35.0758 26.5696 31.9234 25.6197 29.1921 24.7118C27.6331 23.7517 26.4312 23.4704 26.9649 24.9038C27.2541 25.2837 27.414 25.4107 27.503 25.3996" stroke="#7F8489"/>
<path d="M31.9159 24.0961C31.9159 24.0961 31.9159 24.0961 31.9159 24.0961L31.9159 24.0961ZM31.9159 24.0961C31.6011 23.9904 31.2961 23.8445 30.9969 23.6767L31.9159 24.0961ZM30.9938 23.675L30.8654 23.603L30.8649 23.6039C30.5762 23.4472 30.3034 23.3175 30.0582 23.226L30.0581 23.226C29.7829 23.1233 29.5135 23.0573 29.2856 23.0772L29.2855 23.0772C29.1675 23.0875 29.0456 23.1221 28.9413 23.2011L28.9412 23.2011C28.8336 23.2826 28.7656 23.3957 28.733 23.5239L30.9938 23.675ZM30.9938 23.675C30.9948 23.6756 30.9959 23.6761 30.9969 23.6767L30.9938 23.675ZM40.9226 25.7896C40.3437 25.788 38.8469 25.5746 37.4002 25.3429C35.9597 25.1122 34.5893 24.8667 34.2761 24.8063L34.2761 24.8063C33.6975 24.6947 33.1312 24.5044 32.137 24.1704C32.0656 24.1464 31.992 24.1217 31.916 24.0962L40.9226 25.7896ZM30.731 24.1364C30.7334 24.1378 30.7357 24.1391 30.7381 24.1404L30.7382 24.1404L30.8696 24.2142L30.8703 24.2129C31.1059 24.3393 31.3512 24.4551 31.6068 24.5501L31.606 24.5524L31.747 24.5997C31.7472 24.5998 31.7475 24.5999 31.7477 24.6C31.748 24.6001 31.7484 24.6002 31.7487 24.6003C31.8289 24.6272 31.9067 24.6534 31.9823 24.6788C32.9587 25.007 33.5602 25.2092 34.176 25.3281L34.176 25.3281C34.5048 25.3915 35.8889 25.6385 37.3392 25.8701C38.6761 26.0835 40.0868 26.2868 40.7713 26.3171L40.7713 26.3207L40.9213 26.321L40.9215 26.321L41.0713 26.3214L41.0714 26.2747C41.1411 26.2269 41.1868 26.1466 41.187 26.056C41.1873 25.9655 41.1422 25.8849 41.0727 25.8366L41.0728 25.7901L40.9233 25.7896C40.9231 25.7896 40.923 25.7896 40.9228 25.7896L30.731 24.1364Z" fill="#7F8489" stroke="#7F8489" stroke-width="0.3"/>
<path d="M34.6025 24.013C34.6025 24.013 34.6025 24.013 34.6025 24.013L34.6025 24.013ZM34.6025 24.013C34.2877 23.9073 33.9827 23.7614 33.6835 23.5936L34.6025 24.013ZM33.6805 23.5919L33.552 23.5198L33.5515 23.5207C33.2628 23.3641 32.99 23.2344 32.7447 23.1429L32.7447 23.1429C32.4695 23.0401 32.2001 22.9742 31.9722 22.994L31.9721 22.994C31.8541 23.0044 31.7322 23.039 31.6279 23.1179L31.6278 23.118C31.5202 23.1995 31.4522 23.3126 31.4195 23.4408L33.6805 23.5919ZM33.6805 23.5919C33.6815 23.5925 33.6824 23.593 33.6834 23.5935C33.6834 23.5935 33.6834 23.5936 33.6835 23.5936L33.6805 23.5919ZM34.4344 24.5169C34.515 24.5439 34.5931 24.5702 34.6689 24.5957C35.6453 24.9239 36.2468 25.1261 36.8625 25.245L36.8626 25.245C37.1913 25.3084 38.5755 25.5554 40.0258 25.7869C41.3627 26.0004 42.7733 26.2037 43.4579 26.234L43.4579 26.2376L43.6079 26.2378L43.6081 26.2378L43.7579 26.2383L43.758 26.1916C43.8277 26.1438 43.8734 26.0635 43.8736 25.9729C43.8739 25.8824 43.8288 25.8017 43.7593 25.7535L43.7594 25.7069L43.6099 25.7065C43.6097 25.7065 43.6095 25.7065 43.6094 25.7065L34.4344 24.5169ZM34.4344 24.5169C34.4344 24.5169 34.4343 24.5169 34.4343 24.5168L34.4344 24.5169ZM43.6092 25.7065C43.0303 25.7049 41.5334 25.4915 40.0867 25.2598C38.6463 25.029 37.2759 24.7836 36.9627 24.7232L36.9627 24.7232C36.3841 24.6116 35.8178 24.4213 34.8236 24.0873C34.7521 24.0633 34.6785 24.0385 34.6026 24.013L43.6092 25.7065ZM33.4176 24.0533C33.42 24.0546 33.4223 24.056 33.4247 24.0573L33.4247 24.0573L33.5562 24.1311L33.5569 24.1298C33.7925 24.2562 34.0378 24.372 34.2934 24.467L34.2926 24.4693L34.4336 24.5166C34.4338 24.5167 34.4341 24.5168 34.4343 24.5168L33.4176 24.0533Z" fill="#7F8489" stroke="#7F8489" stroke-width="0.3"/>
<path d="M6.13705 0C9.42977 1.48544 11.6998 1.94706 15.8694 2.09697C16.3961 2.11591 16.9066 2.30829 17.2988 2.66242C21.5187 6.47335 22.8395 9.92186 22.2297 18.3094C22.2127 18.5434 22.0785 18.7641 21.8528 18.8236C21.4924 18.9185 20.9814 18.908 20.9814 18.084L20.8507 13.5811M20.8507 13.5811C21.0005 13.565 21.1256 13.4984 21.2355 13.3904C22.2385 12.0207 18.9071 8.83148 15.2127 4.18342M20.8507 13.5811C20.2037 13.6505 18.8685 12.686 16.7592 10.2279M16.7592 10.2279L16.8481 11.0811C17.5875 14.1885 17.6266 16.0302 17.1227 19.4676C17.1227 20.472 15.3351 20.1461 15.3754 19.4676C15.5892 15.8623 15.4241 14.0938 14.8012 11.2307C15.1953 14.1398 15.2522 15.8685 15.0758 19.116C14.7014 20.0702 12.9562 19.4949 12.979 18.6886C13.0664 15.5996 12.9225 13.9834 12.1552 11.4075C12.7657 13.366 12.8632 14.7579 12.5796 17.7853C11.9056 19.1663 10.4307 18.469 10.542 17.5438C10.9705 13.9822 10.9322 12.3544 9.52026 11.2307C8.50113 10.3534 7.24187 9.97009 4.49229 9.48517C4.15173 9.42511 3.82266 9.2961 3.55555 9.07526C2.77092 8.4265 2.43614 7.83054 2.23086 7.14895C2.06408 6.59517 1.57174 6.22264 1 6.15892M16.7592 10.2279C15.4717 9.82893 14.0443 9.38661 12.5796 8.93272" stroke="#7F8489"/>
</svg>
