<svg width="155" height="39" viewBox="0 0 155 39" fill="none" xmlns="http://www.w3.org/2000/svg">
<path d="M54.5907 29.4372C52.2741 25.6343 51.2435 23.1743 45.7784 23.2206C44.5837 23.2883 42.6448 22.1783 38.0805 19.1971C36.7491 19.0119 36.4461 20.353 37.5066 21.755C39.5268 23.5917 41.2217 24.5996 45.2936 26.3572C38.2042 26.6059 29.4294 27.0133 26.4812 24.8682C26.4258 24.8279 26.3689 24.7907 26.3072 24.7609C24.7979 24.031 24.4137 25.1863 25.895 26.3178C29.5245 29.0907 35.4268 29.4372 39.1844 31.4364C47.1526 33.8807 49.4946 35.2828 55.3362 38.096" stroke="#7F8489"/>
<path d="M37.6165 26.5764C35.0758 26.5696 31.9234 25.6197 29.1921 24.7118C27.6331 23.7517 26.4312 23.4704 26.9649 24.9038C27.2541 25.2837 27.414 25.4107 27.503 25.3996" stroke="#7F8489"/>
<path d="M31.9159 24.0961C31.9159 24.0961 31.9159 24.0961 31.9159 24.0961L31.9159 24.0961ZM31.9159 24.0961C31.6011 23.9904 31.2961 23.8445 30.9969 23.6767L31.9159 24.0961ZM30.9938 23.675L30.8654 23.603L30.8649 23.6039C30.5762 23.4472 30.3034 23.3175 30.0582 23.226L30.0581 23.226C29.7829 23.1233 29.5135 23.0573 29.2856 23.0772L29.2855 23.0772C29.1675 23.0875 29.0456 23.1221 28.9413 23.2011L28.9412 23.2011C28.8336 23.2826 28.7656 23.3957 28.733 23.5239L30.9938 23.675ZM30.9938 23.675C30.9948 23.6756 30.9959 23.6761 30.9969 23.6767L30.9938 23.675ZM40.9226 25.7896C40.3437 25.788 38.8469 25.5746 37.4002 25.3429C35.9597 25.1122 34.5893 24.8667 34.2761 24.8063L34.2761 24.8063C33.6975 24.6947 33.1312 24.5044 32.137 24.1704C32.0656 24.1464 31.992 24.1217 31.916 24.0962L40.9226 25.7896ZM30.731 24.1364C30.7334 24.1378 30.7357 24.1391 30.7381 24.1404L30.7382 24.1404L30.8696 24.2142L30.8703 24.2129C31.1059 24.3393 31.3512 24.4551 31.6068 24.5501L31.606 24.5524L31.747 24.5997C31.7472 24.5998 31.7475 24.5999 31.7477 24.6C31.748 24.6001 31.7484 24.6002 31.7487 24.6003C31.8289 24.6272 31.9067 24.6534 31.9823 24.6788C32.9587 25.007 33.5602 25.2092 34.176 25.3281L34.176 25.3281C34.5048 25.3915 35.8889 25.6385 37.3392 25.8701C38.6761 26.0835 40.0868 26.2868 40.7713 26.3171L40.7713 26.3207L40.9213 26.321L40.9215 26.321L41.0713 26.3214L41.0714 26.2747C41.1411 26.2269 41.1868 26.1466 41.187 26.056C41.1873 25.9655 41.1422 25.8849 41.0727 25.8366L41.0728 25.7901L40.9233 25.7896C40.9231 25.7896 40.923 25.7896 40.9228 25.7896L30.731 24.1364Z" fill="#7F8489" stroke="#7F8489" stroke-width="0.3"/>
<path d="M34.6025 24.013C34.6025 24.013 34.6025 24.013 34.6025 24.013L34.6025 24.013ZM34.6025 24.013C34.2877 23.9073 33.9827 23.7614 33.6835 23.5936L34.6025 24.013ZM33.6805 23.5919L33.552 23.5198L33.5515 23.5207C33.2628 23.3641 32.99 23.2344 32.7447 23.1429L32.7447 23.1429C32.4695 23.0401 32.2001 22.9742 31.9722 22.994L31.9721 22.994C31.8541 23.0044 31.7322 23.039 31.6279 23.1179L31.6278 23.118C31.5202 23.1995 31.4522 23.3126 31.4195 23.4408L33.6805 23.5919ZM33.6805 23.5919C33.6815 23.5925 33.6824 23.593 33.6834 23.5935C33.6834 23.5935 33.6834 23.5936 33.6835 23.5936L33.6805 23.5919ZM34.4344 24.5169C34.515 24.5439 34.5931 24.5702 34.6689 24.5957C35.6453 24.9239 36.2468 25.1261 36.8625 25.245L36.8626 25.245C37.1913 25.3084 38.5755 25.5554 40.0258 25.7869C41.3627 26.0004 42.7733 26.2037 43.4579 26.234L43.4579 26.2376L43.6079 26.2378L43.6081 26.2378L43.7579 26.2383L43.758 26.1916C43.8277 26.1438 43.8734 26.0635 43.8736 25.9729C43.8739 25.8824 43.8288 25.8017 43.7593 25.7535L43.7594 25.7069L43.6099 25.7065C43.6097 25.7065 43.6095 25.7065 43.6094 25.7065L34.4344 24.5169ZM34.4344 24.5169C34.4344 24.5169 34.4343 24.5169 34.4343 24.5168L34.4344 24.5169ZM43.6092 25.7065C43.0303 25.7049 41.5334 25.4915 40.0867 25.2598C38.6463 25.029 37.2759 24.7836 36.9627 24.7232L36.9627 24.7232C36.3841 24.6116 35.8178 24.4213 34.8236 24.0873C34.7521 24.0633 34.6785 24.0385 34.6026 24.013L43.6092 25.7065ZM33.4176 24.0533C33.42 24.0546 33.4223 24.056 33.4247 24.0573L33.4247 24.0573L33.5562 24.1311L33.5569 24.1298C33.7925 24.2562 34.0378 24.372 34.2934 24.467L34.2926 24.4693L34.4336 24.5166C34.4338 24.5167 34.4341 24.5168 34.4343 24.5168L33.4176 24.0533Z" fill="#7F8489" stroke="#7F8489" stroke-width="0.3"/>
<path d="M6.13705 0C9.42977 1.48544 11.6998 1.94706 15.8694 2.09697C16.3961 2.11591 16.9066 2.30829 17.2988 2.66242C21.5187 6.47335 22.8395 9.92186 22.2297 18.3094C22.2127 18.5434 22.0785 18.7641 21.8528 18.8236C21.4924 18.9185 20.9814 18.908 20.9814 18.084L20.8507 13.5811M20.8507 13.5811C21.0005 13.565 21.1256 13.4984 21.2355 13.3904C22.2385 12.0207 18.9071 8.83148 15.2127 4.18342M20.8507 13.5811C20.2037 13.6505 18.8685 12.686 16.7592 10.2279M16.7592 10.2279L16.8481 11.0811C17.5875 14.1885 17.6266 16.0302 17.1227 19.4676C17.1227 20.472 15.3351 20.1461 15.3754 19.4676C15.5892 15.8623 15.4241 14.0938 14.8012 11.2307C15.1953 14.1398 15.2522 15.8685 15.0758 19.116C14.7014 20.0702 12.9562 19.4949 12.979 18.6886C13.0664 15.5996 12.9225 13.9834 12.1552 11.4075C12.7657 13.366 12.8632 14.7579 12.5796 17.7853C11.9056 19.1663 10.4307 18.469 10.542 17.5438C10.9705 13.9822 10.9322 12.3544 9.52026 11.2307C8.50113 10.3534 7.24187 9.97009 4.49229 9.48517C4.15173 9.42511 3.82266 9.2961 3.55555 9.07526C2.77092 8.4265 2.43614 7.83054 2.23086 7.14895C2.06408 6.59517 1.57174 6.22264 1 6.15892M16.7592 10.2279C15.4717 9.82893 14.0443 9.38661 12.5796 8.93272" stroke="#7F8489"/>
<path d="M38.487 12.6665L21.3955 2.74048L18.3302 8.1036C23.3764 13.2392 21.6432 16.0632 16.9265 10.5266L15.1854 13.5601L32.2769 23.4861L38.487 12.6665Z" fill="#FAD362"/>
<path d="M32.2781 23.4861L15.1857 13.5595L18.414 12.686C19.2675 12.1162 19.559 13.9545 21.1413 14.0496C22.1817 13.7707 20.6868 12.2314 21.7537 12.0429L28.5 10L32.2781 23.4861Z" fill="#F4C158"/>
<path d="M15.6415 13.8242L31.8224 23.2214L28.2042 10.731C28.2042 10.731 23.5097 11.9069 21.3412 12.4305C21.5122 13.5296 20.5364 13.9445 19.6808 13.12C19.4295 12.8777 18.8686 12.686 18.8686 12.686L15.6415 13.8242Z" fill="#FAD362"/>
<path d="M27.8908 15.1965L38.4878 12.667L21.3954 2.74048L24.5161 13.2367L27.8908 15.1965Z" fill="#DA8542"/>
<path d="M28.1539 14.7381L38.4878 12.667L21.3954 2.74048L24.7793 12.7782L28.1539 14.7381Z" fill="#F4C158"/>
<path d="M70.0253 17.5502H72.4651V22.2596C71.8387 22.735 71.1133 23.0998 70.289 23.354C69.4649 23.6083 68.6351 23.7355 67.7998 23.7355C66.6019 23.7355 65.5249 23.4812 64.5688 22.9727C63.6126 22.4531 62.8598 21.7401 62.3103 20.8335C61.7718 19.9159 61.5025 18.8824 61.5025 17.7327C61.5025 16.5829 61.7718 15.5549 62.3103 14.6483C62.8598 13.7307 63.6181 13.0177 64.5853 12.5092C65.5523 11.9896 66.6404 11.7298 67.8493 11.7298C68.8603 11.7298 69.778 11.9012 70.6023 12.2439C71.4266 12.5866 72.1189 13.084 72.6794 13.7363L70.9649 15.3282C70.1407 14.4548 69.1461 14.0182 67.9812 14.0182C67.2449 14.0182 66.5909 14.173 66.0195 14.4825C65.4479 14.7921 65.0028 15.2287 64.6842 15.7925C64.3654 16.3563 64.2061 17.0031 64.2061 17.7327C64.2061 18.4513 64.3654 19.0924 64.6842 19.6562C65.0028 20.22 65.4424 20.6622 66.003 20.9828C66.5745 21.2923 67.2229 21.4471 67.9482 21.4471C68.7175 21.4471 69.4099 21.2812 70.0253 20.9496V17.5502ZM74.7645 11.2324H77.3362V23.5364H74.7645V11.2324ZM83.9431 23.6691C83.009 23.6691 82.1682 23.4756 81.4209 23.0888C80.6845 22.6907 80.1076 22.1435 79.69 21.4471C79.2723 20.7506 79.0635 19.9602 79.0635 19.0758C79.0635 18.1914 79.2723 17.401 79.69 16.7045C80.1076 16.0081 80.6845 15.4664 81.4209 15.0794C82.1682 14.6815 83.009 14.4825 83.9431 14.4825C84.8772 14.4825 85.7125 14.6815 86.4488 15.0794C87.1852 15.4664 87.7621 16.0081 88.1797 16.7045C88.5974 17.401 88.8063 18.1914 88.8063 19.0758C88.8063 19.9602 88.5974 20.7506 88.1797 21.4471C87.7621 22.1435 87.1852 22.6907 86.4488 23.0888C85.7125 23.4756 84.8772 23.6691 83.9431 23.6691ZM83.9431 21.5466C84.6025 21.5466 85.141 21.3254 85.5586 20.8833C85.9873 20.4301 86.2015 19.8276 86.2015 19.0758C86.2015 18.3241 85.9873 17.7272 85.5586 17.2849C85.141 16.8317 84.6025 16.605 83.9431 16.605C83.2837 16.605 82.7397 16.8317 82.3111 17.2849C81.8825 17.7272 81.6682 18.3241 81.6682 19.0758C81.6682 19.8276 81.8825 20.4301 82.3111 20.8833C82.7397 21.3254 83.2837 21.5466 83.9431 21.5466ZM95.7673 14.4825C96.5917 14.4825 97.3393 14.676 98.0092 15.0628C98.6905 15.4388 99.224 15.9749 99.6087 16.6714C99.9934 17.3568 100.186 18.1583 100.186 19.0758C100.186 19.9933 99.9934 20.8004 99.6087 21.4968C99.224 22.1822 98.6905 22.7184 98.0092 23.1053C97.3393 23.4812 96.5917 23.6691 95.7673 23.6691C94.5478 23.6691 93.6189 23.2822 92.9815 22.5084V23.5364H90.5252V11.2324H93.0969V15.5604C93.7453 14.8418 94.635 14.4825 95.7673 14.4825ZM95.322 21.5466C95.9815 21.5466 96.5206 21.3254 96.9376 20.8833C97.3668 20.4301 97.581 19.8276 97.581 19.0758C97.581 18.3241 97.3668 17.7272 96.9376 17.2849C96.5206 16.8317 95.9815 16.605 95.322 16.605C94.6625 16.605 94.1189 16.8317 93.6903 17.2849C93.2727 17.7272 93.0639 18.3241 93.0639 19.0758C93.0639 19.8276 93.2727 20.4301 93.6903 20.8833C94.1189 21.3254 94.6625 21.5466 95.322 21.5466ZM105.339 14.4825C106.713 14.4825 107.768 14.8142 108.504 15.4775C109.241 16.1297 109.609 17.119 109.609 18.4457V23.5364H107.202V22.4255C106.718 23.2546 105.817 23.6691 104.499 23.6691C103.817 23.6691 103.224 23.553 102.719 23.3208C102.224 23.0888 101.845 22.7681 101.581 22.3591C101.317 21.95 101.185 21.4858 101.185 20.9662C101.185 20.1371 101.492 19.4848 102.108 19.0095C102.735 18.5341 103.696 18.2965 104.993 18.2965H107.037C107.037 17.7327 106.867 17.3015 106.526 17.0031C106.186 16.6935 105.675 16.5387 104.993 16.5387C104.521 16.5387 104.054 16.6161 103.592 16.7709C103.141 16.9146 102.756 17.1135 102.438 17.3678L101.515 15.5604C101.998 15.2176 102.575 14.9524 103.245 14.7644C103.927 14.5765 104.625 14.4825 105.339 14.4825ZM105.141 21.9279C105.581 21.9279 105.972 21.8285 106.312 21.6295C106.653 21.4194 106.894 21.1155 107.037 20.7174V19.8055H105.273C104.219 19.8055 103.691 20.1537 103.691 20.8501C103.691 21.1818 103.817 21.4471 104.07 21.6461C104.334 21.834 104.691 21.9279 105.141 21.9279ZM111.936 11.2324H114.508V23.5364H111.936V11.2324ZM122.071 11.9288C123.094 11.9288 123.978 12.1002 124.725 12.4428C125.483 12.7856 126.066 13.272 126.473 13.9021C126.879 14.5322 127.083 15.2784 127.083 16.1407C127.083 16.992 126.879 17.7382 126.473 18.3794C126.066 19.0095 125.483 19.4959 124.725 19.8386C123.978 20.1702 123.094 20.3361 122.071 20.3361H119.747V23.5364H117.076V11.9288H122.071ZM121.923 18.1472C122.725 18.1472 123.335 17.9758 123.752 17.6332C124.17 17.2794 124.38 16.7819 124.38 16.1407C124.38 15.4885 124.17 14.9911 123.752 14.6483C123.335 14.2946 122.725 14.1177 121.923 14.1177H119.747V18.1472H121.923ZM133.012 23.6691C132.077 23.6691 131.237 23.4756 130.489 23.0888C129.753 22.6907 129.176 22.1435 128.759 21.4471C128.341 20.7506 128.133 19.9602 128.133 19.0758C128.133 18.1914 128.341 17.401 128.759 16.7045C129.176 16.0081 129.753 15.4664 130.489 15.0794C131.237 14.6815 132.077 14.4825 133.012 14.4825C133.946 14.4825 134.782 14.6815 135.518 15.0794C136.254 15.4664 136.831 16.0081 137.248 16.7045C137.666 17.401 137.876 18.1914 137.876 19.0758C137.876 19.9602 137.666 20.7506 137.248 21.4471C136.831 22.1435 136.254 22.6907 135.518 23.0888C134.782 23.4756 133.946 23.6691 133.012 23.6691ZM133.012 21.5466C133.671 21.5466 134.21 21.3254 134.627 20.8833C135.057 20.4301 135.271 19.8276 135.271 19.0758C135.271 18.3241 135.057 17.7272 134.627 17.2849C134.21 16.8317 133.671 16.605 133.012 16.605C132.352 16.605 131.808 16.8317 131.38 17.2849C130.952 17.7272 130.737 18.3241 130.737 19.0758C130.737 19.8276 130.952 20.4301 131.38 20.8833C131.808 21.3254 132.352 21.5466 133.012 21.5466ZM142.578 23.6691C141.842 23.6691 141.122 23.5807 140.419 23.4038C139.715 23.2159 139.155 22.9837 138.737 22.7073L139.594 20.8501C139.99 21.1044 140.468 21.3144 141.028 21.4802C141.589 21.635 142.139 21.7124 142.677 21.7124C143.765 21.7124 144.308 21.4415 144.308 20.8999C144.308 20.6456 144.161 20.4632 143.864 20.3527C143.567 20.2421 143.111 20.1481 142.496 20.0707C141.77 19.9602 141.171 19.8331 140.698 19.6894C140.226 19.5456 139.814 19.2914 139.462 18.9266C139.122 18.5617 138.951 18.0422 138.951 17.3678C138.951 16.804 139.11 16.3066 139.429 15.8754C139.759 15.4332 140.231 15.0905 140.847 14.8473C141.473 14.6041 142.21 14.4825 143.056 14.4825C143.682 14.4825 144.304 14.5543 144.919 14.6981C145.545 14.8308 146.061 15.0187 146.468 15.2619L145.611 17.1025C144.831 16.6603 143.979 16.4392 143.056 16.4392C142.506 16.4392 142.094 16.5166 141.819 16.6714C141.544 16.8261 141.407 17.0252 141.407 17.2683C141.407 17.5447 141.556 17.7382 141.852 17.8487C142.149 17.9592 142.622 18.0643 143.27 18.1638C143.996 18.2854 144.589 18.4181 145.05 18.5617C145.512 18.6944 145.914 18.9432 146.254 19.3079C146.595 19.6728 146.765 20.1813 146.765 20.8335C146.765 21.3863 146.601 21.8783 146.271 22.3094C145.941 22.7405 145.457 23.0777 144.82 23.3208C144.194 23.553 143.446 23.6691 142.578 23.6691ZM154.072 23.1053C153.819 23.2932 153.506 23.4369 153.132 23.5364C152.77 23.6249 152.385 23.6691 151.979 23.6691C150.923 23.6691 150.105 23.3982 149.522 22.8566C148.95 22.3149 148.665 21.5189 148.665 20.4688V16.804H147.297V14.8142H148.665V12.6419H151.237V14.8142H153.446V16.804H151.237V20.4356C151.237 20.8114 151.33 21.1044 151.516 21.3144C151.714 21.5134 151.989 21.6129 152.341 21.6129C152.748 21.6129 153.094 21.5023 153.379 21.2812L154.072 23.1053Z" fill="#7F8489"/>
</svg>
