<svg width="401" height="138" fill="none" xmlns="http://www.w3.org/2000/svg"><path fill-rule="evenodd" clip-rule="evenodd" d="M364.059 67.895c-.63 2-1.365 3.967-2.201 5.89a225.006 225.006 0 01-2.873 6.37 501.187 501.187 0 00-4.02 9.003 43.169 43.169 0 00-2.585 7.375v-.096a13.862 13.862 0 00-.383 3.353 8.337 8.337 0 001.867 5.507c1.244 1.499 3.111 2.281 5.6 2.347a17.829 17.829 0 003.495-.336 16.433 16.433 0 003.065-.91 22.405 22.405 0 002.489-1.197 47.51 47.51 0 001.867-1.102 38.605 38.605 0 004.212-3.352 86.709 86.709 0 01-3.495 6.322 279.06 279.06 0 01-3.781 6.034 52.099 52.099 0 00-3.926-1.149 37.785 37.785 0 00-3.973-.767 57.504 57.504 0 00-4.451-.43 90.838 90.838 0 00-5.361-.143 38.642 38.642 0 00-9.908 1.249 30.659 30.659 0 00-8.329 3.462 19.108 19.108 0 00-5.744 5.286 11.332 11.332 0 00-2.154 6.632 7.175 7.175 0 001.58 4.711 11.286 11.286 0 004.116 3.076 24.401 24.401 0 005.696 1.73c2.116.385 4.262.579 6.413.579a49.5 49.5 0 009.911-.914 36.525 36.525 0 008.232-2.689 35.559 35.559 0 006.991-4.323 42.77 42.77 0 005.983-5.815 94.563 94.563 0 013.111 1.635 50.76 50.76 0 013.207 1.922l3.926 2.21c.573.256 1.547.24 2.92-.048a20.078 20.078 0 003.925-1.249 8.639 8.639 0 002.824-1.829c.638-.673.478-1.266-.478-1.777a5.629 5.629 0 01-.719-.431 5.383 5.383 0 00-.717-.434h.095a246.629 246.629 0 00-6.461-3.506 119.814 119.814 0 00-6.654-3.22 96.543 96.543 0 004.212-6.867c1.341-2.4 2.713-4.941 4.117-7.625l14.168-27.393a3.036 3.036 0 00-.478-2.97 9.954 9.954 0 00-2.825-2.681 13.977 13.977 0 00-3.781-1.724c-1.34-.383-2.393-.415-3.159-.096-2.235 6.067-4.565 11.654-6.991 16.761-.255.323-.511.623-.766.91a6.108 6.108 0 00-.67.91h.096a124.113 124.113 0 01-3.495 4.502 50.82 50.82 0 01-3.926 4.31 32.662 32.662 0 01-4.451 3.64 15.738 15.738 0 01-5.074 2.298h-1.053c-.383 0-.574-.383-.574-1.149.079-1.371.403-2.718.957-3.975a69.32 69.32 0 012.345-5.27 141.974 141.974 0 012.968-5.7 235.77 235.77 0 012.92-5.172c1.211-2.043 2.073-3.608 2.585-4.693a3.097 3.097 0 00-.431-2.97 9.756 9.756 0 00-2.68-2.681 12.856 12.856 0 00-3.59-1.724 5.222 5.222 0 00-3.065-.192l-.671.575zm-27.855 64.798a13.127 13.127 0 01-3.495-.91 7.497 7.497 0 01-2.635-1.82 4.095 4.095 0 01-1.053-2.874 5.247 5.247 0 011.867-4.262 15.485 15.485 0 015.074-2.921 35.293 35.293 0 016.796-1.724 45.686 45.686 0 017.036-.575 46.664 46.664 0 017.037.479c2.023.308 4.022.756 5.983 1.341a48.584 48.584 0 01-10.578 9.722 21.97 21.97 0 01-12.397 3.781 29.513 29.513 0 01-3.638-.238l.003.001zm-58.685-59.052a507.02 507.02 0 01-2.776 6.035c-.703 1.47-1.389 2.906-2.058 4.31a113.008 113.008 0 00-1.867 4.118 166.055 166.055 0 01-3.065 5.651 284.847 284.847 0 01-3.351 5.747 522.243 522.243 0 00-3.925 6.848 104.892 104.892 0 00-3.495 6.753 47.12 47.12 0 00-2.585 6.752 29.78 29.78 0 00-1.197 6.753c.064.51.575 1.069 1.532 1.676.962.609 1.99 1.107 3.065 1.484.973.357 1.986.599 3.015.719.926.096 1.421-.112 1.484-.623.335-2.233.88-4.429 1.627-6.56a60.798 60.798 0 012.729-6.561 102.32 102.32 0 013.398-6.417 170.195 170.195 0 013.638-6.035v.097l1.627-2.491a8.722 8.722 0 003.734 3.975c1.786 1.054 4.467 1.549 8.042 1.485a27.377 27.377 0 0010.099-2.107 35.135 35.135 0 008.856-5.317 40.44 40.44 0 0011.776-16.138 16.19 16.19 0 001.244-6.13 12.709 12.709 0 00-.478-3.496 8.079 8.079 0 00-1.675-3.065 9.782 9.782 0 00-3.16-2.346 14.272 14.272 0 00-4.834-1.245 18.382 18.382 0 00-4.547.191c-1.61.268-3.195.668-4.739 1.198a38.251 38.251 0 00-4.786 2.01 50.319 50.319 0 00-4.499 2.539 5.33 5.33 0 00-1.532-2.49 11.618 11.618 0 00-2.92-2.107 14.327 14.327 0 00-3.351-1.246 4.553 4.553 0 00-2.632 0 69.196 69.196 0 01-2.394 6.035v-.002zm3.159 19.061c.829-1.724 1.755-3.56 2.777-5.507a158.533 158.533 0 012.967-5.412 33.465 33.465 0 014.404-3.353 32.774 32.774 0 014.882-2.586 33.998 33.998 0 014.978-1.676 16.07 16.07 0 014.595-.527c2.106.065 3.159 1.023 3.159 2.874a10.751 10.751 0 01-1.148 4.406 30.513 30.513 0 01-3.066 5.124 49.041 49.041 0 01-4.355 5.172 41.269 41.269 0 01-5.074 4.502 26.776 26.776 0 01-5.265 3.113 10.968 10.968 0 01-4.835 1.053c-1.723-.127-2.904-.67-3.542-1.628a5.578 5.578 0 01-.957-3.16 8.374 8.374 0 01.287-2.206c0-.063.015-.095.048-.095s.048-.032.048-.096l.097.002z" fill="#fff"/><path fill-rule="evenodd" clip-rule="evenodd" d="M319.621 73.641a477.13 477.13 0 01-2.776 6.035c-.703 1.47-1.389 2.906-2.058 4.31a114.741 114.741 0 00-1.867 4.118 164.314 164.314 0 01-3.065 5.651 284.78 284.78 0 01-3.35 5.747 534.049 534.049 0 00-3.926 6.848 105.915 105.915 0 00-3.495 6.753 47.239 47.239 0 00-2.585 6.752 29.778 29.778 0 00-1.196 6.753c.064.51.574 1.069 1.531 1.676a15.078 15.078 0 003.065 1.484c.974.357 1.986.599 3.016.719.926.096 1.42-.112 1.484-.623a35.873 35.873 0 011.627-6.56 60.994 60.994 0 012.728-6.561 102.334 102.334 0 013.399-6.417 168.71 168.71 0 013.638-6.035v.097l1.627-2.491a8.72 8.72 0 003.733 3.975c1.787 1.054 4.467 1.549 8.042 1.485a27.382 27.382 0 0010.1-2.107 35.147 35.147 0 008.855-5.317 40.433 40.433 0 0011.777-16.138 16.21 16.21 0 001.244-6.13 12.672 12.672 0 00-.479-3.496 8.065 8.065 0 00-1.675-3.065 9.778 9.778 0 00-3.159-2.346 14.278 14.278 0 00-4.834-1.245 18.39 18.39 0 00-4.548.191 29.51 29.51 0 00-4.738 1.198 38.251 38.251 0 00-4.786 2.01 50.336 50.336 0 00-4.5 2.539 5.323 5.323 0 00-1.532-2.49 11.618 11.618 0 00-2.92-2.107 14.32 14.32 0 00-3.35-1.246 4.553 4.553 0 00-2.632 0 69.522 69.522 0 01-2.395 6.035v-.002zm3.16 19.061a175.97 175.97 0 012.776-5.507 158.533 158.533 0 012.967-5.412 33.409 33.409 0 014.405-3.353 32.676 32.676 0 014.882-2.586 33.958 33.958 0 014.978-1.676 16.07 16.07 0 014.595-.527c2.106.065 3.159 1.023 3.159 2.874a10.752 10.752 0 01-1.149 4.406 30.44 30.44 0 01-3.065 5.124 49.05 49.05 0 01-4.356 5.172 41.186 41.186 0 01-5.073 4.502 26.784 26.784 0 01-5.266 3.113 10.961 10.961 0 01-4.834 1.053c-1.723-.127-2.904-.67-3.542-1.628a5.57 5.57 0 01-.957-3.16 8.332 8.332 0 01.287-2.206c0-.063.015-.095.048-.095.032 0 .048-.032.048-.096l.097.002zm-59.095-17.624a11.39 11.39 0 00-.957-3.352 7.731 7.731 0 00-2.106-2.682 8.322 8.322 0 00-3.59-1.628c-.77-.192-1.555-.32-2.345-.383a33.39 33.39 0 00-2.537-.096 25.104 25.104 0 00-7.994 1.293 35.192 35.192 0 00-7.371 3.448 40.902 40.902 0 00-6.51 4.98 47.3 47.3 0 00-5.313 5.843 36.725 36.725 0 00-3.781 6.034 19.416 19.416 0 00-1.868 5.508c-.066.348-.114.7-.143 1.053-.031.383-.047.83-.048 1.341.014 1.172.208 2.335.574 3.448a9.771 9.771 0 001.915 3.4 10.672 10.672 0 003.689 2.685c1.833.8 3.794 1.27 5.791 1.388a17.611 17.611 0 008.329-2.49 48.534 48.534 0 007.851-5.555v.479a7.63 7.63 0 002.105 5.411c1.403 1.5 3.669 2.346 6.797 2.539a12.29 12.29 0 003.447-.288 19.64 19.64 0 003.015-.958 22.584 22.584 0 002.489-1.197 48.792 48.792 0 001.867-1.102 40.445 40.445 0 007.994-7.087 158.035 158.035 0 006.749-8.237l2.202-2.778a.988.988 0 00-.049-1.197 4.01 4.01 0 00-1.196-1.101 4.431 4.431 0 00-1.579-.623 1.066 1.066 0 00-1.101.24l-1.819 2.394a219.616 219.616 0 01-3.496 4.597 48.73 48.73 0 01-3.972 4.502 29.774 29.774 0 01-4.548 3.736 16.286 16.286 0 01-5.122 2.298h-1.148a1.316 1.316 0 01-.287-.958c0-1.276.494-2.969 1.483-5.076a172.773 172.773 0 012.92-5.938l1.149-2.3a3.035 3.035 0 00-.479-2.968 11.118 11.118 0 00-2.728-2.73 12.167 12.167 0 00-3.59-1.772 5.22 5.22 0 00-3.065-.192l-.67.767a16.177 16.177 0 01-.91 3.495 57.669 57.669 0 01-1.675 4.07 40.972 40.972 0 01-3.207 3.64 66.098 66.098 0 01-4.068 3.832 51.33 51.33 0 01-4.165 3.256 11.846 11.846 0 01-3.495 1.82c-2.235.383-3.734.16-4.499-.67a4.346 4.346 0 01-1.149-3.066 9.33 9.33 0 01.287-2.155c.192-.798.384-1.516.575-2.155a34.079 34.079 0 013.065-6.13 36.772 36.772 0 014.978-6.418 29.924 29.924 0 016.27-4.98 13.123 13.123 0 017.132-1.916 4.872 4.872 0 012.442.527 4.358 4.358 0 011.435 1.29c.341.487.57 1.043.671 1.629.096.573.175 1.116.239 1.628.001.196.033.39.096.575.056.154.088.315.096.479a1.043 1.043 0 00.813.91 4.451 4.451 0 001.721.335 5.145 5.145 0 001.721-.287.975.975 0 00.813-.86 19.151 19.151 0 00-.14-3.543v-.002z" fill="#fff"/><path fill-rule="evenodd" clip-rule="evenodd" d="M227.836 46.49a246.172 246.172 0 00-7.563 11.254 305.07 305.07 0 00-7.562 12.596 245.216 245.216 0 00-6.893 12.977 185.432 185.432 0 00-5.888-2.538 207.862 207.862 0 00-5.983-2.346 146.276 146.276 0 006.892-8.766c2.107-2.907 3.957-5.716 5.553-8.428a57.202 57.202 0 003.829-7.663 24.146 24.146 0 001.721-6.465 10.406 10.406 0 00-1.388-5.22 13.067 13.067 0 00-3.781-4.166 19.4 19.4 0 00-5.646-2.73 21.674 21.674 0 00-6.991-.91 39.319 39.319 0 00-13.02 2.443 60.75 60.75 0 00-12.062 5.986 58.386 58.386 0 00-10.148 8.237 52.837 52.837 0 00-7.371 9.29c-.573.958-1.036 1.74-1.388 2.347a14.35 14.35 0 00-.86 1.724 24.404 24.404 0 00-.622 1.676 24.107 24.107 0 00-.575 2.108l-.287 1.245c0 .447.527.638 1.58.574a20.1 20.1 0 003.542-.575 24.91 24.91 0 003.685-1.197c1.149-.479 1.819-.942 2.011-1.388l.096-.096a44.526 44.526 0 0113.115-18.486 40.184 40.184 0 0110.342-6.224 31.787 31.787 0 0112.35-2.394c2.488-.063 4.435.432 5.839 1.484 1.404 1.053 2.139 2.601 2.205 4.646a19.063 19.063 0 01-1.819 5.315 69.606 69.606 0 01-4.021 7.136c-1.66 2.619-3.59 5.413-5.792 8.38a127.37 127.37 0 01-7.323 8.956 96.137 96.137 0 00-10.387-1.82 99.106 99.106 0 00-11.919-.67h-2.824c-.99 0-1.964.032-2.92.096a78.938 78.938 0 00-16.8 2.586 61.8 61.8 0 00-14.887 5.986 36.432 36.432 0 00-10.626 8.86 17.635 17.635 0 00-4.021 11.206c0 5.427 1.995 9.306 5.983 11.637 3.989 2.331 10.004 3.496 18.046 3.495a39.13 39.13 0 0013.546-2.635 81.395 81.395 0 0014.312-7.039 119.931 119.931 0 0014.12-10.201c4.549-3.79 8.88-7.836 12.972-12.116 2.425.703 4.85 1.454 7.276 2.25 2.425.797 4.882 1.644 7.371 2.54-1.915 4.342-3.494 8.365-4.739 12.067a39.834 39.834 0 00-2.154 9.578c0 .383.383.99 1.149 1.82a26.102 26.102 0 002.537 2.395c.805.682 1.67 1.291 2.585 1.819.797.446 1.228.479 1.29.096a58.883 58.883 0 012.92-10.68 124.657 124.657 0 015.888-13.55l2.584.957 7.372 2.873a8.12 8.12 0 002.204-.86 9.618 9.618 0 002.058-1.436 3.328 3.328 0 001.006-1.485c.127-.479-.192-.814-.958-1.006a97.982 97.982 0 01-5.983-2.204 345.828 345.828 0 01-5.505-2.3 222.532 222.532 0 016.462-11.445 213.095 213.095 0 017.276-11.254c2.52-3.64 5.137-7.104 7.851-10.392a112.372 112.372 0 018.089-8.86c.446-1.02.254-2.09-.574-3.208a12.857 12.857 0 00-3.159-2.97 14.337 14.337 0 00-3.782-1.867c-1.244-.384-2.058-.384-2.441 0-2.175 2.49-4.507 5.476-6.995 8.955zm-103.869 62.735a15.011 15.011 0 01-4.117-1.441 11.21 11.21 0 01-3.254-2.548 6.912 6.912 0 01-1.628-3.749c0-2.242 1.181-4.484 3.542-6.727a36.64 36.64 0 019.287-6.15 70.506 70.506 0 0112.875-4.66 76.09 76.09 0 0114.216-2.356c1.085-.063 2.138-.111 3.16-.144a94.873 94.873 0 013.159-.048c2.871 0 5.6.096 8.185.289 2.585.192 5.09.448 7.515.768A159.293 159.293 0 01165.56 92.79a98.715 98.715 0 01-12.254 8.698 68.197 68.197 0 01-12.636 5.957 37.952 37.952 0 01-12.493 2.211 21.965 21.965 0 01-4.21-.432z" fill="#fff"/><path fill-rule="evenodd" clip-rule="evenodd" d="M116.5 79.007c1.532-1.915 2.298-3.767 2.298-5.555a5.45 5.45 0 00-2.202-4.501c-1.469-1.15-3.416-1.757-5.839-1.82a24.245 24.245 0 00-7.324.958 39.368 39.368 0 00-6.99 2.73 46.381 46.381 0 00-5.983 3.59 29.706 29.706 0 00-4.309 3.64c-3.255 3.449-5.616 6.657-7.084 9.626a18.459 18.459 0 00-2.01 9.052 10.426 10.426 0 004.212 8.141c2.617 1.978 6.287 2.968 11.01 2.969.765 0 1.802-.048 3.11-.143a36.124 36.124 0 004.356-.623 31.434 31.434 0 005.122-1.533 29.347 29.347 0 005.505-2.873 51.83 51.83 0 007.945-7.28 177.636 177.636 0 005.84-6.99l1.819-2.394a1.755 1.755 0 00.239-1.676 2.613 2.613 0 00-1.053-1.15 2.808 2.808 0 00-1.628-.382 2.35 2.35 0 00-1.579.717c-.639.897-1.389 1.918-2.25 3.066a120.37 120.37 0 01-3.015 3.83 38.758 38.758 0 01-5.888 5.652 37.414 37.414 0 01-5.887 3.735 22.123 22.123 0 01-5.457 1.963 13.019 13.019 0 01-4.5.24 5.548 5.548 0 01-3.685-2.538 8.45 8.45 0 01-1.29-4.07 52.19 52.19 0 0015.317-6.035 35.15 35.15 0 0011.2-10.44v.096-.002zm-3.541-4.789a4.963 4.963 0 01-.767 2.395v-.096a31.021 31.021 0 01-9.046 8.956 44.365 44.365 0 01-12.302 5.507 30.756 30.756 0 012.872-5.318 36.548 36.548 0 014.5-5.555 32.414 32.414 0 015.743-4.645 17.652 17.652 0 016.797-2.586c1.467-.192 2.201.255 2.202 1.34l.001.002z" fill="#fff"/><path fill-rule="evenodd" clip-rule="evenodd" d="M65.476 95.865a27.61 27.61 0 01-8.711 7.806 46.088 46.088 0 01-12.541 4.933 60.95 60.95 0 01-14.456 1.724 31.254 31.254 0 01-6.845-.719 25.477 25.477 0 01-5.646-1.915 12.323 12.323 0 01-3.877-2.826 5.148 5.148 0 01-1.436-3.448c0-1.149.559-2.379 1.675-3.687 1.117-1.31 2.92-2.634 5.409-3.975-.128-.384-.845-.767-2.151-1.15a43.704 43.704 0 00-4.26-1.006 66.217 66.217 0 00-4.308-.67 10.86 10.86 0 00-2.393-.144l.095-.096a17.672 17.672 0 00-4.643 4.885A9.338 9.338 0 000 100.271a8.861 8.861 0 002.441 5.938A20.673 20.673 0 009 110.998a43.145 43.145 0 009.382 3.208 53.597 53.597 0 0011.009 1.291 84.55 84.55 0 0020.295-2.155 61.004 61.004 0 0016.513-6.322c4.691-2.713 8.377-5.954 11.058-9.721a20.716 20.716 0 004.02-12.26 10.442 10.442 0 00-1.29-4.024 18.547 18.547 0 00-2.825-3.83 26.202 26.202 0 00-3.972-3.4 32.766 32.766 0 00-4.643-2.73 53.113 53.113 0 007.467-2.874 35.644 35.644 0 006.653-4.07 26.184 26.184 0 005.216-5.412 19.95 19.95 0 003.16-6.991c.122-.49.218-.985.287-1.485a11.712 11.712 0 00-1.244-6.944 13.816 13.816 0 00-3.974-4.597 20.725 20.725 0 00-6.51-3.209 30.047 30.047 0 00-8.854-1.197h-.1a66.29 66.29 0 00-21.54 4.214 77.463 77.463 0 00-18.236 9.818 75.177 75.177 0 00-14.217 13.457 66.835 66.835 0 00-9.382 15.133 6.191 6.191 0 00-.574 2.394 5.861 5.861 0 001.628 3.88 14.821 14.821 0 003.541 3.017 9.828 9.828 0 003.447 1.388c1.02.16 1.5-.175 1.436-1.005-.191-1.596.16-3.543 1.053-5.843a44.594 44.594 0 013.83-7.42 70.254 70.254 0 016.077-8.188 104.857 104.857 0 017.851-8.237 83.143 83.143 0 019.142-7.471 73.157 73.157 0 019.956-5.938c-2.617 3.895-5.345 8.19-8.185 12.882a301.167 301.167 0 00-8.137 14.32 236.563 236.563 0 00-7.036 14.318 103.171 103.171 0 00-4.883 12.883c-.129.512.143 1.214.814 2.107a19.323 19.323 0 002.345 2.586 12.748 12.748 0 002.585 1.916c.829.447 1.371.447 1.627 0a237.934 237.934 0 016.319-13.027 316.955 316.955 0 017.61-13.744 327.746 327.746 0 018.617-13.888 267.607 267.607 0 019.333-13.361 2.896 2.896 0 00-.191-2.49 9.4 9.4 0 00-1.915-2.54 14.562 14.562 0 00-2.824-2.106 14.253 14.253 0 00-2.824-1.29 42.444 42.444 0 016.558-2.107 33.333 33.333 0 016.558-.86c1.487-.093 2.98.085 4.403.526a7.387 7.387 0 012.872 1.676 6.3 6.3 0 011.532 2.49c.318.958.48 1.96.478 2.97a15.132 15.132 0 01-.957 5.076A19.131 19.131 0 0174.62 58.9a37.032 37.032 0 01-6.892 5.22 48.134 48.134 0 01-7.228 3.495 34.345 34.345 0 01-5.646 1.724c-.63.217-1.18.618-1.58 1.15a1.379 1.379 0 00-.191 1.29c.201.468.533.867.957 1.15.55.372 1.204.557 1.867.526h.575c.47.13.965.13 1.435 0a7.447 7.447 0 013.734.86 11.856 11.856 0 013.446 2.636 14.648 14.648 0 012.537 3.925 11.508 11.508 0 011.005 4.741 16.821 16.821 0 01-3.162 10.248zm69.672-80.869a2.15 2.15 0 01-3.394.27l-.001-.001-.006-.007-.031-.034-.137-.146c-.124-.13-.311-.326-.556-.572a47.847 47.847 0 00-2.111-1.994c-1.813-1.613-4.32-3.61-7.154-5.225-2.853-1.626-5.892-2.779-8.8-2.887-2.815-.105-5.61.76-8.186 3.395-2.702 2.765-3.721 5.431-3.782 7.92-.062 2.544.872 5.181 2.585 7.834 3.452 5.344 9.69 10.172 14.998 13.422 6.523 3.68 10.766 6.99 13.373 9.993 1.771-1.61 4.109-3.545 7.917-6.37 8.262-6.13 15.216-12.83 18.617-19.006 1.69-3.069 2.403-5.828 2.148-8.229-.248-2.326-1.435-4.6-4.14-6.718-2.642-2.07-5.139-2.56-7.429-2.258-2.372.312-4.699 1.501-6.821 3.092-2.109 1.581-3.891 3.466-5.156 4.978a35.71 35.71 0 00-1.451 1.854 20.907 20.907 0 00-.461.657l-.02.029-.002.003zm-.753 35.56c1.741-1.616 4.027-3.537 8.031-6.508 8.408-6.238 15.967-13.385 19.822-20.384 1.938-3.519 3.039-7.178 2.657-10.76-.389-3.657-2.291-6.929-5.764-9.65-3.536-2.77-7.187-3.59-10.643-3.136-3.373.444-6.391 2.078-8.841 3.915-2.463 1.847-4.482 3.996-5.874 5.66-.245.292-.471.57-.678.832a54.653 54.653 0 00-1.334-1.227c-1.945-1.731-4.7-3.935-7.883-5.749-3.164-1.802-6.899-3.304-10.77-3.448-3.965-.147-7.955 1.14-11.423 4.688-3.341 3.42-4.914 7.085-5.006 10.822-.09 3.682 1.266 7.165 3.273 10.272 3.983 6.167 10.895 11.413 16.4 14.778.022.013.043.026.066.038 6.513 3.671 10.308 6.764 12.419 9.26a278.029 278.029 0 01-.785.788c-1.626 1.627-3.071 4.168-3.766 6.483-.346 1.153-.567 2.451-.397 3.658.18 1.275.863 2.685 2.465 3.326 1.073.43 2.183.513 3.257.222 1.045-.283 1.91-.88 2.602-1.58 1.35-1.363 2.287-3.355 2.911-5.384.63-2.046.515-4.374-.739-6.917zm-3.339 3.282c-1.048 1.071-2.131 2.935-2.639 4.628-.258.86-.306 1.477-.259 1.817a.662.662 0 00.339 0c.135-.036.364-.145.669-.453.647-.653 1.323-1.887 1.857-3.623.185-.604.278-1.382.033-2.37z" fill="#fff"/></svg>