<svg width="401" height="138" fill="none" xmlns="http://www.w3.org/2000/svg"><path fill-rule="evenodd" clip-rule="evenodd" d="M364.059 68.194c-.63 2-1.365 3.967-2.201 5.89a225.134 225.134 0 01-2.873 6.37 500.867 500.867 0 00-4.02 9.003 43.17 43.17 0 00-2.585 7.375v-.096a13.86 13.86 0 00-.383 3.352 8.339 8.339 0 001.867 5.508c1.244 1.499 3.111 2.281 5.6 2.347a17.829 17.829 0 003.495-.336 16.433 16.433 0 003.065-.91 22.584 22.584 0 002.489-1.197 48.792 48.792 0 001.867-1.102 38.605 38.605 0 004.212-3.352 86.918 86.918 0 01-3.495 6.322 279.06 279.06 0 01-3.781 6.034 52.099 52.099 0 00-3.926-1.149 37.785 37.785 0 00-3.973-.767 57.015 57.015 0 00-4.451-.43 91.646 91.646 0 00-5.361-.144 38.687 38.687 0 00-9.908 1.25 30.627 30.627 0 00-8.329 3.462 19.108 19.108 0 00-5.744 5.286 11.332 11.332 0 00-2.154 6.632 7.177 7.177 0 001.58 4.711 11.286 11.286 0 004.116 3.076 24.401 24.401 0 005.696 1.73c2.116.385 4.262.579 6.413.579a49.5 49.5 0 009.911-.914 36.575 36.575 0 008.232-2.689 35.559 35.559 0 006.991-4.323 42.77 42.77 0 005.983-5.815 94.563 94.563 0 013.111 1.635 50.736 50.736 0 013.207 1.921l3.926 2.211c.573.256 1.547.239 2.92-.048a20.08 20.08 0 003.925-1.25 8.636 8.636 0 002.824-1.828c.638-.673.478-1.266-.478-1.778a5.622 5.622 0 01-.719-.43 5.383 5.383 0 00-.717-.434h.095a246.629 246.629 0 00-6.461-3.506 119.814 119.814 0 00-6.654-3.22 96.543 96.543 0 004.212-6.867c1.341-2.4 2.713-4.941 4.117-7.625l14.168-27.394a3.035 3.035 0 00-.478-2.969 9.954 9.954 0 00-2.825-2.682 13.98 13.98 0 00-3.781-1.724c-1.34-.382-2.393-.414-3.159-.095-2.235 6.067-4.565 11.654-6.991 16.761-.255.323-.511.623-.766.91a6.108 6.108 0 00-.67.91h.096a124.113 124.113 0 01-3.495 4.502 50.804 50.804 0 01-3.926 4.31 32.662 32.662 0 01-4.451 3.64 15.762 15.762 0 01-5.074 2.298h-1.053c-.383 0-.574-.383-.574-1.15.079-1.37.403-2.717.957-3.974a69.338 69.338 0 012.345-5.27 141.974 141.974 0 012.968-5.7 235.514 235.514 0 012.92-5.172c1.211-2.044 2.073-3.608 2.585-4.693a3.098 3.098 0 00-.431-2.97 9.754 9.754 0 00-2.68-2.681 12.853 12.853 0 00-3.59-1.724 5.223 5.223 0 00-3.065-.192l-.671.575zm-27.855 64.798a13.127 13.127 0 01-3.495-.91 7.487 7.487 0 01-2.635-1.821 4.091 4.091 0 01-1.053-2.873 5.25 5.25 0 011.867-4.262 15.467 15.467 0 015.074-2.921 35.22 35.22 0 016.796-1.724 45.686 45.686 0 017.036-.575 46.405 46.405 0 017.037.479c2.023.308 4.022.756 5.983 1.341a48.61 48.61 0 01-10.578 9.722 21.97 21.97 0 01-12.397 3.781 29.71 29.71 0 01-3.638-.238l.003.001zM277.519 73.94c-.895 1.98-1.82 3.992-2.776 6.035-.703 1.47-1.389 2.906-2.058 4.31a113.011 113.011 0 00-1.867 4.118 166.052 166.052 0 01-3.065 5.651 284.847 284.847 0 01-3.351 5.747 517.084 517.084 0 00-3.925 6.848 104.63 104.63 0 00-3.495 6.753 47.075 47.075 0 00-2.585 6.752 29.78 29.78 0 00-1.197 6.752c.064.511.575 1.07 1.532 1.677.962.609 1.99 1.107 3.065 1.484.973.357 1.986.598 3.015.719.926.095 1.421-.112 1.484-.623.335-2.233.88-4.43 1.627-6.56a60.714 60.714 0 012.729-6.561 102.042 102.042 0 013.398-6.417 170.195 170.195 0 013.638-6.035v.096l1.627-2.49a8.722 8.722 0 003.734 3.975c1.786 1.054 4.467 1.549 8.042 1.484a27.337 27.337 0 0010.099-2.107 35.119 35.119 0 008.856-5.316 40.436 40.436 0 0011.776-16.138 16.19 16.19 0 001.244-6.13 12.708 12.708 0 00-.478-3.496 8.079 8.079 0 00-1.675-3.065 9.782 9.782 0 00-3.16-2.346 14.274 14.274 0 00-4.834-1.246 18.382 18.382 0 00-4.547.192c-1.61.267-3.195.668-4.739 1.198a38.251 38.251 0 00-4.786 2.01 50.295 50.295 0 00-4.499 2.539 5.33 5.33 0 00-1.532-2.49 11.618 11.618 0 00-2.92-2.107 14.327 14.327 0 00-3.351-1.246 4.553 4.553 0 00-2.632 0 69.196 69.196 0 01-2.394 6.035v-.002zM280.678 93c.829-1.724 1.755-3.56 2.777-5.507a158.629 158.629 0 012.967-5.411 33.465 33.465 0 014.404-3.353 32.756 32.756 0 014.882-2.586 34.01 34.01 0 014.978-1.676 16.07 16.07 0 014.595-.527c2.106.065 3.159 1.023 3.159 2.874a10.75 10.75 0 01-1.148 4.406 30.509 30.509 0 01-3.066 5.124 49.053 49.053 0 01-4.355 5.172 41.276 41.276 0 01-5.074 4.502 26.771 26.771 0 01-5.265 3.113 10.966 10.966 0 01-4.835 1.053c-1.723-.127-2.904-.67-3.542-1.628a5.578 5.578 0 01-.957-3.161 8.373 8.373 0 01.287-2.205c0-.063.015-.096.048-.096s.048-.031.048-.095l.097.002z" fill="#0658A8"/><path fill-rule="evenodd" clip-rule="evenodd" d="M319.621 73.94a475.84 475.84 0 01-2.776 6.035c-.703 1.47-1.389 2.906-2.058 4.31a114.744 114.744 0 00-1.867 4.118 164.311 164.311 0 01-3.065 5.651 284.78 284.78 0 01-3.35 5.747 528.654 528.654 0 00-3.926 6.848 105.649 105.649 0 00-3.495 6.753 47.193 47.193 0 00-2.585 6.752 29.779 29.779 0 00-1.196 6.752c.064.511.574 1.07 1.531 1.677a15.078 15.078 0 003.065 1.484c.974.357 1.986.598 3.016.719.926.095 1.42-.112 1.484-.623.335-2.233.879-4.43 1.627-6.56a60.91 60.91 0 012.728-6.561 102.056 102.056 0 013.399-6.417 168.71 168.71 0 013.638-6.035v.096l1.627-2.49a8.72 8.72 0 003.733 3.975c1.787 1.054 4.467 1.549 8.042 1.484 3.47-.055 6.897-.77 10.1-2.107a35.13 35.13 0 008.855-5.316 40.43 40.43 0 0011.777-16.138 16.21 16.21 0 001.244-6.13 12.67 12.67 0 00-.479-3.496 8.065 8.065 0 00-1.675-3.065 9.778 9.778 0 00-3.159-2.346 14.28 14.28 0 00-4.834-1.246 18.39 18.39 0 00-4.548.192 29.51 29.51 0 00-4.738 1.198 38.251 38.251 0 00-4.786 2.01 50.312 50.312 0 00-4.5 2.539 5.323 5.323 0 00-1.532-2.49 11.618 11.618 0 00-2.92-2.107 14.32 14.32 0 00-3.35-1.246 4.553 4.553 0 00-2.632 0 69.522 69.522 0 01-2.395 6.035v-.002zm3.16 19.06a175.97 175.97 0 012.776-5.507 158.629 158.629 0 012.967-5.411 33.408 33.408 0 014.405-3.353 32.658 32.658 0 014.882-2.586 33.97 33.97 0 014.978-1.676 16.07 16.07 0 014.595-.527c2.106.065 3.159 1.023 3.159 2.874a10.752 10.752 0 01-1.149 4.406 30.437 30.437 0 01-3.065 5.124 49.062 49.062 0 01-4.356 5.172 41.194 41.194 0 01-5.073 4.502 26.779 26.779 0 01-5.266 3.113 10.958 10.958 0 01-4.834 1.053c-1.723-.127-2.904-.67-3.542-1.628a5.57 5.57 0 01-.957-3.161 8.331 8.331 0 01.287-2.205c0-.063.015-.096.048-.096.032 0 .048-.031.048-.095l.097.002zm-59.095-17.623a11.39 11.39 0 00-.957-3.352 7.732 7.732 0 00-2.106-2.682 8.322 8.322 0 00-3.59-1.628c-.77-.192-1.555-.32-2.345-.384a33.35 33.35 0 00-2.537-.095 25.107 25.107 0 00-7.994 1.293 35.192 35.192 0 00-7.371 3.448 40.897 40.897 0 00-6.51 4.98 47.306 47.306 0 00-5.313 5.843 36.725 36.725 0 00-3.781 6.034 19.416 19.416 0 00-1.868 5.507c-.066.349-.114.7-.143 1.054a17.3 17.3 0 00-.048 1.341c.014 1.172.208 2.335.574 3.448a9.77 9.77 0 001.915 3.4 10.684 10.684 0 003.689 2.685c1.833.8 3.794 1.27 5.791 1.388a17.611 17.611 0 008.329-2.49 48.528 48.528 0 007.851-5.556v.479a7.633 7.633 0 002.105 5.412c1.403 1.5 3.669 2.346 6.797 2.538a12.253 12.253 0 003.447-.287 19.64 19.64 0 003.015-.958 22.584 22.584 0 002.489-1.197 48.792 48.792 0 001.867-1.102 40.458 40.458 0 007.994-7.087 158.118 158.118 0 006.749-8.237l2.202-2.778a.988.988 0 00-.049-1.197 4.01 4.01 0 00-1.196-1.102 4.433 4.433 0 00-1.579-.622 1.066 1.066 0 00-1.101.239l-1.819 2.395a219.618 219.618 0 01-3.496 4.597 48.743 48.743 0 01-3.972 4.502 29.774 29.774 0 01-4.548 3.735 16.286 16.286 0 01-5.122 2.299h-1.148a1.319 1.319 0 01-.287-.958c0-1.277.494-2.969 1.483-5.076a172.781 172.781 0 012.92-5.939l1.149-2.298a3.035 3.035 0 00-.479-2.97 11.118 11.118 0 00-2.728-2.73 12.17 12.17 0 00-3.59-1.771 5.223 5.223 0 00-3.065-.192l-.67.767a16.18 16.18 0 01-.91 3.495 57.689 57.689 0 01-1.675 4.07 40.97 40.97 0 01-3.207 3.64 66.067 66.067 0 01-4.068 3.831 51.331 51.331 0 01-4.165 3.257 11.856 11.856 0 01-3.495 1.82c-2.235.383-3.734.159-4.499-.67a4.346 4.346 0 01-1.149-3.066 9.33 9.33 0 01.287-2.155 41.65 41.65 0 01.575-2.156 34.08 34.08 0 013.065-6.13 36.776 36.776 0 014.978-6.417 29.92 29.92 0 016.27-4.98 13.122 13.122 0 017.132-1.916 4.872 4.872 0 012.442.527 4.358 4.358 0 011.435 1.29c.341.487.57 1.043.671 1.629.096.573.175 1.116.239 1.628.001.196.033.39.096.575.056.154.088.315.096.478a1.043 1.043 0 00.813.91 4.451 4.451 0 001.721.336 5.145 5.145 0 001.721-.287.975.975 0 00.813-.86 19.152 19.152 0 00-.14-3.543v-.002z" fill="#0658A8"/><path fill-rule="evenodd" clip-rule="evenodd" d="M227.836 46.79a246.172 246.172 0 00-7.563 11.253 305.136 305.136 0 00-7.562 12.595 245.255 245.255 0 00-6.893 12.978 185.663 185.663 0 00-5.888-2.538 208.155 208.155 0 00-5.983-2.347 146.276 146.276 0 006.892-8.765c2.107-2.907 3.957-5.716 5.553-8.428a57.202 57.202 0 003.829-7.663 24.146 24.146 0 001.721-6.465 10.407 10.407 0 00-1.388-5.22 13.067 13.067 0 00-3.781-4.166 19.4 19.4 0 00-5.646-2.73 21.674 21.674 0 00-6.991-.91 39.318 39.318 0 00-13.02 2.443 60.755 60.755 0 00-12.062 5.986 58.39 58.39 0 00-10.148 8.237 52.837 52.837 0 00-7.371 9.29c-.573.958-1.036 1.74-1.388 2.347a14.41 14.41 0 00-.86 1.724 24.407 24.407 0 00-.622 1.676 24.098 24.098 0 00-.575 2.108l-.287 1.244c0 .448.527.64 1.58.575a20.1 20.1 0 003.542-.575 24.91 24.91 0 003.685-1.197c1.149-.479 1.819-.942 2.011-1.389l.096-.095a44.526 44.526 0 0113.115-18.486 40.187 40.187 0 0110.342-6.224 31.789 31.789 0 0112.35-2.395c2.488-.062 4.435.433 5.839 1.485 1.404 1.053 2.139 2.601 2.205 4.646a19.063 19.063 0 01-1.819 5.315 69.606 69.606 0 01-4.021 7.136c-1.66 2.619-3.59 5.412-5.792 8.38a127.37 127.37 0 01-7.323 8.956 96.137 96.137 0 00-10.387-1.82 99.127 99.127 0 00-11.919-.67h-2.824c-.99 0-1.964.031-2.92.096a78.938 78.938 0 00-16.8 2.586 61.8 61.8 0 00-14.887 5.986 36.43 36.43 0 00-10.626 8.86 17.635 17.635 0 00-4.021 11.206c0 5.426 1.995 9.305 5.983 11.637 3.989 2.331 10.004 3.496 18.046 3.495a39.13 39.13 0 0013.546-2.635 81.395 81.395 0 0014.312-7.039 119.91 119.91 0 0014.12-10.201c4.549-3.79 8.88-7.836 12.972-12.116 2.425.703 4.85 1.453 7.276 2.25 2.425.797 4.882 1.643 7.371 2.539-1.915 4.343-3.494 8.365-4.739 12.068a39.823 39.823 0 00-2.154 9.578c0 .383.383.99 1.149 1.82a25.97 25.97 0 002.537 2.394c.805.683 1.67 1.292 2.585 1.82.797.446 1.228.479 1.29.096a58.86 58.86 0 012.92-10.68 124.65 124.65 0 015.888-13.55l2.584.957 7.372 2.873a8.117 8.117 0 002.204-.86 9.618 9.618 0 002.058-1.437 3.328 3.328 0 001.006-1.484c.127-.48-.192-.814-.958-1.006a97.915 97.915 0 01-5.983-2.205 345.828 345.828 0 01-5.505-2.298 222.532 222.532 0 016.462-11.446 213.133 213.133 0 017.276-11.254 154.12 154.12 0 017.851-10.392 112.372 112.372 0 018.089-8.86c.446-1.02.254-2.09-.574-3.208a12.859 12.859 0 00-3.159-2.97 14.337 14.337 0 00-3.782-1.867c-1.244-.384-2.058-.384-2.441 0-2.175 2.49-4.507 5.475-6.995 8.955zm-103.869 62.734a15.014 15.014 0 01-4.117-1.442 11.207 11.207 0 01-3.254-2.547 6.912 6.912 0 01-1.628-3.749c0-2.242 1.181-4.484 3.542-6.727a36.642 36.642 0 019.287-6.15 70.513 70.513 0 0112.875-4.66 76.082 76.082 0 0114.216-2.357c1.085-.062 2.138-.11 3.16-.143a95.144 95.144 0 013.159-.048c2.871 0 5.6.096 8.185.289 2.585.192 5.09.448 7.515.768A159.316 159.316 0 01165.56 93.09a98.738 98.738 0 01-12.254 8.698 68.197 68.197 0 01-12.636 5.957 37.952 37.952 0 01-12.493 2.211 21.965 21.965 0 01-4.21-.432z" fill="#0658A8"/><path fill-rule="evenodd" clip-rule="evenodd" d="M116.5 79.306c1.532-1.915 2.298-3.767 2.298-5.555a5.45 5.45 0 00-2.202-4.502c-1.469-1.15-3.416-1.756-5.839-1.82a24.245 24.245 0 00-7.324.958 39.36 39.36 0 00-6.99 2.73 46.358 46.358 0 00-5.983 3.592 29.7 29.7 0 00-4.309 3.64c-3.255 3.447-5.616 6.656-7.084 9.625a18.458 18.458 0 00-2.01 9.051 10.427 10.427 0 004.212 8.142c2.617 1.978 6.287 2.968 11.01 2.969.765 0 1.802-.048 3.11-.143a36.124 36.124 0 004.356-.623 31.533 31.533 0 005.122-1.533 29.347 29.347 0 005.505-2.873 51.831 51.831 0 007.945-7.28 177.636 177.636 0 005.84-6.99l1.819-2.395a1.755 1.755 0 00.239-1.676 2.613 2.613 0 00-1.053-1.149 2.808 2.808 0 00-1.628-.383 2.35 2.35 0 00-1.579.718c-.639.897-1.389 1.918-2.25 3.065a120.484 120.484 0 01-3.015 3.832 38.757 38.757 0 01-5.888 5.65 37.414 37.414 0 01-5.887 3.736 22.124 22.124 0 01-5.457 1.963c-1.474.34-2.997.422-4.5.24a5.548 5.548 0 01-3.685-2.538 8.45 8.45 0 01-1.29-4.07 52.187 52.187 0 0015.317-6.035 35.149 35.149 0 0011.2-10.44v.096-.002zm-3.541-4.789a4.964 4.964 0 01-.767 2.395v-.096a31.024 31.024 0 01-9.046 8.956 44.365 44.365 0 01-12.302 5.506 30.753 30.753 0 012.872-5.317 36.548 36.548 0 014.5-5.555 32.414 32.414 0 015.743-4.645 17.654 17.654 0 016.797-2.586c1.467-.192 2.201.255 2.202 1.34l.001.002z" fill="#0658A8"/><path fill-rule="evenodd" clip-rule="evenodd" d="M65.476 96.163a27.609 27.609 0 01-8.711 7.807 46.117 46.117 0 01-12.541 4.932 60.9 60.9 0 01-14.456 1.724 31.253 31.253 0 01-6.845-.718 25.477 25.477 0 01-5.646-1.915 12.323 12.323 0 01-3.877-2.826 5.148 5.148 0 01-1.436-3.448c0-1.15.559-2.379 1.675-3.688 1.117-1.308 2.92-2.633 5.409-3.975-.128-.383-.845-.766-2.151-1.15a43.704 43.704 0 00-4.26-1.005 66.286 66.286 0 00-4.308-.67 10.86 10.86 0 00-2.393-.144l.095-.096a17.671 17.671 0 00-4.643 4.885A9.338 9.338 0 000 100.57a8.861 8.861 0 002.441 5.938A20.673 20.673 0 009 111.297a43.145 43.145 0 009.382 3.208 53.597 53.597 0 0011.009 1.291 84.5 84.5 0 0020.295-2.156 61.001 61.001 0 0016.513-6.321c4.691-2.713 8.377-5.954 11.058-9.722a20.717 20.717 0 004.02-12.26 10.442 10.442 0 00-1.29-4.023 18.545 18.545 0 00-2.825-3.83 26.201 26.201 0 00-3.972-3.4 32.747 32.747 0 00-4.643-2.73 53.113 53.113 0 007.467-2.874 35.639 35.639 0 006.653-4.07 26.184 26.184 0 005.216-5.413 19.95 19.95 0 003.16-6.99c.122-.49.218-.985.287-1.485a11.713 11.713 0 00-1.244-6.944 13.815 13.815 0 00-3.974-4.597 20.722 20.722 0 00-6.51-3.21 30.043 30.043 0 00-8.854-1.196h-.1a66.288 66.288 0 00-21.54 4.214 77.463 77.463 0 00-18.236 9.818 75.176 75.176 0 00-14.217 13.457 66.835 66.835 0 00-9.382 15.133 6.191 6.191 0 00-.574 2.394 5.861 5.861 0 001.628 3.88 14.821 14.821 0 003.541 3.017 9.826 9.826 0 003.447 1.388c1.02.16 1.5-.175 1.436-1.005-.191-1.596.16-3.543 1.053-5.843a44.593 44.593 0 013.83-7.42 70.246 70.246 0 016.077-8.188 104.874 104.874 0 017.851-8.238 83.143 83.143 0 019.142-7.47 73.167 73.167 0 019.956-5.939c-2.617 3.896-5.345 8.19-8.185 12.883a301.167 301.167 0 00-8.137 14.319 236.536 236.536 0 00-7.036 14.319 103.164 103.164 0 00-4.883 12.883c-.129.511.143 1.214.814 2.106a19.222 19.222 0 002.345 2.586c.777.746 1.646 1.39 2.585 1.916.829.448 1.371.448 1.627 0 1.85-4.15 3.957-8.492 6.319-13.026a317.015 317.015 0 017.61-13.744 327.81 327.81 0 018.617-13.888 267.603 267.603 0 019.333-13.361 2.897 2.897 0 00-.191-2.49 9.4 9.4 0 00-1.915-2.54 14.557 14.557 0 00-2.824-2.106 14.253 14.253 0 00-2.824-1.29 42.444 42.444 0 016.558-2.108 33.333 33.333 0 016.558-.86 12.31 12.31 0 014.403.526 7.389 7.389 0 012.872 1.677 6.3 6.3 0 011.532 2.49c.318.957.48 1.96.478 2.97a15.133 15.133 0 01-.957 5.076 19.132 19.132 0 01-4.739 7.088 37.028 37.028 0 01-6.892 5.22 48.143 48.143 0 01-7.228 3.495 34.336 34.336 0 01-5.646 1.724 3.33 3.33 0 00-1.58 1.15 1.379 1.379 0 00-.191 1.29c.201.468.533.867.957 1.15.55.372 1.204.556 1.867.526h.575c.47.13.965.13 1.435 0a7.446 7.446 0 013.734.86 11.853 11.853 0 013.446 2.635 14.644 14.644 0 012.537 3.926 11.507 11.507 0 011.005 4.741 16.821 16.821 0 01-3.162 10.247z" fill="#0658A8"/><path fill-rule="evenodd" clip-rule="evenodd" d="M135.148 15.295a2.15 2.15 0 01-3.394.27l-.001-.001-.006-.007-.031-.034-.137-.146a34.207 34.207 0 00-.556-.573 47.847 47.847 0 00-2.111-1.994c-1.813-1.612-4.32-3.61-7.154-5.224-2.853-1.626-5.892-2.78-8.8-2.887-2.815-.105-5.61.76-8.186 3.395-2.702 2.765-3.721 5.431-3.782 7.92-.062 2.544.872 5.18 2.585 7.834 3.452 5.344 9.69 10.172 14.998 13.421 6.523 3.68 10.766 6.99 13.373 9.994 1.771-1.61 4.109-3.545 7.917-6.371 8.262-6.13 15.216-12.83 18.617-19.005 1.69-3.069 2.403-5.829 2.148-8.229-.248-2.326-1.435-4.6-4.14-6.718-2.642-2.07-5.139-2.56-7.429-2.258-2.372.312-4.699 1.501-6.821 3.092-2.109 1.581-3.891 3.465-5.156 4.978a35.285 35.285 0 00-1.451 1.854 21.097 21.097 0 00-.461.656l-.02.03-.002.003zm-.753 35.56c1.741-1.616 4.027-3.538 8.031-6.508 8.408-6.238 15.967-13.385 19.822-20.385 1.938-3.518 3.039-7.177 2.657-10.76-.389-3.656-2.291-6.928-5.764-9.649-3.536-2.77-7.187-3.591-10.643-3.136-3.373.444-6.391 2.078-8.841 3.915-2.463 1.847-4.482 3.996-5.874 5.66-.245.292-.471.57-.678.832a54.636 54.636 0 00-1.334-1.227c-1.945-1.732-4.7-3.935-7.883-5.749-3.164-1.803-6.899-3.304-10.77-3.448-3.965-.148-7.955 1.14-11.423 4.687-3.341 3.42-4.914 7.085-5.006 10.822-.09 3.682 1.266 7.166 3.273 10.273 3.983 6.167 10.895 11.413 16.4 14.777l.066.039c6.513 3.671 10.308 6.764 12.419 9.26a278.029 278.029 0 01-.785.788c-1.626 1.627-3.071 4.168-3.766 6.483-.346 1.153-.567 2.45-.397 3.658.18 1.275.863 2.685 2.465 3.326 1.073.429 2.183.512 3.257.222 1.045-.283 1.91-.88 2.602-1.58 1.35-1.363 2.287-3.355 2.911-5.384.63-2.046.515-4.375-.739-6.917zm-3.339 3.282c-1.048 1.071-2.131 2.935-2.639 4.628-.258.86-.306 1.477-.259 1.817a.661.661 0 00.339 0c.135-.036.364-.145.669-.453.647-.653 1.323-1.888 1.857-3.623.185-.604.278-1.382.033-2.37z" fill="#229CEC"/></svg>