<svg width="240" height="84" fill="none" xmlns="http://www.w3.org/2000/svg"><path d="M96.664 50.149h1.293c.31 2.1 1.15 3.758 2.521 4.974 1.371 1.194 3.062 1.791 5.074 1.791a8.1 8.1 0 002.255-.298c.685-.2 1.271-.476 1.758-.83a4.143 4.143 0 001.127-1.293 3.604 3.604 0 00.398-1.691c0-.53-.088-.984-.265-1.36-.155-.398-.465-.773-.929-1.127-.464-.376-1.105-.752-1.923-1.128-.796-.376-1.835-.807-3.118-1.293-2.586-.995-4.499-2.145-5.737-3.45-1.238-1.326-1.857-2.884-1.857-4.675 0-1.04.199-1.99.597-2.852a6.585 6.585 0 011.658-2.222c.73-.62 1.592-1.095 2.587-1.426 1.017-.354 2.133-.53 3.349-.53 1.128 0 2.189.176 3.184.53.995.354 1.979.884 2.952 1.592l.596-1.658h.796l.365 7.163h-1.293c-.531-1.813-1.36-3.195-2.487-4.146-1.128-.972-2.432-1.459-3.914-1.459-1.37 0-2.487.343-3.349 1.028-.84.663-1.26 1.526-1.26 2.587 0 .464.077.884.232 1.26.155.354.442.697.862 1.028.42.332.995.675 1.724 1.028.73.332 1.67.708 2.819 1.128 1.548.597 2.863 1.205 3.947 1.824 1.105.597 2.001 1.249 2.686 1.956.708.686 1.227 1.415 1.559 2.19.331.773.497 1.624.497 2.553 0 1.127-.243 2.155-.729 3.084a7.063 7.063 0 01-2.057 2.388c-.862.663-1.901 1.183-3.117 1.558-1.194.376-2.52.564-3.98.564-1.326 0-2.52-.177-3.581-.53-1.061-.376-2.156-.973-3.283-1.791l-.664 1.99h-.795l-.498-8.457zm38.107 5.372c-2.011 2.278-4.521 3.416-7.528 3.416-1.37 0-2.619-.21-3.747-.63-1.105-.442-2.056-1.05-2.852-1.824a8.455 8.455 0 01-1.857-2.819c-.442-1.083-.663-2.288-.663-3.614 0-1.371.232-2.62.696-3.748a8.495 8.495 0 011.957-2.952 9.229 9.229 0 013.017-1.956c1.172-.464 2.455-.697 3.847-.697 2.344 0 4.168.63 5.472 1.89 1.305 1.26 1.957 3.03 1.957 5.307 0 .354-.055.575-.166.663-.11.066-.42.1-.928.1h-10.679c-.088.199-.133.563-.133 1.094 0 2.167.465 3.88 1.393 5.14.951 1.26 2.233 1.89 3.847 1.89.929 0 1.846-.21 2.753-.63.928-.42 1.824-1.017 2.686-1.79l.928 1.16zm-6.433-8.721c.884 0 1.448-.045 1.691-.133.265-.11.398-.354.398-.73 0-.973-.276-1.768-.829-2.387-.553-.62-1.249-.93-2.089-.93-.951 0-1.802.399-2.554 1.195-.729.774-1.205 1.769-1.426 2.985h4.809zm19.333 2.354c-1.857.84-3.261 1.625-4.212 2.355-.929.707-1.393 1.448-1.393 2.222 0 .64.177 1.15.531 1.525.353.376.796.564 1.326.564a4.18 4.18 0 001.493-.265 4.085 4.085 0 001.193-.763 3.16 3.16 0 00.763-1.095c.199-.442.299-.906.299-1.392v-3.151zm0-1.758v-1.392c0-1.283-.232-2.211-.697-2.786-.442-.597-1.138-.896-2.089-.896-.641 0-1.128.177-1.459.531-.332.332-.641.895-.929 1.691-.199.553-.486.984-.862 1.294-.354.31-.851.464-1.492.464-.619 0-1.095-.188-1.426-.564-.332-.376-.498-.906-.498-1.592 0-1.06.575-1.901 1.725-2.52 1.171-.62 2.929-.929 5.273-.929 2.476 0 4.245.454 5.306 1.36 1.061.884 1.592 2.377 1.592 4.477v7.263c0 1.88.375 2.819 1.127 2.819.42 0 .807-.144 1.161-.431l.497.961c-.309.553-.796.995-1.459 1.327-.641.31-1.371.464-2.189.464-1.017 0-1.79-.31-2.321-.928-.531-.62-.796-1.493-.796-2.62h-.166c-.641 1.15-1.47 2.023-2.487 2.62-1.017.597-2.178.895-3.482.895-1.393 0-2.51-.387-3.35-1.16-.84-.797-1.26-1.825-1.26-3.085 0-.973.431-1.88 1.293-2.72.863-.861 2.3-1.702 4.312-2.52l4.676-2.023zm16.191 6.069c0 .862.033 1.548.099 2.056.089.487.254.863.498 1.128.243.265.596.442 1.061.53.464.067 1.083.1 1.857.1v1.327H156.3v-1.327c.664-.044 1.194-.11 1.592-.199.398-.088.697-.265.896-.53.199-.266.32-.642.364-1.128.067-.509.1-1.183.1-2.023v-4.046c0-1.37-.033-2.465-.1-3.283-.066-.818-.21-1.448-.431-1.89-.221-.443-.541-.73-.961-.863-.398-.154-.929-.232-1.592-.232v-1.16l6.632-1.228.531 3.814h.133c.597-1.172 1.381-2.1 2.354-2.786.973-.685 2.001-1.028 3.084-1.028.841 0 1.526.21 2.057.63.53.42.795.951.795 1.592 0 .708-.21 1.305-.63 1.791-.398.487-.95.73-1.658.73a1.97 1.97 0 01-.895-.2 5.733 5.733 0 01-.73-.43 4.2 4.2 0 00-.63-.465 1.01 1.01 0 00-.63-.232c-.42 0-.818.277-1.194.83-.376.552-.685 1.293-.928 2.221a17.879 17.879 0 00-.432 2.255c-.11.818-.165 1.636-.165 2.454v1.592zm25.276 2.388c-.84.929-1.89 1.647-3.15 2.156-1.238.508-2.587.762-4.046.762-1.349 0-2.576-.21-3.681-.63-1.106-.442-2.056-1.05-2.852-1.824a8.1 8.1 0 01-1.857-2.785c-.421-1.106-.631-2.322-.631-3.648 0-1.371.233-2.62.697-3.748a8.235 8.235 0 011.956-2.885c.841-.818 1.847-1.448 3.018-1.89 1.172-.442 2.465-.664 3.88-.664.995 0 1.913.1 2.753.299.862.199 1.592.475 2.189.829.619.354 1.105.774 1.459 1.26.354.465.531.973.531 1.526 0 .64-.188 1.15-.564 1.525-.354.376-.84.564-1.459.564-.509 0-.962-.133-1.36-.398-.376-.265-.752-.696-1.128-1.293a14.72 14.72 0 00-.862-1.26c-.221-.31-.431-.542-.63-.697a1.355 1.355 0 00-.597-.332 2.328 2.328 0 00-.73-.1c-1.282 0-2.277.598-2.984 1.792-.708 1.194-1.061 2.863-1.061 5.007 0 2.3.42 4.068 1.26 5.306.862 1.239 2.089 1.858 3.681 1.858.906 0 1.813-.166 2.719-.498a10.185 10.185 0 002.587-1.492l.862 1.26zm9.301-2.686c0 .906.022 1.625.066 2.155.067.509.188.907.365 1.194.199.288.486.476.862.564.398.089.929.155 1.592.199v1.327h-10.446v-1.327c.663-.044 1.194-.11 1.592-.199.398-.088.696-.265.895-.53.199-.266.321-.642.365-1.128.066-.509.099-1.183.099-2.023v-13.63a56.62 56.62 0 00-.066-3.117c-.022-.774-.077-1.36-.166-1.758a2.52 2.52 0 00-.232-.663.844.844 0 00-.431-.398c-.177-.11-.431-.177-.763-.2a8.73 8.73 0 00-1.194-.066V32.34l7.396-1.26v12.237h.132c.686-.906 1.448-1.57 2.289-1.99.862-.42 1.89-.63 3.084-.63 2.166 0 3.847.664 5.041 1.99.574.663 1.028 1.47 1.359 2.421.332.929.498 1.902.498 2.919v5.14c0 .928.022 1.658.066 2.189.044.508.155.906.332 1.194.199.265.486.442.862.53.376.089.895.155 1.559.199v1.327h-10.381v-1.327c.664-.022 1.183-.077 1.559-.166.398-.11.697-.298.896-.563.221-.266.353-.642.398-1.128.066-.509.099-1.183.099-2.023v-4.08c0-2.343-.254-4-.763-4.974-.508-.972-1.382-1.459-2.62-1.459-1.326 0-2.376.487-3.15 1.46-.376.508-.674 1.138-.896 1.89-.199.751-.298 1.592-.298 2.52v4.41zm24.226 10.645c-.243.487-.553.94-.929 1.36-.354.42-.763.774-1.227 1.061a5.97 5.97 0 01-1.393.73 4.243 4.243 0 01-1.459.265c-.73 0-1.315-.177-1.758-.53-.442-.354-.663-.83-.663-1.427 0-.552.188-.983.564-1.293.398-.31 1.028-.497 1.89-.564 1.968-.154 3.239-.774 3.814-1.857l.895-1.724-5.869-14.526a18.765 18.765 0 00-.697-1.525c-.177-.376-.376-.664-.597-.863a1.558 1.558 0 00-.763-.43 6.276 6.276 0 00-1.061-.133v-1.327h10.049v1.327c-.863 0-1.471.088-1.824.265-.332.155-.498.453-.498.895 0 .177.022.387.067.63.066.221.143.454.232.697l3.382 9.683h.133l2.852-6.466c.287-.686.531-1.25.73-1.692a10.2 10.2 0 00.431-1.16c.11-.332.188-.597.232-.796.044-.2.066-.398.066-.597 0-.575-.166-.962-.497-1.16-.31-.2-.951-.3-1.924-.3V41.03h7.993v1.327c-.443 0-.818.066-1.128.199-.309.11-.63.353-.962.73-.309.375-.663.939-1.061 1.69-.376.73-.851 1.703-1.426 2.919l-7.594 15.918z" fill="#394159"/><path d="M41.333 58.56v-1.327c.73-.022 1.316-.078 1.758-.166.464-.11.818-.299 1.06-.564.266-.287.443-.663.531-1.127.089-.487.133-1.128.133-1.924V38.131c0-.774-.033-1.393-.1-1.858-.066-.486-.21-.862-.43-1.127-.222-.288-.531-.476-.929-.564-.376-.11-.873-.188-1.492-.232v-1.327h12.602c2.122 0 4.079.332 5.87.995 1.79.664 3.338 1.581 4.642 2.753a12.444 12.444 0 013.051 4.178c.73 1.614 1.095 3.372 1.095 5.273 0 1.813-.343 3.483-1.028 5.008a11.358 11.358 0 01-2.886 3.88c-1.215 1.084-2.686 1.935-4.41 2.554-1.703.597-3.582.895-5.638.895H41.333zm8.92-23.514c-.375 0-.563.188-.563.564v17.146c0 1.282.398 2.233 1.194 2.852.796.619 2.023.928 3.681.928 2.896 0 5.118-.873 6.666-2.62 1.57-1.746 2.355-4.289 2.355-7.627 0-1.769-.21-3.35-.63-4.743-.42-1.392-1.029-2.564-1.825-3.515a7.793 7.793 0 00-2.918-2.222c-1.127-.508-2.399-.763-3.814-.763h-4.145zm28.951 18.373c0 .862.033 1.548.1 2.056.087.486.253.862.497 1.127.243.266.596.443 1.06.531.465.066 1.084.1 1.858.1v1.326H71.642v-1.326c.664-.045 1.194-.11 1.592-.2.398-.088.697-.265.896-.53.199-.265.32-.641.364-1.127.067-.509.1-1.183.1-2.023v-4.046c0-1.371-.033-2.465-.1-3.284-.066-.818-.21-1.448-.43-1.89-.222-.442-.542-.73-.962-.862-.398-.155-.929-.232-1.592-.232v-1.161l6.632-1.227.531 3.814h.133c.597-1.172 1.382-2.1 2.354-2.786.973-.685 2.001-1.028 3.084-1.028.84 0 1.526.21 2.057.63.53.42.796.95.796 1.592 0 .707-.21 1.304-.63 1.79-.399.487-.951.73-1.659.73a1.97 1.97 0 01-.895-.199 5.772 5.772 0 01-.73-.43 4.21 4.21 0 00-.63-.465 1.011 1.011 0 00-.63-.232c-.42 0-.818.276-1.194.829-.376.553-.685 1.293-.928 2.222a17.84 17.84 0 00-.432 2.255c-.11.818-.165 1.636-.165 2.454v1.592zm8.844 3.018c0-.708.233-1.305.697-1.791a2.382 2.382 0 011.79-.763c.73 0 1.338.254 1.825.763.486.486.73 1.083.73 1.79 0 .686-.244 1.272-.73 1.758-.487.465-1.095.697-1.824.697-.708 0-1.305-.232-1.791-.697a2.454 2.454 0 01-.697-1.757z" fill="#00B695"/><path fill-rule="evenodd" clip-rule="evenodd" d="M18.834 17.746c-.022-.208-.325-.208-.348 0A17.41 17.41 0 013.034 33.198c-.208.023-.208.326 0 .348a17.41 17.41 0 0115.452 15.452c.023.209.326.209.348 0a17.373 17.373 0 014.465-9.892l-1.938-1.937a4.662 4.662 0 01-5.996-7.094 4.66 4.66 0 017.095 5.995l1.937 1.938a17.373 17.373 0 019.89-4.462c.208-.022.208-.325 0-.348a17.41 17.41 0 01-15.453-15.452zm2.39 18.187a3.625 3.625 0 11-5.127-5.126 3.625 3.625 0 015.126 5.126z" fill="#00B695"/></svg>