<svg width="97" height="134" fill="none" xmlns="http://www.w3.org/2000/svg"><g clip-path="url(#clip0)"><path d="M48.034 19.12c16.294 0 29.505-4.167 29.505-9.31C77.539 4.667 64.328.5 48.034.5c-16.293 0-29.68 4.167-29.68 9.31 0 5.143 13.21 9.31 29.68 9.31z" fill="#BDC3D7"/><path fill-rule="evenodd" clip-rule="evenodd" d="M18.354 10.254c.264 1.33 1.32 2.66 3.258 3.813v18.62c-1.937-1.153-3.082-2.483-3.17-3.813v-18.62h-.088zm9.688 6.473v18.62l3.17.798v-18.62l-3.259-.887.089.089zm11.185 2.039v18.62l-3.259-.443v-18.62l3.259.354v.089zm3.17.177v18.62l3.171.178V19.12c-1.057 0-2.114 0-3.17-.178zm35.142 9.93c-.705 4.878-13.211 8.779-28.8 8.868V19.12c15.589 0 28.271-3.99 28.8-8.867v18.62z" fill="#D2D6E9"/><path d="M77.715 104.949c8.28 2.04 14.356 5.143 16.91 8.778 2.642 3.547 1.586 7.36-2.906 10.64a49.279 49.279 0 01-21.402 7.271 101.67 101.67 0 01-28.536-.089l14.62-13.92 21.314-12.68z" fill="#BDC3D7"/><path fill-rule="evenodd" clip-rule="evenodd" d="M24.608 38.184c-.176.177-.264.266-.264.443 0 1.685-1.938 3.99-3.787 6.207-1.762 2.128-3.435 4.167-3.435 5.497v7.27c0 2.927 9.424 5.32 14.092 6.119 6.87.266 21.754.886 25.54.886 3.876 0 4.845 2.66 4.845 3.99v42.915c0 4.079-5.196 5.32-16.734 5.32-17.967 0-26.246-7.891-28.096-11.793v14.187c.089 4.167 6.43 12.591 30.386 12.591 24.044 0 31.442-8.424 32.059-12.591l-.44-68.894c0-1.33-1.674-3.37-3.348-5.497-1.85-2.217-3.787-4.522-3.787-6.207 0-.177-.088-.266-.264-.355-5.46 2.128-13.916 3.547-23.34 3.547a66.61 66.61 0 01-23.427-3.547v-.088z" fill="#D2D6E9"/><path d="M16.77 65.316s2.818 3.724 11.185 5.675c6.605 1.596 20.873 1.685 20.873 1.685v4.788s-14.092-.355-20.873-1.596c-7.574-1.33-11.185-5.32-11.185-5.32v-5.232zm0 11.438s2.818 3.636 11.185 5.675c6.605 1.596 20.873 1.685 20.873 1.685v4.788s-14.092-.355-20.873-1.596c-7.574-1.33-11.185-5.32-11.185-5.32v-5.232z" fill="#C7CEE5"/></g><defs><clipPath id="clip0"><path fill="#fff" transform="translate(.035 .5)" d="M0 0h96v133H0z"/></clipPath></defs></svg>