<svg width="64" height="64" viewBox="0 0 64 64" fill="none" xmlns="http://www.w3.org/2000/svg">
<path d="M29.4402 8.31982C28.3874 8.31982 27.5202 9.18704 27.5202 10.2398V11.5198H20.6502C19.5271 11.5198 18.483 12.1104 17.9052 13.0736L16.9177 14.7198H14.7202C13.3139 14.7198 12.1602 15.8735 12.1602 17.2798C12.1602 18.6861 13.3139 19.8398 14.7202 19.8398H15.4077L17.6952 49.5736C17.8483 51.5683 19.5231 53.1198 21.5239 53.1198H42.4764C44.4773 53.1198 46.152 51.5683 46.3052 49.5736L48.5927 19.8398H49.2802C50.6865 19.8398 51.8402 18.6861 51.8402 17.2798C51.8402 15.8735 50.6865 14.7198 49.2802 14.7198H47.0827L46.0952 13.0736C45.5173 12.1104 44.4732 11.5198 43.3502 11.5198H36.4802V10.2398C36.4802 9.18704 35.6129 8.31982 34.5602 8.31982H29.4402ZM29.4402 9.59982H34.5602C34.9218 9.59982 35.2002 9.8782 35.2002 10.2398V11.5198H28.8002V10.2398C28.8002 9.8782 29.0785 9.59982 29.4402 9.59982ZM20.6502 12.7998H28.0527C28.1218 12.8112 28.1923 12.8112 28.2614 12.7998H35.7327C35.8018 12.8112 35.8723 12.8112 35.9414 12.7998H43.3502C44.0255 12.7998 44.6489 13.1531 44.9964 13.7323L45.9739 15.3598H43.8402C43.7978 15.3592 43.7557 15.3671 43.7163 15.3829C43.677 15.3987 43.6411 15.4222 43.6109 15.4519C43.5807 15.4817 43.5568 15.5172 43.5404 15.5563C43.524 15.5954 43.5156 15.6374 43.5156 15.6798C43.5156 15.7222 43.524 15.7642 43.5404 15.8033C43.5568 15.8425 43.5807 15.8779 43.6109 15.9077C43.6411 15.9375 43.677 15.961 43.7163 15.9768C43.7557 15.9926 43.7978 16.0004 43.8402 15.9998H47.0402H49.2802C49.9948 15.9998 50.5602 16.5652 50.5602 17.2798C50.5602 17.9945 49.9948 18.5598 49.2802 18.5598H14.7202C14.0055 18.5598 13.4402 17.9945 13.4402 17.2798C13.4402 16.5652 14.0055 15.9998 14.7202 15.9998H17.2802H39.3602C39.4026 16.0004 39.4447 15.9926 39.484 15.9768C39.5234 15.961 39.5592 15.9375 39.5894 15.9077C39.6196 15.8779 39.6435 15.8425 39.6599 15.8033C39.6763 15.7642 39.6847 15.7222 39.6847 15.6798C39.6847 15.6374 39.6763 15.5954 39.6599 15.5563C39.6435 15.5172 39.6196 15.4817 39.5894 15.4519C39.5592 15.4222 39.5234 15.3987 39.484 15.3829C39.4447 15.3671 39.4026 15.3592 39.3602 15.3598H18.0264L19.0039 13.7323C19.3515 13.1531 19.9748 12.7998 20.6502 12.7998ZM41.2802 15.3598C41.2378 15.3592 41.1957 15.3671 41.1563 15.3829C41.117 15.3987 41.0811 15.4222 41.0509 15.4519C41.0207 15.4817 40.9968 15.5172 40.9804 15.5563C40.964 15.5954 40.9556 15.6374 40.9556 15.6798C40.9556 15.7222 40.964 15.7642 40.9804 15.8033C40.9968 15.8425 41.0207 15.8779 41.0509 15.9077C41.0811 15.9375 41.117 15.961 41.1563 15.9768C41.1957 15.9926 41.2378 16.0004 41.2802 15.9998H42.5602C42.6026 16.0004 42.6447 15.9926 42.684 15.9768C42.7234 15.961 42.7592 15.9375 42.7894 15.9077C42.8196 15.8779 42.8435 15.8425 42.8599 15.8033C42.8763 15.7642 42.8847 15.7222 42.8847 15.6798C42.8847 15.6374 42.8763 15.5954 42.8599 15.5563C42.8435 15.5172 42.8196 15.4817 42.7894 15.4519C42.7592 15.4222 42.7234 15.3987 42.684 15.3829C42.6447 15.3671 42.6026 15.3592 42.5602 15.3598H41.2802ZM16.6902 19.8398H47.3102L45.0289 49.4761C44.9261 50.8157 43.8202 51.8398 42.4764 51.8398H21.5239C20.1801 51.8398 19.0743 50.8157 18.9714 49.4761L16.6902 19.8398ZM24.3202 22.3998C23.2635 22.3998 22.4002 23.2631 22.4002 24.3198V46.7198C22.4002 47.7765 23.2635 48.6398 24.3202 48.6398C25.3769 48.6398 26.2402 47.7765 26.2402 46.7198V24.3198C26.2402 23.2631 25.3769 22.3998 24.3202 22.3998ZM32.0002 22.3998C30.9435 22.3998 30.0802 23.2631 30.0802 24.3198V46.7198C30.0802 47.7765 30.9435 48.6398 32.0002 48.6398C33.0569 48.6398 33.9202 47.7765 33.9202 46.7198V44.4798C33.9208 44.4374 33.9129 44.3953 33.8971 44.356C33.8813 44.3166 33.8578 44.2808 33.828 44.2506C33.7983 44.2204 33.7628 44.1964 33.7237 44.1801C33.6845 44.1637 33.6426 44.1553 33.6002 44.1553C33.5577 44.1553 33.5158 44.1637 33.4766 44.1801C33.4375 44.1964 33.402 44.2204 33.3723 44.2506C33.3425 44.2808 33.319 44.3166 33.3032 44.356C33.2874 44.3953 33.2796 44.4374 33.2802 44.4798V46.7198C33.2802 47.4308 32.7111 47.9998 32.0002 47.9998C31.2892 47.9998 30.7202 47.4308 30.7202 46.7198V24.3198C30.7202 23.6088 31.2892 23.0398 32.0002 23.0398C32.7111 23.0398 33.2802 23.6088 33.2802 24.3198V40.6398C33.2796 40.6822 33.2874 40.7243 33.3032 40.7637C33.319 40.803 33.3425 40.8388 33.3723 40.869C33.402 40.8992 33.4375 40.9232 33.4766 40.9396C33.5158 40.956 33.5577 40.9644 33.6002 40.9644C33.6426 40.9644 33.6845 40.956 33.7237 40.9396C33.7628 40.9232 33.7983 40.8992 33.828 40.869C33.8578 40.8388 33.8813 40.803 33.8971 40.7637C33.9129 40.7243 33.9208 40.6822 33.9202 40.6398V24.3198C33.9202 23.2631 33.0569 22.3998 32.0002 22.3998ZM39.6802 22.3998C38.6235 22.3998 37.7602 23.2631 37.7602 24.3198V25.2798C37.7596 25.3222 37.7674 25.3643 37.7832 25.4037C37.799 25.443 37.8225 25.4788 37.8523 25.509C37.882 25.5392 37.9175 25.5632 37.9566 25.5796C37.9958 25.596 38.0377 25.6044 38.0802 25.6044C38.1226 25.6044 38.1645 25.596 38.2037 25.5796C38.2428 25.5632 38.2783 25.5392 38.308 25.509C38.3378 25.4788 38.3613 25.443 38.3771 25.4037C38.3929 25.3643 38.4008 25.3222 38.4002 25.2798V24.3198C38.4002 23.6088 38.9692 23.0398 39.6802 23.0398C40.3911 23.0398 40.9602 23.6088 40.9602 24.3198V46.7198C40.9602 47.4308 40.3911 47.9998 39.6802 47.9998C38.9692 47.9998 38.4002 47.4308 38.4002 46.7198V30.3998C38.4008 30.3574 38.3929 30.3153 38.3771 30.276C38.3613 30.2366 38.3378 30.2008 38.308 30.1706C38.2783 30.1404 38.2428 30.1164 38.2037 30.1001C38.1645 30.0837 38.1226 30.0753 38.0802 30.0753C38.0377 30.0753 37.9958 30.0837 37.9566 30.1001C37.9175 30.1164 37.882 30.1404 37.8523 30.1706C37.8225 30.2008 37.799 30.2366 37.7832 30.276C37.7674 30.3153 37.7596 30.3574 37.7602 30.3998V46.7198C37.7602 47.7765 38.6235 48.6398 39.6802 48.6398C40.7369 48.6398 41.6002 47.7765 41.6002 46.7198V24.3198C41.6002 23.2631 40.7369 22.3998 39.6802 22.3998ZM24.3202 23.0398C25.0311 23.0398 25.6002 23.6088 25.6002 24.3198V46.7198C25.6002 47.4308 25.0311 47.9998 24.3202 47.9998C23.6092 47.9998 23.0402 47.4308 23.0402 46.7198V24.3198C23.0402 23.6088 23.6092 23.0398 24.3202 23.0398ZM38.0752 26.8748C38.0331 26.8755 37.9916 26.8844 37.9531 26.9011C37.9145 26.9178 37.8796 26.9419 37.8503 26.9721C37.8211 27.0023 37.7981 27.0379 37.7826 27.077C37.7671 27.1161 37.7595 27.1578 37.7602 27.1998V28.4798C37.7596 28.5222 37.7674 28.5643 37.7832 28.6037C37.799 28.643 37.8225 28.6788 37.8523 28.709C37.882 28.7392 37.9175 28.7632 37.9566 28.7796C37.9958 28.796 38.0377 28.8044 38.0802 28.8044C38.1226 28.8044 38.1645 28.796 38.2037 28.7796C38.2428 28.7632 38.2783 28.7392 38.308 28.709C38.3378 28.6788 38.3613 28.643 38.3771 28.6037C38.3929 28.5643 38.4008 28.5222 38.4002 28.4798V27.1998C38.4008 27.157 38.3929 27.1144 38.3768 27.0747C38.3607 27.0349 38.3368 26.9988 38.3065 26.9685C38.2761 26.9382 38.2401 26.9143 38.2003 26.8982C38.1606 26.8821 38.118 26.8742 38.0752 26.8748Z" fill="white"/>
</svg>
