<svg width="32" height="20" viewBox="0 0 32 20" fill="none" xmlns="http://www.w3.org/2000/svg">
<path d="M14.8033 3.75C14.8033 4.66667 13.7616 5.48958 11.6783 6.21875C10.4491 6.59375 9.34498 7.36458 8.36581 8.53125C7.38664 9.69792 6.89706 10.6562 6.89706 11.4062C6.89706 11.4896 7.74081 12.1042 9.42831 13.25C10.0741 13.875 10.3971 14.5833 10.3971 15.375C10.3971 16.0625 10.1262 16.7292 9.58456 17.375C9.06373 18 8.41789 18.3125 7.64706 18.3125C6.18873 18.3125 4.65748 17.5208 3.05331 15.9375C1.46998 14.3542 0.678308 12.9792 0.678308 11.8125C0.678308 10.8125 1.03248 9.53125 1.74081 7.96875C2.46998 6.38542 3.28248 5.3125 4.17831 4.75C4.49081 4.5625 5.14706 4.02083 6.14706 3.125C7.45956 1.9375 8.33456 1.17708 8.77206 0.84375C9.23039 0.489583 10.0846 0.3125 11.3346 0.3125C13.0221 0.3125 14.0637 0.583333 14.4596 1.125C14.8554 1.64583 14.97 2.52083 14.8033 3.75ZM25.7096 1.5625C26.8971 0.875 27.8241 0.53125 28.4908 0.53125C29.1366 0.53125 29.8554 0.979167 30.6471 1.875C31.4387 2.77083 31.8346 3.42708 31.8346 3.84375C31.8346 4.42708 31.5012 4.94792 30.8346 5.40625C30.1679 5.86458 29.7721 6.11458 29.6471 6.15625C29.5429 6.19792 29.3866 6.30208 29.1783 6.46875C29.0533 6.59375 28.5221 7.01042 27.5846 7.71875L26.1158 8.78125C24.9283 9.61458 24.3346 10.8333 24.3346 12.4375C24.3346 12.9167 24.5533 13.4896 24.9908 14.1562C25.7825 15.3438 26.1783 16.2188 26.1783 16.7812C26.1783 17.4062 25.8762 18.0938 25.2721 18.8438C24.6887 19.5938 24.0429 19.9688 23.3346 19.9688C21.7304 19.9688 20.3658 19.0521 19.2408 17.2188C18.1158 15.3646 17.5533 13.8958 17.5533 12.8125C17.5533 11.2083 18.4283 9.13542 20.1783 6.59375C21.9283 4.05208 23.7721 2.375 25.7096 1.5625Z" fill="white"/>
</svg>
