<svg width="46" height="40" viewBox="0 0 46 40" fill="none" xmlns="http://www.w3.org/2000/svg">
<path d="M15.7668 20.7202C15.7752 20.7514 15.7837 20.7806 15.7989 20.8098C15.8035 20.8193 15.8035 20.8297 15.8092 20.8391L17.3158 23.3514C17.5318 23.7118 17.9101 23.9589 18.3281 24.0127C18.3856 24.0202 18.4432 24.0231 18.4998 24.0231C18.8366 24.0231 19.1545 23.8966 19.3941 23.6627C19.6186 23.4438 19.9139 23.3231 20.2272 23.3231H25.847C26.1319 23.3231 26.4083 23.4259 26.6243 23.6117C26.9413 23.8853 27.3583 23.9967 27.7706 23.9193C28.18 23.84 28.5262 23.5825 28.7196 23.2108L29.9668 20.8146C29.9752 20.7985 29.9752 20.7806 29.9809 20.7646C29.9847 20.7561 29.9941 20.7523 29.996 20.7429L32.5168 13.0297C32.846 12.0221 33.78 11.3448 34.8404 11.3448H39.7941C40.8545 11.3448 41.7875 12.0221 42.1168 13.0297C42.1979 13.2778 42.463 13.4155 42.712 13.3316C42.9592 13.2514 43.0941 12.9844 43.013 12.7372C42.5573 11.34 41.263 10.4014 39.7941 10.4014H34.8404C33.3705 10.4014 32.0771 11.34 31.6205 12.7372L29.1121 20.4127L27.8828 22.7749C27.8017 22.9316 27.6658 22.9787 27.5922 22.9929C27.4639 23.0155 27.3385 22.9815 27.2404 22.8976C26.8526 22.5636 26.3583 22.3797 25.847 22.3797H20.2272C19.6658 22.3797 19.1356 22.5957 18.7347 22.9882C18.6422 23.0797 18.5309 23.0882 18.4488 23.0768C18.3149 23.0599 18.1932 22.9806 18.1243 22.8655L16.6856 20.4655V13.74C16.6856 11.8995 15.1875 10.4014 13.347 10.4014H9.22902C8.96772 10.4014 8.75732 10.6127 8.75732 10.8731C8.75732 11.1344 8.96772 11.3448 9.22902 11.3448H13.347C14.6668 11.3448 15.7422 12.4193 15.7422 13.74V20.5967C15.7422 20.608 15.7469 20.6174 15.7479 20.6287C15.7498 20.6599 15.7583 20.6891 15.7668 20.7202Z" fill="white"/>
<path d="M20.1577 16.8109C20.1577 18.3986 21.4492 19.6901 23.037 19.6901C24.6247 19.6901 25.9162 18.3986 25.9162 16.8109C25.9162 15.2231 24.6247 13.9316 23.037 13.9316C21.4492 13.9316 20.1577 15.2231 20.1577 16.8109ZM24.9728 16.8109C24.9728 17.8779 24.1049 18.7467 23.037 18.7467C21.969 18.7467 21.1011 17.8779 21.1011 16.8109C21.1011 15.7429 21.969 14.875 23.037 14.875C24.1049 14.875 24.9728 15.7429 24.9728 16.8109Z" fill="white"/>
<path d="M3.14817 26.0278H4.10852C4.3689 26.0278 4.58022 25.8165 4.58022 25.5561C4.58022 25.2958 4.3689 25.0844 4.10852 25.0844H3.14817C2.10948 25.0844 1.2642 24.2391 1.2642 23.1995V13.7401C1.2642 12.4193 2.33873 11.3457 3.65948 11.3457H5.64816C5.90946 11.3457 6.11986 11.1344 6.11986 10.874C6.11986 10.6127 5.90946 10.4023 5.64816 10.4023H3.65948C1.81798 10.4023 0.320801 11.8995 0.320801 13.7401V23.1995C0.320801 24.759 1.58872 26.0278 3.14817 26.0278Z" fill="white"/>
<path d="M8.54668 8.26527C10.758 8.26527 12.557 6.46243 12.557 4.24639C12.557 2.0294 10.758 0.226562 8.54668 0.226562C6.3297 0.226562 4.52686 2.0294 4.52686 4.24639C4.52686 6.46243 6.3297 8.26527 8.54668 8.26527ZM8.54668 1.16996C10.2372 1.16996 11.6136 2.55016 11.6136 4.24639C11.6136 5.94262 10.2372 7.32187 8.54668 7.32187C6.85045 7.32187 5.47025 5.94262 5.47025 4.24639C5.47025 2.55016 6.85045 1.16996 8.54668 1.16996Z" fill="white"/>
<path d="M43.6128 16.0895C43.3647 16.1697 43.2298 16.4367 43.3109 16.6839L44.6373 20.7433C44.8043 21.2528 44.7562 21.7933 44.5033 22.266C44.2505 22.7377 43.8269 23.0773 43.3119 23.2207L42.7534 23.3764C42.5024 23.4461 42.3552 23.7056 42.4251 23.9565C42.4826 24.166 42.6722 24.3028 42.8788 24.3028C42.9213 24.3028 42.9637 24.2971 43.0052 24.2858L43.5647 24.1292C44.3307 23.916 44.96 23.4122 45.3354 22.7112C45.7109 22.0094 45.7817 21.2065 45.5345 20.4509L44.2071 16.3914C44.1269 16.1443 43.8628 16.0094 43.6128 16.0895Z" fill="white"/>
<path d="M37.3216 8.26527C39.5329 8.26527 41.332 6.46243 41.332 4.24639C41.332 2.0294 39.5329 0.226562 37.3216 0.226562C35.1055 0.226562 33.3027 2.0294 33.3027 4.24639C33.3027 6.46243 35.1055 8.26527 37.3216 8.26527ZM37.3216 1.16996C39.0131 1.16996 40.3886 2.55016 40.3886 4.24639C40.3886 5.94262 39.0131 7.32187 37.3216 7.32187C35.6254 7.32187 34.2461 5.94262 34.2461 4.24639C34.2461 2.55016 35.6254 1.16996 37.3216 1.16996Z" fill="white"/>
<path d="M19.544 26.4785C19.2836 26.4785 19.0723 26.6899 19.0723 26.9502V37.0483C19.0723 38.4521 20.2147 39.5946 21.6185 39.5946H24.4553C25.859 39.5946 27.0015 38.4521 27.0015 37.0483V26.9502C27.0015 26.6899 26.7911 26.4785 26.5298 26.4785C26.2694 26.4785 26.0581 26.6899 26.0581 26.9502V37.0483C26.0581 37.9323 25.3392 38.6512 24.4553 38.6512H21.6185C20.7345 38.6512 20.0157 37.9323 20.0157 37.0483V26.9502C20.0157 26.6899 19.8043 26.4785 19.544 26.4785Z" fill="#E77051"/>
<path d="M10.3221 39.3939C12.0023 39.3939 13.3692 38.027 13.3692 36.3468V30.726C13.3692 30.4656 13.1589 30.2543 12.8975 30.2543C12.6372 30.2543 12.4258 30.4656 12.4258 30.726V36.3468C12.4258 37.5071 11.4824 38.4505 10.3221 38.4505H6.68338C5.52394 38.4505 4.57963 37.5071 4.57963 36.3468V20.21C4.57963 19.9487 4.36831 19.7383 4.10793 19.7383C3.84755 19.7383 3.63623 19.9487 3.63623 20.21V36.3468C3.63623 38.027 5.00322 39.3939 6.68338 39.3939H10.3221Z" fill="#E77051"/>
<path d="M12.4263 20.21V26.6128C12.4263 26.8732 12.6376 27.0845 12.898 27.0845C13.1583 27.0845 13.3697 26.8732 13.3697 26.6128V20.21C13.3697 19.9496 13.1583 19.7383 12.898 19.7383C12.6376 19.7383 12.4263 19.9496 12.4263 20.21Z" fill="#E77051"/>
<path d="M41.3125 17.4721C41.2389 17.223 40.9823 17.0777 40.7267 17.1532C40.4776 17.2258 40.3342 17.4881 40.4078 17.7381L43.8125 29.3277C43.8418 29.4409 43.8172 29.5579 43.7465 29.6494C43.6757 29.7409 43.5682 29.7938 43.4521 29.7938H41.6917C40.8286 29.7938 40.1257 30.4966 40.1257 31.3608V37.1721C40.1257 38.0872 39.3814 38.8306 38.4672 38.8306H36.1663C35.2521 38.8306 34.5078 38.0872 34.5078 37.1721V31.3608C34.5078 30.4966 33.805 29.7938 32.9417 29.7938H31.1814C31.0653 29.7938 30.9578 29.7409 30.887 29.6494C30.8163 29.5579 30.7918 29.4409 30.8163 29.3428L34.2257 17.7381C34.2993 17.4881 34.1559 17.2258 33.9059 17.1532C33.654 17.0768 33.3946 17.2221 33.321 17.4721L29.9068 29.0919C29.8049 29.49 29.8899 29.9032 30.1418 30.2277C30.3927 30.5513 30.771 30.7372 31.1814 30.7372H32.9417C33.2852 30.7372 33.5644 31.0164 33.5644 31.3608V37.1721C33.5644 38.607 34.7314 39.774 36.1663 39.774H38.4672C39.9012 39.774 41.0691 38.607 41.0691 37.1721V31.3608C41.0691 31.0164 41.3484 30.7372 41.6917 30.7372H43.4521C43.8625 30.7372 44.2408 30.5513 44.4927 30.2268C44.7436 29.9023 44.8285 29.489 44.7219 29.0768L41.3125 17.4721Z" fill="#E77051"/>
</svg>
