<svg width="54" height="38" viewBox="0 0 54 38" fill="none" xmlns="http://www.w3.org/2000/svg">
<path d="M51.1006 26.2325C51.1006 23.9355 49.2315 22.0674 46.9356 22.0674H46.3348C47.173 21.3047 47.7092 20.2169 47.7092 18.9967C47.7092 16.7008 45.8412 14.8328 43.5442 14.8328H42.9423C43.7806 14.07 44.3168 12.9822 44.3168 11.762C44.3168 9.46502 42.4488 7.59698 40.1528 7.59698H39.552C40.3892 6.83533 40.9265 5.74647 40.9265 4.52736C40.9265 2.23034 39.0585 0.362305 36.7615 0.362305H35.3421C35.0401 0.362305 34.795 0.607436 34.795 0.909475C34.795 1.21151 35.0401 1.45664 35.3421 1.45664H36.7615C38.4544 1.45664 39.8322 2.83442 39.8322 4.52736C39.8322 6.2203 38.4544 7.59698 36.7615 7.59698H30.0007C28.3077 7.59698 26.931 6.2203 26.931 4.52736C26.931 2.83442 28.3077 1.45664 30.0007 1.45664C30.3038 1.45664 30.5479 1.21151 30.5479 0.909475C30.5479 0.607436 30.3038 0.362305 30.0007 0.362305C27.7047 0.362305 25.8367 2.23034 25.8367 4.52736C25.8367 5.74647 26.3729 6.83533 27.2101 7.59698H26.6093C24.3123 7.59698 22.4442 9.46502 22.4442 11.762C22.4442 12.9822 22.9804 14.07 23.8187 14.8328H23.218C20.9209 14.8328 19.0529 16.7008 19.0529 18.9967C19.0529 20.2169 19.5902 21.3047 20.4273 22.0674H19.8255C19.171 22.0674 18.544 22.2152 17.9618 22.5074C17.6915 22.642 17.5832 22.9714 17.7178 23.2417C17.8535 23.512 18.184 23.6203 18.4521 23.4846C18.8799 23.2712 19.3429 23.1618 19.8255 23.1618H23.218H43.5442H46.9356C48.6285 23.1618 50.0062 24.5395 50.0062 26.2325C50.0062 27.9255 48.6285 29.3021 46.9356 29.3021H19.8255C19.5234 29.3021 19.2783 29.5473 19.2783 29.8493C19.2783 30.1524 19.5234 30.3965 19.8255 30.3965H46.9356H49.1964C50.8894 30.3965 52.2672 31.7742 52.2672 33.4672C52.2672 35.1601 50.8894 36.5379 49.1964 36.5379H17.5657C16.7745 36.5379 16.0237 36.238 15.4514 35.6942C15.2336 35.4862 14.8856 35.495 14.6777 35.7138C14.4698 35.9327 14.4785 36.2796 14.6974 36.4875C15.4744 37.2251 16.4921 37.6322 17.5657 37.6322H49.1964C51.4935 37.6322 53.3615 35.7642 53.3615 33.4672C53.3615 31.3321 51.7397 29.5877 49.6681 29.3503C50.5381 28.5864 51.1006 27.4789 51.1006 26.2325ZM23.5386 11.762C23.5386 10.0691 24.9163 8.69132 26.6093 8.69132H30.0007H36.7615H40.1528C41.8447 8.69132 43.2225 10.0691 43.2225 11.762C43.2225 13.455 41.8447 14.8328 40.1528 14.8328H26.6093C24.9163 14.8328 23.5386 13.455 23.5386 11.762ZM23.218 22.0674C21.525 22.0674 20.1472 20.6897 20.1472 18.9967C20.1472 17.3038 21.525 15.9271 23.218 15.9271H26.6093H40.1528H43.5442C45.2371 15.9271 46.6149 17.3038 46.6149 18.9967C46.6149 20.6897 45.2371 22.0674 43.5442 22.0674H23.218Z" fill="#ACACAC"/>
<path d="M10.4152 37.6377C12.5765 37.6377 14.6634 36.922 16.3946 35.5694C18.4487 33.9651 19.7553 31.6549 20.0749 29.0657C20.3955 26.4754 19.6864 23.9158 18.0777 21.8573C16.4745 19.8065 14.1742 18.5032 11.6003 18.1902C10.6406 18.0698 9.67537 18.0906 8.72985 18.2537C8.43222 18.304 8.2319 18.5874 8.28333 18.8851C8.33483 19.1828 8.61383 19.383 8.91586 19.3316C9.75419 19.1871 10.611 19.1696 11.4657 19.2758C13.7507 19.5548 15.7927 20.7104 17.2154 22.5314C18.6446 24.359 19.2738 26.6308 18.9893 28.9311C18.7047 31.2314 17.5447 33.2822 15.7205 34.7071C13.8984 36.1319 11.6342 36.76 9.33499 36.4766C7.03584 36.1932 4.98609 35.0299 3.56346 33.2034C2.1419 31.377 1.51485 29.1073 1.79938 26.8103C2.05661 24.73 3.05349 22.816 4.60857 21.4218C4.83293 21.2204 4.85263 20.8735 4.65018 20.6492C4.44773 20.4237 4.10188 20.404 3.87752 20.6065C2.12767 22.178 1.00274 24.3327 0.713795 26.6757C0.393188 29.2627 1.09906 31.8191 2.70002 33.8754C4.30326 35.9338 6.61123 37.2426 9.2004 37.5622C9.60644 37.6125 10.0113 37.6377 10.4152 37.6377Z" fill="#CE6044"/>
</svg>
