<svg width="34" height="46" viewBox="0 0 34 46" fill="none" xmlns="http://www.w3.org/2000/svg">
<path d="M33.1643 9.50743C33.1417 9.4282 33.1068 9.35554 33.0511 9.29894L24.7209 0.968789C24.6634 0.912188 24.5889 0.877236 24.5087 0.854607C24.487 0.848965 24.4681 0.845164 24.4464 0.842343C24.4257 0.839521 24.4077 0.830078 24.387 0.830078H2.55111C1.59076 0.830078 0.810547 1.61121 0.810547 2.5716V12.7688C0.810547 13.0292 1.02095 13.2405 1.28224 13.2405C1.54262 13.2405 1.75394 13.0292 1.75394 12.7688V2.5716C1.75394 2.13197 2.11152 1.77347 2.55111 1.77347H23.9153V8.41594C23.9153 9.57066 24.854 10.5093 26.036 10.5093H26.0379L32.2464 10.1348V43.4244C32.2464 43.8669 31.886 44.2263 31.4445 44.2263H2.55491C2.11339 44.2263 1.75394 43.8669 1.75394 43.4244V16.9943C1.75394 16.7329 1.54262 16.5226 1.28224 16.5226C1.02095 16.5226 0.810547 16.7329 0.810547 16.9943V43.4244C0.810547 44.3867 1.59263 45.1697 2.55491 45.1697H31.4445C32.4068 45.1697 33.1898 44.3867 33.1898 43.4244V9.6329C33.1898 9.61027 33.1794 9.59047 33.1766 9.56784C33.1738 9.54705 33.17 9.52724 33.1643 9.50743ZM26.0096 9.56686C25.3747 9.56686 24.8587 9.05082 24.8587 8.41594V2.44048L31.6436 9.22535L26.0096 9.56686Z" fill="white"/>
<path d="M8.31008 29.8176C8.0497 29.8176 7.83838 30.029 7.83838 30.2893V37.9554C7.83838 38.2167 8.0497 38.4271 8.31008 38.4271H26.0978C26.3591 38.4271 26.5695 38.2167 26.5695 37.9554V24.4912C26.5695 24.2309 26.3591 24.0195 26.0978 24.0195H8.31008C8.0497 24.0195 7.83838 24.2309 7.83838 24.4912V27.1111C7.83838 27.3724 8.0497 27.5828 8.31008 27.5828C8.57043 27.5828 8.78178 27.3724 8.78178 27.1111V24.9629H25.6261V37.4837H8.78178V30.2893C8.78178 30.029 8.57043 29.8176 8.31008 29.8176Z" fill="white"/>
<path d="M6.2134 24.9629H28.187C28.4474 24.9629 28.6587 24.7516 28.6587 24.4912V19.2667C28.6587 19.0054 28.4474 18.795 28.187 18.795H26.9408C26.6804 18.795 26.4691 19.0054 26.4691 19.2667C26.4691 19.5271 26.6804 19.7384 26.9408 19.7384H27.7153V24.0195H6.6851V19.7384H23.6945C23.9549 19.7384 24.1662 19.5271 24.1662 19.2667C24.1662 19.0054 23.9549 18.795 23.6945 18.795H21.3332C22.1351 18.5243 22.8445 18.1988 23.2209 17.8224C24.4832 16.5601 24.4832 14.5063 23.2209 13.245C21.9587 11.9828 19.9049 11.9828 18.6436 13.245C18.0124 13.8762 17.5257 15.4347 17.2002 16.8054C16.8747 15.4347 16.3879 13.8762 15.7568 13.245C14.4955 11.9837 12.4417 11.9828 11.1794 13.245C10.57 13.8535 10.2351 14.6668 10.2351 15.5337C10.2351 16.4007 10.57 17.213 11.1794 17.8224C11.5558 18.1988 12.2653 18.5243 13.0672 18.795H6.2134C5.95302 18.795 5.7417 19.0054 5.7417 19.2667V24.4912C5.7417 24.7516 5.95302 24.9629 6.2134 24.9629ZM19.3106 13.912C19.7577 13.4648 20.3445 13.2412 20.9323 13.2412C21.5191 13.2412 22.1068 13.4648 22.5539 13.912C23.4483 14.8063 23.4483 16.261 22.5539 17.1554C21.9266 17.7828 19.5124 18.3837 17.7719 18.6941C18.0823 16.9535 18.6832 14.5394 19.3106 13.912ZM11.8464 17.1554C11.4153 16.7243 11.1785 16.1488 11.1785 15.5337C11.1785 14.9186 11.4153 14.3432 11.8464 13.912C12.2936 13.4648 12.8813 13.2412 13.4681 13.2412C14.0549 13.2412 14.6426 13.4648 15.0898 13.912C15.7172 14.5394 16.3181 16.9535 16.6285 18.6941C14.8889 18.3847 12.4747 17.7837 11.8464 17.1554Z" fill="#B7563D"/>
</svg>
