<svg width="16" height="16" viewBox="0 0 16 16" fill="none" xmlns="http://www.w3.org/2000/svg">
<path d="M12.6864 5.68944C12.6894 5.55091 12.6492 5.41486 12.5714 5.30023C12.4936 5.18559 12.3819 5.09805 12.252 5.04979C12.1221 5.00153 11.9804 4.99494 11.8466 5.03093C11.7128 5.06693 11.5936 5.14372 11.5054 5.25064L8.01063 9.33007L4.51707 5.25064C4.46271 5.17668 4.3937 5.11474 4.3143 5.0687C4.2349 5.02266 4.14682 4.99351 4.05563 4.98308C3.96443 4.97265 3.87209 4.98116 3.78434 5.00807C3.69659 5.03499 3.61532 5.07973 3.54566 5.1395C3.476 5.19927 3.4195 5.27278 3.37957 5.35543C3.33964 5.43807 3.31721 5.52807 3.31367 5.61979C3.31013 5.71151 3.32551 5.80297 3.35896 5.88844C3.3924 5.97392 3.44314 6.05156 3.50798 6.11652L7.50412 10.7871C7.56671 10.8604 7.6444 10.9193 7.73196 10.9597C7.81952 11.0001 7.91482 11.021 8.01124 11.021C8.10767 11.021 8.20297 11.0001 8.29052 10.9597C8.37808 10.9193 8.45585 10.8604 8.51844 10.7871L12.5184 6.11652C12.6232 5.99854 12.6826 5.84721 12.6864 5.68944Z" fill="#437874"/>
</svg>
