<svg width="145" height="160" viewBox="0 0 145 160" fill="none" xmlns="http://www.w3.org/2000/svg">
<path opacity="0.5" d="M19.3939 31.5151C19.3939 23.2727 18.2626 17.2121 16 13.3333C13.7374 9.29292 9.21212 7.27272 2.42424 7.27272H0V0H65.4546C85.8182 0 102.788 2.82828 116.364 8.48485C130.101 14.1414 136.97 25.4545 136.97 42.4242C136.97 49.8586 133.98 56.8889 128 63.5152C122.182 69.9798 113.939 74.5859 103.273 77.3333C130.586 80.0808 144.242 92.8485 144.242 115.636C144.242 132.444 137.535 144.081 124.121 150.545C110.707 156.848 93.5758 160 72.7273 160H19.3939V31.5151ZM69.0909 72.4848C79.596 72.4848 87.8384 70.0606 93.8182 65.2121C99.9596 60.202 103.03 52.202 103.03 41.2121C103.03 30.0606 99.3939 22.0606 92.1212 17.2121C85.0101 12.202 76.1212 9.69697 65.4546 9.69697C61.0909 9.69697 57.697 10.0202 55.2727 10.6667L50.9091 11.3939V72.4848H69.0909ZM69.0909 150.303C82.5051 150.303 92.6869 147.394 99.6364 141.576C106.747 135.758 110.303 127.515 110.303 116.848C110.303 94.5454 96.5657 83.3939 69.0909 83.3939H50.9091V147.879C52.6869 148.525 54.303 148.929 55.7576 149.091C59.3131 149.899 63.3535 150.303 67.8788 150.303H69.0909Z" fill="white"/>
</svg>
