<svg width="24" height="24" viewBox="0 0 24 24" fill="none" xmlns="http://www.w3.org/2000/svg">
<mask id="mask0_64_458" style="mask-type:luminance" maskUnits="userSpaceOnUse" x="0" y="0" width="24" height="24">
<path d="M24 0H0V24H24V0Z" fill="white"/>
</mask>
<g mask="url(#mask0_64_458)">
<mask id="mask1_64_458" style="mask-type:luminance" maskUnits="userSpaceOnUse" x="0" y="0" width="24" height="24">
<path d="M0 3.8147e-06H24V24H0V3.8147e-06Z" fill="white"/>
</mask>
<g mask="url(#mask1_64_458)">
<path d="M6.5625 6.375C6.5625 3.37195 8.99695 0.937502 12 0.937502C15.003 0.937502 17.4375 3.37195 17.4375 6.375C17.4375 9.37805 15.003 11.8125 12 11.8125C8.99695 11.8125 6.5625 9.37805 6.5625 6.375Z" stroke="#E5969C" stroke-width="1.5" stroke-miterlimit="10" stroke-linecap="round" stroke-linejoin="round"/>
<path d="M10.1719 23.0625H2.84497C1.63091 23.0625 0.731191 21.9448 0.978645 20.7562C2.04275 15.6449 6.57289 11.8047 12 11.8047C13.9839 11.8047 15.848 12.3179 17.4667 13.2188" stroke="#E5969C" stroke-width="1.5" stroke-miterlimit="10" stroke-linecap="round" stroke-linejoin="round"/>
<path d="M20.9062 14.7188L22.6473 16.4404C23.1998 16.9869 23.2011 17.8742 22.65 18.4222L20.9062 20.1562" stroke="#E5969C" stroke-width="1.5" stroke-miterlimit="10" stroke-linecap="round" stroke-linejoin="round"/>
<path d="M22.4062 17.3917H16.101C14.5351 17.3917 13.2656 18.6611 13.2656 20.2271C13.2656 21.7931 14.5122 23.0625 16.0781 23.0625" stroke="#E5969C" stroke-width="1.5" stroke-miterlimit="10" stroke-linecap="round" stroke-linejoin="round"/>
</g>
</g>
</svg>
