<svg width="14.000000" height="14.000000" viewBox="0 0 14 14" fill="none" xmlns="http://www.w3.org/2000/svg" xmlns:xlink="http://www.w3.org/1999/xlink">
	<desc>
			Created with Pixso.
	</desc>
	<defs>
		<clipPath id="clip74_1082">
			<rect id="Frame" width="14.000000" height="14.000000" fill="white" fill-opacity="0"/>
		</clipPath>
	</defs>
	<rect id="Frame" width="14.000000" height="14.000000" fill="#FFFFFF" fill-opacity="0"/>
	<g clip-path="url(#clip74_1082)">
		<path id="Vector" d="M4.9668 5.84229C4.92578 5.8833 4.87012 5.90625 4.8125 5.90625C4.75488 5.90625 4.69922 5.8833 4.6582 5.84229C4.61719 5.80127 4.59375 5.74561 4.59375 5.6875C4.59375 5.62939 4.61719 5.57373 4.6582 5.53271C4.69922 5.4917 4.75488 5.46875 4.8125 5.46875C4.87012 5.46875 4.92578 5.4917 4.9668 5.53271C5.00781 5.57373 5.03125 5.62939 5.03125 5.6875C5.03125 5.74561 5.00781 5.80127 4.9668 5.84229ZM5.03125 5.6875L4.8125 5.6875M7.1543 5.84229C7.11328 5.8833 7.05762 5.90625 7 5.90625C6.94238 5.90625 6.88672 5.8833 6.8457 5.84229C6.80469 5.80127 6.78125 5.74561 6.78125 5.6875C6.78125 5.62939 6.80469 5.57373 6.8457 5.53271C6.88672 5.4917 6.94238 5.46875 7 5.46875C7.05762 5.46875 7.11328 5.4917 7.1543 5.53271C7.19531 5.57373 7.21875 5.62939 7.21875 5.6875C7.21875 5.74561 7.19531 5.80127 7.1543 5.84229ZM7.21875 5.6875L7 5.6875M9.3418 5.84229C9.30078 5.8833 9.24512 5.90625 9.1875 5.90625C9.12988 5.90625 9.07422 5.8833 9.0332 5.84229C8.99219 5.80127 8.96875 5.74561 8.96875 5.6875C8.96875 5.62939 8.99219 5.57373 9.0332 5.53271C9.07422 5.4917 9.12988 5.46875 9.1875 5.46875C9.24512 5.46875 9.30078 5.4917 9.3418 5.53271C9.38281 5.57373 9.40625 5.62939 9.40625 5.6875C9.40625 5.74561 9.38281 5.80127 9.3418 5.84229ZM9.40625 5.6875L9.1875 5.6875M2.8916 9.32568C3.52539 9.41919 4.16602 9.49072 4.8125 9.54102L4.8125 12.25L7.25293 9.80981C7.37402 9.68945 7.53613 9.62012 7.70703 9.61621C8.8457 9.58813 9.98145 9.49121 11.1074 9.32568C12.0322 9.18994 12.6875 8.3772 12.6875 7.44287L12.6875 3.93237C12.6875 2.9978 12.0322 2.18506 11.1084 2.04932C9.74805 1.84961 8.375 1.74951 7 1.75C5.60449 1.75 4.23242 1.85205 2.8916 2.04932C1.96777 2.18506 1.3125 2.99829 1.3125 3.93237L1.3125 7.44287L1.3125 7.44336C1.3125 8.37671 1.96777 9.18994 2.8916 9.32568Z" stroke="#437874" stroke-opacity="1.000000" stroke-width="1.312500" stroke-linejoin="round"/>
	</g>
</svg>
