<svg width="167" height="160" viewBox="0 0 167 160" fill="none" xmlns="http://www.w3.org/2000/svg">
<path opacity="0.5" d="M19.3939 31.5151C19.3939 23.2727 18.2626 17.2121 16 13.3333C13.7374 9.29292 9.21212 7.27272 2.42424 7.27272H0V0H65.9394C98.5859 0 123.394 6.94949 140.364 20.8485C157.495 34.5859 166.061 53.9798 166.061 79.0303C166.061 95.0303 162.424 109.172 155.152 121.455C148.04 133.576 137.374 143.03 123.152 149.818C109.091 156.606 92.1212 160 72.2424 160H19.3939V31.5151ZM71.5152 150.303C82.8283 150.303 92.8485 147.475 101.576 141.818C110.465 136.162 117.333 128 122.182 117.333C127.192 106.667 129.697 94.2222 129.697 80C129.697 65.9394 127.192 53.6566 122.182 43.1515C117.333 32.4848 110.465 24.2424 101.576 18.4242C92.6869 12.6061 82.5051 9.69697 71.0303 9.69697H69.0909C63.7576 9.69697 59.4748 10.0202 56.2424 10.6667L50.9091 11.3939V148.606L56.2424 149.576C59.6364 150.061 63.9192 150.303 69.0909 150.303H71.5152Z" fill="white"/>
</svg>
