<svg width="81" height="80" viewBox="0 0 81 80" fill="none" xmlns="http://www.w3.org/2000/svg">
<mask id="mask0_64_88" style="mask-type:luminance" maskUnits="userSpaceOnUse" x="0" y="0" width="81" height="80">
<path d="M0.833984 7.62939e-06H80.834V80H0.833984V7.62939e-06Z" fill="white"/>
</mask>
<g mask="url(#mask0_64_88)">
<path d="M55.1262 25.1029C50.4537 22.3657 48.1506 19.9032 43.6154 21.2009C36.445 23.8937 33.4776 25.497 26.542 25.0099V22.2727C26.542 14.4112 32.9728 7.98025 40.834 7.98025C48.6954 7.98025 55.1262 14.4112 55.1262 22.2727V25.1029Z" stroke="#252422" stroke-width="3.14812" stroke-miterlimit="10" stroke-linecap="round" stroke-linejoin="round"/>
<path d="M20.3857 24.6778V22.0159C20.3857 10.7528 29.5756 1.56261 40.834 1.56261C52.0968 1.56261 61.2868 10.7528 61.2868 22.0159V24.7664" stroke="#252422" stroke-width="3.14812" stroke-miterlimit="10" stroke-linecap="round" stroke-linejoin="round"/>
<path d="M26.542 25.0099V31.0555C26.542 38.9171 32.9728 45.348 40.8342 45.348C48.6954 45.348 55.1262 38.9171 55.1262 31.0555V25.0099" stroke="#252422" stroke-width="3.14812" stroke-miterlimit="10" stroke-linecap="round" stroke-linejoin="round"/>
<path d="M16.5104 78.4375H11.8779V66.24C12.0639 54.8572 25.9707 52.78 34.0004 50.127V43.5942M47.6679 43.5942V50.127C55.6976 52.78 69.6045 54.8572 69.7904 66.24V78.4375H30.5414" stroke="#252422" stroke-width="3.14812" stroke-miterlimit="10" stroke-linecap="round" stroke-linejoin="round"/>
<path d="M47.6682 50.1271L32.4018 60.4246L28.0303 51.9075" stroke="#252422" stroke-width="3.14812" stroke-miterlimit="10" stroke-linecap="round" stroke-linejoin="round"/>
<path d="M26.5417 22.8839H24.0215C21.7673 22.8839 19.9248 24.7264 19.9248 26.9808V28.6328C19.9248 30.8872 21.7673 32.7343 24.0215 32.7343H26.6436" stroke="#252422" stroke-width="3.14812" stroke-miterlimit="10" stroke-linecap="round" stroke-linejoin="round"/>
<path d="M55.1258 22.8839H57.646C59.9002 22.8839 61.7427 24.7264 61.7427 26.9808V28.6328C61.7427 30.8872 59.9002 32.7343 57.646 32.7343H55.0283" stroke="#252422" stroke-width="3.14812" stroke-miterlimit="10" stroke-linecap="round" stroke-linejoin="round"/>
<path d="M40.834 38.9968H58.461C60.0157 38.9968 61.2866 37.7257 61.2866 36.1712V30.5107" stroke="#252422" stroke-width="3.14812" stroke-miterlimit="10" stroke-linecap="round" stroke-linejoin="round"/>
<path d="M43.6549 65.9874L45.763 58.0638M35.9043 58.0638L38.0126 65.9874" stroke="#252422" stroke-width="3.14812" stroke-miterlimit="10" stroke-linecap="round" stroke-linejoin="round"/>
<path d="M35.1738 78.4375L38.0129 65.9875H43.6552L46.4987 78.4375" stroke="#252422" stroke-width="3.14812" stroke-miterlimit="10" stroke-linecap="round" stroke-linejoin="round"/>
<path d="M34 50.1271L49.2708 60.4246L53.638 51.9075" stroke="#252422" stroke-width="3.14812" stroke-miterlimit="10" stroke-linecap="round" stroke-linejoin="round"/>
<path d="M54.1826 70.6246H62.0571" stroke="#252422" stroke-width="3.14812" stroke-miterlimit="10" stroke-linecap="round" stroke-linejoin="round"/>
<path d="M23.5307 78.4375H23.5264" stroke="#252422" stroke-width="3.14812" stroke-miterlimit="10" stroke-linecap="round" stroke-linejoin="round"/>
</g>
</svg>
