<svg width="80" height="80" viewBox="0 0 80 80" fill="none" xmlns="http://www.w3.org/2000/svg">
<path d="M65.9682 20.992C65.7122 19.384 64.3042 18.184 62.6802 18.184C62.6722 18.184 62.6562 18.184 62.6482 18.184C52.5522 18.288 42.8162 21.888 35.0802 28.336C34.8402 25.504 34.0322 22.744 32.6962 20.216C30.8722 16.768 28.1282 13.888 24.7762 11.888C23.4242 11.08 21.7362 11.304 20.6802 12.432C15.6562 17.784 12.9522 24.776 13.0722 32.12C13.1842 39.192 15.9042 45.848 20.7522 50.96C20.2962 52.704 19.9522 54.48 19.7202 56.288C19.6242 57.032 20.1442 57.712 20.8962 57.816C20.9522 57.824 21.0162 57.824 21.0722 57.824C21.7442 57.824 22.3282 57.328 22.4162 56.64C22.6642 54.76 23.0322 52.92 23.5282 51.136C23.5842 51.016 23.6162 50.896 23.6322 50.768C28.5362 33.576 44.3922 21.096 62.6962 20.904C62.6962 20.904 62.6962 20.904 62.7042 20.904C62.9922 20.904 63.2642 21.136 63.3122 21.416C64.3202 27.776 64.3522 34.224 63.4082 40.592C63.3922 40.64 63.3762 40.688 63.3682 40.736C61.4882 48.808 56.2402 55.704 48.9522 59.648C42.5282 63.136 35.0482 64.048 28.0322 62.28C30.4002 60.72 32.6722 59.008 34.8402 57.144C40.5602 52.224 45.3682 46.408 49.1282 39.872C49.5042 39.224 49.2802 38.392 48.6242 38.016C47.9762 37.64 47.1442 37.864 46.7682 38.52C41.2802 48 33.4322 55.92 24.1042 61.504C24.0642 61.52 24.0322 61.544 23.9922 61.568C21.0002 63.352 17.8642 64.888 14.6002 66.168C13.9042 66.44 13.5522 67.232 13.8322 67.928C14.0402 68.464 14.5522 68.792 15.0962 68.792C15.2642 68.792 15.4322 68.76 15.5922 68.696C18.8242 67.432 21.9282 65.928 24.9042 64.192C28.2162 65.312 31.6562 65.872 35.0882 65.872C40.3202 65.872 45.5282 64.584 50.2162 62.032C58.1042 57.76 63.8162 50.32 65.9202 41.608C65.9682 41.496 66.0082 41.376 66.0242 41.248C67.0562 34.528 67.0322 27.712 65.9682 20.992ZM26.7282 37.6C26.7122 36.144 26.6482 34.792 26.5362 33.496C26.2882 30.728 25.8162 27.816 25.0962 24.576C24.9362 23.84 24.2082 23.384 23.4722 23.544C22.7362 23.704 22.2802 24.432 22.4402 25.168C23.1362 28.288 23.5922 31.088 23.8242 33.736C24.0482 36.272 24.0722 39.064 23.8882 42.496C23.0242 44.24 22.2722 46.04 21.6482 47.896C13.4562 38.12 13.7362 23.776 22.6482 14.288C22.8242 14.096 23.1282 14.072 23.3762 14.216C29.2082 17.688 32.6402 23.976 32.4242 30.728C30.2802 32.832 28.3762 35.136 26.7282 37.6Z" fill="#252422"/>
</svg>
