<svg width="80" height="80" viewBox="0 0 80 80" fill="none" xmlns="http://www.w3.org/2000/svg">
<path d="M40 4.21719V1.17188" stroke="#252422" stroke-width="2.34375" stroke-miterlimit="10" stroke-linecap="round" stroke-linejoin="round"/>
<path d="M28.0957 78.8281C27.3635 71.4433 33.169 65.1261 39.9999 65.0292C46.9537 64.9306 52.9971 71.3062 52.2582 78.8281" stroke="#252422" stroke-width="2.34375" stroke-miterlimit="10" stroke-linecap="round" stroke-linejoin="round"/>
<path d="M16.6641 78.8281C20.3187 74.2453 24.4594 68.1703 28.0344 60.5593" stroke="#252422" stroke-width="2.34375" stroke-miterlimit="10" stroke-linecap="round" stroke-linejoin="round"/>
<path d="M58.5215 72.2148C60.1602 74.688 61.7916 76.8913 63.3362 78.8281" stroke="#252422" stroke-width="2.34375" stroke-miterlimit="10" stroke-linecap="round" stroke-linejoin="round"/>
<path d="M51.9658 60.5593C53.143 63.0653 54.3814 65.4048 55.6436 67.5793" stroke="#252422" stroke-width="2.34375" stroke-miterlimit="10" stroke-linecap="round" stroke-linejoin="round"/>
<path d="M49.3205 54.3421C47.0205 48.3187 45.5361 42.5109 44.6143 37.1218" stroke="#252422" stroke-width="2.34375" stroke-miterlimit="10" stroke-linecap="round" stroke-linejoin="round"/>
<path d="M35.3859 37.1218C34.4641 42.5109 32.9797 48.3187 30.6797 54.3421" stroke="#252422" stroke-width="2.34375" stroke-miterlimit="10" stroke-linecap="round" stroke-linejoin="round"/>
<path d="M43.7623 30.9047C42.992 23.4219 43.2373 17.0469 43.6498 12.4453H36.3498C36.7623 17.0469 37.0076 23.4219 36.2373 30.9047" stroke="#252422" stroke-width="2.34375" stroke-miterlimit="10" stroke-linecap="round" stroke-linejoin="round"/>
<path d="M35.2182 6.85201L39.3399 4.39795C39.7468 4.15576 40.254 4.15576 40.6608 4.39795L44.7826 6.85201C45.5074 7.28357 45.7762 8.20045 45.3988 8.9542L43.6504 12.4459H36.3508L34.6024 8.9542C34.2244 8.20045 34.4932 7.28357 35.2182 6.85201Z" stroke="#252422" stroke-width="2.34375" stroke-miterlimit="10" stroke-linecap="round" stroke-linejoin="round"/>
<path d="M6.59473 78.8281H73.4047" stroke="#252422" stroke-width="2.34375" stroke-miterlimit="10" stroke-linecap="round" stroke-linejoin="round"/>
<path d="M33.7803 12.4458H46.22" stroke="#252422" stroke-width="2.34375" stroke-miterlimit="10" stroke-linecap="round" stroke-linejoin="round"/>
<path d="M52.8443 60.5594H27.1553C26.6375 60.5594 26.2178 60.1397 26.2178 59.6219V55.2794C26.2178 54.7616 26.6375 54.3419 27.1553 54.3419H52.8443C53.3621 54.3419 53.7818 54.7616 53.7818 55.2794V59.6219C53.7818 60.1396 53.3621 60.5594 52.8443 60.5594Z" stroke="#252422" stroke-width="2.34375" stroke-miterlimit="10" stroke-linecap="round" stroke-linejoin="round"/>
<path d="M36.9826 37.1219H34.1865C33.6687 37.1219 33.249 36.7022 33.249 36.1844V31.8419C33.249 31.3241 33.6687 30.9044 34.1865 30.9044H45.8131C46.3309 30.9044 46.7506 31.3241 46.7506 31.8419V36.1844C46.7506 36.7022 46.3309 37.1219 45.8131 37.1219H42.4514" stroke="#252422" stroke-width="2.34375" stroke-miterlimit="10" stroke-linecap="round" stroke-linejoin="round"/>
<path d="M43.5945 54.3418H36.4043L38.383 48.4848C38.4688 48.2309 38.7071 48.0598 38.9752 48.0598H41.0443C41.313 48.0598 41.5518 48.2317 41.6371 48.4867L43.5945 54.3418Z" stroke="#252422" stroke-width="2.34375" stroke-miterlimit="10" stroke-linecap="round" stroke-linejoin="round"/>
<path d="M18.7264 23.6715C18.7309 23.563 18.7307 23.4533 18.7259 23.3425C18.6418 21.4623 17.1262 19.9144 15.2481 19.7936C13.0776 19.654 11.2739 21.3731 11.2739 23.5136C11.2739 23.5786 11.2756 23.6431 11.2789 23.7073C11.2942 24.0061 11.1073 24.2826 10.8154 24.348C9.2923 24.689 8.15527 26.0517 8.16214 27.6794C8.17011 29.565 9.76027 31.064 11.6459 31.064H18.7028C20.5678 31.064 22.1426 29.5944 22.1778 27.7297C22.2107 25.9851 20.917 24.5225 19.2439 24.2937C18.9378 24.2519 18.7135 23.9801 18.7264 23.6715Z" stroke="#252422" stroke-width="2.34375" stroke-miterlimit="10" stroke-linecap="round" stroke-linejoin="round"/>
<path d="M67.9453 7.40153C67.9498 7.29293 67.9496 7.18325 67.9446 7.07247C67.8606 5.19231 66.345 3.64434 64.4668 3.52356C62.2964 3.38403 60.4926 5.10309 60.4926 7.24356C60.4926 7.30856 60.4943 7.37309 60.4976 7.43731C60.5129 7.73606 60.326 8.01262 60.0342 8.07793C58.511 8.41903 57.374 9.78168 57.3809 11.4093C57.3889 13.295 58.979 14.794 60.8646 14.794H67.9215C69.7865 14.794 71.3614 13.3243 71.3965 11.4597C71.4295 9.71512 70.1357 8.25247 68.4626 8.02372C68.1567 7.98184 67.9325 7.70996 67.9453 7.40153Z" stroke="#252422" stroke-width="2.34375" stroke-miterlimit="10" stroke-linecap="round" stroke-linejoin="round"/>
<path d="M51.2822 22.7948C51.5449 22.7998 52.1944 22.8475 52.8455 23.2884C53.2635 23.5715 53.5261 23.9109 53.6818 24.1637C53.7413 24.2604 53.8786 24.2632 53.943 24.1696C54.1074 23.9312 54.3889 23.6056 54.8325 23.357C55.456 23.0075 56.0441 23.0092 56.2805 23.0225" stroke="#252422" stroke-width="2.34375" stroke-miterlimit="10" stroke-linecap="round" stroke-linejoin="round"/>
</svg>
