<svg width="16.000000" height="15.333130" viewBox="0 0 16 15.3331" fill="none" xmlns="http://www.w3.org/2000/svg" xmlns:xlink="http://www.w3.org/1999/xlink">
	<desc>
			Created with Pixso.
	</desc>
	<defs/>
	<path id="Vector" d="M15.958 5.79419C15.8535 5.47021 15.5664 5.24011 15.2266 5.20947L10.6084 4.79016L8.78223 0.515991C8.64746 0.202759 8.34082 0 8 0C7.65918 0 7.35254 0.202759 7.21777 0.516724L5.3916 4.79016L0.773438 5.20947C0.433594 5.24084 0.147461 5.47021 0.0419922 5.79419C-0.0634766 6.11816 0.0341797 6.47351 0.291016 6.69751L3.78125 9.75891L2.75195 14.2931C2.67676 14.6265 2.80566 14.9711 3.08301 15.171C3.23145 15.2784 3.40527 15.3331 3.58105 15.3331C3.73145 15.3331 3.88184 15.2924 4.0166 15.2118L8 12.8311L11.9824 15.2118C12.2734 15.3871 12.6406 15.3711 12.917 15.171C13.1934 14.9705 13.3232 14.6257 13.2471 14.2931L12.2178 9.75891L15.709 6.69812C15.9658 6.47351 16.0635 6.11877 15.958 5.79419Z" fill="#FFC107" fill-opacity="1.000000" fill-rule="nonzero"/>
</svg>
