<svg width="11.996094" height="11.504639" viewBox="0 0 11.9961 11.5046" fill="none" xmlns="http://www.w3.org/2000/svg" xmlns:xlink="http://www.w3.org/1999/xlink">
	<desc>
			Created with Pixso.
	</desc>
	<defs/>
	<path id="Vector" d="M5.81543 0.711914C5.86914 0.675537 5.93262 0.65625 5.99805 0.65625C6.0625 0.65625 6.12598 0.675537 6.18066 0.711914C6.23438 0.748047 6.27637 0.799561 6.30078 0.859619L7.54004 3.84106C7.56348 3.89697 7.60156 3.94531 7.65039 3.98071C7.69922 4.01636 7.75781 4.0376 7.81738 4.04248L11.0361 4.30029C11.3271 4.32349 11.4453 4.68701 11.2236 4.87646L8.77148 6.97778C8.72559 7.01685 8.69141 7.06787 8.67285 7.12524C8.6543 7.18262 8.65137 7.2439 8.66504 7.30273L9.41504 10.4438C9.42969 10.5068 9.42578 10.573 9.40332 10.6338C9.38086 10.6946 9.34082 10.7473 9.28809 10.7854C9.23633 10.8235 9.17383 10.8452 9.1084 10.8477C9.04395 10.8503 8.98047 10.8335 8.9248 10.7998L6.16895 9.1167C6.11719 9.08545 6.05762 9.06885 5.99805 9.06885C5.9375 9.06885 5.87793 9.08545 5.82715 9.1167L3.07031 10.8003C3.01562 10.8342 2.95117 10.8508 2.88672 10.8484C2.82129 10.8457 2.75879 10.824 2.70703 10.7859C2.6543 10.7478 2.61426 10.6951 2.5918 10.6343C2.56934 10.5735 2.56543 10.5076 2.58008 10.4446L3.33008 7.30273C3.34375 7.2439 3.3418 7.18262 3.32227 7.12524C3.30371 7.06787 3.26953 7.01685 3.22363 6.97778L0.771484 4.87646C0.722656 4.83423 0.686523 4.77856 0.668945 4.71606C0.652344 4.65381 0.65332 4.58765 0.672852 4.52612C0.693359 4.46436 0.731445 4.41016 0.782227 4.36987C0.833008 4.32983 0.894531 4.30542 0.958984 4.30029L4.17773 4.04248C4.23828 4.0376 4.2959 4.01636 4.34473 3.98071C4.39355 3.94531 4.43164 3.89697 4.45508 3.84106L5.69434 0.859619C5.71875 0.799561 5.76074 0.748047 5.81543 0.711914Z" stroke="#E5969C" stroke-opacity="1.000000" stroke-width="1.312500" stroke-linejoin="round"/>
</svg>
