<svg width="14.998047" height="15.000000" viewBox="0 0 14.998 15" fill="none" xmlns="http://www.w3.org/2000/svg" xmlns:xlink="http://www.w3.org/1999/xlink">
	<desc>
			Created with Pixso.
	</desc>
	<defs/>
	<path id="Vector" d="M6.42969 15C6.42969 15 6.42969 15 6.42773 15C5.95898 14.9996 5.51758 14.8165 5.18555 14.4842L0.511719 9.80432C-0.169922 9.11951 -0.169922 8.00519 0.511719 7.32043L6.8125 1.00879C7.46094 0.358337 8.32617 0 9.24414 0L13.2402 0C14.2109 0 14.998 0.788452 14.998 1.75781L14.998 5.74231C14.998 6.66083 14.6406 7.52429 13.9902 8.17334L7.67188 14.486C7.33984 14.8174 6.89844 15 6.42969 15ZM9.24414 1.17188C8.63867 1.17188 8.07031 1.40796 7.64258 1.83667L1.3418 8.14832C1.11328 8.37659 1.11328 8.74792 1.3418 8.97632L6.01562 13.6562C6.125 13.7668 6.27344 13.828 6.42969 13.8281L6.42969 13.8281C6.58594 13.8281 6.73242 13.7672 6.84375 13.6569L13.1621 7.34436C13.5918 6.91663 13.8262 6.34753 13.8262 5.74231L13.8262 1.75781C13.8262 1.43469 13.5645 1.17188 13.2402 1.17188L9.24414 1.17188ZM10.75 5.94727C9.78125 5.94727 8.99219 5.15881 8.99219 4.18945C8.99219 3.22009 9.78125 2.43164 10.75 2.43164C11.7207 2.43164 12.5078 3.22009 12.5078 4.18945C12.5078 5.15881 11.7207 5.94727 10.75 5.94727ZM10.75 3.60352C10.4277 3.60352 10.1641 3.86633 10.1641 4.18945C10.1641 4.51257 10.4277 4.77539 10.75 4.77539C11.0742 4.77539 11.3359 4.51257 11.3359 4.18945C11.3359 3.86633 11.0742 3.60352 10.75 3.60352Z" fill="#437874" fill-opacity="1.000000" fill-rule="nonzero"/>
</svg>
