<svg width="55" height="55" fill="none" xmlns="http://www.w3.org/2000/svg"><path d="M42.385 34.514h0c.967.78 2.382.628 3.162-.338l-.078-.063.078.063a2.249 2.249 0 00-.338-3.162 28.02 28.02 0 00-8.65-4.74c3.498-2.69 5.758-6.919 5.758-11.665C42.317 6.5 35.718-.1 27.607-.1c-8.11 0-14.709 6.598-14.709 14.71 0 4.745 2.26 8.974 5.759 11.665A28.011 28.011 0 009.8 31.18C4.87 35.236 1.443 40.892.149 47.108a6.625 6.625 0 001.348 5.552 6.586 6.586 0 005.13 2.44h16.254a2.249 2.249 0 000-4.497H6.627a2.084 2.084 0 01-1.641-.78 2.145 2.145 0 01-.435-1.798C6.773 37.355 16.19 29.562 27.06 29.308a15.256 15.256 0 001.1 0 23.252 23.252 0 0114.226 5.206zM29.376 53.66h0a2.25 2.25 0 002.099 1.44h6.66a2.249 2.249 0 000-4.497h-1.319c3.013-3.454 3.428-5.194 3.428-6.345a5.477 5.477 0 00-5.506-5.47h-.014a5.477 5.477 0 00-5.498 5.47 2.248 2.248 0 104.497 0 .988.988 0 011-.976h.024a.99.99 0 011 .944c-.03.139-.337 1.245-2.787 3.947-1.483 1.635-2.958 2.978-2.995 3.012h0a2.25 2.25 0 00-.589 2.475zM17.395 14.61c0-5.632 4.581-10.213 10.213-10.213 5.63 0 10.212 4.581 10.212 10.212 0 5.463-4.312 9.938-9.71 10.2a28.985 28.985 0 00-1.004 0c-5.399-.262-9.711-4.736-9.711-10.2zm37.813 38.242V41.035a2.249 2.249 0 00-4.497 0v2.632a1.46 1.46 0 01-1.458 1.458 1.46 1.46 0 01-1.458-1.458v-2.632a2.249 2.249 0 00-4.497 0v2.632a5.961 5.961 0 005.955 5.954c.503 0 .99-.063 1.458-.181v3.412a2.248 2.248 0 104.497 0z" fill="#B41A1F" stroke="#B41A1F" stroke-width=".2"/></svg>