<svg width="12" height="13" fill="none" xmlns="http://www.w3.org/2000/svg"><path d="M.726 2.752a.205.205 0 01.218-.089c.18.041.354.074.546.11.824.152 1.603.296 2.54 1.233.936.937 1.081 1.716 1.234 2.54.157.849.335 1.81 1.42 2.895s2.05 1.263 2.828 1.407a.204.204 0 01.087.365 4.286 4.286 0 01-2.63.84c-1.607 0-3.369-.746-4.768-2.145C.054 7.761-.566 4.752.726 2.752zm1.765 6.865c1.951 1.952 4.633 2.562 6.454 1.537-.737-.164-1.599-.471-2.551-1.423C5.219 8.555 5.029 7.528 4.86 6.62c-.153-.826-.274-1.478-1.121-2.325-.847-.847-1.499-.967-2.324-1.12a14.835 14.835 0 01-.42-.082C-.09 4.933.523 7.65 2.491 9.617z" fill="#000"/><path d="M5.925 6.424c-.157-.848-.335-1.808-1.42-2.894-.998-.998-1.848-1.223-2.776-1.396a.205.205 0 01-.085-.366C3.616.291 6.785.86 9.017 3.092c2.136 2.136 2.762 5.138 1.486 7.136a.205.205 0 01-.219.09A12.677 12.677 0 009.7 10.2c-.824-.153-1.603-.297-2.54-1.234-.937-.938-1.082-1.716-1.235-2.542zm3.85 3.372c.152.029.303.057.457.09 1.07-1.837.452-4.546-1.506-6.504C7.408 2.063 5.75 1.357 4.25 1.357a4.021 4.021 0 00-1.952.476c.796.187 1.602.513 2.497 1.407C5.97 4.416 6.16 5.443 6.328 6.35c.153.826.274 1.478 1.121 2.325.848.848 1.5.968 2.326 1.121z" fill="#000"/></svg>