<svg width="17" height="13" fill="none" xmlns="http://www.w3.org/2000/svg"><path d="M15.938.125H1.062C.478.125 0 .602 0 1.188v10.624c0 .586.477 1.063 1.063 1.063h14.874c.586 0 1.063-.477 1.063-1.063V1.188c0-.586-.477-1.063-1.063-1.063z" fill="#F3F3F3"/><path d="M17 1.188v10.624c0 .587-.477 1.063-1.063 1.063h-1.593c.586 0 1.062-.476 1.062-1.063V1.188c0-.587-.476-1.063-1.062-1.063h1.594C16.523.125 17 .601 17 1.188z" fill="#F3F3F3"/><path d="M16.734 2.25H.266A.266.266 0 000 2.516V4.64c0 .146.119.265.266.265h16.468A.266.266 0 0017 4.641V2.516a.266.266 0 00-.266-.266z" fill="#302F2C" fill-opacity=".5"/><path d="M17 2.516V4.64a.266.266 0 01-.266.265h-1.593a.266.266 0 00.265-.265V2.516a.266.266 0 00-.265-.266h1.593c.147 0 .266.119.266.266z" fill="#44454E" fill-opacity=".5"/><path d="M7.172 7.297H1.594a.266.266 0 010-.531h5.578a.266.266 0 010 .53zM5.578 8.89H1.594a.266.266 0 010-.53h3.984a.266.266 0 010 .53zm9.828 2.391H1.594a.266.266 0 110-.531h13.812a.266.266 0 110 .531z" fill="#EDEBFD"/><path d="M14.244 9.156H12.85a.631.631 0 01-.631-.63V7.13c0-.348.283-.631.63-.631h1.395c.348 0 .631.283.631.63v1.395a.631.631 0 01-.63.631z" fill="#302F2C" fill-opacity=".5"/><path d="M14.244 6.5h-.797c.348 0 .631.283.631.63v1.395a.631.631 0 01-.63.631h.796a.631.631 0 00.631-.63V7.13a.631.631 0 00-.63-.631z" fill="#302F2C" fill-opacity=".5"/></svg>