<svg width="22" height="19" fill="none" xmlns="http://www.w3.org/2000/svg"><path d="M1.23 9.027a2 2 0 011.932-2.512H18.84a2 2 0 011.934 2.512l-2.07 7.806a2 2 0 01-1.934 1.487H5.233a2 2 0 01-1.934-1.487L1.23 9.027z" fill="#131313" fill-opacity=".95"/><path d="M3.162 7.015H18.84a1.5 1.5 0 011.45 1.884l-2.07 7.805a1.5 1.5 0 01-1.45 1.116H5.233a1.5 1.5 0 01-1.45-1.116L1.713 8.9a1.5 1.5 0 011.45-1.884z" stroke="#131313" stroke-opacity=".95"/><path d="M5 7.037h12l-1.448-4.609a2 2 0 00-1.908-1.4H8.356a2 2 0 00-1.908 1.4L5 7.038z" stroke="#131313" stroke-opacity=".95"/><rect x="11.326" y="10" width="4.006" height="1" rx=".5" transform="rotate(90 11.326 10)" fill="#FBF8F6"/><rect x="15.229" y="10" width="4.006" height="1" rx=".5" transform="rotate(90 15.229 10)" fill="#FBF8F6"/><rect x="7" y="10" width="4" height="1" rx=".5" transform="rotate(90 7 10)" fill="#FBF8F6"/></svg>