<svg width="35" height="51" fill="none" xmlns="http://www.w3.org/2000/svg"><path d="M4.701 12.233a9.19 9.19 0 01-3.422-7.15h0c0-.56.452-1.016 1.013-1.016h9.556v-2.25c0-.561.453-1.017 1.013-1.017h3.252c.492 0 .901.351.994.817h13.641c.56 0 1.013.456 1.013 1.016v2.25h2.44v2.034h-3.454c-.56 0-1.013-.456-1.013-1.017V3.65H17.126v.417h9.557c.56 0 1.013.456 1.013 1.016v0a9.19 9.19 0 01-3.419 7.15h.423c.173 0 .346.018.517.052l-.036.179.036-.18a2.65 2.65 0 012.07 3.119h0l-.976 4.9h0a2.63 2.63 0 01-.626 1.24c.279.396.443.864.472 1.351h0l1.435 24.5h0c.003.052.005.104.005.155L4.7 12.233zm0 0h-.426 0a2.645 2.645 0 00-2.637 2.653L4.7 12.233zm-2.036 8.071h0l-.976-4.9h0l.196-.04.78 4.94zm0 0c.094.463.31.891.626 1.24a2.634 2.634 0 00-.472 1.35v.001m-.154-2.59l.154 2.59m0 0l-1.435 24.5h0l1.435-24.5zM4.016 50.2h0a2.6 2.6 0 01-.152-.005s0 0 0 0l.012-.2.14.205zm0 0h20.942m-20.942 0h20.943m0 0a2.645 2.645 0 002.638-2.65l-2.639 2.65zM4.639 23.001a.815.815 0 01.812-.768h18.072c.431 0 .788.337.813.769M4.64 23l-.04.666h.2M4.64 23l.2.012-.04.654M4.64 23l.2.012a.615.615 0 01.611-.58v-.2.2h18.072c.325 0 .594.253.614.58M4.8 23.667l-.012.2h19.397l-.012-.2m-19.373 0h19.373m0 0h.2l-.038-.665m-.162.665l-.037-.653m.2-.012l-.2.012m.2-.012l-.2.011m0 0h0m0 0h0m.563-8.746h0H4.275a.606.606 0 00-.123.012h0a.617.617 0 00-.478.728h0l.975 4.9s0 0 0 0c.06.288.311.493.602.493h18.472a.613.613 0 00.602-.493l.976-4.9h0a.623.623 0 00.012-.124l-.613-.616zm0 0c.338 0 .613.275.613.616l-.613-.616zm.87 33.247v.002a.605.605 0 01-.165.456l-.002.002a.6.6 0 01-.444.193h0H4.015h0a.615.615 0 01-.614-.616h-.2.2v-.037h0L4.683 25.7h19.61l1.278 21.814zM13.874 2.834H15.1v1.233h-1.226V2.833zm-3.452 9.4c-3.548-.005-6.54-2.628-7.045-6.134h22.22c-.504 3.506-3.497 6.129-7.045 6.133h-8.13z" fill="#B41A1F" stroke="#B41A1F" stroke-width=".4"/><path d="M14.496 39.184h0-.009c-1.426 0-2.686-.253-3.64-.628-.63-.249-1.11-.544-1.423-.843.095.04.189.085.28.133h0l.003.001a5.762 5.762 0 005.222 0h.001a3.756 3.756 0 013.45 0h.001c.195.1.394.188.597.267a8.366 8.366 0 01-4.482 1.07zm4.772-3.164h0-.002a5.767 5.767 0 00-5.222 0h0-.001a3.752 3.752 0 01-3.449 0h0a6.362 6.362 0 00-.593-.267 8.373 8.373 0 014.478-1.07h.008c1.427 0 2.687.252 3.64.628.633.249 1.114.545 1.426.845a4.015 4.015 0 01-.285-.136zm-4.78-3.37c-2.112 0-3.977.444-5.321 1.194-1.342.748-2.197 1.824-2.197 3.09 0 1.264.855 2.34 2.197 3.089 1.344.75 3.21 1.194 5.32 1.194 2.111 0 3.976-.444 5.32-1.194 1.343-.749 2.198-1.825 2.198-3.09s-.855-2.34-2.197-3.09c-1.345-.75-3.21-1.193-5.32-1.193z" fill="#B41A1F" stroke="#B41A1F" stroke-width=".4"/></svg>