<svg width="54" height="54" fill="none" xmlns="http://www.w3.org/2000/svg"><g clip-path="url(#clip0)" fill="#B41A1F"><path d="M49.798 42.36c-3.68-6.873-5.395-12.714-5.395-18.382V22.36h1.582a4.751 4.751 0 004.746-4.746V14.45a4.751 4.751 0 00-4.746-4.746h-2.694L29.55.742A4.733 4.733 0 0027 0c-.906 0-1.787.256-2.548.742L10.71 9.703H8.016A4.751 4.751 0 003.27 14.45v3.164a4.751 4.751 0 004.746 4.746h1.582v1.62c0 5.667-1.714 11.508-5.395 18.38a7.91 7.91 0 00-.826 5.047C3.988 51.166 7.49 54 11.52 54h30.964c4.03 0 7.53-2.835 8.141-6.594a7.91 7.91 0 00-.826-5.046zM26.158 3.406a1.584 1.584 0 011.684 0L37.5 9.703H16.502l9.657-6.297zM6.434 17.613V14.45c0-.872.71-1.582 1.582-1.582h37.969c.872 0 1.582.71 1.582 1.582v3.164c0 .873-.71 1.582-1.582 1.582H8.016c-.872 0-1.582-.71-1.582-1.582zm41.067 29.285c-.365 2.245-2.523 3.938-5.018 3.938H11.519c-2.496 0-4.654-1.693-5.019-3.938a4.77 4.77 0 01.493-3.045c3.936-7.35 5.77-13.665 5.77-19.875V22.36h28.476v1.62c0 6.209 1.833 12.524 5.77 19.874a4.78 4.78 0 01.492 3.045z"/><path d="M27 25.523c-5.234 0-9.492 4.968-9.492 11.075 0 5.992 4.168 11.074 9.492 11.074 5.234 0 9.492-4.968 9.492-11.074 0-5.993-4.167-11.075-9.492-11.075zm-6.328 11.075c0-4.348 2.82-7.887 6.295-7.91-.15 3.456-.793 5.384-1.468 7.41-.663 1.989-1.344 4.035-1.578 7.407-1.936-1.354-3.25-3.942-3.25-6.907zm6.361 7.909c.15-3.456.793-5.383 1.468-7.41.663-1.989 1.344-4.035 1.578-7.407 1.937 1.355 3.25 3.942 3.25 6.908 0 4.347-2.822 7.886-6.296 7.909z"/></g><defs><clipPath id="clip0"><path fill="#fff" d="M0 0h54v54H0z"/></clipPath></defs></svg>