<svg width="40" height="52" fill="none" xmlns="http://www.w3.org/2000/svg"><path d="M39.34 15.21l-4.724-6.214v-7.77c0-.325-.13-.637-.364-.867A1.253 1.253 0 0033.374 0H6.86c-.33 0-.646.13-.88.36a1.22 1.22 0 00-.363.867v7.769L.895 15.21a1.23 1.23 0 00-.249.736v34.346c0 .326.131.638.364.868.234.23.55.359.88.359h36.455c.33 0 .646-.13.879-.36.233-.23.364-.541.364-.867V15.947a1.21 1.21 0 00-.249-.736zm-7.21-7.032h-8.285V2.453h8.286v5.725zM21.36 2.453v5.725h-2.486V2.453h2.486zm-13.257 0h8.286v5.725H8.103V2.453zm-.621 8.178h23.406l-3.107 4.089H4.375l3.107-4.089zm-4.35 6.542H27.16v31.894H3.132V17.173zm33.97 31.894h-7.457V16.355l3.729-4.906 3.728 4.906v32.712z" fill="#B41A1F"/><path d="M15.145 22.08c-.198 0-.393.004-.585.014l-.024.001c-2.841.142-4.974 1.294-6.344 3.43-1.175 1.831-1.747 4.316-1.747 7.595s.572 5.763 1.747 7.595C9.658 43 11.997 44.16 15.145 44.16c.173 0 .342-.004.51-.011h.003c2.89-.12 5.055-1.274 6.44-3.434 1.175-1.832 1.747-4.316 1.747-7.595 0-3.28-.572-5.764-1.747-7.595-1.466-2.286-3.805-3.445-6.953-3.445zm-4.853 17.323C9.389 37.995 8.93 35.88 8.93 33.12c0-2.762.458-4.876 1.36-6.283a4.646 4.646 0 012.288-1.878c-.673 2.282-.639 5.274 1.5 8.792 1.718 2.824 1.992 5.495.821 7.95-2.14-.053-3.65-.805-4.608-2.298zm9.706 0a4.646 4.646 0 01-2.287 1.878c.673-2.283.639-5.275-1.5-8.792-1.718-2.825-1.992-5.496-.821-7.95 2.14.052 3.65.804 4.608 2.298.903 1.407 1.361 3.521 1.361 6.283 0 2.761-.458 4.875-1.36 6.283z" fill="#B41A1F"/></svg>