<svg width="55" height="42" fill="none" xmlns="http://www.w3.org/2000/svg"><g clip-path="url(#clip0)"><path d="M25.692 10.744c.402-.596.89-1.273 1.378-1.86C30.2 5.129 34.274 2.41 38.563 1.47c4.393-1.046 8.481-.21 11.524 2.308l.007.006h0l.01.01.004.004.005.004.008.009.008.007h0v.001h.001v.001l.002.002.002.002h.001l.001.002.004.003.001.002.002.002.007.006h0v.001h0l.001.001.002.002.003.003.011.011.002.002h0l.001.001.003.003.003.002h0v.001h0l.002.002.01.01.01.01.02.02.01.01.002.001h0l.002.002.001.002h0l.001.001.002.002.001.001.003.003.007.006.006.007.004.003.001.002.002.002h.001c.003.004.001.002 0 0l.001.002.002.002.004.003.01.01c.026.006.05.016.072.032a.27.27 0 01.069.073l.024.039c.02.031.036.058.067.089l-.07.07c2.703 2.496 4.159 6.136 4.055 10.399m-28.803-3.924l-8.735 30.024h.104c4.263-.52 7.902-3.432 10.19-7.903 2.08 1.456 4.575 2.184 7.175 2.184 5.2 0 10.814-2.704 14.974-7.8 3.119-3.743 4.887-8.214 5.095-12.581m-28.803-3.924c-3.027-4.518-7.386-6.99-11.96-6.782h-.001 0-.001 0-.002 0-.001 0-.002 0-.001 0-.001 0-.002 0-.001 0-.001 0-.001 0-.001 0-.002 0-.001 0-.001 0-.001 0-.001 0-.001 0-.001 0-.001 0-.001 0-.001 0-.001 0-.001 0-.001 0-.001 0-.001 0-.001 0-.001 0-.001 0-.001 0-.001 0-.001 0-.001 0-.001 0-.001 0-.001 0-.001 0-.001 0-.001 0-.001 0-.001 0-.001 0-.001 0-.001 0-.001 0-.001 0-.001 0-.001 0-.001 0-.001 0-.001 0-.001 0-.001 0-.001 0-.001 0-.001 0-.001 0-.001 0-.001 0-.001 0-.001 0-.001 0-.001 0-.001 0-.001 0-.001 0-.001 0-.001 0-.001 0-.001 0-.001 0-.001 0-.001 0-.001 0-.001 0-.001 0-.001 0-.001 0-.001 0-.001 0-.001 0-.001 0-.001 0-.001 0-.001 0-.001 0-.001 0-.001 0-.001 0-.001 0-.001 0-.001 0-.001 0-.001 0-.001 0-.001 0-.001 0-.001 0-.001 0-.001 0-.001 0-.001 0-.001 0-.001 0-.001 0-.001 0-.001 0-.001 0-.001 0-.001 0-.001 0-.001 0-.001 0-.001 0-.001 0-.001 0-.001 0-.001 0-.001 0-.001 0-.001 0-.001 0-.001 0-.001 0-.001 0-.001 0-.001 0-.001 0-.001 0-.001 0-.001 0-.001 0-.001 0-.001 0-.001 0-.001 0-.001 0-.001 0-.001 0-.001 0-.001 0-.001 0-.001 0-.001 0-.001 0-.001 0-.001 0-.001 0-.001 0-.001 0-.001 0-.001 0-.001 0-.001 0-.001 0-.001 0-.001 0-.001 0-.001 0-.001 0-.001 0-.001 0-.001 0-.001 0-.001 0-.001 0-.001 0-.001 0-.001 0-.001 0-.001 0-.001 0-.001 0-.002 0-.001 0-.001 0-.001 0-.001 0-.001 0-.001 0-.001 0-.001 0-.001 0-.002 0-.001 0-.001 0-.001 0-.002 0-.001 0-.001 0-.002 0-.001 0-.002 0-.001 0-.002 0-.001 0-.002 0-.002 0-.001 0-.002 0-.002 0-.002 0-.001 0-.002 0-.002 0-.002 0-.002 0-.001 0-.002 0-.002 0-.002 0-.002 0-.001 0-.002 0-.002 0-.001 0-.002 0-.002 0-.001 0-.002 0-.001 0-.002 0-.001 0-.002 0-.001 0-.002 0-.001 0-.002 0-.002 0-.002 0-.001 0-.002 0-.002 0-.002 0-.001 0-.002 0-.002 0-.002 0-.002 0-.002 0-.003 0-.002 0-.002 0-.002 0-.003 0-.002 0-.003 0-.002 0-.003 0-.002 0-.002 0-.002 0-.002 0-.004 0-.002 0-.004 0-.002 0-.002 0-.003 0-.002 0-.002 0-.003 0-.002 0-.002 0-.003 0-.002 0-.002 0-.004 0-.002 0-.002 0-.005 0-.002 0-.002 0-.005 0-.002 0-.002 0-.006 0-.002 0-.002 0-.006 0-.002 0-.002 0-.006 0-.002 0-.002 0-.002 0-.004 0-.002 0-.002 0-.002 0-.005 0-.002 0-.002 0-.002 0-.005 0-.002 0-.002 0-.006 0-.002 0-.002 0-.006 0-.002 0-.002 0-.005 0-.002 0-.002 0-.005 0-.002 0-.002 0-.004 0-.002 0-.002 0-.004 0-.002 0-.002 0-.004 0-.002 0-.002 0-.003 0-.002 0-.004 0-.002 0-.002 0-.002 0-.002 0-.002 0-.002 0-.002 0-.004 0-.002 0-.003 0-.002 0-.003 0-.002 0-.002 0-.002 0-.003 0-.002 0-.002 0-.002 0-.002 0-.002 0-.002 0-.002 0-.002 0-.002 0-.001 0-.002 0-.002 0-.003 0-.002 0-.001 0-.002 0-.001 0-.002 0-.001 0-.002 0-.001 0-.002 0-.001 0-.002 0-.002 0-.001 0-.002 0-.002 0-.001 0-.002 0-.002 0-.002 0-.002 0-.002 0-.002 0-.002 0-.002 0-.002 0-.002 0-.002 0-.001 0-.002 0-.002 0V3.96l-.011.001c-3.883.42-7.339 2.728-9.744 6.493h0l-.001.001C1.054 14.22.01 18.921.532 23.828c.418 4.908 2.402 9.296 5.328 12.535l.001.002c2.824 3.032 6.177 4.607 9.744 4.607h.004c.41 0 .73 0 1.152-.104h.299v0l.013-.001 8.619-30.123zm28.803 3.924l.1.002v.003l-.1-.005zM7.57 34.775l-.004-.004-.072.07.076-.066zm40.09-8.941h-.001l.077.064-.077-.064zM5.395 11.705h0l-.085-.053.085.053zm23.492-1.34v-.001l-.077-.063.077.064z" fill="#B41A1F" stroke="#B41A1F" stroke-width=".2"/></g><defs><clipPath id="clip0"><path fill="#fff" transform="translate(.5)" d="M0 0h54v42H0z"/></clipPath></defs></svg>