<svg width="56" height="56" fill="none" xmlns="http://www.w3.org/2000/svg"><g clip-path="url(#clip0)" fill="#B41A1F" stroke="#B41A1F" stroke-width=".2"><path d="M18.955 47.794h0c.62.319 1.385.078 1.707-.545h0c.32-.62.079-1.386-.544-1.708A19.684 19.684 0 019.432 28v-2.333c0-.589.478-1.067 1.067-1.067h32.668c.588 0 1.066.478 1.066 1.067V28a19.676 19.676 0 01-10.686 17.54 1.268 1.268 0 00-.545 1.707h0a1.27 1.27 0 001.708.545C42.147 43.948 46.767 36.365 46.767 28v-2.333c0-1.985-1.616-3.6-3.6-3.6H10.5a3.604 3.604 0 00-3.6 3.6V28c0 8.363 4.62 15.948 12.055 19.795z"/><path d="M2.887 50.179h0a8.218 8.218 0 005.846 2.42h36.2a8.23 8.23 0 005.85-2.42h0L53.4 47.56a1.27 1.27 0 00-.897-2.163H1.168A1.27 1.27 0 00.27 47.56s0 0 0 0l2.616 2.618zm46.103-1.791a5.7 5.7 0 01-4.055 1.678H8.733a5.7 5.7 0 01-4.055-1.678l-.455-.455h45.221l-.454.455zm4.809-20.798h0c-1.605-1.03-3.679-.982-5.405-.653-1.73.33-3.134.945-3.418 1.074h0a1.268 1.268 0 001.051 2.308c.556-.253 1.73-.68 2.985-.903.626-.112 1.27-.172 1.862-.134.594.038 1.132.172 1.554.444h0c.753.483 1.14 1.431 1.14 2.94 0 1.132-.571 2.16-1.5 3.082-.93.921-2.21 1.728-3.61 2.414-2.8 1.372-6.057 2.25-7.87 2.596h0l-.826.163s0 0 0 0a1.266 1.266 0 00-.998 1.487h0a1.267 1.267 0 001.487.996h.001l.817-.16s0 0 0 0c.31-.06 4.055-.793 7.727-2.46 1.836-.833 3.66-1.901 5.025-3.24 1.366-1.34 2.28-2.955 2.28-4.878 0-2.37-.77-4.085-2.302-5.075zM35.995 12.456h0c-.586.732-.883 1.719-.883 2.71 0 .992.295 1.977.88 2.707l.003-5.417zm0 0c1.927-2.407 1.927-6.171 0-8.579h0m0 8.58v-8.58m0 0a1.263 1.263 0 00-1.78-.197m1.78.197l-1.78-.197m0 0a1.265 1.265 0 00-.198 1.78c.584.73.88 1.716.879 2.707 0 .992-.296 1.979-.882 2.71-1.928 2.408-1.928 6.172 0 8.58m.2-15.777l1.779 14.193a1.266 1.266 0 01-.988 2.06c-.372 0-.74-.163-.99-.477m.2-15.776s0 0 0 0l.062.078a1.163 1.163 0 011.64.182l-1.703-.26zm-.2 15.776s0 0 0 0l.078-.062-.079.062s0 0 0 0zm-7.01-8.579h0c-1.926 2.407-1.926 6.172 0 8.58a1.263 1.263 0 001.78.197h0a1.265 1.265 0 00.198-1.781c-.584-.73-.879-1.715-.879-2.707 0-.991.296-1.978.882-2.71 1.928-2.407 1.928-6.171 0-8.579a1.265 1.265 0 00-1.781-.197 1.266 1.266 0 00-.198 1.78c.585.73.881 1.716.881 2.707 0 .991-.297 1.979-.883 2.71zm-5.01 1.581h0c-.586.732-.883 1.719-.883 2.71 0 .99.296 1.977.88 2.707.44.545.35 1.343-.197 1.781h0a1.273 1.273 0 01-.79.277c-.372 0-.74-.163-.99-.477m1.98-6.998l-1.78-8.776a1.267 1.267 0 00-.198 1.779h0c.584.729.88 1.715.879 2.706 0 .992-.296 1.979-.882 2.71-1.928 2.408-1.928 6.172 0 8.58m1.981-6.999c1.927-2.407 1.927-6.171 0-8.578m0 8.578V3.88m-1.98 15.576s0 0 0 0l.078-.062-.079.062s0 0 0 0zm1.98-15.576a1.263 1.263 0 00-1.78-.198l1.78.198z"/></g><defs><clipPath id="clip0"><path fill="#fff" d="M0 0h56v56H0z"/></clipPath></defs></svg>