<svg width="56" height="51" fill="none" xmlns="http://www.w3.org/2000/svg"><g clip-path="url(#clip0)" fill="#B41A1F" stroke="#B41A1F" stroke-width=".2"><path d="M18.955 45.794h0C11.52 41.947 6.9 34.361 6.9 25.998v-2.333c0-1.985 1.615-3.6 3.6-3.6h32.668c1.984 0 3.6 1.615 3.6 3.6v2.333c0 8.365-4.62 15.948-12.057 19.792m-15.756.003l15.71-.092m-15.71.092c.62.319 1.385.078 1.707-.545h0c.32-.62.079-1.386-.544-1.708A19.684 19.684 0 019.432 26v-2.333c0-.589.478-1.067 1.067-1.067h32.668c.588 0 1.066.478 1.066 1.067V26a19.676 19.676 0 01-10.686 17.54m-14.593 2.255l14.639-2.166m1.117 2.163l-.046-.089m.046.089s0 0 0 0l-.046-.089m.046.089a1.27 1.27 0 01-1.707-.544h0a1.268 1.268 0 01.544-1.708m1.117 2.163a1.17 1.17 0 01-1.07-2.074m-.047-.089l.046.089m-.046-.089s0 0 0 0l.046.089"/><path d="M2.887 48.179h0a8.218 8.218 0 005.846 2.42h36.2a8.23 8.23 0 005.85-2.42h0L53.4 45.56a1.27 1.27 0 00-.897-2.163H1.168A1.27 1.27 0 00.27 45.56s0 0 0 0l2.616 2.618zm46.103-1.791a5.7 5.7 0 01-4.055 1.678H8.733a5.7 5.7 0 01-4.055-1.678l-.455-.455h45.221l-.454.455zm4.809-20.798h0c-1.605-1.03-3.679-.982-5.405-.653a16.18 16.18 0 00-3.418 1.074h0a1.268 1.268 0 001.051 2.308 13.76 13.76 0 012.985-.903c.626-.112 1.27-.172 1.862-.134.594.038 1.132.172 1.554.444h0c.753.484 1.14 1.431 1.14 2.94 0 1.132-.571 2.16-1.5 3.082-.93.922-2.21 1.728-3.61 2.414-2.8 1.372-6.057 2.25-7.87 2.596h0l-.826.163s0 0 0 0a1.266 1.266 0 00-.998 1.487h0a1.267 1.267 0 001.487.996h.001l.817-.16s0 0 0 0c.309-.06 4.055-.793 7.727-2.46 1.836-.832 3.66-1.901 5.025-3.24 1.366-1.34 2.28-2.955 2.28-4.878 0-2.37-.77-4.085-2.302-5.075zM35.995 10.456h0c-.586.732-.883 1.719-.883 2.71 0 .992.295 1.977.88 2.707l.003-5.417zm0 0c1.927-2.407 1.927-6.171 0-8.579h0m0 8.58v-8.58m0 0a1.263 1.263 0 00-1.78-.197m1.78.197l-1.78-.197m0 0a1.265 1.265 0 00-.198 1.78c.584.73.88 1.716.879 2.707 0 .992-.296 1.979-.882 2.71 0 0 0 0 0 0l.078.063.122-7.26zm0 0s0 0 0 0l.062.078a1.163 1.163 0 011.64.182l-1.703-.26zm-.2 15.776a1.262 1.262 0 001.78.198 1.266 1.266 0 00.198-1.781l-1.979 1.583zm-7.01-8.579h0c-1.926 2.407-1.926 6.172 0 8.58a1.262 1.262 0 001.78.197h0a1.266 1.266 0 00.198-1.781c-.584-.73-.879-1.715-.879-2.707 0-.991.296-1.978.882-2.71 1.928-2.407 1.928-6.172 0-8.579a1.265 1.265 0 00-1.781-.198 1.266 1.266 0 00-.198 1.781c.585.73.881 1.716.881 2.707 0 .991-.297 1.978-.883 2.71zm-5.01 1.581h0c-.586.732-.883 1.719-.883 2.71 0 .99.296 1.977.88 2.707.44.545.35 1.343-.197 1.781h0a1.273 1.273 0 01-.79.276 1.26 1.26 0 01-.99-.476c-1.93-2.407-1.93-6.171 0-8.579m1.98 1.581L20.093 8.94m1.902 1.518c1.927-2.407 1.927-6.171 0-8.578m0 8.578l-.078-8.516m-1.903 6.935l.079.063m-.079-.063s0 0 0 0l.079.063m-.079-.063c.586-.731.881-1.719.882-2.71 0-.991-.295-1.977-.88-2.706h0a1.267 1.267 0 01.198-1.78m-.121 7.259c1.204-1.505 1.204-4.042.002-5.542a1.167 1.167 0 011.822-1.456m-1.703-.26s0 0 0 0l.063.078-.063-.078s0 0 0 0zm0 0c.55-.44 1.346-.35 1.781.198m0 0s0 0 0 0l-.078.062m.078-.062s0 0 0 0l-.078.062"/></g><defs><clipPath id="clip0"><path fill="#fff" d="M0 0h56v51H0z"/></clipPath></defs></svg>