<svg width="24" height="24" fill="none" xmlns="http://www.w3.org/2000/svg"><g clip-path="url(#clip0)" fill="#70B2E2"><path d="M12 16a.749.749 0 01-.541-.232l-5.25-5.5A.75.75 0 016.75 9H9.5V3.25c0-.689.56-1.25 1.25-1.25h2.5c.689 0 1.25.561 1.25 1.25V9h2.75a.75.75 0 01.542 1.268l-5.25 5.5A.749.749 0 0112 16zm10.25 6H1.75C.785 22 0 21.215 0 20.25v-.5C0 18.785.785 18 1.75 18h20.5c.965 0 1.75.785 1.75 1.75v.5c0 .965-.785 1.75-1.75 1.75z"/></g><defs><clipPath id="clip0"><path fill="#fff" d="M0 0h24v24H0z"/></clipPath></defs></svg>