<svg width="14" height="14" fill="none" xmlns="http://www.w3.org/2000/svg"><path d="M11.271.7H2.454A1.72 1.72 0 00.7 2.454v8.817a1.72 1.72 0 001.754 1.754h8.817a1.72 1.72 0 001.754-1.754V2.454A1.72 1.72 0 0011.271.7zm-4.408 9.86c2.038 0 3.697-1.612 3.697-3.555a3.37 3.37 0 00-.142-.996h1.043v5.025c0 .237-.19.474-.474.474H2.738a.475.475 0 01-.474-.474V5.962h1.09a3.608 3.608 0 00-.142.995c-.047 1.991 1.612 3.603 3.65 3.603zm0-1.422c-1.328 0-2.37-1.043-2.37-2.323s1.042-2.323 2.37-2.323c1.327 0 2.37 1.043 2.37 2.323 0 1.327-1.043 2.323-2.37 2.323zm4.55-5.072a.526.526 0 01-.521.521H9.565a.526.526 0 01-.522-.521v-1.28c0-.285.237-.522.522-.522h1.327c.284 0 .521.237.521.522v1.28z" fill="#fff"/></svg>