<svg width="50" height="61" fill="none" xmlns="http://www.w3.org/2000/svg"><path d="M8.756 1.399l4.801-.007.06 42.846 18.482-.025.007 4.578-23.28.031-.07-47.423zm24.607 33.41c1.04 1.308 2.028 2.56 5.15 3.62a.178.178 0 00.024.01c.017.007.035.01.056.017a.33.33 0 00.376-.156c.056-.09.105-.18.155-.274 1.342-2.662-.661-6.344-4.478-8.222-2.963-1.457-6.148-1.398-8.053-.052a2.494 2.494 0 00-.116.087.076.076 0 00-.018.028c-.06.121-.003.274.127.34a.534.534 0 01.08.027c4.201 1.423 5.466 3.02 6.697 4.575z" fill="#AE262E"/><path d="M36.995 40.653a.252.252 0 00.105-.104c.06-.115.007-.26-.113-.33-.035-.01-.063-.024-.095-.038-2.917-1.132-3.968-2.464-4.998-3.762-1.167-1.475-2.372-2.992-6.685-4.359-.032-.01-.063-.017-.095-.028 0-.003-.004-.003-.007 0a.322.322 0 00-.345.143l-.024.045c-1.311 2.658.689 6.316 4.492 8.19 2.823 1.385 5.838 1.402 7.765.243z" fill="#AE262E"/><path d="M50 41.996l-3.413-2.548c.861-2.498.89-5.014.07-7.555-.537-1.669-1.472-3.203-2.797-4.612a4.726 4.726 0 001.195-3.137c0-2.641-2.176-4.786-4.847-4.786a4.86 4.86 0 00-4.426 2.835 61.024 61.024 0 00-4.154-1.547c-4.127-1.389-6.58-2.277-7.368-2.662-1.448-.74-2.53-1.506-3.24-2.298a7.263 7.263 0 01-1.543-2.661c-.52-1.618-.373-3.165.442-4.637.816-1.475 2.148-2.499 3.993-3.078a8.065 8.065 0 014.313-.17c1.445.336 3.389 1.36 5.839 3.075L36.9 4.248C33.895 2.068 31.283.75 29.07.285A12.799 12.799 0 0022.506.6c-2.035.638-3.764 1.693-5.198 3.168-1.434 1.475-2.366 3.172-2.798 5.091-.432 1.92-.334 3.86.299 5.827.798 2.478 2.348 4.529 4.653 6.153 1.343.979 4.38 2.29 9.115 3.939 4.706 1.634 8.098 3.234 10.175 4.793 1.505 1.128 2.503 2.45 2.992 3.966.428 1.333.481 2.704.158 4.113-.324 1.409-1.044 2.679-2.165 3.807a9.512 9.512 0 01-3.986 2.415c-3.589 1.125-7.554-.371-11.895-4.487l-3.15 3.526c3.017 2.842 5.892 4.643 8.623 5.396 2.731.757 5.487.698 8.27-.177a14.808 14.808 0 003.326-1.499l3.518 2.627L50 41.996zm-9.792-20.691c1.581 0 2.871 1.27 2.871 2.835a2.81 2.81 0 01-.65 1.795c-.056-.045-.105-.094-.162-.143-1.174-.958-2.734-1.891-4.674-2.807a2.859 2.859 0 012.615-1.68zM11.714 57.443c.19.301.443.534.76.69.316.156.66.236 1.037.236.33 0 .622-.041.871-.128a2.65 2.65 0 00.675-.333c.197-.136.373-.285.524-.441v1.78a3.51 3.51 0 01-.91.51c-.33.125-.75.188-1.259.188a4.551 4.551 0 01-1.536-.254 3.398 3.398 0 01-1.209-.732 3.348 3.348 0 01-.784-1.135 3.683 3.683 0 01-.278-1.457c0-.535.092-1.02.278-1.458.186-.437.447-.815.784-1.135a3.37 3.37 0 011.21-.732c.47-.166.98-.253 1.535-.253.51 0 .928.062 1.258.187.33.125.633.295.91.51v1.78a3.677 3.677 0 00-.523-.444 2.538 2.538 0 00-.675-.333 2.87 2.87 0 00-.871-.121c-.377 0-.721.08-1.037.236a1.886 1.886 0 00-.76.683c-.193.299-.288.663-.288 1.087 0 .406.095.767.288 1.069zm5.116-2.527c.189-.437.45-.816.787-1.135a3.56 3.56 0 011.188-.74c.457-.173.949-.26 1.476-.26.534 0 1.03.087 1.48.26.453.174.847.42 1.184.74.338.32.598.698.784 1.135.186.437.278.92.278 1.447 0 .528-.092 1.014-.274 1.458a3.406 3.406 0 01-1.958 1.912 4.03 4.03 0 01-1.498.27 4.04 4.04 0 01-1.504-.27 3.572 3.572 0 01-1.184-.757 3.405 3.405 0 01-.774-1.155 3.794 3.794 0 01-.274-1.458 3.772 3.772 0 01.288-1.447zm1.736 2.516c.161.309.39.552.685.729.295.177.64.264 1.037.264.39 0 .731-.087 1.026-.264.296-.177.52-.42.686-.729a2.28 2.28 0 00.242-1.072c0-.403-.08-.76-.239-1.073a1.788 1.788 0 00-.675-.728c-.291-.177-.636-.264-1.04-.264-.397 0-.742.087-1.037.264-.295.177-.524.42-.685.728a2.279 2.279 0 00-.243 1.073c0 .406.08.763.243 1.072zm8.118-4.494v6.847h-1.606v-6.847h1.607zm-.495 0h3.1v1.42h-3.1v-1.42zm0 2.77h3.002v1.328h-3.002v-1.329zm5.972-2.77v6.847h-1.606v-6.847h1.606zm-.496 0h3.1v1.42h-3.1v-1.42zm0 2.77h3.002v1.328h-3.002v-1.329zm5.977-2.77v6.847h-1.607v-6.847h1.607zm-.496 0h3.497v1.36h-3.497v-1.36zm0 2.582h3.3v1.329h-3.3v-1.33zm0 2.905h3.497v1.36h-3.497v-1.36zm6.47-5.487v6.847H42.01v-6.847h1.606zm-.495 0h3.497v1.36H43.12v-1.36zm0 2.582h3.3v1.329h-3.3v-1.33zm0 2.905h3.497v1.36H43.12v-1.36z" fill="#3C2415"/><path d="M4.985 48.302H.254v-.611h4.218v-1.996h.513v2.607zm-3.397-6.306h2.464c.383 0 .696-.01.931-.028v.541l-.555.035v.014c.165.094.313.233.443.423.126.191.193.42.193.688 0 .114-.014.222-.038.322a1.09 1.09 0 01-.415.583c-.106.077-.25.136-.43.184a2.35 2.35 0 01-.61.07H1.587v-.614h1.877c.724 0 1.086-.25 1.086-.75a.766.766 0 00-.169-.496.997.997 0 00-.4-.306.867.867 0 00-.317-.059H1.588v-.607zM0 40.035h3.146v-.014a5.518 5.518 0 01-.383-.291l-1.174-.993v-.729L2.984 39.3l2.004-1.475v.75L3.36 39.726l.352.312h1.28v.604H0v-.607zm2.9-5.476h1.27c.327 0 .598-.014.815-.049v.548l-.428.049v.02c.147.101.267.244.362.42.095.178.144.382.144.608 0 .215-.05.406-.144.562a.916.916 0 01-.362.35 1.033 1.033 0 01-.471.112c-.412 0-.728-.174-.946-.52-.218-.348-.323-.848-.32-1.497h-.07c-.067 0-.13.004-.19.01a.807.807 0 00-.204.06.564.564 0 00-.334.354.864.864 0 00-.052.343c0 .34.084.632.253.882l-.415.139a1.922 1.922 0 01-.214-.507 2.297 2.297 0 01-.081-.604c0-.198.028-.375.08-.527a1.01 1.01 0 01.211-.368c.088-.094.194-.167.317-.226s.25-.1.372-.121c.13-.028.264-.038.408-.038zm.942.59h-.59c-.021.947.235 1.422.762 1.422.194 0 .341-.055.44-.16a.581.581 0 00.147-.409.845.845 0 00-.165-.527.837.837 0 00-.4-.299.566.566 0 00-.194-.027zm.984-1.69l-.464-.146a1.81 1.81 0 00.165-.378c.045-.146.07-.292.07-.434 0-.212-.046-.371-.137-.48a.448.448 0 00-.366-.162.461.461 0 00-.351.139c-.091.093-.18.253-.264.479-.221.597-.541.895-.963.895a.915.915 0 01-.71-.32c-.19-.211-.285-.492-.285-.84 0-.332.07-.603.215-.815l.45.146c-.137.212-.204.44-.204.687 0 .174.046.309.134.406a.43.43 0 00.333.146.398.398 0 00.324-.142c.08-.094.165-.257.26-.49.112-.298.25-.52.411-.662a.874.874 0 01.608-.216c.306 0 .556.111.742.337.19.222.281.527.281.913a1.95 1.95 0 01-.25.937zm-.074-4.925l-.51-.16a1.92 1.92 0 00.31-1.075c0-.302-.074-.542-.222-.715a.727.727 0 00-.583-.26.772.772 0 00-.541.2c-.144.136-.275.362-.398.677-.147.403-.33.708-.548.917a1.113 1.113 0 01-.801.315 1.16 1.16 0 01-.921-.42c-.243-.277-.362-.642-.362-1.093 0-.423.077-.767.232-1.027l.495.167c-.147.236-.221.527-.221.881 0 .295.07.514.214.66a.67.67 0 00.492.218.67.67 0 00.517-.211c.13-.143.264-.379.397-.715.162-.41.348-.708.56-.9.21-.19.488-.287.829-.287.186 0 .358.034.523.1.166.066.31.167.436.299.127.132.229.302.303.513a2.2 2.2 0 01.112.719c0 .218-.032.44-.091.663-.06.229-.134.406-.222.534zM1.588 21.75h2.464c.383 0 .696-.011.931-.028v.541l-.555.035v.014c.165.093.313.232.443.423.126.19.193.42.193.687 0 .115-.014.222-.038.323a1.092 1.092 0 01-.415.583c-.11.073-.25.135-.43.184a2.308 2.308 0 01-.61.073H1.587v-.614h1.877c.724 0 1.086-.25 1.086-.75a.766.766 0 00-.169-.496.997.997 0 00-.4-.306.87.87 0 00-.317-.059H1.588v-.61zm4.789-1.357h-3.68c-.257 0-.626.01-1.107.03v-.54l.583-.035v-.014c-.436-.257-.653-.656-.653-1.194 0-.413.161-.753.481-1.024.32-.27.735-.406 1.24-.406.296 0 .56.042.799.129.235.083.429.197.576.343.148.146.26.309.338.49.077.18.116.37.116.572 0 .222-.05.427-.144.61a1.026 1.026 0 01-.394.424v.014H6.38v.6h-.004zm-3.364-.604h.59a.968.968 0 00.773-.364.9.9 0 00.202-.577.885.885 0 00-.359-.746c-.239-.18-.559-.274-.953-.274-.355 0-.653.09-.892.267a.858.858 0 00-.362.732c0 .212.07.406.207.58a.979.979 0 00.548.343c.106.025.19.039.246.039zm.387-6.382v2.356c.393-.007.692-.118.885-.333.197-.215.292-.486.292-.82 0-.357-.06-.665-.176-.926l.443-.11c.148.312.218.686.218 1.124 0 .51-.158.912-.47 1.207-.314.295-.732.441-1.252.441a2.24 2.24 0 01-.928-.187 1.564 1.564 0 01-.654-.549 1.476 1.476 0 01-.242-.84c0-.208.035-.399.109-.565.073-.167.161-.299.274-.4.109-.1.239-.18.383-.246.144-.066.288-.11.422-.135.137-.024.27-.038.407-.038.123 0 .218.007.289.02zm-.443 2.349v-1.78a1.189 1.189 0 00-.517.097.857.857 0 00-.242.15.691.691 0 00-.173.245.867.867 0 00-.066.351c0 .15.031.281.094.403a.814.814 0 00.246.284c.102.073.208.129.32.167.113.038.222.07.338.083zm2.028-3.474H2.647c-.39 0-.745.01-1.058.031v-.534l.672-.028v-.02a1.138 1.138 0 01-.542-.372.903.903 0 01-.19-.732h.584a.966.966 0 00-.014.204c0 .209.074.39.218.535.144.146.334.243.57.284.087.014.182.021.288.021h1.81v.611zM.246 9.34c0-.112.035-.202.11-.272a.385.385 0 01.273-.104.366.366 0 01.38.385.35.35 0 01-.11.268.377.377 0 01-.27.104.379.379 0 01-.274-.108.354.354 0 01-.109-.274zm4.738-.306v.61H1.59v-.61h3.395zm-3.468-2.78c0-.479.161-.871.485-1.17.323-.298.741-.447 1.258-.447.243 0 .464.031.668.097a1.576 1.576 0 01.865.638c.094.146.165.295.207.455.042.16.067.32.067.486 0 .461-.162.843-.482 1.149-.32.305-.741.458-1.269.458-.277 0-.527-.045-.759-.132a1.58 1.58 0 01-.57-.354 1.602 1.602 0 01-.47-1.18zm.583-.444a.875.875 0 00-.12.458.905.905 0 00.422.784c.127.08.268.142.419.18.15.039.309.063.474.063.376 0 .686-.094.935-.285a.879.879 0 00.373-.728c0-.292-.123-.535-.373-.73-.25-.193-.566-.29-.945-.29a1.689 1.689 0 00-.865.233.867.867 0 00-.32.315zm2.886-2.287H2.647c-.39 0-.745.01-1.058.031V3.02l.672-.028V2.97a1.137 1.137 0 01-.542-.371.903.903 0 01-.19-.733h.584a.944.944 0 00-.014.205.74.74 0 00.218.535c.144.145.334.243.57.284.087.014.182.021.288.021h1.81v.61z" fill="#AE262E"/></svg>