<svg width="14" height="14" fill="none" xmlns="http://www.w3.org/2000/svg"><path d="M11.271 2.264C10.133 1.221 8.76.7 7.052.7c-1.754 0-3.27.569-4.503 1.754S.7 5.109.7 6.862c0 1.707.569 3.13 1.754 4.362 1.185 1.232 2.75 1.801 4.788 1.801a8.73 8.73 0 003.555-.758c.38-.143.569-.617.427-.996-.143-.38-.617-.569-.996-.427-.995.427-1.99.664-2.939.664-1.517 0-2.702-.474-3.555-1.422-.853-.948-1.28-2.038-1.28-3.271 0-1.375.474-2.512 1.327-3.413.9-.9 1.991-1.375 3.319-1.375 1.185 0 2.228.38 3.08 1.138.854.758 1.233 1.706 1.233 2.844 0 .759-.19 1.422-.569 1.944-.379.521-.758.758-1.185.758-.237 0-.331-.095-.331-.379 0-.19 0-.427.047-.664l.474-3.84H8.237l-.095.38c-.426-.332-.853-.522-1.327-.522-.758 0-1.422.332-1.99.948-.57.617-.807 1.423-.807 2.37 0 .949.237 1.707.759 2.323.474.57 1.09.854 1.754.854.616 0 1.137-.237 1.564-.759.332.474.806.759 1.47.759.948 0 1.754-.427 2.465-1.233.71-.806 1.042-1.801 1.042-2.986-.142-1.422-.71-2.702-1.8-3.698zM7.526 8.048c-.284.379-.616.568-1.043.568-.284 0-.474-.142-.663-.426-.19-.285-.237-.616-.237-1.043 0-.522.094-.948.331-1.233.237-.331.522-.474.854-.474.284 0 .569.095.806.38.237.237.331.568.331.948.048.474-.094.9-.379 1.28z" fill="#fff"/></svg>