<svg width="30" height="18" fill="none" xmlns="http://www.w3.org/2000/svg"><path d="M29.6 9c0 4.938-3.881 9-8.7 9-4.774 0-8.7-4.062-8.7-9s3.882-9 8.656-9C25.719 0 29.6 4.062 29.6 9z" fill="#F9B50B"/><path d="M17.956 9.046c0-.646-.09-1.292-.178-1.892h-5.354c.044-.323.133-.6.223-.97h4.774a8.689 8.689 0 00-.357-.969h-4.06c.133-.323.312-.6.49-.969h3.079a6.307 6.307 0 00-.67-.97h-1.695c.268-.322.536-.6.893-.922C13.584.877 11.53 0 9.256 0 4.526.138.601 4.062.601 9s3.881 9 8.7 9c2.275 0 4.283-.923 5.844-2.354.313-.277.58-.6.893-.97h-1.785a6.593 6.593 0 01-.625-.922h3.034c.179-.277.357-.6.49-.97h-4.06a4.816 4.816 0 01-.356-.969h4.774c.267-.83.446-1.753.446-2.769z" fill="#C8191C"/><path d="M12.38 11.308l.133-.831c-.044 0-.133.046-.223.046-.312 0-.357-.184-.312-.277l.268-1.661h.49l.134-.923h-.446l.09-.554h-.938s-.535 3.138-.535 3.508c0 .553.312.83.758.83.268 0 .491-.092.58-.138zm.311-1.523c0 1.338.893 1.661 1.607 1.661.669 0 .981-.138.981-.138l.179-.923s-.491.23-.982.23c-1.026 0-.848-.784-.848-.784h1.874s.134-.6.134-.877c0-.6-.312-1.385-1.338-1.385-.893-.046-1.607 1.016-1.607 2.216zM14.298 8.4c.49 0 .401.6.401.646h-1.026c.045-.046.134-.646.625-.646zm5.844 2.908l.178-1.062s-.446.23-.803.23c-.625 0-.937-.507-.937-1.107 0-1.154.536-1.754 1.205-1.754.446 0 .848.277.848.277l.133-1.015s-.535-.23-1.07-.23c-1.071 0-2.097.968-2.097 2.768 0 1.2.535 1.985 1.65 1.985.402.046.893-.092.893-.092zM7.338 7.523c-.625 0-1.116.185-1.116.185l-.134.83s.402-.184 1.027-.184c.312 0 .58.046.58.323 0 .184-.045.23-.045.23h-.402c-.803 0-1.65.324-1.65 1.431 0 .877.535 1.062.892 1.062.625 0 .937-.415.981-.415l-.044.369h.758l.357-2.631c0-1.154-.892-1.2-1.204-1.2zm.178 2.123c0 .138-.09.923-.625.923-.267 0-.356-.23-.356-.37 0-.23.133-.553.847-.553h.134zM9.435 11.4c.223 0 1.383.046 1.383-1.246 0-1.2-1.116-.97-1.116-1.431 0-.23.179-.323.491-.323.134 0 .625.046.625.046l.134-.877s-.313-.092-.893-.092c-.669 0-1.383.277-1.383 1.246 0 1.108 1.16 1.015 1.16 1.43 0 .278-.312.324-.535.324-.402 0-.848-.139-.848-.139l-.134.877c.09.093.357.185 1.116.185zm18.381-4.615l-.179 1.292s-.357-.462-.892-.462c-.848 0-1.561 1.062-1.561 2.308 0 .785.357 1.57 1.16 1.57.535 0 .892-.37.892-.37l-.045.323h.937l.67-4.57-.982-.091zm-.446 2.492c0 .508-.223 1.2-.759 1.2-.312 0-.49-.277-.49-.785 0-.784.312-1.246.758-1.246.312.046.49.277.49.83zM2.296 11.354l.535-3.416.09 3.416h.624l1.204-3.416-.49 3.416h.981L6 6.784H4.482L3.545 9.6 3.5 6.785H2.162l-.759 4.569h.893z" fill="#fff"/><path d="M16.573 11.354c.268-1.57.312-2.862.982-2.631.089-.6.223-.877.312-1.108h-.179c-.401 0-.758.554-.758.554l.09-.508h-.893l-.58 3.693h1.026zm5.711-3.831c-.625 0-1.115.185-1.115.185l-.134.83s.401-.184 1.026-.184c.312 0 .58.046.58.323 0 .184-.045.23-.045.23h-.401c-.803 0-1.651.324-1.651 1.431 0 .877.535 1.062.892 1.062.625 0 .937-.415.982-.415l-.045.369h.848l.357-2.631c0-1.154-.982-1.2-1.294-1.2zm.223 2.123c0 .138-.09.923-.625.923-.267 0-.357-.23-.357-.37 0-.23.134-.553.848-.553h.134zm1.783 1.708c.268-1.57.313-2.862.982-2.631.09-.6.223-.877.313-1.108h-.179c-.401 0-.758.554-.758.554l.089-.508h-.892l-.58 3.693h1.026z" fill="#fff"/></svg>