<svg width="17" height="23" fill="none" xmlns="http://www.w3.org/2000/svg"><path d="M15.027 5.054l-.777-2.591V1.078a.36.36 0 00-.36-.36H3.11a.36.36 0 00-.36.36v1.385l-.777 2.591a32.67 32.67 0 00-1.38 9.395v6.035a.36.36 0 00.246.341l4.313 1.438a.36.36 0 00.114.018.37.37 0 00.047-.003l10.781-1.437a.36.36 0 00.312-.357V14.45c0-3.182-.464-6.347-1.378-9.395zM3.033 19.22l1.354 2.03-2.707-.902 1.353-1.128zM3.47 4.964l.089.297a31.954 31.954 0 011.348 9.188v6.286L3.47 18.579V4.964zm2.02 6.516l9.95-.995c.165 1.315.248 2.64.248 3.965v2.846l-10.064 1.34V14.45c0-.993-.045-1.983-.135-2.97zm9.854-1.707l-9.927.992a32.675 32.675 0 00-1.17-5.71l-.655-2.179h2.844l1.001 3.338a.36.36 0 00.38.254l3.594-.36a.36.36 0 00.305-.47l-.92-2.762h2.827l.716 2.386a31.973 31.973 0 011.005 4.51zm-5.306-6.897l.854 2.562-2.852.285-.854-2.847h2.852zm-.1-.719H7.062v-.719h2.875v.72zm3.593 0h-2.875v-.719h2.875v.72zM3.47 1.437h2.875v.72H3.469v-.72zm-.81 3.824l.089-.297V18.52l-1.438 1.198V14.45c0-3.112.454-6.207 1.349-9.188zm2.964 16.25v-2.15l10.063-1.341v2.15L5.624 21.51z" fill="#131313" fill-opacity=".8"/><path d="M8.053 16.868c.11.015.22.023.332.023.48-.006.952-.133 1.37-.37a2.789 2.789 0 001.12-1.12l.037.073c.468.869 1.29 1.39 2.061 1.39.26.002.518-.062.747-.184.923-.498 1.165-1.847.54-3.009-.626-1.161-1.886-1.702-2.809-1.205a1.64 1.64 0 00-.764.915c-.617-.644-1.777-.743-2.784-.182-1.152.643-1.675 1.91-1.164 2.826.256.46.723.76 1.314.843zm1.351-.975c-.406.226-.85.32-1.25.263-.363-.051-.643-.222-.787-.481a.837.837 0 01-.1-.325l.458-.256a1.157 1.157 0 01.886-.103 1.873 1.873 0 001.433-.166l.341-.19a1.33 1.33 0 01-.099.332c-.162.37-.475.699-.882.925zm4.223-1.88c.43.798.317 1.73-.247 2.034a.836.836 0 01-.327.095l-.249-.462a1.156 1.156 0 01-.09-.887 1.885 1.885 0 00-.146-1.436l-.184-.341c.46.08.948.448 1.243.996zm-2.328-.134c.047-.297.173-.537.362-.692l.275.511c.146.272.179.591.09.888a1.87 1.87 0 00.033 1.184 2.184 2.184 0 01-.514-.637c-.22-.41-.308-.855-.245-1.254zm-3.046-.052a2.122 2.122 0 011.02-.276c.384 0 .724.125.927.364l-.506.282a1.159 1.159 0 01-.886.103 1.87 1.87 0 00-1.184.05c.175-.212.388-.39.63-.523z" fill="#131313" fill-opacity=".8"/></svg>