<svg width="58" height="14" fill="none" xmlns="http://www.w3.org/2000/svg"><path d="M22.307 6.003c-.148 1.108-1.034 1.108-1.846 1.108h-.443l.369-2.142c0-.147.148-.221.295-.221h.222c.59 0 1.107 0 1.403.295v.96zm-.37-2.953h-3.174c-.222 0-.37.147-.443.369l-1.256 8.122c0 .147.074.295.296.295h1.477c.221 0 .369-.148.442-.37l.37-2.214c0-.222.221-.37.443-.37h1.033c2.068 0 3.249-1.033 3.618-3.026.148-.887 0-1.551-.369-2.068-.59-.443-1.403-.738-2.436-.738zm7.31 5.907c-.147.886-.812 1.476-1.698 1.476-.443 0-.812-.147-1.034-.443a1.282 1.282 0 01-.221-1.033c.148-.887.812-1.477 1.698-1.477.443 0 .812.147 1.034.443.147.221.295.59.221 1.034zm2.068-2.954h-1.477c-.148 0-.222.074-.295.222l-.074.443-.074-.148c-.295-.443-1.034-.665-1.772-.665-1.698 0-3.101 1.256-3.396 3.028-.148.886.073 1.698.59 2.289.443.516 1.108.738 1.92.738 1.329 0 2.067-.886 2.067-.886l-.074.443c0 .147.074.295.296.295h1.329c.221 0 .369-.148.443-.369l.812-5.168c0-.074-.074-.222-.295-.222zm8.048 0h-1.55a.406.406 0 00-.37.222l-2.067 3.1-.886-2.953c-.074-.221-.222-.295-.443-.295H32.57c-.147 0-.295.148-.221.37l1.698 4.872-1.55 2.215c-.148.148 0 .443.22.443h1.551a.406.406 0 00.37-.221l5.02-7.31c.074-.221-.074-.443-.295-.443z" fill="#263577"/><path d="M44.753 6.003c-.148 1.108-1.034 1.108-1.846 1.108h-.443l.37-2.142c0-.147.147-.221.295-.221h.221c.59 0 1.108 0 1.403.295.074.296.074.591 0 .96zm-.37-2.953H41.21c-.222 0-.37.147-.443.369l-1.255 8.122c0 .147.074.295.295.295h1.624c.148 0 .296-.074.296-.295l.369-2.29c0-.22.221-.368.443-.368h1.034c2.067 0 3.248-1.034 3.617-3.027.148-.887 0-1.551-.369-2.068-.517-.443-1.329-.738-2.436-.738zm7.384 5.907c-.148.886-.812 1.476-1.698 1.476-.443 0-.813-.147-1.034-.443-.222-.295-.295-.664-.222-1.033.148-.887.813-1.477 1.699-1.477.443 0 .812.147 1.033.443.148.221.296.59.222 1.034zm2.067-2.954h-1.477c-.147 0-.221.074-.295.222l-.074.443-.074-.148c-.295-.443-1.033-.665-1.772-.665-1.698 0-3.1 1.256-3.396 3.028-.148.886.074 1.698.59 2.289.444.516 1.108.738 1.92.738 1.33 0 2.068-.886 2.068-.886l-.074.443c0 .147.074.295.295.295h1.33c.22 0 .368-.148.442-.369l.813-5.168c0-.074-.148-.222-.296-.222zm1.772-2.732l-1.329 8.27c0 .147.074.295.296.295h1.329c.221 0 .369-.148.443-.37l1.255-8.12c0-.149-.074-.296-.295-.296h-1.477c-.074 0-.148.147-.222.221z" fill="#2199D6"/><path d="M3.922 13.387l.221-1.55H1.042L2.814.54s0-.074.074-.074h4.43c1.403 0 2.436.295 2.953.886.222.295.37.59.443.886.074.369.074.738 0 1.255v.295l.222.148c.221.074.369.221.517.37.221.22.369.516.369.885.074.37.074.812-.074 1.33-.148.59-.295 1.033-.517 1.476-.221.369-.517.664-.812.96-.295.221-.738.369-1.108.516-.443.074-.886.148-1.402.148h-.37a1.19 1.19 0 00-.664.222 1.616 1.616 0 00-.37.59v.148l-.442 2.732v.147H3.922v-.073z" fill="#263577"/><path d="M11.232 3.493c0 .074 0 .147-.074.221-.59 2.954-2.51 3.914-5.02 3.914H4.882c-.295 0-.59.221-.59.516l-.665 4.135-.148 1.181c0 .222.148.37.296.37h2.289c.295 0 .517-.222.517-.443v-.148l.443-2.658v-.148c.073-.295.295-.443.516-.443h.37c2.215 0 3.913-.886 4.356-3.47.221-1.108.074-1.994-.443-2.584-.148-.148-.37-.296-.59-.443z" fill="#2199D6"/><path d="M10.64 3.271c-.073 0-.147-.074-.295-.074-.073 0-.221-.073-.295-.073-.37-.074-.738-.074-1.107-.074H5.546c-.074 0-.147 0-.221.074-.148.073-.296.221-.296.369L4.291 8.07v.147c.074-.295.295-.517.59-.517h1.256c2.51 0 4.43-1.033 5.02-3.913 0-.074 0-.148.074-.221l-.443-.222c-.073-.074-.147-.074-.147-.074z" fill="#252C5E"/><path d="M5.03 3.493c0-.148.147-.296.295-.37.074 0 .148-.073.221-.073h3.397c.369 0 .812 0 1.107.074.074 0 .222 0 .296.073.074 0 .147.074.295.074.074 0 .074 0 .148.074l.443.222c.147-1.108 0-1.846-.59-2.51C9.976.316 8.794.022 7.318.022H2.962c-.295 0-.59.221-.59.516L.6 11.91c0 .222.147.444.369.444h2.658L4.29 8.07l.739-4.578z" fill="#263577"/></svg>