<svg width="46" height="14" fill="none" xmlns="http://www.w3.org/2000/svg"><path d="M42.533.2h-2.866c-.867 0-1.534.267-1.934 1.133L32.267 13.8h3.866s.667-1.667.8-2.067h4.734c.133.467.466 2 .466 2H45.6L42.533.2zM38 8.933c.333-.8 1.467-3.8 1.467-3.8 0 .067.333-.8.466-1.266l.267 1.2s.733 3.266.867 3.933H38v-.067zm-5.466.4c0 2.8-2.534 4.667-6.467 4.667-1.667 0-3.267-.333-4.133-.733l.533-3.067.467.2c1.2.533 2 .733 3.466.733 1.067 0 2.2-.4 2.2-1.333 0-.6-.466-1-1.933-1.667-1.4-.666-3.267-1.733-3.267-3.666C23.4 1.8 26 0 29.667 0c1.4 0 2.6.267 3.333.6l-.533 2.933-.267-.266a7.164 7.164 0 00-2.8-.534c-1.4.067-2.066.667-2.066 1.2 0 .6.8 1.067 2.066 1.667 2.134 1 3.134 2.133 3.134 3.733z" fill="#3362AB"/><path d="M0 .333L.067.067H5.8c.8 0 1.4.266 1.6 1.133l1.267 6C7.4 4 4.467 1.4 0 .333z" fill="#F9B50B"/><path d="M16.734.2l-5.8 13.533H7L3.667 2.4c2.4 1.533 4.4 3.933 5.133 5.6l.4 1.4L12.8.133h3.934V.2zm1.533-.067h3.667l-2.334 13.6h-3.666l2.333-13.6z" fill="#3362AB"/></svg>