<svg width="25" height="25" fill="none" xmlns="http://www.w3.org/2000/svg"><path d="M12.5 0C5.597 0 0 5.597 0 12.5 0 19.404 5.597 25 12.5 25 19.404 25 25 19.404 25 12.5 24.992 5.6 19.4.008 12.5 0zm0 24.167C6.057 24.167.833 18.943.833 12.5S6.057.833 12.5.833 24.167 6.057 24.167 12.5c-.008 6.44-5.227 11.66-11.667 11.667z" fill="#000"/><path d="M15.775 15.186a5.432 5.432 0 10-.59.59l2.853 2.852a.417.417 0 00.59-.59l-2.853-2.852zm-4.109 1.064a4.583 4.583 0 110-9.167 4.583 4.583 0 010 9.167z" fill="#000"/><path d="M13.333 11.25h-1.25V10a.417.417 0 00-.833 0v1.25H10a.417.417 0 000 .833h1.25v1.25a.417.417 0 10.833 0v-1.25h1.25a.417.417 0 000-.833z" fill="#000"/></svg>