<svg width="1920" height="980" fill="none" xmlns="http://www.w3.org/2000/svg"><g clip-path="url(#clip0)"><path d="M334.104 695.92l-53.527 92.71 53.527 92.711h107.053l53.527-92.711-53.527-92.71H334.104z" stroke="url(#paint0_linear)"/><path d="M173.103 787.92l-53.526 92.71 53.526 92.711h107.054l53.526-92.711-53.526-92.71H173.103z" stroke="url(#paint1_linear)" stroke-opacity=".5"/><path d="M333.104 881.92l-53.527 92.71 53.527 92.71h107.053l53.527-92.71-53.527-92.71H333.104z" stroke="url(#paint2_linear)" stroke-opacity=".5"/><g filter="url(#filter0_d)"><circle r="6" transform="matrix(-1 0 0 1 442.261 881.992)" fill="#51B4F7"/></g><g filter="url(#filter1_d)"><circle r="6" transform="matrix(-1 0 0 1 332.261 881.992)" fill="#51B4F7"/></g><g filter="url(#filter2_d)"><circle r="6" transform="matrix(-1 0 0 1 280.261 788.261)" fill="#51B4F7"/></g><path d="M13.104 881.92l-53.527 92.711 53.527 92.709h107.053l53.527-92.709-53.527-92.711H13.104z" stroke="url(#paint3_linear)" stroke-opacity=".5"/><g opacity=".5"><path d="M335.121 695.56l107.052.307 53.792-92.557-53.26-92.864-107.053-.306-53.792 92.557 53.261 92.863z" stroke="url(#paint4_linear)" stroke-opacity=".5"/><path d="M657.12 697.469l107.053.307 53.792-92.557-53.26-92.863-107.053-.307-53.792 92.557 53.26 92.863z" stroke="url(#paint5_linear)" stroke-opacity=".5"/><path d="M814.799 796.26l107.053.307 53.792-92.557-53.261-92.864-107.052-.307-53.792 92.557 53.26 92.864z" stroke="url(#paint6_linear)" stroke-opacity=".5"/><path d="M496.965 603.89l107.053.307 53.792-92.557-53.261-92.864-107.053-.307-53.792 92.557 53.261 92.864z" stroke="url(#paint7_linear)" stroke-opacity=".5"/><g filter="url(#filter3_d)"><circle r="6" transform="scale(1 -1) rotate(-60.164 -218.134 -636.723)" fill="#51B4F7"/></g><g filter="url(#filter4_d)"><circle r="6" transform="scale(1 -1) rotate(-60.164 -273.134 -731.672)" fill="#51B4F7"/></g><g filter="url(#filter5_d)"><circle r="6" transform="scale(1 -1) rotate(-60.164 -380.04 -729.69)" fill="#51B4F7"/></g><path d="M653.453 888.798l107.052.307 53.793-92.557-53.261-92.864-107.053-.307-53.792 92.557 53.261 92.864z" stroke="url(#paint8_linear)" stroke-opacity=".5"/><g filter="url(#filter6_d)"><circle r="6" transform="scale(1 -1) rotate(-60.164 -226.395 -1007.75)" fill="#51B4F7"/></g></g><path d="M1082.16 889.341l53.52-92.71-53.52-92.711H975.104l-53.526 92.711 53.526 92.71h107.056z" stroke="url(#paint9_linear)"/><path d="M1243.16 797.341l53.52-92.71-53.52-92.711H1136.1l-53.52 92.711 53.52 92.71h107.06z" stroke="url(#paint10_linear)" stroke-opacity=".5"/><path d="M1247.16 616.341l53.52-92.71-53.52-92.711H1140.1l-53.52 92.711 53.52 92.71h107.06z" stroke="url(#paint11_linear)" stroke-opacity=".5"/><path d="M1408.16 523.341l53.52-92.71-53.52-92.711H1301.1l-53.52 92.711 53.52 92.71h107.06z" stroke="url(#paint12_linear)" stroke-opacity=".5"/><path d="M1083.16 703.341l53.52-92.71-53.52-92.711H976.104l-53.526 92.711 53.526 92.71h107.056z" stroke="url(#paint13_linear)" stroke-opacity=".5"/><g filter="url(#filter7_d)"><circle r="6" transform="matrix(1 0 0 -1 974 703.269)" fill="#51B4F7"/></g><g filter="url(#filter8_d)"><circle r="6" transform="matrix(1 0 0 -1 1084 703.269)" fill="#51B4F7"/></g><g filter="url(#filter9_d)"><circle r="6" transform="matrix(1 0 0 -1 1136 797)" fill="#51B4F7"/></g><path d="M1408.16 709.341l53.52-92.71-53.52-92.711H1301.1l-53.52 92.711 53.52 92.71h107.06z" stroke="url(#paint14_linear)" stroke-opacity=".5"/><g filter="url(#filter10_d)"><circle r="6" transform="matrix(1 0 0 -1 1300 524)" fill="#51B4F7"/></g><path d="M1568.16 803.341l53.52-92.71-53.52-92.711H1461.1l-53.52 92.711 53.52 92.71h107.06z" stroke="url(#paint15_linear)"/><path d="M1729.16 711.341l53.52-92.71-53.52-92.711H1622.1l-53.52 92.711 53.52 92.71h107.06z" stroke="url(#paint16_linear)" stroke-opacity=".5"/><path d="M1733.16 530.341l53.52-92.71-53.52-92.711H1626.1l-53.52 92.711 53.52 92.71h107.06z" stroke="url(#paint17_linear)" stroke-opacity=".5"/><path d="M1894.16 437.341l53.52-92.71-53.52-92.711H1787.1l-53.52 92.711 53.52 92.71h107.06z" stroke="url(#paint18_linear)" stroke-opacity=".5"/><path d="M1569.16 617.341l53.52-92.71-53.52-92.711H1462.1l-53.52 92.711 53.52 92.71h107.06z" stroke="url(#paint19_linear)" stroke-opacity=".5"/><g filter="url(#filter11_d)"><circle r="6" transform="matrix(1 0 0 -1 1460 617.269)" fill="#51B4F7"/></g><g filter="url(#filter12_d)"><circle r="6" transform="matrix(1 0 0 -1 1570 617.269)" fill="#51B4F7"/></g><g filter="url(#filter13_d)"><circle r="6" transform="matrix(1 0 0 -1 1622 711)" fill="#51B4F7"/></g><path d="M1894.16 623.341l53.52-92.71-53.52-92.711H1787.1l-53.52 92.711 53.52 92.71h107.06z" stroke="url(#paint20_linear)" stroke-opacity=".5"/><g filter="url(#filter14_d)"><circle r="6" transform="matrix(1 0 0 -1 1786 438)" fill="#51B4F7"/></g><path d="M1287.03 608.471l-53.81-93.211h-107.63l-53.82 93.211 53.82 93.211h107.63l53.81-93.211z" fill="url(#paint21_linear)"/><path d="M1800.79 509.451l-53.81-93.211h-107.63l-53.82 93.211 53.82 93.211h107.63l53.81-93.211z" fill="url(#paint22_linear)"/><path d="M1973 608.471l-53.82-93.211h-107.63l-53.81 93.211 53.81 93.211h107.63l53.82-93.211z" fill="url(#paint23_linear)"/><path d="M1457.81 707.491l-53.82-93.21h-107.63l-53.81 93.21 53.81 93.211h107.63l53.82-93.211z" fill="url(#paint24_linear)"/><path d="M1800.79 308.541l-53.81-93.211h-107.63l-53.82 93.211 53.82 93.211h107.63l53.81-93.211z" fill="url(#paint25_linear)"/><path d="M1800.79 107.631l-53.81-93.211h-107.63l-53.82 93.211 53.82 93.21h107.63l53.81-93.21z" fill="url(#paint26_linear)"/><path d="M1973 206.651l-53.82-93.211h-107.63l-53.81 93.211 53.81 93.21h107.63l53.82-93.21z" fill="url(#paint27_linear)"/><path d="M1468 87.5l-62.5 109h-115l-56.5 97h-108" stroke="url(#paint28_linear)"/><g filter="url(#filter15_d)"><circle r="6" transform="matrix(1 0 0 -1 1468 88)" fill="#51B4F7"/></g></g><defs><linearGradient id="paint0_linear" x1="320.244" y1="719.171" x2="462.244" y2="852.671" gradientUnits="userSpaceOnUse"><stop stop-color="#0047A3"/><stop offset="1" stop-color="#53B7F9"/></linearGradient><linearGradient id="paint1_linear" x1="159.243" y1="811.171" x2="301.243" y2="944.671" gradientUnits="userSpaceOnUse"><stop stop-color="#0047A3"/><stop offset="1" stop-color="#53B7F9"/></linearGradient><linearGradient id="paint2_linear" x1="319.244" y1="905.171" x2="461.244" y2="1038.67" gradientUnits="userSpaceOnUse"><stop stop-color="#53B7F9"/><stop offset="1" stop-color="#0047A3"/></linearGradient><linearGradient id="paint3_linear" x1="-.756" y1="905.171" x2="141.244" y2="1038.67" gradientUnits="userSpaceOnUse"><stop stop-color="#0047A3"/><stop offset="1" stop-color="#53B7F9"/></linearGradient><linearGradient id="paint4_linear" x1="362.186" y1="696.015" x2="407.344" y2="506.418" gradientUnits="userSpaceOnUse"><stop stop-color="#53B7F9"/><stop offset="1" stop-color="#0047A3"/></linearGradient><linearGradient id="paint5_linear" x1="684.186" y1="697.925" x2="729.344" y2="508.328" gradientUnits="userSpaceOnUse"><stop stop-color="#0047A3"/><stop offset="1" stop-color="#53B7F9"/></linearGradient><linearGradient id="paint6_linear" x1="841.865" y1="796.715" x2="887.023" y2="607.118" gradientUnits="userSpaceOnUse"><stop stop-color="#0047A3"/><stop offset="1" stop-color="#53B7F9"/></linearGradient><linearGradient id="paint7_linear" x1="524.03" y1="604.345" x2="569.188" y2="414.748" gradientUnits="userSpaceOnUse"><stop stop-color="#53B7F9"/><stop offset="1" stop-color="#0047A3"/></linearGradient><linearGradient id="paint8_linear" x1="680.518" y1="889.253" x2="725.676" y2="699.656" gradientUnits="userSpaceOnUse"><stop stop-color="#0047A3"/><stop offset="1" stop-color="#53B7F9"/></linearGradient><linearGradient id="paint9_linear" x1="1096.02" y1="866.09" x2="954.018" y2="732.59" gradientUnits="userSpaceOnUse"><stop stop-color="#0047A3"/><stop offset="1" stop-color="#53B7F9"/></linearGradient><linearGradient id="paint10_linear" x1="1257.02" y1="774.09" x2="1115.02" y2="640.59" gradientUnits="userSpaceOnUse"><stop stop-color="#0047A3"/><stop offset="1" stop-color="#53B7F9"/></linearGradient><linearGradient id="paint11_linear" x1="1261.02" y1="593.09" x2="1119.02" y2="459.59" gradientUnits="userSpaceOnUse"><stop stop-color="#0047A3"/><stop offset="1" stop-color="#53B7F9"/></linearGradient><linearGradient id="paint12_linear" x1="1422.02" y1="500.09" x2="1280.02" y2="366.59" gradientUnits="userSpaceOnUse"><stop stop-color="#0047A3"/><stop offset="1" stop-color="#53B7F9"/></linearGradient><linearGradient id="paint13_linear" x1="1097.02" y1="680.09" x2="955.018" y2="546.59" gradientUnits="userSpaceOnUse"><stop stop-color="#53B7F9"/><stop offset="1" stop-color="#0047A3"/></linearGradient><linearGradient id="paint14_linear" x1="1422.02" y1="686.09" x2="1280.02" y2="552.59" gradientUnits="userSpaceOnUse"><stop stop-color="#0047A3"/><stop offset="1" stop-color="#53B7F9"/></linearGradient><linearGradient id="paint15_linear" x1="1582.02" y1="780.09" x2="1440.02" y2="646.59" gradientUnits="userSpaceOnUse"><stop stop-color="#0047A3"/><stop offset="1" stop-color="#53B7F9"/></linearGradient><linearGradient id="paint16_linear" x1="1743.02" y1="688.09" x2="1601.02" y2="554.59" gradientUnits="userSpaceOnUse"><stop stop-color="#0047A3"/><stop offset="1" stop-color="#53B7F9"/></linearGradient><linearGradient id="paint17_linear" x1="1747.02" y1="507.09" x2="1605.02" y2="373.59" gradientUnits="userSpaceOnUse"><stop stop-color="#0047A3"/><stop offset="1" stop-color="#53B7F9"/></linearGradient><linearGradient id="paint18_linear" x1="1908.02" y1="414.09" x2="1766.02" y2="280.59" gradientUnits="userSpaceOnUse"><stop stop-color="#0047A3"/><stop offset="1" stop-color="#53B7F9"/></linearGradient><linearGradient id="paint19_linear" x1="1583.02" y1="594.09" x2="1441.02" y2="460.59" gradientUnits="userSpaceOnUse"><stop stop-color="#53B7F9"/><stop offset="1" stop-color="#0047A3"/></linearGradient><linearGradient id="paint20_linear" x1="1908.02" y1="600.09" x2="1766.02" y2="466.59" gradientUnits="userSpaceOnUse"><stop stop-color="#0047A3"/><stop offset="1" stop-color="#53B7F9"/></linearGradient><linearGradient id="paint21_linear" x1="1287" y1="751.5" x2="1201.2" y2="502.907" gradientUnits="userSpaceOnUse"><stop stop-color="#081250"/><stop offset="1" stop-color="#1034A9"/></linearGradient><linearGradient id="paint22_linear" x1="1800.76" y1="652.48" x2="1714.95" y2="403.887" gradientUnits="userSpaceOnUse"><stop stop-color="#081250"/><stop offset="1" stop-color="#1034A9"/></linearGradient><linearGradient id="paint23_linear" x1="2062.69" y1="607.98" x2="1670.99" y2="404.407" gradientUnits="userSpaceOnUse"><stop stop-color="#1034A9"/><stop offset="1" stop-color="#081250"/></linearGradient><linearGradient id="paint24_linear" x1="1547.5" y1="707" x2="1155.8" y2="503.427" gradientUnits="userSpaceOnUse"><stop stop-color="#1034A9"/><stop offset="1" stop-color="#081250"/></linearGradient><linearGradient id="paint25_linear" x1="1773" y1="423.5" x2="1678.15" y2="119.204" gradientUnits="userSpaceOnUse"><stop stop-color="#1034A9"/><stop offset="1" stop-color="#081250"/></linearGradient><linearGradient id="paint26_linear" x1="1800.76" y1="250.659" x2="1714.95" y2="2.066" gradientUnits="userSpaceOnUse"><stop stop-color="#081250"/><stop offset="1" stop-color="#1034A9"/></linearGradient><linearGradient id="paint27_linear" x1="2062.69" y1="206.159" x2="1670.99" y2="2.587" gradientUnits="userSpaceOnUse"><stop stop-color="#1034A9"/><stop offset="1" stop-color="#081250"/></linearGradient><linearGradient id="paint28_linear" x1="1468" y1="98" x2="1126" y2="306" gradientUnits="userSpaceOnUse"><stop stop-color="#01AAF5"/><stop offset="1" stop-color="#01AAF5" stop-opacity="0"/></linearGradient><filter id="filter0_d" x="426.261" y="865.992" width="32" height="32" filterUnits="userSpaceOnUse" color-interpolation-filters="sRGB"><feFlood flood-opacity="0" result="BackgroundImageFix"/><feColorMatrix in="SourceAlpha" values="0 0 0 0 0 0 0 0 0 0 0 0 0 0 0 0 0 0 127 0"/><feOffset/><feGaussianBlur stdDeviation="5"/><feColorMatrix values="0 0 0 0 0.290196 0 0 0 0 0.670588 0 0 0 0 0.937255 0 0 0 1 0"/><feBlend in2="BackgroundImageFix" result="effect1_dropShadow"/><feBlend in="SourceGraphic" in2="effect1_dropShadow" result="shape"/></filter><filter id="filter1_d" x="316.261" y="865.992" width="32" height="32" filterUnits="userSpaceOnUse" color-interpolation-filters="sRGB"><feFlood flood-opacity="0" result="BackgroundImageFix"/><feColorMatrix in="SourceAlpha" values="0 0 0 0 0 0 0 0 0 0 0 0 0 0 0 0 0 0 127 0"/><feOffset/><feGaussianBlur stdDeviation="5"/><feColorMatrix values="0 0 0 0 0.290196 0 0 0 0 0.670588 0 0 0 0 0.937255 0 0 0 1 0"/><feBlend in2="BackgroundImageFix" result="effect1_dropShadow"/><feBlend in="SourceGraphic" in2="effect1_dropShadow" result="shape"/></filter><filter id="filter2_d" x="264.261" y="772.261" width="32" height="32" filterUnits="userSpaceOnUse" color-interpolation-filters="sRGB"><feFlood flood-opacity="0" result="BackgroundImageFix"/><feColorMatrix in="SourceAlpha" values="0 0 0 0 0 0 0 0 0 0 0 0 0 0 0 0 0 0 127 0"/><feOffset/><feGaussianBlur stdDeviation="5"/><feColorMatrix values="0 0 0 0 0.290196 0 0 0 0 0.670588 0 0 0 0 0.937255 0 0 0 1 0"/><feBlend in2="BackgroundImageFix" result="effect1_dropShadow"/><feBlend in="SourceGraphic" in2="effect1_dropShadow" result="shape"/></filter><filter id="filter3_d" x="426.719" y="493.164" width="32.002" height="32.002" filterUnits="userSpaceOnUse" color-interpolation-filters="sRGB"><feFlood flood-opacity="0" result="BackgroundImageFix"/><feColorMatrix in="SourceAlpha" values="0 0 0 0 0 0 0 0 0 0 0 0 0 0 0 0 0 0 127 0"/><feOffset/><feGaussianBlur stdDeviation="5"/><feColorMatrix values="0 0 0 0 0.290196 0 0 0 0 0.670588 0 0 0 0 0.937255 0 0 0 1 0"/><feBlend in2="BackgroundImageFix" result="effect1_dropShadow"/><feBlend in="SourceGraphic" in2="effect1_dropShadow" result="shape"/></filter><filter id="filter4_d" x="481.446" y="588.584" width="32.002" height="32.002" filterUnits="userSpaceOnUse" color-interpolation-filters="sRGB"><feFlood flood-opacity="0" result="BackgroundImageFix"/><feColorMatrix in="SourceAlpha" values="0 0 0 0 0 0 0 0 0 0 0 0 0 0 0 0 0 0 127 0"/><feOffset/><feGaussianBlur stdDeviation="5"/><feColorMatrix values="0 0 0 0 0.290196 0 0 0 0 0.670588 0 0 0 0 0.937255 0 0 0 1 0"/><feBlend in2="BackgroundImageFix" result="effect1_dropShadow"/><feBlend in="SourceGraphic" in2="effect1_dropShadow" result="shape"/></filter><filter id="filter5_d" x="426.009" y="680.324" width="32.002" height="32.002" filterUnits="userSpaceOnUse" color-interpolation-filters="sRGB"><feFlood flood-opacity="0" result="BackgroundImageFix"/><feColorMatrix in="SourceAlpha" values="0 0 0 0 0 0 0 0 0 0 0 0 0 0 0 0 0 0 127 0"/><feOffset/><feGaussianBlur stdDeviation="5"/><feColorMatrix values="0 0 0 0 0.290196 0 0 0 0 0.670588 0 0 0 0 0.937255 0 0 0 1 0"/><feBlend in2="BackgroundImageFix" result="effect1_dropShadow"/><feBlend in="SourceGraphic" in2="effect1_dropShadow" result="shape"/></filter><filter id="filter6_d" x="744.417" y="686.765" width="32.002" height="32.002" filterUnits="userSpaceOnUse" color-interpolation-filters="sRGB"><feFlood flood-opacity="0" result="BackgroundImageFix"/><feColorMatrix in="SourceAlpha" values="0 0 0 0 0 0 0 0 0 0 0 0 0 0 0 0 0 0 127 0"/><feOffset/><feGaussianBlur stdDeviation="5"/><feColorMatrix values="0 0 0 0 0.290196 0 0 0 0 0.670588 0 0 0 0 0.937255 0 0 0 1 0"/><feBlend in2="BackgroundImageFix" result="effect1_dropShadow"/><feBlend in="SourceGraphic" in2="effect1_dropShadow" result="shape"/></filter><filter id="filter7_d" x="958" y="687.269" width="32" height="32" filterUnits="userSpaceOnUse" color-interpolation-filters="sRGB"><feFlood flood-opacity="0" result="BackgroundImageFix"/><feColorMatrix in="SourceAlpha" values="0 0 0 0 0 0 0 0 0 0 0 0 0 0 0 0 0 0 127 0"/><feOffset/><feGaussianBlur stdDeviation="5"/><feColorMatrix values="0 0 0 0 0.290196 0 0 0 0 0.670588 0 0 0 0 0.937255 0 0 0 1 0"/><feBlend in2="BackgroundImageFix" result="effect1_dropShadow"/><feBlend in="SourceGraphic" in2="effect1_dropShadow" result="shape"/></filter><filter id="filter8_d" x="1068" y="687.269" width="32" height="32" filterUnits="userSpaceOnUse" color-interpolation-filters="sRGB"><feFlood flood-opacity="0" result="BackgroundImageFix"/><feColorMatrix in="SourceAlpha" values="0 0 0 0 0 0 0 0 0 0 0 0 0 0 0 0 0 0 127 0"/><feOffset/><feGaussianBlur stdDeviation="5"/><feColorMatrix values="0 0 0 0 0.290196 0 0 0 0 0.670588 0 0 0 0 0.937255 0 0 0 1 0"/><feBlend in2="BackgroundImageFix" result="effect1_dropShadow"/><feBlend in="SourceGraphic" in2="effect1_dropShadow" result="shape"/></filter><filter id="filter9_d" x="1120" y="781" width="32" height="32" filterUnits="userSpaceOnUse" color-interpolation-filters="sRGB"><feFlood flood-opacity="0" result="BackgroundImageFix"/><feColorMatrix in="SourceAlpha" values="0 0 0 0 0 0 0 0 0 0 0 0 0 0 0 0 0 0 127 0"/><feOffset/><feGaussianBlur stdDeviation="5"/><feColorMatrix values="0 0 0 0 0.290196 0 0 0 0 0.670588 0 0 0 0 0.937255 0 0 0 1 0"/><feBlend in2="BackgroundImageFix" result="effect1_dropShadow"/><feBlend in="SourceGraphic" in2="effect1_dropShadow" result="shape"/></filter><filter id="filter10_d" x="1284" y="508" width="32" height="32" filterUnits="userSpaceOnUse" color-interpolation-filters="sRGB"><feFlood flood-opacity="0" result="BackgroundImageFix"/><feColorMatrix in="SourceAlpha" values="0 0 0 0 0 0 0 0 0 0 0 0 0 0 0 0 0 0 127 0"/><feOffset/><feGaussianBlur stdDeviation="5"/><feColorMatrix values="0 0 0 0 0.290196 0 0 0 0 0.670588 0 0 0 0 0.937255 0 0 0 1 0"/><feBlend in2="BackgroundImageFix" result="effect1_dropShadow"/><feBlend in="SourceGraphic" in2="effect1_dropShadow" result="shape"/></filter><filter id="filter11_d" x="1444" y="601.269" width="32" height="32" filterUnits="userSpaceOnUse" color-interpolation-filters="sRGB"><feFlood flood-opacity="0" result="BackgroundImageFix"/><feColorMatrix in="SourceAlpha" values="0 0 0 0 0 0 0 0 0 0 0 0 0 0 0 0 0 0 127 0"/><feOffset/><feGaussianBlur stdDeviation="5"/><feColorMatrix values="0 0 0 0 0.290196 0 0 0 0 0.670588 0 0 0 0 0.937255 0 0 0 1 0"/><feBlend in2="BackgroundImageFix" result="effect1_dropShadow"/><feBlend in="SourceGraphic" in2="effect1_dropShadow" result="shape"/></filter><filter id="filter12_d" x="1554" y="601.269" width="32" height="32" filterUnits="userSpaceOnUse" color-interpolation-filters="sRGB"><feFlood flood-opacity="0" result="BackgroundImageFix"/><feColorMatrix in="SourceAlpha" values="0 0 0 0 0 0 0 0 0 0 0 0 0 0 0 0 0 0 127 0"/><feOffset/><feGaussianBlur stdDeviation="5"/><feColorMatrix values="0 0 0 0 0.290196 0 0 0 0 0.670588 0 0 0 0 0.937255 0 0 0 1 0"/><feBlend in2="BackgroundImageFix" result="effect1_dropShadow"/><feBlend in="SourceGraphic" in2="effect1_dropShadow" result="shape"/></filter><filter id="filter13_d" x="1606" y="695" width="32" height="32" filterUnits="userSpaceOnUse" color-interpolation-filters="sRGB"><feFlood flood-opacity="0" result="BackgroundImageFix"/><feColorMatrix in="SourceAlpha" values="0 0 0 0 0 0 0 0 0 0 0 0 0 0 0 0 0 0 127 0"/><feOffset/><feGaussianBlur stdDeviation="5"/><feColorMatrix values="0 0 0 0 0.290196 0 0 0 0 0.670588 0 0 0 0 0.937255 0 0 0 1 0"/><feBlend in2="BackgroundImageFix" result="effect1_dropShadow"/><feBlend in="SourceGraphic" in2="effect1_dropShadow" result="shape"/></filter><filter id="filter14_d" x="1770" y="422" width="32" height="32" filterUnits="userSpaceOnUse" color-interpolation-filters="sRGB"><feFlood flood-opacity="0" result="BackgroundImageFix"/><feColorMatrix in="SourceAlpha" values="0 0 0 0 0 0 0 0 0 0 0 0 0 0 0 0 0 0 127 0"/><feOffset/><feGaussianBlur stdDeviation="5"/><feColorMatrix values="0 0 0 0 0.290196 0 0 0 0 0.670588 0 0 0 0 0.937255 0 0 0 1 0"/><feBlend in2="BackgroundImageFix" result="effect1_dropShadow"/><feBlend in="SourceGraphic" in2="effect1_dropShadow" result="shape"/></filter><filter id="filter15_d" x="1452" y="72" width="32" height="32" filterUnits="userSpaceOnUse" color-interpolation-filters="sRGB"><feFlood flood-opacity="0" result="BackgroundImageFix"/><feColorMatrix in="SourceAlpha" values="0 0 0 0 0 0 0 0 0 0 0 0 0 0 0 0 0 0 127 0"/><feOffset/><feGaussianBlur stdDeviation="5"/><feColorMatrix values="0 0 0 0 0.290196 0 0 0 0 0.670588 0 0 0 0 0.937255 0 0 0 1 0"/><feBlend in2="BackgroundImageFix" result="effect1_dropShadow"/><feBlend in="SourceGraphic" in2="effect1_dropShadow" result="shape"/></filter><clipPath id="clip0"><path fill="#fff" transform="matrix(-1 0 0 1 1920 0)" d="M0 0h1920v980H0z"/></clipPath></defs></svg>