<svg width="681" height="587" fill="none" xmlns="http://www.w3.org/2000/svg"><g opacity=".5"><path opacity=".5" d="M322.157 571.341l53.526-92.71-53.526-92.711H215.104l-53.527 92.711 53.527 92.71h107.053z" stroke="url(#paint0_linear)"/><path d="M482.157 478.341l53.526-92.71-53.526-92.711H375.104l-53.527 92.711 53.527 92.71h107.053z" stroke="url(#paint1_linear)" stroke-opacity=".5"/><path d="M482.157 293.341l53.526-92.711-53.526-92.71H375.104l-53.527 92.71 53.527 92.711h107.053z" stroke="url(#paint2_linear)" stroke-opacity=".5"/><path d="M161.157 480.341l53.526-92.71-53.526-92.711H54.104L.577 387.631l53.527 92.71h107.053z" stroke="url(#paint3_linear)" stroke-opacity=".5"/><path d="M643.157 200.341l53.526-92.711-53.526-92.71H536.104l-53.527 92.71 53.527 92.711h107.053z" stroke="url(#paint4_linear)" stroke-opacity=".5"/><path d="M487 81.5l-9.75-16.888h-19.5L448 81.5l9.75 16.888h19.5L487 81.5z" fill="url(#paint5_linear)" fill-opacity=".15"/><path d="M321.157 386.341l53.526-92.71-53.526-92.711H214.104l-53.527 92.711 53.527 92.71h107.053z" stroke="url(#paint6_linear)" stroke-opacity=".5"/><g filter="url(#filter0_d)"><circle r="6" transform="matrix(1 0 0 -1 482 478)" fill="#51B4F7"/></g><g filter="url(#filter1_d)"><circle r="6" transform="matrix(1 0 0 -1 321 386)" fill="#51B4F7"/></g><g filter="url(#filter2_d)"><circle r="6" transform="matrix(1 0 0 -1 321 201)" fill="#51B4F7"/></g><path d="M643.157 386.341l53.526-92.71-53.526-92.711H536.104l-53.527 92.711 53.527 92.71h107.053z" stroke="url(#paint7_linear)" stroke-opacity=".5"/><g filter="url(#filter3_d)"><circle r="6" transform="matrix(1 0 0 -1 535 201)" fill="#51B4F7"/></g></g><defs><linearGradient id="paint0_linear" x1="336.017" y1="548.09" x2="194.017" y2="414.59" gradientUnits="userSpaceOnUse"><stop stop-color="#0047A3"/><stop offset="1" stop-color="#53B7F9"/></linearGradient><linearGradient id="paint1_linear" x1="496.017" y1="455.09" x2="354.017" y2="321.59" gradientUnits="userSpaceOnUse"><stop stop-color="#0047A3"/><stop offset="1" stop-color="#53B7F9"/></linearGradient><linearGradient id="paint2_linear" x1="496.017" y1="270.09" x2="354.017" y2="136.59" gradientUnits="userSpaceOnUse"><stop stop-color="#0047A3"/><stop offset="1" stop-color="#53B7F9"/></linearGradient><linearGradient id="paint3_linear" x1="175.017" y1="457.09" x2="33.017" y2="323.59" gradientUnits="userSpaceOnUse"><stop stop-color="#0047A3"/><stop offset="1" stop-color="#53B7F9"/></linearGradient><linearGradient id="paint4_linear" x1="657.017" y1="177.09" x2="515.017" y2="43.59" gradientUnits="userSpaceOnUse"><stop stop-color="#0047A3"/><stop offset="1" stop-color="#53B7F9"/></linearGradient><linearGradient id="paint5_linear" x1="479.709" y1="94.084" x2="453.982" y2="69.897" gradientUnits="userSpaceOnUse"><stop stop-color="#0047A3"/><stop offset="1" stop-color="#53B7F9"/></linearGradient><linearGradient id="paint6_linear" x1="335.017" y1="363.09" x2="193.017" y2="229.59" gradientUnits="userSpaceOnUse"><stop stop-color="#53B7F9"/><stop offset="1" stop-color="#0047A3"/></linearGradient><linearGradient id="paint7_linear" x1="657.017" y1="363.09" x2="515.017" y2="229.59" gradientUnits="userSpaceOnUse"><stop stop-color="#0047A3"/><stop offset="1" stop-color="#53B7F9"/></linearGradient><filter id="filter0_d" x="466" y="462" width="32" height="32" filterUnits="userSpaceOnUse" color-interpolation-filters="sRGB"><feFlood flood-opacity="0" result="BackgroundImageFix"/><feColorMatrix in="SourceAlpha" values="0 0 0 0 0 0 0 0 0 0 0 0 0 0 0 0 0 0 127 0"/><feOffset/><feGaussianBlur stdDeviation="5"/><feColorMatrix values="0 0 0 0 0.290196 0 0 0 0 0.670588 0 0 0 0 0.937255 0 0 0 1 0"/><feBlend in2="BackgroundImageFix" result="effect1_dropShadow"/><feBlend in="SourceGraphic" in2="effect1_dropShadow" result="shape"/></filter><filter id="filter1_d" x="305" y="370" width="32" height="32" filterUnits="userSpaceOnUse" color-interpolation-filters="sRGB"><feFlood flood-opacity="0" result="BackgroundImageFix"/><feColorMatrix in="SourceAlpha" values="0 0 0 0 0 0 0 0 0 0 0 0 0 0 0 0 0 0 127 0"/><feOffset/><feGaussianBlur stdDeviation="5"/><feColorMatrix values="0 0 0 0 0.290196 0 0 0 0 0.670588 0 0 0 0 0.937255 0 0 0 1 0"/><feBlend in2="BackgroundImageFix" result="effect1_dropShadow"/><feBlend in="SourceGraphic" in2="effect1_dropShadow" result="shape"/></filter><filter id="filter2_d" x="305" y="185" width="32" height="32" filterUnits="userSpaceOnUse" color-interpolation-filters="sRGB"><feFlood flood-opacity="0" result="BackgroundImageFix"/><feColorMatrix in="SourceAlpha" values="0 0 0 0 0 0 0 0 0 0 0 0 0 0 0 0 0 0 127 0"/><feOffset/><feGaussianBlur stdDeviation="5"/><feColorMatrix values="0 0 0 0 0.290196 0 0 0 0 0.670588 0 0 0 0 0.937255 0 0 0 1 0"/><feBlend in2="BackgroundImageFix" result="effect1_dropShadow"/><feBlend in="SourceGraphic" in2="effect1_dropShadow" result="shape"/></filter><filter id="filter3_d" x="519" y="185" width="32" height="32" filterUnits="userSpaceOnUse" color-interpolation-filters="sRGB"><feFlood flood-opacity="0" result="BackgroundImageFix"/><feColorMatrix in="SourceAlpha" values="0 0 0 0 0 0 0 0 0 0 0 0 0 0 0 0 0 0 127 0"/><feOffset/><feGaussianBlur stdDeviation="5"/><feColorMatrix values="0 0 0 0 0.290196 0 0 0 0 0.670588 0 0 0 0 0.937255 0 0 0 1 0"/><feBlend in2="BackgroundImageFix" result="effect1_dropShadow"/><feBlend in="SourceGraphic" in2="effect1_dropShadow" result="shape"/></filter></defs></svg>