<svg width="427" height="427" fill="none" xmlns="http://www.w3.org/2000/svg"><g clip-path="url(#clip0)"><path d="M29.53 138.447l28.647 31.334c-17.925 13.512-29.169 40.024.837 71.553l-40.34 19.539C-9.597 211.4-5.6 172.305 29.531 138.447z" fill="url(#paint0_linear)"/><path d="M12.659 249.51l27.792.446 4.99-27.352c15.259 31.331 51.338 44.424 92.615 31.06l20.849 38.715c-59.578 27.14-119.882 13.212-146.246-42.869z" fill="url(#paint1_linear)"/><path d="M245.734 208.117c22.529-44.499 81.995-60.912 124.749-36.545l43.34-14.336c-50.621-67.482-142.604-54.677-199.748 12.756l31.659 38.125z" fill="url(#paint2_linear)"/><path d="M345.716 255.221l18.389 42.926c67.098-27.928 87.401-122.495 26.818-164.16l.441 27.814-28.513 5.928c41.996 19.906 23.284 76.316-17.135 87.492z" fill="url(#paint3_linear)"/><path d="M225.95 267.367c63.568 45.685 119.189 51.642 163.54 15.339l-31.215-11.09 8.688-27.783c-38.923 26.995-75.097 18.211-109.821-9.429l-31.192 32.963z" fill="url(#paint4_linear)"/><path d="M29.531 138.447v30.094l28.646 1.232c18.575-12.041 45.467-11.069 79.332-.242l19.676-43.587c-51.454-22.014-93.63-16.757-127.654 12.503z" fill="url(#paint5_linear)"/><path d="M137.511 169.539l-16.093-33.497 35.768-10.095c23.235 12.111 41.947 26.943 56.892 44.049 16.45 36.195 39.024 67.098 67.259 80.286l-37.054.389 5.703 32.299c-14.519-8.688-28.529-18.44-40.856-29.072l-27.824-49.44c-9.704-14.726-23.238-26.721-43.795-34.919z" fill="url(#paint6_linear)"/><path d="M214.082 169.992c-10.885 11.63-18.01 28.775-28.238 40.958-16.312 19.431-36.656 44.536-73.364 47.802l29.97 15.496-17.849 29.234c59.867-11.89 101.755-50.913 121.132-95.365v-42.781l-31.651 4.656z" fill="url(#paint7_linear)"/><path d="M224.241 45.556l145.717-.636a2.495 2.495 0 012.52 2.51l-.308 50.97a2.485 2.485 0 01-.762 1.784 2.492 2.492 0 01-1.812.698c-12.85-.383-144.546-2.071-147.065-1.967-2.489.105-1.136-40.146-.77-50.947a2.493 2.493 0 012.48-2.412z" fill="url(#paint8_linear)"/><path d="M369.673 98.906h-.017c-8.212-.245-86.909-1.232-124.73-1.694-11.058-.137-18.908-.236-21.001-.265h-.196l-.034-.192c-.894-5.04-.878-21.885.045-48.718a.52.52 0 01.518-.503l145.717-.636a.52.52 0 01.375.153.51.51 0 01.154.372l-.308 50.969a.521.521 0 01-.523.514zm-145.544-2.433c2.353.032 10.066.13 20.807.262 37.821.471 116.519 1.454 124.737 1.694h.014a.049.049 0 00.026-.02.057.057 0 00.01-.03l.308-50.97-.054-.287v.236L224.255 48a.048.048 0 00-.034.014.045.045 0 00-.015.034c-.904 26.465-.933 43.191-.077 48.426v-.001z" fill="#fff"/><path opacity=".7" d="M230.475 58.718c0 1.379.463 2.495 1.028 2.495h55.817c.567 0 1.028-1.116 1.028-2.495 0-1.378-.462-2.495-1.028-2.495h-55.821c-.564-.006-1.024 1.117-1.024 2.495z" fill="url(#paint9_linear)"/><path opacity=".7" d="M230.475 67.226c0 1.379.463 2.495 1.028 2.495h55.817c.567 0 1.028-1.117 1.028-2.495 0-1.378-.462-2.495-1.028-2.495h-55.821c-.564-.002-1.024 1.117-1.024 2.495z" fill="url(#paint10_linear)"/><path opacity=".7" d="M230.475 75.734c0 1.379.463 2.495 1.028 2.495h55.817c.567 0 1.028-1.116 1.028-2.495 0-1.378-.462-2.495-1.028-2.495h-55.821c-.564-.002-1.024 1.117-1.024 2.495z" fill="url(#paint11_linear)"/><path opacity=".7" d="M230.475 84.248c0 1.379.463 2.495 1.028 2.495h55.817c.567 0 1.028-1.116 1.028-2.495 0-1.378-.462-2.495-1.028-2.495h-55.821c-.564-.007-1.024 1.11-1.024 2.495z" fill="url(#paint12_linear)"/><path d="M302.489 70.179c5.363 0 9.71-4.344 9.71-9.703 0-5.36-4.347-9.703-9.71-9.703s-9.71 4.344-9.71 9.703c0 5.359 4.347 9.703 9.71 9.703zm24.13 0c5.362 0 9.71-4.344 9.71-9.703 0-5.36-4.348-9.703-9.71-9.703-5.363 0-9.71 4.344-9.71 9.703 0 5.359 4.347 9.703 9.71 9.703zm24.132.319c5.362 0 9.71-4.345 9.71-9.704 0-5.358-4.348-9.703-9.71-9.703-5.363 0-9.71 4.345-9.71 9.703 0 5.36 4.347 9.704 9.71 9.704z" fill="#fff" fill-opacity=".5"/><path d="M308.254 58.426a6.232 6.232 0 01-5.475 8.595 6.242 6.242 0 01-6.17-4.133 6.232 6.232 0 016.184-8.319v-1.586h-.308a7.813 7.813 0 00-7.471 5.545 7.793 7.793 0 00.123 4.895 7.81 7.81 0 007.742 5.161 7.808 7.808 0 006.825-10.789l-1.45.63zm21.577 7.648a6.237 6.237 0 01-9.455-6.4 6.23 6.23 0 016.44-5.097v-1.594h-.308a7.817 7.817 0 00-7.678 6.373 7.81 7.81 0 008.393 9.215 7.823 7.823 0 003.393-1.13l-.785-1.367zm26.125-1.776a6.24 6.24 0 01-8.517 1.744 6.226 6.226 0 01-1.984-8.46 6.237 6.237 0 015.646-3.013v-1.586h-.308a7.818 7.818 0 00-7.811 7.578 7.805 7.805 0 003.573 6.793 7.82 7.82 0 0010.675-2.13l-1.274-.926z" fill="#7D97F4"/><g opacity=".64"><path opacity=".64" d="M310.4 74.29h-15.822a1.805 1.805 0 00-1.306.507 1.797 1.797 0 001.306 3.086H310.4a1.803 1.803 0 001.71-1.097 1.81 1.81 0 000-1.4 1.797 1.797 0 00-1.71-1.097z" fill="url(#paint13_linear)"/><path opacity=".64" d="M334.53 74.29h-15.822a1.8 1.8 0 00-1.746 1.796 1.796 1.796 0 001.746 1.797h15.822a1.8 1.8 0 001.852-1.797 1.81 1.81 0 00-.546-1.29 1.792 1.792 0 00-1.306-.507z" fill="url(#paint14_linear)"/><path opacity=".64" d="M342.839 77.883h15.823a1.8 1.8 0 001.746-1.797 1.796 1.796 0 00-1.746-1.797h-15.823a1.8 1.8 0 00-1.851 1.797 1.791 1.791 0 00.546 1.29 1.795 1.795 0 001.305.507z" fill="url(#paint15_linear)"/><path opacity=".64" d="M310.399 79.879h-15.821c-.994 0-1.799.804-1.799 1.797v10.581c0 .993.805 1.797 1.799 1.797h15.821c.993 0 1.798-.804 1.798-1.797v-10.58c0-.994-.805-1.798-1.798-1.798z" fill="url(#paint16_linear)"/><path opacity=".64" d="M334.531 79.879H318.71c-.994 0-1.799.804-1.799 1.797v10.581c0 .993.805 1.797 1.799 1.797h15.821c.993 0 1.798-.804 1.798-1.797v-10.58c0-.994-.805-1.798-1.798-1.798z" fill="url(#paint17_linear)"/><path opacity=".64" d="M358.661 79.879h-15.822c-.993 0-1.798.804-1.798 1.797v10.581c0 .993.805 1.797 1.798 1.797h15.822c.993 0 1.798-.804 1.798-1.797v-10.58c0-.994-.805-1.798-1.798-1.798z" fill="url(#paint18_linear)"/></g><path d="M161.285 404.805s-.794 4.255-1.204 8.471a2.899 2.899 0 00.697 2.175 2.912 2.912 0 002.056 1.001c5.621.288 17.644.858 21.961.705a.936.936 0 00.754-.426.945.945 0 00.091-.861 2.118 2.118 0 00-1.079-1.152l-19.781-9.314-3.495-.599z" fill="url(#paint19_linear)"/><path d="M160.691 402.296l.556 5.104s3.465 1.653 5.857-.154l-1.387-5.699-5.026.749z" fill="url(#paint20_linear)"/><path d="M162.061 306.447c-.274 1.329-2.037 66.428 4.649 95.673a.994.994 0 01-.592 1.146 17.278 17.278 0 01-5.683 1.098 1.705 1.705 0 01-1.681-1.24c-1.927-6.789-11.142-40.797-12.078-73.211-1.045-36.219.013-1.232.013-1.232l1.029-22.372 14.343.138z" fill="url(#paint21_linear)"/><path d="M138.406 406.81s-1.219 2.141-2.435 7.855a1.765 1.765 0 00.294 1.413 1.772 1.772 0 001.247.727c1.849.2 4.711.462 7 .462a1.786 1.786 0 001.324-.582 1.772 1.772 0 00.447-1.374c-.234-2.09-.991-5.522-3.406-8.214l-4.471-.287z" fill="url(#paint22_linear)"/><path d="M137.418 400.243l1.341 7.724s1.387 1.053 4.161.325l-.596-8.302-4.906.253z" fill="url(#paint23_linear)"/><path d="M134.475 308.182c-6.024 34.298.426 84.916 2.668 94.833a1.539 1.539 0 001.233 1.183c1.042.183 2.759.34 4.458-.136a1.414 1.414 0 001.029-1.292c.39-7.996.295-57.11 5.788-76.467a4.408 4.408 0 011.724-2.416l10.371-7.221.904-11.822-28.175 3.338z" fill="url(#paint24_linear)"/><path d="M171.389 243.437c-17.068-.445-35.948 4.137-35.948 4.137-5.372 29.621-1.5 63.882-1.5 63.882 13.183 3.589 28.144-1.848 28.144-1.848 2.311-12.38 12.895-47.184 12.895-47.184 8.351-.955 15.245-3.294 20.932-6.419-4.268-5.041-6.242-11.421-7.09-15.19-6.048 1.816-12.165 2.759-17.433 2.622z" fill="url(#paint25_linear)"/><path d="M222.055 218.791c-1.657-2.041-3.788-1.103-3.788-1.103-2.62 10.58-15.868 19.052-29.439 23.126.848 3.769 2.823 10.15 7.09 15.189 22.578-12.403 26.137-37.212 26.137-37.212z" fill="url(#paint26_linear)"/><path d="M221.644 219.302c.169.559-1.87 1.386-3.044-.902-.031-1.094-.652-5.781.01-6.665 3.525-4.706 10.327-10.585 10.327-10.585 1.13 1.135.18 2.23.18 2.23l-3.306 3.376c.674 1.243 1.498 2.293 1.875 3.793a4.585 4.585 0 01-.491 3.369c-.584 1.029-1.387 2.366-2.131 3.411-1.426 1.978-3.42 1.973-3.42 1.973z" fill="url(#paint27_linear)"/><path d="M224.359 208.952l-3.007 2.499-.96 2.505 2.631 2.973s.942-4.982 1.617-6.056c.675-1.074.336-1.599-.281-1.921z" fill="url(#paint28_linear)"/><path d="M141.835 264.154l-6.39-16.58s-16.048 10.673-18.804 24.375c3.01.251 8.485 1.078 13.825 3.85 1.244-6.476 11.369-11.645 11.369-11.645z" fill="url(#paint29_linear)"/><path d="M155.62 279.828s-17.999 9.939-23.956 1.249c-1.233-1.805-1.52-3.588-1.194-5.284-5.341-2.758-10.816-3.595-13.826-3.85-.83 4.13-.454 8.535 1.938 13.007 10.396 19.441 39.367-.694 39.367-.694l-2.329-4.428z" fill="url(#paint30_linear)"/><path d="M154.234 229.423l-5.581 15.645a.569.569 0 00.252.684c1.473.832 6.781 3.247 13.254-.77a2.663 2.663 0 001.246-1.89l1.888-13.569-11.059-.1z" fill="url(#paint31_linear)"/><path d="M166.191 215s5.857 11.276 5.05 15.801c-.808 4.525-8.197 4.129-14.616.387l-4.394-12.157 13.96-4.031z" fill="url(#paint32_linear)"/><path d="M156.967 225.241a.46.46 0 00.208-.674c-.471-.735-1.351-2.231-1.626-3.543 0 0-1.065-.696 2.744-1.569 3.808-.874 9.492-2.23 10.715-5.453 1.191-3.142-1.785-11.098-6.716-4.828a.455.455 0 01-.366.181.47.47 0 01-.367-.181c-.788-1.046-2.867-3.22-5.792-1.942-2.739 1.197-3.064 3.19-3.037 4.197a.46.46 0 01-.55.462c-1.376-.276-4.682-.533-6.259 2.843-1.298 2.782-.487 4.371.259 5.15a.467.467 0 01.118.444.459.459 0 01-.323.326c-.909.268-2.085 1.026-1.99 3.149.134 2.934 3.417 2.707 4.353 2.582a.462.462 0 01.41.154c.792.894 4.365 4.689 8.267 5.18.079.01.159 0 .233-.029a.472.472 0 00.188-.14.462.462 0 00.074-.447l-1.643-4.929a.46.46 0 01.257-.572l.843-.361z" fill="url(#paint33_linear)"/><path d="M157.64 225.945s-4.219-2.953-4.553-.504c-.335 2.449 3.79 3.589 5.847 2.694l-1.294-2.19z" fill="url(#paint34_linear)"/><path d="M151.941 295.537l9.804-34.215a.994.994 0 01.845-.718c1.777-.207 6.923-.789 12.866-1.291 7.159-.605 15.471-1.095 20.44-.678a1.007 1.007 0 01.791.504 1.003 1.003 0 01.028.937c-2.825 5.711-14.445 28.943-20.265 36.553a1.011 1.011 0 01-.809.396l-22.747-.211a1.007 1.007 0 01-.793-.403.996.996 0 01-.16-.874z" fill="url(#paint35_linear)"/><path d="M154.31 287.27s-1.365-5.612-.815-7.602c.55-1.99 1.618-4.551 5.176-3.981 3.557.57 7.755 2.067 7.755 2.067s-.212 2.593-2.916 1.757l1.677 1.297s-.24 2.076-2.523.967l1.56 1.719s-.98 1.705-2.662.616-2.486 3.837-7.252 3.16z" fill="url(#paint36_linear)"/><path d="M177.682 272.402a2.877 2.877 0 100-5.753 2.877 2.877 0 000 5.753z" fill="#91B3FA"/><path d="M162.854 271.422l-.733-.217 2.003-6.766a3.085 3.085 0 012.323-2.156c6.327-1.32 22.991-1.59 23.697-1.601l.012.77c-.172 0-17.297.279-23.553 1.584a2.32 2.32 0 00-1.745 1.628l-2.004 6.758z" fill="url(#paint37_linear)"/><path d="M46.822 367.18c-1.045 1.54-5.199 36.536-5.849 49.458a1.527 1.527 0 001.53 1.602 1.535 1.535 0 001.514-1.296l7.597-48.652-4.792-1.112zm33.396 0c1.045 1.54 5.2 36.536 5.85 49.458a1.527 1.527 0 01-1.531 1.602 1.535 1.535 0 01-1.514-1.296l-7.598-48.655 4.793-1.109z" fill="#7D97F4"/><path d="M40.536 364.444v.382c-.025 2.745 2.341 4.997 5.305 5.048l35.118.597c2.92.05 5.354-2.059 5.496-4.762l.018-.35c.154-2.818-2.247-5.193-5.292-5.247l-35.133-.633c-3.008-.051-5.484 2.179-5.512 4.965zm73.981 50.919c-6.243 0-9.005-.535-10.241-1.023a2.367 2.367 0 002.312 1.833h22.079a1.08 1.08 0 001.036-1.355c-2.517.201-7.865.545-15.186.545z" fill="#7D97F4"/><path d="M129.703 414.818a1.057 1.057 0 00-.181-.376c-1.683-2.147-5.061-5.517-9.659-5.453-6.734.094-9.083.824-14.315.042l-1.233 4.089c-.12.397-.133.817-.037 1.22 1.233.488 3.996 1.023 10.24 1.023 7.319 0 12.668-.344 15.185-.545z" fill="url(#paint38_linear)"/><path d="M107.063 404.625l-1.515 5.15s3.357 1.528 6.31.308l.579-4.466-5.374-.992z" fill="url(#paint39_linear)"/><path d="M152.835 412.119c-4.866 3.908-7.353 5.221-8.62 5.616a2.372 2.372 0 002.942-.022l17.216-13.823a1.063 1.063 0 00.398-.857 1.067 1.067 0 00-.436-.837c-1.838 1.728-5.791 5.336-11.5 9.923z" fill="#7D97F4"/><path d="M164.334 402.191a1.053 1.053 0 00-.376-.179c-2.651-.616-7.387-1.112-10.93 1.816-5.191 4.288-6.566 6.324-11.135 8.992l1.589 3.946c.154.383.407.717.733.97 1.266-.394 3.754-1.708 8.62-5.615 5.709-4.588 9.662-8.197 11.499-9.93z" fill="url(#paint40_linear)"/><path d="M74.645 345.944s37.375 3.049 45.042 6.657c7.668 3.607-6.25 54.161-6.25 54.161s-2.086 1.005-6.732-.438c0 0 4.763-37.305 1.219-45.394l-40.467-6.615 7.188-8.371z" fill="url(#paint41_linear)"/><path d="M138.181 405.718c.346.316 3.712 7.1 3.712 7.1s3.749-.81 4.512-3.18l-3.376-6.122-4.848 2.202z" fill="url(#paint42_linear)"/><path d="M52.133 345.631a18.9 18.9 0 00-1.168 6.82c.07 5.383 4.399 9.749 9.78 10.011l44.183 2.013a2.123 2.123 0 011.956 1.591c1.039 4.014 6.112 16.337 30.921 40.929a2.003 2.003 0 002.473.27l3.531-2.229a.813.813 0 00.269-1.098l-25.726-43.895a9.952 9.952 0 00-6.049-4.484l-37.658-9.62-22.512-.308z" fill="url(#paint43_linear)"/><path d="M95.675 277.056s-4.733 8.363-9.555 12.414l9.975 5.562s2.247-8.854 7.382-11.446l-7.802-6.53z" fill="url(#paint44_linear)"/><path d="M51.324 345.944s11.928 2.905 23.314 0c0 0 15.93-21.409 22.094-27.226 0 0 9.831 15.502 31.713 17.7l1.22-2.725s-17.416-8.024-22.783-20.355c-5.366-12.331-7.516-17.589-12.396-20.806-3.04-2.002-4.858-3.373-5.798-4.12a1.565 1.565 0 00-1.787-.114c-5.17 3.153-29.535 19.828-35.577 57.646z" fill="url(#paint45_linear)"/><path d="M96.092 318.416a.763.763 0 01-.608-.299c-3.799-4.948-5.913-10.405-6.001-10.627a.771.771 0 011.428-.548c.022.054 2.129 5.484 5.788 10.251a.77.77 0 01-.607 1.232v-.009z" fill="url(#paint46_linear)"/><path d="M127.138 332.268l2.466-.656 7.478-1.731a3.474 3.474 0 012.628.444l6.427 4.049-17.757-.029-1.242-2.077z" fill="url(#paint47_linear)"/><path d="M103.192 264.517s4.599 7.641 5.394 11.86c.795 4.218 2.078 6.863-2.727 8.372-4.804 1.51-9.28-.4-12.085-4.342 0 0-4.381-6.066-3.944-8.845.438-2.778 13.362-7.045 13.362-7.045z" fill="url(#paint48_linear)"/><path d="M95.054 277.139l.617-.082s-3.257-4.917-1.125-6.137c2.131-1.22 10.816-4.214 12.33-7.632 1.453-3.294-.721-7.017-3.343-7.795a.339.339 0 00-.401.211l-.154.415a.338.338 0 01-.626.018.33.33 0 00-.304-.208.33.33 0 00-.312.196c-.463 1.024-1.858 2.772-6.034 4.126-5.927 1.921-9.618 4.905-9.165 9.113a.334.334 0 01-.14.313.34.34 0 01-.341.029c-.483-.214-1.219-.248-2.071.684-1.483 1.62-.32 5.166 3.73 7.675a.34.34 0 01.162.255.335.335 0 01-.108.282c-.606.519-1.458 1.674 1.282 2.705 2.804 1.053 4.333.697 4.898.471a.335.335 0 00.208-.379l-.72-3.687a.338.338 0 01.287-.399l1.33-.174z" fill="url(#paint49_linear)"/><path d="M95.309 277.895s-2.03-5.001-4.162-3.243c-2.131 1.757 1.97 5.643 3.864 5.591l.298-2.348z" fill="url(#paint50_linear)"/><path d="M120.276 337.849h.088l37.935-.039a1.695 1.695 0 100-3.388l-37.935.038a1.698 1.698 0 00-1.737 1.653 1.696 1.696 0 001.654 1.736h-.005z" fill="url(#paint51_linear)"/><path d="M172.99 300.724c-.014.026-.026.052-.039.079l-15.961 34.389a1.705 1.705 0 00-.053 1.297 1.686 1.686 0 00.882.955 1.688 1.688 0 001.298.053 1.707 1.707 0 00.956-.881l15.961-34.389a1.694 1.694 0 00-3.036-1.503h-.008z" fill="url(#paint52_linear)"/><path d="M272.328 372.41h-4.004v43.27h4.004v-43.27z" fill="#7D97F4"/><path d="M287.861 416.513h-35.069a2.599 2.599 0 011.609-2.406c.316-.131.655-.198.997-.198h29.856a2.609 2.609 0 012.408 1.608 2.6 2.6 0 01.199.996zm.897-53.798h-35.479a4.304 4.304 0 00-4.306 4.303v3.889a4.304 4.304 0 004.306 4.303h35.479a4.304 4.304 0 004.306-4.303v-3.889a4.304 4.304 0 00-4.306-4.303z" fill="#7D97F4"/><path d="M240.767 343.56s-5.949.924-12.638 5.39a3.325 3.325 0 00-1.472 3.185c.801 6.341 4.093 26.863 14.95 46.905a5.04 5.04 0 01.484 3.462l-1.886 8.779-3.499 3.279h9.012l6-16.227-2.566-.81a4.853 4.853 0 01-3.391-4.542l-.308-17.404c.257-7.755-4.76-13.107-4.76-13.107l14.392-.699-14.318-18.211z" fill="url(#paint53_linear)"/><path d="M233.194 416.138c-.821 1.078 8.835 2.49 13.717.141 0 0 6.762-11.756 6.762-17.809 0 0-.536-1.232-4.507-.955 0 0-2.27 13.921-4.667 15.479-2.396 1.559-6.707.154-6.707.154s-3.389 1.406-4.598 2.99z" fill="url(#paint54_linear)"/><path d="M253.279 362.713c-.077-.132-15.496-1.848-15.496-1.848s.504 4.685-1.078 11.134c-1.583 6.449-24.217 34.392-24.217 34.392l2.374 7.519c-7.34 2.556-14.559 2.964-21.664 1.303l14.711-8.822s13.768-46.886 22.194-55.251l15.456-5.344 7.72 16.917z" fill="url(#paint55_linear)"/><path d="M287.861 335.434s8.884 13.204 9.613 19.227c.729 6.024-2.434 8.471-11.756 8.875-9.321.403-34.207.397-34.207.397l-21.246-18.139s15.478-5.518 19.502-7.084c4.024-1.567 38.094-3.276 38.094-3.276z" fill="url(#paint56_linear)"/><path d="M213.971 411.383s2.555 2.474.829 5.226c0 0-20.246 3.585-25.739 1.959 0 0 1.142-2.603 7.33-5.566l-.462.349a.739.739 0 00.488 1.326c4.081-.238 12.523-.984 17.554-3.294z" fill="url(#paint57_linear)"/><path d="M249.377 251.692c18.161-3.08 26.711 11.716 26.086 14.826a.563.563 0 00.176.524.576.576 0 00.538.128c2.085-.561 6.691-1.268 9.546 2.31 2.522 3.156.637 6.134-.898 7.77a.574.574 0 00.479.969c3.833-.484 12.162-.599 13.525 7.197 1.271 7.271-3.793 9.321-6.797 9.899a.57.57 0 00-.19 1.042c1.498.951 3.237 2.913 2.533 6.787-1.099 6.071-13.012 5.575-14.405 5.495a.559.559 0 01-.248-.074l-19.081-10.875a.576.576 0 01-.281-.401l-3.853-22.231a.57.57 0 01.154-.496l-12.439-17.541c-4.518-.665 4.943-5.293 5.155-5.329z" fill="url(#paint58_linear)"/><path d="M263.834 333.685s-10.345-9.843-15.437-16.364a13.832 13.832 0 01-2.344-12.451c2.324-7.827 6.456-15.935 6.834-17.196.578-1.934 12.176-1.848 12.176-1.848s22.826 14.804 31.795 39.881l-10.071 3.122s-5.96-9.992-11.849-16.344c0 0 10.189 13.452 10.548 18.958l-21.652 2.242z" fill="url(#paint59_linear)"/><path d="M251.484 276.865c.122.402 3.149 10.432 3.391 10.64.242.207 6.64.552 9.653-1.507l-7.482-14.618-5.562 5.485z" fill="url(#paint60_linear)"/><path d="M239.347 263.977s-1.463 5.746 2.584 13.473c4.048 7.727 8.631 7.72 11.136 5.246 2.505-2.473 5.595-6.67 4.861-14.142-.734-7.471-16.468-11.885-18.581-4.577z" fill="url(#paint61_linear)"/><path d="M252.327 268.961s-6.717-10.261-13.014-2.186l-.114 2.937s-7.377-.874-6.085-7.634c1.291-6.76 7.666-10.985 15.875-8.057 8.209 2.928 12.914 5.93 13.444 11.81.53 5.881-4.15 4.59-4.15 4.59s-1.528-4.14-3.699-4.57c-2.172-.429-1.606 2.799-1.606 2.799l-.651.311z" fill="url(#paint62_linear)"/><path d="M254.047 268.824s-3.483-5.254.086-6.038c3.57-.784 3.017 5.12 2.631 7.304l-2.717-1.266z" fill="url(#paint63_linear)"/><path d="M242.759 334.417l7.602-7.321 10.514 4.439s10.467 1.621 16.458 0l5.991-1.62 13.537-4.211 2.125 6.007a3.617 3.617 0 01-1.322 4.158c-1.172.832-2.545 1.745-3.419 2.129-1.783.779-43.946-.539-43.946-.539l-7.54-3.042z" fill="url(#paint64_linear)"/><path d="M271.523 337.869h-.106l-44.093-.048a1.973 1.973 0 010-3.945l44.093.048a1.975 1.975 0 011.994 1.923 1.97 1.97 0 01-1.897 2.018l.009.004z" fill="url(#paint65_linear)"/><path d="M187.693 297.864h36.716a6.998 6.998 0 016.33 4.004l16.975 35.971h-45.629a4.257 4.257 0 01-3.956-2.687l-13.163-33.276a2.92 2.92 0 01.297-2.73 2.929 2.929 0 012.43-1.282z" fill="url(#paint66_linear)"/><path d="M212.243 321.672c1.521-.489 2.109-2.888 1.313-5.359-.796-2.47-2.674-4.076-4.194-3.587-1.521.489-2.109 2.888-1.314 5.359.796 2.47 2.674 4.076 4.195 3.587z" fill="#91B3FA"/><path d="M321.792 411.06c.314 1.859.529 3.733.646 5.615a2.418 2.418 0 01-2.181 2.554c-4.513.437-14.786 1.244-21.345.298a1.096 1.096 0 01-.604-1.892c2.705-2.519 9.236-7.416 19.987-8.487l3.497 1.912z" fill="url(#paint67_linear)"/><path d="M324.036 405.271l-2.281 5.59a1.86 1.86 0 01-1.915 1.157 10.189 10.189 0 01-1.863-.361 2.445 2.445 0 01-1.629-3.043l1.721-5.758 5.967 2.415z" fill="url(#paint68_linear)"/><path d="M363.047 415.511s-4.57 3.819-6.35 8.72a2.09 2.09 0 00.271 1.899 2.086 2.086 0 001.71.874h9.401a2.225 2.225 0 001.7-.786 2.216 2.216 0 00.492-1.807c-.598-3.386-2.326-8.885-7.224-8.9z" fill="url(#paint69_linear)"/><path d="M368.707 410.539s-.925 4.083-1.632 6.777a.862.862 0 01-.435.542.867.867 0 01-.693.046c-1.423-.508-2.581-.733-3.424-.616a.677.677 0 01-.514-.169.654.654 0 01-.219-.495l-.088-6.777 7.005.692z" fill="url(#paint70_linear)"/><path d="M344.405 318.681l-27.792 84.728s5.331 3.489 7.869 3.344l33.011-68.093s5.777 41.956 2.978 72.081l9.456.72s15.374-76.975 3.729-103.346l-29.251 10.566z" fill="url(#paint71_linear)"/><path d="M357.317 337.929h.034a.275.275 0 00.181-.105.27.27 0 00.052-.203l-1.079-8.555a.273.273 0 00-.298-.211.27.27 0 00-.236.279l1.079 8.554a.27.27 0 00.267.241z" fill="#91B3FA"/><path d="M339.196 244.119s22.518 2.002 19.332 18.031c0 0 12.447 23.411 18.266 50.98.044.213.044.433.002.647a1.63 1.63 0 01-1.319 1.28l-37.499 6.416a2.02 2.02 0 01-2.295-1.483l-8.959-34.594-3.491 16.089-11.097-2.888 9.338-47.274s1.306-6.896 17.722-7.204z" fill="url(#paint72_linear)"/><path d="M326.533 283.847a.282.282 0 00.272-.216c.01-.04.01-.083.001-.123l-3.126-14.343a.276.276 0 00-.332-.213.281.281 0 00-.213.332l3.125 14.342a.28.28 0 00.273.221z" fill="url(#paint73_linear)"/><path d="M328.797 326.519a5.358 5.358 0 013.872-.504l2.609.649a.947.947 0 001.168-.812l2.701-24.015c3.375 1.602 8.246 1.411 9.852 1.294l-6.221 28.316h-21.74l7.759-4.928z" fill="url(#paint74_linear)"/><path d="M271.019 274.436l.657-2.182a4.316 4.316 0 012.526-2.762l11.888-4.774s.179-1.524-2.512-2.559c-2.691-1.035-2.063-4.047-2.063-4.047s3.678 1.676 9.06 4.334c3.083 1.52 4.806 4.205 5.721 6.224l26.937 32.815-3.163 2.171a8.45 8.45 0 01-9.971-.298 8.45 8.45 0 01-2.27-2.703l-14.592-27.962c-7.332 2.194-14.741 2.616-22.218 1.743z" fill="url(#paint75_linear)"/><path d="M331.901 228.817l6.925 19.37s-6.133 4.791-10.608 3.171l-3.49-11.103s2.667-13.571 7.173-11.438z" fill="url(#paint76_linear)"/><path d="M311.231 221.86c0 .299 6.671 18.872 6.671 18.872l10.531-4.032-3.699-18.542s-13.503-1.3-13.503 3.702z" fill="url(#paint77_linear)"/><path d="M322.881 222.675l2.716 9.609c.035.123.052.249.052.376 0 .784-.192 3.481-2.942 3.115-2.494-.333-4.778-.6-6.227.083a1.386 1.386 0 00-.72 1.732c.608 1.695 2.044 5.465 3.794 8.556a1.386 1.386 0 001.79.573c1.978-.899 6.098-2.912 9.031-5.307a1.392 1.392 0 00.493-1.339c-.463-2.464-1.837-9.934-1.897-12.076-.057-2.012 2.2-3.543 3.195-4.123a1.364 1.364 0 00.645-.868c.309-1.293.577-4.223-3.162-4.87a1.393 1.393 0 01-1.137-1.104 1.398 1.398 0 01.002-.558c.316-1.547.216-3.825-2.726-4.665-2.99-.853-4.872.946-5.829 2.324a1.393 1.393 0 01-1.731.462c-.353-.154-.78-.164-1.233.222a1.38 1.38 0 01-1.599.088 1.377 1.377 0 01-.405-.396c-.872-1.283-2.455-2.563-5.137-1.694-4.757 1.54-4.531 7.02-2.786 10 1.745 2.981 6.808 1.02 9.206-.955 1.823-1.501 4.597-.603 5.823-.086a1.379 1.379 0 01.784.901z" fill="url(#paint78_linear)"/><path d="M329.926 231.502s-2.815-5.323-.954-6.995c1.862-1.673 5.017-1.399 4.932 2.772-.105 5.172-3.978 4.223-3.978 4.223z" fill="url(#paint79_linear)"/><path d="M346.813 303.5c.919.003 1.838-.04 2.752-.13l.201-.021 8.199-38.197a.285.285 0 00-.114-.288.279.279 0 00-.431.171l-8.115 37.804c-1.221.108-7.736.539-11.176-1.896l7.102-33.19-1.482-2.792a.282.282 0 00-.165-.136.282.282 0 00-.349.185.277.277 0 00.021.213l1.387 2.618-7.136 33.342.141.106c2.486 1.858 6.491 2.211 9.165 2.211z" fill="url(#paint80_linear)"/><path d="M101.01 419.968a1.325 1.325 0 01-.564-.128c-.724-.34-1.059-1.257-.747-2.047l29.96-75.968c.308-.79 1.152-1.155 1.878-.816.725.339 1.058 1.257.747 2.047l-29.961 75.969a1.43 1.43 0 01-1.313.943z" fill="#91B3FA"/><path d="M134.762 419.968a1.433 1.433 0 01-1.313-.942l-29.961-75.968c-.308-.791.023-1.707.748-2.047.724-.341 1.564.024 1.877.816l29.961 75.968c.308.79-.023 1.706-.748 2.047a1.323 1.323 0 01-.564.126zm169.585 0a1.329 1.329 0 01-.564-.128c-.724-.34-1.058-1.257-.747-2.047l29.96-75.968c.309-.79 1.152-1.155 1.878-.816.726.339 1.058 1.257.747 2.047l-29.96 75.968a1.43 1.43 0 01-1.314.944z" fill="#91B3FA"/><path d="M338.1 419.968a1.428 1.428 0 01-1.314-.942l-29.96-75.968c-.308-.791.023-1.707.747-2.047.725-.341 1.565.024 1.878.816l29.96 75.968c.309.79-.023 1.706-.747 2.047a1.327 1.327 0 01-.564.126z" fill="#91B3FA"/><path d="M300 336.461h43.395v-4.474H300c.929 0 .929 4.474 0 4.474z" fill="#BDD0FB"/><path d="M342.879 336.461a.52.52 0 00.515-.515v-3.445a.515.515 0 00-.515-.514h-43.687a.512.512 0 01-.535-.506c0-.069.014-.137.041-.201a.518.518 0 01.292-.275.494.494 0 01.202-.03h46.687a1.876 1.876 0 011.874 1.873v2.86a1.765 1.765 0 01-1.766 1.765h-46.795a.512.512 0 01-.535-.506c0-.069.014-.137.041-.201a.518.518 0 01.292-.275.494.494 0 01.202-.03h43.687z" fill="url(#paint81_linear)"/><path d="M349.686 339.478c.146-.499-.052-1.016-.541-1.409-.489-.393-1.216-.616-1.984-.616H87.15c-1.01 0-1.95.34-2.494.904-.544.564-.616 1.272-.194 1.879l2.817 4.043c.646.924 2.044 1.519 3.582 1.519h254.516c1.43 0 2.661-.673 2.928-1.604l1.381-4.716z" fill="#91B3FA"/><path opacity=".3" d="M207.777 74.377a1.528 1.528 0 01-.963-.654 1.51 1.51 0 01-.217-1.145 57.35 57.35 0 00.796-4.862 1.523 1.523 0 011.665-1.33h.029a1.521 1.521 0 011.329 1.694 61.023 61.023 0 01-.84 5.12 1.522 1.522 0 01-1.799 1.177zm.029-14.656a58.365 58.365 0 00-.291-4.918 1.52 1.52 0 011.36-1.667 1.523 1.523 0 011.669 1.36 62.32 62.32 0 01.308 5.174 1.523 1.523 0 01-1.497 1.54 1.59 1.59 0 01-.18 0 1.526 1.526 0 01-1.369-1.489zm-1.658-12.8a55.379 55.379 0 00-1.387-4.727 1.527 1.527 0 01.048-1.188 1.51 1.51 0 01.887-.79 1.523 1.523 0 011.947 1 60.022 60.022 0 011.455 4.978 1.514 1.514 0 01-.154 1.174 1.524 1.524 0 01-2.802-.448h.006zm-4.48-12.112a55.985 55.985 0 00-2.406-4.302 1.516 1.516 0 01.023-1.726 1.518 1.518 0 011.622-.594 1.518 1.518 0 01.946.724 61.4 61.4 0 012.532 4.528 1.524 1.524 0 01-.692 2.009 1.522 1.522 0 01-2.027-.64h.002zm-7.069-10.81a60.862 60.862 0 00-3.299-3.662 1.51 1.51 0 01-.351-1.684 1.522 1.522 0 012.525-.444 61.688 61.688 0 013.471 3.85 1.515 1.515 0 01.172 1.68 1.526 1.526 0 01-1.489.802 1.516 1.516 0 01-1.029-.544V24zm-9.286-8.976a58.718 58.718 0 00-4.027-2.841 1.523 1.523 0 01.51-2.753c.39-.087.8-.017 1.139.194a61.003 61.003 0 014.239 2.992 1.523 1.523 0 01-1.861 2.408zM129.674 5.09a1.518 1.518 0 01.955-1.928 64.031 64.031 0 014.986-1.442 1.522 1.522 0 01.721 2.956c-1.592.388-3.185.85-4.734 1.374a1.526 1.526 0 01-1.633-.44 1.512 1.512 0 01-.295-.515V5.09zm44.601 3.235a57.753 57.753 0 00-4.558-1.872 1.52 1.52 0 111.036-2.86 60.17 60.17 0 014.798 1.972 1.532 1.532 0 01.79.855 1.521 1.521 0 01-2.068 1.906l.002-.001zm-31.707-6.361A1.523 1.523 0 01143.93.298 61.697 61.697 0 01149.107 0a1.527 1.527 0 011.46.907 1.52 1.52 0 01-1.413 2.135 58.35 58.35 0 00-4.925.282 1.524 1.524 0 01-1.661-1.361zm19.454 2.31a58.096 58.096 0 00-4.863-.807 1.522 1.522 0 01.337-3.024h.033c1.712.21 3.435.495 5.118.85a1.524 1.524 0 011.178 1.717 1.52 1.52 0 01-1.64 1.284.663.663 0 01-.168-.015l.005-.005zm-40.835 6.166c.309.031.62-.032.891-.183a57.66 57.66 0 012.096-1.11 1.533 1.533 0 00.761-.88 1.527 1.527 0 00-.451-1.63 1.528 1.528 0 00-1.679-.206c-.741.372-1.484.77-2.205 1.166a1.524 1.524 0 00-.75 1.636 1.521 1.521 0 001.337 1.206zM92.63 46.991a1.523 1.523 0 001.624-1.123 57.04 57.04 0 01.656-2.277 1.52 1.52 0 00-1.59-2.013 1.523 1.523 0 00-1.317 1.11c-.246.793-.48 1.6-.69 2.398a1.52 1.52 0 001.317 1.905zm48.279 73.817a1.54 1.54 0 01-1.029-.59 1.518 1.518 0 01-.086-1.716c.107-.174.247-.324.412-.443a1.522 1.522 0 011.158-.259c1.583.238 3.199.414 4.825.523a1.524 1.524 0 01.878 2.65 1.523 1.523 0 01-1.083.386 60.956 60.956 0 01-5.075-.551zm11.748-.869a1.505 1.505 0 01.076-.588 1.503 1.503 0 01.765-.877 1.51 1.51 0 01.573-.155 57.766 57.766 0 004.823-.535 1.538 1.538 0 011.132.277 1.525 1.525 0 01.578 1.588 1.517 1.517 0 01-.689.939 1.548 1.548 0 01-.559.203 61.103 61.103 0 01-5.076.562 1.533 1.533 0 01-1.106-.37 1.518 1.518 0 01-.517-1.044zm-19.846-.924a62.241 62.241 0 01-4.832-1.653 1.52 1.52 0 01-1.019-1.391 1.512 1.512 0 01.432-1.108 1.526 1.526 0 011.692-.335 57.553 57.553 0 004.589 1.567 1.523 1.523 0 01-.862 2.917v.003zm32.746-1.061a1.536 1.536 0 01.119-1.159 1.519 1.519 0 01.904-.734 59.514 59.514 0 004.586-1.58 1.52 1.52 0 111.112 2.83 61.933 61.933 0 01-4.828 1.665 1.52 1.52 0 01-1.895-1.022h.002zm-45.074-4.123a60.924 60.924 0 01-4.35-2.671 1.527 1.527 0 01-.679-.972 1.516 1.516 0 01.656-1.588 1.517 1.517 0 011.167-.21c.198.044.386.129.552.247a57.811 57.811 0 004.132 2.537 1.521 1.521 0 11-1.483 2.657h.005zm-10.899-7.757a61.413 61.413 0 01-3.662-3.554 1.52 1.52 0 01-.418-1.09 1.528 1.528 0 01.978-1.383 1.519 1.519 0 011.167.03c.183.081.349.198.487.343a56.296 56.296 0 003.48 3.378 1.53 1.53 0 01.425 1.64 1.528 1.528 0 01-1.943.938 1.516 1.516 0 01-.514-.302zm-8.939-9.946a63.48 63.48 0 01-2.8-4.266 1.525 1.525 0 112.62-1.56 56.369 56.369 0 002.661 4.055 1.525 1.525 0 01-.354 2.125 1.526 1.526 0 01-2.127-.354zm-6.56-11.66a61.123 61.123 0 01-1.797-4.774 1.521 1.521 0 112.892-.949 59.134 59.134 0 001.706 4.538 1.522 1.522 0 11-2.802 1.189l.001-.003zm-3.837-12.82a57.947 57.947 0 01-.699-5.053 1.521 1.521 0 012.47-1.285c.31.246.51.603.56.995.155 1.603.377 3.22.665 4.801a1.52 1.52 0 01-2.365 1.52 1.52 1.52 0 01-.63-.978h-.001zm-.925-13.336c.05-1.246.139-2.506.263-3.744a47.8 47.8 0 01.154-1.34 1.502 1.502 0 011.696-1.324A1.521 1.521 0 0192.76 53.6a57.713 57.713 0 00-.395 4.833 1.519 1.519 0 01-1.584 1.461h-.094a1.521 1.521 0 01-1.367-1.58l.003-.001zm89.591 55.611c.311.032.624-.033.897-.186a69.558 69.558 0 002.157-1.266 1.517 1.517 0 00.716-.946 1.518 1.518 0 00-1.147-1.858 1.522 1.522 0 00-1.167.215c-.673.415-1.361.819-2.042 1.202a1.52 1.52 0 00.593 2.839h-.007z" fill="#BDD0FB"/><path d="M185.991 88.824a.714.714 0 00.136-.815l-3.795-7.776a37.681 37.681 0 004.68-11.28l8.179-2.82a.712.712 0 00.479-.672V55.083a.71.71 0 00-.479-.671l-8.179-2.816a37.673 37.673 0 00-4.68-11.283l3.792-7.778a.711.711 0 00-.137-.813l-7.344-7.338a.712.712 0 00-.816-.135l-7.783 3.783a37.73 37.73 0 00-11.293-4.672l-2.818-8.173a.706.706 0 00-.671-.48H144.88a.713.713 0 00-.672.48l-2.821 8.175a37.728 37.728 0 00-11.287 4.677l-7.783-3.789a.71.71 0 00-.814.138l-7.349 7.34a.71.71 0 00-.137.813l3.793 7.778a37.69 37.69 0 00-4.681 11.277l-8.179 2.82a.71.71 0 00-.479.672v10.378a.71.71 0 00.479.671l8.179 2.822a37.684 37.684 0 004.684 11.285l-3.791 7.778a.707.707 0 00.137.814l7.344 7.338a.712.712 0 00.814.137l7.783-3.79a37.737 37.737 0 0011.29 4.665l2.822 8.174a.715.715 0 00.672.479h10.385a.713.713 0 00.672-.479l2.821-8.174a37.727 37.727 0 0011.286-4.678l7.784 3.79a.713.713 0 00.814-.138l7.345-7.336z" fill="url(#paint82_linear)"/><path opacity=".15" d="M147.518 70.387a10.423 10.423 0 01-3.279-18.752 10.44 10.44 0 0114.263 2.5 10.419 10.419 0 01-1.977 14.336 10.44 10.44 0 01-9.007 1.916zm-1.541-16.982a7.993 7.993 0 00-.034 13.722 8.008 8.008 0 0010.05-1.468 7.995 7.995 0 00.517-10.136 8 8 0 00-5.649-3.207 7.95 7.95 0 00-4.892 1.092l.008-.003z" fill="url(#paint83_linear)"/><path opacity=".15" d="M147.297 85.625a26.173 26.173 0 003.471.119c1.372-.045 2.739-.2 4.086-.462l.056-.01.154-.032.308-.063a.612.612 0 00.488-.484.615.615 0 00-.1-.464.597.597 0 00-.402-.251.611.611 0 00-.242.01 24.493 24.493 0 01-25.811-10.781 24.268 24.268 0 01-3.82-13.092 24.432 24.432 0 018.068-18.146 24.466 24.466 0 0116.374-6.296c13.487 0 24.452 10.96 24.454 24.431a24.434 24.434 0 01-3.464 12.547.617.617 0 101.045.625 25.643 25.643 0 003.638-13.172c0-14.145-11.521-25.65-25.672-25.648a25.686 25.686 0 00-17.193 6.605 25.653 25.653 0 00-8.342 16.411 25.646 25.646 0 006.479 19.819 25.68 25.68 0 0016.425 8.334z" fill="url(#paint84_linear)"/><path opacity=".3" d="M255.572 119.508a.939.939 0 00.965-.581c.308-.739.584-1.497.84-2.253a.941.941 0 00-1.78-.603 37.446 37.446 0 01-.8 2.149.945.945 0 00.21 1.023.945.945 0 00.565.265zm2.004-6.931a.943.943 0 01-.732-1.109 38.832 38.832 0 00.671-4.725.936.936 0 011.012-.861.97.97 0 01.868 1.007 40.763 40.763 0 01-.704 4.95.938.938 0 01-1.014.745l-.101-.007zm.03-10.604a38.915 38.915 0 00-.494-4.744.94.94 0 011.85-.308c.274 1.645.446 3.306.516 4.973a.95.95 0 01-.247.675.944.944 0 01-.788.303.94.94 0 01-.837-.898v-.001zm-1.569-9.395a38.735 38.735 0 00-1.645-4.48.94.94 0 011.722-.754 40.447 40.447 0 011.724 4.698.937.937 0 01-.633 1.164.941.941 0 01-1.168-.627v-.001zm-3.83-8.721a38.906 38.906 0 00-2.691-3.94.935.935 0 01.167-1.315.94.94 0 011.317.162 40.793 40.793 0 012.822 4.13.94.94 0 01-1.615.962v.001zm-5.845-7.522a39.141 39.141 0 00-3.568-3.168.928.928 0 01-.376-.63.942.942 0 011.208-1.027.95.95 0 01.329.18 41.201 41.201 0 013.739 3.317.942.942 0 01-.003 1.33.95.95 0 01-.666.273.94.94 0 01-.664-.277l.001.002zm-7.497-5.871a38.55 38.55 0 00-4.229-2.201.942.942 0 11.771-1.718 40.497 40.497 0 014.436 2.31.941.941 0 01.319 1.29.938.938 0 01-1.29.32l-.007-.001zm-8.702-3.865a38.609 38.609 0 00-4.645-1.096.94.94 0 01.319-1.849c1.646.284 3.272.668 4.87 1.151a.94.94 0 11-.544 1.799v-.005zm-15.172-2.416a.937.937 0 01.514-.91.947.947 0 01.354-.098 40.896 40.896 0 014.346-.092c.221 0 .44.016.66.025a.943.943 0 01.893.985.938.938 0 01-.986.892 39.03 39.03 0 00-4.767.063.92.92 0 01-.748-.278.943.943 0 01-.266-.587zm-.724 79.761a41.029 41.029 0 01-4.847-.853.942.942 0 01-.696-1.133.938.938 0 011.134-.695c1.523.364 3.067.635 4.623.813a.942.942 0 01.834 1.035.936.936 0 01-1.035.833h-.013zm3.972-.67a.94.94 0 01.934-.944 39.282 39.282 0 004.687-.308.943.943 0 011.015.816.937.937 0 01-.774 1.046 41.174 41.174 0 01-5.014.325.939.939 0 01-.843-.933l-.005-.002zm-13.529-1.618a40.874 40.874 0 01-4.498-2.003.938.938 0 01.15-1.729.937.937 0 01.717.061 38.953 38.953 0 004.291 1.907.94.94 0 11-.66 1.759v.005zm23.09.631a.937.937 0 01.679-1.141 38.669 38.669 0 004.47-1.431.941.941 0 011.229.531.937.937 0 01-.548 1.22 40.295 40.295 0 01-4.69 1.502.94.94 0 01-1.142-.679l.002-.002zm-31.801-5.158a40.816 40.816 0 01-3.884-3.02.939.939 0 111.242-1.411 38.554 38.554 0 003.699 2.881.94.94 0 11-1.064 1.551l.007-.001zm-7.377-6.486a40.877 40.877 0 01-3.053-3.863.942.942 0 01-.023-1.044.957.957 0 01.254-.265.92.92 0 01.336-.147.926.926 0 01.709.125.94.94 0 01.265.253 39.268 39.268 0 002.91 3.684.942.942 0 01-.076 1.327.942.942 0 01-1.328-.076l.006.006zm-5.612-8.064a40.856 40.856 0 01-2.033-4.482.943.943 0 01.544-1.213.938.938 0 011.213.543 38.642 38.642 0 001.939 4.274.937.937 0 01-.924 1.374.943.943 0 01-.743-.498l.004.002zm54.589 16.911a.936.936 0 00.539-.108 39.86 39.86 0 002.082-1.2.937.937 0 00-.275-1.718.931.931 0 00-.713.12c-.641.395-1.31.78-1.986 1.146a.938.938 0 00.351 1.762l.002-.002z" fill="#BDD0FB"/><path d="M242.958 122.426a.48.48 0 00.091-.545l-2.539-5.204a25.235 25.235 0 003.131-7.547l5.473-1.887a.481.481 0 00.232-.173.482.482 0 00.088-.276v-6.947a.479.479 0 00-.32-.45l-5.475-1.885a25.208 25.208 0 00-3.132-7.546l2.537-5.205a.474.474 0 00-.091-.545l-4.915-4.91a.475.475 0 00-.546-.091l-5.208 2.537a25.24 25.24 0 00-7.552-3.13l-1.886-5.463a.478.478 0 00-.45-.32h-6.95a.477.477 0 00-.45.32l-1.886 5.47a25.25 25.25 0 00-7.553 3.13l-5.209-2.535a.476.476 0 00-.546.091l-4.913 4.912a.475.475 0 00-.091.545l2.538 5.204a25.235 25.235 0 00-3.132 7.547l-5.473 1.887a.48.48 0 00-.32.45v6.944a.477.477 0 00.32.45l5.469 1.879a25.186 25.186 0 003.132 7.547l-2.537 5.204a.475.475 0 00.091.545l4.915 4.911a.472.472 0 00.545.09l5.208-2.536a25.27 25.27 0 007.552 3.129l1.901 5.471a.468.468 0 00.174.232.47.47 0 00.276.088h6.948a.47.47 0 00.276-.088.468.468 0 00.174-.232l1.887-5.469a25.246 25.246 0 007.552-3.13l5.209 2.535a.475.475 0 00.546-.09l4.909-4.914z" fill="url(#paint85_linear)"/><path opacity=".15" d="M217.185 110.213a7.088 7.088 0 01-5.195-8.349 7.088 7.088 0 018.156-5.499 7.088 7.088 0 015.802 7.94 7.087 7.087 0 01-8.763 5.908zm-3.332-8.163a5.22 5.22 0 00.58 3.958 5.234 5.234 0 009.564-1.401 5.229 5.229 0 00-8.074-5.558 5.238 5.238 0 00-2.072 2.995l.002.006z" fill="url(#paint86_linear)"/><path opacity=".15" d="M217.03 120.817a17.814 17.814 0 005.389-.274l.154-.034a.945.945 0 00.613-.403.937.937 0 00-1.009-1.433 15.928 15.928 0 01-3.351.356h-.187a15.686 15.686 0 01-7.486-1.975 15.897 15.897 0 01-3.41-2.553l-.025-.025-.077-.076a15.703 15.703 0 01-4.638-11.184 15.816 15.816 0 017.24-13.289 15.844 15.844 0 0113.582-1.722 15.828 15.828 0 019.847 9.505 15.804 15.804 0 01-1.254 13.624.94.94 0 101.614.966 17.689 17.689 0 00-2.894-21.813 17.705 17.705 0 00-14.535-4.829 17.72 17.72 0 00-12.868 8.305 17.698 17.698 0 00-2.612 9.253 17.718 17.718 0 004.573 11.851 17.745 17.745 0 0011.334 5.75z" fill="url(#paint87_linear)"/></g><defs><linearGradient id="paint0_linear" x1="-9.704" y1="138.467" x2="64.512" y2="150.815" gradientUnits="userSpaceOnUse"><stop stop-color="#081250"/><stop offset="1" stop-color="#1034A9"/></linearGradient><linearGradient id="paint1_linear" x1="12.836" y1="266.76" x2="140.534" y2="292.35" gradientUnits="userSpaceOnUse"><stop stop-color="#53B7F9"/><stop offset="1" stop-color="#0047A3"/></linearGradient><linearGradient id="paint2_linear" x1="181.228" y1="112.585" x2="350.996" y2="235.084" gradientUnits="userSpaceOnUse"><stop stop-color="#081250"/><stop offset="1" stop-color="#1034A9"/></linearGradient><linearGradient id="paint3_linear" x1="345.815" y1="221.124" x2="419.404" y2="225.277" gradientUnits="userSpaceOnUse"><stop stop-color="#53B7F9"/><stop offset="1" stop-color="#0047A3"/></linearGradient><linearGradient id="paint4_linear" x1="226.148" y1="272.566" x2="365.324" y2="308.653" gradientUnits="userSpaceOnUse"><stop stop-color="#53B7F9"/><stop offset="1" stop-color="#0047A3"/></linearGradient><linearGradient id="paint5_linear" x1="29.686" y1="142.851" x2="138.62" y2="170.476" gradientUnits="userSpaceOnUse"><stop stop-color="#53B7F9"/><stop offset="1" stop-color="#0047A3"/></linearGradient><linearGradient id="paint6_linear" x1="95.121" y1="125.973" x2="279.073" y2="190.635" gradientUnits="userSpaceOnUse"><stop stop-color="#081250"/><stop offset="1" stop-color="#1034A9"/></linearGradient><linearGradient id="paint7_linear" x1="112.642" y1="238.664" x2="232.221" y2="251.812" gradientUnits="userSpaceOnUse"><stop stop-color="#53B7F9"/><stop offset="1" stop-color="#0047A3"/></linearGradient><linearGradient id="paint8_linear" x1="221.249" y1="74.625" x2="346.824" y2="113.353" gradientUnits="userSpaceOnUse"><stop stop-color="#53B7F9"/><stop offset="1" stop-color="#0047A3"/></linearGradient><linearGradient id="paint9_linear" x1="86771.4" y1="1958.69" x2="108502" y2="1958.69" gradientUnits="userSpaceOnUse"><stop stop-color="#DAE3FE"/><stop offset="1" stop-color="#E9EFFD"/></linearGradient><linearGradient id="paint10_linear" x1="86771.4" y1="2242.84" x2="108502" y2="2242.84" gradientUnits="userSpaceOnUse"><stop stop-color="#DAE3FE"/><stop offset="1" stop-color="#E9EFFD"/></linearGradient><linearGradient id="paint11_linear" x1="86771.4" y1="2527.01" x2="108502" y2="2527.01" gradientUnits="userSpaceOnUse"><stop stop-color="#DAE3FE"/><stop offset="1" stop-color="#E9EFFD"/></linearGradient><linearGradient id="paint12_linear" x1="86771.4" y1="2811.22" x2="108502" y2="2811.22" gradientUnits="userSpaceOnUse"><stop stop-color="#DAE3FE"/><stop offset="1" stop-color="#E9EFFD"/></linearGradient><linearGradient id="paint13_linear" x1="37382.8" y1="1850.14" x2="39842.9" y2="1850.14" gradientUnits="userSpaceOnUse"><stop stop-color="#DAE3FE"/><stop offset="1" stop-color="#E9EFFD"/></linearGradient><linearGradient id="paint14_linear" x1="40247.7" y1="1850.13" x2="42694.4" y2="1850.13" gradientUnits="userSpaceOnUse"><stop stop-color="#DAE3FE"/><stop offset="1" stop-color="#E9EFFD"/></linearGradient><linearGradient id="paint15_linear" x1="43312.1" y1="1850.13" x2="45758.8" y2="1850.13" gradientUnits="userSpaceOnUse"><stop stop-color="#DAE3FE"/><stop offset="1" stop-color="#E9EFFD"/></linearGradient><linearGradient id="paint16_linear" x1="37180" y1="8084.26" x2="39626.7" y2="8084.26" gradientUnits="userSpaceOnUse"><stop stop-color="#DAE3FE"/><stop offset="1" stop-color="#E9EFFD"/></linearGradient><linearGradient id="paint17_linear" x1="40244.4" y1="8084.26" x2="42690.9" y2="8084.26" gradientUnits="userSpaceOnUse"><stop stop-color="#DAE3FE"/><stop offset="1" stop-color="#E9EFFD"/></linearGradient><linearGradient id="paint18_linear" x1="43308.7" y1="8084.26" x2="45755.2" y2="8084.26" gradientUnits="userSpaceOnUse"><stop stop-color="#DAE3FE"/><stop offset="1" stop-color="#E9EFFD"/></linearGradient><linearGradient id="paint19_linear" x1="184.325" y1="399.044" x2="110.886" y2="477.485" gradientUnits="userSpaceOnUse"><stop stop-color="#09005D"/><stop offset="1" stop-color="#1A0F91"/></linearGradient><linearGradient id="paint20_linear" x1="160.656" y1="404.694" x2="167.117" y2="404.755" gradientUnits="userSpaceOnUse"><stop stop-color="#FEBBBA"/><stop offset="1" stop-color="#FF928E"/></linearGradient><linearGradient id="paint21_linear" x1="128120" y1="197489" x2="106477" y2="203629" gradientUnits="userSpaceOnUse"><stop stop-color="#09005D"/><stop offset="1" stop-color="#1A0F91"/></linearGradient><linearGradient id="paint22_linear" x1="63277.4" y1="26487.2" x2="58338.1" y2="31811.8" gradientUnits="userSpaceOnUse"><stop stop-color="#09005D"/><stop offset="1" stop-color="#1A0F91"/></linearGradient><linearGradient id="paint23_linear" x1="32571.2" y1="22887.3" x2="32770.4" y2="22887.3" gradientUnits="userSpaceOnUse"><stop stop-color="#FEBBBA"/><stop offset="1" stop-color="#FF928E"/></linearGradient><linearGradient id="paint24_linear" x1="189254" y1="195201" x2="159489" y2="207636" gradientUnits="userSpaceOnUse"><stop stop-color="#09005D"/><stop offset="1" stop-color="#1A0F91"/></linearGradient><linearGradient id="paint25_linear" x1="213.74" y1="518.728" x2="202.418" y2="464.138" gradientUnits="userSpaceOnUse"><stop stop-color="#FF928E"/><stop offset="1" stop-color="#FE7062"/></linearGradient><linearGradient id="paint26_linear" x1="206803" y1="59394.7" x2="213921" y2="59394.7" gradientUnits="userSpaceOnUse"><stop stop-color="#FEBBBA"/><stop offset="1" stop-color="#FF928E"/></linearGradient><linearGradient id="paint27_linear" x1="16221.1" y1="28239.5" x2="16963.5" y2="25303.7" gradientUnits="userSpaceOnUse"><stop stop-color="#FEBBBA"/><stop offset="1" stop-color="#FF928E"/></linearGradient><linearGradient id="paint28_linear" x1="29924.7" y1="11304.7" x2="30444.6" y2="10842" gradientUnits="userSpaceOnUse"><stop stop-color="#FEBBBA"/><stop offset="1" stop-color="#FF928E"/></linearGradient><linearGradient id="paint29_linear" x1="137298" y1="96491.4" x2="139600" y2="86592.1" gradientUnits="userSpaceOnUse"><stop stop-color="#FF928E"/><stop offset="1" stop-color="#FE7062"/></linearGradient><linearGradient id="paint30_linear" x1="239903" y1="39763.6" x2="251208" y2="39763.6" gradientUnits="userSpaceOnUse"><stop stop-color="#FEBBBA"/><stop offset="1" stop-color="#FF928E"/></linearGradient><linearGradient id="paint31_linear" x1="99484.8" y1="27826" x2="101272" y2="27826" gradientUnits="userSpaceOnUse"><stop stop-color="#FEBBBA"/><stop offset="1" stop-color="#FF928E"/></linearGradient><linearGradient id="paint32_linear" x1="14799.9" y1="51741.6" x2="12560.7" y2="50353.9" gradientUnits="userSpaceOnUse"><stop stop-color="#FEBBBA"/><stop offset="1" stop-color="#FF928E"/></linearGradient><linearGradient id="paint33_linear" x1="14341.3" y1="64125.8" x2="18100.6" y2="67156.2" gradientUnits="userSpaceOnUse"><stop stop-color="#09005D"/><stop offset="1" stop-color="#1A0F91"/></linearGradient><linearGradient id="paint34_linear" x1="1397.05" y1="12352.7" x2="994.717" y2="12048.7" gradientUnits="userSpaceOnUse"><stop stop-color="#FEBBBA"/><stop offset="1" stop-color="#FF928E"/></linearGradient><linearGradient id="paint35_linear" x1="260081" y1="64343.5" x2="265101" y2="88716.3" gradientUnits="userSpaceOnUse"><stop stop-color="#09005D"/><stop offset="1" stop-color="#1A0F91"/></linearGradient><linearGradient id="paint36_linear" x1="73890.2" y1="21709.5" x2="74997.2" y2="21709.5" gradientUnits="userSpaceOnUse"><stop stop-color="#FEBBBA"/><stop offset="1" stop-color="#FF928E"/></linearGradient><linearGradient id="paint37_linear" x1="29652" y1="18812.3" x2="34750.5" y2="18812.3" gradientUnits="userSpaceOnUse"><stop stop-color="#DAE3FE"/><stop offset="1" stop-color="#E9EFFD"/></linearGradient><linearGradient id="paint38_linear" x1="20592.8" y1="15570.1" x2="20519.4" y2="17597.2" gradientUnits="userSpaceOnUse"><stop stop-color="#4F52FF"/><stop offset="1" stop-color="#4042E2"/></linearGradient><linearGradient id="paint39_linear" x1="4823.51" y1="16099.3" x2="5131.47" y2="16099.3" gradientUnits="userSpaceOnUse"><stop stop-color="#FEBBBA"/><stop offset="1" stop-color="#FF928E"/></linearGradient><linearGradient id="paint40_linear" x1="23198.7" y1="39442.4" x2="22665.9" y2="44543.3" gradientUnits="userSpaceOnUse"><stop stop-color="#4F52FF"/><stop offset="1" stop-color="#4042E2"/></linearGradient><linearGradient id="paint41_linear" x1="65195.6" y1="123355" x2="35707.4" y2="142813" gradientUnits="userSpaceOnUse"><stop stop-color="#09005D"/><stop offset="1" stop-color="#1A0F91"/></linearGradient><linearGradient id="paint42_linear" x1="7511.45" y1="25056.9" x2="7950.37" y2="25056.9" gradientUnits="userSpaceOnUse"><stop stop-color="#FEBBBA"/><stop offset="1" stop-color="#FF928E"/></linearGradient><linearGradient id="paint43_linear" x1="65031.2" y1="148673" x2="107103" y2="105013" gradientUnits="userSpaceOnUse"><stop stop-color="#09005D"/><stop offset="1" stop-color="#1A0F91"/></linearGradient><linearGradient id="paint44_linear" x1="10502.3" y1="34396" x2="10987.5" y2="33215" gradientUnits="userSpaceOnUse"><stop stop-color="#FEBBBA"/><stop offset="1" stop-color="#FF928E"/></linearGradient><linearGradient id="paint45_linear" x1="60944.2" y1="100864" x2="56983.9" y2="114288" gradientUnits="userSpaceOnUse"><stop stop-color="#FF928E"/><stop offset="1" stop-color="#FE7062"/></linearGradient><linearGradient id="paint46_linear" x1="96.087" y1="216.561" x2="92.227" y2="342.466" gradientUnits="userSpaceOnUse"><stop stop-color="#E1473D"/><stop offset="1" stop-color="#E9605A"/></linearGradient><linearGradient id="paint47_linear" x1="15799.4" y1="10208.4" x2="18141.4" y2="10208.4" gradientUnits="userSpaceOnUse"><stop stop-color="#FEBBBA"/><stop offset="1" stop-color="#FF928E"/></linearGradient><linearGradient id="paint48_linear" x1="55367.6" y1="39846.7" x2="52949.9" y2="42125.6" gradientUnits="userSpaceOnUse"><stop stop-color="#FEBBBA"/><stop offset="1" stop-color="#FF928E"/></linearGradient><linearGradient id="paint49_linear" x1="65748" y1="49439.8" x2="69452.2" y2="52753.2" gradientUnits="userSpaceOnUse"><stop stop-color="#09005D"/><stop offset="1" stop-color="#1A0F91"/></linearGradient><linearGradient id="paint50_linear" x1="13494.1" y1="11803.2" x2="12832" y2="12337.6" gradientUnits="userSpaceOnUse"><stop stop-color="#FEBBBA"/><stop offset="1" stop-color="#FF928E"/></linearGradient><linearGradient id="paint51_linear" x1="-865347" y1="-127836" x2="-865236" y2="-124703" gradientUnits="userSpaceOnUse"><stop stop-color="#09005D"/><stop offset="1" stop-color="#1A0F91"/></linearGradient><linearGradient id="paint52_linear" x1="985300" y1="151621" x2="972827" y2="160626" gradientUnits="userSpaceOnUse"><stop stop-color="#09005D"/><stop offset="1" stop-color="#1A0F91"/></linearGradient><linearGradient id="paint53_linear" x1="42064.9" y1="175085" x2="47320.6" y2="175085" gradientUnits="userSpaceOnUse"><stop stop-color="#FEBBBA"/><stop offset="1" stop-color="#FF928E"/></linearGradient><linearGradient id="paint54_linear" x1="32738.2" y1="52234.1" x2="32204.4" y2="60600.4" gradientUnits="userSpaceOnUse"><stop stop-color="#4F52FF"/><stop offset="1" stop-color="#4042E2"/></linearGradient><linearGradient id="paint55_linear" x1="75507.8" y1="174526" x2="98926.4" y2="174526" gradientUnits="userSpaceOnUse"><stop stop-color="#FEBBBA"/><stop offset="1" stop-color="#FF928E"/></linearGradient><linearGradient id="paint56_linear" x1="100793" y1="65040.6" x2="130184" y2="65040.6" gradientUnits="userSpaceOnUse"><stop stop-color="#09005D"/><stop offset="1" stop-color="#1A0F91"/></linearGradient><linearGradient id="paint57_linear" x1="34988.5" y1="19921.3" x2="34928.6" y2="23103" gradientUnits="userSpaceOnUse"><stop stop-color="#4F52FF"/><stop offset="1" stop-color="#4042E2"/></linearGradient><linearGradient id="paint58_linear" x1="101186" y1="88722.4" x2="97409.9" y2="108081" gradientUnits="userSpaceOnUse"><stop stop-color="#09005D"/><stop offset="1" stop-color="#1A0F91"/></linearGradient><linearGradient id="paint59_linear" x1="114888" y1="43384.4" x2="103643" y2="72751.1" gradientUnits="userSpaceOnUse"><stop stop-color="#FF928E"/><stop offset="1" stop-color="#FE7062"/></linearGradient><linearGradient id="paint60_linear" x1="22363.6" y1="32248" x2="21835.7" y2="29534.8" gradientUnits="userSpaceOnUse"><stop stop-color="#FEBBBA"/><stop offset="1" stop-color="#FF928E"/></linearGradient><linearGradient id="paint61_linear" x1="95024.2" y1="94269.5" x2="98843.4" y2="92522.2" gradientUnits="userSpaceOnUse"><stop stop-color="#FEBBBA"/><stop offset="1" stop-color="#FF928E"/></linearGradient><linearGradient id="paint62_linear" x1="60410" y1="76434.1" x2="64808.9" y2="80626.2" gradientUnits="userSpaceOnUse"><stop stop-color="#09005D"/><stop offset="1" stop-color="#1A0F91"/></linearGradient><linearGradient id="paint63_linear" x1="29996.9" y1="27671.8" x2="30904.6" y2="27142.6" gradientUnits="userSpaceOnUse"><stop stop-color="#FEBBBA"/><stop offset="1" stop-color="#FF928E"/></linearGradient><linearGradient id="paint64_linear" x1="102009" y1="27354.6" x2="122672" y2="27354.6" gradientUnits="userSpaceOnUse"><stop stop-color="#FEBBBA"/><stop offset="1" stop-color="#FF928E"/></linearGradient><linearGradient id="paint65_linear" x1="83192.8" y1="5341.96" x2="82355.4" y2="8693.02" gradientUnits="userSpaceOnUse"><stop stop-color="#09005D"/><stop offset="1" stop-color="#1A0F91"/></linearGradient><linearGradient id="paint66_linear" x1="94510.9" y1="79000.4" x2="88729.8" y2="88623.3" gradientUnits="userSpaceOnUse"><stop stop-color="#09005D"/><stop offset="1" stop-color="#1A0F91"/></linearGradient><linearGradient id="paint67_linear" x1="235250" y1="32551.3" x2="235238" y2="35321.2" gradientUnits="userSpaceOnUse"><stop stop-color="#09005D"/><stop offset="1" stop-color="#1A0F91"/></linearGradient><linearGradient id="paint68_linear" x1="74316.3" y1="25024.7" x2="74458.8" y2="24078.3" gradientUnits="userSpaceOnUse"><stop stop-color="#FEBBBA"/><stop offset="1" stop-color="#FF928E"/></linearGradient><linearGradient id="paint69_linear" x1="135899" y1="34595.9" x2="135876" y2="37538" gradientUnits="userSpaceOnUse"><stop stop-color="#09005D"/><stop offset="1" stop-color="#1A0F91"/></linearGradient><linearGradient id="paint70_linear" x1="68654.8" y1="22468.7" x2="68775.7" y2="21652.6" gradientUnits="userSpaceOnUse"><stop stop-color="#FEBBBA"/><stop offset="1" stop-color="#FF928E"/></linearGradient><linearGradient id="paint71_linear" x1="619367" y1="241726" x2="594905" y2="241726" gradientUnits="userSpaceOnUse"><stop stop-color="#09005D"/><stop offset="1" stop-color="#1A0F91"/></linearGradient><linearGradient id="paint72_linear" x1="169213" y1="105254" x2="161397" y2="114266" gradientUnits="userSpaceOnUse"><stop stop-color="#FF928E"/><stop offset="1" stop-color="#FE7062"/></linearGradient><linearGradient id="paint73_linear" x1="9966.28" y1="17843.6" x2="5430.42" y2="19199.1" gradientUnits="userSpaceOnUse"><stop stop-color="#E1473D"/><stop offset="1" stop-color="#E9605A"/></linearGradient><linearGradient id="paint74_linear" x1="66989.8" y1="55732.9" x2="58210" y2="64585.9" gradientUnits="userSpaceOnUse"><stop stop-color="#FEBBBA"/><stop offset="1" stop-color="#FF928E"/></linearGradient><linearGradient id="paint75_linear" x1="507944" y1="86249" x2="490256" y2="86249" gradientUnits="userSpaceOnUse"><stop stop-color="#FEBBBA"/><stop offset="1" stop-color="#FF928E"/></linearGradient><linearGradient id="paint76_linear" x1="137754" y1="38082.1" x2="135303" y2="36547.6" gradientUnits="userSpaceOnUse"><stop stop-color="#FEBBBA"/><stop offset="1" stop-color="#FF928E"/></linearGradient><linearGradient id="paint77_linear" x1="165491" y1="32974.6" x2="168963" y2="36451.6" gradientUnits="userSpaceOnUse"><stop stop-color="#FEBBBA"/><stop offset="1" stop-color="#FF928E"/></linearGradient><linearGradient id="paint78_linear" x1="264122" y1="52686.6" x2="259372" y2="52686.6" gradientUnits="userSpaceOnUse"><stop stop-color="#09005D"/><stop offset="1" stop-color="#1A0F91"/></linearGradient><linearGradient id="paint79_linear" x1="53758.7" y1="13021.9" x2="52864.5" y2="12384.9" gradientUnits="userSpaceOnUse"><stop stop-color="#FEBBBA"/><stop offset="1" stop-color="#FF928E"/></linearGradient><linearGradient id="paint80_linear" x1="56106.5" y1="49340.9" x2="36624.4" y2="61796.2" gradientUnits="userSpaceOnUse"><stop stop-color="#E1473D"/><stop offset="1" stop-color="#E9605A"/></linearGradient><linearGradient id="paint81_linear" x1="148944" y1="-91341.1" x2="149190" y2="-86811.3" gradientUnits="userSpaceOnUse"><stop stop-color="#4F52FF"/><stop offset="1" stop-color="#4042E2"/></linearGradient><linearGradient id="paint82_linear" x1="89.473" y1="14.722" x2="194.778" y2="51.096" gradientUnits="userSpaceOnUse"><stop stop-color="#081250"/><stop offset="1" stop-color="#1034A9"/></linearGradient><linearGradient id="paint83_linear" x1="19042.9" y1="8209.7" x2="21869.8" y2="8209.7" gradientUnits="userSpaceOnUse"><stop stop-color="#DAE3FE"/><stop offset="1" stop-color="#E9EFFD"/></linearGradient><linearGradient id="paint84_linear" x1="41515.3" y1="20055.5" x2="58616" y2="20055.5" gradientUnits="userSpaceOnUse"><stop stop-color="#DAE3FE"/><stop offset="1" stop-color="#E9EFFD"/></linearGradient><linearGradient id="paint85_linear" x1="178.376" y1="72.848" x2="248.837" y2="97.187" gradientUnits="userSpaceOnUse"><stop stop-color="#081250"/><stop offset="1" stop-color="#1034A9"/></linearGradient><linearGradient id="paint86_linear" x1="19698.3" y1="9602.18" x2="21007.1" y2="9602.18" gradientUnits="userSpaceOnUse"><stop stop-color="#DAE3FE"/><stop offset="1" stop-color="#E9EFFD"/></linearGradient><linearGradient id="paint87_linear" x1="46420.4" y1="23801" x2="54560" y2="23801" gradientUnits="userSpaceOnUse"><stop stop-color="#DAE3FE"/><stop offset="1" stop-color="#E9EFFD"/></linearGradient><clipPath id="clip0"><path fill="#fff" d="M0 0h427v427H0z"/></clipPath></defs></svg>