<svg width="30" height="30" fill="none" xmlns="http://www.w3.org/2000/svg"><path d="M15 4.321a.938.938 0 01-.938-.937V.938a.938.938 0 011.876 0v2.446c0 .517-.42.937-.938.937zm8.214 3.403a.938.938 0 01-.662-1.601l1.73-1.73a.938.938 0 111.325 1.326l-1.73 1.73a.94.94 0 01-.663.275zm5.849 8.214h-2.447a.938.938 0 010-1.876h2.447a.938.938 0 010 1.876zm-4.119 9.943a.93.93 0 01-.663-.275l-1.73-1.73a.938.938 0 111.326-1.326l1.73 1.73a.938.938 0 01-.663 1.601zm-19.888 0a.938.938 0 01-.663-1.601l1.73-1.73a.938.938 0 111.327 1.326l-1.73 1.73a.935.935 0 01-.664.275zm-1.672-9.943H.938a.938.938 0 010-1.876h2.446a.938.938 0 010 1.876zm3.402-8.214a.93.93 0 01-.662-.275l-1.73-1.73A.938.938 0 115.72 4.392l1.73 1.73a.938.938 0 01-.664 1.602zM18.75 26.25v1.563c0 1.2-.988 2.187-2.188 2.187h-3.125c-1.05 0-2.187-.8-2.187-2.55v-1.2h7.5zM20.512 8.2c-2.05-1.663-4.75-2.313-7.387-1.75-3.312.687-6 3.387-6.687 6.7-.7 3.4.575 6.775 3.3 8.838.737.55 1.25 1.4 1.425 2.387v.012c.024-.012.062-.012.087-.012h7.5c.025 0 .038 0 .063.012v-.012c.175-.95.737-1.825 1.6-2.5A8.732 8.732 0 0023.75 15a8.716 8.716 0 00-3.238-6.8zm-.825 7.425a.944.944 0 01-.937-.938c0-1.9-1.538-3.437-3.438-3.437a.944.944 0 01-.937-.938c0-.512.425-.937.938-.937a5.324 5.324 0 015.312 5.313.944.944 0 01-.938.937z" fill="#EFE721"/><path d="M11.163 24.375h.087c-.025 0-.062 0-.087.012v-.012zm7.65 0v.012c-.025-.012-.038-.012-.063-.012h.063z" fill="#EFE721"/></svg>