<svg width="143" height="40" fill="none" xmlns="http://www.w3.org/2000/svg"><path d="M72.257 7.06c.92.924 1.378 2.052 1.378 3.383 0 1.33-.459 2.458-1.378 3.382-.918.925-2.13 1.45-3.635 1.577v3.589H67.36v-3.589c-1.505-.126-2.717-.652-3.635-1.577-.918-.924-1.377-2.052-1.378-3.383 0-1.33.46-2.458 1.378-3.383.919-.924 2.13-1.45 3.635-1.576V1.895h1.263v3.588c1.505.127 2.717.653 3.635 1.577zm-7.636.865a3.636 3.636 0 00-1.015 2.517c0 .938.364 1.84 1.015 2.518.676.69 1.588 1.093 2.736 1.207v-7.45c-1.15.115-2.062.517-2.736 1.208zm3.999 6.241c1.15-.114 2.061-.516 2.736-1.207a3.637 3.637 0 000-5.035c-.676-.69-1.588-1.093-2.736-1.207v7.45zm12.248-8.702a4.772 4.772 0 013.493 1.444c.962.963 1.444 2.14 1.444 3.534 0 1.393-.482 2.571-1.445 3.534a4.744 4.744 0 01-3.492 1.444c-1.697 0-2.985-.696-3.865-2.09v5.662H75.74v-13.3h1.263v1.862c.88-1.393 2.169-2.09 3.865-2.09zm-2.774 7.649c.727.728 1.62 1.092 2.678 1.092 1.059 0 1.952-.364 2.679-1.092.727-.729 1.09-1.619 1.09-2.67 0-1.052-.363-1.942-1.09-2.67-.727-.729-1.62-1.093-2.679-1.093-1.059 0-1.952.364-2.678 1.093-.727.728-1.091 1.618-1.091 2.67 0 1.051.364 1.941 1.09 2.67zm17.842.873c-.976.956-2.166 1.434-3.569 1.434s-2.593-.478-3.569-1.434-1.464-2.138-1.463-3.544c0-1.406.488-2.588 1.463-3.544.976-.956 2.166-1.434 3.569-1.434s2.593.478 3.569 1.434c.975.957 1.463 2.138 1.463 3.544 0 1.406-.488 2.587-1.463 3.544zm-6.248-.874c.727.728 1.62 1.093 2.679 1.093 1.059 0 1.952-.365 2.679-1.093.727-.729 1.09-1.619 1.09-2.67s-.364-1.941-1.091-2.669-1.62-1.093-2.679-1.093c-1.059 0-1.951.365-2.678 1.093-.728.728-1.091 1.618-1.091 2.67 0 1.051.364 1.941 1.09 2.67m16.418-3.659c1.084.52 1.626 1.4 1.626 2.642 0 .886-.297 1.624-.89 2.214-.592.589-1.444.883-2.554.883h-4.784V5.692h3.827c.931 0 1.674.25 2.23.75a2.443 2.443 0 01.832 1.895 2.26 2.26 0 01-.286 1.122l-.001-.005zm-5.337-2.58v2.202h3.52c.141 0 .338.013.593.038.158-.23.243-.501.247-.78 0-.493-.173-.867-.517-1.12-.344-.254-.771-.369-1.281-.345l-2.562.005zm3.52 7.145c.689 0 1.225-.171 1.607-.513.383-.342.575-.81.575-1.406 0-.595-.191-1.058-.575-1.386-.383-.33-.919-.496-1.607-.501h-3.521v3.8l3.521.006zm8.704-8.555c1.084 0 1.96.32 2.628.96.668.64 1.003 1.504 1.004 2.593v6.176h-1.263v-1.066c-.612.862-1.6 1.292-2.966 1.292-.944 0-1.751-.266-2.419-.799-.669-.532-1.004-1.285-1.005-2.26 0-.976.335-1.73 1.005-2.262.669-.532 1.476-.798 2.419-.798 1.327 0 2.316.411 2.966 1.235V9.017c0-.798-.226-1.387-.679-1.767-.452-.38-1.017-.57-1.693-.57-.663 0-1.224.167-1.683.503-.459.335-.689.82-.689 1.454h-1.26a2.913 2.913 0 011.014-2.27c.676-.602 1.55-.903 2.621-.903zm-.286 8.778c.766 0 1.401-.177 1.903-.532.503-.354.755-.804.756-1.35 0-.57-.249-1.026-.747-1.368-.497-.342-1.135-.513-1.913-.513-.816 0-1.432.171-1.847.513-.415.342-.622.799-.622 1.37 0 .57.207 1.026.621 1.368.415.342 1.03.513 1.847.513m13.261-8.551v9.5h-1.263v-3.648h-1.724l-3.253 3.649h-1.606l3.349-3.706a3.088 3.088 0 01-1.856-.95 2.682 2.682 0 01-.727-1.9c0-.86.309-1.567.928-2.12.619-.552 1.374-.828 2.267-.827l3.885.002zm-3.884 4.674h2.621V6.908h-2.621a2.054 2.054 0 00-1.368.475 1.675 1.675 0 000 2.509c.382.319.869.488 1.368.475M46.74 24.57c1.415 0 2.585.474 3.51 1.424.926.95 1.388 2.135 1.388 3.553 0 1.42-.463 2.604-1.387 3.553-.925.95-2.095 1.425-3.512 1.426-1.122 0-2.114-.301-2.975-.903a4.16 4.16 0 01-1.693-2.365h1.34c.25.618.697 1.138 1.271 1.482a3.79 3.79 0 002.053.57c.93 0 1.728-.298 2.392-.896a3.702 3.702 0 001.206-2.262H45.57V28.94h4.763a3.702 3.702 0 00-1.206-2.261c-.663-.598-1.46-.897-2.392-.897a3.791 3.791 0 00-2.047.56 3.134 3.134 0 00-1.282 1.491H42.07a4.268 4.268 0 011.703-2.364c.855-.602 1.843-.903 2.966-.903m14.734 9.731h-1.685l-4.783-4.578v4.578h-1.263v-9.5h1.263v4.219l4.592-4.219h1.684l-4.974 4.56 5.166 4.94zm8.791-1.206c-.976.957-2.166 1.435-3.569 1.435s-2.593-.478-3.569-1.435c-.975-.954-1.463-2.136-1.463-3.544s.488-2.589 1.464-3.544c.976-.956 2.166-1.434 3.569-1.434s2.593.478 3.569 1.434c.972.957 1.459 2.139 1.459 3.544 0 1.406-.488 2.588-1.464 3.544h.004zm-6.252-.874c.727.729 1.62 1.093 2.679 1.093 1.059 0 1.951-.364 2.678-1.093.728-.728 1.091-1.618 1.091-2.67 0-1.051-.363-1.941-1.09-2.67-.725-.726-1.616-1.089-2.675-1.089-1.059 0-1.952.364-2.679 1.093-.727.728-1.09 1.618-1.09 2.67 0 1.051.363 1.941 1.09 2.67m18.866-.964a4.188 4.188 0 01-1.674 2.365 4.916 4.916 0 01-2.915.904c-1.441 0-2.64-.478-3.597-1.435-.957-.956-1.436-2.137-1.435-3.544 0-1.405.478-2.587 1.435-3.544.956-.956 2.155-1.435 3.597-1.434 1.095 0 2.064.3 2.909.903a4.299 4.299 0 011.684 2.364h-1.34a3.167 3.167 0 00-1.263-1.491 3.632 3.632 0 00-1.99-.557c-1.059 0-1.952.364-2.678 1.093-.727.728-1.091 1.618-1.091 2.67 0 1.052.364 1.942 1.09 2.67.727.727 1.62 1.092 2.68 1.092a3.614 3.614 0 002.008-.57c.563-.351.998-.87 1.244-1.483l1.336-.003zm8.305-6.46h1.07v9.5h-1.261v-7.22l-5.128 7.22h-1.072v-9.5h1.263v7.22l5.128-7.22zm12.799 6.46a4.19 4.19 0 01-1.674 2.365 4.916 4.916 0 01-2.915.904c-1.442 0-2.64-.478-3.598-1.435-.957-.956-1.435-2.137-1.434-3.544 0-1.405.478-2.587 1.434-3.544.957-.956 2.156-1.435 3.598-1.434 1.095 0 2.064.3 2.908.903a4.299 4.299 0 011.684 2.364h-1.339a3.163 3.163 0 00-1.263-1.491 3.632 3.632 0 00-1.99-.557c-1.06 0-1.952.364-2.679 1.093-.727.728-1.09 1.618-1.09 2.67 0 1.052.363 1.942 1.09 2.67.727.727 1.62 1.092 2.679 1.092a3.613 3.613 0 002.009-.57 3.12 3.12 0 001.244-1.483l1.336-.003zm7.845-6.46v1.216h-3.003v8.284h-1.263v-8.284h-3.004v-1.216h7.27zm5.473-.228c1.403 0 2.529.494 3.377 1.483.849.988 1.273 2.166 1.272 3.534 0 .14-.013.336-.039.588h-8.211c.127.963.52 1.727 1.177 2.29.657.564 1.47.846 2.439.846.689 0 1.288-.149 1.799-.447a2.568 2.568 0 001.09-1.168h1.396c-.268.836-.791 1.515-1.569 2.038-.779.523-1.691.786-2.736.789-1.454 0-2.634-.469-3.54-1.406-.906-.937-1.359-2.128-1.358-3.573 0-1.418.452-2.602 1.358-3.553.905-.95 2.085-1.425 3.54-1.425l.005.004zm-.005 1.212c-.995 0-1.814.291-2.459.874-.644.583-1.023 1.35-1.138 2.3h6.945c-.115-1-.484-1.78-1.109-2.337a3.25 3.25 0 00-2.234-.83m15.938-.991v9.5h-1.263v-7.41l-2.927 5.492h-.995l-2.928-5.492v7.41h-1.263v-9.5h1.454l3.234 6.1 3.234-6.1h1.454zm6.122-.228c1.084 0 1.96.32 2.628.96.667.64 1.004 1.504 1.008 2.594v6.175h-1.263v-1.06c-.613.862-1.601 1.293-2.966 1.293-.944 0-1.751-.267-2.42-.799s-1.004-1.286-1.004-2.261c0-.975.335-1.729 1.004-2.261.67-.533 1.476-.799 2.42-.799 1.326 0 2.315.412 2.966 1.236v-1.524c0-.798-.226-1.387-.679-1.767-.453-.38-1.017-.57-1.693-.571-.664 0-1.225.168-1.684.503-.46.335-.689.821-.689 1.457h-1.263a2.9 2.9 0 011.014-2.27c.676-.602 1.55-.903 2.621-.904v-.002zm-.287 8.78c.767 0 1.401-.176 1.904-.53.502-.355.754-.805.755-1.35 0-.57-.249-1.027-.746-1.369-.498-.342-1.136-.513-1.914-.513-.816 0-1.431.171-1.846.513-.415.342-.622.798-.622 1.369 0 .57.207 1.026.622 1.368.414.342 1.03.513 1.846.513M22.27 0v2.394A15.612 15.612 0 0011.949 6.27l-1.707-1.695A18.084 18.084 0 0122.27 0zm14.292 32.079c-3.679 3.649-8.462 5.587-13.32 5.816v-4.55A15.598 15.598 0 0033.3 28.839l3.262 3.24zM11.24 6.931A15.393 15.393 0 006.7 16.92H2.12c.23-4.824 2.182-9.577 5.857-13.227l3.262 3.24zm11.029 26.441v6.625c-5.906 0-11.57-2.33-15.747-6.478A22.038 22.038 0 01-.001 17.882h6.672c-.002 2.034.4 4.05 1.184 5.93a15.47 15.47 0 003.38 5.026 15.593 15.593 0 005.063 3.358 15.68 15.68 0 005.97 1.176zm1.293-15.487a1.278 1.278 0 00-.798-1.187 1.302 1.302 0 00-1.41.279 1.282 1.282 0 00-.28 1.4 1.286 1.286 0 001.195.792c.343 0 .672-.135.914-.376a1.28 1.28 0 00.38-.908z" fill="#fff"/><path d="M22.269 3.363a14.7 14.7 0 00-8.126 2.448 14.546 14.546 0 00-5.386 6.52 14.43 14.43 0 00-.832 8.391 14.493 14.493 0 004.004 7.436 14.657 14.657 0 007.49 3.974 14.72 14.72 0 008.45-.827 14.604 14.604 0 006.563-5.35 14.452 14.452 0 002.463-8.07c0-3.852-1.542-7.546-4.285-10.27a14.677 14.677 0 00-10.34-4.251zm8.9 23.363l-1.406-1.399a10.614 10.614 0 01-4.418 2.63 10.67 10.67 0 01-5.145.251 10.632 10.632 0 01-4.657-2.187 10.534 10.534 0 01-3.068-4.109 10.46 10.46 0 01.98-9.876c.969-1.44 2.28-2.62 3.817-3.435a10.659 10.659 0 014.997-1.242V5.384a12.636 12.636 0 018.9 3.662c4.883 4.849 4.883 12.829 0 17.677" fill="#fff"/><path d="M18.39 17.885a1.278 1.278 0 00-.799-1.187 1.302 1.302 0 00-1.409.279 1.282 1.282 0 00-.28 1.4 1.286 1.286 0 001.194.792 1.3 1.3 0 00.915-.376 1.28 1.28 0 00.379-.908zm10.345 0a1.279 1.279 0 00-.799-1.187 1.302 1.302 0 00-1.41.279 1.282 1.282 0 00-.28 1.4 1.286 1.286 0 001.196.792c.343 0 .671-.135.914-.376a1.28 1.28 0 00.379-.908zm-5.173 5.136a1.278 1.278 0 00-.798-1.186 1.302 1.302 0 00-1.41.278 1.282 1.282 0 00-.28 1.4 1.286 1.286 0 001.195.793c.343 0 .672-.136.914-.377a1.28 1.28 0 00.38-.908zm-5.172 0a1.278 1.278 0 00-.799-1.186 1.302 1.302 0 00-1.409.278 1.282 1.282 0 00-.28 1.4 1.286 1.286 0 001.194.793 1.3 1.3 0 00.915-.377 1.28 1.28 0 00.379-.908zm10.345 0a1.279 1.279 0 00-.799-1.186 1.302 1.302 0 00-1.41.278 1.282 1.282 0 00-.28 1.4 1.286 1.286 0 001.196.793c.343 0 .671-.136.914-.377a1.28 1.28 0 00.379-.908zm-5.173-10.273a1.278 1.278 0 00-.798-1.186 1.302 1.302 0 00-1.41.278 1.282 1.282 0 00-.28 1.4 1.286 1.286 0 001.195.792c.343 0 .672-.135.914-.376a1.28 1.28 0 00.38-.908zm-5.172 0a1.278 1.278 0 00-.799-1.186 1.302 1.302 0 00-1.409.278 1.282 1.282 0 00-.28 1.4 1.286 1.286 0 001.194.792 1.3 1.3 0 00.915-.376 1.28 1.28 0 00.379-.908zm10.345 0a1.278 1.278 0 00-.799-1.186 1.302 1.302 0 00-1.41.278 1.282 1.282 0 00-.28 1.4 1.286 1.286 0 001.196.792c.343 0 .671-.135.914-.376a1.28 1.28 0 00.379-.908zM59.17 5.692h1.072v9.5H58.98v-7.22l-5.128 7.22H52.78v-9.5h1.263v7.22l5.128-7.22zm-9.834 8.284h1.53v3.953h-1.262v-2.736h-7.539V5.692h1.263v8.284h4.745V5.692h1.263v8.284z" fill="#fff"/></svg>