<svg width="84" height="84" fill="none" xmlns="http://www.w3.org/2000/svg"><g clip-path="url(#clip0)" fill="#EFE721"><path d="M42 12.1a2.626 2.626 0 01-2.625-2.625v-6.85a2.626 2.626 0 015.25 0v6.85A2.626 2.626 0 0142 12.1zm22.999 9.527a2.626 2.626 0 01-1.855-4.483l4.843-4.845a2.626 2.626 0 113.714 3.713l-4.844 4.845a2.633 2.633 0 01-1.858.77zm16.376 22.998h-6.85a2.626 2.626 0 010-5.25h6.85a2.626 2.626 0 010 5.25zM69.843 72.468a2.604 2.604 0 01-1.856-.77l-4.843-4.844a2.626 2.626 0 113.713-3.714l4.844 4.844a2.626 2.626 0 01-1.858 4.484zm-55.685 0a2.626 2.626 0 01-1.855-4.484l4.843-4.844a2.626 2.626 0 113.714 3.713l-4.844 4.845a2.618 2.618 0 01-1.858.77zM9.475 44.625h-6.85a2.626 2.626 0 010-5.25h6.85a2.626 2.626 0 010 5.25zm9.527-22.998a2.604 2.604 0 01-1.855-.77l-4.844-4.845a2.626 2.626 0 113.713-3.713l4.844 4.844a2.626 2.626 0 01-1.858 4.483zM52.5 73.5v4.375c0 3.36-2.765 6.125-6.125 6.125h-8.75c-2.94 0-6.125-2.24-6.125-7.14V73.5h21zm4.935-50.54c-5.74-4.655-13.3-6.475-20.685-4.9-9.275 1.925-16.8 9.485-18.725 18.76-1.96 9.52 1.61 18.97 9.24 24.745 2.065 1.54 3.5 3.92 3.99 6.685v.035c.07-.035.175-.035.245-.035h21c.07 0 .105 0 .175.035v-.035c.49-2.66 2.065-5.11 4.48-7C63.07 56.56 66.5 49.56 66.5 42c0-7.42-3.29-14.35-9.065-19.04zm-2.31 20.79a2.644 2.644 0 01-2.625-2.625 9.62 9.62 0 00-9.625-9.625 2.644 2.644 0 01-2.625-2.625 2.644 2.644 0 012.625-2.625c8.19 0 14.875 6.685 14.875 14.875a2.644 2.644 0 01-2.625 2.625z"/><path d="M31.255 68.25h.245c-.07 0-.175 0-.245.035v-.035zm21.42 0v.035c-.07-.035-.105-.035-.175-.035h.175z"/></g><defs><clipPath id="clip0"><path fill="#fff" d="M0 0h84v84H0z"/></clipPath></defs></svg>