<svg width="83" height="70" fill="none" xmlns="http://www.w3.org/2000/svg"><circle cx="30" cy="40" r="30" fill="#EFE721" fill-opacity=".5"/><path d="M69.102 2.508l-2.961 2.96h-3.922a1.094 1.094 0 00-1.094 1.095v3.921l-3.734 3.735h-3.922a1.094 1.094 0 00-1.094 1.094v3.921l-3.734 3.735h-3.922a1.094 1.094 0 00-1.094 1.093v3.922l-4.828 4.828h-3.74a13.077 13.077 0 015.877-8.874l-1.18-1.843A15.314 15.314 0 0048 50.313h14.048A20.797 20.797 0 0148 55.78c-11.459 0-20.781-9.322-20.781-20.781H25.03c0 1.843.221 3.679.66 5.469h-8.316V29.53h8.75a1.093 1.093 0 001.01-.675l1.767-4.265a1.094 1.094 0 00-.237-1.192l-6.187-6.187 7.734-7.734 6.187 6.187a1.094 1.094 0 001.192.237l4.265-1.767a1.093 1.093 0 00.675-1.01v-8.75h10.94v6.563h2.187V3.28a1.094 1.094 0 00-1.093-1.094H41.437a1.094 1.094 0 00-1.093 1.094v9.113L37.429 13.6l-6.444-6.443a1.094 1.094 0 00-1.547 0l-9.28 9.28a1.094 1.094 0 000 1.547l6.444 6.444-1.208 2.915h-9.113a1.094 1.094 0 00-1.093 1.093v13.125a1.094 1.094 0 001.093 1.094h9.113l1.208 2.915-6.444 6.444a1.094 1.094 0 000 1.547l9.28 9.28a1.094 1.094 0 001.547 0l6.444-6.444 2.915 1.208v9.113a1.094 1.094 0 001.093 1.094h13.126a1.093 1.093 0 001.093-1.094v-9.113l2.915-1.208 6.444 6.444a1.094 1.094 0 001.547 0l9.28-9.28a1.094 1.094 0 000-1.547l-1.702-1.703h5.579a1.094 1.094 0 001.094-1.093V12.03a1.093 1.093 0 00-1.094-1.094h-8.75a1.094 1.094 0 00-1.094 1.094v7.656h-7.656a1.094 1.094 0 00-1.094 1.094v5.469h-7.656a1.094 1.094 0 00-1.094 1.094v6.562h-7.656A1.094 1.094 0 0043.625 35v4.375h-8a13.067 13.067 0 01-.75-4.375h4.375c.29 0 .568-.115.773-.32l5.149-5.149h3.922a1.094 1.094 0 001.093-1.093v-3.922l3.735-3.735h3.922a1.094 1.094 0 001.093-1.093v-3.922l3.735-3.735h3.922a1.094 1.094 0 001.094-1.094v-3.92l2.64-2.641h10.484V2.187H69.876c-.29 0-.568.116-.773.32zm-38.89 58.014l-7.734-7.734 5.885-5.884a23.147 23.147 0 007.733 7.733l-5.884 5.885zm12.32 5.103v-8.316c3.592.88 7.344.88 10.937-.002v8.318H42.53zm30.99-12.837l-7.734 7.734-5.883-5.883a22.98 22.98 0 005.213-4.327h5.928l2.476 2.476zm-1.46-39.663h6.563v35h-6.563v-35zm-8.75 8.75h6.563v26.25h-6.563v-26.25zm-8.75 6.563h6.563v19.687h-6.563V28.437zm-8.75 7.656h6.563v12.031H48a13.15 13.15 0 01-2.188-.183V36.094zm-2.187 5.468v5.812a13.197 13.197 0 01-6.988-5.812h6.988zM48 27.345h-2.188v-2.188H48v2.188zm8.75-8.75h-2.188v-2.188h2.188v2.188zm8.75-8.75h-2.188V7.656H65.5v2.188z" fill="#0E2A90"/></svg>