<svg width="83" height="70" fill="none" xmlns="http://www.w3.org/2000/svg"><circle cx="30" cy="40" r="30" fill="#EFE721" fill-opacity=".5"/><path d="M79.719 9.844H31.594a1.094 1.094 0 00-1.094 1.094v31.718a1.093 1.093 0 001.094 1.094h29.531v9.844H56.75v2.187h17.5v2.188h-17.5v2.187h18.594a1.094 1.094 0 001.094-1.093V43.75h3.28a1.093 1.093 0 001.094-1.094V10.938a1.093 1.093 0 00-1.093-1.094zm-1.094 2.187v4.375H32.687v-4.375h45.938zM63.312 43.75H65.5v2.188a1.093 1.093 0 102.188 0V43.75h2.187v9.844h-6.563V43.75zm10.938 9.844h-2.188V43.75h2.188v9.844zM32.687 41.562V18.595h45.938v22.968H32.687z" fill="#0E2A90"/><path d="M20.656 60.156h28.438a5.475 5.475 0 005.468-5.468 1.093 1.093 0 00-1.093-1.094h-4.375v-7.657h-2.188v7.657H22.844V35h5.468v-2.188H21.75a1.093 1.093 0 00-1.094 1.094v19.688h-4.375a1.094 1.094 0 00-1.093 1.093 5.475 5.475 0 005.468 5.47zm10.485-4.375l.773.774c.205.205.483.32.773.32h4.376c.29 0 .568-.115.773-.32l.773-.774h13.579a3.287 3.287 0 01-3.094 2.188H20.656a3.287 3.287 0 01-3.093-2.188H31.14zm3.734-40.468a1.094 1.094 0 100-2.188 1.094 1.094 0 000 2.188zm3.281 0a1.094 1.094 0 100-2.188 1.094 1.094 0 000 2.188zm3.282 0a1.094 1.094 0 100-2.188 1.094 1.094 0 000 2.188zm-6.563 5.468h3.281v2.188h-3.281V20.78zm6.563 0h7.656v2.188h-7.657V20.78zm9.843 0h3.282v2.188H51.28V20.78zM34.875 26.25h3.281v2.188h-3.281V26.25zm6.563 0h4.374v2.188h-4.374V26.25zm6.562 0h6.563v2.188H48V26.25zm-13.125 5.469h3.281v2.187h-3.281V31.72zm6.563 0h13.124v2.187H41.438V31.72z" fill="#0E2A90"/><path d="M34.875 37.188h3.281v2.187h-3.281v-2.188zm6.563 0h4.374v2.187h-4.374v-2.188zm6.562 0h6.563v2.187H48v-2.188zm13.445-11.711l-3.281 3.28a1.094 1.094 0 000 1.548l3.281 3.28 1.547-1.546-2.508-2.508 2.508-2.508-1.547-1.546zm10.297 0l-1.547 1.546 2.508 2.508-2.508 2.508 1.547 1.547 3.281-3.281a1.094 1.094 0 000-1.547l-3.28-3.281zm-8.374 10.25l4.372-13.129 2.076.691-4.372 13.13-2.076-.692z" fill="#0E2A90"/></svg>