<svg width="83" height="70" fill="none" xmlns="http://www.w3.org/2000/svg"><circle cx="30" cy="40" r="30" fill="#EFE721" fill-opacity=".5"/><path d="M74.25 2.188h-5.469a1.093 1.093 0 00-1.094 1.093v9.844H21.75a6.57 6.57 0 00-6.563 6.563v38.28a6.57 6.57 0 006.563 6.563h4.375a1.092 1.092 0 001.094-1.094V57.97H42.53v-2.19H27.22V25.156a1.093 1.093 0 00-1.094-1.093H21.75a4.375 4.375 0 110-8.75h52.5a6.535 6.535 0 004.375-1.677V35h2.188V8.75a6.57 6.57 0 00-6.563-6.563zM21.75 26.25h3.281v36.094H21.75a4.38 4.38 0 01-4.375-4.375V24.575a6.536 6.536 0 004.375 1.675zm52.5-13.125h-4.375v-8.75h4.375a4.375 4.375 0 010 8.75z" fill="#0E2A90"/><path d="M40.664 64.21l3.281 3.282a1.091 1.091 0 001.547 0l26.25-26.25c.105-.105.187-.23.242-.367l2.188-5.469a1.094 1.094 0 00-1.422-1.422l-5.469 2.188a1.095 1.095 0 00-.367.242l-26.25 26.25a1.094 1.094 0 000 1.547zm28.758-23.74L50.187 59.703l-1.734-1.734 19.234-19.235 1.735 1.735zM48.64 61.25l-.641.64-1.735-1.734.641-.64 1.735 1.734zm21.928-22.727l-.935-.936 1.559-.624-.624 1.56zm-25.85 23.18l1.734 1.734-1.734 1.735-1.735-1.734 1.735-1.735zM80.137 37.27a1.094 1.094 0 00-1.192.238L50.508 65.945a1.093 1.093 0 00.773 1.868H79.72a1.095 1.095 0 001.094-1.094V38.28a1.094 1.094 0 00-.676-1.01zm-1.512 28.355H53.922l24.703-24.703v24.703z" fill="#0E2A90"/><path d="M65.583 60.575a1.093 1.093 0 001.01.675h7.657a1.095 1.095 0 001.094-1.094V52.5a1.094 1.094 0 00-1.867-.773l-7.657 7.656a1.093 1.093 0 00-.237 1.192zm7.573-5.434v3.922h-3.922l3.922-3.922zM41.621 26.737L37.246 33.3a1.093 1.093 0 00.137 1.38l13.125 13.125a1.093 1.093 0 001.547 0L65.18 34.68a1.094 1.094 0 00.136-1.38l-4.375-6.563a1.093 1.093 0 00-.91-.487h-17.5a1.095 1.095 0 00-.91.487zm7.329 6.076l2.331-3.498 2.332 3.497H48.95zM54.139 35l-2.858 8.573L48.424 35h5.715zm-8.021 0l2.66 7.982L40.797 35h5.321zM40.2 32.812l2.331-3.496 2.332 3.497H40.2zM56.445 35h5.32l-7.98 7.982L56.444 35zm-3.12-6.563h4.663l-2.332 3.497-2.331-3.497zm-6.419 3.497l-2.331-3.497h4.663l-2.332 3.497zm15.457.878H57.7l2.331-3.496 2.332 3.497zM31.594 17.5v2.188h-2.188v2.187h2.188v8.75h2.187V26.25h3.282a1.095 1.095 0 001.093-1.094v-3.281h4.375v-2.188h-8.75V17.5h-2.187zm4.375 4.375v2.188H33.78v-2.188h2.188zm-2.188 10.938h-2.187V35h2.187v-2.188zm13.125-13.125H44.72v2.187h2.187v-2.188zm-13.125 35V52.5h8.75v-2.188h-4.375v-3.28a1.091 1.091 0 00-1.093-1.094H33.78v-4.376h-2.187v8.75h-2.188V52.5h2.188v2.188h2.187zm0-6.563h2.188v2.188H33.78v-2.188zm0-10.937h-2.187v2.187h2.187v-2.188zm13.125 13.125H44.72V52.5h2.187v-2.188zM68.781 17.5v2.188h-8.75v2.187h4.375v3.281A1.093 1.093 0 0065.5 26.25h3.281v6.563h2.188V21.874h2.187v-2.188H70.97V17.5h-2.19zm0 6.563h-2.187v-2.188h2.187v2.188zm-10.937-4.375h-2.188v2.187h2.188v-2.188z" fill="#0E2A90"/></svg>