<svg width="83" height="70" fill="none" xmlns="http://www.w3.org/2000/svg"><circle cx="30" cy="40" r="30" fill="#EFE721" fill-opacity=".5"/><path d="M61.125 54.688h-1.094V43.75h-2.187v10.938H20.656l-.001-21.875h.001v-2.188a2.19 2.19 0 00-2.187 2.188v21.874h-1.094V32.814a3.285 3.285 0 013.281-3.282v-2.187a5.475 5.475 0 00-5.468 5.468v22.97a5.475 5.475 0 005.468 5.468h14.219v1.094a3.285 3.285 0 01-3.281 3.281 1.093 1.093 0 100 2.188h15.312a1.093 1.093 0 100-2.188 3.285 3.285 0 01-3.281-3.281V61.25h14.219a5.474 5.474 0 005.468-5.469V43.75h-2.187v10.938zM42.534 65.624h-6.568a5.44 5.44 0 001.096-3.281V61.25h4.376v1.094a5.44 5.44 0 001.096 3.281zm15.31-6.563H20.656a3.287 3.287 0 01-3.093-2.187h43.374a3.287 3.287 0 01-3.093 2.188zM77.531 2.188H49.094a3.285 3.285 0 00-3.282 3.28v24.063a3.285 3.285 0 003.282 3.282H77.53a3.285 3.285 0 003.281-3.282V5.47a3.285 3.285 0 00-3.28-3.282zm1.094 27.343a1.095 1.095 0 01-1.094 1.094H49.094A1.095 1.095 0 0148 29.531V5.47a1.095 1.095 0 011.094-1.094H77.53a1.095 1.095 0 011.094 1.094v24.06z" fill="#0E2A90"/><path d="M50.188 8.75h26.25v2.188h-26.25V8.75zm1.093-1.094a1.094 1.094 0 100-2.187 1.094 1.094 0 000 2.187zm3.282 0a1.094 1.094 0 100-2.187 1.094 1.094 0 000 2.187zm3.281 0a1.094 1.094 0 100-2.187 1.094 1.094 0 000 2.187zm3.281 5.469h-9.844a1.093 1.093 0 00-1.093 1.094v9.844a1.093 1.093 0 001.093 1.093h9.844a1.094 1.094 0 001.094-1.093v-9.844a1.094 1.094 0 00-1.094-1.094zm-1.094 9.844h-7.656v-7.657h7.656v7.657zm15.313-9.844H65.5a1.093 1.093 0 00-1.094 1.094v9.844a1.094 1.094 0 001.094 1.093h9.844a1.094 1.094 0 001.094-1.093v-9.844a1.093 1.093 0 00-1.094-1.094zm-1.094 9.844h-7.656v-7.657h7.656v7.657zM52.375 26.25h4.375v2.188h-4.375V26.25zm5.469 0h2.187v2.188h-2.187V26.25zm8.75 0h4.375v2.188h-4.375V26.25zm5.469 0h2.187v2.188h-2.188V26.25z" fill="#0E2A90"/><path d="M66.594 38.281a1.095 1.095 0 01-1.094 1.094H37.062a1.095 1.095 0 01-1.093-1.094V14.22a1.095 1.095 0 011.093-1.094h6.563v-2.188h-6.563a3.285 3.285 0 00-3.28 3.282v24.06a3.285 3.285 0 003.28 3.282H65.5a3.285 3.285 0 003.281-3.282V35h-2.187v3.281z" fill="#0E2A90"/><path d="M38.156 17.5h5.469v2.188h-5.469V17.5zm1.094-1.094a1.094 1.094 0 100-2.187 1.094 1.094 0 000 2.187zm3.281 0a1.094 1.094 0 100-2.187 1.094 1.094 0 000 2.187zM25.031 52.5H53.47a3.285 3.285 0 003.281-3.281V43.75h-2.188v5.469a1.095 1.095 0 01-1.093 1.093H25.03a1.095 1.095 0 01-1.093-1.093V25.156a1.095 1.095 0 011.093-1.093h6.563v-2.188H25.03a3.285 3.285 0 00-3.281 3.281V49.22a3.285 3.285 0 003.281 3.281z" fill="#0E2A90"/><path d="M26.125 28.438h5.469v2.187h-5.469v-2.188zm1.094-1.094a1.094 1.094 0 100-2.188 1.094 1.094 0 000 2.188zm3.281 0a1.094 1.094 0 100-2.188 1.094 1.094 0 000 2.188z" fill="#0E2A90"/></svg>