<svg width="83" height="70" fill="none" xmlns="http://www.w3.org/2000/svg"><circle cx="30" cy="40" r="30" fill="#EFE721" fill-opacity=".5"/><g clip-path="url(#clip0)" fill="#0E2A90"><path d="M35.329 14.064h9.768a1.025 1.025 0 000-2.05H35.33a1.025 1.025 0 000 2.05zM30.063 36.31h4.576a4.742 4.742 0 004.737-4.736v-4.577a4.742 4.742 0 00-4.736-4.737h-4.578a4.742 4.742 0 00-4.736 4.737v4.577a4.742 4.742 0 004.736 4.736zm-2.686-9.313a2.689 2.689 0 012.686-2.686h4.576a2.689 2.689 0 012.686 2.686v4.577a2.689 2.689 0 01-2.686 2.686h-4.577a2.689 2.689 0 01-2.685-2.686v-4.577z"/><path d="M78.499 13.461c-.566 0-1.026.46-1.026 1.026v7.417c0 4.59-3.733 8.323-8.323 8.323H57.62c-4.589 0-8.323-3.734-8.323-8.323v-11.53c0-4.59 3.734-8.323 8.324-8.323H69.15c4.59 0 8.323 3.734 8.323 8.334 0 .566.46 1.02 1.026 1.02a1.03 1.03 0 001.025-1.03C79.524 4.653 74.87 0 69.15 0H57.62c-4.582 0-8.478 2.988-9.847 7.118H24.965c-4.68 0-8.489 3.808-8.489 8.489V61.51c0 4.68 3.808 8.489 8.49 8.489H55.46c4.68 0 8.489-3.808 8.489-8.49v-29.23h5.2c5.72 0 10.374-4.654 10.374-10.374v-7.417c0-.567-.459-1.026-1.025-1.026zm-25.45 17.752v.361a2.689 2.689 0 01-2.686 2.686h-4.577a2.689 2.689 0 01-2.686-2.686v-4.577a2.689 2.689 0 012.686-2.686h1.745a10.412 10.412 0 005.518 6.902zm8.85 30.298a6.445 6.445 0 01-6.438 6.438H24.965a6.445 6.445 0 01-6.438-6.438V15.607a6.445 6.445 0 016.438-6.439H47.32c-.046.396-.073.798-.073 1.206v5.56a3.357 3.357 0 01-2.033.681h-10a3.38 3.38 0 01-3.376-3.375v-.201c0-.566-.46-1.025-1.026-1.025h-4.157a5.288 5.288 0 00-5.283 5.28v42.527a5.288 5.288 0 005.283 5.282h2.02a1.025 1.025 0 000-2.051h-2.02a3.235 3.235 0 01-3.232-3.23V17.294c0-1.782 1.45-3.23 3.232-3.23h3.195a5.435 5.435 0 005.363 4.601h10.001a5.42 5.42 0 002.033-.393v3.63c0 .12.005.239.01.357h-1.47a4.742 4.742 0 00-4.737 4.737v4.577a4.742 4.742 0 004.736 4.737h4.578a4.742 4.742 0 004.72-4.349 10.3 10.3 0 001.92.296V59.82a3.235 3.235 0 01-3.233 3.231H32.775a1.025 1.025 0 100 2.05H53.77a5.289 5.289 0 005.285-5.28V32.277h2.844V61.51z"/><path d="M39.376 46.847V42.27a4.742 4.742 0 00-4.736-4.737h-4.578a4.742 4.742 0 00-4.736 4.737v4.577a4.742 4.742 0 004.736 4.736h4.577a4.742 4.742 0 004.737-4.736zm-12 0V42.27a2.689 2.689 0 012.686-2.686h4.577a2.689 2.689 0 012.686 2.686v4.577a2.689 2.689 0 01-2.686 2.685h-4.577a2.689 2.689 0 01-2.685-2.685zm18.409 4.736h4.578a4.742 4.742 0 004.736-4.736V42.27a4.742 4.742 0 00-4.736-4.737h-4.578a4.742 4.742 0 00-4.736 4.737v4.577a4.742 4.742 0 004.736 4.736zM43.1 42.27a2.689 2.689 0 012.685-2.686h4.578a2.689 2.689 0 012.685 2.686v4.577a2.689 2.689 0 01-2.685 2.685h-4.578a2.689 2.689 0 01-2.685-2.685V42.27zM58.961 9.66c-.4-.4-1.05-.4-1.45 0l-5.753 5.754c-.4.4-.4 1.05 0 1.45l5.753 5.753a1.022 1.022 0 001.45 0c.4-.4.4-1.05 0-1.45l-5.027-5.028 5.027-5.028c.4-.4.4-1.05 0-1.45zm8.848 12.957a1.022 1.022 0 001.45 0l5.752-5.753c.4-.4.4-1.05 0-1.45L69.26 9.66a1.025 1.025 0 10-1.45 1.45l5.027 5.028-5.027 5.027c-.4.401-.4 1.05 0 1.45zM64.937 6.295L59.67 25.438a1.026 1.026 0 001.978.544L66.914 6.84a1.025 1.025 0 10-1.977-.544z"/></g><defs><clipPath id="clip0"><path fill="#fff" transform="translate(13)" d="M0 0h70v70H0z"/></clipPath></defs></svg>