<svg width="39" height="33" fill="none" xmlns="http://www.w3.org/2000/svg"><ellipse cx="14.096" cy="18.857" rx="14.096" ry="14.143" fill="#EFE721"/><path d="M32.47 1.182l-1.392 1.396h-1.843a.513.513 0 00-.514.516v1.849l-1.754 1.76h-1.843a.513.513 0 00-.514.516v1.849l-1.755 1.76h-1.843a.513.513 0 00-.514.516v1.849l-2.268 2.276h-1.757a6.177 6.177 0 012.76-4.184l-.553-.869a7.214 7.214 0 00-2.862 3.548 7.241 7.241 0 00-.17 4.56 7.22 7.22 0 002.59 3.752 7.181 7.181 0 004.316 1.443h6.601a9.755 9.755 0 01-6.6 2.578c-5.385 0-9.765-4.395-9.765-9.797h-1.028c0 .869.103 1.734.31 2.578H8.164v-5.156h4.111a.513.513 0 00.475-.318l.83-2.011a.517.517 0 00-.11-.562l-2.908-2.917 3.634-3.646 2.907 2.917a.514.514 0 00.56.112l2.004-.833a.515.515 0 00.317-.476V2.063h5.14v3.093h1.028v-3.61a.516.516 0 00-.514-.515H19.47a.513.513 0 00-.514.516v4.296l-1.37.57-3.028-3.039a.513.513 0 00-.727 0L9.472 7.75a.517.517 0 000 .729l3.027 3.038-.567 1.374H7.65a.513.513 0 00-.514.515v6.188a.516.516 0 00.514.515h4.282l.567 1.374-3.027 3.038a.517.517 0 000 .73l4.36 4.375a.513.513 0 00.727 0l3.028-3.038 1.37.569v4.296a.516.516 0 00.514.516h6.167a.513.513 0 00.514-.516v-4.296l1.37-.57 3.027 3.039a.513.513 0 00.727 0l4.36-4.376a.516.516 0 000-.729l-.8-.802h2.622a.513.513 0 00.514-.516V5.672a.516.516 0 00-.514-.516h-4.111a.513.513 0 00-.514.516v3.61h-3.598a.513.513 0 00-.514.515v2.578h-3.597a.513.513 0 00-.514.516v3.093h-3.598a.513.513 0 00-.514.516v2.063H16.74a6.18 6.18 0 01-.353-2.063h2.056a.513.513 0 00.363-.151l2.42-2.427h1.842a.513.513 0 00.514-.516v-1.849l1.755-1.76h1.843a.513.513 0 00.514-.516V7.432l1.754-1.76h1.843a.513.513 0 00.514-.516V3.307l1.24-1.244h4.927V1.03h-5.14a.513.513 0 00-.363.151zm-18.274 27.35l-3.634-3.646 2.765-2.774a10.904 10.904 0 003.634 3.646l-2.765 2.774zm5.789 2.405v-3.92c1.688.415 3.45.415 5.139 0v3.92h-5.14zm14.562-6.051l-3.635 3.646-2.764-2.774a10.803 10.803 0 002.45-2.04h2.785l1.163 1.168zM33.86 6.188h3.083v16.5H33.86v-16.5zm-4.112 4.125h3.084v12.374h-3.084V10.313zm-4.111 3.093h3.083v9.281h-3.083v-9.28zm-4.112 3.61h3.084v5.672h-2.056a6.22 6.22 0 01-1.028-.087v-5.585zm-1.028 2.578v2.74a6.206 6.206 0 01-3.283-2.74h3.283zm2.056-6.703h-1.028v-1.032h1.028v1.032zm4.112-4.125h-1.028V7.734h1.028v1.032zm4.111-4.125h-1.028V3.609h1.028v1.032z" fill="#fff"/></svg>