<svg width="1920" height="1038" fill="none" xmlns="http://www.w3.org/2000/svg"><g clip-path="url(#clip0)"><g opacity=".5"><path opacity=".5" d="M1680.52 519.607l38.4-66.511-38.4-66.511h-76.8l-38.4 66.511 38.4 66.511h76.8z" stroke="url(#paint0_linear)"/><path d="M1795.55 452.748l38.4-66.511-38.4-66.511h-76.8l-38.4 66.511 38.4 66.511h76.8z" stroke="url(#paint1_linear)" stroke-opacity=".5"/><path d="M1795.55 319.748l38.4-66.511-38.4-66.511h-76.8l-38.4 66.511 38.4 66.511h76.8z" stroke="url(#paint2_linear)" stroke-opacity=".5"/><path d="M1564.78 454.185l38.4-66.511-38.4-66.51h-76.8l-38.4 66.51 38.4 66.511h76.8z" stroke="url(#paint3_linear)" stroke-opacity=".5"/><path d="M1911.3 252.888l38.4-66.511-38.4-66.51h-76.8l-38.4 66.51 38.4 66.511h76.8z" stroke="url(#paint4_linear)" stroke-opacity=".5"/><path d="M1799.11 167.592l-7.01-12.141h-14.02l-7 12.141 7 12.141h14.02l7.01-12.141z" fill="url(#paint5_linear)" fill-opacity=".15"/><path d="M1679.8 386.607l38.4-66.511-38.4-66.511H1603l-38.4 66.511 38.4 66.511h76.8z" stroke="url(#paint6_linear)" stroke-opacity=".5"/><g filter="url(#filter0_d)"><circle r="4.314" transform="matrix(1 0 0 -1 1795.52 452.643)" fill="#51B4F7"/></g><g filter="url(#filter1_d)"><circle r="4.314" transform="matrix(1 0 0 -1 1679.77 386.502)" fill="#51B4F7"/></g><g filter="url(#filter2_d)"><circle r="4.314" transform="matrix(1 0 0 -1 1679.77 253.502)" fill="#51B4F7"/></g><path d="M1911.3 386.607l38.4-66.511-38.4-66.511h-76.8l-38.4 66.511 38.4 66.511h76.8z" stroke="url(#paint7_linear)" stroke-opacity=".5"/><g filter="url(#filter3_d)"><circle r="4.314" transform="matrix(1 0 0 -1 1833.62 253.502)" fill="#51B4F7"/></g></g><g opacity=".5"><path opacity=".5" d="M106.157 1023.34l53.526-92.71-53.526-92.71H-.896l-53.527 92.71 53.527 92.71h107.053z" stroke="url(#paint8_linear)"/><path d="M319 837.5l-53.25-92.232h-106.5L106 837.5l53.25 92.232h106.5L319 837.5z" fill="url(#paint9_linear)" fill-opacity=".05"/><path d="M279 837.5l-33.25-57.591h-66.5L146 837.5l33.25 57.591h66.5L279 837.5z" fill="#0047A3" fill-opacity=".1"/><path d="M262.961 552.887l9.462-16.387-9.462-16.387h-18.922l-9.462 16.387 9.462 16.387h18.922z" stroke="url(#paint10_linear)" stroke-opacity=".3"/><path d="M266.157 745.341l53.526-92.711-53.526-92.71H159.104l-53.527 92.71 53.527 92.711h107.053z" stroke="url(#paint11_linear)" stroke-opacity=".5"/><path d="M427.157 652.341l53.526-92.711-53.526-92.71H320.104l-53.527 92.71 53.527 92.711h107.053z" stroke="url(#paint12_linear)" stroke-opacity=".5"/><path d="M105.157 838.341l53.526-92.711-53.526-92.71H-1.896l-53.527 92.71 53.527 92.711h107.053z" stroke="url(#paint13_linear)" stroke-opacity=".5"/><g filter="url(#filter4_d)"><circle r="6" transform="matrix(1 0 0 -1 320 838)" fill="#51B4F7"/></g><g filter="url(#filter5_d)"><circle r="6" transform="matrix(1 0 0 -1 159 931)" fill="#51B4F7"/></g><g filter="url(#filter6_d)"><circle r="6" transform="matrix(1 0 0 -1 105 653)" fill="#51B4F7"/></g><path d="M427.157 838.341l53.526-92.711-53.526-92.71H320.104l-53.527 92.71 53.527 92.711h107.053z" stroke="url(#paint14_linear)" stroke-opacity=".5"/><g filter="url(#filter7_d)"><circle r="6" transform="matrix(1 0 0 -1 319 653)" fill="#51B4F7"/></g></g></g><defs><linearGradient id="paint0_linear" x1="1690.57" y1="503.031" x2="1588.48" y2="407.056" gradientUnits="userSpaceOnUse"><stop stop-color="#0047A3"/><stop offset="1" stop-color="#53B7F9"/></linearGradient><linearGradient id="paint1_linear" x1="1805.6" y1="436.172" x2="1703.51" y2="340.197" gradientUnits="userSpaceOnUse"><stop stop-color="#0047A3"/><stop offset="1" stop-color="#53B7F9"/></linearGradient><linearGradient id="paint2_linear" x1="1805.6" y1="303.172" x2="1703.51" y2="207.197" gradientUnits="userSpaceOnUse"><stop stop-color="#0047A3"/><stop offset="1" stop-color="#53B7F9"/></linearGradient><linearGradient id="paint3_linear" x1="1574.82" y1="437.61" x2="1472.74" y2="341.634" gradientUnits="userSpaceOnUse"><stop stop-color="#0047A3"/><stop offset="1" stop-color="#53B7F9"/></linearGradient><linearGradient id="paint4_linear" x1="1921.34" y1="236.313" x2="1819.26" y2="140.337" gradientUnits="userSpaceOnUse"><stop stop-color="#0047A3"/><stop offset="1" stop-color="#53B7F9"/></linearGradient><linearGradient id="paint5_linear" x1="1793.87" y1="176.639" x2="1775.38" y2="159.25" gradientUnits="userSpaceOnUse"><stop stop-color="#0047A3"/><stop offset="1" stop-color="#53B7F9"/></linearGradient><linearGradient id="paint6_linear" x1="1689.85" y1="370.032" x2="1587.76" y2="274.056" gradientUnits="userSpaceOnUse"><stop stop-color="#53B7F9"/><stop offset="1" stop-color="#0047A3"/></linearGradient><linearGradient id="paint7_linear" x1="1921.34" y1="370.032" x2="1819.26" y2="274.056" gradientUnits="userSpaceOnUse"><stop stop-color="#0047A3"/><stop offset="1" stop-color="#53B7F9"/></linearGradient><linearGradient id="paint8_linear" x1="120.017" y1="1000.09" x2="-21.983" y2="866.59" gradientUnits="userSpaceOnUse"><stop stop-color="#0047A3"/><stop offset="1" stop-color="#53B7F9"/></linearGradient><linearGradient id="paint9_linear" x1="279.179" y1="906.23" x2="138.671" y2="774.132" gradientUnits="userSpaceOnUse"><stop stop-color="#0047A3"/><stop offset="1" stop-color="#53B7F9"/></linearGradient><linearGradient id="paint10_linear" x1="265.709" y1="549.084" x2="239.982" y2="524.897" gradientUnits="userSpaceOnUse"><stop stop-color="#0047A3"/><stop offset="1" stop-color="#53B7F9"/></linearGradient><linearGradient id="paint11_linear" x1="280.017" y1="722.09" x2="138.017" y2="588.59" gradientUnits="userSpaceOnUse"><stop stop-color="#0047A3"/><stop offset="1" stop-color="#53B7F9"/></linearGradient><linearGradient id="paint12_linear" x1="441.017" y1="629.09" x2="299.017" y2="495.59" gradientUnits="userSpaceOnUse"><stop stop-color="#0047A3"/><stop offset="1" stop-color="#53B7F9"/></linearGradient><linearGradient id="paint13_linear" x1="119.017" y1="815.09" x2="-22.983" y2="681.59" gradientUnits="userSpaceOnUse"><stop stop-color="#53B7F9"/><stop offset="1" stop-color="#0047A3"/></linearGradient><linearGradient id="paint14_linear" x1="441.017" y1="815.09" x2="299.017" y2="681.59" gradientUnits="userSpaceOnUse"><stop stop-color="#0047A3"/><stop offset="1" stop-color="#53B7F9"/></linearGradient><filter id="filter0_d" x="1781.2" y="438.329" width="28.627" height="28.627" filterUnits="userSpaceOnUse" color-interpolation-filters="sRGB"><feFlood flood-opacity="0" result="BackgroundImageFix"/><feColorMatrix in="SourceAlpha" values="0 0 0 0 0 0 0 0 0 0 0 0 0 0 0 0 0 0 127 0"/><feOffset/><feGaussianBlur stdDeviation="5"/><feColorMatrix values="0 0 0 0 0.290196 0 0 0 0 0.670588 0 0 0 0 0.937255 0 0 0 1 0"/><feBlend in2="BackgroundImageFix" result="effect1_dropShadow"/><feBlend in="SourceGraphic" in2="effect1_dropShadow" result="shape"/></filter><filter id="filter1_d" x="1665.46" y="372.189" width="28.627" height="28.627" filterUnits="userSpaceOnUse" color-interpolation-filters="sRGB"><feFlood flood-opacity="0" result="BackgroundImageFix"/><feColorMatrix in="SourceAlpha" values="0 0 0 0 0 0 0 0 0 0 0 0 0 0 0 0 0 0 127 0"/><feOffset/><feGaussianBlur stdDeviation="5"/><feColorMatrix values="0 0 0 0 0.290196 0 0 0 0 0.670588 0 0 0 0 0.937255 0 0 0 1 0"/><feBlend in2="BackgroundImageFix" result="effect1_dropShadow"/><feBlend in="SourceGraphic" in2="effect1_dropShadow" result="shape"/></filter><filter id="filter2_d" x="1665.46" y="239.189" width="28.627" height="28.627" filterUnits="userSpaceOnUse" color-interpolation-filters="sRGB"><feFlood flood-opacity="0" result="BackgroundImageFix"/><feColorMatrix in="SourceAlpha" values="0 0 0 0 0 0 0 0 0 0 0 0 0 0 0 0 0 0 127 0"/><feOffset/><feGaussianBlur stdDeviation="5"/><feColorMatrix values="0 0 0 0 0.290196 0 0 0 0 0.670588 0 0 0 0 0.937255 0 0 0 1 0"/><feBlend in2="BackgroundImageFix" result="effect1_dropShadow"/><feBlend in="SourceGraphic" in2="effect1_dropShadow" result="shape"/></filter><filter id="filter3_d" x="1819.31" y="239.189" width="28.627" height="28.627" filterUnits="userSpaceOnUse" color-interpolation-filters="sRGB"><feFlood flood-opacity="0" result="BackgroundImageFix"/><feColorMatrix in="SourceAlpha" values="0 0 0 0 0 0 0 0 0 0 0 0 0 0 0 0 0 0 127 0"/><feOffset/><feGaussianBlur stdDeviation="5"/><feColorMatrix values="0 0 0 0 0.290196 0 0 0 0 0.670588 0 0 0 0 0.937255 0 0 0 1 0"/><feBlend in2="BackgroundImageFix" result="effect1_dropShadow"/><feBlend in="SourceGraphic" in2="effect1_dropShadow" result="shape"/></filter><filter id="filter4_d" x="304" y="822" width="32" height="32" filterUnits="userSpaceOnUse" color-interpolation-filters="sRGB"><feFlood flood-opacity="0" result="BackgroundImageFix"/><feColorMatrix in="SourceAlpha" values="0 0 0 0 0 0 0 0 0 0 0 0 0 0 0 0 0 0 127 0"/><feOffset/><feGaussianBlur stdDeviation="5"/><feColorMatrix values="0 0 0 0 0.290196 0 0 0 0 0.670588 0 0 0 0 0.937255 0 0 0 1 0"/><feBlend in2="BackgroundImageFix" result="effect1_dropShadow"/><feBlend in="SourceGraphic" in2="effect1_dropShadow" result="shape"/></filter><filter id="filter5_d" x="143" y="915" width="32" height="32" filterUnits="userSpaceOnUse" color-interpolation-filters="sRGB"><feFlood flood-opacity="0" result="BackgroundImageFix"/><feColorMatrix in="SourceAlpha" values="0 0 0 0 0 0 0 0 0 0 0 0 0 0 0 0 0 0 127 0"/><feOffset/><feGaussianBlur stdDeviation="5"/><feColorMatrix values="0 0 0 0 0.290196 0 0 0 0 0.670588 0 0 0 0 0.937255 0 0 0 1 0"/><feBlend in2="BackgroundImageFix" result="effect1_dropShadow"/><feBlend in="SourceGraphic" in2="effect1_dropShadow" result="shape"/></filter><filter id="filter6_d" x="89" y="637" width="32" height="32" filterUnits="userSpaceOnUse" color-interpolation-filters="sRGB"><feFlood flood-opacity="0" result="BackgroundImageFix"/><feColorMatrix in="SourceAlpha" values="0 0 0 0 0 0 0 0 0 0 0 0 0 0 0 0 0 0 127 0"/><feOffset/><feGaussianBlur stdDeviation="5"/><feColorMatrix values="0 0 0 0 0.290196 0 0 0 0 0.670588 0 0 0 0 0.937255 0 0 0 1 0"/><feBlend in2="BackgroundImageFix" result="effect1_dropShadow"/><feBlend in="SourceGraphic" in2="effect1_dropShadow" result="shape"/></filter><filter id="filter7_d" x="303" y="637" width="32" height="32" filterUnits="userSpaceOnUse" color-interpolation-filters="sRGB"><feFlood flood-opacity="0" result="BackgroundImageFix"/><feColorMatrix in="SourceAlpha" values="0 0 0 0 0 0 0 0 0 0 0 0 0 0 0 0 0 0 127 0"/><feOffset/><feGaussianBlur stdDeviation="5"/><feColorMatrix values="0 0 0 0 0.290196 0 0 0 0 0.670588 0 0 0 0 0.937255 0 0 0 1 0"/><feBlend in2="BackgroundImageFix" result="effect1_dropShadow"/><feBlend in="SourceGraphic" in2="effect1_dropShadow" result="shape"/></filter><clipPath id="clip0"><path fill="#fff" d="M0 0h1920v1038H0z"/></clipPath></defs></svg>