<svg width="310" height="307" fill="none" xmlns="http://www.w3.org/2000/svg"><path d="M301 156.5L225.75 26.163H75.25L0 156.5l75.25 130.337h150.5L301 156.5z" fill="url(#paint0_linear)"/><path stroke="url(#paint1_linear)" stroke-width="2" d="M75 294h150"/><path transform="scale(-1 1) rotate(60.181 -291.621 -188.298)" stroke="url(#paint2_linear)" stroke-width="2" d="M0-1h150"/><g clip-path="url(#clip0)"><path d="M146.81 139.451a3.265 3.265 0 01-1.588-.483l-10.283-5.923a.418.418 0 01-.155-.574.424.424 0 01.576-.154l10.282 5.922a1.506 1.506 0 001.784.212 1.497 1.497 0 00.71-1.645v-2.47a2.301 2.301 0 011.122-2.387 2.32 2.32 0 012.633.225l2.144 1.235a.418.418 0 01.155.574.422.422 0 01-.575.155l-2.144-1.235a1.506 1.506 0 00-1.784-.212 1.497 1.497 0 00-.71 1.645v2.47a2.579 2.579 0 01-1.127 2.376 2.019 2.019 0 01-1.04.269z" fill="#EFE721"/><path d="M142.816 141.747a3.255 3.255 0 01-1.588-.483l-10.283-5.915a.418.418 0 01-.155-.574.424.424 0 01.576-.154l10.282 5.915a1.504 1.504 0 002.413-.494c.127-.296.156-.626.081-.94v-2.47a2.301 2.301 0 011.122-2.387 2.32 2.32 0 012.633.225l2.144 1.236a.418.418 0 01.155.574.424.424 0 01-.576.154l-2.143-1.235a1.501 1.501 0 00-2.413.493 1.494 1.494 0 00-.081.94v2.47a2.579 2.579 0 01-1.127 2.376 2.019 2.019 0 01-1.04.269z" fill="#EFE721"/><path d="M138.814 144.043a3.255 3.255 0 01-1.588-.483l-10.299-5.907a.418.418 0 01-.155-.574.424.424 0 01.576-.154l10.283 5.923a1.502 1.502 0 002.493-1.434v-2.47a2.297 2.297 0 011.122-2.387 2.32 2.32 0 012.634.225l2.143 1.236a.418.418 0 01.155.574.424.424 0 01-.575.154l-2.144-1.235a1.504 1.504 0 00-2.412.493 1.494 1.494 0 00-.082.94v2.47a2.575 2.575 0 01-1.127 2.376 2.013 2.013 0 01-1.024.253z" fill="#EFE721"/><path d="M134.812 146.363a3.245 3.245 0 01-1.588-.483l-10.283-5.915a.414.414 0 01-.207-.418.43.43 0 01.052-.156.441.441 0 01.256-.196.431.431 0 01.32.042l10.283 5.915a1.502 1.502 0 002.493-1.433v-2.503a2.298 2.298 0 011.122-2.386 2.313 2.313 0 012.634.225l2.143 1.235a.428.428 0 01.197.255.414.414 0 01-.15.442.412.412 0 01-.467.031l-2.144-1.235a1.504 1.504 0 00-2.412.493 1.496 1.496 0 00-.082.94v2.471a2.571 2.571 0 01-1.127 2.375 2.022 2.022 0 01-1.04.301z" fill="#EFE721"/><path d="M130.818 148.628a3.272 3.272 0 01-1.588-.483l-10.283-5.923a.412.412 0 01-.196-.255.412.412 0 01.042-.319.414.414 0 01.419-.207.43.43 0 01.156.052l10.283 5.923a1.505 1.505 0 002.412-.493c.128-.296.156-.626.081-.94v-2.47a2.3 2.3 0 011.122-2.387 2.318 2.318 0 012.634.225l2.144 1.235a.428.428 0 01.196.255.413.413 0 01-.041.319.431.431 0 01-.256.196.413.413 0 01-.32-.041l-2.144-1.236a1.505 1.505 0 00-2.412.494 1.487 1.487 0 00-.081.94v2.47c.042.46-.04.924-.238 1.342a2.585 2.585 0 01-.89 1.033 2.027 2.027 0 01-1.04.27z" fill="#EFE721"/><path d="M126.816 150.924a3.261 3.261 0 01-1.588-.483l-10.283-5.923a.42.42 0 11.421-.728l10.283 5.923a1.505 1.505 0 002.412-.494c.128-.296.157-.626.081-.94v-2.47a2.304 2.304 0 012.475-2.687c.47.04.918.224 1.281.525l2.144 1.236a.414.414 0 01.207.418.43.43 0 01-.052.156.441.441 0 01-.256.196.432.432 0 01-.32-.042l-2.144-1.235a1.502 1.502 0 00-2.493 1.433v2.47a2.585 2.585 0 01-1.128 2.376 2.014 2.014 0 01-1.04.269z" fill="#EFE721"/><path d="M122.822 153.22a3.261 3.261 0 01-1.588-.483l-10.282-5.923a.418.418 0 01-.155-.574.424.424 0 01.575-.154l10.243 5.923a1.504 1.504 0 002.413-.493c.127-.297.156-.627.081-.941v-2.47a2.301 2.301 0 011.122-2.387 2.32 2.32 0 012.633.225l2.144 1.236a.418.418 0 01.155.574.424.424 0 01-.576.154l-2.143-1.235a1.504 1.504 0 00-2.413.493 1.494 1.494 0 00-.081.94v2.47a2.579 2.579 0 01-1.127 2.376 2.02 2.02 0 01-1.001.269z" fill="#EFE721"/><path d="M118.82 155.508a3.25 3.25 0 01-1.588-.483l-10.282-5.922a.418.418 0 01.101-.77.422.422 0 01.319.041l10.275 5.907a1.504 1.504 0 002.412-.493c.128-.296.157-.626.081-.94v-2.47a2.307 2.307 0 011.122-2.387 2.318 2.318 0 012.634.225l2.144 1.235a.418.418 0 01-.101.77.425.425 0 01-.32-.041l-2.144-1.236a1.502 1.502 0 00-2.493 1.434v2.47a2.577 2.577 0 01-1.127 2.375 2.018 2.018 0 01-1.033.285z" fill="#EFE721"/><path d="M114.818 157.805a3.272 3.272 0 01-1.588-.483l-10.282-5.923a.42.42 0 11.421-.728l10.306 5.922c.235.223.535.363.856.401a1.498 1.498 0 001.637-1.834v-2.462a2.307 2.307 0 011.122-2.387 2.318 2.318 0 012.634.225l2.144 1.235a.422.422 0 01-.101.77.425.425 0 01-.32-.041l-2.144-1.236a1.507 1.507 0 00-1.828-.27 1.494 1.494 0 00-.705 1.704v2.47a2.583 2.583 0 01-1.127 2.375 2.02 2.02 0 01-1.025.262z" fill="#EFE721"/><path d="M110.824 160.101a3.261 3.261 0 01-1.588-.483l-10.282-5.923a.418.418 0 01-.155-.574.424.424 0 01.575-.154l10.283 5.922a1.505 1.505 0 001.772.191 1.496 1.496 0 00.705-1.632v-2.47a2.304 2.304 0 012.475-2.687c.471.04.918.224 1.281.525l2.144 1.235a.422.422 0 01.155.575.424.424 0 01-.576.154l-2.144-1.235a1.5 1.5 0 00-2.493 1.433v2.47a2.575 2.575 0 01-1.127 2.376 2.03 2.03 0 01-1.025.277z" fill="#EFE721"/><path d="M106.822 162.389a3.25 3.25 0 01-1.588-.483l-10.298-5.914a.423.423 0 01-.155-.574.421.421 0 01.576-.155l10.282 5.915a1.502 1.502 0 002.478-1.433v-2.471a2.29 2.29 0 01.185-1.369 2.305 2.305 0 012.289-1.317c.471.04.918.223 1.281.525l2.144 1.235a.42.42 0 11-.421.728l-2.128-1.211a1.502 1.502 0 00-2.493 1.433v2.47a2.579 2.579 0 01-1.127 2.376 2.022 2.022 0 01-1.025.245z" fill="#EFE721"/><path d="M102.829 164.685a3.255 3.255 0 01-1.588-.483l-10.283-5.922a.424.424 0 01-.155-.574.425.425 0 01.256-.197.429.429 0 01.32.042l10.282 5.923a1.502 1.502 0 002.486-1.433v-2.471a2.301 2.301 0 011.144-2.333 2.32 2.32 0 012.596.211l2.143 1.235a.422.422 0 01.155.575.42.42 0 01-.575.154l-2.144-1.235a1.502 1.502 0 00-2.434.447 1.487 1.487 0 00-.091.946v2.471a2.583 2.583 0 01-1.128 2.375 2 2 0 01-.984.269z" fill="#EFE721"/><path d="M98.827 166.95a3.248 3.248 0 01-1.588-.483l-10.299-5.851a.423.423 0 01-.155-.574.421.421 0 01.576-.155l10.283 5.915a1.503 1.503 0 002.412-.493c.128-.297.156-.626.081-.94v-2.471a2.298 2.298 0 011.122-2.386 2.313 2.313 0 012.634.225l2.143 1.235a.42.42 0 11-.42.728l-2.144-1.235a1.504 1.504 0 00-2.404.47 1.493 1.493 0 00-.097.932v2.47c.042.46-.04.924-.238 1.342a2.586 2.586 0 01-.89 1.033 2.02 2.02 0 01-1.016.238z" fill="#EFE721"/><path d="M94.825 169.27a3.27 3.27 0 01-1.588-.483l-10.283-5.923a.418.418 0 01-.155-.574.424.424 0 01.576-.154l10.283 5.922a1.498 1.498 0 001.783.212 1.495 1.495 0 00.71-1.645v-2.47a2.297 2.297 0 011.122-2.387 2.322 2.322 0 012.634.225l2.143 1.236a.402.402 0 01.124.108.407.407 0 01.031.466.422.422 0 01-.575.154l-2.144-1.235A1.5 1.5 0 0097 164.155v2.47a2.576 2.576 0 01-1.127 2.376c-.318.183-.68.276-1.048.269z" fill="#EFE721"/><path d="M90.83 171.566a3.248 3.248 0 01-1.587-.483l-10.283-5.915a.41.41 0 01-.197-.255.42.42 0 01.462-.526.412.412 0 01.156.053l10.282 5.915a1.503 1.503 0 002.413-.494c.128-.296.156-.626.08-.94v-2.47a2.298 2.298 0 011.123-2.387 2.322 2.322 0 012.633.225l2.144 1.236a.41.41 0 01.197.255.42.42 0 01-.462.526.412.412 0 01-.156-.053l-2.144-1.235a1.503 1.503 0 00-2.412.493 1.492 1.492 0 00-.08.94v2.47a2.576 2.576 0 01-1.128 2.376 2.018 2.018 0 01-1.04.269z" fill="#EFE721"/><path d="M86.829 173.862a3.249 3.249 0 01-1.588-.483l-10.283-5.922a.419.419 0 01.1-.77.425.425 0 01.32.041l10.268 5.923a1.504 1.504 0 002.412-.493c.128-.297.156-.626.08-.94v-2.471a2.298 2.298 0 011.123-2.386 2.31 2.31 0 012.634.225l2.144 1.235a.42.42 0 11-.421.728l-2.176-1.243a1.503 1.503 0 00-2.412.494 1.492 1.492 0 00-.081.94v2.47a2.573 2.573 0 01-1.128 2.375 2.015 2.015 0 01-.992.277z" fill="#EFE721"/><path d="M82.835 176.159a3.259 3.259 0 01-1.588-.483l-10.283-5.915a.419.419 0 01.1-.77.425.425 0 01.321.041l10.283 5.915a1.804 1.804 0 001.786.222 1.804 1.804 0 00.707-1.655v-2.47a2.3 2.3 0 011.122-2.387 2.314 2.314 0 012.634.225l2.144 1.235a.425.425 0 01.207.419.418.418 0 01-.308.351.413.413 0 01-.32-.041l-2.168-1.243a1.498 1.498 0 00-1.783-.212 1.495 1.495 0 00-.71 1.645v2.47a2.577 2.577 0 01-1.128 2.375 2.018 2.018 0 01-1.016.278z" fill="#EFE721"/><path d="M78.833 178.447a3.27 3.27 0 01-1.588-.483l-10.283-5.923a.41.41 0 01-.196-.255.42.42 0 01.617-.473l10.267 5.93a1.806 1.806 0 001.786.222 1.798 1.798 0 00.707-1.655v-2.47a2.297 2.297 0 011.122-2.387 2.315 2.315 0 012.634.225l2.144 1.235a.423.423 0 01.154.574.425.425 0 01-.576.155l-2.12-1.243a1.806 1.806 0 00-1.786-.222 1.797 1.797 0 00-.707 1.655v2.47a2.575 2.575 0 01-1.127 2.376c-.318.183-.68.276-1.048.269z" fill="#EFE721"/><path d="M74.831 180.743a3.26 3.26 0 01-1.588-.483l-10.283-5.923a.41.41 0 01-.196-.255.416.416 0 01.15-.442.429.429 0 01.311-.084.43.43 0 01.156.053l10.283 5.923a1.804 1.804 0 001.786.221 1.791 1.791 0 00.707-1.654v-2.439a2.296 2.296 0 011.122-2.387 2.322 2.322 0 012.634.225l2.144 1.235a.419.419 0 01-.1.771.43.43 0 01-.321-.042l-2.144-1.235a1.806 1.806 0 00-1.787-.222A1.798 1.798 0 0077 175.66v2.47a2.576 2.576 0 01-1.128 2.376 2.013 2.013 0 01-1.04.237z" fill="#EFE721"/><path d="M70.798 183.039a3.26 3.26 0 01-1.588-.483l-10.283-5.922a.422.422 0 01-.155-.575.424.424 0 01.576-.154l10.282 5.923a1.805 1.805 0 001.787.221 1.792 1.792 0 00.73-1.639v-2.47a2.572 2.572 0 011.128-2.375 2.588 2.588 0 012.628.213l2.144 1.236a.417.417 0 01.155.574.424.424 0 01-.576.154l-2.152-1.291a1.814 1.814 0 00-1.786-.221 1.791 1.791 0 00-.707 1.655v2.525a2.576 2.576 0 01-1.127 2.376 2.017 2.017 0 01-1.056.253zm92.4-43.398a2.028 2.028 0 01-1.024-.261 2.586 2.586 0 01-1.127-2.376v-2.518a1.495 1.495 0 00-1.637-1.834 1.504 1.504 0 00-.857.401l-2.143 1.235a.413.413 0 01-.32.042.41.41 0 01-.256-.196.413.413 0 01-.042-.319.414.414 0 01.197-.255l2.144-1.235a2.316 2.316 0 012.633-.225c.41.235.737.59.937 1.017.201.427.266.905.185 1.369v2.471a1.495 1.495 0 001.637 1.834c.322-.038.622-.179.857-.401l10.282-5.923a.43.43 0 01.468.031.439.439 0 01.161.279.432.432 0 01-.084.311.443.443 0 01-.124.108l-10.283 5.922a3.261 3.261 0 01-1.604.523z" fill="#EFE721"/><path d="M167.192 141.937a2.02 2.02 0 01-1.024-.269 2.585 2.585 0 01-1.128-2.376v-2.47a1.492 1.492 0 00-.71-1.645 1.498 1.498 0 00-.927-.189 1.498 1.498 0 00-.856.401l-2.144 1.235a.421.421 0 01-.421-.729l2.144-1.235a2.318 2.318 0 012.634-.225 2.297 2.297 0 011.122 2.387v2.47a1.494 1.494 0 00.71 1.645 1.507 1.507 0 001.783-.212l10.283-5.922a.413.413 0 01.32-.042.414.414 0 01.147.073.415.415 0 01.077.589.398.398 0 01-.123.108l-10.283 5.915a3.254 3.254 0 01-1.604.491z" fill="#EFE721"/><path d="M171.194 144.225a2.016 2.016 0 01-1.024-.261 2.583 2.583 0 01-1.128-2.375v-2.471a1.501 1.501 0 00-2.493-1.433l-2.144 1.235a.413.413 0 01-.32.042.414.414 0 01-.147-.073.415.415 0 01-.077-.589.398.398 0 01.123-.108l2.144-1.235a2.31 2.31 0 012.634-.225 2.305 2.305 0 011.122 2.386v2.494a1.494 1.494 0 00.71 1.645 1.506 1.506 0 001.783-.211l10.283-5.923a.421.421 0 01.421.728l-10.283 5.923a3.256 3.256 0 01-1.604.451z" fill="#EFE721"/><path d="M175.188 146.521a2.008 2.008 0 01-1.024-.261 2.573 2.573 0 01-1.127-2.375v-2.471a1.496 1.496 0 00-.711-1.644 1.497 1.497 0 00-1.783.211l-2.152 1.235a.408.408 0 01-.319.042.41.41 0 01-.256-.196.414.414 0 01.031-.466.428.428 0 01.124-.108l2.143-1.235a2.315 2.315 0 013.561.797c.2.425.266.901.187 1.364v2.471a1.495 1.495 0 001.637 1.834c.322-.038.622-.179.857-.401l10.282-5.923a.43.43 0 01.468.031c.043.034.08.076.108.124.027.048.045.1.053.155a.432.432 0 01-.084.311.443.443 0 01-.124.108l-10.283 5.914a3.245 3.245 0 01-1.588.483z" fill="#EFE721"/><path d="M179.19 148.818a1.997 1.997 0 01-1.024-.262 2.593 2.593 0 01-.89-1.033 2.587 2.587 0 01-.238-1.342v-2.47a1.492 1.492 0 00-.71-1.645 1.506 1.506 0 00-1.783.211l-2.144 1.236a.425.425 0 01-.575-.155.418.418 0 01.154-.574l2.144-1.235a2.31 2.31 0 012.634-.225 2.3 2.3 0 011.122 2.387v2.47a1.494 1.494 0 00.71 1.645 1.507 1.507 0 001.783-.212l10.323-5.923a.43.43 0 01.32-.041.414.414 0 01.308.351.431.431 0 01-.084.311.428.428 0 01-.124.108l-10.282 5.923a3.277 3.277 0 01-1.644.475z" fill="#EFE721"/><path d="M183.184 151.114a2.026 2.026 0 01-1.024-.261 2.581 2.581 0 01-1.128-2.376v-2.47a1.494 1.494 0 00-.71-1.645 1.502 1.502 0 00-1.783.212l-2.144 1.235a.421.421 0 01-.421-.728l2.144-1.236a2.315 2.315 0 013.571.793c.2.427.265.904.185 1.369v2.47a1.492 1.492 0 00.71 1.645 1.506 1.506 0 001.783-.211l10.299-5.923a.414.414 0 01.32-.042.431.431 0 01.255.196.413.413 0 01.042.319.414.414 0 01-.197.255l-10.282 5.915a3.259 3.259 0 01-1.62.483z" fill="#EFE721"/><path d="M187.186 153.402c-.36.003-.713-.09-1.025-.269a2.579 2.579 0 01-1.127-2.375v-2.471a1.495 1.495 0 00-1.637-1.834 1.502 1.502 0 00-.856.401l-2.168 1.235a.413.413 0 01-.32.042.414.414 0 01-.147-.073.415.415 0 01-.15-.442.414.414 0 01.196-.255l2.144-1.235a2.319 2.319 0 012.634-.225 2.305 2.305 0 011.122 2.386v2.471a1.488 1.488 0 00.71 1.644 1.499 1.499 0 001.783-.211l10.291-5.915a.453.453 0 01.155-.053.431.431 0 01.42.207.413.413 0 01.042.319.431.431 0 01-.197.256l-10.282 5.922a3.259 3.259 0 01-1.588.475z" fill="#EFE721"/><path d="M191.188 155.699a2.02 2.02 0 01-1.025-.262 2.579 2.579 0 01-1.127-2.375v-2.471a1.495 1.495 0 00-1.637-1.834 1.502 1.502 0 00-.856.401l-2.144 1.235a.413.413 0 01-.32.042.41.41 0 01-.256-.196.433.433 0 01-.053-.155.431.431 0 01.084-.311.428.428 0 01.124-.108l2.144-1.235a2.31 2.31 0 013.756 2.161v2.471a1.497 1.497 0 001.636 1.834c.322-.038.622-.179.857-.401l10.282-5.915a.43.43 0 01.468.031.414.414 0 01.161.279.432.432 0 01-.084.311.443.443 0 01-.124.108l-10.282 5.914a3.27 3.27 0 01-1.604.476z" fill="#EFE721"/><path d="M195.182 157.995a2.03 2.03 0 01-1.025-.261 2.586 2.586 0 01-1.127-2.376v-2.47a1.494 1.494 0 00-.71-1.645 1.503 1.503 0 00-1.783.212l-2.144 1.243a.425.425 0 01-.576-.155.418.418 0 01.155-.574l2.144-1.235a2.313 2.313 0 013.57.792c.201.427.266.905.185 1.37v2.47a1.494 1.494 0 00.71 1.645 1.501 1.501 0 001.784-.212l10.282-5.922a.413.413 0 01.32-.042.41.41 0 01.256.196.414.414 0 01-.031.466.428.428 0 01-.124.108l-10.282 5.923a3.267 3.267 0 01-1.604.467z" fill="#EFE721"/><path d="M199.184 160.283c-.36.003-.713-.09-1.024-.269a2.574 2.574 0 01-1.128-2.376v-2.47a1.494 1.494 0 00-.71-1.645 1.507 1.507 0 00-1.783.212l-2.152 1.235a.431.431 0 01-.32.042.422.422 0 01-.225-.662.414.414 0 01.124-.108l2.152-1.236a2.32 2.32 0 012.626-.216 2.302 2.302 0 011.122 2.378v2.47a1.492 1.492 0 00.71 1.645 1.506 1.506 0 001.783-.211l10.283-5.923a.433.433 0 01.32-.042.431.431 0 01.255.196.413.413 0 01.042.319.414.414 0 01-.197.255l-10.274 5.947a3.254 3.254 0 01-1.604.459z" fill="#EFE721"/><path d="M203.185 162.579a2.028 2.028 0 01-1.024-.261 2.583 2.583 0 01-1.128-2.375v-2.495a1.488 1.488 0 00-.71-1.644 1.497 1.497 0 00-1.783.211l-2.144 1.235a.421.421 0 11-.42-.728l2.143-1.235a2.313 2.313 0 013.571.792c.201.427.265.905.185 1.369v2.471a1.495 1.495 0 001.637 1.834c.321-.038.622-.179.856-.401l10.283-5.923a.425.425 0 01.576.155.422.422 0 01-.155.574l-10.283 5.922a3.25 3.25 0 01-1.604.499z" fill="#EFE721"/><path d="M207.18 164.876a2.02 2.02 0 01-1.025-.262 2.579 2.579 0 01-1.127-2.375v-2.471a1.495 1.495 0 00-1.637-1.834 1.504 1.504 0 00-.857.401l-2.143 1.235a.413.413 0 01-.32.042.425.425 0 01-.256-.196.414.414 0 01.031-.466.428.428 0 01.124-.108l2.144-1.235c.363-.302.81-.485 1.281-.525a2.305 2.305 0 012.289 1.317c.201.427.266.905.185 1.369v2.431a1.494 1.494 0 00.71 1.645 1.509 1.509 0 001.784-.212l10.282-5.922a.421.421 0 01.421.728l-10.283 5.923a3.268 3.268 0 01-1.603.515z" fill="#EFE721"/><path d="M211.181 167.164a2.011 2.011 0 01-1.024-.27 2.576 2.576 0 01-1.127-2.375v-2.47a1.496 1.496 0 00-.711-1.595 1.507 1.507 0 00-1.743.162l-2.144 1.235a.43.43 0 01-.467-.031.414.414 0 01-.161-.279.413.413 0 01.084-.311.426.426 0 01.123-.108l2.144-1.235a2.31 2.31 0 012.634-.225c.409.236.736.591.937 1.018.201.426.265.904.185 1.369v2.47a1.494 1.494 0 00.71 1.645 1.5 1.5 0 001.783-.212l10.283-5.922a.421.421 0 01.421.728l-10.283 5.923a3.27 3.27 0 01-1.644.483z" fill="#EFE721"/><path d="M215.175 169.46a2.02 2.02 0 01-1.024-.269 2.585 2.585 0 01-1.128-2.376v-2.47c.071-.311.04-.636-.088-.928a1.502 1.502 0 00-2.389-.505l-2.144 1.235a.421.421 0 01-.421-.729l2.144-1.235a2.318 2.318 0 012.634-.225c.409.236.736.591.937 1.018.201.426.265.904.185 1.369v2.47a1.494 1.494 0 00.71 1.645 1.507 1.507 0 001.783-.212l10.283-5.922a.413.413 0 01.32-.042.414.414 0 01.147.073.415.415 0 01.077.589.398.398 0 01-.123.108l-10.283 5.923c-.488.3-1.047.467-1.62.483z" fill="#EFE721"/><path d="M219.177 171.756a2.028 2.028 0 01-1.024-.261 2.585 2.585 0 01-1.128-2.376v-2.47a1.497 1.497 0 00-1.636-1.834 1.504 1.504 0 00-.857.401l-2.144 1.235a.413.413 0 01-.32.042.431.431 0 01-.255-.196.413.413 0 01-.042-.319.398.398 0 01.073-.147.398.398 0 01.123-.108l2.144-1.236a2.32 2.32 0 012.634-.225 2.298 2.298 0 011.122 2.387v2.47a1.494 1.494 0 00.71 1.645 1.507 1.507 0 001.783-.211l10.283-5.923a.421.421 0 01.421.728l-10.283 5.923a3.26 3.26 0 01-1.604.475z" fill="#EFE721"/><path d="M223.179 174.076a2.018 2.018 0 01-1.024-.261 2.583 2.583 0 01-1.128-2.375v-2.51a1.492 1.492 0 00-.71-1.645 1.504 1.504 0 00-1.783.211l-2.144 1.236a.425.425 0 01-.575-.155.418.418 0 01.155-.574l2.143-1.235a2.313 2.313 0 013.571.792 2.3 2.3 0 01.185 1.37v2.47a1.494 1.494 0 00.71 1.645 1.501 1.501 0 001.783-.212l10.283-5.883a.421.421 0 01.421.729l-10.283 5.922a3.26 3.26 0 01-1.604.475z" fill="#EFE721"/><path d="M227.173 176.341a2.019 2.019 0 01-1.024-.262 2.582 2.582 0 01-1.128-2.375v-2.478a1.492 1.492 0 00-.71-1.645 1.506 1.506 0 00-1.783.211l-2.152 1.236a.43.43 0 01-.32.041.414.414 0 01-.308-.351.413.413 0 01.084-.311.424.424 0 01.123-.108l2.152-1.235a2.316 2.316 0 013.561.798c.2.425.265.901.187 1.364v2.47a1.494 1.494 0 00.71 1.645 1.501 1.501 0 001.783-.212l10.283-5.922a.421.421 0 01.421.728l-10.243 5.923a3.263 3.263 0 01-1.636.483z" fill="#EFE721"/><path d="M231.191 178.637a2.016 2.016 0 01-1.024-.261 2.581 2.581 0 01-1.128-2.376v-2.478a1.492 1.492 0 00-.71-1.645 1.498 1.498 0 00-.927-.189 1.498 1.498 0 00-.856.401l-2.144 1.235a.421.421 0 01-.421-.729l2.144-1.235a2.318 2.318 0 012.634-.225c.409.236.736.591.937 1.018.201.426.265.904.185 1.369v2.47a1.494 1.494 0 00.71 1.645 1.506 1.506 0 001.783-.212l10.283-5.922a.413.413 0 01.32-.042.414.414 0 01.255.196.413.413 0 01.042.319.414.414 0 01-.196.255l-10.299 5.923a3.272 3.272 0 01-1.588.483z" fill="#EFE721"/><path d="M235.161 180.933a2.026 2.026 0 01-1.024-.261 2.581 2.581 0 01-1.128-2.376v-2.47a1.494 1.494 0 00-.71-1.645 1.505 1.505 0 00-1.783.212l-2.144 1.235a.421.421 0 01-.421-.728l2.144-1.236a2.322 2.322 0 012.634-.225 2.305 2.305 0 011.122 2.387v2.47a1.492 1.492 0 00.71 1.645 1.506 1.506 0 001.783-.211l10.283-5.923a.42.42 0 11.42.728l-10.298 5.876a3.26 3.26 0 01-1.588.522z" fill="#EFE721"/><path d="M239.131 183.221a2.008 2.008 0 01-1.024-.261 2.583 2.583 0 01-1.128-2.375v-2.471a1.488 1.488 0 00-.71-1.644 1.499 1.499 0 00-1.783.211l-2.144 1.235a.413.413 0 01-.32.042.414.414 0 01-.255-.196.414.414 0 01.031-.466.412.412 0 01.123-.108l2.144-1.235a2.313 2.313 0 013.571.792c.201.427.265.905.185 1.369v2.471a1.495 1.495 0 001.637 1.834c.321-.038.622-.179.856-.401l10.283-5.923a.43.43 0 01.467.031.424.424 0 01.078.59.443.443 0 01-.124.108l-10.283 5.922a3.26 3.26 0 01-1.604.475z" fill="#EFE721"/><path d="M234.033 178.431v9.106l-78.997 45.481-78.998-45.481v-9.106h157.995z" fill="url(#paint3_linear)"/><path d="M155.036 223.912l-78.998-45.481 78.998-45.481 78.997 45.481-78.997 45.481z" fill="#BCBEFF"/><path d="M155.036 222.851l-78.077-44.95-.921.53 78.998 45.481 78.997-45.481-.921-.53-78.076 44.95z" fill="#fff"/><path d="M155.036 213.429l-60.76-34.99 60.76-34.982 60.759 34.99-60.759 34.982z" fill="#0F054C"/><path opacity=".5" d="M155.036 213.429l-60.767-34.99 60.767-34.982 60.767 34.99-60.767 34.982z" fill="url(#paint4_linear)"/><path opacity=".5" d="M155.036 134.636l60.766 34.99v8.821l-60.766-34.99v-8.821z" fill="url(#paint5_linear)"/><path opacity=".5" d="M155.036 143.457l-60.767 34.982v-8.821l60.767-34.982v8.821z" fill="url(#paint6_linear)"/><path opacity=".5" d="M155.036 204.608l-60.767-34.99 60.767-34.982 60.767 34.99-60.767 34.982z" fill="#EFE721"/><path opacity=".5" d="M155.036 183.602l-24.281-13.984 24.281-13.975 24.281 13.983-24.281 13.976z" fill="#EFE721"/><path opacity=".5" d="M155.036 156.926l23.162 13.342 1.119-.642-24.281-13.983-24.281 13.975 1.119.65 23.162-13.342zm0 47.682v8.821l60.766-34.982v-8.821l-60.766 34.982z" fill="#EFE721"/><path opacity=".5" d="M94.269 169.618v8.821l60.767 34.99v-8.821l-60.767-34.99z" fill="#EFE721"/><path opacity=".8" d="M155.036 203.642l-59.925-34.499-.842.475 60.767 34.99 60.767-34.982-.842-.483-59.925 34.499z" fill="#fff"/><path d="M174.871 244a.416.416 0 01-.207-.055l-10.283-5.915a7.262 7.262 0 01-3.334-5.756v-2.471a6.423 6.423 0 00-2.907-5.052l-2.143-1.235a.402.402 0 01-.124-.108.408.408 0 01-.031-.466.414.414 0 01.42-.207.414.414 0 01.155.053l2.144 1.235a7.237 7.237 0 013.335 5.756v2.471a6.422 6.422 0 002.914 5.028l10.283 5.914a.424.424 0 01.213.478.42.42 0 01-.42.314l-.015.016z" fill="#EFE721"/><path d="M178.873 241.704a.428.428 0 01-.207-.056l-10.282-5.922a7.25 7.25 0 01-3.335-5.757v-2.47a6.436 6.436 0 00-2.914-5.028l-2.144-1.235a.414.414 0 01-.208-.419.414.414 0 01.473-.362.418.418 0 01.155.052l2.144 1.236a7.237 7.237 0 013.335 5.756v2.47a6.426 6.426 0 002.914 5.028l10.283 5.923a.425.425 0 01.192.203.419.419 0 01-.406.589v-.008z" fill="#EFE721"/><path d="M182.866 239.408a.427.427 0 01-.206-.056l-10.283-5.891a7.243 7.243 0 01-3.335-5.756v-2.471a6.416 6.416 0 00-.854-2.864 6.447 6.447 0 00-2.06-2.172l-2.144-1.235a.398.398 0 01-.123-.108.408.408 0 01-.084-.31.415.415 0 01.161-.279.414.414 0 01.311-.084.413.413 0 01.156.053l2.144 1.235a7.256 7.256 0 013.335 5.756v2.471a6.422 6.422 0 002.914 5.028l10.283 5.922a.416.416 0 01.212.483.426.426 0 01-.158.23.424.424 0 01-.269.079v-.031z" fill="#EFE721"/><path d="M186.868 237.103a.415.415 0 01-.206-.055l-10.259-5.915a7.237 7.237 0 01-3.335-5.756v-2.471a6.414 6.414 0 00-.855-2.86 6.442 6.442 0 00-2.059-2.168l-2.144-1.235a.423.423 0 01-.155-.574.424.424 0 01.576-.154l2.152 1.235a7.253 7.253 0 013.335 5.756v2.471a6.422 6.422 0 002.914 5.028l10.282 5.922a.418.418 0 01-.214.792l-.032-.016z" fill="#EFE721"/><path d="M190.862 234.807a.415.415 0 01-.206-.055l-10.283-5.915a7.253 7.253 0 01-3.335-5.756v-2.471a6.423 6.423 0 00-2.914-5.036l-2.144-1.235a.42.42 0 11.421-.728l2.144 1.235a7.256 7.256 0 013.335 5.756v2.471a6.422 6.422 0 002.914 5.028l10.283 5.922a.416.416 0 01.191.204.416.416 0 01-.137.508.419.419 0 01-.269.08v-.008z" fill="#EFE721"/><path d="M194.864 232.511a.427.427 0 01-.206-.056l-10.315-5.922a7.271 7.271 0 01-2.367-2.475 7.232 7.232 0 01-.968-3.282v-2.47a6.422 6.422 0 00-2.914-5.028l-2.151-1.235a.444.444 0 01-.2-.273.443.443 0 01.66-.479l2.144 1.235a7.237 7.237 0 013.335 5.756v2.51a6.42 6.42 0 002.914 5.036l10.283 5.915a.424.424 0 01.213.478.42.42 0 01-.42.314l-.008-.024z" fill="#EFE721"/><path d="M198.866 230.215a.428.428 0 01-.207-.056l-10.282-5.922a7.259 7.259 0 01-2.369-2.475 7.23 7.23 0 01-.966-3.282v-2.438a6.414 6.414 0 00-2.914-5.028l-2.152-1.307a.418.418 0 01-.155-.574.424.424 0 01.576-.154l2.144 1.235a7.253 7.253 0 013.335 5.756v2.471a6.432 6.432 0 002.914 5.028l10.282 5.922a.418.418 0 01-.214.792l.008.032z" fill="#EFE721"/><path d="M202.86 227.919a.428.428 0 01-.207-.056l-10.282-5.923a7.247 7.247 0 01-3.335-5.756v-2.47a6.432 6.432 0 00-2.914-5.036l-2.144-1.235a.422.422 0 01-.155-.575.424.424 0 01.576-.154l2.144 1.235a7.271 7.271 0 012.367 2.475 7.236 7.236 0 01.968 3.282v2.47a6.422 6.422 0 002.914 5.028l10.282 5.923a.42.42 0 01.213.482.422.422 0 01-.427.31z" fill="#EFE721"/><path d="M206.862 225.614a.41.41 0 01-.206-.055l-10.283-5.915a7.256 7.256 0 01-3.335-5.756v-2.471a6.414 6.414 0 00-.855-2.86 6.451 6.451 0 00-2.059-2.168l-2.144-1.235a.418.418 0 01-.155-.574.424.424 0 01.576-.154l2.144 1.235a7.253 7.253 0 013.335 5.756v2.471a6.423 6.423 0 002.914 5.036l10.282 5.914a.42.42 0 01.213.478.423.423 0 01-.419.314l-.008-.016z" fill="#EFE721"/><path d="M210.856 223.318a.416.416 0 01-.207-.055l-10.282-5.923a7.246 7.246 0 01-3.335-5.756v-2.471a6.439 6.439 0 00-2.914-5.028l-2.144-1.235a.414.414 0 01-.197-.255.427.427 0 01.042-.319.41.41 0 01.256-.196.431.431 0 01.32.042l2.151 1.235a7.246 7.246 0 013.335 5.756v2.471a6.41 6.41 0 00.856 2.861 6.445 6.445 0 002.058 2.167l10.283 5.922a.423.423 0 01.213.482.415.415 0 01-.159.23.416.416 0 01-.268.08l-.008-.008z" fill="#EFE721"/><path d="M214.857 221.022a.426.426 0 01-.206-.055l-10.283-5.923a7.238 7.238 0 01-3.335-5.756v-2.471a6.428 6.428 0 00-2.914-5.036l-2.143-1.235a.42.42 0 11.42-.728l2.144 1.235a7.256 7.256 0 013.335 5.756v2.471a6.414 6.414 0 00.855 2.86 6.451 6.451 0 002.059 2.168l10.283 5.922a.423.423 0 01.213.482.419.419 0 01-.428.31z" fill="#EFE721"/><path d="M218.86 218.726a.428.428 0 01-.207-.056l-10.282-5.915a7.253 7.253 0 01-3.335-5.756v-2.47a6.426 6.426 0 00-2.914-5.028l-2.144-1.235a.41.41 0 01-.208-.419.413.413 0 01.161-.279.427.427 0 01.468-.031l2.143 1.235a7.25 7.25 0 013.335 5.757v2.47a6.42 6.42 0 002.914 5.036l10.283 5.915a.417.417 0 01.213.478.416.416 0 01-.419.313l-.008-.015z" fill="#EFE721"/><path d="M222.854 216.43a.428.428 0 01-.207-.056l-10.283-5.922a7.256 7.256 0 01-2.368-2.475 7.221 7.221 0 01-.966-3.282v-2.47a6.428 6.428 0 00-2.915-5.028l-2.151-1.235a.418.418 0 01-.155-.574.422.422 0 01.576-.155l2.143 1.235a7.25 7.25 0 013.335 5.757v2.47a6.436 6.436 0 002.914 5.028l10.283 5.923a.425.425 0 01.192.203.422.422 0 01-.406.589l.008-.008z" fill="#EFE721"/><path d="M226.856 214.125a.416.416 0 01-.207-.055l-10.282-5.946a7.25 7.25 0 01-3.335-5.757v-2.47a6.434 6.434 0 00-2.914-5.036l-2.144-1.235a.414.414 0 01-.208-.419.414.414 0 01.473-.362.43.43 0 01.156.052l2.143 1.235a7.265 7.265 0 012.368 2.475 7.235 7.235 0 01.967 3.282v2.47a6.436 6.436 0 002.914 5.028l10.283 5.923a.425.425 0 01.192.203.419.419 0 01-.406.589v.023z" fill="#EFE721"/><path d="M230.849 211.829a.415.415 0 01-.206-.055l-10.283-5.915a7.262 7.262 0 01-3.335-5.756v-2.471a6.422 6.422 0 00-2.914-5.028l-2.144-1.235a.412.412 0 01-.196-.255.412.412 0 01.042-.319.414.414 0 01.419-.207.413.413 0 01.156.053l2.144 1.235a7.234 7.234 0 013.335 5.756v2.471a6.432 6.432 0 002.914 5.035l10.283 5.915a.424.424 0 01.213.478.42.42 0 01-.42.314l-.008-.016z" fill="#EFE721"/><path d="M234.851 209.533a.427.427 0 01-.206-.056l-10.283-5.922a7.271 7.271 0 01-2.367-2.475 7.232 7.232 0 01-.968-3.282v-2.47a6.422 6.422 0 00-2.914-5.028l-2.143-1.235a.428.428 0 01-.197-.255.408.408 0 01.042-.319.414.414 0 01.42-.207.43.43 0 01.155.052l2.144 1.236a7.237 7.237 0 013.335 5.756v2.502a6.422 6.422 0 002.914 5.028l10.283 5.923a.425.425 0 01.192.203.422.422 0 01-.407.588v-.039z" fill="#EFE721"/><path d="M238.853 207.237a.427.427 0 01-.206-.056l-10.283-5.922a7.234 7.234 0 01-3.335-5.757v-2.47a6.415 6.415 0 00-2.914-5.036l-2.144-1.235a.443.443 0 01-.124-.108.429.429 0 01-.031-.466.431.431 0 01.256-.197.43.43 0 01.32.042l2.152 1.235a7.247 7.247 0 013.335 5.757v2.47a6.422 6.422 0 002.914 5.028l10.283 5.923a.423.423 0 01.212.482.422.422 0 01-.427.31h-.008z" fill="#EFE721"/><path d="M242.847 204.956a.415.415 0 01-.206-.055l-10.283-5.915a7.256 7.256 0 01-3.335-5.756v-2.526a6.422 6.422 0 00-2.914-5.028l-2.152-1.235a.422.422 0 01.101-.77.425.425 0 01.32.041l2.144 1.236a7.234 7.234 0 013.335 5.756v2.47a6.42 6.42 0 002.914 5.036l10.291 5.955a.421.421 0 01.213.477.423.423 0 01-.42.314h-.008z" fill="#EFE721"/><path d="M246.849 202.636a.413.413 0 01-.206-.055l-10.283-5.923a7.247 7.247 0 01-3.335-5.756v-2.471a6.414 6.414 0 00-2.914-5.027l-2.152-1.236a.414.414 0 01-.207-.418.43.43 0 01.052-.156.427.427 0 01.42-.207.413.413 0 01.156.053l2.144 1.235a7.237 7.237 0 013.335 5.756v2.471a6.422 6.422 0 002.914 5.028l10.298 5.93a.418.418 0 01-.214.792l-.008-.016z" fill="#EFE721"/><path d="M250.843 200.34a.413.413 0 01-.206-.055l-10.283-5.923a7.237 7.237 0 01-3.335-5.756v-2.471a6.416 6.416 0 00-.854-2.864 6.457 6.457 0 00-2.06-2.172l-2.144-1.235a.414.414 0 01-.207-.419.415.415 0 01.161-.278.431.431 0 01.467-.031l2.144 1.235a7.243 7.243 0 013.335 5.756v2.471a6.414 6.414 0 00.855 2.86 6.442 6.442 0 002.059 2.168l10.267 5.93a.416.416 0 01.212.482.419.419 0 01-.427.31l.016-.008zM134.923 244a.421.421 0 01-.207-.792l10.283-5.915a6.43 6.43 0 002.914-5.028v-2.47a7.234 7.234 0 013.335-5.756l2.144-1.236a.425.425 0 01.576.155.422.422 0 01-.155.574l-2.144 1.235a6.422 6.422 0 00-2.914 5.028v2.47a7.238 7.238 0 01-3.335 5.757l-10.307 5.923a.422.422 0 01-.19.055z" fill="#EFE721"/><path d="M130.921 241.704a.423.423 0 01-.419-.314.42.42 0 01.213-.478l10.282-5.923a6.42 6.42 0 002.914-5.028v-2.47a7.235 7.235 0 013.335-5.756l2.144-1.236a.425.425 0 01.576.155.418.418 0 01-.155.574l-2.144 1.235a6.422 6.422 0 00-2.914 5.028v2.47a7.238 7.238 0 01-3.335 5.757l-10.275 5.93a.42.42 0 01-.222.056z" fill="#EFE721"/><path d="M126.919 239.408a.424.424 0 01-.419-.314.416.416 0 01.213-.478l10.283-5.947a6.426 6.426 0 002.914-5.028v-2.47a7.244 7.244 0 013.334-5.756l2.144-1.236a.43.43 0 01.468.031.428.428 0 01.15.443.431.431 0 01-.197.255l-2.144 1.235a6.435 6.435 0 00-2.914 5.036v2.47a7.25 7.25 0 01-3.335 5.757l-10.282 5.922a.428.428 0 01-.215.08z" fill="#EFE721"/><path d="M122.925 237.103a.422.422 0 01-.265-.083.422.422 0 01.059-.708l10.283-5.923a6.436 6.436 0 002.914-5.028v-2.471a7.225 7.225 0 01.966-3.282 7.262 7.262 0 012.368-2.474l2.144-1.235a.413.413 0 01.32-.042.427.427 0 01.256.196.413.413 0 01.042.319.414.414 0 01-.197.255l-2.144 1.236a6.426 6.426 0 00-2.914 5.027v2.471a7.234 7.234 0 01-3.335 5.756l-10.282 5.923a.42.42 0 01-.215.063z" fill="#EFE721"/><path d="M118.923 234.807a.418.418 0 01-.419-.314.416.416 0 01.213-.478L129 228.093a6.445 6.445 0 002.058-2.167 6.41 6.41 0 00.856-2.861v-2.471a7.237 7.237 0 013.335-5.756l2.144-1.235a.418.418 0 01.575.154.419.419 0 01-.155.574l-2.144 1.235a6.439 6.439 0 00-2.914 5.028v2.471a7.225 7.225 0 01-.966 3.282 7.253 7.253 0 01-2.368 2.474l-10.283 5.923a.42.42 0 01-.215.063z" fill="#EFE721"/><path d="M114.929 232.511a.418.418 0 01-.419-.314.416.416 0 01.213-.478l10.283-5.915a6.432 6.432 0 002.914-5.035v-2.471a7.246 7.246 0 013.335-5.756l2.144-1.235a.418.418 0 01.575.154.419.419 0 01-.155.574l-2.144 1.235a6.423 6.423 0 00-2.914 5.028v2.494a7.225 7.225 0 01-.966 3.283 7.255 7.255 0 01-2.369 2.474l-10.282 5.922a.42.42 0 01-.215.04z" fill="#EFE721"/><path d="M110.928 230.215a.42.42 0 01-.207-.792l10.283-5.923a6.426 6.426 0 002.914-5.028v-2.43a7.238 7.238 0 013.335-5.757l2.144-1.235a.419.419 0 01.575.154.42.42 0 01-.155.574l-2.143 1.236a6.432 6.432 0 00-2.883 5.028v2.47a7.234 7.234 0 01-3.335 5.756l-10.322 5.891a.427.427 0 01-.206.056z" fill="#EFE721"/><path d="M106.933 227.919a.424.424 0 01-.419-.314.416.416 0 01.213-.478l10.283-5.923a6.436 6.436 0 002.914-5.028v-2.47a7.25 7.25 0 013.335-5.757l2.144-1.235a.418.418 0 01.575.154.42.42 0 01-.155.575l-2.143 1.235a6.434 6.434 0 00-2.915 5.036v2.47a7.244 7.244 0 01-3.334 5.756l-10.283 5.923a.434.434 0 01-.215.056z" fill="#EFE721"/><path d="M102.932 225.614a.42.42 0 01-.397-.59.424.424 0 01.19-.202l10.283-5.914a6.435 6.435 0 002.914-5.036v-2.471a7.237 7.237 0 013.335-5.756l2.144-1.235a.413.413 0 01.32-.042.431.431 0 01.255.196.413.413 0 01.042.319.398.398 0 01-.073.147.398.398 0 01-.123.108l-2.144 1.236a6.42 6.42 0 00-2.914 5.027v2.471a7.253 7.253 0 01-3.335 5.756l-10.291 5.915a.42.42 0 01-.206.071z" fill="#EFE721"/><path d="M98.93 223.318a.42.42 0 01-.207-.791l10.283-5.923a6.422 6.422 0 002.914-5.028v-2.471a7.233 7.233 0 013.343-5.732l2.144-1.235a.421.421 0 01.421.728l-2.144 1.235a6.442 6.442 0 00-2.059 2.168 6.414 6.414 0 00-.855 2.86v2.471a7.253 7.253 0 01-3.335 5.756l-10.29 5.907a.423.423 0 01-.215.055z" fill="#EFE721"/><path d="M94.936 221.022a.42.42 0 01-.207-.792l10.283-5.922a6.442 6.442 0 002.059-2.168 6.414 6.414 0 00.855-2.86v-2.471a7.234 7.234 0 013.335-5.756l2.144-1.235a.421.421 0 01.421.728l-2.152 1.243a6.435 6.435 0 00-2.914 5.036v2.47a7.238 7.238 0 01-3.335 5.757l-10.283 5.923a.423.423 0 01-.206.047z" fill="#EFE721"/><path d="M90.934 218.726a.42.42 0 01-.206-.792l10.242-5.907a6.428 6.428 0 002.915-5.036v-2.47a7.221 7.221 0 01.966-3.282 7.256 7.256 0 012.368-2.475l2.144-1.235a.425.425 0 01.576.155.418.418 0 01-.155.574l-2.144 1.235a6.436 6.436 0 00-2.914 5.028v2.47a7.25 7.25 0 01-3.335 5.757l-10.282 5.922a.432.432 0 01-.175.056z" fill="#EFE721"/><path d="M86.94 216.43a.419.419 0 01-.207-.792L97 209.707a6.438 6.438 0 002.06-2.167 6.44 6.44 0 00.855-2.861v-2.47a7.256 7.256 0 013.334-5.757l2.144-1.235a.425.425 0 01.576.155.418.418 0 01-.155.574l-2.144 1.235a6.422 6.422 0 00-2.914 5.028v2.47a7.229 7.229 0 01-.966 3.282 7.257 7.257 0 01-2.369 2.475l-10.282 5.922a.429.429 0 01-.199.072z" fill="#EFE721"/><path d="M82.938 214.125a.42.42 0 01-.206-.792l10.298-5.906a6.44 6.44 0 002.914-5.028v-2.471a7.233 7.233 0 013.335-5.756l2.144-1.235a.413.413 0 01.32-.042.406.406 0 01.147.073.415.415 0 01.151.442.414.414 0 01-.197.255L99.7 194.9a6.436 6.436 0 00-2.914 5.036v2.471a7.239 7.239 0 01-3.359 5.716l-10.282 5.923a.419.419 0 01-.207.079z" fill="#EFE721"/><path d="M78.936 211.829a.42.42 0 01-.206-.792l10.282-5.914a6.42 6.42 0 002.914-5.036v-2.471a7.231 7.231 0 013.335-5.756l2.144-1.235a.413.413 0 01.32-.042.411.411 0 01.148.073.408.408 0 01.16.278.42.42 0 01-.207.419l-2.144 1.235a6.44 6.44 0 00-2.914 5.028v2.471a7.233 7.233 0 01-3.335 5.756l-10.282 5.923a.417.417 0 01-.215.063z" fill="#EFE721"/><path d="M74.942 209.533a.42.42 0 01-.206-.792l10.282-5.923a6.433 6.433 0 002.906-4.988v-2.47a7.224 7.224 0 01.967-3.282 7.256 7.256 0 012.368-2.475l2.144-1.235a.42.42 0 11.421.729l-2.144 1.235a6.438 6.438 0 00-2.059 2.167 6.413 6.413 0 00-.855 2.861v2.47a7.23 7.23 0 01-.966 3.282 7.257 7.257 0 01-2.369 2.475l-10.282 5.922a.427.427 0 01-.207.024z" fill="#EFE721"/><path d="M70.94 207.237a.42.42 0 01-.206-.792l10.282-5.923a6.429 6.429 0 002.915-5.028v-2.47a7.245 7.245 0 013.335-5.756l2.143-1.236a.426.426 0 01.318-.052.418.418 0 01.315.504.42.42 0 01-.188.261l-2.144 1.235a6.436 6.436 0 00-2.914 5.036v2.47a7.233 7.233 0 01-3.335 5.757l-10.282 5.922a.421.421 0 01-.239.072z" fill="#EFE721"/><path d="M66.946 204.956a.42.42 0 01-.206-.791l10.283-5.915a6.436 6.436 0 002.914-5.036v-2.51a7.245 7.245 0 013.335-5.756l2.143-1.236a.425.425 0 01.576.155.419.419 0 01-.155.574l-2.144 1.235a6.437 6.437 0 00-2.93 5.028v2.47a7.233 7.233 0 01-3.334 5.757l-10.275 5.946a.419.419 0 01-.207.079z" fill="#EFE721"/><path d="M62.945 202.636a.42.42 0 01-.207-.791l10.283-5.923a6.42 6.42 0 002.914-5.028v-2.471a7.231 7.231 0 013.335-5.756l2.144-1.235a.42.42 0 01.42.728l-2.143 1.236a6.429 6.429 0 00-2.915 5.027v2.471a7.245 7.245 0 01-3.335 5.756l-10.29 5.931a.416.416 0 01-.206.055z" fill="#EFE721"/><path d="M58.943 200.34a.42.42 0 01-.207-.792l10.283-5.922a6.44 6.44 0 002.914-5.028v-2.471a7.233 7.233 0 013.335-5.756l2.144-1.235a.42.42 0 01.42.728l-2.143 1.235a6.436 6.436 0 00-2.914 5.036v2.471a7.231 7.231 0 01-3.335 5.756l-10.283 5.923a.424.424 0 01-.214.055z" fill="#EFE721"/><path opacity=".3" d="M229.317 52.78c.707 3.999 3.684 14.047 15.96 21.007 17.468 8.044 29.569 18.623 33.627 30.429.309.864.661 1.712 1.056 2.541.437-.712.437-.712.437-2.446V84.516c0-11.64-.659-14.205-1.493-17.42-4.058-11.806-16.159-22.384-33.627-30.429-13.935-4.49-17.31 8.544-15.96 16.185v-.072zM101.209 28.995c18.5-5.36 40.376-8.362 63.728-8.172a175 175 0 019.155.238c20.51 1.868 27.791 23.46 15.436 32.915-5.677 4.339-12.514 4.291-15.436 4.268-2.922-.024-6.066-.214-9.155-.238-23.352-.19-45.259 2.819-63.728 8.171-18.676 4.537-19.78-14.387-13.245-25.963 2.192-3.911 6.273-9.002 13.245-11.22zm-55.82 84.033c.508-5.891.913-10.546 6.931-18.67 12.705-18.663 10.124-40.382 3.113-39.36-1.127.158-2.303 1.377-3.112 2.177-4.256 5.542-6.678 11.48-6.908 17.697v38.195l-.024-.04z" fill="#5977FF"/><path d="M197.751 117.619l-4.041 1.631 13.95 34.38 4.041-1.63-13.95-34.381z" fill="#132D92"/><path d="M133.716 103.309c1.42-7.307-3.368-14.379-10.695-15.796-7.328-1.416-14.419 3.359-15.84 10.665-1.421 7.307 3.368 14.379 10.695 15.796 7.328 1.416 14.419-3.359 15.84-10.665z" fill="url(#paint7_radial)"/><path d="M133.716 103.309c1.42-7.307-3.368-14.379-10.695-15.796-7.328-1.416-14.419 3.359-15.84 10.665-1.421 7.307 3.368 14.379 10.695 15.796 7.328 1.416 14.419-3.359 15.84-10.665z" fill="url(#paint8_radial)"/><path d="M190.918 121.556c0 26.201-15.65 47.445-34.937 47.445s-34.937-21.244-34.937-47.445c0-26.2 15.65-34.047 34.937-34.047s34.937 7.847 34.937 34.047z" fill="url(#paint9_radial)"/><path style="mix-blend-mode:lighten" d="M190.918 121.556c0 26.201-15.65 47.445-34.937 47.445s-34.937-21.244-34.937-47.445c0-26.2 15.65-34.047 34.937-34.047s34.937 7.847 34.937 34.047z" fill="url(#paint10_linear)"/><path d="M172.838 111.302c-9.314 5.361-24.417 5.361-33.73 0-9.314-5.36-9.314-14.062 0-19.423 9.313-5.36 24.416-5.36 33.73 0 9.314 5.361 9.314 14.063 0 19.423z" fill="#393091"/><path d="M139.084 95.538c9.314-5.36 24.416-5.36 33.73 0 3.851 2.217 6.098 4.996 6.773 7.918.953-4.094-1.302-8.394-6.773-11.537-9.314-5.36-24.416-5.36-33.73 0-5.471 3.167-7.718 7.443-6.773 11.537.691-2.922 2.938-5.701 6.773-7.918z" fill="#453C9E"/><path d="M128.436 68.957l4.311-7.411a23.973 23.973 0 005.559-9.62l4.367-7.507-6.289-3.595a4.803 4.803 0 00-.627-.364c-1.787-.847-4.161-.618-6.773.887-5.559 3.167-10.061 10.982-10.061 17.38 0 3.167 1.128 5.447 2.946 6.492l6.567 3.738z" fill="url(#paint11_radial)"/><path d="M145.563 50.848c0 6.398-4.502 14.182-10.06 17.38-5.558 3.2-10.061.61-10.061-5.795 0-6.406 4.503-14.182 10.061-17.38 5.558-3.2 10.06-.602 10.06 5.795z" fill="#BCBEFF"/><path d="M157.354 104.358c19.686 0 35.644-15.913 35.644-35.544 0-19.63-15.958-35.543-35.644-35.543-19.685 0-35.643 15.913-35.643 35.543s15.958 35.544 35.643 35.544z" fill="url(#paint12_radial)"/><path d="M157.354 104.358c19.686 0 35.644-15.913 35.644-35.544 0-19.63-15.958-35.543-35.644-35.543-19.685 0-35.644 15.913-35.644 35.543s15.959 35.544 35.644 35.544z" fill="url(#paint13_radial)"/><path d="M177.3 92.853l4.312-7.411a23.983 23.983 0 005.558-9.62l4.367-7.507-6.289-3.594a4.738 4.738 0 00-.627-.365c-1.786-.847-4.16-.617-6.773.887-5.558 3.167-10.06 10.983-10.06 17.38 0 3.167 1.127 5.448 2.946 6.493l6.566 3.737z" fill="url(#paint14_radial)"/><path d="M194.427 74.745c0 6.398-4.502 14.181-10.06 17.38-5.558 3.199-10.06.61-10.06-5.796 0-6.406 4.478-14.173 10.036-17.38 5.558-3.207 10.084-.602 10.084 5.796z" fill="#BCBEFF"/><path d="M174.767 86.408c0-6.398 4.502-14.181 10.061-17.38a8.489 8.489 0 015.256-1.322c-1.588-.356-3.589 0-5.717 1.235-5.558 3.167-10.06 10.982-10.06 17.38 0 4.18 1.921 6.738 4.812 7.126-2.629-.586-4.352-3.08-4.352-7.039z" fill="#fff"/><path d="M191.561 76.4c0 4.576-3.216 10.135-7.194 12.423-3.978 2.288-7.194.436-7.194-4.141s3.2-10.135 7.17-12.423c3.97-2.289 7.218-.436 7.218 4.14z" fill="#393091"/><path d="M188.504 71.38a5.861 5.861 0 011.175 3.864c0 4.576-3.216 10.135-7.194 12.423a5.752 5.752 0 01-4.129.87c1.287 1.513 3.502 1.727 6.011.278 3.97-2.288 7.194-7.847 7.194-12.423 0-2.795-1.207-4.577-3.057-5.012z" fill="#453C9E"/><path d="M146.23 85.648c-.913 6.992-6.201 9.185-11.815 4.901-5.614-4.283-9.433-13.42-8.52-20.412.913-6.992 6.201-9.185 11.815-4.902 5.614 4.284 9.433 13.421 8.52 20.413z" fill="#393091"/><path d="M141.593 79.599c-.334 2.541-2.255 3.34-4.296 1.781a8.876 8.876 0 01-3.097-7.42c.334-2.54 2.255-3.34 4.296-1.78a8.86 8.86 0 013.097 7.42z" fill="#EFE721"/><path d="M137.115 89.536c-5.614-4.284-9.434-13.421-8.52-20.413.373-2.85 1.469-4.901 3.025-6.041-2.938.277-5.161 2.755-5.717 7.063-.913 6.991 2.906 16.129 8.52 20.412 3.327 2.534 6.535 2.795 8.79 1.14-1.835.167-3.947-.522-6.098-2.161z" fill="#453C9E"/><path d="M134.899 90.327c-5.613-4.283-9.433-13.42-8.52-20.412.421-3.239 1.787-5.44 3.677-6.453-2.152.879-3.708 3.167-4.161 6.682-.913 6.992 2.906 16.13 8.52 20.413 3.017 2.296 5.931 2.724 8.131 1.584-2.136.839-4.852.316-7.647-1.814z" fill="#EFE721"/><path d="M208.228 120.496c1.421-7.307-3.367-14.378-10.695-15.795-7.327-1.417-14.419 3.358-15.839 10.665-1.421 7.307 3.367 14.379 10.695 15.795 7.327 1.417 14.419-3.358 15.839-10.665z" fill="url(#paint15_radial)"/><path d="M208.228 120.496c1.421-7.307-3.368-14.378-10.695-15.795-7.327-1.417-14.419 3.358-15.84 10.665-1.42 7.307 3.368 14.379 10.695 15.795 7.328 1.417 14.419-3.358 15.84-10.665z" fill="url(#paint16_radial)"/><path d="M217.327 163.141c-.794 6.414-6.447 18.568-11.593 17.951-5.145-.618-7.797-13.754-7.027-20.168.77-6.413 5.558-11.085 10.696-10.507 5.137.578 8.686 6.311 7.924 12.724zM85.193 121.873a2.171 2.171 0 01-1.985-3.064c.2-.443.545-.805.977-1.03l27.95-14.585a2.173 2.173 0 011.659-.147 2.18 2.18 0 011.278 1.066c.133.252.214.529.239.813a2.168 2.168 0 01-1.16 2.116l-27.95 14.585a2.172 2.172 0 01-1.008.246z" fill="#132D92"/><path d="M85.686 129.973c-5.678 3.104-18.898 5.543-21.384 1.029-2.485-4.513 6.694-14.323 12.371-17.419 5.678-3.096 12.308-1.956 14.77 2.565 2.46 4.521-.072 10.721-5.757 13.825z" fill="#132D92"/><path opacity=".5" d="M59.046 123.924c-.85 6.825-4.399 10.887-8.1 5.811-4.763-6.516-5.248-12.89-5.557-16.699V75.822c0 5.82 1.937 11.433 5.558 16.699 7.884 13.009 8.822 25.844 8.13 31.379l-.031.024zm110.703 6.817c-2.943.079-5.913.106-8.909.079-23.448-.19-45.164-3.587-63.292-9.272-18.112-4.822-19.2 14.071-12.879 25.742 4.502 8.306 10.593 10.586 12.88 11.441 18.127 5.693 39.851 9.082 63.291 9.272 2.996 0 5.966-.026 8.909-.079 21.28-1.584 26.846-21.941 16.905-31.45-2.779-2.653-7.94-5.804-16.905-5.733zm110.624-29.645c-.103 16.081-1.048 19.003-2.247 22.709-4.987 11.726-17.906 22.083-36.001 29.819-15.841 4.664-20.216-11.75-13.769-23.92a31.63 31.63 0 0113.769-13.263c18.095-7.736 31.014-18.093 36.001-29.82.392-.87.849-1.712 1.365-2.517l.405-.055c.31.863.437 1.211.477 5.605v11.442z" fill="#5977FF"/><path style="mix-blend-mode:lighten" opacity=".8" d="M217.129 113.044a3.13 3.13 0 01-2.212-.913 3.117 3.117 0 01-.917-2.206V3.356c0-.827.33-1.62.917-2.206a3.13 3.13 0 015.34 2.206V109.94a3.115 3.115 0 01-.922 2.196 3.13 3.13 0 01-2.206.908z" fill="url(#paint17_linear)"/><path style="mix-blend-mode:lighten" opacity=".8" d="M93.88 67.587a1.678 1.678 0 01-1.164-.5 1.668 1.668 0 01-.48-1.17V-29.33A1.678 1.678 0 0193.88-31v-.001a1.674 1.674 0 011.675 1.67v95.246a1.671 1.671 0 01-1.675 1.671z" fill="url(#paint18_linear)"/></g><defs><linearGradient id="paint0_linear" x1="150.389" y1="322" x2="63.889" y2="119.5" gradientUnits="userSpaceOnUse"><stop stop-color="#0E2A90"/><stop offset="1" stop-color="#465CE1" stop-opacity="0"/></linearGradient><linearGradient id="paint1_linear" x1="225" y1="295" x2="75" y2="295" gradientUnits="userSpaceOnUse"><stop stop-color="#4B60B5" stop-opacity="0"/><stop offset=".505" stop-color="#03F" stop-opacity=".49"/><stop offset="1" stop-color="#4B60B5" stop-opacity="0"/></linearGradient><linearGradient id="paint2_linear" x1="150" y1="0" x2="0" y2="0" gradientUnits="userSpaceOnUse"><stop stop-color="#4B60B5" stop-opacity="0"/><stop offset=".328" stop-color="#03F" stop-opacity=".5"/><stop offset="1" stop-color="#4B60B5" stop-opacity="0"/></linearGradient><linearGradient id="paint3_linear" x1="36.972" y1="205.724" x2="239.441" y2="205.724" gradientUnits="userSpaceOnUse"><stop stop-color="#5761D7"/><stop offset=".16" stop-color="#5E67DA"/><stop offset=".41" stop-color="#727AE2"/><stop offset=".69" stop-color="#9297EE"/><stop offset="1" stop-color="#BCBEFF"/></linearGradient><linearGradient id="paint4_linear" x1="94.269" y1="178.447" x2="215.803" y2="178.447" gradientUnits="userSpaceOnUse"><stop stop-color="#42E8E0"/><stop offset=".15" stop-color="#43E3E0"/><stop offset=".33" stop-color="#45D5DF"/><stop offset=".52" stop-color="#49BDDD"/><stop offset=".72" stop-color="#4E9CDB"/><stop offset=".93" stop-color="#5472D8"/><stop offset="1" stop-color="#5761D7"/></linearGradient><linearGradient id="paint5_linear" x1="8546.33" y1="10511.1" x2="13196.8" y2="10511.1" gradientUnits="userSpaceOnUse"><stop stop-color="#42E8E0"/><stop offset=".15" stop-color="#43E3E0"/><stop offset=".33" stop-color="#45D5DF"/><stop offset=".52" stop-color="#49BDDD"/><stop offset=".72" stop-color="#4E9CDB"/><stop offset=".93" stop-color="#5472D8"/><stop offset="1" stop-color="#5761D7"/></linearGradient><linearGradient id="paint6_linear" x1="3835.08" y1="10509.2" x2="8485.56" y2="10509.2" gradientUnits="userSpaceOnUse"><stop stop-color="#42E8E0"/><stop offset=".15" stop-color="#43E3E0"/><stop offset=".33" stop-color="#45D5DF"/><stop offset=".52" stop-color="#49BDDD"/><stop offset=".72" stop-color="#4E9CDB"/><stop offset=".93" stop-color="#5472D8"/><stop offset="1" stop-color="#5761D7"/></linearGradient><linearGradient id="paint10_linear" x1="157.044" y1="169.227" x2="157.044" y2="87.663" gradientUnits="userSpaceOnUse"><stop stop-color="#42E6DF"/><stop offset=".14" stop-color="#40B6CB"/><stop offset=".27" stop-color="#3E8DB9"/><stop offset=".41" stop-color="#3C6BAA"/><stop offset=".55" stop-color="#3B519F"/><stop offset=".69" stop-color="#3A3F97"/><stop offset=".84" stop-color="#393493"/><stop offset="1" stop-color="#393091"/></linearGradient><linearGradient id="paint17_linear" x1="217.129" y1="113.044" x2="217.129" y2=".237" gradientUnits="userSpaceOnUse"><stop stop-color="#161242"/><stop offset=".12" stop-color="#171746"/><stop offset=".25" stop-color="#1A2550"/><stop offset=".4" stop-color="#1F3D62"/><stop offset=".55" stop-color="#265F7B"/><stop offset=".72" stop-color="#2F899A"/><stop offset=".88" stop-color="#39BDC0"/><stop offset="1" stop-color="#42E8E0"/></linearGradient><linearGradient id="paint18_linear" x1="294.93" y1="12244.1" x2="294.93" y2="-31" gradientUnits="userSpaceOnUse"><stop stop-color="#161242"/><stop offset=".12" stop-color="#171746"/><stop offset=".25" stop-color="#1A2550"/><stop offset=".4" stop-color="#1F3D62"/><stop offset=".55" stop-color="#265F7B"/><stop offset=".72" stop-color="#2F899A"/><stop offset=".88" stop-color="#39BDC0"/><stop offset="1" stop-color="#42E8E0"/></linearGradient><radialGradient id="paint7_radial" cx="0" cy="0" r="1" gradientUnits="userSpaceOnUse" gradientTransform="matrix(390.36673 -2007.8137 2013.04574 391.38396 4142.7 -3748.6)"><stop stop-color="#C0BFF6"/><stop offset="1" stop-color="#0F2A90"/></radialGradient><radialGradient id="paint8_radial" cx="0" cy="0" r="1" gradientUnits="userSpaceOnUse" gradientTransform="rotate(10.942 -465.69 679.146) scale(13.5131 13.4779)"><stop stop-color="#fff" stop-opacity=".61"/><stop offset="1" stop-color="#fff" stop-opacity="0"/></radialGradient><radialGradient id="paint9_radial" cx="0" cy="0" r="1" gradientUnits="userSpaceOnUse" gradientTransform="matrix(5298.68 0 0 8398.02 40644.9 24795.2)"><stop stop-color="#C0BFF6"/><stop offset="1" stop-color="#393091"/></radialGradient><radialGradient id="paint11_radial" cx="0" cy="0" r="1" gradientUnits="userSpaceOnUse" gradientTransform="matrix(1265.13 0 0 1544.05 2373.68 1673.88)"><stop stop-color="#C0BFF6"/><stop offset="1" stop-color="#393091"/></radialGradient><radialGradient id="paint12_radial" cx="0" cy="0" r="1" gradientUnits="userSpaceOnUse" gradientTransform="matrix(5409.31 0 0 5394.14 12171.5 8521.86)"><stop stop-color="#C0BFF6"/><stop offset="1" stop-color="#0F2A90"/></radialGradient><radialGradient id="paint13_radial" cx="0" cy="0" r="1" gradientUnits="userSpaceOnUse" gradientTransform="matrix(0 35.5439 -35.6438 0 157.354 68.814)"><stop stop-color="#fff" stop-opacity=".5"/><stop offset="1" stop-color="#fff" stop-opacity="0"/></radialGradient><radialGradient id="paint14_radial" cx="0" cy="0" r="1" gradientUnits="userSpaceOnUse" gradientTransform="matrix(855.926 0 0 1044.63 4167.65 3501.53)"><stop stop-color="#C0BFF6"/><stop offset="1" stop-color="#393091"/></radialGradient><radialGradient id="paint15_radial" cx="0" cy="0" r="1" gradientUnits="userSpaceOnUse" gradientTransform="matrix(390.35271 -2007.81643 2013.04847 391.3699 4217.213 -3731.443)"><stop stop-color="#C0BFF6"/><stop offset="1" stop-color="#0F2A90"/></radialGradient><radialGradient id="paint16_radial" cx="0" cy="0" r="1" gradientUnits="userSpaceOnUse" gradientTransform="rotate(10.942 -518.154 1076.72) scale(13.5131 13.4779)"><stop stop-color="#fff" stop-opacity=".61"/><stop offset="1" stop-color="#fff" stop-opacity="0"/></radialGradient><clipPath id="clip0"><path fill="#fff" transform="translate(45.389 -31)" d="M0 0h235v275H0z"/></clipPath></defs></svg>