<svg width="323" height="355" fill="none" xmlns="http://www.w3.org/2000/svg"><path d="M308.611 204.5l-75.25-130.337h-150.5L7.611 204.5l75.25 130.337h150.5l75.25-130.337z" fill="url(#paint0_linear)"/><path stroke="url(#paint1_linear)" stroke-width="2" d="M82.611 342h150"/><path stroke="url(#paint2_linear)" stroke-width="2" d="M.868 205.849l74.588 130.14"/><g clip-path="url(#clip0)"><path style="mix-blend-mode:color-dodge" d="M157.931 221.008c-17.785 0-35.55 4.152-49.109 12.456-27.117 16.607-27.117 43.535 0 60.142 13.559 8.303 31.305 12.455 49.109 12.455 17.804 0 35.55-4.093 49.109-12.455 27.117-16.607 27.117-43.535 0-60.142-13.559-8.304-31.305-12.456-49.109-12.456zm0-1.958c18.9 0 36.704 4.524 50.126 12.749 13.696 8.401 21.287 19.584 21.287 31.745 0 12.162-7.552 23.344-21.287 31.746-13.422 8.225-31.304 12.749-50.126 12.749s-36.704-4.524-50.126-12.749c-13.696-8.402-21.287-19.584-21.287-31.746 0-12.161 7.552-23.344 21.287-31.745 13.422-8.225 31.304-12.749 50.126-12.749z" fill="url(#paint3_linear)"/><path d="M109.878 263.838v.999c.587 5.719 5.264 11.378 14.029 15.667 18.763 9.361 49.206 9.361 67.969 0 8.061-4.015 12.679-9.126 13.813-14.374.134-.803.2-1.615.196-2.429 0-7.109-5.146-13.709-14.498-18.585a74.13 74.13 0 00-33.535-7.246 74.034 74.034 0 00-33.515 7.246c-9.313 5.014-14.459 11.613-14.459 18.722z" fill="#BCBEC0"/><path style="mix-blend-mode:color-dodge" d="M157.892 235.383c-13.363 0-26.746 2.742-36.939 8.225-20.407 10.967-20.407 28.73 0 39.697 10.213 5.483 23.478 8.225 36.939 8.225 13.461 0 26.746-2.742 36.939-8.225 20.407-10.967 20.407-28.73 0-39.697-10.193-5.483-23.478-8.225-36.939-8.225zm0-4.172c14.635 0 28.448 3.095 38.915 8.715 11.289 6.052 17.491 14.414 17.491 23.501 0 9.087-6.221 17.449-17.491 23.501-10.467 5.62-24.28 8.715-38.915 8.715-14.635 0-28.448-3.095-38.915-8.715-11.289-6.071-17.492-14.414-17.492-23.501 0-9.087 6.222-17.449 17.492-23.501 10.467-5.62 24.28-8.715 38.915-8.715z" fill="url(#paint4_linear)"/><path style="mix-blend-mode:color-dodge" d="M91.272-10.591l18.587 274.273c-.02.385-.02.77 0 1.155.587 5.719 5.263 11.378 14.028 15.667 18.763 9.361 49.207 9.361 67.97 0 8.061-4.014 12.678-9.126 13.813-14.374v-.784a9.22 9.22 0 00.156-1.801l23.655-274.136H91.272z" fill="url(#paint5_linear)"/><path d="M187.318 127.985V98.413a120.296 120.296 0 00-54.607-.842v29.572a120.31 120.31 0 0154.607.842z" fill="#5977FF" opacity=".5"/><path opacity=".15" d="M155.955 127.006V75.03c-29.466-.333-59.087 6.012-81.568 19.016-1.017.587-1.956 1.194-2.993 1.801v51.976a87.102 87.102 0 012.993-1.802c22.48-13.003 52.102-19.348 81.568-19.015z" fill="#5977FF"/><path d="M207.548 128.69c1.546-.137 4.461 5.228 2.426 7.579l-.861.352h-3.247l.489-6.991 1.193-.94z" fill="#191F65"/><path d="M203.831 130.864l2.837 7.089s6.084-3.917 8.08-5.053c1.663-.94 3.131-2.35 3.913-2.095 1.92.684 3.989.832 5.987.431 1.331-.666-.704-1.43-.704-1.43.825.096 1.659.096 2.485 0 2.21-.627.176-1.606.176-1.606.743 0 1.956-.45 1.545-1.371-.215-.548-1.095-.724-1.741-.959.25-.035.487-.136.685-.294.528-.47 0-1.293-.763-1.528-.763-.235-6.046-.509-7.944-.763a3.761 3.761 0 00-1.33 0l-.489.156c-.468.161-.92.364-1.35.607-.635.321-1.249.681-1.839 1.078l-.255.176a31.985 31.985 0 00-3.991 3.251l-4.207 1.841-1.095.47z" fill="#EDC59D"/><path d="M209.133 128.553a31.822 31.822 0 014.285-3.427c.59-.397 1.204-.757 1.839-1.078.43-.243.882-.446 1.35-.607l.489-.156c.44-.079.89-.079 1.33 0 1.957.254 6.887.489 7.944.763 1.056.275 1.291 1.058.763 1.528 0-.137.254-.548-.333-.764a51.1 51.1 0 00-8.902-.587c-1.526.568-2.837 2.213-2.172 2.859.666.646 6.007-2.526 6.731 0 .352 1.175-4.461 2.722-5.439 3.251a8.7 8.7 0 01-6.222 1.762 24.464 24.464 0 01-4.539 1.43c-.685 0-.763-1.136-1.428-2.957l4.304-2.017z" fill="#CC936D"/><path style="mix-blend-mode:color-dodge" d="M90.275 146.609a.494.494 0 00.489-.392c2.23-11.025 10.624-21.013 24.3-28.905 19.878-11.496 48.287-16.588 76.011-13.709a.487.487 0 00.36-.109.498.498 0 00.178-.332.494.494 0 00-.441-.538c-27.9-2.997-56.543 2.154-76.598 13.708-13.91 8.03-22.46 18.253-24.77 29.572a.491.491 0 00.392.568l.079.137z" fill="url(#paint6_linear)"/><path d="M164.133 109.654l1.018 2.644c2.406 6.228 8.315 21.542 9.469 24.676 1.487 3.916 3.385 8.44 11.994 8.479 8.217 0 23.321-9.165 23.321-9.165a1.546 1.546 0 01-1.447 0 3.915 3.915 0 01-1.663-2.154 6.61 6.61 0 01-.45-2.898 3.067 3.067 0 011.134-2.409c-3.541 1.684-15.926 7.246-20.484 5.15-4.892-2.252-5.459-7.657-8.707-14.942-3.776-8.696-14.185-9.381-14.185-9.381z" fill="url(#paint7_linear)"/><path d="M164.133 109.654l1.017 2.644 10.39 21.993s1.056 3.544 9.234 5.875c8.179 2.33 22.089-6.228 22.089-6.228a6.64 6.64 0 01-.45-2.898 3.076 3.076 0 011.135-2.409c-3.541 1.684-15.926 7.246-20.485 5.15-4.891-2.252-5.458-7.657-8.706-14.942-3.815-8.5-14.224-9.185-14.224-9.185z" fill="#E6E7E8"/><path d="M161.453 241.062s-2.661.862-2.661 5.268v12.73h1.702s0-6.953.587-6.953 1.096 6.189 1.096 6.953a9.792 9.792 0 004.382 4.661c2.289 1.194 6.026 1.606 6.692.94.665-.666 1.291-4.975-2.837-7.971l-8.961-15.628z" fill="url(#paint8_linear)"/><path d="M161.042 240.22c0 2.213-.978 2.213.469 5.425 1.957 4.582 1.429 10.262 4.07 12.906a4.5 4.5 0 004.833.998c.919-.411 1.33-1.214.508-1.958-1.956-1.958-2.289-11.222-2.289-16.979 0-3.29.391-13.2.744-21.17.274-6.052.508-10.967.508-10.967l-13.128-.96c0 21.993 4.285 30.472 4.285 32.705z" fill="#E8B18B"/><path d="M146.309 248.641s-1.604-.098-1.604 4.74c0 4.837-1.096 10.771-.509 13.415.587 2.643 3.483 7.383 7.376 7.383 3.894 0 2.113-10.321 2.113-13.063 0-2.742-.9-11.221-.9-11.221l-6.476-1.254z" fill="url(#paint9_linear)"/><path d="M145.781 238.928c0 2.526.9 8.362.333 10.438-.568 2.076 0 8.46 0 11.75 0 2.938 1.271 5.875 3.678 6.189.318.04.64.04.959 0 2.054-.216 2.152-3.212 2.21-6.894 0-4.406-.156-9.479-.156-10.516 0-1.038 1.213-12.417 2.387-23.168a4647.393 4647.393 0 012.132-19.408l-12.639.157c-3.052 12.416 1.076 27.711 1.096 31.452z" fill="#E8B18B"/><path d="M142.826 211.882s.392 6.208 13.442 6.208 14.4-6.208 14.4-6.208.274-.646.685-1.958a108.04 108.04 0 004.637-24.793c1.35-16.999-5.029-24.852-5.029-24.852l-9.978-.451-18.724.137a30.298 30.298 0 00-4.813 17.41 142.917 142.917 0 005.38 34.507z" fill="url(#paint10_linear)"/><path d="M138.835 123.187c0 3.368.783 11.75 1.585 19.721.9 8.812 1.839 17.038 1.957 17.116a6.26 6.26 0 004.148 4.857 26.64 26.64 0 0020.465 0 7.302 7.302 0 004.265-4.818 127.242 127.242 0 004.246-15.804 53.7 53.7 0 001.467-13.709 6.522 6.522 0 000-.685c-.9-5.151-7.298-16.196-10.037-18.801-3.756-3.584-18.372-1.684-18.372-1.684a34.227 34.227 0 00-5.008 4.485c-2.446 2.506-4.716 5.973-4.716 9.322z" fill="url(#paint11_linear)"/><path d="M143.453 113.825c2.524 10.458 7.709 31.08 8.276 27.555.665-4.739 8.159-7.05 14.361-9.988a14.06 14.06 0 0110.839-.881 6.54 6.54 0 000-.686c-.9-5.15-7.298-16.195-10.037-18.8-3.757-3.584-18.372-1.684-18.372-1.684a34.22 34.22 0 00-5.067 4.484z" fill="#E6E7E8" opacity=".8"/><path d="M161.961 109.302a11.114 11.114 0 012.27 10.986c-3.013 8.108-13.696-2.428-15.28-5.248a7.684 7.684 0 01-.803-5.386l13.813-.352z" fill="#E8B18B"/><path d="M136.292 65.688a11.343 11.343 0 003.476 7.712 11.321 11.321 0 0015.684 0 11.344 11.344 0 003.477-7.712 11.12 11.12 0 00-.509-3.349 11.305 11.305 0 00-10.8-7.97 10.984 10.984 0 00-3.189.47 11.307 11.307 0 00-5.874 4.069 11.324 11.324 0 00-2.265 6.78z" fill="#9C2C76"/><path d="M136.292 65.688a11.344 11.344 0 003.325 8.005 11.322 11.322 0 008.003 3.315c6.241 0 11.465-11.437 11.133-12.495-3.657.43-7.356-.31-10.565-2.115a8.003 8.003 0 01-2.943-3.248 8 8 0 01-.794-4.311 11.307 11.307 0 00-5.886 4.064 11.327 11.327 0 00-2.273 6.785z" fill="#B83B8E"/><path d="M161.961 109.674V95.671h-13.695v14.003a3.51 3.51 0 001.956 2.918 10.503 10.503 0 009.783 0 3.521 3.521 0 001.956-2.918z" fill="#E8B18B"/><path d="M140.087 90.462c3.522 9.596 9 10.614 9 10.614l.998-7.716.509-3.916c0-.373 0-.745.137-1.097l.293-2.194.568-4.308 7.571-4.818 3.914-1.762 9.782 4.367s-.215-14.14-17.08-15.667a20.079 20.079 0 00-4.05 0c-13.148 1.586-14.87 17.665-11.642 26.497z" fill="#9C2C76"/><path d="M143.844 90.677c.821 7.383 4.03 7.423 4.108 7.423a4.803 4.803 0 001.233 3.016 12.934 12.934 0 001.957 1.821c.833.649 1.702 1.25 2.602 1.802 2.582 1.645 6.906 4.053 10.311 2.976a10.707 10.707 0 001.858-.783c5.439-2.977 7.063-10.419 7.318-16.999a2.961 2.961 0 000-.352 62.75 62.75 0 00-.744-11.398c-8.061-6.032-14.067-3.917-18.156.117-.45.431-.881.901-1.272 1.352a28.447 28.447 0 00-3.248 4.778 30.371 30.371 0 00-2.054 4.504l-.118-.195a4.736 4.736 0 00-1.506-1.548c-1.233-.646-2.681.02-2.289 3.486z" fill="#EDC59D"/><path d="M151.768 85.35c0 1 0 2.057.137 3.193a15.859 15.859 0 003.913 1.312c.978.221 1.973.359 2.974.411 0 0 0-.215.137-.607.137-.98.293-3.055.411-4.837 0-.666 0-1.312.117-1.841V81.61v.862c.011.189.011.379 0 .568 0 .528.117 1.175.156 1.958.157 1.684.353 3.603.529 4.641.015.259.082.512.195.745a31.287 31.287 0 005.107-.823 13.967 13.967 0 007.533-3.78c.335-.33.63-.698.88-1.096v-.392a15.689 15.689 0 00-.685-5.875 9.57 9.57 0 00-1.35-2.722 7.673 7.673 0 00-.802-.98c-4.696-4.837-12.561-4.64-12.561-4.64a4.75 4.75 0 00-.646.215 7.576 7.576 0 00-2.641 1.958 11.49 11.49 0 00-2.113 3.427 17.3 17.3 0 00-.665 2.86 22.578 22.578 0 00-.411 2.584 4.094 4.094 0 000 .47v1.234a20.74 20.74 0 00-.215 2.526z" fill="#9C2C76"/><path d="M147.62 88.836s.313 5.092 1.957 5.092c.919 0 .821-3.075 1.213-5.6a9.252 9.252 0 01.45-1.685 10.28 10.28 0 01.724-1.586l3.482-6.816-1.076.118-4.558.45-.9 4.172-1.253 5.875-.039-.02z" fill="#9C2C76"/><path d="M148.775 93.458a.968.968 0 00.763.47.35.35 0 00.274-.137l-1.037-.333z" fill="#B83B8E"/><path d="M140.088 90.462c3.521 9.596 9 10.614 9 10.614a4.68 4.68 0 01-1.135-2.898s-2.896 0-3.913-6.051c-4.109-6.502-2.309-17.626-.255-21.543a17.03 17.03 0 017.944-6.56c-13.148 1.508-14.87 17.606-11.641 26.438z" fill="#B83B8E"/><path d="M164.133 246.193c1.174 7.501 3.796 11.496 6.359 13.376.919-.411 1.33-1.214.509-1.958-1.957-1.959-2.29-11.222-2.29-16.98 0-3.29.392-13.199.744-21.17a42.495 42.495 0 00-5.322 26.732zm-14.341 21.092c.318.041.64.041.959 0 2.054-.215 2.152-3.212 2.21-6.893 0-4.407-.156-9.479-.156-10.517 0-1.038 1.213-12.416 2.387-23.168 0 0-6.848 2.096-6.848 13.474 0 9.263-.704 21.033 1.448 27.104z" fill="#EDC59D"/><path d="M147.757 86.663l.254.391.313.49 2.113 3.212 1.037 1.586 2.876-2.409h1.585l3.111-.196 1.409-.117 4.05-.412a18.504 18.504 0 008.765-4.112c.43-.333.978-.607 1.174-.803a17.381 17.381 0 00-.92-5.875c-.14.407-.331.795-.567 1.155a.843.843 0 01-.098.176 7.572 7.572 0 01-4.344 3.134 22.714 22.714 0 01-8.687.294h-.195c-1.781-.196-3.346-.45-4.481-.51a10.58 10.58 0 00-1.78 0c-.479.06-.95.164-1.409.314a1.48 1.48 0 00-.352.117 5.215 5.215 0 00-1.056.49 5.864 5.864 0 00-1.957 1.782c-.397.343-.688.79-.841 1.293z" fill="url(#paint12_linear)"/><path d="M149.107 89.992c0-.94 3.385-2.624 6.515-2.624 3.131 0 7.22.92 11.622-.666a28.875 28.875 0 007.063-3.231v.49s-4.206 7.03-9.606 7.676c-5.4.646-10.155.823-10.155.823l-2.758 2.448-2.681-4.916z" fill="#808285"/><path d="M144.568 87.25l2.524.529s-1.448-12.005 1.604-15.667a16.275 16.275 0 016.946-4.563 19.878 19.878 0 018.863-1.077c.242.036.478.102.704.196 0 0 1.467.96 2.133 1.527l.156.137c.568.568.274-.96 0-1.958a4.519 4.519 0 00-3.443-2.566 29.753 29.753 0 00-9.783 1.175 15.91 15.91 0 00-8.609 6.326c-2.406 4.465-1.095 15.941-1.095 15.941z" fill="url(#paint13_linear)"/><path d="M164.407 66.55c.242.036.478.102.704.196 0 0 1.468.96 2.133 1.527a2.65 2.65 0 00-.254-1.038c-.235-.528-2.583-.685-2.583-.685z" fill="#58595B"/><path d="M140.185 89.071a12.112 12.112 0 005.674 9.538c3.346 1.958 6.828.783 6.828-2.546a11.758 11.758 0 00-5.165-9.518c-4.148-2.585-7.337-.803-7.337 2.526z" fill="#29299E"/><path d="M140.185 89.737a10.15 10.15 0 004.891 7.716c2.7 1.567 4.892.627 4.892-2.076a10.177 10.177 0 00-4.892-7.716c-2.7-1.547-4.891-.626-4.891 2.076z" fill="url(#paint14_linear)"/><path d="M152.394 94.261v.294c0 2.193.92 5.66 6.476 5.483h.763a30.86 30.86 0 0010.722-2.33 15.79 15.79 0 001.956-.999 12.594 12.594 0 001.957-1.41l.509-.47.313-10.046a30.622 30.622 0 01-9.196 4.308c-.989.262-1.996.452-3.013.568a19.17 19.17 0 01-2.993 0c-7.924-.47-7.377 2.761-7.494 4.602z" fill="#191F65"/><path style="mix-blend-mode:color-dodge" d="M152.394 94.261v.294l7.239 5.444a30.87 30.87 0 0010.722-2.33l-10.585-7.971c-7.806-.51-7.258 2.722-7.376 4.563z" fill="url(#paint15_linear)"/><path style="mix-blend-mode:color-dodge" d="M162.862 89.62l9.489 7.05a12.585 12.585 0 001.956-1.41l-8.374-6.208a21.078 21.078 0 01-3.071.568z" fill="url(#paint16_linear)"/><path d="M152.042 90.07c1.369-1.312 3.913-1.821 7.572-1.586 6.339.43 12.541-3.094 14.732-4.504l-.098-1.959c.313-.196.587 0 .9.157.472.305.862.722 1.135 1.214.124.209.198.443.215.685a1.6 1.6 0 01-.489 1.313l-.332.234c-2.211 1.45-8.981 5.445-16.22 4.975-3.913-.255-5.38.411-6.006 1.018a3.014 3.014 0 00-.666 2.409v.353a5.203 5.203 0 001.272 3.799 6.066 6.066 0 004.559 1.567c7.102-.236 13.128-2.272 16.258-5.406.411-.41.9-.567 1.311-.156.097.096.173.21.225.337a1.025 1.025 0 010 .795c-.052.126-.128.24-.225.337-3.502 3.505-9.782 5.659-17.608 5.875h-.313a7.706 7.706 0 01-5.616-1.959 7.131 7.131 0 01-1.956-5.307v-.352a4.872 4.872 0 011.35-3.839z" fill="url(#paint17_linear)"/><path d="M181.742 144.905c1.839-.333 3.913 5.268 2.23 6.972l-1.448.45-4.343-2.878 2.563-3.917.998-.627z" fill="#191F65"/><path d="M179.785 150.545l3.326 1.234s3.502-1.958 4.442-2.389a8.443 8.443 0 015.654-.451c1.956.392 2.954.607 3.267.294.313-.313-.254-1.097-.254-1.097 1.574.433 3.2.643 4.833.627.9-.313.234-1.097.234-1.097s1.644 0 2.192-.45c.234-.235 0-.548-.274-.823l-.255-.215a4.097 4.097 0 00-.489-.313l-.176-.098s1.291-.803.861-1.449v-.118a41.08 41.08 0 00-11.739-3.584c-1.37 0-6.652 3.408-7.317 3.917l-3.229 1.253-1.076 4.583v.176z" fill="#EDC59D"/><path d="M179.785 150.369l1.957-.255s5.048-2.859 7.18-2.859c2.29.283 4.559.721 6.789 1.312a.444.444 0 00.365-.115.46.46 0 00.144-.355l-2.543-1.116c2.342.63 4.73 1.082 7.141 1.351.743-.156.509-.685.509-.685l-3.19-1.175c1.194.372 4.363 1.273 5.146.489a.386.386 0 00.098-.454.39.39 0 00-.098-.133l-.254-.215a4.187 4.187 0 00-.489-.314l-.177-.098-3.776-1.057c1.286.279 2.598.424 3.913.431.666 0 .763-.549.685-.823v-.117a41.017 41.017 0 00-11.739-3.584c-1.369 0-6.652 3.407-7.317 3.916l-3.229 1.254-1.115 4.602z" fill="#CC936D"/><path d="M136.096 133.84a27.075 27.075 0 004.559 13.415c6.495 10.047 13.852 15.667 27.9 11.222a68.633 68.633 0 0015.437-6.639 1.57 1.57 0 01-1.155-.353 4.268 4.268 0 01-1.271-1.508 6.135 6.135 0 01-.744-3.231 2.19 2.19 0 01.92-1.841c-1.272.49-17.335 6.737-25.024 3.701-6.026-2.369-7.024-18.154-7.024-18.683 0-.528-4.97-17.429-4.97-17.429s-6.417 3.916-7.434 9.361a44.633 44.633 0 00-1.194 11.985z" fill="url(#paint18_linear)"/><path d="M136.096 133.84c2.191 7.168 10.644 22.169 21.835 22.639 11.876.568 23.635-6.482 23.635-6.482a6.135 6.135 0 01-.744-3.231 2.2 2.2 0 01.92-1.861c-1.272.49-17.335 6.737-25.024 3.701-6.026-2.369-7.024-18.154-7.024-18.683 0-.528-4.97-17.429-4.97-17.429s-6.417 3.916-7.434 9.361a44.674 44.674 0 00-1.194 11.985z" fill="#E6E7E8"/><path d="M55.41 81.1c-5.544 0-10.038-4.497-10.038-10.046 0-5.548 4.494-10.046 10.037-10.046 5.544 0 10.037 4.498 10.037 10.046 0 5.549-4.493 10.047-10.037 10.047z" fill="url(#paint19_radial)" style="mix-blend-mode:color-dodge"/><path style="mix-blend-mode:color-dodge" d="M233.081 40.464c-5.543 0-10.037-4.498-10.037-10.046 0-5.549 4.494-10.047 10.037-10.047 5.543 0 10.037 4.498 10.037 10.047 0 5.548-4.494 10.046-10.037 10.046z" fill="url(#paint20_radial)"/><path style="mix-blend-mode:color-dodge" d="M99.45 183.407a6.616 6.616 0 01-6.613-6.619 6.617 6.617 0 016.613-6.62 6.616 6.616 0 016.613 6.62 6.615 6.615 0 01-6.613 6.619z" fill="url(#paint21_radial)"/><path style="mix-blend-mode:color-dodge" d="M123.594 29.497a6.616 6.616 0 01-6.613-6.62 6.616 6.616 0 016.613-6.619 6.616 6.616 0 016.613 6.62 6.616 6.616 0 01-6.613 6.619z" fill="url(#paint22_radial)"/><path style="mix-blend-mode:color-dodge" d="M204.027 199.309a6.615 6.615 0 01-6.613-6.619 6.615 6.615 0 016.613-6.619 6.616 6.616 0 016.613 6.619 6.616 6.616 0 01-6.613 6.619z" fill="url(#paint23_radial)"/><path style="mix-blend-mode:color-dodge" d="M253.233 132.078a5.99 5.99 0 01-5.987-5.993 5.99 5.99 0 015.987-5.993 5.99 5.99 0 015.987 5.993 5.99 5.99 0 01-5.987 5.993z" fill="url(#paint24_radial)"/><path style="mix-blend-mode:color-dodge" d="M209.172 58.227a2.682 2.682 0 01-2.68-2.683 2.682 2.682 0 115.361 0c0 1.482-1.2 2.683-2.681 2.683z" fill="url(#paint25_radial)"/><path style="mix-blend-mode:color-dodge" d="M80.218 138.129a2.682 2.682 0 01-2.68-2.683 2.682 2.682 0 115.36 0c0 1.482-1.2 2.683-2.68 2.683z" fill="url(#paint26_radial)"/><path style="mix-blend-mode:color-dodge" d="M96.77 26.285a2.682 2.682 0 01-2.68-2.683c0-1.481 1.2-2.683 2.68-2.683 1.48 0 2.68 1.202 2.68 2.683 0 1.482-1.2 2.683-2.68 2.683z" fill="url(#paint27_radial)"/><path style="mix-blend-mode:color-dodge" d="M233.022 166.741a2.681 2.681 0 01-2.68-2.683 2.681 2.681 0 115.361 0c0 1.482-1.2 2.683-2.681 2.683z" fill="url(#paint28_radial)"/><path style="mix-blend-mode:color-dodge" d="M260.335 40.014a2.682 2.682 0 01-2.68-2.683 2.682 2.682 0 115.361 0c0 1.481-1.2 2.683-2.681 2.683z" fill="url(#paint29_radial)"/><path style="mix-blend-mode:color-dodge" d="M135.294 142.398a4.287 4.287 0 01-4.285-4.289 4.287 4.287 0 014.285-4.288 4.286 4.286 0 014.285 4.288 4.287 4.287 0 01-4.285 4.289z" fill="url(#paint30_radial)"/><path style="mix-blend-mode:color-dodge" d="M37.703 169.424a2.682 2.682 0 010-5.366c1.48 0 2.68 1.202 2.68 2.683 0 1.482-1.2 2.683-2.68 2.683z" fill="url(#paint31_radial)"/><path style="mix-blend-mode:color-dodge" d="M33.398 37.33a2.682 2.682 0 01-2.68-2.682c0-1.482 1.2-2.683 2.68-2.683 1.48 0 2.68 1.201 2.68 2.683 0 1.482-1.2 2.683-2.68 2.683z" fill="url(#paint32_radial)"/><path style="mix-blend-mode:color-dodge" d="M295.024 73.737a2.682 2.682 0 01-2.68-2.683 2.682 2.682 0 115.361 0c0 1.482-1.2 2.683-2.681 2.683z" fill="url(#paint33_radial)"/><path style="mix-blend-mode:color-dodge" d="M103.344 101.586a1.645 1.645 0 010-3.29 1.644 1.644 0 010 3.29z" fill="url(#paint34_radial)"/><path style="mix-blend-mode:color-dodge" d="M223.064 101.586a1.645 1.645 0 010-3.29 1.644 1.644 0 010 3.29z" fill="url(#paint35_radial)"/><path style="mix-blend-mode:color-dodge" d="M214.357 130.746a1.645 1.645 0 010-3.29 1.644 1.644 0 010 3.29z" fill="url(#paint36_radial)"/><path style="mix-blend-mode:color-dodge" d="M60.926 13.027a1.644 1.644 0 11.002-3.288 1.644 1.644 0 01-.002 3.288z" fill="url(#paint37_radial)"/><path style="mix-blend-mode:color-dodge" d="M258.692 3.49a1.645 1.645 0 11.001-3.29 1.645 1.645 0 01-.001 3.29z" fill="url(#paint38_radial)"/><path style="mix-blend-mode:color-dodge" d="M71.922 105.267a1.644 1.644 0 11.001-3.288 1.644 1.644 0 010 3.288z" fill="url(#paint39_radial)"/><path style="mix-blend-mode:color-dodge" d="M139.579 178.433a1.645 1.645 0 010-3.29 1.644 1.644 0 010 3.29z" fill="url(#paint40_radial)"/><path style="mix-blend-mode:color-dodge" d="M194.576 127.534a1.644 1.644 0 11.002-3.288 1.644 1.644 0 01-.002 3.288z" fill="url(#paint41_radial)"/><path style="mix-blend-mode:color-dodge" d="M71.922 175.26a1.644 1.644 0 11.001-3.288 1.644 1.644 0 010 3.288z" fill="url(#paint42_radial)"/><path style="mix-blend-mode:color-dodge" d="M27.9 119.642a1.645 1.645 0 11.003-3.29 1.645 1.645 0 01-.003 3.29z" fill="url(#paint43_radial)"/><path style="mix-blend-mode:color-dodge" d="M267.399 99.94a1.644 1.644 0 11.001-3.288 1.644 1.644 0 01-.001 3.288z" fill="url(#paint44_radial)"/><path style="mix-blend-mode:color-dodge" d="M88.435 46.026a1.644 1.644 0 11.002-3.289 1.644 1.644 0 01-.002 3.289z" fill="url(#paint45_radial)"/><path style="mix-blend-mode:color-dodge" d="M247.246 75.382a1.644 1.644 0 11.001-3.289 1.644 1.644 0 01-.001 3.29z" fill="url(#paint46_radial)"/><path style="mix-blend-mode:color-dodge" d="M270.079 154.521a2.682 2.682 0 01-2.681-2.683 2.682 2.682 0 115.361 0c0 1.482-1.2 2.683-2.68 2.683z" fill="url(#paint47_radial)"/><path style="mix-blend-mode:color-dodge" d="M45.372 135.622c-4.505 0-8.158-3.656-8.158-8.166s3.653-8.167 8.158-8.167c4.506 0 8.16 3.657 8.16 8.167s-3.654 8.166-8.16 8.166z" fill="url(#paint48_radial)"/><path style="mix-blend-mode:color-dodge" d="M119.035 92.93a5.364 5.364 0 01-5.361-5.367 5.364 5.364 0 015.361-5.365 5.363 5.363 0 015.361 5.366c0 2.963-2.4 5.366-5.361 5.366z" fill="url(#paint49_radial)"/><path style="mix-blend-mode:color-dodge" d="M206.492 84.489a5.363 5.363 0 01-5.361-5.366c0-2.964 2.4-5.366 5.361-5.366a5.363 5.363 0 015.361 5.366c0 2.963-2.4 5.366-5.361 5.366z" fill="url(#paint50_radial)"/><path style="mix-blend-mode:color-dodge" d="M176.968 20.136a4.874 4.874 0 01-4.872-4.876 4.874 4.874 0 014.872-4.877 4.874 4.874 0 014.871 4.877 4.874 4.874 0 01-4.871 4.876z" fill="url(#paint51_radial)"/><path style="mix-blend-mode:color-dodge" d="M124.083 45.203a2.172 2.172 0 01-2.171-2.174 2.172 2.172 0 114.343 0 2.173 2.173 0 01-2.172 2.174z" fill="url(#paint52_radial)"/><path style="mix-blend-mode:color-dodge" d="M188.922 150.075a2.173 2.173 0 11.002-4.346 2.173 2.173 0 01-.002 4.346z" fill="url(#paint53_radial)"/><path style="mix-blend-mode:color-dodge" d="M98.14 136.621a2.173 2.173 0 010-4.348 2.173 2.173 0 010 4.348z" fill="url(#paint54_radial)"/><path style="mix-blend-mode:color-dodge" d="M212.166 25.796c-1.2 0-2.172-.973-2.172-2.174a2.173 2.173 0 112.172 2.174z" fill="url(#paint55_radial)"/><path style="mix-blend-mode:color-dodge" d="M109.272 3.568a2.173 2.173 0 010-4.348 2.173 2.173 0 010 4.348z" fill="url(#paint56_radial)"/><path style="mix-blend-mode:color-dodge" d="M191.113 106.599a3.484 3.484 0 01-3.482-3.486 3.484 3.484 0 013.482-3.486 3.484 3.484 0 013.483 3.486 3.484 3.484 0 01-3.483 3.486z" fill="url(#paint57_radial)"/><path style="mix-blend-mode:color-dodge" d="M214.357 184.661a2.173 2.173 0 11.002-4.346 2.173 2.173 0 01-.002 4.346z" fill="url(#paint58_radial)"/><path style="mix-blend-mode:color-dodge" d="M80.472 208.377a2.173 2.173 0 010-4.348 2.173 2.173 0 010 4.348z" fill="url(#paint59_radial)"/><path style="mix-blend-mode:color-dodge" d="M64.977 67.294c-1.2 0-2.172-.973-2.172-2.174a2.173 2.173 0 112.172 2.174z" fill="url(#paint60_radial)"/><path style="mix-blend-mode:color-dodge" d="M160.122 130.433a1.331 1.331 0 11.002-2.662 1.331 1.331 0 01-.002 2.662z" fill="url(#paint61_radial)"/><path style="mix-blend-mode:color-dodge" d="M148.853 28.46a1.331 1.331 0 110-2.663 1.331 1.331 0 010 2.662z" fill="url(#paint62_radial)"/><path style="mix-blend-mode:color-dodge" d="M202.266 43.52a1.331 1.331 0 110-2.664 1.331 1.331 0 010 2.663z" fill="url(#paint63_radial)"/><path style="mix-blend-mode:color-dodge" d="M88.22 164.94a1.332 1.332 0 11.002-2.663 1.332 1.332 0 01-.002 2.663z" fill="url(#paint64_radial)"/><path style="mix-blend-mode:color-dodge" d="M163.116 155.99a1.332 1.332 0 010-2.664 1.331 1.331 0 010 2.664z" fill="url(#paint65_radial)"/><path style="mix-blend-mode:color-dodge" d="M150.203 90.403a1.331 1.331 0 110-2.663 1.331 1.331 0 010 2.663z" fill="url(#paint66_radial)"/><path style="mix-blend-mode:color-dodge" d="M170.766 57.776a1.331 1.331 0 110-2.662 1.331 1.331 0 010 2.662z" fill="url(#paint67_radial)"/><path style="mix-blend-mode:color-dodge" d="M219.913 155.99a1.332 1.332 0 010-2.664 1.331 1.331 0 010 2.664z" fill="url(#paint68_radial)"/><path style="mix-blend-mode:color-dodge" d="M174.777 191.809a1.332 1.332 0 010-2.664 1.331 1.331 0 010 2.664z" fill="url(#paint69_radial)"/><path style="mix-blend-mode:color-dodge" d="M115.005 142.555a1.331 1.331 0 110-2.663 1.331 1.331 0 010 2.663z" fill="url(#paint70_radial)"/><path style="mix-blend-mode:color-dodge" d="M55.409 136.778a1.33 1.33 0 11.001-2.662 1.33 1.33 0 01-.001 2.662z" fill="url(#paint71_radial)"/><path d="M247.246 73.992l47.798-2.683a.233.233 0 00.275-.139.233.233 0 00-.099-.292l-34.709-33.724a.232.232 0 00-.235 0 .237.237 0 00-.176.157l-13.089 36.407a.256.256 0 00.235.333v-.06zm47.211-3.114l-46.859 2.624 12.855-35.72 34.004 33.096z" fill="#27AAE1"/><path opacity=".1" d="M256.285 141.38V96.885a72.916 72.916 0 00-23.478-20.504 132.57 132.57 0 00-39.62-14.512v44.417a132.538 132.538 0 0139.62 14.511 72.92 72.92 0 0123.478 20.583z" fill="#5977FF"/><path d="M163.957 95.064c2.974 0 5.941-.091 8.902-.274 19.115-1.175 37.174-6.15 50.772-14.022 16.004-9.244 24.828-21.64 24.828-34.664 0-13.023-8.824-25.459-24.828-34.663a.253.253 0 00-.311-.02.252.252 0 00-.096.297.255.255 0 00.153.153c15.847 9.166 24.574 21.328 24.574 34.253s-8.727 25.087-24.574 34.252c-27.94 16.118-70.826 18.918-104.244 6.776a.252.252 0 00-.286.16.256.256 0 00-.002.176c.021.056.06.104.112.134a133.924 133.924 0 0045 7.442z" fill="#53B7F9"/><path style="mix-blend-mode:color-dodge" d="M170.551 206.732c19.291 0 38.582-4.25 53.256-12.73 14.322-8.264 22.207-19.329 22.207-31.08 0-11.75-7.827-22.776-22.207-31.06a98.558 98.558 0 00-34.63-11.398.493.493 0 00-.463.788.496.496 0 00.326.192 97.543 97.543 0 0134.297 11.3c14.009 8.088 21.718 18.82 21.718 30.218 0 11.397-7.709 22.129-21.718 30.218-29.093 16.803-76.441 16.803-105.534 0a47.447 47.447 0 01-17.922-16.706.49.49 0 00-.841.49 48.423 48.423 0 0018.274 17.058c14.673 8.46 33.945 12.71 53.237 12.71z" fill="url(#paint72_linear)"/><path opacity=".15" d="M164.485 122.129v68.211c38.622.431 77.459-7.834 106.944-24.93 1.35-.784 2.641-1.567 3.913-2.37V94.83a122.199 122.199 0 01-3.913 2.369c-29.466 17.038-68.303 25.341-106.944 24.93zm-89.433 3.036v40.107a65.854 65.854 0 0021.268 18.507 119.687 119.687 0 0035.785 13.102v-40.108a119.761 119.761 0 01-35.785-13.102 65.891 65.891 0 01-21.267-18.506z" fill="#5977FF"/></g><defs><radialGradient id="paint19_radial" cx="0" cy="0" r="1" gradientUnits="userSpaceOnUse" gradientTransform="matrix(-10.037 0 0 -10.0466 55.41 71.054)"><stop stop-color="#0047A3"/><stop offset="1" stop-color="#fff" stop-opacity="0"/></radialGradient><radialGradient id="paint20_radial" cx="0" cy="0" r="1" gradientUnits="userSpaceOnUse" gradientTransform="matrix(-102.979 0 0 -103.078 -675.464 629.996)"><stop stop-color="#fff"/><stop offset="1"/></radialGradient><radialGradient id="paint21_radial" cx="0" cy="0" r="1" gradientUnits="userSpaceOnUse" gradientTransform="matrix(-44.7042 0 0 -44.7469 -1402.51 1561.3)"><stop stop-color="#fff"/><stop offset="1"/></radialGradient><radialGradient id="paint22_radial" cx="0" cy="0" r="1" gradientUnits="userSpaceOnUse" gradientTransform="matrix(-44.7042 0 0 -44.7469 -1215.15 366.952)"><stop stop-color="#fff"/><stop offset="1"/></radialGradient><radialGradient id="paint23_radial" cx="0" cy="0" r="1" gradientUnits="userSpaceOnUse" gradientTransform="matrix(-44.7042 0 0 -44.7468 -590.994 1684.69)"><stop stop-color="#fff"/><stop offset="1"/></radialGradient><radialGradient id="paint24_radial" cx="0" cy="0" r="1" gradientUnits="userSpaceOnUse" gradientTransform="matrix(-36.6402 0 0 -36.6752 -165.375 1069.21)"><stop stop-color="#fff"/><stop offset="1"/></radialGradient><radialGradient id="paint25_radial" cx="0" cy="0" r="1" gradientUnits="userSpaceOnUse" gradientTransform="matrix(-7.34438 0 0 -7.35141 -98.97 284.511)"><stop stop-color="#fff"/><stop offset="1"/></radialGradient><radialGradient id="paint26_radial" cx="0" cy="0" r="1" gradientUnits="userSpaceOnUse" gradientTransform="matrix(-7.34443 0 0 -7.35142 -581.264 583.346)"><stop stop-color="#fff"/><stop offset="1"/></radialGradient><radialGradient id="paint27_radial" cx="0" cy="0" r="1" gradientUnits="userSpaceOnUse" gradientTransform="matrix(-7.34437 0 0 -7.35142 -519.353 165.05)"><stop stop-color="#fff"/><stop offset="1"/></radialGradient><radialGradient id="paint28_radial" cx="0" cy="0" r="1" gradientUnits="userSpaceOnUse" gradientTransform="matrix(-7.34441 0 0 -7.35144 -9.772 690.357)"><stop stop-color="#fff"/><stop offset="1"/></radialGradient><radialGradient id="paint29_radial" cx="0" cy="0" r="1" gradientUnits="userSpaceOnUse" gradientTransform="matrix(-7.34438 0 0 -7.35142 92.38 216.394)"><stop stop-color="#fff"/><stop offset="1"/></radialGradient><radialGradient id="paint30_radial" cx="0" cy="0" r="1" gradientUnits="userSpaceOnUse" gradientTransform="matrix(-18.7673 0 0 -18.7853 -680.87 865.761)"><stop stop-color="#fff"/><stop offset="1"/></radialGradient><radialGradient id="paint31_radial" cx="0" cy="0" r="1" gradientUnits="userSpaceOnUse" gradientTransform="matrix(-7.34439 0 0 -7.35142 -740.267 700.39)"><stop stop-color="#fff"/><stop offset="1"/></radialGradient><radialGradient id="paint32_radial" cx="0" cy="0" r="1" gradientUnits="userSpaceOnUse" gradientTransform="matrix(-7.34435 0 0 -7.35141 -756.361 206.36)"><stop stop-color="#fff"/><stop offset="1"/></radialGradient><radialGradient id="paint33_radial" cx="0" cy="0" r="1" gradientUnits="userSpaceOnUse" gradientTransform="matrix(-7.3444 0 0 -7.35141 222.117 342.52)"><stop stop-color="#fff"/><stop offset="1"/></radialGradient><radialGradient id="paint34_radial" cx="0" cy="0" r="1" gradientUnits="userSpaceOnUse" gradientTransform="matrix(-2.76103 0 0 -2.76368 -263.38 314.915)"><stop stop-color="#fff"/><stop offset="1"/></radialGradient><radialGradient id="paint35_radial" cx="0" cy="0" r="1" gradientUnits="userSpaceOnUse" gradientTransform="matrix(-2.76104 0 0 -2.76368 57.467 314.915)"><stop stop-color="#fff"/><stop offset="1"/></radialGradient><radialGradient id="paint36_radial" cx="0" cy="0" r="1" gradientUnits="userSpaceOnUse" gradientTransform="matrix(-2.76104 0 0 -2.76368 34.133 393.066)"><stop stop-color="#fff"/><stop offset="1"/></radialGradient><radialGradient id="paint37_radial" cx="0" cy="0" r="1" gradientUnits="userSpaceOnUse" gradientTransform="matrix(-2.76104 0 0 -2.76368 -377.061 77.579)"><stop stop-color="#fff"/><stop offset="1"/></radialGradient><radialGradient id="paint38_radial" cx="0" cy="0" r="1" gradientUnits="userSpaceOnUse" gradientTransform="matrix(-2.76103 0 0 -2.76368 152.951 52.019)"><stop stop-color="#fff"/><stop offset="1"/></radialGradient><radialGradient id="paint39_radial" cx="0" cy="0" r="1" gradientUnits="userSpaceOnUse" gradientTransform="matrix(-2.76102 0 0 -2.76368 -347.588 324.783)"><stop stop-color="#fff"/><stop offset="1"/></radialGradient><radialGradient id="paint40_radial" cx="0" cy="0" r="1" gradientUnits="userSpaceOnUse" gradientTransform="matrix(-2.76104 0 0 -2.76368 -166.273 520.866)"><stop stop-color="#fff"/><stop offset="1"/></radialGradient><radialGradient id="paint41_radial" cx="0" cy="0" r="1" gradientUnits="userSpaceOnUse" gradientTransform="matrix(-2.76105 0 0 -2.76367 -18.879 384.457)"><stop stop-color="#fff"/><stop offset="1"/></radialGradient><radialGradient id="paint42_radial" cx="0" cy="0" r="1" gradientUnits="userSpaceOnUse" gradientTransform="matrix(-2.76102 0 0 -2.76368 -347.588 512.364)"><stop stop-color="#fff"/><stop offset="1"/></radialGradient><radialGradient id="paint43_radial" cx="0" cy="0" r="1" gradientUnits="userSpaceOnUse" gradientTransform="matrix(-2.76107 0 0 -2.76368 -465.575 363.307)"><stop stop-color="#fff"/><stop offset="1"/></radialGradient><radialGradient id="paint44_radial" cx="0" cy="0" r="1" gradientUnits="userSpaceOnUse" gradientTransform="matrix(-2.76105 0 0 -2.76365 176.284 310.504)"><stop stop-color="#fff"/><stop offset="1"/></radialGradient><radialGradient id="paint45_radial" cx="0" cy="0" r="1" gradientUnits="userSpaceOnUse" gradientTransform="matrix(-2.76106 0 0 -2.76369 -303.339 166.016)"><stop stop-color="#fff"/><stop offset="1"/></radialGradient><radialGradient id="paint46_radial" cx="0" cy="0" r="1" gradientUnits="userSpaceOnUse" gradientTransform="matrix(-2.76105 0 0 -2.76368 122.276 244.691)"><stop stop-color="#fff"/><stop offset="1"/></radialGradient><radialGradient id="paint47_radial" cx="0" cy="0" r="1" gradientUnits="userSpaceOnUse" gradientTransform="matrix(-7.34439 0 0 -7.35142 128.82 644.651)"><stop stop-color="#fff"/><stop offset="1"/></radialGradient><radialGradient id="paint48_radial" cx="0" cy="0" r="1" gradientUnits="userSpaceOnUse" gradientTransform="matrix(0 68.1086 -68.0436 0 -1473.47 3670.48)"><stop stop-color="#fff"/><stop offset="1"/></radialGradient><radialGradient id="paint49_radial" cx="0" cy="0" r="1" gradientUnits="userSpaceOnUse" gradientTransform="matrix(0 29.4056 -29.3776 0 -457.417 2105.26)"><stop stop-color="#fff"/><stop offset="1"/></radialGradient><radialGradient id="paint50_radial" cx="0" cy="0" r="1" gradientUnits="userSpaceOnUse" gradientTransform="matrix(0 29.4057 -29.3776 0 13.412 1971.47)"><stop stop-color="#fff"/><stop offset="1"/></radialGradient><radialGradient id="paint51_radial" cx="0" cy="0" r="1" gradientUnits="userSpaceOnUse" gradientTransform="matrix(0 24.2845 -24.2613 0 -163.924 1484.74)"><stop stop-color="#fff"/><stop offset="1"/></radialGradient><radialGradient id="paint52_radial" cx="0" cy="0" r="1" gradientUnits="userSpaceOnUse" gradientTransform="matrix(0 4.82587 -4.82126 0 12.798 680.675)"><stop stop-color="#fff"/><stop offset="1"/></radialGradient><radialGradient id="paint53_radial" cx="0" cy="0" r="1" gradientUnits="userSpaceOnUse" gradientTransform="matrix(0 4.82588 -4.82126 0 261.555 848.635)"><stop stop-color="#fff"/><stop offset="1"/></radialGradient><radialGradient id="paint54_radial" cx="0" cy="0" r="1" gradientUnits="userSpaceOnUse" gradientTransform="matrix(0 4.82586 -4.82126 0 46.533 909.59)"><stop stop-color="#fff"/><stop offset="1"/></radialGradient><radialGradient id="paint55_radial" cx="0" cy="0" r="1" gradientUnits="userSpaceOnUse" gradientTransform="matrix(0 4.82586 -4.82126 0 188.996 549.423)"><stop stop-color="#fff"/><stop offset="1"/></radialGradient><radialGradient id="paint56_radial" cx="0" cy="0" r="1" gradientUnits="userSpaceOnUse" gradientTransform="matrix(0 4.82587 -4.82127 0 -61.635 603.07)"><stop stop-color="#fff"/><stop offset="1"/></radialGradient><radialGradient id="paint57_radial" cx="0" cy="0" r="1" gradientUnits="userSpaceOnUse" gradientTransform="matrix(0 12.4099 -12.3981 0 111.256 1310.65)"><stop stop-color="#fff"/><stop offset="1"/></radialGradient><radialGradient id="paint58_radial" cx="0" cy="0" r="1" gradientUnits="userSpaceOnUse" gradientTransform="matrix(0 4.82588 -4.82126 0 352.529 899.911)"><stop stop-color="#fff"/><stop offset="1"/></radialGradient><radialGradient id="paint59_radial" cx="0" cy="0" r="1" gradientUnits="userSpaceOnUse" gradientTransform="matrix(0 4.82588 -4.82127 0 78.999 1086.57)"><stop stop-color="#fff"/><stop offset="1"/></radialGradient><radialGradient id="paint60_radial" cx="0" cy="0" r="1" gradientUnits="userSpaceOnUse" gradientTransform="matrix(0 4.82585 -4.82124 0 -96.348 788.876)"><stop stop-color="#fff"/><stop offset="1"/></radialGradient><radialGradient id="paint61_radial" cx="0" cy="0" r="1" gradientUnits="userSpaceOnUse" gradientTransform="matrix(0 1.81111 -1.8094 0 276.285 451.558)"><stop stop-color="#fff"/><stop offset="1"/></radialGradient><radialGradient id="paint62_radial" cx="0" cy="0" r="1" gradientUnits="userSpaceOnUse" gradientTransform="matrix(0 1.81112 -1.8094 0 159.108 324.184)"><stop stop-color="#fff"/><stop offset="1"/></radialGradient><radialGradient id="paint63_radial" cx="0" cy="0" r="1" gradientUnits="userSpaceOnUse" gradientTransform="matrix(0 1.81112 -1.80939 0 246.795 291.174)"><stop stop-color="#fff"/><stop offset="1"/></radialGradient><radialGradient id="paint64_radial" cx="0" cy="0" r="1" gradientUnits="userSpaceOnUse" gradientTransform="matrix(0 1.81111 -1.80938 0 212.97 570.457)"><stop stop-color="#fff"/><stop offset="1"/></radialGradient><radialGradient id="paint65_radial" cx="0" cy="0" r="1" gradientUnits="userSpaceOnUse" gradientTransform="matrix(0 1.81113 -1.80938 0 305.887 483.323)"><stop stop-color="#fff"/><stop offset="1"/></radialGradient><radialGradient id="paint66_radial" cx="0" cy="0" r="1" gradientUnits="userSpaceOnUse" gradientTransform="matrix(0 1.81111 -1.80938 0 222.802 407.047)"><stop stop-color="#fff"/><stop offset="1"/></radialGradient><radialGradient id="paint67_radial" cx="0" cy="0" r="1" gradientUnits="userSpaceOnUse" gradientTransform="matrix(0 1.81112 -1.80939 0 218.172 342.094)"><stop stop-color="#fff"/><stop offset="1"/></radialGradient><radialGradient id="paint68_radial" cx="0" cy="0" r="1" gradientUnits="userSpaceOnUse" gradientTransform="matrix(0 1.81113 -1.80939 0 383.159 426.47)"><stop stop-color="#fff"/><stop offset="1"/></radialGradient><radialGradient id="paint69_radial" cx="0" cy="0" r="1" gradientUnits="userSpaceOnUse" gradientTransform="matrix(0 1.81115 -1.80937 0 357.53 520.368)"><stop stop-color="#fff"/><stop offset="1"/></radialGradient><radialGradient id="paint70_radial" cx="0" cy="0" r="1" gradientUnits="userSpaceOnUse" gradientTransform="matrix(0 1.81112 -1.80939 0 227.035 513.206)"><stop stop-color="#fff"/><stop offset="1"/></radialGradient><radialGradient id="paint71_radial" cx="0" cy="0" r="1" gradientUnits="userSpaceOnUse" gradientTransform="matrix(0 1.81113 -1.80936 0 140.239 565.004)"><stop stop-color="#fff"/><stop offset="1"/></radialGradient><linearGradient id="paint0_linear" x1="135.611" y1="372" x2="244.611" y2="200" gradientUnits="userSpaceOnUse"><stop stop-color="#0E2A90"/><stop offset="1" stop-color="#465CE1" stop-opacity="0"/></linearGradient><linearGradient id="paint1_linear" x1="232.611" y1="343" x2="82.611" y2="343" gradientUnits="userSpaceOnUse"><stop stop-color="#4B60B5" stop-opacity="0"/><stop offset=".505" stop-color="#03F" stop-opacity=".49"/><stop offset="1" stop-color="#4B60B5" stop-opacity="0"/></linearGradient><linearGradient id="paint2_linear" x1="74.589" y1="336.487" x2="0" y2="206.346" gradientUnits="userSpaceOnUse"><stop stop-color="#4B60B5" stop-opacity="0"/><stop offset=".328" stop-color="#03F" stop-opacity=".5"/><stop offset="1" stop-color="#4B60B5" stop-opacity="0"/></linearGradient><linearGradient id="paint3_linear" x1="229.344" y1="263.525" x2="86.518" y2="263.525" gradientUnits="userSpaceOnUse"><stop stop-color="#939598"/><stop offset=".08" stop-color="#7C7D80"/><stop offset=".25" stop-color="#4E4D4F"/><stop offset=".38" stop-color="#322F30"/><stop offset=".45" stop-color="#272425"/><stop offset=".55" stop-color="#434142"/><stop offset=".76" stop-color="#79797B"/><stop offset=".92" stop-color="#9A9C9F"/><stop offset="1" stop-color="#A7A9AC"/></linearGradient><linearGradient id="paint4_linear" x1="-6029.9" y1="9855.28" x2="-12535.8" y2="9855.28" gradientUnits="userSpaceOnUse"><stop stop-color="#939598"/><stop offset=".08" stop-color="#7C7D80"/><stop offset=".25" stop-color="#4E4D4F"/><stop offset=".38" stop-color="#322F30"/><stop offset=".45" stop-color="#272425"/><stop offset=".55" stop-color="#434142"/><stop offset=".76" stop-color="#79797B"/><stop offset=".92" stop-color="#9A9C9F"/><stop offset="1" stop-color="#A7A9AC"/></linearGradient><linearGradient id="paint5_linear" x1="160.376" y1="287.672" x2="160.376" y2="-10.591" gradientUnits="userSpaceOnUse"><stop stop-color="#58595B"/><stop offset=".46" stop-color="#28292A"/><stop offset=".81" stop-color="#0B0B0B"/><stop offset="1"/></linearGradient><linearGradient id="paint6_linear" x1="89.922" y1="146.472" x2="184.996" y2="91.637" gradientUnits="userSpaceOnUse"><stop/><stop offset=".26" stop-color="#070707"/><stop offset=".35" stop-color="#121212"/><stop offset=".51" stop-color="#2F3031"/><stop offset=".72" stop-color="#5F6062"/><stop offset=".98" stop-color="#A1A3A5"/><stop offset="1" stop-color="#A7A9AC"/></linearGradient><linearGradient id="paint7_linear" x1="172.018" y1="104.406" x2="201.366" y2="148.894" gradientUnits="userSpaceOnUse"><stop stop-color="#324DE6"/><stop offset=".12" stop-color="#374EE5"/><stop offset=".27" stop-color="#4751E3"/><stop offset=".43" stop-color="#6057DF"/><stop offset=".6" stop-color="#835ED9"/><stop offset=".78" stop-color="#B068D1"/><stop offset=".97" stop-color="#E774C9"/><stop offset="1" stop-color="#F076C7"/></linearGradient><linearGradient id="paint8_linear" x1="166.246" y1="264.994" x2="166.246" y2="241.062" gradientUnits="userSpaceOnUse"><stop stop-color="#567199"/><stop offset=".38" stop-color="#394E80"/><stop offset=".78" stop-color="#1F2F6B"/><stop offset="1" stop-color="#162463"/></linearGradient><linearGradient id="paint9_linear" x1="-694.266" y1="4131.37" x2="-836.128" y2="4075.44" gradientUnits="userSpaceOnUse"><stop stop-color="#567199"/><stop offset=".38" stop-color="#394E80"/><stop offset=".78" stop-color="#1F2F6B"/><stop offset="1" stop-color="#162463"/></linearGradient><linearGradient id="paint10_linear" x1="-3094.89" y1="4355.87" x2="-3138.69" y2="7466.73" gradientUnits="userSpaceOnUse"><stop stop-color="#324DE6"/><stop offset=".12" stop-color="#374EE5"/><stop offset=".27" stop-color="#4751E3"/><stop offset=".43" stop-color="#6057DF"/><stop offset=".6" stop-color="#835ED9"/><stop offset=".78" stop-color="#B068D1"/><stop offset=".97" stop-color="#E774C9"/><stop offset="1" stop-color="#F076C7"/></linearGradient><linearGradient id="paint11_linear" x1="-3030.69" y1="4254.02" x2="-3074.85" y2="7389.37" gradientUnits="userSpaceOnUse"><stop stop-color="#324DE6"/><stop offset=".12" stop-color="#374EE5"/><stop offset=".27" stop-color="#4751E3"/><stop offset=".43" stop-color="#6057DF"/><stop offset=".6" stop-color="#835ED9"/><stop offset=".78" stop-color="#B068D1"/><stop offset=".97" stop-color="#E774C9"/><stop offset="1" stop-color="#F076C7"/></linearGradient><linearGradient id="paint12_linear" x1="161.061" y1="92.401" x2="161.061" y2="78.202" gradientUnits="userSpaceOnUse"><stop stop-color="#D1D3D4"/><stop offset=".26" stop-color="#C6C8C9"/><stop offset=".71" stop-color="#A9ABAD"/><stop offset="1" stop-color="#939598"/></linearGradient><linearGradient id="paint13_linear" x1="167.713" y1="75.774" x2="144.137" y2="75.774" gradientUnits="userSpaceOnUse"><stop stop-color="#939598"/><stop offset=".73" stop-color="#BCBEC0"/><stop offset=".83" stop-color="#B9BBBD"/><stop offset=".91" stop-color="#AFB1B3"/><stop offset=".98" stop-color="#9EA0A3"/><stop offset="1" stop-color="#989A9D"/></linearGradient><linearGradient id="paint14_linear" x1="149.654" y1="97.14" x2="140.509" y2="88.003" gradientUnits="userSpaceOnUse"><stop stop-color="#F1F2F2"/><stop offset=".19" stop-color="#E6E7E8"/><stop offset=".51" stop-color="#C9CACC"/><stop offset=".94" stop-color="#9A9C9F"/><stop offset="1" stop-color="#939598"/></linearGradient><linearGradient id="paint15_linear" x1="170.453" y1="94.829" x2="152.492" y2="94.829" gradientUnits="userSpaceOnUse"><stop stop-color="#A7A9AC"/><stop offset=".09" stop-color="#949699"/><stop offset=".41" stop-color="#555658"/><stop offset=".68" stop-color="#272728"/><stop offset=".88" stop-color="#0B0B0B"/><stop offset="1"/></linearGradient><linearGradient id="paint16_linear" x1="-693.616" y1="563.13" x2="-760.23" y2="563.13" gradientUnits="userSpaceOnUse"><stop stop-color="#A7A9AC"/><stop offset=".09" stop-color="#949699"/><stop offset=".41" stop-color="#555658"/><stop offset=".68" stop-color="#272728"/><stop offset=".88" stop-color="#0B0B0B"/><stop offset="1"/></linearGradient><linearGradient id="paint17_linear" x1="-1847.34" y1="1375.08" x2="-1921.88" y2="1204.92" gradientUnits="userSpaceOnUse"><stop stop-color="#F1F2F2"/><stop offset=".19" stop-color="#E6E7E8"/><stop offset=".51" stop-color="#C9CACC"/><stop offset=".94" stop-color="#9A9C9F"/><stop offset="1" stop-color="#939598"/></linearGradient><linearGradient id="paint18_linear" x1="-4270.59" y1="3607.79" x2="-3455.94" y2="4854.43" gradientUnits="userSpaceOnUse"><stop stop-color="#324DE6"/><stop offset=".12" stop-color="#374EE5"/><stop offset=".27" stop-color="#4751E3"/><stop offset=".43" stop-color="#6057DF"/><stop offset=".6" stop-color="#835ED9"/><stop offset=".78" stop-color="#B068D1"/><stop offset=".97" stop-color="#E774C9"/><stop offset="1" stop-color="#F076C7"/></linearGradient><linearGradient id="paint72_linear" x1="-15179" y1="10591.3" x2="-9097.55" y2="4609.11" gradientUnits="userSpaceOnUse"><stop stop-color="#A7A9AC"/><stop offset=".06" stop-color="#9A9C9E"/><stop offset=".39" stop-color="#58595B"/><stop offset=".67" stop-color="#29292A"/><stop offset=".88" stop-color="#0B0B0B"/><stop offset="1"/></linearGradient><clipPath id="clip0"><path fill="#fff" transform="matrix(-1 0 0 1 322.611 0)" d="M0 0h315v308H0z"/></clipPath></defs></svg>