<svg width="26" height="26" viewBox="0 0 26 26" fill="none" xmlns="http://www.w3.org/2000/svg">
<path d="M10.1251 10.7553C10.0843 10.7553 10.0431 10.7461 10.0049 10.7262C9.87487 10.6599 9.82328 10.5007 9.88983 10.3707L12.082 1.17394C12.1263 0.988986 12.0123 0.802481 11.8271 0.757596L11.2906 0.631453C11.1074 0.586052 10.9175 0.700329 10.8732 0.885544L8.68619 10.0769C8.66349 10.1687 8.68103 10.2668 8.73211 10.3426C8.81414 10.4633 8.78318 10.6277 8.66246 10.7097C8.54328 10.7912 8.37818 10.761 8.29564 10.6398C8.1584 10.4383 8.11403 10.1876 8.17285 9.95154L10.3593 0.762239C10.4733 0.293268 10.9449 0.0035791 11.4128 0.117597L11.9499 0.24374C12.4194 0.3575 12.7083 0.830083 12.5958 1.29725L10.4032 10.4891C10.3959 10.5193 10.3851 10.5629 10.3603 10.6117C10.3134 10.703 10.2211 10.7553 10.1251 10.7553Z" fill="black"/>
<path d="M16.2005 11.0304C16.0818 11.0304 15.974 10.9502 15.9441 10.8297C15.909 10.6883 15.9951 10.5449 16.137 10.5098L16.2005 10.4941C16.2897 10.4732 16.3594 10.4239 16.4048 10.3514C16.4615 10.2676 16.4791 10.1691 16.4569 10.0796L14.2637 0.88509C14.2431 0.79403 14.1904 0.719738 14.1141 0.672531C14.0362 0.624293 13.9433 0.610105 13.8535 0.631258L13.3129 0.75869C13.2246 0.7801 13.1488 0.835046 13.1008 0.913466C13.0528 0.99137 13.0384 1.08372 13.0606 1.17323L13.9325 4.83575C13.9665 4.97762 13.8788 5.12002 13.7369 5.15381C13.593 5.18812 13.4522 5.09964 13.4186 4.95802L12.5467 1.29679C12.492 1.07108 12.5287 0.836336 12.6499 0.637707C12.7717 0.439077 12.9636 0.299521 13.1906 0.244834L13.7313 0.117401C13.9572 0.0624559 14.1935 0.100118 14.3932 0.223681C14.5903 0.346212 14.727 0.538908 14.7781 0.765655L16.9702 9.9547C17.028 10.1889 16.9836 10.4394 16.8469 10.6401C16.7334 10.8222 16.5456 10.9558 16.3243 11.0077L16.2639 11.0227C16.2428 11.0278 16.2211 11.0304 16.2005 11.0304Z" fill="black"/>
<path d="M15.0165 10.7543C14.9205 10.7543 14.8287 10.7029 14.7823 10.6121C14.7575 10.5634 14.7467 10.5198 14.74 10.4909L13.8887 6.92357C13.8546 6.78169 13.9423 6.63904 14.0842 6.60524C14.2276 6.57042 14.369 6.6589 14.4025 6.80078L15.2533 10.3668C15.3198 10.4968 15.2683 10.6581 15.1382 10.7246C15.099 10.7447 15.0572 10.7543 15.0165 10.7543Z" fill="black"/>
<path d="M18.9316 13.2601H1.18089C0.560234 13.2601 0.0556641 12.7553 0.0556641 12.1346V11.3528C0.0556641 10.7324 0.560234 10.2275 1.18089 10.2275H3.44732C3.59333 10.2275 3.71147 10.3457 3.71147 10.4917C3.71147 10.6377 3.59333 10.7558 3.44732 10.7558H1.18089C0.851728 10.7558 0.583966 11.0236 0.583966 11.3528V12.1346C0.583966 12.4638 0.851728 12.7318 1.18089 12.7318H18.9316C19.0776 12.7318 19.1958 12.85 19.1958 12.996C19.1958 13.142 19.0776 13.2601 18.9316 13.2601Z" fill="black"/>
<path d="M24.4896 10.7558H5.47069C5.32469 10.7558 5.20654 10.6377 5.20654 10.4917C5.20654 10.3457 5.32469 10.2275 5.47069 10.2275H24.4896C24.6356 10.2275 24.7537 10.3457 24.7537 10.4917C24.7537 10.6377 24.6356 10.7558 24.4896 10.7558Z" fill="black"/>
<path d="M20.316 25.9069H5.23312C4.22604 25.9069 3.36807 25.1908 3.19266 24.2043L2.80159 22.0661C2.77579 21.9227 2.87072 21.7849 3.01415 21.7589C3.15551 21.7318 3.29533 21.8275 3.32164 21.9712L3.7127 24.1107C3.84323 24.8459 4.48297 25.3786 5.23312 25.3786H20.316C21.0574 25.3786 21.6972 24.851 21.837 24.1244L23.2738 16.7013C23.3017 16.5579 23.441 16.464 23.5834 16.4924C23.7268 16.52 23.8202 16.6585 23.7928 16.8019L22.356 24.2245C22.1682 25.199 21.3107 25.9069 20.316 25.9069Z" fill="black"/>
<path d="M2.6806 20.2017C2.55575 20.2017 2.44483 20.1127 2.42109 19.9853L1.1478 13.0433C1.13387 12.9662 1.15451 12.8867 1.20507 12.8264C1.25511 12.7663 1.32941 12.7314 1.40783 12.7314H18.9316C19.0776 12.7314 19.1957 12.8496 19.1957 12.9956C19.1957 13.1416 19.0776 13.2597 18.9316 13.2597H1.7246L2.94114 19.8898C2.96745 20.0335 2.87201 20.171 2.72858 20.1973C2.71259 20.2004 2.6966 20.2017 2.6806 20.2017Z" fill="black"/>
<path d="M25.361 18.4146C25.2433 18.4146 25.1267 18.379 25.0267 18.3089L15.703 10.6972C15.6163 10.6265 15.5838 10.5092 15.6214 10.4039C15.6586 10.2987 15.7582 10.2285 15.8701 10.2285H25.361C25.6829 10.2285 25.9445 10.4898 25.9445 10.8112V17.8309C25.9445 18.0491 25.8243 18.2475 25.6303 18.3483C25.5452 18.3927 25.4528 18.4146 25.361 18.4146ZM16.6115 10.7568L25.3455 17.8879C25.3476 17.8884 25.3677 17.8899 25.3868 17.8796C25.4064 17.8695 25.4162 17.853 25.4162 17.8309V10.8112C25.4162 10.7813 25.3914 10.7568 25.361 10.7568H16.6115Z" fill="#E46A4A"/>
</svg>
