<svg width="120" height="129" fill="none" xmlns="http://www.w3.org/2000/svg"><path fill-rule="evenodd" clip-rule="evenodd" d="M70.838 2.456C56.37 1.01 29.274-3.271 17.22 4.656 5.06 12.653 2.785 28.024.44 42.133c-2.106 12.67 3.855 24.483 7.135 36.914 3.565 13.505-3.831 30.912 6.514 40.549 10.796 10.056 37.348 9.459 52.13 7.367 13.947-1.973 18.442-11.951 30.003-19.801 11.893-8.075 15.637 2.187 19.94-11.298 4.307-13.495 5.868-38.259 0-51.183-5.124-11.286-7.524-24.093-17.299-31.945-10.106-8.118-14.995-8.979-28.025-10.28z" fill="#FFEEF2"/><path d="M43.139 45.535v2.397c0 3.92 4.793 9.587 7.19 11.983l1.797 21.593a7.813 7.813 0 007.79 7.166 7.812 7.812 0 007.788-7.166l1.798-21.593c2.396-2.396 7.19-8.062 7.19-11.983v-2.397M59.915 62.312v4.793" stroke="#00325A" stroke-width="4.793" stroke-linecap="round" stroke-linejoin="round"/><path d="M59.915 50.329c9.265 0 16.777-2.146 16.777-4.794 0-2.647-7.511-4.793-16.777-4.793-9.265 0-16.776 2.146-16.776 4.793 0 2.648 7.511 4.794 16.776 4.794z" stroke="#00325A" stroke-width="4.793" stroke-linecap="round" stroke-linejoin="round"/></svg>