<svg width="120" height="129" fill="none" xmlns="http://www.w3.org/2000/svg"><path fill-rule="evenodd" clip-rule="evenodd" d="M70.838 2.456C56.37 1.01 29.274-3.271 17.22 4.656 5.06 12.653 2.785 28.024.44 42.133c-2.106 12.67 3.855 24.483 7.135 36.914 3.565 13.505-3.831 30.912 6.514 40.549 10.796 10.056 37.348 9.459 52.13 7.367 13.947-1.973 18.442-11.951 30.003-19.801 11.893-8.075 15.637 2.187 19.94-11.298 4.307-13.495 5.868-38.259 0-51.183-5.124-11.286-7.524-24.093-17.299-31.945-10.106-8.118-14.995-8.979-28.025-10.28z" fill="#E1F0EE"/><path d="M45.535 43.139l-7.19 7.988m7.19-7.988v43.139-43.14zm0 0l7.19 7.988-7.19-7.988z" stroke="#00325A" stroke-width="4.793" stroke-linecap="round" stroke-linejoin="round"/><path d="M64.708 86.278h19.173l-2.396-9.587H64.708v9.587zm0-16.777h14.38l-2.397-9.586H64.708v9.586zm0-16.776h9.587l-2.397-9.586h-7.19v9.586z" stroke="#00325A" stroke-width="4.793" stroke-miterlimit="5.759" stroke-linecap="round" stroke-linejoin="round"/></svg>