<svg width="711" height="675" fill="none" xmlns="http://www.w3.org/2000/svg"><path fill-rule="evenodd" clip-rule="evenodd" d="M578.223 1.27c82.519 4.633 156.175 28.075 230.502 54.992C900.058 89.338 1005.59 111.373 1059 175.38c59.88 71.756 105.79 169.16 52.5 243.708-53.54 74.913-206.585 60.476-302.794 106.481-87.717 41.944-126.794 139.212-230.483 148.523C473.615 683.485 387.175 618 303.148 570.965 220.83 524.887 146.465 473.948 99.315 406.02 44.84 327.536-32.743 236.432 14.778 155.513 62.517 74.222 208.432 59.624 320.806 28.862 404.158 6.044 489.601-3.708 578.223 1.269z" fill="#E1E5F0"/></svg>