<svg width="774" height="622" viewBox="0 0 774 622" fill="none" xmlns="http://www.w3.org/2000/svg">
<path fill-rule="evenodd" clip-rule="evenodd" d="M407.102 7.77054C465.583 19.3551 505.918 71.6063 559.295 100.333C629.266 137.991 738.437 122.471 767.746 201.866C796.511 279.785 718.883 355.785 680.43 428.472C650.439 485.164 619.708 541.289 569.483 576.641C521.336 610.531 464.024 626.591 407.102 620.861C353.478 615.462 315.781 565.587 264.966 545.986C181.915 513.951 64.8713 551.367 16.7616 470.297C-28.6038 393.85 28.5962 290.605 64.6046 208.352C96.7053 135.026 143.788 69.207 209.093 30.9616C269.153 -4.21246 340.138 -5.49439 407.102 7.77054Z" fill="#C6E1F6"/>
</svg>
