<svg width="774" height="622" fill="none" xmlns="http://www.w3.org/2000/svg"><path fill-rule="evenodd" clip-rule="evenodd" d="M407.102 7.77c58.481 11.585 98.816 63.836 152.193 92.563 69.971 37.658 179.142 22.138 208.451 101.533 28.765 77.919-48.863 153.919-87.316 226.606-29.991 56.692-60.722 112.817-110.947 148.169-48.147 33.89-105.459 49.95-162.381 44.22-53.624-5.399-91.321-55.274-142.136-74.875-83.051-32.035-200.095 5.381-248.204-75.689-45.366-76.447 11.834-179.692 47.843-261.945 32.1-73.326 79.183-139.145 144.488-177.39C269.153-4.212 340.138-5.494 407.102 7.77z" fill="#C6E1F6"/></svg>