<svg width="1338" height="420" viewBox="0 0 1338 420" fill="none" xmlns="http://www.w3.org/2000/svg">
<path fill-rule="evenodd" clip-rule="evenodd" d="M789.843 8.04356C628.523 3.30942 326.409 -10.7154 192.006 15.2502C56.4061 41.4471 31.0491 91.7977 4.9054 138.014C-18.5719 179.517 47.8862 218.213 84.4667 258.932C124.206 303.167 41.7451 360.188 157.096 391.756C277.463 424.697 573.527 422.739 738.351 415.889C893.854 409.425 943.97 376.741 1072.88 351.027C1205.49 324.575 1247.22 358.191 1295.21 314.019C1343.23 269.814 1360.64 188.695 1295.21 146.36C1238.07 109.389 1211.31 67.4378 1102.32 41.7185C989.645 15.1285 935.131 12.3072 789.843 8.04356Z" fill="url(#paint0_linear_632_98)"/>
<defs>
<linearGradient id="paint0_linear_632_98" x1="669" y1="0" x2="669" y2="420" gradientUnits="userSpaceOnUse">
<stop stop-color="#C6E1F6"/>
<stop offset="1" stop-color="#E1F0EE"/>
</linearGradient>
</defs>
</svg>
