<svg width="1338" height="420" fill="none" xmlns="http://www.w3.org/2000/svg"><path fill-rule="evenodd" clip-rule="evenodd" d="M789.843 8.044c-161.32-4.735-463.434-18.76-597.837 7.206-135.6 26.197-160.957 76.548-187.1 122.764-23.478 41.503 42.98 80.199 79.56 120.918 39.74 44.235-42.72 101.256 72.63 132.824 120.367 32.941 416.431 30.983 581.255 24.133 155.503-6.464 205.619-39.148 334.529-64.862 132.61-26.452 174.34 7.164 222.33-37.008 48.02-44.205 65.43-125.324 0-167.659-57.14-36.971-83.9-78.922-192.89-104.642-112.675-26.59-167.189-29.41-312.477-33.674z" fill="url(#paint0_linear_632_98)"/><defs><linearGradient id="paint0_linear_632_98" x1="669" y1="0" x2="669" y2="420" gradientUnits="userSpaceOnUse"><stop stop-color="#C6E1F6"/><stop offset="1" stop-color="#E1F0EE"/></linearGradient></defs></svg>