<svg width="120" height="129" fill="none" xmlns="http://www.w3.org/2000/svg"><path fill-rule="evenodd" clip-rule="evenodd" d="M70.838 2.456C56.37 1.01 29.274-3.271 17.22 4.656 5.06 12.653 2.785 28.024.44 42.133c-2.106 12.67 3.855 24.483 7.135 36.914 3.565 13.505-3.831 30.912 6.514 40.549 10.796 10.056 37.348 9.459 52.13 7.367 13.947-1.973 18.442-11.951 30.003-19.801 11.893-8.075 15.637 2.187 19.94-11.298 4.307-13.495 5.868-38.259 0-51.183-5.124-11.286-7.524-24.093-17.299-31.945-10.106-8.118-14.995-8.979-28.025-10.28z" fill="#E1F0EE"/><path d="M64.708 81.485c9.038 0 13.558 0 16.364-2.81 2.81-2.806 2.81-7.326 2.81-16.363 0-9.038 0-13.558-2.81-16.364-2.806-2.81-7.326-2.81-16.364-2.81h-9.586c-9.038 0-13.558 0-16.364 2.81-2.809 2.806-2.809 7.326-2.809 16.364 0 9.037 0 13.557 2.809 16.364 1.565 1.567 3.662 2.26 6.777 2.564" stroke="#00325A" stroke-width="4.793" stroke-linecap="round" stroke-linejoin="round"/><path d="M59.915 62.312v.023m-9.586-.023v.023m19.173-.023v.023m-4.794 19.15c-2.962 0-6.226 1.198-9.205 2.744-4.788 2.485-7.183 3.729-8.362 2.936-1.179-.791-.956-3.248-.508-8.159l.1-1.116" stroke="#00325A" stroke-width="4.793" stroke-linecap="round"/></svg>