<svg width="41" height="41" fill="none" xmlns="http://www.w3.org/2000/svg"><path fill-rule="evenodd" clip-rule="evenodd" d="M11.867.12c2.147-.098 2.831-.12 8.3-.12 5.467 0 6.152.024 8.297.12 2.144.098 3.608.44 4.89.936a9.904 9.904 0 013.564 2.324 9.833 9.833 0 012.32 3.563c.499 1.281.839 2.745.938 4.886.099 2.15.12 2.835.12 8.301 0 5.469-.023 6.153-.12 8.3-.097 2.14-.44 3.605-.937 4.886a9.875 9.875 0 01-2.32 3.566 9.87 9.87 0 01-3.566 2.321c-1.28.498-2.745.838-4.886.937-2.148.099-2.833.12-8.3.12-5.469 0-6.153-.023-8.3-.12-2.141-.097-3.605-.44-4.886-.937a9.877 9.877 0 01-3.567-2.32 9.868 9.868 0 01-2.322-3.565C.596 32.037.255 30.573.157 28.43c-.1-2.15-.121-2.834-.121-8.3 0-5.469.024-6.153.12-8.298.098-2.145.44-3.609.936-4.89a9.875 9.875 0 012.324-3.565 9.868 9.868 0 013.563-2.322C8.26.56 9.724.22 11.865.12h.002zm16.434 3.624c-2.123-.097-2.76-.117-8.135-.117s-6.011.02-8.134.117c-1.964.09-3.029.417-3.739.694-.939.366-1.61.8-2.315 1.504a6.244 6.244 0 00-1.504 2.315c-.277.71-.604 1.775-.694 3.739-.097 2.123-.117 2.76-.117 8.134 0 5.375.02 6.012.117 8.135.09 1.963.417 3.029.694 3.739a6.248 6.248 0 001.504 2.315 6.248 6.248 0 002.315 1.504c.71.276 1.775.604 3.739.694 2.123.096 2.758.117 8.134.117 5.377 0 6.012-.02 8.135-.117 1.963-.09 3.029-.418 3.738-.694.94-.366 1.61-.8 2.316-1.504a6.247 6.247 0 001.504-2.315c.276-.71.604-1.775.693-3.74.097-2.122.117-2.759.117-8.134 0-5.374-.02-6.011-.117-8.134-.09-1.964-.417-3.029-.693-3.739-.366-.939-.8-1.61-1.505-2.315a6.246 6.246 0 00-2.315-1.504c-.71-.276-1.775-.604-3.738-.694zM17.595 26.336a6.714 6.714 0 007.32-10.955 6.717 6.717 0 10-7.32 10.955zM12.85 12.814a10.347 10.347 0 1114.633 14.632A10.347 10.347 0 0112.85 12.814zm19.958-1.49a2.447 2.447 0 10-3.358-3.56 2.447 2.447 0 003.358 3.56z" fill="#00325A"/></svg>