<svg width="320" height="322" fill="none" xmlns="http://www.w3.org/2000/svg"><path fill-rule="evenodd" clip-rule="evenodd" d="M109.967 266.464c-25.739-4.317-59.696 2.901-73.048-21.496-13.428-24.535 9.634-57.969 13.035-88.157 3.05-27.076-8.081-55.866 5.83-79.28 14.092-23.718 40.73-33.159 64.709-39.442 21.843-5.724 42.207 1.872 63.551 5.832 24.907 4.621 52.746 1.262 71.442 19.215 21.141 20.302 35.869 50.658 35.552 83.529-.323 33.529-14.486 68.613-37.249 92.535-21.097 22.171-50.961 23.795-78.391 28.995-22.452 4.256-43.556 1.938-65.431-1.731z" fill="#C6E1F6"/><path d="M138.342 142.759a.28.28 0 01-.279-.279v-9.766c0-.074.029-.145.082-.197a.275.275 0 01.197-.082c.074 0 .145.029.197.082a.275.275 0 01.082.197v9.755a.277.277 0 01-.17.267.27.27 0 01-.109.023zm-14.347 6.228a.283.283 0 01-.201-.078l-7.121-7.127a.27.27 0 01-.084-.195.264.264 0 01.084-.195.28.28 0 01.397 0l7.12 7.12a.28.28 0 01-.089.456.259.259 0 01-.106.019zm28.683 0a.277.277 0 01-.196-.078.288.288 0 010-.397l7.121-7.12a.28.28 0 01.396 0 .267.267 0 010 .39l-7.12 7.115a.288.288 0 01-.201.09z" fill="#FFEEF2"/><path d="M195.886 155.423c1.482.594 2.706 1.735 3.453 3.22a7.528 7.528 0 01.623 4.886c-12.915 63.212-33.504 35.876-37.381 31.986-2.829-2.834-15.123-24.514-16.23-28.1l6.546-4.384c3.697 5.627 18.718 20.971 21.022 22.802.687.563 2.965 9.226 13.043-25.657a7.549 7.549 0 011.336-2.605 7.042 7.042 0 012.193-1.84 6.516 6.516 0 012.68-.764 6.296 6.296 0 012.718.439l-.003.017z" fill="#FFBE9D"/><path d="M204.398 144.706c-6.864-9.486-18.778-5.401-23.058 8.371a99.573 99.573 0 00-4.28 24.765l7.226 2.188 17.567 5.335s4.933-18.03 4.76-30.692c-.05-4.18-.675-7.785-2.215-9.967z" fill="#093636"/><path opacity=".2" d="M191.479 161.9a27.03 27.03 0 00-2.232 5.256 95.692 95.692 0 00-3.102 13.337l11.082 3.349-5.748-21.942z" fill="#000"/><path d="M208.628 135.65a217.713 217.713 0 0125.061-2.188c6.678-.182 13.361.071 20.006.759 1.06 25.497 4.559 86.836 4.944 95.932h-60.145c-14.877-78.315-6.507-89.955-6.507-89.955a110.303 110.303 0 0116.641-4.548z" fill="#093636"/><path opacity=".2" d="M256.658 192.887l-.949-21.49-16.099-19.531c-1.306 26.814 12.768 34.42 17.048 41.021z" fill="#000"/><path d="M211.664 120.119c2.271 6.524 3.125 13.616-6.256 16.741 0 0-3.638 9.068 9.152 7.986 15.976-1.351 17.55-10.313 17.55-10.313-6.507-5.217-6.211-21.104-5.273-29.843l-15.173 15.429z" fill="#FFBE9D"/><path opacity=".2" d="M221.256 115.605c-.056 3.862-4.732 8.326-8.342 9.18a27.088 27.088 0 00-1.239-4.677l8.984-9.124c.474 1.492.676 3.057.597 4.621z" fill="#000"/><path d="M224.939 84.556a15.96 15.96 0 00-21.506-6.836c-10.983 5.625-11.055 23.047-7.646 33.281 3.795 11.367 18.617 15.447 26.675 5.681 5.346-6.551 4.564-13.315 4.263-25.022a15.925 15.925 0 00-1.786-7.104z" fill="#FFBE9D"/><path d="M207.093 95.722c-.625.062-1.066.871-.982 1.82.084.948.67 1.674 1.278 1.624.608-.05 1.055-.871.965-1.82-.089-.948-.636-1.68-1.261-1.624zm-10.859.72c-.625.056-1.038.865-.965 1.82.072.954.636 1.674 1.266 1.618.631-.056 1.049-.87.966-1.82-.084-.948-.642-1.657-1.267-1.618zm15.229-3.906A4.42 4.42 0 00207.735 91a.557.557 0 01-.636-.468.558.558 0 01.469-.625 5.537 5.537 0 014.732 1.903.558.558 0 010 .78.61.61 0 01-.837-.038v-.017zm-18.622.831a.559.559 0 01-.067-.78 5.478 5.478 0 014.615-2.16.566.566 0 01.478.4.575.575 0 01-.047.428.567.567 0 01-.554.288 4.468 4.468 0 00-3.644 1.802.556.556 0 01-.558.19.45.45 0 01-.223-.168z" fill="#093636"/><path d="M269.643 194.879c-3.906 14.866-29.765 3.348-33.979.91a66.454 66.454 0 01-10.848-7.578c-3.303-2.79-7.812-6.819-10.602-10.134l9.023-1.791c6.088 4.464 11.044 4.815 18.013 7.678a30.383 30.383 0 009.52 2.176 12.83 12.83 0 002.662-.189l-7.968-28.588 15.803-5.229s10.062 36.384 8.376 42.745z" fill="#FFBE9D"/><path d="M237.902 153.59c1.373 8.198 5.43 16.083 9.598 23.276l21.959-5.854s-5.184-31.864-14.001-35.82c-9.459-4.241-19.386 5.424-17.556 18.398z" fill="#093636"/><path d="M223.237 176.286l-4.364-9.007-2.187-4.598a4.727 4.727 0 00-5.966-2.383l-3.052 1.172a4.73 4.73 0 00-2.935 5.368l.909 4.263a4.82 4.82 0 001.909 2.908l8.169 5.781 7.517-3.504z" fill="#FFBE9D"/><path d="M232.11 81.476c3.309 1.629 5.022 10.513 5.156 12.578.369 6.596-5.156 7.544-4.827 12.717.212 3.349-2.913 7.21-6.093 8.287-.821-4.33 2.427-10.368-3.109-10.982-1.612-1.412-1.283-7.478-.753-9.554-2.846-.725-4.598-3.644-4.392-6.573a5.144 5.144 0 01-4.414-.251c-1.334-.742-2.533-2.037-2.79-3.544a1.643 1.643 0 01.698 2.02c-1.825 4.241-6.228 1.825-7.327-.19a3.14 3.14 0 01.007 1.767 3.138 3.138 0 01-2.556 2.227c-.594.086-1.201 0-1.748-.25a3.346 3.346 0 01-1.769-2.985 5.812 5.812 0 01-1.674 3.187 4.25 4.25 0 01-3.349 1.15 3.377 3.377 0 01-2.74-2.144c-.396-1.155.246-2.282 1.284-2.924a3.157 3.157 0 01-2.79-1.674 2.686 2.686 0 01.558-3.136c.854-.753 2.885-1.038 3.688-.229a19.345 19.345 0 0125.218-9.246c.703.346 11.183-4.453 13.722 9.749z" fill="#093636"/><path d="M229.426 96.52c-3.778-.385-6.736 4.09-7.573 7.316-.909 3.555 1.049 6.864 4.771 5.686a11.105 11.105 0 006.479-5.485c1.624-3.226.101-7.137-3.677-7.517z" fill="#FFBE9D"/><path d="M200.14 111.04s3.008-1.501 11.925-3.638c-.39 2.935-1.819 5.58-6.395 6.663a4.273 4.273 0 01-5.53-3.025z" fill="#093636"/><path d="M207.261 111.414a8.596 8.596 0 00-4.66 2.511 5.12 5.12 0 003.047.112 8.502 8.502 0 004.654-2.505 4.89 4.89 0 00-3.041-.118z" fill="#FFBE9D"/><path d="M200.525 110.867a1.912 1.912 0 001.719.994 49.686 49.686 0 007.734-2.584 2.614 2.614 0 001.674-1.802 75.277 75.277 0 00-11.127 3.392z" fill="#fff"/><path d="M148.26 150.813c-1.149.485-3.208 2.204-4.776 3.593-1.825 1.624-4.007 2.763-2.467 5.943.597 1.239 1.116 3.047 2.383 5.536 0 0 2.996 5.536 6.138 7.874 0 0 4.264-1.557 4.933-4.018.289-2.32.451-4.654.486-6.992a27.36 27.36 0 00-.424-5.993c-.86-4.359-3.572-7.093-6.273-5.943z" fill="#FFBE9D"/><path d="M146.96 170.517c-.176 0-.35-.041-.507-.12a1.126 1.126 0 01-.397-.338l-8.527-11.813c-1.205-1.513.324-3.823.642-4.269a1.115 1.115 0 111.819 1.294 3.177 3.177 0 00-.664 1.674l8.538 11.82a1.119 1.119 0 01.089 1.16 1.12 1.12 0 01-.993.609v-.017zm-46.229 11.863l13.906-6.474c1.255-16.785-4.894-18.973-13.125-21.45-18.812 12.349-.781 27.924-.781 27.924z" fill="#FFBE9D"/><path d="M61.869 228.696a236.071 236.071 0 0025.039 1.73h6.138c7.701-.134 13.951-.831 15.966-2.321-.106-14.955 4.341-33.482 5.764-44.157.486-6.965-.162-8.036-2.427-15.341-3.153-7.522-5.257-14.308-13.873-15.446-2.36-.307-4.872-.597-7.254-.798-7.255-.62-13.918-.374-22.076 0-2.099.089-4.141.245-6.072.43-7.215.686-11.718 7.148-9.704 13.878 8.75 29.001 9.481 49.129 8.499 62.025z" fill="#FFEEF2"/><path opacity=".1" d="M61.869 228.696a236.071 236.071 0 0025.039 1.73h6.138c7.701-.134 13.951-.831 15.966-2.321-.106-14.955 4.341-33.482 5.764-44.157.486-6.965-.162-8.036-2.427-15.341-3.153-7.522-5.257-14.308-13.873-15.446-2.36-.307-4.872-.597-7.254-.798-7.255-.62-13.918-.374-22.076 0-2.099.089-4.141.245-6.072.43-7.215.686-11.718 7.148-9.704 13.878 8.75 29.001 9.481 49.129 8.499 62.025z" fill="#fff"/><path d="M110.781 230.42a1.131 1.131 0 000-.385c-.097-.959-.192-1.93-.285-2.913a1.048 1.048 0 00-1.116-.965 214.027 214.027 0 01-46.98 0 1.013 1.013 0 00-1.044.647c-.391.943-.787 1.875-1.189 2.791a1.27 1.27 0 00-.084.284 1.15 1.15 0 00.056.558l50.642-.017z" fill="#093636"/><path d="M130.664 155.795s6.64 5.022 5.864 6.953c-.965 2.388-1.261 4.576-6.724 9.38 0 0-4.827 4.035-8.61 5.062 0 0-3.388-3.019-3.109-5.581a65.109 65.109 0 012.132-6.696 26.776 26.776 0 012.601-5.413c2.399-3.7 5.273-5.117 7.846-3.705z" fill="#FFBE9D"/><path opacity=".2" d="M53.884 163.908s-2.517 8.371 9.012 21.501c8.37 9.487 15.29 15.865 21.953 22.221a7.77 7.77 0 0010.402.302l17.578-12.132 1.64-9.559-21.607 15.307-38.978-37.64z" fill="#000"/><path d="M55.653 169.946c-2.166-3.142-2.194-8.326.245-11.267a7.362 7.362 0 0110.357-.959l.274.234 1.4 1.217c.525.413 1.038.876 1.574 1.3 1.116.865 20.178 25.826 22.662 26.858l-1.373-.324c.491.14 1.01.151 1.507.034.92-.162 15.775-9.414 16.819-10.151l3.114-2.193 5.853-3.064c1.2-.842 6.585 2.551 5.307 4.303-4.765 7.851-14.704 18.817-26.372 25.759-4.258 2.533-9.113 3.716-12.835.474-8.064-6.953-20.692-20.859-28.532-32.221z" fill="#FFBE9D"/><path d="M73.582 131.275c.904 4.643 2.919 13.326 1.496 18.75-2.02 7.723 9.603 20.145 20.68 20.089 5.581-1.584 6.066-11.718 2.07-14.257-3.147-1.981-8.727-3.471-8.18-11.719l-16.066-12.863z" fill="#FFBE9D"/><path opacity=".2" d="M81.595 136.129l8.036 8.002c-.34 1.239.419 4.705.419 4.705-3.036-.893-8.85-2.858-9.33-8.371-.006-1.49.292-2.965.875-4.336z" fill="#000"/><path d="M67.148 121.414c3.571 11.295 4.833 16.15 12.143 20.592 10.926 6.696 24.068-.162 23.889-12.277-.1-10.91-5.904-27.528-18.309-29.308a16.15 16.15 0 00-17.723 20.993z" fill="#FFBE9D"/><path d="M99.508 129.813a7.987 7.987 0 01-7.338-.084.285.285 0 01-.095-.391.272.272 0 01.071-.077.274.274 0 01.298-.012 7.59 7.59 0 006.819.056.286.286 0 01.398.229.266.266 0 01-.142.262l-.01.017zM81.936 117.33a.559.559 0 01.469-.452c2.65-.369 4.157-3.348 4.168-3.376a.561.561 0 01.76-.246.563.563 0 01.245.759c-.067.151-1.853 3.527-5.023 3.973a.551.551 0 01-.415-.102.562.562 0 01-.22-.366l.016-.19zm15.976-6.993a.56.56 0 00-.284-1.043 5.618 5.618 0 00-4.587 2.327.561.561 0 00.01.63.582.582 0 00.366.235.568.568 0 00.578-.252 4.478 4.478 0 011.611-1.347 4.476 4.476 0 012.05-.461.734.734 0 00.256-.089zm-11.886 10.692a.533.533 0 01-.206-.061.431.431 0 01-.123-.592 4.3 4.3 0 013.348-2.031.416.416 0 01.419.413.425.425 0 01-.419.43 3.434 3.434 0 00-2.634 1.635.42.42 0 01-.385.206zm11.061-6.925c.46-.012.911-.133 1.317-.351.764-.385.853-.597.853-.597s-.524 1.372-1.082 1.439a1.54 1.54 0 01-1.088-.491z" fill="#093636"/><path d="M97.086 114.104c-.558.251-.73 1.161-.346 2.037.386.876 1.172 1.373 1.73 1.116.558-.257.72-1.161.335-2.037-.385-.876-1.144-1.373-1.719-1.116z" fill="#093636"/><path d="M135.077 166.197c.944-1.998 2.171-4.498 2.372-6.697 1.066.101 1.295-1.066 1.027-1.769-.268-.703-.798-.708-1.529-.558a2.292 2.292 0 00-.948.444 2.291 2.291 0 00-.654.817c-.775 1.557-1.439 3.298-2.232 4.855 1.172 1.005 1.406 1.49 1.964 2.908z" fill="#FFBE9D"/><path d="M69.692 101.493a3.907 3.907 0 00-4.006-.385 8.81 8.81 0 00-3.209 2.706 21.534 21.534 0 00-4.654 10.379 17.215 17.215 0 002.093 11.105c.692 1.161 1.752 2.338 3.102 2.299-.837-.714-.853-1.4-.848-2.5.103-1.092.126-2.191.067-3.286a10.992 10.992 0 001.518 6.534 3.3 3.3 0 001.044 1.072 1.735 1.735 0 001.372.122c.793-.251 9.398 10.43 9.398 10.43.825-4.224-5.676-14.548-3.5-14.548 8.371 0-.658-20.218-2.377-23.917v-.011z" fill="#093636"/><path d="M65.892 128.077a8.695 8.695 0 005.547 3.6c2.986.524 4.14-2.232 3.109-4.878-.972-2.399-3.684-5.58-6.569-4.882a3.905 3.905 0 00-2.79 4.726c.132.522.371 1.011.703 1.434z" fill="#FFBE9D"/><path d="M72.26 98.055a5.134 5.134 0 00-2.79 5.1c.078.891.212 1.777.401 2.651a11.025 11.025 0 002.673 5.307c1.395 1.434 1.842 3.538 3.834 3.303.62-.485 2.489-1.3 3.108-1.785-2.327-1.284-3.6-3.656-4.576-6.139 1.373 2.757 4.068 3.962 6.535 5.168 0 0 3.303-1.211 4.068-2.143a10.605 10.605 0 01-4.715-5.43 11.945 11.945 0 006.796 4.57c1.853-.558 3.622-1.021 5.48-1.596-1.568-2.405-3.381-5.072-6.077-6.065 4.213 1.026 6.139 3.443 7.31 5.786.62-.217 11.758-.926-3.554-8.928-5.24-2.746-13.276-2.389-18.493.2z" fill="#093636"/><path d="M72.03 131.163a.976.976 0 10.001-1.953.976.976 0 000 1.953zm.838 1.339a.431.431 0 01-.516.421.427.427 0 01-.336-.34.431.431 0 01.821-.245.428.428 0 01.03.164zm-.196 1.184l.118 7.332 1.512 1.217.647-1.825-2.277-6.724z" fill="#FFEEF2"/></svg>