<svg width="320" height="336" fill="none" xmlns="http://www.w3.org/2000/svg"><path fill-rule="evenodd" clip-rule="evenodd" d="M108.709 280.121c-25.468-4.135-59.269 4.007-72.133-21.47-12.938-25.623 10.465-61.197 14.312-93.039 3.45-28.561-7.143-58.699 7.026-83.577 14.351-25.2 40.926-35.566 64.812-42.565 21.76-6.376 41.843 1.298 62.957 5.128 24.637 4.47 52.308.488 70.574 19.095 20.656 21.04 34.792 52.772 33.963 87.391-.846 35.311-15.445 72.481-38.403 98.034-21.276 23.684-50.929 25.869-78.223 31.782-22.341 4.84-43.241 2.736-64.885-.779z" fill="#E1E5F0"/><path d="M106.875 71.069l-6.012-8.735 9.773 4.37-.544-13.316 7.635 8.724 6.305-10.417 3.043 11.834 9.556-1.134-6.339 10.241 10.377 6.708-13.01-2.222-.431 10.805-8.932-7.292-9.377 8.018 1.133-10.533-11.792-.968 8.615-6.083z" fill="#fff"/><path d="M106.875 71.07s-.183.14-.549.403l-1.653 1.184-6.383 4.536-.03-.11 11.797.942h.089v.09c-.336 3.155-.712 6.714-1.118 10.539l-.163-.09 9.372-8.034.07-.056.069.055 8.932 7.303-.193.091c.134-3.427.277-7.056.426-10.81v-.142h.138l12.99 2.248-.089.237-9.808-6.356-.549-.352-.109-.071.069-.11 6.344-10.237.119.196-9.556 1.13h-.104l-.029-.106-3.039-11.84.213.036c-2.197 3.622-4.3 7.091-6.309 10.407l-.08.132-.099-.111-7.625-8.72.173-.07c.198 4.919.371 9.37.529 13.316v.13l-.118-.055-9.769-4.39.07-.09 4.453 6.552 1.168 1.663c.252.373.371.56.371.56s-.143-.192-.406-.565l-1.182-1.658-4.494-6.467-.123-.176.193.085 9.788 4.35-.114.08-.564-13.32v-.282l.183.211 7.646 8.72h-.179c2-3.317 4.098-6.79 6.295-10.418l.148-.247.07.277 3.053 11.829-.134-.09 9.541-1.105.267-.03-.143.227c-2.072 3.36-4.185 6.774-6.339 10.242l-.04-.182.549.353 9.828 6.36.535.343-.604-.13-13.01-2.234.144-.116c-.149 3.735-.297 7.38-.436 10.806v.242l-.183-.151-8.907-7.303h.138c-3.345 2.853-6.512 5.544-9.402 8.014l-.188.156v-.247c.416-3.82.807-7.379 1.148-10.534l.079.096-11.792-1.008h-.168l.138-.096 6.394-4.475 1.672-1.165.579-.393z" fill="#263238"/><path d="M133.361 83.331s-.213.03-.565.177a2.628 2.628 0 00-1.197 1.048 2.553 2.553 0 00-.371 1.043c-.046.425.03.854.218 1.235.191.457.517.843.932 1.105a2.337 2.337 0 002.722-.164 2.42 2.42 0 00.799-1.208c.143-.402.167-.839.069-1.255a2.543 2.543 0 00-.494-1.008 2.616 2.616 0 00-1.312-.897 5.7 5.7 0 00-.584-.11h.154c.064-.005.128-.005.193 0 .086.009.172.024.257.044a2.581 2.581 0 011.391.883c.254.3.436.654.534 1.038a2.33 2.33 0 01-.059 1.345 2.787 2.787 0 01-.822 1.24c-.407.356-.915.57-1.45.615a2.49 2.49 0 01-1.509-.438 2.682 2.682 0 01-.965-1.114 2.4 2.4 0 01-.218-1.33c.074-.47.266-.913.558-1.284a2.694 2.694 0 011.11-.834c.082-.031.166-.057.252-.075a.726.726 0 01.188-.03c.114-.03.169-.036.169-.026zm6.273 6.351s-.133.03-.351.126c-.305.14-.561.37-.737.66a1.451 1.451 0 00-.09 1.406c.129.269.333.492.586.643a1.46 1.46 0 001.645-.1c.234-.18.41-.427.506-.71a1.459 1.459 0 00-.252-1.385 1.653 1.653 0 00-.807-.565c-.228-.07-.366-.065-.366-.08a.704.704 0 01.381 0c.349.08.663.273.896.549.161.194.279.42.346.665.07.287.058.587-.035.867a1.659 1.659 0 01-.55.824 1.61 1.61 0 01-1.863.11 1.653 1.653 0 01-.64-.752 1.54 1.54 0 01-.134-.857c.036-.25.128-.488.268-.696.194-.306.483-.536.821-.655a.798.798 0 01.376-.05zM116.303 65.45l.049 5.543c.003.22.084.43.228.593a.878.878 0 001.197.122.91.91 0 00.347-.579l.9-5.544a.705.705 0 00-.033-.284.698.698 0 00-.64-.487l-1.326-.055a.685.685 0 00-.663.418.728.728 0 00-.059.272zm2.097 9.646a1.35 1.35 0 01-.48.617 1.314 1.314 0 01-1.478.027 1.345 1.345 0 01-.501-.6 1.366 1.366 0 01.262-1.482 1.31 1.31 0 011.882-.035 1.36 1.36 0 01.407.952 1.38 1.38 0 01-.092.521zm2.05-9.42l.049 5.544c.003.22.084.432.229.595a.879.879 0 00.558.292.868.868 0 00.644-.168.901.901 0 00.346-.578l.901-5.544a.709.709 0 00-.371-.748.677.677 0 00-.283-.073l-1.331-.056a.681.681 0 00-.533.198.708.708 0 00-.209.538zm2.112 9.652a1.361 1.361 0 01-.48.617 1.314 1.314 0 01-1.478.026 1.345 1.345 0 01-.501-.599 1.366 1.366 0 01.262-1.482 1.308 1.308 0 011.882-.035 1.36 1.36 0 01.407.952c.003.178-.028.355-.092.52z" fill="#263238"/><path d="M203.031 75.293l4.518-6.557-7.338 3.276.405-9.995-5.73 6.547-4.731-7.817-2.291 8.88-7.17-.846 4.76 7.686-7.794 5.04 9.769-1.673.321 8.114 6.705-5.478 7.042 6.028-.851-7.913 8.858-.726-6.473-4.566z" fill="#fff"/><path d="M203.02 75.293l.445.297 1.262.872 4.8 3.347.139.095h-.169l-8.853.751.075-.095c.262 2.368.554 5.04.866 7.912l.029.247-.188-.16-7.051-6.014h.138l-6.7 5.484-.183.151v-.242l-.327-8.114.144.12-9.769 1.674-.623.11.534-.347 7.383-4.773.411-.267-.04.181a1281.34 1281.34 0 01-4.76-7.675l-.144-.232.268.03 7.17.857-.133.096 2.291-8.881.069-.277.148.242 4.726 7.827h-.178l5.74-6.552.188-.212v.282c-.153 3.695-.296 7.056-.425 10l-.114-.08 7.349-3.257.193-.085-.119.176-3.38 4.843-.876 1.25-.312.429.278-.424.851-1.255 3.34-4.914.074.091-7.334 3.301-.118.05v-.13c.113-2.964.247-6.305.391-10l.173.07-5.721 6.553-.099.116-.079-.131-4.741-7.812.218-.036c-.737 2.863-1.484 5.832-2.281 8.886l-.03.106h-.109l-7.17-.847.119-.202 4.755 7.682.065.11-.104.071-.416.267-7.378 4.773-.089-.242 9.768-1.668h.139v.141c.108 2.807.217 5.544.316 8.115l-.193-.086 6.711-5.474.074-.055.069.055 7.032 6.048-.158.091c-.307-2.873-.589-5.544-.837-7.913v-.09h.084l8.858-.701-.049.086-4.79-3.423-1.238-.892c-.262-.221-.405-.327-.405-.327z" fill="#263238"/><path d="M183.146 84.496s.159 0 .426.136a2.013 2.013 0 011.178 1.567 1.73 1.73 0 01-.164.927c-.146.34-.391.625-.701.819a1.758 1.758 0 01-2.032-.123 1.815 1.815 0 01-.602-.897 1.7 1.7 0 01-.055-.938c.088-.334.257-.64.494-.888s.532-.43.857-.528c.278-.08.441-.07.441-.085a.538.538 0 00-.119 0 .96.96 0 00-.331.03 1.969 1.969 0 00-.92.517 2.02 2.02 0 00-.53.924 1.82 1.82 0 00.044 1.008c.121.359.337.676.624.917.304.27.686.433 1.088.464.402.013.798-.102 1.134-.327.312-.208.562-.5.722-.842.151-.312.208-.663.163-1.008a2.036 2.036 0 00-.311-.822 1.938 1.938 0 00-.96-.78.577.577 0 00-.327-.055l-.119-.016zm-4.71 4.773s.099 0 .263.095c.232.104.427.28.554.504a1.081 1.081 0 01.069 1.054 1.185 1.185 0 01-.432.477 1.16 1.16 0 01-.612.178 1.149 1.149 0 01-.609-.245 1.188 1.188 0 01-.381-.541 1.093 1.093 0 01.188-1.044c.155-.2.365-.348.604-.423.173-.05.277-.05.277-.066a.63.63 0 00-.287 0 1.263 1.263 0 00-.673.414c-.122.146-.21.318-.257.504a1.16 1.16 0 000 .65c.08.24.226.45.421.608.195.157.43.254.677.279.249.007.495-.06.707-.194.212-.133.381-.327.486-.557a1.13 1.13 0 00.099-.64 1.222 1.222 0 00-.198-.504 1.25 1.25 0 00-.619-.504.605.605 0 00-.277-.045zm17.518-18.2l-.034 4.178a.685.685 0 01-.174.44.659.659 0 01-.415.215.66.66 0 01-.466-.132.685.685 0 01-.257-.417l-.673-4.158a.548.548 0 01.109-.425.528.528 0 01.386-.195l.99-.04a.486.486 0 01.387.142.51.51 0 01.147.392zm-1.585 7.248c.074.183.199.341.36.453a.973.973 0 001.095.014c.164-.108.292-.262.37-.444a1.024 1.024 0 00-.192-1.099.983.983 0 00-1.068-.245.987.987 0 00-.555.54 1.04 1.04 0 00-.01.78zm-1.528-7.072l-.039 4.153a.67.67 0 01-.168.449.65.65 0 01-.421.217.644.644 0 01-.475-.13.664.664 0 01-.252-.43l-.678-4.138a.544.544 0 01.11-.423.523.523 0 01.385-.197l.989-.04a.524.524 0 01.507.328.528.528 0 01.042.211zm-1.583 7.243c.073.184.198.342.359.454a.978.978 0 001.466-.43 1.024 1.024 0 00-.192-1.1.973.973 0 00-1.399-.033 1.003 1.003 0 00-.306.716c-.002.136.023.269.072.393z" fill="#263238"/><path d="M199.323 212.356h-82.561v53.425h82.561v-53.425z" fill="#455A64"/><path d="M197.522 210.834h-82.848c-4.963 0-8.986 4.098-8.986 9.153v.443c0 5.055 4.023 9.153 8.986 9.153h82.848c4.964 0 8.987-4.098 8.987-9.153v-.443c0-5.055-4.023-9.153-8.987-9.153z" fill="#455A64"/><path d="M199.432 229.331c0 .071-19.299.131-43.052.131s-43.077-.06-43.077-.131c0-.07 19.299-.136 43.077-.136 23.777 0 43.052.061 43.052.136zm-71.63 36.884c-.069 0-.128-8.145-.128-18.19 0-10.045.059-18.19.128-18.19.07 0 .129 8.14.129 18.19s-.069 18.19-.129 18.19zm52.172-44.197a13.554 13.554 0 01-.321-1.381 19.253 19.253 0 00-1.069-3.23 18.697 18.697 0 00-1.633-2.969 13.65 13.65 0 01-.787-1.174c.358.31.672.667.935 1.063a15.005 15.005 0 011.722 2.974c.45 1.057.782 2.163.99 3.296.115.465.17.942.163 1.421zm4.435-2.802c-.045 0-.228-.539-.668-1.351a10.47 10.47 0 00-2.222-2.792 10.414 10.414 0 00-3.024-1.85c-.851-.327-1.415-.433-1.405-.504.135-.009.27.003.401.036a6.86 6.86 0 011.064.272c2.324.8 4.246 2.5 5.349 4.732.166.334.303.681.411 1.039.055.132.087.274.094.418z" fill="#263238"/><path d="M145.657 115.391l-12.317 2.041-.901 25.296v49.962h55.375v-58.575l-7.191-16.683-34.966-2.041z" fill="#C6E1F6"/><path d="M133.341 117.432s-9.972 4.894-11.664 15.841c-1.692 10.947-6.156 23.124-7.002 25.583-.846 2.46-3.622 12.666.604 16.849s6.037 3.811 8.694 3.443c2.658-.368 7.448-4.491 9.531-6.638 2.509-2.591 1.168-7.056 1.168-7.056l-1.331-48.022zm47.282 0s7.19 1.628 10.565 6.885c2.925 4.536 7.042 18.714 7.042 18.714s6.507 18.144 5.711 23.36c-.797 5.217-7.834 11.996-12.114 9.017-3.831-2.671-6.894-5.04-8.566-7.086a5.956 5.956 0 01-.891-3.236l1.742-25.624-3.489-22.03z" fill="#C6E1F6"/><path d="M118.118 162.299a2.66 2.66 0 01-.603-1.381 6.154 6.154 0 01.361-3.624 4.942 4.942 0 011.138-1.673 2.395 2.395 0 011.524-.61c.369-.011.737.04 1.089.151.13.031.256.082.371.151a8.69 8.69 0 00-1.45-.116 2.255 2.255 0 00-1.381.605 5.065 5.065 0 00-1.059 1.603 6.422 6.422 0 00-.41 3.483c.087.485.228.958.42 1.411zm16.216-20.403a40.822 40.822 0 010-4.667c.007-1.558.101-3.115.282-4.662a43.248 43.248 0 01-.024 4.667 43.73 43.73 0 01-.258 4.662z" fill="#263238"/><path d="M118.851 155.862c0 .076-.495 0-1.069.116s-.989.368-1.024.308c-.035-.061.337-.439.99-.57a1.319 1.319 0 011.103.146zm63.806-18.622a9.347 9.347 0 01-.232-1.422 73.432 73.432 0 00-.559-3.412 63.518 63.518 0 00-.748-3.377 9.33 9.33 0 01-.311-1.406c.214.432.38.887.494 1.356a34.9 34.9 0 01.822 3.377 33.28 33.28 0 01.495 3.442c.061.478.074.961.039 1.442zm-9.962 32.06c-.06.085-.126.166-.198.241l-.604.661c-.257.287-.584.63-.989 1.008-.406.378-.837.831-1.361 1.285-.525.454-1.079.973-1.717 1.477-.639.504-1.322 1.043-2.054 1.592a50.335 50.335 0 01-5.018 3.155 49.065 49.065 0 01-5.394 2.475c-.856.308-1.667.615-2.444.842-.777.227-1.485.453-2.163.625-.678.171-1.276.307-1.806.423-.529.116-.99.207-1.376.267l-.876.136a1.499 1.499 0 01-.306.031c.096-.042.198-.07.302-.086l.861-.182c.376-.075.836-.171 1.365-.307.53-.136 1.134-.262 1.787-.464.653-.201 1.385-.388 2.147-.65.763-.262 1.574-.549 2.425-.862a47.257 47.257 0 0010.392-5.614c.733-.54 1.435-1.044 2.059-1.563l1.732-1.441c.519-.434.989-.887 1.375-1.255.386-.368.743-.706.99-.978l.634-.63c.148-.126.227-.197.237-.186z" fill="#263238"/><path opacity=".3" d="M195.791 161.175c0 .62.124.842.495.968a1.138 1.138 0 00.886-.303 4.723 4.723 0 001.252-2.979 10.974 10.974 0 00-1.252-6.436 7.653 7.653 0 010 3.861l-1.381 4.889zm-75.282 4.631c-.54-1.512-1.935-2.52-2.658-3.966-.856-1.694-.193-4.536.99-5.978-1.692 1.094-1.98 3.599-2.044 5.474a7.819 7.819 0 001.693 5.231c.236.309.546.552.9.706a.97.97 0 001.049-.237 1.29 1.29 0 00.07-1.23z" fill="#000"/><path d="M128.644 137.159a21.359 21.359 0 01-1.98-2.606 20.507 20.507 0 01-1.771-2.762 21.453 21.453 0 011.979 2.606c.663.87 1.256 1.794 1.772 2.762zm-3.592 10.705c-.677.584-1.408 1.1-2.182 1.542-.729.516-1.507.956-2.321 1.315a14.094 14.094 0 012.187-1.542c.73-.511 1.505-.952 2.316-1.315zm10.213 3.765a16.956 16.956 0 01-2.188-1.971 17.13 17.13 0 01-2.009-2.152 16.279 16.279 0 012.178 1.981c.732.653 1.408 1.37 2.019 2.142zm-15.38 12.328c.091-1.142.351-2.264.772-3.327a5.623 5.623 0 01-.263 1.694 5.66 5.66 0 01-.509 1.633zm-1.242 9.032c-.059.05-1.063-1.155-2.439-2.52-1.376-1.366-2.583-2.339-2.539-2.405.309.152.597.346.856.575a21.561 21.561 0 013.534 3.483c.234.26.432.551.588.867zm6.19-2.077a22.468 22.468 0 01-1.525 2.989 22.062 22.062 0 01-1.751 2.862 22.04 22.04 0 011.524-2.988c.509-1 1.095-1.957 1.752-2.863zm5.939.176c-.055.051-.807-.786-1.836-1.698-1.03-.912-1.935-1.563-1.896-1.628a7.425 7.425 0 012.069 1.431 7.374 7.374 0 011.663 1.895zm3.067-46.756a17.649 17.649 0 01-1.672 2.52 17.875 17.875 0 01-1.876 2.384 17.736 17.736 0 011.668-2.52 17.904 17.904 0 011.88-2.384zm7.512-.287a21.92 21.92 0 01-2.202-2.52 22.002 22.002 0 01-1.979-2.697 22.376 22.376 0 012.202 2.52 22.291 22.291 0 011.979 2.697zm.99 16.37a12.37 12.37 0 01-1.682-2.671 12.78 12.78 0 01-1.208-2.924c.069 0 .639 1.265 1.435 2.803.797 1.537 1.515 2.762 1.455 2.792zm9.739-5.287a22.086 22.086 0 01-3.301-1.084 23.808 23.808 0 01-3.217-1.325c1.126.273 2.23.633 3.301 1.078 1.102.365 2.177.81 3.217 1.331zm1.718-12.807c.035.066-.802.605-1.752 1.376-.95.771-1.658 1.482-1.712 1.426a6.083 6.083 0 011.554-1.628 5.929 5.929 0 011.91-1.174zm-5.499 30.245a28.988 28.988 0 01-.683-3.78 29.147 29.147 0 01-.43-3.82c.314 1.242.543 2.505.687 3.78.231 1.262.373 2.538.426 3.82zm-1.652 7.893a24.883 24.883 0 01-3.182-1.784 26.027 26.027 0 01-3.043-2.016c1.1.515 2.162 1.112 3.177 1.784a25.96 25.96 0 013.048 2.016zm-6.885 10.483a15.305 15.305 0 01-.989-2.646c-.33-.885-.58-1.8-.748-2.731.41.849.742 1.734.99 2.646.329.886.579 1.8.747 2.731zm3.609 10.443a21.005 21.005 0 01-3.004-1.512c-1-.501-1.961-1.079-2.875-1.728 1.037.423 2.04.928 2.999 1.512a22.067 22.067 0 012.88 1.728zm10.341-12.862a41.144 41.144 0 01-1.514 4.324 40.155 40.155 0 01-1.757 4.229 42.166 42.166 0 011.515-4.324 40.796 40.796 0 011.756-4.229zm7.697-5.982c-.06.06-1.327-1.255-3.182-2.475-1.856-1.22-3.534-1.89-3.504-1.966.39.073.768.2 1.123.378a15.969 15.969 0 014.766 3.166c.304.26.572.562.797.897zm7.012-12.348a19.243 19.243 0 01-2.009 2.384 19.037 19.037 0 01-2.197 2.202 18.623 18.623 0 012.009-2.384 18.062 18.062 0 012.197-2.202zm-7.013-1.593c-.079 0-.307-1.316-.916-2.843-.608-1.527-1.326-2.656-1.261-2.701a8.004 8.004 0 011.484 2.6c.416.927.651 1.926.693 2.944zm3.127-17.408c.055.05-.93 1.275-2.024 2.878-1.093 1.602-1.89 2.963-1.954 2.923.101-.334.248-.651.435-.943a24.553 24.553 0 012.821-4.117c.204-.282.447-.531.722-.741zm-2.147-4.633a16.1 16.1 0 01-1.356-2.56 16.158 16.158 0 01-1.118-2.671c.525.811.977 1.667 1.351 2.56.452.855.828 1.749 1.123 2.671zm14.776 30.81a18.913 18.913 0 01-2.271 2.132 18.207 18.207 0 01-2.44 1.931 19.82 19.82 0 012.272-2.132 18.424 18.424 0 012.439-1.931zm-2.692-13.205a16.975 16.975 0 01-2.92-.826 17.484 17.484 0 01-2.835-1.074c.993.191 1.968.468 2.914.827a18.06 18.06 0 012.841 1.073zm1.827-7.928a23.463 23.463 0 011.519-3.074 22.858 22.858 0 011.747-2.948 22.677 22.677 0 01-1.519 3.074 22.324 22.324 0 01-1.747 2.948zm6.586-14.016a35.219 35.219 0 01-4.236-.756 35.028 35.028 0 01-4.186-1.008c1.426.163 2.84.414 4.236.751 1.414.253 2.812.591 4.186 1.013zm3.092 6.738a19.63 19.63 0 011.242-2.968 19.64 19.64 0 011.484-2.853 20.334 20.334 0 01-1.247 2.964 20.541 20.541 0 01-1.479 2.857zm6.795 11.774a29.712 29.712 0 01-2.885-2.6 29.202 29.202 0 01-2.701-2.793 29.181 29.181 0 012.88 2.601 29.006 29.006 0 012.706 2.792zm-1.204 10.393c.52-.844 1.111-1.64 1.767-2.379a16.449 16.449 0 011.979-2.213 17.43 17.43 0 01-1.766 2.379 16.782 16.782 0 01-1.98 2.213zm-9.445 22.05a32.74 32.74 0 011.593-3.78 33.151 33.151 0 011.826-3.669 32.393 32.393 0 01-1.593 3.78 32.805 32.805 0 01-1.826 3.669zm-3.796 6.643a31.596 31.596 0 01-2.44-3.327 33.75 33.75 0 01-2.227-3.482 33.623 33.623 0 012.44 3.331 34.604 34.604 0 012.227 3.478zm-9.63 4.566c-.347.98-.776 1.927-1.281 2.833-.43.946-.934 1.855-1.51 2.716.347-.981.776-1.93 1.282-2.837.432-.943.937-1.85 1.509-2.712zm-8.556 6.839a44.033 44.033 0 01-4.043-5.544c.77.846 1.48 1.747 2.123 2.697.71.898 1.352 1.85 1.92 2.847zm-18.033-.957a15.93 15.93 0 01-1.742-2.213 15.18 15.18 0 01-1.534-2.374 16.11 16.11 0 011.742 2.218 15.28 15.28 0 011.534 2.369zm23.05-15.216c-.074 0-.133-1.008-.401-2.157-.267-1.149-.628-2.082-.559-2.117.408.622.685 1.324.812 2.061.202.719.252 1.473.148 2.213zm-.949 6.97a4.827 4.827 0 010-2.217 4.855 4.855 0 010 2.217zm33.744-12.831c-.04.065-1.064-.504-2.395-1.069-1.331-.564-2.445-.917-2.425-1.008a7.984 7.984 0 012.524.746 8.137 8.137 0 012.296 1.331zm4.82-10.297a4.605 4.605 0 01-2.177 0 4.58 4.58 0 012.177 0z" fill="#fff"/><path opacity=".3" d="M168.311 120.839c-1.816 3.024-2.187 6.724-1.722 10.216.465 3.493 1.702 6.82 2.934 10.111l8.512 22.781c.821 2.212 1.677 4.47 3.192 6.264a7.468 7.468 0 003.008 2.004 7.356 7.356 0 003.578.345c-2.029-1.986-4.948-4.773-5.072-5.095-.574-1.84-.124-5.04-.376-6.94-.386-2.934-2.242-5.948-3.489-8.619a5068.386 5068.386 0 00-8.942-19.122c-1.034-2.218-2.088-4.768-1.178-7.056.391-.973 1.129-1.819 1.287-2.858.158-1.038-.762-2.323-1.712-1.91m-35.892 56.801c3.603-1.265 5.018-5.569 6.528-9.132 4.051-9.563 8.105-19.122 12.163-28.678.841-2.016 1.697-4.032 1.841-6.189.143-2.157-.564-4.506-2.296-5.761-5.508 7.091-11.001 14.289-14.895 22.413-2.742 5.716-2.212 10.675-.619 16.264.935 3.281-2.722 6.462-2.722 6.925v4.158z" fill="#000"/><path d="M145.478 104.076c-1.014-3.347-2.014-6.718-2.444-10.196-.431-3.478-.272-7.087.99-10.352.188-.504 1.786-3.806 2.306-3.745.371.04-.634 3.14-.451 3.472 1.742 3.156 2.173 6.925 1.831 10.534a48.183 48.183 0 01-2.217 10.287" fill="#263238"/><path d="M164.471 123.783c.064-2.475.118-4.425.138-4.425.02 0 8.343-.726 9.016-9.128.327-4.057.327-12.474.243-20.085a15.858 15.858 0 00-4.206-10.596 15.308 15.308 0 00-10.145-4.887l-.797-.055c-8.625-.096-13.519 7.313-13.361 16.098l-.445 30.744 13.485 11.728 6.072-9.394z" fill="#FFBE9D"/><path d="M164.669 119.362a19.763 19.763 0 01-10.53-3.997s2.207 6.301 10.496 6.124l.034-2.127z" fill="#EB996E"/><path d="M170.222 96.43a1.207 1.207 0 01-.383.817 1.164 1.164 0 01-.834.312 1.109 1.109 0 01-.813-.336 1.149 1.149 0 01-.331-.828 1.22 1.22 0 01.384-.817c.227-.212.526-.326.834-.317a1.112 1.112 0 01.814.338 1.152 1.152 0 01.329.831zm1.622-2.888c-.153.146-.989-.59-2.271-.675-1.282-.086-2.242.504-2.37.322-.065-.07.104-.342.529-.614a3.226 3.226 0 011.91-.46 3.07 3.07 0 011.797.737c.405.307.504.6.405.69zm-13.464 2.631a1.208 1.208 0 01-.381.82 1.166 1.166 0 01-.836.314 1.114 1.114 0 01-.813-.34 1.155 1.155 0 01-.33-.83c.019-.311.157-.604.384-.815a1.17 1.17 0 01.833-.313 1.112 1.112 0 01.813.336 1.162 1.162 0 01.33.828zm1.023-3.009c-.158.146-.99-.59-2.276-.675-1.287-.086-2.242.504-2.366.327-.064-.075.104-.348.53-.62a3.179 3.179 0 011.91-.453c.66.044 1.288.3 1.796.73.366.333.475.625.406.69zm3.876 10.246c0-.07.802-.156 2.089-.231.326 0 .638-.056.707-.278a1.717 1.717 0 00-.148-1.008c-.253-.821-.495-1.678-.787-2.58-1.089-3.67-1.856-6.678-1.707-6.724.148-.045 1.143 2.898 2.231 6.552l.748 2.596c.174.413.202.874.079 1.305a.808.808 0 01-.564.444c-.183.037-.369.05-.554.04-1.292.01-2.094-.04-2.094-.116zm-.961 5.161c-.203.031-.331-1.365-1.598-2.253-1.267-.887-2.717-.594-2.742-.786-.029-.085.302-.302.916-.378a3.41 3.41 0 012.286.58 3.06 3.06 0 011.262 1.92c.094.554-.03.917-.124.917zm-8.461-18.592c0-.373 1.247-.665 2.584-1.36 1.336-.696 2.33-1.513 2.622-1.291.134.11.05.504-.292 1.008a5.07 5.07 0 01-1.751 1.473 4.979 4.979 0 01-2.208.543c-.593-.035-.95-.197-.955-.373zm12.945-2.485c.336-.222 1.311.332 2.563.65 1.252.317 2.371.373 2.544.73.074.172-.163.42-.693.575a4.23 4.23 0 01-2.197-.04 4.216 4.216 0 01-1.915-1.068c-.376-.419-.45-.751-.302-.847z" fill="#263238"/><path d="M145.618 96.98c-.133-.071-5.557-2.107-5.765 3.654-.208 5.76 5.513 4.788 5.528 4.621.015-.166.237-8.275.237-8.275z" fill="#FFBE9D"/><path d="M143.707 103.007s-.099.071-.272.141a.97.97 0 01-.737 0c-.589-.246-1.054-1.229-1.044-2.268.002-.494.114-.981.326-1.426a1.14 1.14 0 01.772-.746.497.497 0 01.569.297c.07.167.03.278.06.293.029.015.123-.096.089-.333a.63.63 0 00-.208-.368.738.738 0 00-.544-.171 1.37 1.37 0 00-.639.288c-.186.15-.33.346-.42.569a3.434 3.434 0 00-.401 1.592c0 1.165.539 2.268 1.346 2.52a1.055 1.055 0 00.905-.115c.183-.132.218-.258.198-.273z" fill="#EB996E"/><path d="M170.469 80.499c.93-.504-1.732-3.589-3.959-4.693-3.355-1.668-8.526-2.787-11.683-1.97-3.806.982-6.997 2.802-8.992 6.25-1.994 3.447-2.815 7.504-2.815 11.5 0 1.22.089 2.496.697 3.529.757 1.295 2.252 2.142 2.133 3.896a2.485 2.485 0 00.539 1.779c.99 1.149 2.302.131 2.915-.907 1.307-2.223 1.519-4.91 1.698-7.495.128-1.835.257-3.71-.203-5.489-.253-.972-.673-1.89-.871-2.872a3.518 3.518 0 01.495-2.863c.149-.17.315-.326.494-.464a5.862 5.862 0 012.814-1.292 5.808 5.808 0 013.07.33c3.157 1.234 8.551 3.11 10.001 2.046 2.088-1.512 2.608-2.52 2.608-2.52l1.059 1.235z" fill="#263238"/><path d="M163.432 74.415c.365.225.688.513.955.852a8.952 8.952 0 011.742 2.596c.43.983.549 2.079.341 3.135a2.08 2.08 0 01-.554 1.179c-.059-.03.178-.464.282-1.23a5.812 5.812 0 00-.43-2.928c-.418-.92-.952-1.78-1.589-2.56-.495-.62-.801-1.003-.747-1.044z" fill="#455A64"/><path d="M167.273 77.288c.044 0 .212.257.326.76a4.46 4.46 0 01-.039 2.005 4.415 4.415 0 01-.911 1.776c-.341.388-.619.544-.648.504-.03-.04.826-.943 1.173-2.384.346-1.442-.015-2.63.099-2.661z" fill="#455A64"/><path d="M159.533 97.877c-.211.189-.459.33-.728.413a5.294 5.294 0 01-3.959-.04 1.873 1.873 0 01-.717-.429 9.121 9.121 0 002.692.57 9.353 9.353 0 002.712-.514zm-1.613 1.542c0 .03-.183.156-.539.262-.474.134-.971.16-1.455.075a3.4 3.4 0 01-1.351-.544c-.307-.217-.45-.403-.431-.428a6.807 6.807 0 001.826.71 6.839 6.839 0 001.95-.075zm14.658-2.293s-.144.327-.565.705a3.654 3.654 0 01-4.117.504 1.758 1.758 0 01-.712-.549c.024-.035.297.171.791.383a3.895 3.895 0 003.925-.504c.44-.297.643-.57.678-.54z" fill="#EB996E"/><path d="M170.889 138.247c.178.273 9.758 24.601 14.499 28.603 4.478-4.204 12.267-11.003 5.013-17.767l-13.549-19.923-5.963 9.087z" fill="#FFBE9D"/><path d="M170.934 138.459c.212.257-1.93-5.04-2.475-7.263-.321-1.315-1.519-3.85-.801-5.67a34.754 34.754 0 011.786-3.729l-2.969-2.546s-6.255-1.456-6.7-2.52c-.446-1.063 0-1.638 0-1.638l5.181.726s-7.235-4.274-5.003-7.096c0 0 3.464 2.747 5.992 3.256l3.92 2.177s.712-.333.534-2.712c-.178-2.379-.534-3.109-.534-3.109s-3.464-4.637-2.861-6.734l.718-1.451 4.107 4.636 1.074 2.183s-.45-7.097 2.143-7.46l.891 8.191-.891 5.776c.39 1.171.688 2.373.891 3.593.178 1.457.895 11.915.895 11.915l1.693 2.52" fill="#FFBE9D"/><path d="M178.536 131.479a2.233 2.233 0 01-.119-.157l-.332-.468c-.292-.429-.722-1.044-1.276-1.845a2670.92 2670.92 0 01-.495-6.305c-.099-1.311-.213-2.752-.332-4.304a17.07 17.07 0 00-.989-4.874v-.046c.277-1.799.574-3.739.885-5.775v.025c-.282-2.52-.589-5.292-.905-8.185l.128.1c-.301.075-.58.225-.81.437a1.89 1.89 0 00-.506.778 7.55 7.55 0 00-.539 1.936 21.252 21.252 0 00-.183 4.188l.029.584-.257-.504c-.336-.675-.703-1.426-1.074-2.182v.03l-4.107-4.636.208-.031c-.228.454-.47.953-.718 1.457a3.108 3.108 0 00.144 1.713c.185.585.42 1.151.702 1.694a23.995 23.995 0 001.98 3.205 9.05 9.05 0 01.455 2.173c.084.645.124 1.295.119 1.945a4.671 4.671 0 01-.119.978 2.528 2.528 0 01-.163.479.975.975 0 01-.352.428l-.054.03-.064-.035-3.885-2.243h.035a11.5 11.5 0 01-3.212-1.371 26.309 26.309 0 01-2.83-1.915h.173a1.778 1.778 0 00-.401 1.069c.007.394.1.781.272 1.134a7.252 7.252 0 001.42 1.89 20.814 20.814 0 003.672 2.822l.495.297-.564-.075-5.181-.736.104-.04a1.398 1.398 0 00-.129 1.063c.037.176.097.345.178.504.11.143.246.263.401.353.652.37 1.341.671 2.054.897 1.405.504 2.791.857 4.127 1.185h.024l2.94 2.55.059.05-.039.071a35.85 35.85 0 00-1.698 3.487c-.495 1.119-.292 2.329-.039 3.362.252 1.033.643 1.991.851 2.898.208.907.529 1.694.777 2.414.495 1.432.91 2.546 1.187 3.312.134.378.238.665.297.862.027.072.049.146.065.221a.183.183 0 010 .066 7.056 7.056 0 00-.401-1.124c-.287-.751-.713-1.855-1.232-3.291a39.228 39.228 0 01-.802-2.414c-.262-.903-.594-1.84-.871-2.898a8.252 8.252 0 01-.282-1.674 3.877 3.877 0 01.312-1.789 34.402 34.402 0 011.692-3.528v.116l-2.969-2.52h.045a47.626 47.626 0 01-4.157-1.169 11.16 11.16 0 01-2.103-.918 1.49 1.49 0 01-.466-.418 2.156 2.156 0 01-.212-.595 1.615 1.615 0 01.173-1.255l.03-.05h.069l5.181.726-.074.221a21.032 21.032 0 01-3.722-2.852 7.313 7.313 0 01-1.484-1.961 2.783 2.783 0 01-.297-1.245 2.04 2.04 0 01.455-1.224l.074-.091.099.07a26.261 26.261 0 002.801 1.895 11.352 11.352 0 003.138 1.336l3.919 2.197h-.114a.758.758 0 00.228-.302c.065-.135.114-.277.148-.423.067-.305.103-.616.109-.928a13.794 13.794 0 00-.119-1.905 9.335 9.335 0 00-.425-2.081 24.027 24.027 0 01-2.014-3.246 11.151 11.151 0 01-.723-1.734 3.386 3.386 0 01-.138-1.87l.717-1.456.084-.167.124.141 4.102 4.637 1.069 2.183-.227.065a21.071 21.071 0 01.193-4.244 7.885 7.885 0 01.559-2.016c.139-.322.335-.616.579-.867a1.61 1.61 0 01.92-.478h.114v.12l.881 8.186v.03c-.322 2.016-.624 3.977-.906 5.776v-.045c.277.85.508 1.69.693 2.52.092.403.162.812.208 1.224.03.403.054.802.084 1.19.114 1.557.218 2.999.312 4.314.183 2.626.336 4.753.445 6.31l1.247 1.865.317.504c.074.058.144.122.208.192z" fill="#EB996E"/><path d="M172.34 124.317a4.936 4.936 0 01-1.708-.963 3.117 3.117 0 01-1.212-1.557c.429.479.886.93 1.371 1.35.542.353 1.059.744 1.549 1.17z" fill="#EB996E"/><path d="M170.158 130.733a3.82 3.82 0 01-.262-1.074 10.133 10.133 0 01.559-5.257c.111-.36.278-.7.495-1.008.089.031-.629 1.568-.851 3.609-.223 2.041.153 3.72.059 3.73zm3.225-11.673a7.947 7.947 0 01-1.182-.625 27.107 27.107 0 00-2.89-1.391 19.07 19.07 0 00-3.049-.963 12.904 12.904 0 01-1.301-.287c.448-.03.897.004 1.336.101 1.065.186 2.107.488 3.108.902 1 .411 1.965.905 2.885 1.477.392.22.759.483 1.093.786zm1.583-2.641a2.655 2.655 0 01-.836-.156 14.526 14.526 0 01-1.945-.665 7.961 7.961 0 01-2.474-1.512c.044-.071 1.123.665 2.573 1.29s2.707.957 2.682 1.043zm.09-2.943a2.8 2.8 0 01-.495-.902 22.944 22.944 0 01-.812-2.349c-.272-.927-.495-1.774-.658-2.389a5.13 5.13 0 01-.237-1.008c.186.289.324.608.41.942.208.6.46 1.442.733 2.369.272.928.524 1.764.737 2.359.127.319.235.645.322.978z" fill="#EB996E"/><path d="M148.176 136.473a5.791 5.791 0 002.081-1.851c.536-.78.878-1.68.997-2.624.367-3.206.658-7.087.658-7.087.375-.642.695-1.317.956-2.016.143-.599 8.239-5.221 8.239-5.221s.287-1.255-2.088-1.119c-2.376.136-6.815 2.313-6.815 2.313l1.322-4.032a25.953 25.953 0 003.672-4.576 2.51 2.51 0 00.28-1.684 2.48 2.48 0 00-.859-1.466l-.218-.176s0-1.422-.752-1.719c0 0-6.226 3.583-6.433 4.032-.208.449 2.929-4.849-1.03-5.967l-2.34 6.416-.941 2.308s-.396 4.087-.544 5.428c-.148 1.341-.787 11.063-1.668 12.479" fill="#FFBE9D"/><path d="M142.684 129.912l.118-.303c.103-.296.184-.599.243-.907.173-.812.351-2.016.524-3.584a192.8 192.8 0 00.53-5.67c.178-2.207.44-4.707.698-7.454v-.03l.811-2.016c.277-.691.495-1.411.792-2.142l1.663-4.577.039-.1.104.03a2.9 2.9 0 011.485.907 2.78 2.78 0 01.594 1.724 5.905 5.905 0 01-.278 1.824 7.893 7.893 0 01-.316.877c-.06.146-.124.288-.193.429l-.104.211-.06.106-.029.056v.03c-.159.101-.272-.272-.208-.126v-.025c.105-.145.234-.269.381-.368l.386-.267c.257-.178.52-.346.787-.504.529-.333 1.069-.666 1.613-1.008a94.895 94.895 0 013.335-1.966l.055-.035.059.025a1.277 1.277 0 01.648.806c.111.325.173.665.183 1.008l-.044-.1c.319.233.589.527.797.866.211.36.335.766.361 1.185.02.33-.024.66-.129.973a4.061 4.061 0 01-.43.856 18.222 18.222 0 01-1.069 1.512 31.232 31.232 0 01-2.4 2.712l.029-.055c-.445 1.367-.885 2.711-1.321 4.032l-.173-.157a34.665 34.665 0 014.77-1.9 9.01 9.01 0 012.435-.428 3.07 3.07 0 011.217.211c.199.087.37.229.495.409a.885.885 0 01.144.655v.045l-.05.031a201.943 201.943 0 00-5.503 3.25c-.846.535-1.677 1.044-2.404 1.603a2.272 2.272 0 00-.248.222c-.04.055-.04.035-.064.116-.025.08-.035.116-.055.171a6.284 6.284 0 01-.277.635c-.198.413-.406.802-.618 1.18v-.036c-.193 1.981-.367 3.77-.495 5.338-.04.393-.074.771-.114 1.134a8.579 8.579 0 01-.134 1.048 5.75 5.75 0 01-.633 1.729 6.02 6.02 0 01-1.678 1.865 5.228 5.228 0 01-.549.347 1 1 0 01-.203.091s.065-.035.188-.116c.185-.112.364-.235.535-.368a6.018 6.018 0 001.623-1.87 5.769 5.769 0 00.604-1.703c.058-.344.099-.69.123-1.038.03-.363.065-.741.099-1.134.139-1.568.297-3.357.495-5.338.208-.373.416-.766.609-1.169.094-.202.188-.408.262-.62 0-.055.04-.106.054-.161a.429.429 0 01.099-.187c.085-.089.176-.171.273-.247.747-.584 1.568-1.088 2.414-1.628a190.576 190.576 0 015.503-3.276l-.054.076a.778.778 0 00-.52-.802 2.927 2.927 0 00-1.123-.181c-.804.031-1.6.173-2.366.423a34.117 34.117 0 00-4.73 1.89l-.263.126.09-.277 1.316-4.032v-.03h.025a30.778 30.778 0 002.375-2.686c.379-.484.731-.989 1.054-1.512a3.81 3.81 0 00.406-.797 2.368 2.368 0 00-.213-1.945 2.852 2.852 0 00-.737-.791l-.045-.036v-.065a3.355 3.355 0 00-.168-.948 1.056 1.056 0 00-.182-.377 1.011 1.011 0 00-.313-.273h.114a167.762 167.762 0 00-3.336 1.961 40.93 40.93 0 00-1.613 1.008 49.84 49.84 0 00-.777.504l-.381.262a1.89 1.89 0 00-.297.262s-.029-.025-.074-.036a.054.054 0 01-.049 0l-.05-.045c-.049-.04-.039 0-.039 0l.029-.05.055-.096.099-.207c.069-.136.128-.277.188-.413a8.94 8.94 0 00.311-.857 5.602 5.602 0 00.268-1.744 2.553 2.553 0 00-.535-1.572 2.72 2.72 0 00-1.38-.837l.143-.07a710.407 710.407 0 00-1.677 4.571c-.278.726-.525 1.452-.802 2.137l-.822 2.016v-.03c-.272 2.752-.564 5.246-.737 7.449a118.956 118.956 0 01-.579 5.67 35.4 35.4 0 01-.579 3.578 5.88 5.88 0 01-.272.913 9.974 9.974 0 00-.158.227z" fill="#EB996E"/><path d="M152.585 118.692a3.378 3.378 0 01-1.138.67 3.403 3.403 0 01-1.242.429c.333-.297.72-.524 1.138-.67a3.409 3.409 0 011.242-.429zm3.804-11.854a1.714 1.714 0 01-.198.469c-.216.409-.464.8-.742 1.169a26.429 26.429 0 01-3.117 3.306 10.96 10.96 0 00-2.589 3.634c-.465 1.063-.638 1.769-.682 1.754.005-.172.035-.341.089-.504a10.236 10.236 0 013.003-5.08 33.699 33.699 0 003.153-3.226c.702-.897 1.044-1.547 1.083-1.522zm-7.084 2.298a4.187 4.187 0 01-.589 1.008c-.228.333-.436.68-.623 1.038a6.635 6.635 0 00-.495 1.417c-.362 1.008-.525 1.98-.713 2.676-.07.381-.202.747-.391 1.084.05-.38.121-.757.213-1.129a19.3 19.3 0 01.643-2.707c.114-.507.292-.997.53-1.456.198-.369.426-.72.683-1.049.223-.314.471-.609.742-.882z" fill="#EB996E"/><path d="M121.405 155.958c.242-.373 6.997-7.056 8.942-9.253 1.945-2.198 11.733-14.878 12.337-16.794.603-1.915 6.166 5.464 6.166 5.464s-6.755 16.456-9.403 21.143c-2.647 4.687-6.987 13.406-6.987 13.406s-7.16.615-9.947-5.307c-2.786-5.922-1.108-8.659-1.108-8.659z" fill="#FFBE9D"/><path d="M148.151 241.488l9.1 22.68-27.628 11.678c-.93-2.757 11.164-14.193 11.164-14.193l-6.433-14.278 13.797-5.887z" fill="#C6E1F6"/><path opacity=".6" d="M148.828 256.805c.3-.031.601.052.844.233.243.182.412.449.473.75.039.302-.037.609-.213.857a1.167 1.167 0 01-.732.473 1.263 1.263 0 01-.891-.249 1.308 1.308 0 01-.495-.794c-.035-.61.534-1.341 1.133-1.28m8.305 7.353l-.99-2.248-26.113 12.036s-.99 1.063-.495 1.89l27.598-11.678z" fill="#fff"/><path d="M140.277 261.678c.065.137.762-.085 1.604.076.841.161 1.435.59 1.539.479.103-.111-.426-.812-1.45-1.008-1.025-.197-1.772.343-1.693.453zm-2.4 2.445c0 .146.703.136 1.401.504.697.368 1.074.947 1.207.887.134-.061-.099-.877-.99-1.341-.89-.463-1.667-.181-1.618-.05zm-.206 4.229c.138 0 .044-.787-.609-1.396-.653-.61-1.405-.635-1.415-.504-.01.131.544.378 1.073.882.53.504.812 1.063.951 1.018zm1.513-10.091c.109.101.653-.353 1.435-.62s1.485-.277 1.485-.423c0-.146-.748-.398-1.668-.066-.92.333-1.376 1.029-1.252 1.109zm-.712-3.619c0 .061.589-.08 1.381-.589a7.111 7.111 0 001.88-1.83c.118-.153.213-.323.283-.504a.65.65 0 00.011-.42.633.633 0 00-.249-.336.787.787 0 00-.718-.065 2.035 2.035 0 00-.494.292 5.606 5.606 0 00-.738.665c-.378.412-.69.881-.925 1.391-.396.877-.406 1.482-.351 1.487.054.005.217-.539.668-1.315a5.99 5.99 0 01.945-1.23c.214-.214.446-.41.693-.585.262-.201.494-.312.638-.211.044.04.059.06.035.171a1.745 1.745 0 01-.208.373 8.067 8.067 0 01-1.683 1.819c-.698.565-1.202.817-1.168.887z" fill="#263238"/><path d="M138.724 254.769c.06 0 .124-.605-.188-1.512a4.982 4.982 0 00-.836-1.457 5.307 5.307 0 00-.703-.711 1.234 1.234 0 00-1.173-.337.7.7 0 00-.3.258.725.725 0 00-.115.382c-.004.194.019.387.069.574.077.336.207.656.386.948a3.4 3.4 0 001.183 1.209c.836.504 1.484.429 1.459.373a10.491 10.491 0 01-1.261-.68c-.41-.3-.748-.689-.99-1.139a3.121 3.121 0 01-.307-.822c-.079-.317-.069-.604.055-.625.123-.02.46.071.673.258a5.204 5.204 0 011.484 1.915c.416.796.485 1.376.564 1.366z" fill="#263238"/><path d="M193.286 242.693l-.757 24.469 29.889 1.119c-.069-2.918-15.34-9.334-15.34-9.334l1.118-15.659-14.91-.595z" fill="#C6E1F6"/><path opacity=".6" d="M197.899 257.283c-.291.08-.543.266-.708.522a1.265 1.265 0 00-.187.869c.066.298.242.559.492.728.249.17.553.236.849.185.308-.083.575-.279.749-.551.174-.272.242-.601.191-.921-.178-.585-.96-1.064-1.485-.796m-5.271 9.843l.169-2.46 28.592 1.991s1.312.635 1.128 1.588l-29.889-1.119z" fill="#fff"/><path d="M207.584 258.811c0 .151-.743.191-1.485.64-.742.448-1.143 1.063-1.277 1.008-.133-.056.119-.913 1.02-1.442.901-.529 1.781-.337 1.742-.206zm3.087 1.441c.03.141-.614.373-1.128 1.008-.515.635-.688 1.27-.832 1.26-.143-.01-.207-.857.451-1.603s1.514-.811 1.509-.665zm1.642 3.886c-.134 0-.312-.726.094-1.512s1.098-1.099 1.158-.973c.059.126-.381.545-.703 1.205-.322.66-.401 1.27-.549 1.28zm-4.839-8.921c-.064.131-.727-.101-1.554-.07-.826.03-1.484.267-1.554.136-.069-.131.57-.64 1.544-.655.975-.016 1.614.473 1.564.589zm-.609-3.639c0 .061-.579.131-1.484-.065a6.89 6.89 0 01-2.39-1.044 1.896 1.896 0 01-.441-.378.656.656 0 01-.025-.811.783.783 0 01.654-.317c.19.006.378.04.559.1.316.092.624.212.92.358.496.253.95.583 1.346.978.668.675.886 1.24.837 1.27-.05.03-.391-.433-1.079-1.008a5.83 5.83 0 00-1.307-.816 5.254 5.254 0 00-.851-.303c-.312-.096-.579-.111-.668.03-.03.056-.034.076.03.172.093.108.202.201.322.277.247.183.505.351.772.504.457.25.936.457 1.43.62.821.287 1.385.353 1.375.433z" fill="#263238"/><path d="M206.668 251.8c-.05.025-.322-.504-.342-1.487a5.1 5.1 0 01.267-1.658c.108-.318.247-.623.416-.912.088-.2.225-.373.399-.502.173-.13.377-.21.591-.234a.688.688 0 01.369.134.712.712 0 01.24.314c.073.18.118.371.133.565.039.336.027.676-.034 1.008a3.538 3.538 0 01-.698 1.552c-.609.766-1.227.923-1.237.872-.01-.05.494-.348.95-1.088.273-.428.452-.912.524-1.417.04-.292.04-.589 0-.882-.039-.322-.148-.589-.267-.559-.119.03-.411.227-.539.479a5.053 5.053 0 00-.401.811 5.522 5.522 0 00-.347 1.512c-.079.892.06 1.457-.024 1.492zm-71.996-86.331s.045.045.104.151c.095.15.178.309.247.474a4.49 4.49 0 01.362 1.935 6.633 6.633 0 01-.802 2.802 13.849 13.849 0 01-2.069 2.883 20.179 20.179 0 01-4.948 4.032c-.561.318-1.137.605-1.727.862a3.378 3.378 0 01-.663.242 4.16 4.16 0 01.618-.338c.406-.201.99-.504 1.678-.927a21.558 21.558 0 004.84-4.067 14.22 14.22 0 002.053-2.813c.466-.828.748-1.75.827-2.701a4.775 4.775 0 00-.273-1.885c-.148-.413-.267-.64-.247-.65z" fill="#263238"/><path d="M134.236 169.34a.786.786 0 01-.208.116 4.62 4.62 0 01-.613.267 7.47 7.47 0 01-2.425.443 9.254 9.254 0 01-3.977-.83 9.417 9.417 0 01-3.263-2.461 16.565 16.565 0 01-1.361-1.92 13.996 13.996 0 01-.955-1.981 10.839 10.839 0 01-.722-3.649 8.693 8.693 0 01.326-2.485c.06-.219.133-.434.218-.645.055-.146.089-.222.099-.216.01.005-.084.317-.218.887a9.334 9.334 0 00-.242 2.454c.054 1.225.311 2.431.762 3.568.266.669.583 1.314.95 1.931.402.66.85 1.29 1.341 1.885a9.116 9.116 0 003.533 2.575c1.113.462 2.303.7 3.504.701a8.04 8.04 0 002.395-.353c.564-.176.856-.307.856-.287zm54.829 4.238a1.951 1.951 0 01-.43-.297 38.293 38.293 0 01-1.119-.897c-.93-.776-2.246-1.8-3.572-3.105a10.643 10.643 0 01-.901-1.008 3.212 3.212 0 01-.564-1.169 8.378 8.378 0 01-.233-2.157c.002-.486.037-.971.104-1.452.017-.173.057-.342.119-.504.039 0-.074.756-.04 1.971.008.706.101 1.408.277 2.091.179.771.787 1.417 1.421 2.077 1.306 1.285 2.612 2.338 3.503 3.145.455.403.817.731 1.069.962.136.098.259.213.366.343zm4.316-21.732c.062.232.099.47.109.71.052.654.052 1.312 0 1.966a11.86 11.86 0 01-2.127 6.048c-1.535 1.981-2.97 3.775-4.182 4.869-.472.438-.968.848-1.485 1.23a3.055 3.055 0 01-.598.383c.166-.171.346-.326.539-.464.351-.292.856-.721 1.44-1.285a45.127 45.127 0 004.097-4.894 12.112 12.112 0 002.148-5.882c.067-.892.086-1.787.059-2.681z" fill="#263238"/><path d="M197.18 156.286a7.692 7.692 0 00.193-1.815 6.11 6.11 0 00-.42-1.915 5.74 5.74 0 00-1.317-1.981 7.605 7.605 0 00-3.845-1.859 9.342 9.342 0 00-1.801 0 1.68 1.68 0 01.495-.137c.444-.08.897-.097 1.346-.05a7.356 7.356 0 014.003 1.855 5.872 5.872 0 011.742 4.082 4.89 4.89 0 01-.183 1.356 1.494 1.494 0 01-.213.464zm-55.556 31.379s-11.105-10.029-15.974-9.944c-4.869.086-20.858-1.008-14.153 21.557 6.76 22.74 18.854 57.512 19.186 56.267l20.823-9.324-8.462-32.347s28.385.327 33.863-.409c5.478-.735 15.736-8.064 15.736-8.064l-1.628 40.855 21.774-1.235s3.053-49.095 3.959-59.185c.767-8.79-8.908-18.648-18.805-16.421-6.433 1.452-29.538 18.044-29.538 18.044l-26.781.206z" fill="#263238"/><path d="M193.39 183.648a6.02 6.02 0 01-.025 1.074l-.148 2.908c-.109 2.455-.188 5.852-.247 9.611-.06 3.76-.129 7.157-.258 9.617a58.835 58.835 0 01-.193 2.913 6.03 6.03 0 01-.138 1.063 6.202 6.202 0 010-1.073c0-.756.049-1.734.079-2.913.04-2.52.094-5.892.148-9.617.055-3.724.179-7.156.357-9.616.089-1.23.178-2.223.262-2.908a6.12 6.12 0 01.163-1.059z" fill="#455A64"/><path d="M192.51 202.785a4.276 4.276 0 01-.96-1.179 13.045 13.045 0 01-1.559-3.342 13.541 13.541 0 01-.584-3.654 4.506 4.506 0 01.134-1.512c.119 0-.049 2.349.802 5.071.851 2.721 2.286 4.551 2.167 4.616zm-29.612 8.281c-.035 0-.084-.554-.252-1.557a20.314 20.314 0 00-1.139-4.113 21.135 21.135 0 00-3.147-5.443 19.971 19.971 0 00-5.814-4.924c-4.721-2.783-8.873-5.514-11.773-7.651-1.45-1.064-2.588-1.976-3.345-2.646-.381-.328-.663-.605-.851-.786-.188-.182-.287-.288-.277-.298.009-.01.435.343 1.222.973.787.63 1.935 1.512 3.399 2.545 2.93 2.072 7.097 4.763 11.808 7.56a19.786 19.786 0 015.903 5.04 20.725 20.725 0 013.123 5.544c.509 1.35.859 2.755 1.044 4.189.054.387.089.778.104 1.169.012.132.01.266-.005.398zm7.679-23.945a5.51 5.51 0 01-.361.948 34.578 34.578 0 00-.99 2.56 46.775 46.775 0 00-2.904 17.827c.034 1.164.094 2.106.153 2.757.048.333.061.671.04 1.008a5.32 5.32 0 01-.183-1.008c-.104-.646-.198-1.588-.273-2.757a42.175 42.175 0 012.9-17.923c.436-1.083.827-1.945 1.129-2.52.133-.313.298-.612.489-.892zm-41.751-2.938c.108.055.209.122.302.201l.836.615c.178.141.381.292.599.454.218.161.426.388.663.605.549.477 1.065.992 1.544 1.542l.846.952c.268.353.535.726.822 1.109l.43.59c.139.206.268.423.401.64.262.433.549.872.817 1.341a41.522 41.522 0 012.791 6.421c.821 2.348 1.445 4.636 1.979 6.713l1.45 5.544c.421 1.573.762 2.843 1.019 3.715.119.418.208.756.282 1.008.039.116.065.236.08.357a1.742 1.742 0 01-.129-.342l-.327-1.008c-.287-.862-.658-2.127-1.103-3.695-.446-1.567-.935-3.447-1.485-5.514-.549-2.066-1.192-4.354-2.014-6.693a42.102 42.102 0 00-2.756-6.385c-.257-.469-.54-.903-.802-1.341-.128-.212-.252-.429-.391-.635l-.42-.585c-.277-.383-.54-.761-.807-1.109l-.821-.957a16.763 16.763 0 00-1.51-1.563c-.232-.216-.435-.438-.643-.615l-.584-.468-.802-.655a2.185 2.185 0 01-.267-.242z" fill="#455A64"/><path d="M141.396 187.459c3.959 2.666 8.324 3.291 12.985 4.198 2.692.504 5.508 1.008 8.131.212 5.631-1.694 11.075-8.22 14.692-10.549l-11.213-3.558-24.595 9.697z" fill="#C6E1F6"/><path d="M149.383 190.11c.231-.928.545-1.833.94-2.702.315-.903.711-1.776 1.183-2.606a16.05 16.05 0 01-.945 2.702c-.315.903-.71 1.775-1.178 2.606zm14.865-.983a9.408 9.408 0 01-2.099-.746 9.157 9.157 0 01-1.979-1.008 19.477 19.477 0 014.092 1.739l-.014.015zm3.835-7.011c-.819.121-1.648.153-2.474.096-.828.03-1.657-.026-2.474-.166a11.377 11.377 0 012.474-.096c.828-.03 1.657.025 2.474.166z" fill="#fff"/></svg>