<svg width="320" height="330" fill="none" xmlns="http://www.w3.org/2000/svg"><path fill-rule="evenodd" clip-rule="evenodd" d="M108.709 275.035c-25.468-4.061-59.269 3.934-72.133-21.081-12.938-25.157 10.465-60.085 14.312-91.35 3.45-28.041-7.143-57.632 7.025-82.059 14.352-24.742 40.926-34.92 64.813-41.792 21.76-6.26 41.843 1.275 62.956 5.035 24.637 4.389 52.308.48 70.575 18.749 20.656 20.658 34.791 51.813 33.962 85.803-.845 34.67-15.445 71.165-38.402 96.255-21.277 23.253-50.929 25.399-78.223 31.204-22.341 4.753-43.241 2.687-64.885-.764z" fill="#E1F0EE"/><path d="M183.701 174.237l-34.259 72.147.938 9.472 42.76-40.611-7.452-.482 23.79-21.628a69.09 69.09 0 01-6.658-6.879c-6.051-7.264-9.406-15.602-11.973-24.39l1.746-.449a75.224 75.224 0 00-2.99-16.521l-13.146 31.028 7.244-1.687z" fill="#093636"/><path d="M241.77 208.776l-85.925 41.614a118.922 118.922 0 01-4.514-.951v-.182l47.444-37.699-7.537-1.186 26.298-19.992a111.518 111.518 0 005.486 5.628c2.13 2.059 4.332 4.065 6.514 6.045 1.993 1.792 3.557 3.616 6.371 4.359a18.657 18.657 0 015.863 2.364zm-.652 3.961a8.713 8.713 0 00-1.798-1.603l-84.191 40.012c9.504 1.882 20.064 2.944 29.673 2.325 30.024-3.622 45.776-14.585 55.632-31.223l3.121-1.896a2.5 2.5 0 00.723-3.85l-3.16-3.765zm-145.98-2.658l-.248 7.055-13.028-9.446a113.742 113.742 0 007.289 17.654c8.749 16.397 24.331 33.119 53.372 36.103 3.459.358 8.469.039 14.293-.893l-.723-2.358-60.955-48.115z" fill="#093636"/><path d="M115.932 88.54l-3.909-30.526a35.713 35.713 0 00-7.72 10.495c-11.68 23.718-7.634 36.988 8.554 46.714l.606.352-6.834-32.168 9.303 5.133z" fill="#6DA4CD"/><path d="M189.134 134.551l22.956-56.818v14.54l-22.956 42.278z" fill="#093636"/><path d="M218.729 176.882l29.816-38.852-3.108 11.198-26.708 27.654zm-131.571-41.51l-13.25-29.503-1.369 7.393 14.619 22.11zm14.182 74.017l51.978 56.961-1.446-11.113-38.924-64.395.424 5.687-17.094-22.305L107 175.989l-18.644-33.106a21.707 21.707 0 00-2.931 11.348c.352 16.977.938 35.178 3.257 50.721l11.237 11.342 1.421-6.905z" fill="#6DA4CD"/><path d="M123.944 138.688l13.922 88.791 8.625-127.617-6.176 3.968-1.472-51.405c-8.43-.176-17.361 2.345-24.397 8.618l3.583 30.618-9.283-5.375 6.476 32.312a69.953 69.953 0 0011.576 5.661c-.248.651-.489 1.257-.73 1.863a83.817 83.817 0 00-9.426-.43l3.088 15.439 4.214-2.443z" fill="#093636"/><path d="M97.887 170.934l14.983 23.602.104-5.7 32.846 67.313-.965-28.012-21.999-84.622-3.993 2.704-3.361-18.045c-1.525.124-3.082.28-4.691.488a25.765 25.765 0 00-17.914 10.423l15.517 34.527-10.527-2.678z" fill="#093636"/><path d="M168.848 108.97l-6.515 19.934c7.981-.313 14.827-1.414 19.198-2.756-5.726-3.335-7.393-12.794-7.022-22.514l-5.27 8.69-.391-3.354z" fill="#6DA4CD"/><path d="M169.851 136.369l-.045-.033c-.313-.195-.652-.391-.958-.573-5.687-3.185-10.996-6.058-16.416-8.43a9.137 9.137 0 01-1.095-2.605c3.192.482 6.3.801 9.27.99l8.593-20.559.052 3.622 6.182-8.71a90.468 90.468 0 014.189-17.367c4.742-13.322-5.212-22.469-10.293-21.244-3.146-7.882-13.908-13.504-25.719-13.856l-.404 47.216 6.228-3.908-8.97 131.72 4.775 33.1 31.041-73.658-7.166 1.987 11.772-31.602c-2.228-6.221-5.687-12.637-11.036-16.09z" fill="#093636"/><path d="M140.725 160.212c-5.68 11.634-3.98 18.338 3.472 23.406 9.694 6.592 23.38 6.768 28.957 5.289-4.13-3.335-2.828-14.715-.873-21.328 1.954-6.612-2.743-10.957-5.023-10.305-3.081-7.603-20.031-10.391-26.533 2.938z" fill="#093636"/><path opacity=".6" d="M140.725 160.212c-5.68 11.634-3.98 18.338 3.472 23.406 9.694 6.592 23.38 6.768 28.957 5.289-4.13-3.335-2.828-14.715-.873-21.328 1.954-6.612-2.743-10.957-5.023-10.305-3.081-7.603-20.031-10.391-26.533 2.938z" fill="#fff"/><path d="M171.831 199.878l.294 1.302.325 1.381.704 2.769c.495 1.844 1.003 3.681 1.583 5.472.58 1.792 1.185 3.564 1.869 5.257a40.972 40.972 0 002.254 4.84c.398.732.833 1.443 1.303 2.131.222.345.456.651.684.951l.769.957a37.933 37.933 0 003.7 3.779 76.141 76.141 0 004.358 3.576c.378.287.762.58 1.153.86s.775.573 1.166.86l2.326 1.668.169.117a2.783 2.783 0 01.931 3.42 2.785 2.785 0 01-3.178 1.57 37.592 37.592 0 01-3.173-.873 41.032 41.032 0 01-3.042-1.108 43.127 43.127 0 01-5.863-2.905 35.195 35.195 0 01-5.563-4.026c-.436-.417-.873-.821-1.303-1.251-.43-.43-.847-.925-1.225-1.4a34.149 34.149 0 01-2.117-2.873 57.294 57.294 0 01-5.745-11.993 83.052 83.052 0 01-1.903-6.137 73.03 73.03 0 01-.775-3.107c-.111-.521-.234-1.042-.332-1.576l-.313-1.662a5.568 5.568 0 014.347-6.464 5.57 5.57 0 016.558 4.204l.039.261z" fill="#FFBE9D"/><path d="M168.053 194.77c6.488 3.759 8.071 17.439 8.071 17.439-4.918.365-10.95 2.56-15.719 5.915 0 0-2.176-8.312-2.006-12.442.169-4.28 5.941-13.055 9.654-10.912z" fill="#fff"/><path d="M199.309 244.39l2.554-2.645a1.59 1.59 0 00.445-1.133 1.581 1.581 0 00-.491-1.114l-1.915-1.837a5.05 5.05 0 00-2.717-1.303l-6.299-.958-1.752 3.518c2.605 2.736 4.468 3.524 4.468 3.524l3.759 2.215a1.59 1.59 0 001.948-.267z" fill="#FFBE9D"/><path d="M159.721 233.804l-22.54 4.137c-2.052 11.791 3.082 26.943 23.335 26.943 24.663 0 46.682-4.208 43.184-15.543-4.215-13.635-43.979-15.537-43.979-15.537z" fill="#6DA4CD"/><path d="M126.4 237.941c-2.052 11.791 3.082 30.852 23.335 30.852 33.223 0 52.629.528 55.326-11.022 2.697-11.55-42.232-14.944-42.232-14.944s1.511-3.538-.75-11.381c-21.933.384-35.679 6.495-35.679 6.495z" fill="#6DA4CD"/><path opacity=".1" d="M126.4 237.941c-2.052 11.791 3.082 30.852 23.335 30.852 33.223 0 52.629.528 55.326-11.022 2.697-11.55-42.232-14.944-42.232-14.944s1.511-3.538-.75-11.381c-21.933.384-35.679 6.495-35.679 6.495z" fill="#fff"/><path d="M168.053 194.77c-8.052-4.723-14.442-8.019-25.152-7.218a12.5 12.5 0 00-11.315 10.554c-2.059 12.957-5.531 28.09-5.212 39.835 22.8 9.433 36.044 1.01 35.679-6.514-5.387-14.104 8.13-20.925 8.814-28.983.378-4.104-.15-6.117-2.814-7.674z" fill="#fff"/><path d="M151.057 175.566c1.303 4.814-.541 9.322-1.772 12.781a107.916 107.916 0 018.645 14.781c7.035-5.355 4.43-10.423 4.43-10.423-4.3-2.697-2.952-6.996-1.036-9.986l-10.267-7.153z" fill="#FFBE9D"/><path opacity=".2" d="M157.949 177.064l3.375 5.648a14.145 14.145 0 00-1.186 2.176c-2.254.247-5.283-2.795-5.009-4.873.13-.977 2.521-2.567 2.82-2.951z" fill="#000"/><path d="M146.81 168.029c1.824 7.166 2.436 10.26 6.814 13.296 6.579 4.56 14.983.762 15.367-6.821.332-6.821-2.703-17.426-10.364-18.97a10.115 10.115 0 00-9.391 2.954 10.118 10.118 0 00-2.426 9.541z" fill="#FFBE9D"/><path d="M165.337 157.488c.143 2.391-7.01 2.984-11.003 2.723-2.573-.169-4.814 1.303-4.456 3.577.345 2.137 2.28 3.544 3.733 2.99 1.498 4.56-4.56 9.413-9.935 5.967-5.374-3.446 4.15-27.36 21.661-15.257z" fill="#093636"/><path opacity=".6" d="M165.337 157.488c.143 2.391-7.01 2.984-11.003 2.723-2.573-.169-4.814 1.303-4.456 3.577.345 2.137 2.28 3.544 3.733 2.99 1.498 4.56-4.56 9.413-9.935 5.967-5.374-3.446 4.15-27.36 21.661-15.257z" fill="#fff"/><path opacity=".2" d="M157.884 167.664a2.334 2.334 0 00-1.922.3 4.734 4.734 0 001.922-.3zm0 .502a2.074 2.074 0 00-1.655.736 4.225 4.225 0 001.655-.736zm5.238 7.178a2.099 2.099 0 00-1.805-.156 4.163 4.163 0 001.805.156zm.228-15.133s-3.694.228-5.518 1.303a29.286 29.286 0 005.518-1.303z" fill="#000"/><path d="M158.764 167.768c.117.593.521.469.905.397.384-.071.612-.071.495-.651-.117-.58-.514-1.01-.899-.938-.384.072-.612.599-.501 1.192zm6.69-1.264c.111.587.436.502.821.43.384-.071.69-.104.579-.697-.11-.592-.514-1.009-.899-.938-.384.072-.612.613-.501 1.205z" fill="#093636"/><path d="M165.786 165.364l1.348-.651s-.521 1.244-1.348.651z" fill="#093636"/><path d="M146.113 174.563a5.422 5.422 0 003.674 1.902c1.896.143 2.475-1.642 1.642-3.257-.756-1.44-2.645-3.258-4.398-2.645-1.752.612-2.039 2.651-.918 4z" fill="#FFBE9D"/><path d="M158.679 162.641a.347.347 0 00-.287.3c-.221 1.622-2.078 2.606-2.097 2.606a.336.336 0 00-.177.206.34.34 0 00.027.269.345.345 0 00.206.174.355.355 0 00.269-.024c.092-.045 2.209-1.172 2.469-3.153a.338.338 0 00-.065-.262.343.343 0 00-.234-.135l-.111.019zm5.674-.938a.344.344 0 00-.355.293.343.343 0 00.063.265c.028.038.063.07.103.094a3.508 3.508 0 003.211.312.348.348 0 00.209-.339.358.358 0 00-.115-.249.367.367 0 00-.119-.074.358.358 0 00-.274.011 2.81 2.81 0 01-2.541-.274.328.328 0 00-.182-.039zm-5.251 4.906l1.342-.652s-.521 1.238-1.342.652z" fill="#093636"/><path d="M144.666 195.194c.463 2.54.984 5.211 1.505 7.817a256.188 256.188 0 001.7 7.817 181.772 181.772 0 001.955 7.609 56.455 56.455 0 002.501 6.99c.117.261.235.521.358.756.124.234.261.527.326.651l.117.222.176.254c.126.188.263.369.411.54a20.209 20.209 0 002.325 2.365 61.35 61.35 0 006.072 4.56c4.345 2.932 9.068 5.668 13.68 8.345l.059.039a2.78 2.78 0 011.167 3.479 2.772 2.772 0 01-3.304 1.596c-2.769-.775-5.394-1.681-8.045-2.697a100.888 100.888 0 01-7.818-3.401 56.725 56.725 0 01-7.661-4.494 27.646 27.646 0 01-3.771-3.16 17.593 17.593 0 01-.925-1.023l-.463-.56-.449-.651c-.333-.463-.515-.789-.73-1.147a30.7 30.7 0 01-.606-1.055 56.49 56.49 0 01-3.609-8.3c-.977-2.736-1.791-5.478-2.534-8.221a132.102 132.102 0 01-1.954-8.247c-.56-2.755-1.088-5.485-1.505-8.364a5.572 5.572 0 014.609-6.228 5.568 5.568 0 016.374 4.404l.039.104z" fill="#FFBE9D"/><path d="M140.953 189.122c7.068 2.45 7.987 18.286 7.987 18.286-3.752-.827-13.081 5.14-14.983 8.573 0 0-3.036-10.045-2.866-14.169.182-4.299 4.566-14.52 9.862-12.69z" fill="#fff"/><path d="M180.209 252.748l2.983-2.43a1.658 1.658 0 00.235-2.345l-1.772-2.143a5.21 5.21 0 00-2.651-1.72l-6.43-1.778-2.261 3.465c2.359 3.166 4.202 4.222 4.202 4.222l3.635 2.762a1.678 1.678 0 002.059-.033z" fill="#FFBE9D"/><path d="M160.718 173.677a6.715 6.715 0 00-1.127.293.21.21 0 00-.124.26.206.206 0 00.261.124 5.489 5.489 0 014.931.502.201.201 0 00.148.037.203.203 0 00.093-.363 5.672 5.672 0 00-4.182-.853z" fill="#093636"/><path d="M163.061 171.937c0-.024.622-.054 1.619-.081.253 0 .495-.019.548-.097.042-.12.002-.243-.115-.352-.195-.287-.383-.586-.61-.901-.843-1.282-1.438-2.333-1.323-2.349.115-.016.886 1.013 1.73 2.289l.579.907c.135.144.157.305.061.456a.52.52 0 01-.179.101 1.079 1.079 0 01-.258.054 4.073 4.073 0 01-.429.014c-1.001.003-1.623-.014-1.623-.041z" fill="#263238"/></svg>