<svg width="320" height="322" fill="none" xmlns="http://www.w3.org/2000/svg"><path fill-rule="evenodd" clip-rule="evenodd" d="M109.967 266.464c-25.739-4.317-59.696 2.901-73.048-21.496-13.428-24.535 9.634-57.969 13.035-88.157 3.05-27.076-8.081-55.866 5.83-79.28 14.092-23.718 40.73-33.159 64.709-39.442 21.843-5.724 42.207 1.872 63.551 5.832 24.907 4.621 52.746 1.262 71.442 19.215 21.141 20.302 35.869 50.658 35.552 83.529-.323 33.529-14.486 68.613-37.249 92.535-21.097 22.171-50.961 23.795-78.391 28.995-22.452 4.256-43.556 1.938-65.431-1.731z" fill="#C5CBF1"/><path d="M202.637 136.41a4.27 4.27 0 00-2.216-3.85 4.279 4.279 0 00-4.438.194 7.963 7.963 0 00-2.875 3.151c-1.805 3.314-2.021 7.226-2.398 10.977a26.78 26.78 0 01-3.272 10.627l13.791-16.432a8.038 8.038 0 001.408-4.667z" fill="#FFEEF2"/><path opacity=".2" d="M202.637 136.41a4.27 4.27 0 00-2.216-3.85 4.279 4.279 0 00-4.438.194 7.963 7.963 0 00-2.875 3.151c-1.805 3.314-2.021 7.226-2.398 10.977a26.78 26.78 0 01-3.272 10.627l13.791-16.432a8.038 8.038 0 001.408-4.667z" fill="#000"/><path d="M186.838 127.434c.815.673 27.671 31.503 27.671 31.503l-14.526 11.536-18.452-22.998 5.307-20.041zm-80.03 10.418c-.714.794-22.412 29.63-22.412 29.63l13.583 14.721 16.668-25.165-7.839-19.186z" fill="#FFBE9D"/><path d="M107.051 156.957c1.582.727 2.478 2.417 3.077 4.04.599 1.623 1.044 3.367 2.169 4.714 1.124 1.347 3.225 2.068 4.639 1.044 1.415-1.024 1.415-2.997.809-4.539a9.325 9.325 0 00-3.94-4.384 19.484 19.484 0 00-5.603-2.094" fill="#FFEEF2"/><path opacity=".2" d="M107.051 156.957c1.582.727 2.478 2.417 3.077 4.04.599 1.623 1.044 3.367 2.169 4.714 1.124 1.347 3.225 2.068 4.639 1.044 1.415-1.024 1.415-2.997.809-4.539a9.325 9.325 0 00-3.94-4.384 19.484 19.484 0 00-5.603-2.094" fill="#000"/><path d="M233.305 215.269a9.834 9.834 0 00-1.482-.283l-54.13-22.701h-53.807L70.82 213.249c-5.387 1.791-13.071 12.303-8.714 24.863.121.35.25.673.377 1.017 3.488 8.754 13.166 13.28 22.223 10.855 7.334-1.959 17.866-4.828 28.708-7.798h1.219l33.759-9.576a23203.4 23203.4 0 0028.749 7.919c15.01 4.128 31.846 8.755 42.237 11.509 9.085 2.431 18.769-2.121 22.223-10.856.135-.329.256-.673.377-1.016 4.398-12.593-3.286-23.106-8.673-24.897z" fill="#455A64"/><path d="M147.975 232.69l.188-.067.546-.168 2.141-.627 8.081-2.303-.094.162-5.387-19.799.181.142h-5.502c-1.905 0-3.858.175-5.852.255l-12.458.674a1766.946 1766.946 0 00-39.375 2.754l-11.954.97-3.246.263-.841.06a1.275 1.275 0 01-.29 0 1.36 1.36 0 01.283-.054l.842-.094 3.232-.35c2.815-.283 6.883-.674 11.913-1.118a1317.688 1317.688 0 0139.375-2.882l12.465-.674c2.021-.081 3.953-.222 5.859-.242h5.711v.148c2.094 7.879 3.906 14.701 5.266 19.832l.034.122-.121.033-8.081 2.189-2.162.559-.559.135a.537.537 0 01-.195.08z" fill="#263238"/><path d="M130.445 210.535c-.06.094-1.555-.761-3.178-2.115-1.623-1.353-2.734-2.694-2.653-2.747.08-.054 1.346 1.077 2.929 2.417 1.582 1.34 2.97 2.337 2.902 2.445zm96.476 6.694a5.39 5.39 0 01-.741 0l-2.121-.128-7.799-.532-25.704-1.751-25.746-1.556-7.805-.458-2.141-.141a4.882 4.882 0 01-.734-.074c.246-.024.494-.024.741 0l2.128.067 7.805.323c6.599.303 15.704.788 25.758 1.435 10.055.646 19.146 1.313 25.725 1.852l7.792.673 2.114.202c.245.006.488.036.728.088zm-78.051-1.037c-.074-.081.815-.896 2.223-1.246 1.407-.35 2.579-.081 2.545 0-.034.081-1.131.047-2.438.39-1.306.344-2.256.957-2.33.856zm1.468 3.421c0-.122.97-.33 2.196-.479 1.225-.148 2.236-.168 2.249-.053.013.114-.97.336-2.195.478-1.226.141-2.236.168-2.25.054zm.66 3.973c0-.128 1.206-.162 2.606-.579 1.401-.418 2.431-1.011 2.505-.903a4.71 4.71 0 01-2.39 1.347c-1.475.404-2.734.242-2.721.135zm1.32 4.269c0-.128 1.152-.215 2.458-.72 1.307-.505 2.25-1.172 2.324-1.071.074.101-.775.963-2.169 1.475-1.394.512-2.619.431-2.613.316z" fill="#263238"/><path d="M176.986 208.481c.088.087-.815 1.138-1.818 2.505-1.004 1.367-1.758 2.532-1.866 2.471-.107-.06.485-1.347 1.516-2.727 1.03-1.381 2.087-2.33 2.168-2.249z" fill="#263238"/><path d="M153.827 209.787l-12.896-1.953s-1.172-3.037-3.159-3.192c-1.986-.154-3.825 2.021-5.273 1.906-1.448-.114-18.768-5.96-19.758 1.886l7.206 2.97m76.191 5.488l-38.385 8.229-3.448-13.179 14.202-.673s1.704-2.782 3.684-2.573c1.98.209 3.367 2.694 4.849 2.815 1.481.121 19.529-2.512 19.098 5.381z" fill="#FFBE9D"/><path d="M123.213 193.618s-.108.061-.33.162l-.99.458c-.869.404-2.162.976-3.832 1.697-3.367 1.441-8.209 3.428-14.25 5.832-6.04 2.404-13.24 5.219-21.159 8.559-3.96 1.663-8.202 3.239-12.243 5.562l-.754.452a.69.69 0 00-.135.094v-.047c.108.056.224.092.344.107.575.091 1.155.141 1.737.149 1.186.033 2.377 0 3.583 0 2.41-.061 4.862-.169 7.334-.297 9.906-.525 19.327-1.232 27.893-1.885l22.762-1.812 15.34-1.279 4.176-.337 1.084-.081h.37s-.128 0-.37.054l-1.078.115-4.168.404-15.334 1.387c-6.472.566-14.182 1.219-22.755 1.892-8.573.674-17.994 1.387-27.9 1.913-2.478.128-4.93.235-7.34.289-1.213 0-2.411.041-3.61 0a12.48 12.48 0 01-1.791-.148 1.297 1.297 0 01-.492-.182.298.298 0 01-.115-.229.314.314 0 01.088-.208c.068-.063.142-.117.222-.162l.754-.451c4.081-2.344 8.337-3.906 12.297-5.563 7.927-3.326 15.146-6.114 21.193-8.492 6.047-2.377 10.936-4.33 14.283-5.731l3.859-1.629.997-.424.33-.169zm53.093 0c.086.018.17.047.249.088l.72.303 2.748 1.185 10.101 4.303 33.476 13.981a84.79 84.79 0 019.428 4.309c.371.202.734.411 1.085.627.189.104.372.221.545.35.049.046.094.096.135.148a.348.348 0 01.06.269c0 .122-.08.162-.141.229-.054.038-.11.072-.168.101a9.005 9.005 0 01-2.472.303c-1.616.034-3.192 0-4.714-.087-6.135-.296-11.643-.801-16.27-1.226-4.626-.424-8.357-.835-10.936-1.118l-2.97-.343-.775-.101a1.468 1.468 0 01-.255-.047h.262l.775.06 2.976.283 10.95 1.004c4.627.39 10.135.875 16.263 1.151 1.529.061 3.098.115 4.714.074.79.013 1.578-.08 2.344-.276l.094-.054s.041-.033 0 0c-.04.034 0-.047-.081-.101-.08-.054-.316-.208-.498-.316-.35-.209-.707-.418-1.071-.62a87.798 87.798 0 00-9.387-4.283c-13.078-5.455-24.917-10.411-33.443-14.074-4.262-1.832-7.704-3.368-10.101-4.411l-2.694-1.239-.707-.337-.242-.135z" fill="#fff"/><path d="M147.948 116.363a11.099 11.099 0 008.566-3.175 11.1 11.1 0 003.273-8.53c-.162-2.788-.303-4.916-.303-4.916s8.788-1.347 8.896-10.148c.107-8.802-1.415-28.957-1.415-28.957a30.517 30.517 0 00-30.668 3.872l-1.306 1.003 2.694 40.527a11.09 11.09 0 0010.263 10.324z" fill="#FFBE9D"/><path d="M159.504 99.635a20.447 20.447 0 01-11.449-3.253s2.694 6.324 11.449 5.529v-2.276z" fill="#EB996E"/><path d="M136.075 74.61c-.148-.067-6.061-1.784-5.838 4.216.222 6 6.175 4.572 6.182 4.404.006-.168-.344-8.62-.344-8.62z" fill="#FFBE9D"/><path d="M134.513 81.028s-.101.074-.276.161a1.057 1.057 0 01-.781.041c-.674-.216-1.212-1.206-1.273-2.283a3.518 3.518 0 01.242-1.508 1.237 1.237 0 01.761-.829.532.532 0 01.627.27c.087.161.053.282.087.296.034.013.121-.108.068-.35a.627.627 0 00-.25-.37.753.753 0 00-.579-.135 1.459 1.459 0 00-1.064.963 3.533 3.533 0 00-.31 1.683c.074 1.212.734 2.324 1.61 2.546a1.1 1.1 0 00.949-.189c.182-.155.209-.29.189-.296z" fill="#EB996E"/><path d="M147.2 73.688c.155-.169 1.105.538 2.458.532 1.354-.007 2.337-.674 2.485-.512.148.161-.087.37-.518.673a3.403 3.403 0 01-2.021.613 3.294 3.294 0 01-1.953-.626c-.384-.317-.525-.613-.451-.68zm13.267-.256c.155-.162 1.104.538 2.458.538 1.353 0 2.337-.673 2.485-.511.067.067-.088.363-.519.673-.594.407-1.3.621-2.02.613a3.367 3.367 0 01-1.953-.633c-.384-.31-.525-.606-.451-.68zm-3.536 9.852a8.833 8.833 0 012.196-.398c.343-.033.673-.1.727-.336.03-.357-.05-.714-.229-1.024l-1.017-2.626c-1.414-3.731-2.444-6.809-2.29-6.862.155-.054 1.421 2.929 2.836 6.666l.976 2.64c.217.414.279.892.175 1.347a.833.833 0 01-.566.505 2.18 2.18 0 01-.585.081 9.065 9.065 0 01-2.223.007zm-3.966.929c.215 0 .222 1.455 1.474 2.492 1.253 1.037 2.815.882 2.822 1.084 0 .094-.343.29-1.003.303a3.595 3.595 0 01-2.357-.821 3.142 3.142 0 01-1.145-2.088c-.054-.613.087-.977.209-.97zm-.579-14.856c-.135.37-1.482.196-3.065.384-1.582.189-2.862.626-3.077.296-.088-.161.135-.505.673-.862a5.39 5.39 0 014.714-.511c.539.235.808.518.755.693zm12.418 1.293c-.236.303-1.165 0-2.283 0-1.118 0-2.068.202-2.283-.114-.094-.162.054-.465.464-.754a3.303 3.303 0 013.684.114c.397.283.525.6.418.754z" fill="#263238"/><path d="M171.242 55.121a3.247 3.247 0 00-1.199-2.896 2.296 2.296 0 00-2.977.222 2.685 2.685 0 00-.434-2.137 2.7 2.7 0 00-1.875-1.115c-1.428-.088-2.654.99-4.041 1.347a6.511 6.511 0 01-4.101-.478c-1.3-.519-2.512-1.246-3.832-1.724a11.233 11.233 0 00-14.364 6.592c-1.919-.599-4.101.378-5.287 2.02a8.156 8.156 0 00-1.252 5.759 18.59 18.59 0 001.003 3.94v.336c.088 4.828.64 10.505 2.694 10.532 3.596.054 2.741-6.734 2.741-6.734 4.404-1.704 2.761-8.31 3.865-9.307 1.105-.997 3.408-3.367 12.634 1.387 3.582 1.832 8.344 1.772 10.943 1.179l.229-.04h.054a.295.295 0 00.081-.034 8.197 8.197 0 002.363-1.003 4.713 4.713 0 001.953-2.169 2.567 2.567 0 00-.505-2.748 5.64 5.64 0 001.307-2.929z" fill="#263238"/><path d="M162.474 43.633s.067.08.168.242c.144.236.261.486.35.748.338.971.403 2.017.189 3.023a5.946 5.946 0 01-2.425 3.751c-1.468.977-3.481 1.165-5.387.876-1.906-.29-3.704-.916-5.34-1.253a9.78 9.78 0 00-4.371-.108 5.807 5.807 0 00-2.613 1.347c-.512.485-.673.835-.734.815-.06-.02 0-.094.128-.263.145-.243.317-.468.512-.673a5.55 5.55 0 012.653-1.455 9.63 9.63 0 014.492 0c1.663.324 3.421.95 5.32 1.22a7.516 7.516 0 005.179-.795 5.721 5.721 0 002.35-3.522 5.794 5.794 0 00-.074-2.93c-.216-.673-.431-1.023-.397-1.023z" fill="#455A64"/><path d="M160.197 45.269a1.863 1.863 0 01.566 1.347 3.07 3.07 0 01-.296 1.589 3.428 3.428 0 01-1.347 1.441 4.076 4.076 0 01-1.899.546 4.72 4.72 0 01-1.59-.216 2.944 2.944 0 01-1.293-.673c0-.047.512.222 1.347.43a4.404 4.404 0 003.246-.397 3.3 3.3 0 001.253-1.28c.228-.443.343-.935.336-1.434a4.643 4.643 0 00-.323-1.353z" fill="#263238"/><path d="M190.953 189.847a6.656 6.656 0 01-3.664 6.465l-9.596-4.041-11.832.795 4.667-12.674s13.293 1.63 15.172 3.138c1.879 1.509 5.401 4.324 5.253 6.317z" fill="#FFEEF2"/><path opacity=".4" d="M190.953 189.847a6.656 6.656 0 01-3.664 6.465l-9.596-4.041-11.832.795 4.667-12.674s13.293 1.63 15.172 3.138c1.879 1.509 5.401 4.324 5.253 6.317z" fill="#000"/><path d="M190.953 189.847a6.656 6.656 0 01-3.664 6.465l-9.596-4.041-11.832.795 4.667-12.674s13.293 1.63 15.172 3.138c1.879 1.509 5.401 4.324 5.253 6.317z" fill="#FFEEF2"/><path opacity=".4" d="M190.953 189.847a6.656 6.656 0 01-3.664 6.465l-9.596-4.041-11.832.795 4.667-12.674s13.293 1.63 15.172 3.138c1.879 1.509 5.401 4.324 5.253 6.317z" fill="#000"/><path d="M200.92 132.902l-.937-.835-20.303-15.9c-6.27-6.66-10.829-8.667-19.644-9.711-1.441-.168.828.108 0 0-6.734 2.081-15.819 2.283-22.587.196-3.131.128-5.731 1.097-8.398 1.609-8.404 1.61-12.896 7.542-16.128 13.381l-16.257 27.267.674 1.078a18.723 18.723 0 009.603 7.522l1.091.545a24.975 24.975 0 019.589 8.034l7.159-12.505-2.02 20.041-1.388 19.684a98.128 98.128 0 0029.375 3.744c14.142.068 33.847-17.165 40.204-7.205.087-5.105-6.337-12.122-8.122-15.489-5.529-10.526-4.491-14.782-4.889-22.681l9.496 5.825 1.703-3.333c1.441-2.815 4.189-9.085 5.213-13.967 0 .006 1.118-9.112 6.566-7.3z" fill="#FFEEF2"/><path d="M124.822 133.387c.06.27.085.546.074.822 0 .532.041 1.299.054 2.249 0 1.892.041 4.512 0 7.407-.04 2.896-.047 5.516-.094 7.408 0 .95-.047 1.717-.074 2.249.006.277-.021.552-.081.822a3.291 3.291 0 01-.074-.822c0-.532-.04-1.299-.054-2.249 0-1.892-.034-4.512 0-7.408.034-2.895.047-5.508.088-7.407 0-.943.047-1.711.074-2.243a3.344 3.344 0 01.087-.828zm54.285 31.786a7.8 7.8 0 01-.168-1.273c-.081-.889-.182-2.061-.31-3.482a869.428 869.428 0 01-.876-11.495 945.583 945.583 0 01-.754-11.502c-.081-1.421-.141-2.6-.188-3.489a8.12 8.12 0 010-1.286 7.8 7.8 0 01.168 1.273c.081.889.188 2.061.31 3.482.249 2.943.559 7.003.875 11.495.317 4.492.586 8.559.761 11.502l.182 3.495c.034.426.034.854 0 1.28z" fill="#263238"/><path opacity=".2" d="M134.863 107.352a52.214 52.214 0 0016.385 14.896c2.357 1.347 4.895 2.559 7.609 2.782 4.681.377 9.092-2.175 12.721-5.152 1.435-1.172 2.856-2.505 3.462-4.256.606-1.751.134-4.041-1.502-4.876a4.244 4.244 0 00-3.69.122 19.837 19.837 0 00-3.192 2.094 21.443 21.443 0 01-16.32 3.535 21.427 21.427 0 01-13.904-9.246" fill="#000"/><path d="M162.945 155.772a19.155 19.155 0 00-.431-2.829 11.018 11.018 0 00-1.3-3.071 11.724 11.724 0 00-2.942-3.259 11.45 11.45 0 00-10.876-1.623 10.8 10.8 0 00-2.903 1.562 10.784 10.784 0 00-2.424 2.438 11.446 11.446 0 000 13.556c.672.937 1.491 1.76 2.424 2.438a10.745 10.745 0 002.903 1.562 11.438 11.438 0 0010.835-1.623 11.712 11.712 0 002.943-3.259 11.065 11.065 0 001.3-3.071c.213-.928.357-1.872.431-2.821a.844.844 0 010 .188v.552a5.35 5.35 0 01-.074.903 8.179 8.179 0 01-.223 1.212 10.803 10.803 0 01-1.259 3.131 11.713 11.713 0 01-7.906 5.583 11.739 11.739 0 01-6.195-.492 10.955 10.955 0 01-2.99-1.596 10.823 10.823 0 01-2.499-2.505 11.734 11.734 0 010-13.96c.356-.474.743-.924 1.158-1.347a14.19 14.19 0 011.347-1.138 11.11 11.11 0 012.99-1.596 11.805 11.805 0 016.196-.491 11.715 11.715 0 017.906 5.582c.58.972 1.005 2.029 1.259 3.132.104.398.179.803.222 1.212.051.298.075.6.074.902v.559a.804.804 0 01.034.169z" fill="#fff"/><path d="M150.918 167.395c-.101 0-.176-5.206-.176-11.63 0-6.425.075-11.623.176-11.623.101 0 .175 5.198.175 11.623 0 6.424-.081 11.63-.175 11.63z" fill="#fff"/><path d="M160.5 162.829a5.215 5.215 0 01-.781-.539l-2.02-1.562a672.121 672.121 0 01-6.667-5.273l-.209-.162h.229a541.75 541.75 0 01-6.094 5.657l-1.872 1.684c-.218.216-.457.41-.714.579.183-.245.391-.47.619-.674l1.771-1.73a360.934 360.934 0 016.061-5.738l.108-.108.121.095.202.168a719.019 719.019 0 016.607 5.347c.788.673 1.454 1.219 1.973 1.65.239.182.463.385.666.606z" fill="#fff"/><path opacity=".2" d="M141.321 186.877a27.35 27.35 0 0026.52-10.377c.969-1.3 1.858-2.896 1.454-4.465-.404-1.569-2.209-2.66-3.899-2.62a7.403 7.403 0 00-4.525 2.068c-3.085 2.693-4.849 6.66-7.927 9.374a14.143 14.143 0 01-10.101 3.481 7.468 7.468 0 00-1.69.068 1.513 1.513 0 00-1.287 1.347c0 .673.526.956 1.448 1.131m35.786-47.463l.835 12.263 9.502 5.818 1.987-3.697-12.324-14.384z" fill="#000"/><path d="M201.101 133.097a5.117 5.117 0 00-1.138-.222 4.28 4.28 0 00-2.875 1.077 7.826 7.826 0 00-2.243 4.041c-.464 1.717-.909 3.65-1.528 5.63a75.985 75.985 0 01-3.799 9.906 56.003 56.003 0 01-1.434 2.875 6.445 6.445 0 01-.599 1.017c.136-.369.296-.728.478-1.077.316-.674.788-1.677 1.347-2.916a89.357 89.357 0 003.683-9.906c.62-1.973 1.064-3.879 1.556-5.623a7.879 7.879 0 012.397-4.122 4.336 4.336 0 013.037-1.017c.298.02.589.09.862.209.091.032.177.075.256.128zm-83.484 32.991a9.496 9.496 0 01-.674-.835 28.3 28.3 0 00-1.966-2.188 18.579 18.579 0 00-3.401-2.694c-1.387-.875-3.01-1.67-4.714-2.532a44.205 44.205 0 01-4.66-2.694 19.56 19.56 0 01-3.367-2.848 12.155 12.155 0 01-1.738-2.404 6.83 6.83 0 01-.357-.728c-.074-.168-.108-.256-.094-.262a17.514 17.514 0 002.37 3.225 20.273 20.273 0 003.368 2.748 47.853 47.853 0 004.639 2.646c1.691.862 3.327 1.671 4.714 2.573a17.586 17.586 0 013.395 2.801c.685.714 1.32 1.474 1.899 2.277.202.282.357.505.451.673.054.075.1.156.135.242zm53.833 4.075a1.57 1.57 0 01-.114.384c-.101.249-.216.626-.431 1.084a24.703 24.703 0 01-2.02 3.771 27.017 27.017 0 01-24.028 12.398 25.152 25.152 0 01-4.243-.546c-.492-.094-.869-.215-1.125-.276a1.915 1.915 0 01-.39-.128c.137.002.273.022.404.061.263.04.673.141 1.138.215a29.32 29.32 0 004.222.425c4.689.159 9.34-.886 13.509-3.036a27.436 27.436 0 0010.304-9.248 28.41 28.41 0 002.101-3.69c.229-.451.364-.815.485-1.057a2.06 2.06 0 01.188-.357z" fill="#263238"/><path opacity=".2" d="M118.216 164.674a99.617 99.617 0 016.606-28.587v17.428l-6.606 11.159z" fill="#000"/><path d="M134.52 107.002c2.949 6.323 10.774 9.913 17.603 11.233a22.545 22.545 0 0019.374-5.61c4.31-4.041 6.849-9.65 10.863-13.994a27.61 27.61 0 0127.725-7.522l.532-9.563c-3.273-2.12-11.698-2.889-15.55-2.31a30.655 30.655 0 00-19.408 11.361c-4.229 5.442-6.734 12.438-12.33 16.439-4.041 2.889-9.085 2.909-13.994 2.08-4.909-.828-8.223-5.32-12.014-8.545l-2.801 6.431z" fill="#263238"/><path d="M137.267 100.577a15.777 15.777 0 0010.537 5.907 15.767 15.767 0 0011.626-3.28c.875-.674 2.02-1.529 2.983-1.01.768.404.956 1.394 1.057 2.249.236 1.98.424 4.168-.741 5.785-1.165 1.616-3.151 2.094-5.037 2.417-4.471.741-9.219.674-13.367-1.151-4.149-1.825-6.701-6.391-7.058-10.917z" fill="#263238"/><path d="M165.255 105.419a1.321 1.321 0 01-.222.25c-.155.148-.371.383-.674.673a15.913 15.913 0 01-2.875 1.973 16.163 16.163 0 01-4.889 1.684c-2.1.366-4.251.299-6.324-.196a21.043 21.043 0 01-5.805-2.538 64.746 64.746 0 01-2.343-1.455 17.963 17.963 0 01-1.913-1.475 12.799 12.799 0 01-2.31-2.606 7.066 7.066 0 01-.464-.828c-.095-.196-.135-.303-.122-.31.014-.007.229.397.674 1.057a13.99 13.99 0 002.357 2.505c.611.506 1.249.978 1.912 1.415.721.457 1.515.929 2.351 1.42a21.39 21.39 0 005.717 2.472c2.027.486 4.132.562 6.189.222a16.493 16.493 0 004.828-1.589c1.027-.521 2-1.144 2.903-1.859.322-.289.659-.561 1.01-.815zm11.576.054a35.57 35.57 0 01-3.933-2.02 35.597 35.597 0 01-3.845-2.182 22.545 22.545 0 014.041 1.872 23.303 23.303 0 013.737 2.33zm4.694-6.115a34.616 34.616 0 01-4.317-2.181 34.402 34.402 0 01-4.148-2.492 32.46 32.46 0 014.316 2.182 33.372 33.372 0 014.149 2.491zm4.539-5.064a6.568 6.568 0 01-1.118-.97l-2.579-2.45-2.586-2.432a6.887 6.887 0 01-1.031-1.057c.43.243.83.534 1.192.869.674.579 1.664 1.407 2.694 2.364a43.326 43.326 0 012.512 2.532c.351.342.659.726.916 1.144zm.686-12.599c.364.43.687.895.963 1.387.674.976 1.381 2.135 2.209 3.407a195.56 195.56 0 002.243 3.367c.341.452.634.937.875 1.448a7.739 7.739 0 01-1.084-1.3 63.967 63.967 0 01-2.33-3.367 69.835 69.835 0 01-2.121-3.474 7.101 7.101 0 01-.755-1.468zm10.574-1.994c.18.487.311.99.39 1.502l.828 3.657c.31 1.36.627 2.572.889 3.636a7.02 7.02 0 01.317 1.522 6.368 6.368 0 01-.552-1.454 42.106 42.106 0 01-.997-3.623 58.906 58.906 0 01-.727-3.69 6.066 6.066 0 01-.148-1.55zm8.276-.121c.101 0 .06 2.276.202 5.07.141 2.795.397 5.051.296 5.065a5.708 5.708 0 01-.31-1.461 38.132 38.132 0 01-.336-3.59c-.068-1.407-.061-2.694 0-3.596-.014-.5.036-1 .148-1.488z" fill="#455A64"/><path d="M170.804 113.137a32.226 32.226 0 01-3.522-3.186 33.05 33.05 0 01-3.273-3.441 32.885 32.885 0 013.522 3.192 31.808 31.808 0 013.273 3.435zm-9.509 4.902a30.093 30.093 0 01-1.461-4.262 28.579 28.579 0 01-1.132-4.364 29.038 29.038 0 011.468 4.263 28.69 28.69 0 011.125 4.363zm-10.579-.141c.096-1.334.31-2.657.639-3.953a23.34 23.34 0 01.984-3.886 23.586 23.586 0 01-.64 3.953 23.435 23.435 0 01-.983 3.886zm-7.974-3.044a12.807 12.807 0 011.28-3.509 13.094 13.094 0 011.959-3.185c.088.061-.754 1.495-1.643 3.367-.889 1.872-1.508 3.361-1.596 3.327zm-2.215-10.176a12.195 12.195 0 01-1.543 3.051 12.702 12.702 0 01-2.02 2.734 26.012 26.012 0 011.751-2.922 25.614 25.614 0 011.812-2.863zm8.909 2.028c.094 0 .034.559-.034 1.212-.067.653-.121 1.185-.222 1.192-.101.006-.202-.552-.128-1.233.074-.68.29-1.198.384-1.171zm6.579 3.138a5.933 5.933 0 01-.464-2.162 5.666 5.666 0 010-2.202 8.89 8.89 0 01.336 2.168c.137.724.18 1.462.128 2.196zm4.728-7.125c.227.884.387 1.785.478 2.694.208.886.348 1.786.417 2.693a11.832 11.832 0 01-.895-5.387z" fill="#455A64"/><path d="M99.642 181.281l42.258-24.513a10.905 10.905 0 003.861-3.783 10.91 10.91 0 001.567-5.173l1.118-25.732a1.35 1.35 0 00-1.199-1.347 1.35 1.35 0 00-1.394.963l-5.387 19.307-50.312 21.308a10.628 10.628 0 00-6.464 10.384c.081 1.45.46 2.869 1.11 4.168a10.629 10.629 0 006.467 5.415 10.64 10.64 0 008.376-.997z" fill="#FFBE9D"/><path d="M140.452 140.99c-.156.095-.318.18-.484.256l-1.415.673-5.239 2.397c-4.438 2.021-10.593 4.714-17.435 7.61a738.585 738.585 0 01-17.624 7.172c-2.262.882-4.108 1.583-5.387 2.02l-1.475.539a2.417 2.417 0 01-.525.162c.162-.086.328-.162.498-.229l1.448-.599c1.3-.519 3.111-1.26 5.347-2.162a1189.09 1189.09 0 0017.577-7.26c6.842-2.889 13.01-5.569 17.468-7.515l5.287-2.297 1.448-.612c.165-.068.336-.12.511-.155z" fill="#EB996E"/><path d="M85.986 179.079c0-.034.565-.094 1.555-.337a9.166 9.166 0 001.744-.633c.73-.375 1.424-.814 2.075-1.313.734-.552 1.542-1.158 2.383-1.825a95.068 95.068 0 002.647-2.209 31.491 31.491 0 016.472-4.579 22.014 22.014 0 017.623-2.162c2.162-.2 4.341-.089 6.472.33 1.43.29 2.827.728 4.168 1.306.471.203.822.398 1.064.519.129.051.249.121.357.209a2.516 2.516 0 01-.384-.148c-.256-.095-.613-.276-1.091-.458a23.397 23.397 0 00-4.162-1.179 22.89 22.89 0 00-6.39-.256 22.148 22.148 0 00-7.502 2.155 32.264 32.264 0 00-6.418 4.512 73.596 73.596 0 01-2.694 2.189 97.904 97.904 0 01-2.424 1.791c-.67.5-1.384.935-2.135 1.3a9.322 9.322 0 01-1.791.586 12.15 12.15 0 01-1.179.182c-.129.022-.26.029-.39.02z" fill="#263238"/><path d="M94.094 175.106s.04.242.141.673c.152.569.441 1.091.842 1.522a5.325 5.325 0 002.155 1.414 4.468 4.468 0 003.091-.114l.29-.135-.081.222a5.866 5.866 0 00-1.859-2.404 5.738 5.738 0 00-2.263-1.037 9.364 9.364 0 00-2.316-.115c.193-.09.4-.145.613-.161a5.75 5.75 0 014.155 1.057 5.952 5.952 0 012.02 2.526l.067.154-.148.068-.316.148a4.718 4.718 0 01-3.368.101 5.392 5.392 0 01-2.235-1.562 3.501 3.501 0 01-.788-1.657 1.538 1.538 0 010-.7z" fill="#263238"/><path d="M94.094 175.105a8.1 8.1 0 012.087 1.004 7.511 7.511 0 011.913 1.313 8.064 8.064 0 01-2.088-1.003 7.486 7.486 0 01-1.912-1.314zm6.364-5.232c.108.192.204.39.289.593a3.68 3.68 0 001.165 1.293 5.462 5.462 0 002.424.882 4.48 4.48 0 002.984-.822l.249-.202v.236a5.914 5.914 0 00-2.357-1.913 5.825 5.825 0 00-2.445-.491 8.925 8.925 0 00-2.283.424c.169-.133.361-.234.566-.296a5.346 5.346 0 011.711-.371 5.618 5.618 0 012.572.445 5.959 5.959 0 012.525 2.02l.095.135-.128.101c-.088.067-.175.148-.276.215a4.714 4.714 0 01-3.219.862 5.45 5.45 0 01-2.532-1.003 3.513 3.513 0 01-1.145-1.434 1.734 1.734 0 01-.195-.674z" fill="#263238"/><path d="M100.458 169.873c.777.05 1.542.218 2.269.498.758.17 1.486.452 2.162.835a15.409 15.409 0 01-4.431-1.346v.013zm-11.173 8.203s.162-.182.418-.512a3.578 3.578 0 00.673-1.596c.147-.859.08-1.74-.195-2.566a4.445 4.445 0 00-1.98-2.377l-.283-.148.223-.074a5.797 5.797 0 00-.21 5.387c.367.69.82 1.33 1.348 1.906a1.725 1.725 0 01-.505-.391 5.744 5.744 0 01-1.704-3.933 6.012 6.012 0 01.781-3.124l.08-.148.15.08.309.162a4.714 4.714 0 012.114 2.572c.27.873.315 1.8.128 2.694a3.456 3.456 0 01-.821 1.637 1.667 1.667 0 01-.526.431z" fill="#263238"/><path d="M89.285 178.075a7.471 7.471 0 01-.484-2.269 7.943 7.943 0 01-.135-2.317 7.49 7.49 0 01.485 2.27c.158.761.203 1.542.134 2.316zm15.745-10.532s.202-.081.546-.256a3.245 3.245 0 001.205-1.044 4.84 4.84 0 00.862-2.195 4.046 4.046 0 00-.673-2.741c-.054-.088-.122-.162-.175-.242l.235.033a5.332 5.332 0 00-1.805 2.122 5.258 5.258 0 00-.511 2.222c.016.711.122 1.417.316 2.101 0 0-.135-.168-.269-.519a5.06 5.06 0 01-.303-1.582 5.198 5.198 0 01.464-2.357 5.474 5.474 0 011.899-2.276l.135-.095.094.128c.061.088.135.169.196.263a4.31 4.31 0 01.72 2.983 4.99 4.99 0 01-.983 2.31 3.172 3.172 0 01-1.347 1.017 1.349 1.349 0 01-.606.128z" fill="#263238"/><path d="M105.03 167.543c.049-.711.215-1.41.492-2.067.18-.699.469-1.364.855-1.974a6.486 6.486 0 01-.491 2.075 6.832 6.832 0 01-.856 1.966zm5.441-1.394c-.004.203-.02.405-.047.606a3.427 3.427 0 00.323 1.563 4.95 4.95 0 001.502 1.818 4.043 4.043 0 002.734.734l.29-.034-.142.189a5.381 5.381 0 00-.969-2.613 5.288 5.288 0 00-1.724-1.542 8.877 8.877 0 00-2.021-.741c.194-.04.393-.04.586 0a5.244 5.244 0 013.367 2.061c.6.806.968 1.761 1.064 2.761v.168h-.154l-.324.04a4.323 4.323 0 01-2.956-.821 4.9 4.9 0 01-1.535-2.02 3.14 3.14 0 01-.236-1.671c.042-.182.125-.352.242-.498z" fill="#263238"/><path d="M110.472 166.149a6.743 6.743 0 011.569 1.441 6.545 6.545 0 011.306 1.677 6.619 6.619 0 01-1.569-1.441 6.298 6.298 0 01-1.306-1.677zm3.919-.155a3.509 3.509 0 001.865-.33 4.31 4.31 0 001.515-1.347c.456-.706.647-1.55.539-2.384 0-.087-.034-.168-.047-.249l.195.135a4.648 4.648 0 00-2.215.929 4.539 4.539 0 00-1.266 1.515 7.908 7.908 0 00-.586 1.751 1.19 1.19 0 010-.511c.052-.467.179-.922.377-1.347a4.642 4.642 0 011.286-1.657 4.86 4.86 0 012.371-1.03h.168v.161c.023.091.038.183.047.276a3.792 3.792 0 01-.613 2.613 4.392 4.392 0 01-1.677 1.408 2.822 2.822 0 01-1.454.256c-.337-.088-.512-.169-.505-.189z" fill="#263238"/><path d="M114.391 165.994a9.73 9.73 0 012.606-2.606 5.025 5.025 0 01-1.192 1.462c-.673.673-1.347 1.218-1.414 1.144zm-17.112 6.088s.162-.175.424-.505c.35-.47.58-1.018.674-1.596a5.385 5.385 0 00-.196-2.572 4.474 4.474 0 00-1.98-2.378l-.289-.148.229-.074a5.882 5.882 0 00-.768 2.943c.01.839.2 1.666.56 2.424a9.046 9.046 0 001.346 1.906c-.19-.1-.36-.232-.505-.39a5.293 5.293 0 01-1.037-1.408 5.614 5.614 0 01-.674-2.525 5.967 5.967 0 01.782-3.125l.08-.141.142.074.316.161a4.67 4.67 0 012.108 2.573c.281.882.328 1.822.135 2.727a3.42 3.42 0 01-.835 1.637 1.497 1.497 0 01-.512.417z" fill="#263238"/><path d="M97.279 172.082a7.857 7.857 0 01-.478-2.27 7.936 7.936 0 01-.135-2.316 7.95 7.95 0 01.485 2.269c.162.761.205 1.543.128 2.317z" fill="#263238"/><path d="M201.647 174.082l-43.099-19.253a10.536 10.536 0 01-6.115-8.082l-3.63-24.566a1.285 1.285 0 011.017-1.441 1.27 1.27 0 011.434.781l7.132 17.994 50.453 15.388c6.317 2.02 8.755 7.912 6.613 13.468a10.262 10.262 0 01-13.805 5.711z" fill="#FFBE9D"/><path d="M158.373 139.515c.174.026.345.069.511.128l1.448.444 5.314 1.67a1691.447 1691.447 0 0017.509 5.448 1204.745 1204.745 0 0017.61 5.206l5.347 1.535 1.454.431c.17.046.336.103.499.169a2.482 2.482 0 01-.519-.101l-1.468-.364a362.267 362.267 0 01-5.387-1.434 647.957 647.957 0 01-17.644-5.105 779.026 779.026 0 01-17.509-5.549l-5.273-1.778-1.428-.505a2.778 2.778 0 01-.464-.195z" fill="#EB996E"/><path d="M214.509 170.594a1.552 1.552 0 01-.397 0 9.941 9.941 0 01-1.145-.054 8.32 8.32 0 01-1.785-.384 12.684 12.684 0 01-2.182-1.024 91.267 91.267 0 01-2.505-1.481 75.55 75.55 0 01-2.788-1.832 30.893 30.893 0 00-6.62-3.663 21.267 21.267 0 00-7.407-1.347 22.39 22.39 0 00-6.108.889c-1.34.394-2.638.915-3.879 1.555-.445.223-.768.431-1.004.546-.109.076-.23.135-.356.175.101-.087.209-.166.323-.236.222-.134.538-.363.969-.606a20.297 20.297 0 013.873-1.67 22.11 22.11 0 016.175-.976 21.199 21.199 0 017.542 1.346 30.408 30.408 0 016.681 3.745c.97.673 1.885 1.293 2.761 1.852.875.559 1.717 1.057 2.471 1.508.677.414 1.389.768 2.128 1.057.562.2 1.141.345 1.731.431.977.128 1.529.135 1.522.169z" fill="#263238"/><path d="M206.327 167.597c.075.216.096.447.061.673a3.366 3.366 0 01-.586 1.677 5.2 5.2 0 01-2.02 1.724 4.566 4.566 0 01-3.213.243l-.323-.115-.148-.047.047-.162a5.837 5.837 0 011.663-2.633 5.573 5.573 0 013.886-1.427c.206-.01.412.023.606.094a9.387 9.387 0 00-2.215.343 5.518 5.518 0 00-2.061 1.226 5.584 5.584 0 00-1.542 2.492l-.108-.209.296.101c.985.29 2.041.219 2.977-.202a5.161 5.161 0 001.926-1.569c.346-.455.577-.986.673-1.549.068-.424.054-.653.081-.66z" fill="#263238"/><path d="M206.327 167.597a7.022 7.022 0 01-1.703 1.455 7.19 7.19 0 01-1.906 1.171 7.17 7.17 0 011.704-1.454 7.397 7.397 0 011.905-1.172zm-6.64-4.384c.016.229-.016.458-.094.673a3.367 3.367 0 01-.95 1.495 5.191 5.191 0 01-2.337 1.219 4.492 4.492 0 01-3.178-.505c-.108-.054-.202-.121-.29-.175l-.134-.087.08-.148a5.815 5.815 0 012.223-2.176 5.533 5.533 0 014.108-.485c.204.038.399.116.572.229a9.069 9.069 0 00-2.236-.175 5.6 5.6 0 00-4.364 2.795l-.053-.229c.087.054.175.115.269.162.888.511 1.93.685 2.936.491a5.185 5.185 0 002.236-1.091c.433-.363.773-.825.99-1.346.056-.222.13-.438.222-.647z" fill="#263238"/><path d="M199.687 163.213a7.27 7.27 0 01-2.02 1.024 7.017 7.017 0 01-2.128.673 14.357 14.357 0 014.121-1.724l.027.027zm11.556 6.748a1.492 1.492 0 01-.545-.35 3.364 3.364 0 01-.97-1.482 5.194 5.194 0 01-.148-2.633 4.573 4.573 0 011.771-2.694l.283-.182.135-.094.101.142a5.837 5.837 0 011.064 2.915 5.583 5.583 0 01-.384 2.499 5.13 5.13 0 01-.856 1.455c-.262.303-.437.437-.451.424a8.615 8.615 0 001.084-1.967 5.579 5.579 0 00-.747-5.124l.236.047c-.081.054-.175.107-.263.175a4.32 4.32 0 00-1.657 2.478 5.16 5.16 0 00.068 2.485c.154.547.438 1.048.828 1.461.276.29.471.418.451.445z" fill="#263238"/><path d="M211.243 169.961a7.236 7.236 0 01-.108-2.236 7.411 7.411 0 01.236-2.229c.156.734.195 1.489.115 2.236a7.287 7.287 0 01-.243 2.229zm-16.196-8.479a1.22 1.22 0 01-.593-.06 3.034 3.034 0 01-1.4-.842 4.799 4.799 0 01-1.179-2.121 4.147 4.147 0 01.384-2.937c.054-.101.114-.188.162-.269l.08-.141.149.08a5.291 5.291 0 012.054 2.021c.394.678.625 1.439.673 2.222.04.52-.005 1.043-.135 1.549a1.38 1.38 0 01-.202.525 8.54 8.54 0 00.095-2.02 5.062 5.062 0 00-.714-2.081 5.183 5.183 0 00-1.94-1.845l.229-.061c-.047.081-.101.162-.148.249a3.975 3.975 0 00-.384 2.694 4.874 4.874 0 001.051 2.02c.342.39.774.691 1.259.876.189.036.376.084.559.141z" fill="#263238"/><path d="M195.047 161.482a12.181 12.181 0 01-1.677-3.737 12.181 12.181 0 011.677 3.737zm-5.347-.835c.119.164.2.353.236.552.128.539.11 1.102-.054 1.63a4.788 4.788 0 01-1.279 2.068 4.17 4.17 0 01-2.755 1.084 2.38 2.38 0 01-.316 0h-.162v-.169a5.352 5.352 0 01.741-2.767 5.138 5.138 0 011.609-1.677 4.86 4.86 0 011.421-.633c.18-.063.369-.091.559-.081a8.934 8.934 0 00-1.838.916 5.113 5.113 0 00-2.142 4.236l-.161-.175c.094.006.188.006.283 0a3.945 3.945 0 002.545-.977 4.834 4.834 0 001.259-1.899 3.23 3.23 0 00.155-1.529 4.937 4.937 0 01-.101-.579z" fill="#263238"/><path d="M189.7 160.647a6.109 6.109 0 01-1.084 1.751 5.993 5.993 0 01-1.347 1.536 6.331 6.331 0 011.084-1.745 6.28 6.28 0 011.347-1.542zm-3.778.249s-.155.115-.485.196a2.622 2.622 0 01-1.42-.101 4.094 4.094 0 01-1.758-1.179 3.68 3.68 0 01-.862-2.451v-.431h.168c.849.029 1.673.29 2.384.754.576.37 1.056.871 1.401 1.462.233.39.401.815.498 1.259.049.159.063.327.041.491a8.999 8.999 0 00-.748-1.623 4.449 4.449 0 00-3.589-1.986l.182-.162v.249a3.433 3.433 0 00.754 2.229c.429.509.974.906 1.589 1.159a3.45 3.45 0 001.845.134z" fill="#263238"/><path d="M185.922 160.896a4.63 4.63 0 01-1.495-.983c-.768-.619-1.347-1.185-1.273-1.259a4.706 4.706 0 011.495.983c.761.62 1.334 1.172 1.273 1.259zm17.038 4.122a1.617 1.617 0 01-.545-.35 3.305 3.305 0 01-.97-1.489 5.172 5.172 0 01-.148-2.633 4.554 4.554 0 011.771-2.693l.283-.189.134-.088.095.135a5.825 5.825 0 011.07 2.923 5.567 5.567 0 01-.384 2.498 5.062 5.062 0 01-.862 1.448c-.255.31-.431.445-.444.431a8.646 8.646 0 001.084-1.966 5.583 5.583 0 00-.747-5.125l.235.047-.262.168a4.349 4.349 0 00-1.657 2.479 5.16 5.16 0 00.068 2.485c.149.548.434 1.051.828 1.461.276.289.471.431.451.458z" fill="#263238"/><path d="M202.96 165.018a7.267 7.267 0 01-.108-2.236 7.348 7.348 0 01.236-2.229 7.33 7.33 0 01.114 2.236 7.546 7.546 0 01-.242 2.229z" fill="#263238"/></svg>