<svg width="320" height="336" fill="none" xmlns="http://www.w3.org/2000/svg"><path fill-rule="evenodd" clip-rule="evenodd" d="M108.709 280.121c-25.468-4.135-59.268 4.007-72.133-21.47-12.938-25.623 10.465-61.197 14.312-93.039 3.45-28.561-7.143-58.699 7.026-83.577 14.351-25.2 40.926-35.566 64.812-42.565 21.76-6.376 41.843 1.298 62.957 5.128 24.637 4.47 52.308.488 70.574 19.095 20.656 21.04 34.792 52.772 33.963 87.391-.846 35.311-15.445 72.481-38.403 98.034-21.276 23.684-50.929 25.869-78.223 31.782-22.341 4.84-43.241 2.736-64.885-.779z" fill="#E1E5F0"/><path d="M106.875 71.069l-6.012-8.735 9.773 4.37-.544-13.316 7.636 8.724 6.304-10.417 3.043 11.834 9.556-1.134-6.339 10.241 10.377 6.708-13.01-2.222-.43 10.805-8.932-7.292-9.378 8.018 1.133-10.533-11.792-.968 8.615-6.083z" fill="#fff"/><path d="M106.875 71.07s-.183.14-.549.403l-1.653 1.184-6.383 4.536-.03-.11 11.797.942h.089v.09c-.336 3.155-.712 6.714-1.118 10.539l-.163-.09 9.372-8.034.07-.056.069.055 8.932 7.303-.193.091c.134-3.427.277-7.056.426-10.81v-.142h.138l12.99 2.248-.089.237-9.808-6.356-.549-.352-.109-.071.069-.11 6.344-10.237.119.196-9.556 1.13h-.104l-.029-.106-3.039-11.84.213.036c-2.197 3.622-4.3 7.091-6.309 10.407l-.08.132-.099-.111-7.625-8.72.173-.07c.198 4.919.371 9.37.529 13.316v.13l-.118-.055-9.769-4.39.07-.09 4.453 6.552 1.168 1.663c.252.373.371.56.371.56s-.143-.192-.406-.565l-1.182-1.658-4.494-6.467-.123-.176.193.085 9.788 4.35-.114.08-.564-13.32v-.282l.183.211 7.646 8.72h-.179c2-3.317 4.098-6.79 6.295-10.418l.148-.247.07.277 3.053 11.829-.134-.09 9.541-1.105.267-.03-.143.227c-2.072 3.36-4.185 6.774-6.339 10.242l-.04-.182.549.353 9.828 6.36.535.343-.604-.13-13.01-2.234.144-.116c-.149 3.735-.297 7.38-.436 10.806v.242l-.183-.151-8.907-7.303h.138c-3.345 2.853-6.512 5.544-9.402 8.014l-.188.156v-.247c.416-3.82.807-7.379 1.148-10.534l.079.096-11.792-1.008h-.168l.138-.096 6.394-4.475 1.672-1.165.579-.393z" fill="#263238"/><path d="M133.36 83.331s-.213.03-.564.177a2.63 2.63 0 00-1.198 1.048 2.553 2.553 0 00-.371 1.043c-.045.425.03.854.218 1.235a2.4 2.4 0 00.933 1.105 2.336 2.336 0 002.722-.164 2.42 2.42 0 00.799-1.208c.142-.402.166-.839.069-1.255a2.532 2.532 0 00-.495-1.008 2.617 2.617 0 00-1.311-.897 5.804 5.804 0 00-.584-.11h.153c.065-.005.129-.005.193 0 .087.009.173.024.258.044a2.575 2.575 0 011.39.883c.254.3.437.654.535 1.038a2.33 2.33 0 01-.06 1.345 2.777 2.777 0 01-.821 1.24c-.408.356-.915.57-1.45.615a2.494 2.494 0 01-1.51-.438 2.686 2.686 0 01-.964-1.114 2.4 2.4 0 01-.218-1.33c.073-.47.265-.913.558-1.284a2.691 2.691 0 011.109-.834c.083-.031.167-.057.253-.075a.72.72 0 01.188-.03c.114-.03.168-.036.168-.026zm6.275 6.351s-.134.03-.352.126c-.304.14-.561.37-.737.66a1.44 1.44 0 00-.226.691c-.016.246.031.493.137.715.128.269.332.492.585.643a1.466 1.466 0 001.645-.1c.234-.18.41-.427.506-.71a1.447 1.447 0 00-.252-1.385 1.653 1.653 0 00-.807-.565c-.227-.07-.366-.065-.366-.08a.704.704 0 01.381 0c.349.08.663.273.896.549.161.194.28.42.346.665.07.287.058.587-.034.867a1.659 1.659 0 01-.55.824 1.611 1.611 0 01-1.863.11 1.655 1.655 0 01-.641-.752 1.54 1.54 0 01-.133-.857c.036-.25.127-.488.267-.696.194-.306.483-.536.821-.655a.8.8 0 01.377-.05zM116.302 65.45l.05 5.543c.003.22.084.43.228.593a.882.882 0 001.197.122.912.912 0 00.346-.579l.901-5.544a.723.723 0 00-.174-.533.695.695 0 00-.499-.238l-1.326-.055a.682.682 0 00-.504.19.718.718 0 00-.219.5zm2.099 9.646a1.35 1.35 0 01-.48.617 1.314 1.314 0 01-1.479.027 1.35 1.35 0 01-.5-.6 1.377 1.377 0 01.262-1.481 1.308 1.308 0 011.882-.035 1.36 1.36 0 01.407.951 1.38 1.38 0 01-.092.521zm2.048-9.42l.049 5.544c.003.22.084.432.229.595a.879.879 0 00.558.292.868.868 0 00.644-.168.901.901 0 00.346-.578l.901-5.544a.709.709 0 00-.371-.748.677.677 0 00-.283-.073l-1.331-.056a.681.681 0 00-.533.198.708.708 0 00-.209.538zm2.113 9.652a1.348 1.348 0 01-.48.617 1.314 1.314 0 01-1.478.026 1.345 1.345 0 01-.501-.599 1.366 1.366 0 01.262-1.482 1.308 1.308 0 011.882-.035 1.36 1.36 0 01.407.952c.004.178-.028.355-.092.52z" fill="#263238"/><path d="M203.03 75.293l4.518-6.557-7.338 3.276.406-9.995-5.731 6.547-4.731-7.817-2.291 8.88-7.17-.846 4.76 7.686-7.794 5.04 9.769-1.673.321 8.114 6.706-5.478 7.041 6.028-.851-7.913 8.858-.726-6.473-4.566z" fill="#fff"/><path d="M203.021 75.293l.445.297 1.262.872 4.8 3.347.139.095h-.169l-8.853.751.075-.095c.262 2.368.554 5.04.866 7.912l.029.247-.188-.16-7.051-6.014h.138l-6.7 5.484-.183.151v-.242l-.327-8.114.144.12-9.769 1.674-.623.11.534-.347 7.383-4.773.411-.267-.04.181a1281.34 1281.34 0 01-4.76-7.675l-.144-.232.268.03 7.17.857-.133.096 2.291-8.881.069-.277.148.242 4.726 7.827h-.178l5.74-6.552.188-.212v.282c-.153 3.695-.296 7.056-.425 10l-.114-.08 7.349-3.257.193-.085-.119.176-3.38 4.843-.876 1.25-.312.429.277-.424.852-1.255 3.34-4.914.074.091-7.334 3.301-.118.05v-.13c.113-2.964.247-6.305.391-10l.173.07-5.721 6.553-.099.116-.079-.131-4.741-7.812.218-.036c-.737 2.863-1.484 5.832-2.281 8.886l-.03.106h-.109l-7.17-.847.119-.202 4.755 7.682.065.11-.104.071-.416.267-7.378 4.773-.089-.242 9.768-1.668h.139v.141c.108 2.807.217 5.544.316 8.115l-.193-.086 6.71-5.474.075-.055.069.055 7.032 6.048-.158.091c-.307-2.873-.589-5.544-.837-7.913v-.09h.084l8.858-.701-.049.086-4.79-3.423-1.238-.892c-.262-.221-.405-.327-.405-.327z" fill="#263238"/><path d="M183.147 84.496s.158 0 .426.136a2.006 2.006 0 011.177 1.567 1.72 1.72 0 01-.163.927 1.8 1.8 0 01-.702.819 1.754 1.754 0 01-2.032-.123 1.82 1.82 0 01-.601-.897 1.7 1.7 0 01-.055-.938c.087-.334.257-.64.494-.888a1.97 1.97 0 01.857-.528c.277-.08.441-.07.441-.085a.538.538 0 00-.119 0 .985.985 0 00-.332.03 1.97 1.97 0 00-.919.517 2.021 2.021 0 00-.531.924 1.83 1.83 0 00.045 1.008c.121.359.336.676.623.917.305.27.687.433 1.089.464.402.013.798-.102 1.133-.327.313-.208.563-.5.723-.842.151-.312.208-.663.163-1.008a2.038 2.038 0 00-.312-.822 1.938 1.938 0 00-.96-.78.569.569 0 00-.326-.055l-.119-.016zm-4.711 4.773s.099 0 .262.095c.233.104.427.28.555.504a1.081 1.081 0 01.069 1.054 1.193 1.193 0 01-.432.477 1.16 1.16 0 01-.612.178 1.149 1.149 0 01-.609-.245 1.18 1.18 0 01-.381-.541 1.082 1.082 0 01.188-1.044c.154-.2.365-.348.604-.423.173-.05.277-.05.277-.066a.63.63 0 00-.287 0 1.263 1.263 0 00-.673.414c-.122.146-.21.318-.257.504a1.16 1.16 0 000 .65c.08.24.226.45.421.608.195.157.43.254.677.279.249.007.495-.06.707-.194.212-.133.381-.327.486-.557a1.13 1.13 0 00.099-.64 1.236 1.236 0 00-.198-.504 1.25 1.25 0 00-.619-.504.607.607 0 00-.277-.045zm17.518-18.2l-.035 4.178a.679.679 0 01-.173.44.661.661 0 01-.416.215.656.656 0 01-.465-.132.68.68 0 01-.257-.417l-.673-4.158a.531.531 0 01.495-.62l.99-.04a.482.482 0 01.387.142.508.508 0 01.147.392zm-1.584 7.248c.074.183.199.341.359.453a.978.978 0 001.466-.43 1.024 1.024 0 00-.192-1.099.983.983 0 00-1.068-.245.987.987 0 00-.555.54 1.04 1.04 0 00-.01.78zm-1.529-7.072l-.039 4.153a.68.68 0 01-.168.449.65.65 0 01-.421.217.646.646 0 01-.476-.13.668.668 0 01-.252-.43l-.678-4.138a.545.545 0 01.111-.423.53.53 0 01.384-.197l.99-.04a.524.524 0 01.507.328.546.546 0 01.042.211zm-1.583 7.243c.073.184.198.342.359.454a.978.978 0 001.465-.43 1.024 1.024 0 00-.191-1.1.973.973 0 00-1.4-.033 1.02 1.02 0 00-.233 1.109z" fill="#263238"/><path d="M199.324 212.356h-82.561v53.425h82.561v-53.425z" fill="#455A64"/><path d="M197.523 210.834h-82.849c-4.963 0-8.986 4.098-8.986 9.153v.443c0 5.055 4.023 9.153 8.986 9.153h82.849c4.963 0 8.986-4.098 8.986-9.153v-.443c0-5.055-4.023-9.153-8.986-9.153z" fill="#455A64"/><path d="M199.433 229.331c0 .071-19.299.131-43.052.131s-43.077-.06-43.077-.131c0-.07 19.299-.136 43.077-.136 23.777 0 43.052.061 43.052.136zm-71.63 36.884c-.07 0-.129-8.145-.129-18.19 0-10.045.059-18.19.129-18.19.069 0 .128 8.14.128 18.19s-.069 18.19-.128 18.19zm52.172-44.197a13.554 13.554 0 01-.321-1.381 19.345 19.345 0 00-1.069-3.23 18.697 18.697 0 00-1.633-2.969 13.422 13.422 0 01-.787-1.174c.357.31.672.667.935 1.063a15.103 15.103 0 011.722 2.974c.45 1.057.782 2.163.99 3.296.114.465.169.942.163 1.421zm4.434-2.802c-.045 0-.228-.539-.668-1.351a10.45 10.45 0 00-2.222-2.792 10.4 10.4 0 00-3.024-1.85c-.851-.327-1.415-.433-1.405-.504.135-.009.27.003.401.036a6.86 6.86 0 011.064.272c2.324.8 4.246 2.5 5.349 4.732.166.334.303.681.411 1.039.055.132.087.274.094.418z" fill="#263238"/><path d="M145.657 115.391l-12.317 2.041-.9 25.296v49.962h55.374v-58.575l-7.191-16.683-34.966-2.041z" fill="#C6E1F6"/><path d="M133.34 117.432s-9.971 4.894-11.664 15.841c-1.692 10.947-6.156 23.124-7.002 25.583-.846 2.46-3.622 12.666.604 16.849s6.037 3.811 8.695 3.443c2.657-.368 7.447-4.491 9.53-6.638 2.509-2.591 1.168-7.056 1.168-7.056l-1.331-48.022zm47.283 0s7.191 1.628 10.565 6.885c2.925 4.536 7.042 18.714 7.042 18.714s6.507 18.144 5.711 23.36c-.797 5.217-7.834 11.996-12.114 9.017-3.83-2.671-6.894-5.04-8.566-7.086a5.956 5.956 0 01-.891-3.236l1.742-25.624-3.489-22.03z" fill="#C6E1F6"/><path d="M118.119 162.299a2.654 2.654 0 01-.604-1.381 6.154 6.154 0 01.361-3.624 4.942 4.942 0 011.138-1.673 2.395 2.395 0 011.524-.61c.369-.011.737.04 1.089.151.131.031.256.082.371.151a8.69 8.69 0 00-1.45-.116 2.25 2.25 0 00-1.38.605 5.031 5.031 0 00-1.059 1.603 6.422 6.422 0 00-.411 3.483c.087.485.228.958.421 1.411zm16.216-20.403a40.822 40.822 0 010-4.667c.006-1.558.1-3.115.282-4.662a42.993 42.993 0 01-.025 4.667 43.728 43.728 0 01-.257 4.662z" fill="#263238"/><path d="M118.851 155.862c0 .076-.495 0-1.069.116s-.99.368-1.024.308c-.035-.061.336-.439.989-.57a1.33 1.33 0 011.104.146zm63.806-18.622a9.347 9.347 0 01-.232-1.422 73.432 73.432 0 00-.559-3.412 63.518 63.518 0 00-.748-3.377 9.33 9.33 0 01-.311-1.406c.214.432.38.887.494 1.356a34.9 34.9 0 01.822 3.377c.224 1.138.39 2.287.495 3.442.061.478.074.961.039 1.442zm-9.961 32.06c-.06.085-.126.166-.198.241l-.604.661c-.257.287-.584.63-.99 1.008-.405.378-.836.831-1.36 1.285-.525.454-1.079.973-1.718 1.477-.638.504-1.321 1.043-2.053 1.592a50.45 50.45 0 01-5.018 3.155 49.065 49.065 0 01-5.394 2.475c-.856.308-1.668.615-2.444.842-.777.227-1.485.453-2.163.625-.678.171-1.277.307-1.806.423-.53.116-.99.207-1.376.267l-.876.136a1.508 1.508 0 01-.307.031c.097-.042.199-.07.302-.086l.861-.182c.376-.075.837-.171 1.366-.307.53-.136 1.133-.262 1.787-.464.653-.201 1.385-.388 2.147-.65a120.91 120.91 0 002.425-.862 47.257 47.257 0 0010.392-5.614c.732-.54 1.435-1.044 2.058-1.563l1.732-1.441c.52-.434.99-.887 1.376-1.255.386-.368.742-.706.99-.978l.633-.63c.149-.126.228-.197.238-.186z" fill="#263238"/><path opacity=".3" d="M195.791 161.175c0 .62.123.842.494.968a1.142 1.142 0 00.886-.303 4.713 4.713 0 001.252-2.979 10.959 10.959 0 00-1.252-6.436 7.653 7.653 0 010 3.861l-1.38 4.889zm-75.282 4.631c-.54-1.512-1.935-2.52-2.658-3.966-.856-1.694-.193-4.536.99-5.978-1.692 1.094-1.98 3.599-2.044 5.474a7.819 7.819 0 001.693 5.231c.236.309.546.552.9.706a.97.97 0 001.049-.237 1.29 1.29 0 00.07-1.23z" fill="#000"/><path d="M128.644 137.159a21.453 21.453 0 01-1.979-2.606 20.514 20.514 0 01-1.772-2.762 21.453 21.453 0 011.979 2.606c.664.87 1.256 1.794 1.772 2.762zm-3.593 10.705c-.677.584-1.408 1.1-2.182 1.542-.729.516-1.506.956-2.321 1.315a14.142 14.142 0 012.187-1.542c.73-.511 1.506-.952 2.316-1.315zm10.214 3.765a16.882 16.882 0 01-2.187-1.971 17.13 17.13 0 01-2.009-2.152 16.27 16.27 0 012.177 1.981c.733.653 1.408 1.37 2.019 2.142zm-15.38 12.328c.091-1.142.351-2.264.772-3.327 0 .575-.089 1.147-.262 1.694a5.693 5.693 0 01-.51 1.633zm-1.242 9.032c-.059.05-1.064-1.155-2.44-2.52-1.375-1.366-2.583-2.339-2.538-2.405.309.152.597.346.856.575a21.555 21.555 0 013.533 3.483 3.8 3.8 0 01.589.867zm6.191-2.077a22.582 22.582 0 01-1.524 2.989 22.18 22.18 0 01-1.752 2.862 22.155 22.155 0 011.524-2.988c.509-1 1.095-1.957 1.752-2.863zm5.938.176c-.054.051-.807-.786-1.836-1.698-1.029-.912-1.935-1.563-1.895-1.628a7.42 7.42 0 012.068 1.431 7.355 7.355 0 011.663 1.895zm3.068-46.756a17.57 17.57 0 01-1.673 2.52 17.868 17.868 0 01-1.875 2.384 17.736 17.736 0 011.668-2.52 17.904 17.904 0 011.88-2.384zm7.512-.287a21.729 21.729 0 01-2.202-2.52 21.906 21.906 0 01-1.98-2.697 22.176 22.176 0 012.202 2.52 22.299 22.299 0 011.98 2.697zm.99 16.37a12.375 12.375 0 01-1.683-2.671 12.777 12.777 0 01-1.207-2.924c.069 0 .638 1.265 1.435 2.803.796 1.537 1.514 2.762 1.455 2.792zm9.738-5.287a22.074 22.074 0 01-3.3-1.084 23.702 23.702 0 01-3.217-1.325c1.126.273 2.229.633 3.301 1.078 1.102.365 2.176.81 3.216 1.331zm1.717-12.807c.035.066-.801.605-1.751 1.376-.951.771-1.658 1.482-1.713 1.426a6.083 6.083 0 011.554-1.628 5.94 5.94 0 011.91-1.174zm-5.497 30.245a28.988 28.988 0 01-.683-3.78 29.32 29.32 0 01-.431-3.82c.314 1.242.544 2.505.688 3.78.23 1.262.372 2.538.426 3.82zm-1.653 7.893a24.815 24.815 0 01-3.182-1.784 25.86 25.86 0 01-3.043-2.016 24.88 24.88 0 013.176 1.784 25.971 25.971 0 013.049 2.016zm-6.884 10.483a15.388 15.388 0 01-.989-2.646c-.33-.885-.58-1.8-.748-2.731.41.849.742 1.734.99 2.646.329.886.58 1.8.747 2.731zm3.608 10.443a21.005 21.005 0 01-3.004-1.512c-1-.501-1.961-1.079-2.875-1.728 1.037.423 2.04.928 2.999 1.512a22.067 22.067 0 012.88 1.728zm10.342-12.862a41.144 41.144 0 01-1.514 4.324 40.155 40.155 0 01-1.757 4.229 41.928 41.928 0 011.515-4.324 40.578 40.578 0 011.756-4.229zm7.695-5.982c-.059.06-1.326-1.255-3.182-2.475-1.855-1.22-3.533-1.89-3.503-1.966.39.073.768.2 1.123.378a15.952 15.952 0 014.765 3.166c.305.26.573.562.797.897zm7.012-12.348a19.156 19.156 0 01-2.009 2.384 19.037 19.037 0 01-2.197 2.202 18.623 18.623 0 012.009-2.384 18.134 18.134 0 012.197-2.202zm-7.012-1.593c-.079 0-.307-1.316-.915-2.843-.609-1.527-1.326-2.656-1.262-2.701a8.004 8.004 0 011.484 2.6c.416.927.651 1.926.693 2.944zm3.128-17.408c.054.05-.931 1.275-2.024 2.878-1.094 1.602-1.891 2.963-1.955 2.923.101-.334.248-.651.435-.943a24.553 24.553 0 012.821-4.117c.204-.282.448-.531.723-.741zm-2.148-4.633a16.1 16.1 0 01-1.356-2.56 16.073 16.073 0 01-1.118-2.671c.524.811.976 1.667 1.351 2.56.452.855.828 1.749 1.123 2.671zm14.776 30.81a18.913 18.913 0 01-2.271 2.132 18.207 18.207 0 01-2.44 1.931 19.904 19.904 0 012.272-2.132 18.555 18.555 0 012.439-1.931zm-2.692-13.205a16.94 16.94 0 01-2.919-.826 17.494 17.494 0 01-2.836-1.074c.993.191 1.968.468 2.915.827.974.277 1.924.636 2.84 1.073zm1.826-7.928a23.344 23.344 0 011.52-3.074 22.851 22.851 0 011.746-2.948 22.56 22.56 0 01-1.519 3.074 22.108 22.108 0 01-1.747 2.948zm6.587-14.016a35.184 35.184 0 01-4.236-.756 35.09 35.09 0 01-4.187-1.008c1.426.163 2.841.414 4.236.751 1.414.253 2.812.591 4.187 1.013zm3.093 6.738a19.63 19.63 0 011.242-2.968 19.64 19.64 0 011.484-2.853 20.334 20.334 0 01-1.247 2.964 20.434 20.434 0 01-1.479 2.857zm6.794 11.774a29.712 29.712 0 01-2.885-2.6 29.334 29.334 0 01-2.702-2.793 29.068 29.068 0 012.88 2.601 29.016 29.016 0 012.707 2.792zm-1.202 10.393c.519-.844 1.11-1.64 1.766-2.379a16.388 16.388 0 011.98-2.213 17.354 17.354 0 01-1.767 2.379 16.846 16.846 0 01-1.979 2.213zm-9.447 22.05a32.566 32.566 0 011.593-3.78 33.151 33.151 0 011.826-3.669 32.393 32.393 0 01-1.593 3.78 32.977 32.977 0 01-1.826 3.669zm-3.796 6.643a31.587 31.587 0 01-2.439-3.327 33.75 33.75 0 01-2.227-3.482 33.784 33.784 0 012.44 3.331 34.419 34.419 0 012.226 3.478zm-9.629 4.566c-.348.98-.777 1.927-1.282 2.833a19.083 19.083 0 01-1.509 2.716c.346-.981.775-1.93 1.281-2.837.432-.943.937-1.85 1.51-2.712zm-8.556 6.839a44.033 44.033 0 01-4.043-5.544c.77.846 1.48 1.747 2.123 2.697.71.898 1.352 1.85 1.92 2.847zm-18.033-.957a15.93 15.93 0 01-1.742-2.213 15.18 15.18 0 01-1.534-2.374 16.186 16.186 0 011.742 2.218 15.28 15.28 0 011.534 2.369zm23.05-15.216c-.074 0-.133-1.008-.401-2.157-.267-1.149-.628-2.082-.559-2.117.408.622.685 1.324.812 2.061.202.719.253 1.473.148 2.213zm-.95 6.97a4.827 4.827 0 010-2.217 4.855 4.855 0 010 2.217zm33.744-12.831c-.039.065-1.064-.504-2.395-1.069-1.331-.564-2.444-.917-2.425-1.008a7.984 7.984 0 012.524.746 8.123 8.123 0 012.296 1.331zm4.82-10.297a4.605 4.605 0 01-2.177 0 4.58 4.58 0 012.177 0z" fill="#fff"/><path opacity=".3" d="M168.312 120.839c-1.817 3.024-2.188 6.724-1.723 10.216.466 3.493 1.703 6.82 2.935 10.111l8.511 22.781c.822 2.212 1.678 4.47 3.192 6.264a7.475 7.475 0 003.008 2.004 7.36 7.36 0 003.579.345c-2.029-1.986-4.949-4.773-5.073-5.095-.574-1.84-.123-5.04-.376-6.94-.386-2.934-2.241-5.948-3.488-8.619a5068.386 5068.386 0 00-8.942-19.122c-1.035-2.218-2.089-4.768-1.178-7.056.391-.973 1.128-1.819 1.287-2.858.158-1.038-.763-2.323-1.713-1.91m-35.891 56.801c3.602-1.265 5.017-5.569 6.527-9.132 4.051-9.563 8.105-19.122 12.163-28.678.841-2.016 1.698-4.032 1.841-6.189.144-2.157-.564-4.506-2.296-5.761-5.508 7.091-11.001 14.289-14.895 22.413-2.742 5.716-2.212 10.675-.619 16.264.936 3.281-2.721 6.462-2.721 6.925v4.158z" fill="#000"/><path d="M145.479 104.076c-1.014-3.347-2.014-6.718-2.445-10.196-.43-3.478-.272-7.087.99-10.352.188-.504 1.787-3.806 2.306-3.745.371.04-.633 3.14-.45 3.472 1.742 3.156 2.172 6.925 1.831 10.534a48.244 48.244 0 01-2.217 10.287" fill="#263238"/><path d="M164.471 123.783c.064-2.475.119-4.425.139-4.425.02 0 8.343-.726 9.016-9.128.327-4.057.327-12.474.242-20.085a15.857 15.857 0 00-4.205-10.596 15.308 15.308 0 00-10.145-4.887l-.797-.055c-8.625-.096-13.519 7.313-13.361 16.098l-.445 30.744 13.484 11.728 6.072-9.394z" fill="#FFBE9D"/><path d="M164.669 119.362a19.763 19.763 0 01-10.53-3.997s2.207 6.301 10.496 6.124l.034-2.127z" fill="#EB996E"/><path d="M170.222 96.43a1.21 1.21 0 01-.383.817 1.166 1.166 0 01-.835.312 1.107 1.107 0 01-.812-.336 1.149 1.149 0 01-.331-.828c.019-.313.157-.606.384-.817.227-.212.526-.326.834-.317a1.112 1.112 0 01.814.338 1.17 1.17 0 01.329.831zm1.622-2.888c-.153.146-.989-.59-2.271-.675-1.282-.086-2.242.504-2.37.322-.065-.07.104-.342.529-.614a3.226 3.226 0 011.91-.46 3.07 3.07 0 011.797.737c.405.307.504.6.405.69zm-13.464 2.631a1.213 1.213 0 01-.381.82 1.167 1.167 0 01-.837.314 1.117 1.117 0 01-.813-.34 1.168 1.168 0 01-.33-.83c.019-.311.157-.604.384-.815.228-.21.526-.323.834-.313a1.107 1.107 0 01.812.336 1.149 1.149 0 01.331.828zm1.024-3.009c-.158.146-.99-.59-2.276-.675-1.287-.086-2.242.504-2.366.327-.064-.075.104-.348.53-.62a3.18 3.18 0 011.91-.453c.66.044 1.288.3 1.796.73.367.333.475.625.406.69zm3.875 10.246c0-.07.801-.156 2.088-.231.327 0 .638-.056.708-.278a1.71 1.71 0 00-.149-1.008c-.252-.821-.495-1.678-.787-2.58-1.088-3.67-1.855-6.678-1.707-6.724.149-.045 1.143 2.898 2.232 6.552l.747 2.596c.175.413.203.874.079 1.305a.808.808 0 01-.564.444 2.19 2.19 0 01-.554.04c-1.292.01-2.093-.04-2.093-.116zm-.96 5.161c-.203.031-.332-1.365-1.599-2.253-1.266-.887-2.716-.594-2.741-.786-.03-.085.302-.302.915-.378a3.413 3.413 0 012.287.58 3.054 3.054 0 011.261 1.92c.094.554-.029.917-.123.917zm-8.462-18.592c0-.373 1.247-.665 2.583-1.36 1.336-.696 2.331-1.513 2.623-1.291.133.11.049.504-.292 1.008a5.082 5.082 0 01-1.752 1.473c-.685.35-1.44.535-2.207.543-.594-.035-.95-.197-.955-.373zm12.945-2.485c.336-.222 1.311.332 2.563.65 1.252.317 2.371.373 2.544.73.074.172-.163.42-.693.575a4.23 4.23 0 01-2.197-.04 4.216 4.216 0 01-1.915-1.068c-.376-.419-.45-.751-.302-.847z" fill="#263238"/><path d="M145.617 96.98c-.133-.071-5.557-2.107-5.765 3.654-.207 5.76 5.513 4.788 5.528 4.621.015-.166.237-8.275.237-8.275z" fill="#FFBE9D"/><path d="M143.707 103.007s-.099.071-.272.141a.97.97 0 01-.737 0c-.589-.246-1.054-1.229-1.044-2.268.002-.494.114-.981.326-1.426.06-.179.161-.34.296-.47a1.13 1.13 0 01.476-.276.493.493 0 01.569.297c.07.167.03.278.06.293.03.015.124-.096.089-.333a.63.63 0 00-.208-.368.738.738 0 00-.544-.171 1.37 1.37 0 00-.639.288c-.186.15-.33.346-.42.569a3.434 3.434 0 00-.401 1.592c0 1.165.539 2.268 1.346 2.52.15.051.309.066.466.046.156-.02.306-.075.44-.161.183-.132.217-.258.197-.273z" fill="#EB996E"/><path d="M170.469 80.499c.93-.504-1.732-3.589-3.959-4.693-3.355-1.668-8.526-2.787-11.683-1.97-3.806.982-6.998 2.802-8.992 6.25-1.994 3.447-2.816 7.504-2.816 11.5 0 1.22.089 2.496.698 3.529.757 1.295 2.252 2.142 2.133 3.896a2.485 2.485 0 00.539 1.779c.99 1.149 2.301.131 2.915-.907 1.306-2.223 1.519-4.91 1.697-7.495.129-1.835.258-3.71-.202-5.489-.253-.972-.673-1.89-.871-2.872a3.518 3.518 0 01.494-2.863c.15-.17.316-.326.495-.464a5.858 5.858 0 012.814-1.292 5.808 5.808 0 013.07.33c3.157 1.234 8.551 3.11 10.001 2.046 2.088-1.512 2.608-2.52 2.608-2.52l1.059 1.235z" fill="#263238"/><path d="M163.432 74.415c.365.225.688.513.955.852a8.932 8.932 0 011.742 2.596c.43.983.55 2.079.342 3.135a2.081 2.081 0 01-.555 1.179c-.059-.03.179-.464.282-1.23a5.8 5.8 0 00-.43-2.928c-.418-.92-.952-1.78-1.589-2.56-.494-.62-.801-1.003-.747-1.044z" fill="#455A64"/><path d="M167.272 77.288c.045 0 .213.257.327.76a4.46 4.46 0 01-.039 2.005 4.415 4.415 0 01-.911 1.776c-.342.388-.619.544-.648.504-.03-.04.826-.943 1.172-2.384.347-1.442-.014-2.63.099-2.661z" fill="#455A64"/><path d="M159.533 97.877c-.211.189-.459.33-.728.413a5.294 5.294 0 01-3.959-.04 1.866 1.866 0 01-.717-.429 9.121 9.121 0 002.692.57 9.36 9.36 0 002.712-.514zm-1.613 1.542c0 .03-.183.156-.54.262-.473.134-.97.16-1.455.075a3.4 3.4 0 01-1.351-.544c-.306-.217-.45-.403-.43-.428a6.781 6.781 0 001.826.71c.65.068 1.306.043 1.95-.075zm14.657-2.293s-.143.327-.564.705a3.68 3.68 0 01-1.983.893 3.65 3.65 0 01-2.134-.389 1.76 1.76 0 01-.713-.549c.025-.035.297.171.792.383a3.891 3.891 0 003.924-.504c.44-.297.643-.57.678-.54z" fill="#EB996E"/><path d="M170.89 138.247c.178.273 9.758 24.601 14.499 28.603 4.478-4.204 12.267-11.003 5.013-17.767l-13.549-19.923-5.963 9.087z" fill="#FFBE9D"/><path d="M170.934 138.459c.213.257-1.93-5.04-2.474-7.263-.322-1.315-1.519-3.85-.802-5.67a34.76 34.76 0 011.787-3.729l-2.97-2.546s-6.254-1.456-6.7-2.52c-.445-1.063 0-1.638 0-1.638l5.181.726s-7.234-4.274-5.003-7.096c0 0 3.464 2.747 5.993 3.256l3.919 2.177s.713-.333.535-2.712c-.178-2.379-.535-3.109-.535-3.109s-3.464-4.637-2.86-6.734l.718-1.451 4.107 4.636 1.074 2.183s-.451-7.097 2.142-7.46l.891 8.191-.891 5.776c.391 1.171.689 2.373.891 3.593.178 1.457.896 11.915.896 11.915l1.692 2.52" fill="#FFBE9D"/><path d="M178.535 131.479a2.022 2.022 0 01-.119-.157l-.331-.468c-.292-.429-.723-1.044-1.277-1.845a2670.92 2670.92 0 01-.495-6.305c-.099-1.311-.213-2.752-.331-4.304a17.07 17.07 0 00-.99-4.874v-.046l.886-5.775v.025c-.282-2.52-.589-5.292-.906-8.185l.129.1c-.302.075-.58.225-.81.437a1.89 1.89 0 00-.506.778 7.552 7.552 0 00-.54 1.936 21.406 21.406 0 00-.183 4.188l.03.584-.258-.504c-.336-.675-.702-1.426-1.073-2.182v.03l-4.108-4.636.208-.031c-.228.454-.47.953-.717 1.457a3.108 3.108 0 00.143 1.713c.185.585.42 1.151.703 1.694a23.886 23.886 0 001.979 3.205 9.05 9.05 0 01.455 2.173c.085.645.124 1.295.119 1.945a4.671 4.671 0 01-.119.978 2.46 2.46 0 01-.163.479.966.966 0 01-.351.428l-.055.03-.064-.035-3.885-2.243h.035a11.5 11.5 0 01-3.212-1.371 26.409 26.409 0 01-2.83-1.915h.173a1.778 1.778 0 00-.401 1.069c.007.394.1.781.272 1.134a7.233 7.233 0 001.421 1.89 20.777 20.777 0 003.672 2.822l.494.297-.564-.075-5.181-.736.104-.04a1.415 1.415 0 00-.129 1.063c.037.176.097.345.179.504.11.143.246.263.4.353.653.37 1.341.671 2.054.897 1.405.504 2.791.857 4.127 1.185h.025l2.939 2.55.06.05-.04.071a35.614 35.614 0 00-1.697 3.487c-.495 1.119-.292 2.329-.04 3.362s.643 1.991.851 2.898c.208.907.53 1.694.777 2.414.495 1.432.911 2.546 1.188 3.312.133.378.237.665.297.862.027.072.048.146.064.221a.147.147 0 010 .066 7.056 7.056 0 00-.401-1.124c-.287-.751-.712-1.855-1.232-3.291a40.632 40.632 0 01-.802-2.414c-.262-.903-.593-1.84-.871-2.898a8.321 8.321 0 01-.282-1.674 3.903 3.903 0 01.312-1.789 34.202 34.202 0 011.693-3.528v.116l-2.97-2.52h.045a47.626 47.626 0 01-4.157-1.169c-.73-.233-1.434-.54-2.103-.918a1.487 1.487 0 01-.465-.418 2.126 2.126 0 01-.213-.595 1.618 1.618 0 01.173-1.255l.03-.05h.069l5.181.726-.074.221a21.062 21.062 0 01-3.721-2.852 7.296 7.296 0 01-1.485-1.961 2.81 2.81 0 01-.297-1.245c.014-.448.174-.879.456-1.224l.074-.091.099.07a26.16 26.16 0 002.801 1.895 11.346 11.346 0 003.137 1.336l3.919 2.197h-.113a.746.746 0 00.227-.302c.065-.135.115-.277.149-.423a4.75 4.75 0 00.108-.928 13.794 13.794 0 00-.118-1.905 9.28 9.28 0 00-.426-2.081 24.128 24.128 0 01-2.014-3.246 11.244 11.244 0 01-.722-1.734 3.377 3.377 0 01-.139-1.87l.718-1.456.084-.167.123.141 4.103 4.637 1.069 2.183-.228.065a21.145 21.145 0 01.193-4.244 7.967 7.967 0 01.559-2.016c.139-.322.336-.616.579-.867a1.61 1.61 0 01.921-.478h.113v.12l.881 8.186v.03c-.321 2.016-.623 3.977-.905 5.776v-.045c.277.85.508 1.69.692 2.52.093.403.162.812.208 1.224.03.403.055.802.084 1.19.114 1.557.218 2.999.312 4.314.183 2.626.337 4.753.446 6.31l1.247 1.865.316.504c.075.058.144.122.208.192z" fill="#EB996E"/><path d="M172.34 124.317a4.936 4.936 0 01-1.708-.963 3.117 3.117 0 01-1.212-1.557c.429.479.886.93 1.371 1.35.542.353 1.059.744 1.549 1.17z" fill="#EB996E"/><path d="M170.157 130.733a3.82 3.82 0 01-.262-1.074 10.133 10.133 0 01.559-5.257c.112-.36.279-.7.495-1.008.089.031-.628 1.568-.851 3.609-.223 2.041.153 3.72.059 3.73zm3.227-11.673a7.908 7.908 0 01-1.183-.625 27.107 27.107 0 00-2.89-1.391 19.09 19.09 0 00-3.048-.963 12.862 12.862 0 01-1.302-.287 4.72 4.72 0 011.336.101c1.065.186 2.107.488 3.108.902 1 .411 1.965.905 2.885 1.477.392.22.759.483 1.094.786zm1.583-2.641a2.655 2.655 0 01-.836-.156 14.574 14.574 0 01-1.945-.665 7.961 7.961 0 01-2.474-1.512c.045-.071 1.123.665 2.573 1.29s2.707.957 2.682 1.043zm.089-2.943a2.816 2.816 0 01-.494-.902 22.944 22.944 0 01-.812-2.349c-.272-.927-.495-1.774-.658-2.389a5.204 5.204 0 01-.238-1.008c.187.289.325.608.411.942.208.6.46 1.442.732 2.369.273.928.525 1.764.738 2.359.127.319.235.645.321.978z" fill="#EB996E"/><path d="M148.176 136.473a5.791 5.791 0 002.081-1.851c.536-.78.878-1.68.997-2.624.366-3.206.658-7.087.658-7.087.375-.642.694-1.317.955-2.016.144-.599 8.239-5.221 8.239-5.221s.288-1.255-2.088-1.119c-2.375.136-6.814 2.313-6.814 2.313l1.321-4.032a25.862 25.862 0 003.672-4.576 2.504 2.504 0 00-.579-3.15l-.218-.176s0-1.422-.752-1.719c0 0-6.225 3.583-6.433 4.032-.208.449 2.93-4.849-1.029-5.967l-2.341 6.416-.94 2.308s-.396 4.087-.544 5.428c-.149 1.341-.787 11.063-1.668 12.479" fill="#FFBE9D"/><path d="M142.683 129.912l.119-.303c.103-.296.184-.599.242-.907.173-.812.352-2.016.525-3.584.173-1.567.351-3.462.529-5.67.178-2.207.441-4.707.698-7.454v-.03l.812-2.016c.277-.691.494-1.411.791-2.142l1.663-4.577.04-.1.104.03a2.9 2.9 0 011.484.907c.386.489.595 1.097.594 1.724a5.905 5.905 0 01-.277 1.824 8.105 8.105 0 01-.317.877 6.605 6.605 0 01-.193.429l-.104.211-.059.106-.03.056v.03c-.158.101-.272-.272-.208-.126v-.025c.105-.145.234-.269.381-.368l.386-.267c.258-.178.52-.346.787-.504.53-.333 1.069-.666 1.613-1.008a94.943 94.943 0 013.336-1.966l.054-.035.059.025a1.267 1.267 0 01.649.806c.111.325.173.665.183 1.008l-.045-.1c.319.233.59.527.797.866.211.36.335.766.361 1.185.02.33-.023.66-.128.973-.11.302-.254.589-.431.856a18.222 18.222 0 01-1.069 1.512 31.232 31.232 0 01-2.4 2.712l.03-.055c-.446 1.367-.886 2.711-1.321 4.032l-.174-.157a34.677 34.677 0 014.771-1.9 9.01 9.01 0 012.434-.428c.416-.013.83.059 1.218.211.199.087.37.229.495.409.065.094.111.2.135.313a.875.875 0 01.008.342v.045l-.049.031a198.938 198.938 0 00-5.503 3.25c-.846.535-1.678 1.044-2.405 1.603a2.272 2.272 0 00-.248.222c-.039.055-.039.035-.064.116-.025.08-.035.116-.054.171a6.77 6.77 0 01-.277.635c-.198.413-.406.802-.619 1.18v-.036c-.193 1.981-.366 3.77-.495 5.338-.039.393-.074.771-.114 1.134a8.777 8.777 0 01-.133 1.048 5.78 5.78 0 01-.634 1.729 6.018 6.018 0 01-1.677 1.865c-.176.127-.36.243-.55.347a1.017 1.017 0 01-.202.091s.064-.035.188-.116c.184-.112.363-.235.534-.368a5.993 5.993 0 001.623-1.87 5.769 5.769 0 00.604-1.703c.058-.344.099-.69.124-1.038.029-.363.064-.741.099-1.134.138-1.568.297-3.357.494-5.338.208-.373.416-.766.609-1.169.094-.202.188-.408.262-.62 0-.055.04-.106.055-.161a.429.429 0 01.099-.187c.084-.089.175-.171.272-.247.747-.584 1.569-1.088 2.415-1.628a187.893 187.893 0 015.503-3.276l-.055.076a.768.768 0 00-.519-.802 2.932 2.932 0 00-1.124-.181 8.705 8.705 0 00-2.365.423 34.08 34.08 0 00-4.731 1.89l-.262.126.089-.277 1.316-4.032v-.03h.025a30.452 30.452 0 002.375-2.686c.379-.484.731-.989 1.054-1.512.166-.248.303-.516.406-.797.09-.283.128-.58.114-.877a2.381 2.381 0 00-.327-1.068 2.852 2.852 0 00-.737-.791l-.045-.036v-.065a3.355 3.355 0 00-.168-.948 1.037 1.037 0 00-.495-.65h.114a170.571 170.571 0 00-3.335 1.961c-.545.327-1.084.655-1.613 1.008-.263.166-.525.337-.777.504l-.381.262a1.804 1.804 0 00-.297.262s-.03-.025-.075-.036a.054.054 0 01-.049 0l-.049-.045c-.05-.04-.04 0-.04 0l.03-.05.054-.096.099-.207c.069-.136.129-.277.188-.413.119-.28.223-.566.312-.857a5.572 5.572 0 00.267-1.744 2.552 2.552 0 00-.534-1.572 2.726 2.726 0 00-1.381-.837l.143-.07a775.916 775.916 0 00-1.677 4.571c-.277.726-.525 1.452-.802 2.137l-.821 2.016v-.03c-.272 2.752-.564 5.246-.738 7.449a118.956 118.956 0 01-.579 5.67 35.68 35.68 0 01-.578 3.578 5.995 5.995 0 01-.273.913 9.974 9.974 0 00-.158.227z" fill="#EB996E"/><path d="M152.585 118.692c-.333.297-.72.524-1.138.67a3.409 3.409 0 01-1.242.429 3.378 3.378 0 011.138-.67 3.403 3.403 0 011.242-.429zm3.805-11.854a1.714 1.714 0 01-.198.469c-.216.409-.464.8-.742 1.169a26.356 26.356 0 01-3.117 3.306 10.943 10.943 0 00-2.588 3.634c-.466 1.063-.639 1.769-.683 1.754.005-.172.035-.341.089-.504a10.248 10.248 0 013.003-5.08 33.699 33.699 0 003.153-3.226c.702-.897 1.044-1.547 1.083-1.522zm-7.086 2.298a4.187 4.187 0 01-.589 1.008c-.227.333-.436.68-.623 1.038a6.635 6.635 0 00-.495 1.417c-.361 1.008-.524 1.98-.713 2.676a3.51 3.51 0 01-.39 1.084c.05-.38.121-.757.212-1.129.149-.917.364-1.822.644-2.707a6 6 0 01.529-1.456c.198-.369.427-.72.683-1.049.223-.314.471-.609.742-.882z" fill="#EB996E"/><path d="M121.404 155.958c.243-.373 6.998-7.056 8.942-9.253 1.945-2.198 11.733-14.878 12.337-16.794.604-1.915 6.166 5.464 6.166 5.464s-6.755 16.456-9.402 21.143c-2.648 4.687-6.988 13.406-6.988 13.406s-7.16.615-9.946-5.307c-2.786-5.922-1.109-8.659-1.109-8.659z" fill="#FFBE9D"/><path d="M148.151 241.488l9.101 22.68-27.628 11.678c-.93-2.757 11.164-14.193 11.164-14.193l-6.433-14.278 13.796-5.887z" fill="#C6E1F6"/><path opacity=".6" d="M148.829 256.805c.3-.031.601.052.844.233.243.182.411.449.472.75.04.302-.036.609-.212.857a1.17 1.17 0 01-.733.473 1.264 1.264 0 01-.891-.249 1.312 1.312 0 01-.495-.794c-.034-.61.535-1.341 1.134-1.28m8.304 7.353l-.99-2.248-26.114 12.036s-.989 1.063-.494 1.89l27.598-11.678z" fill="#fff"/><path d="M140.278 261.678c.064.137.762-.085 1.603.076.842.161 1.435.59 1.539.479.104-.111-.425-.812-1.45-1.008-1.024-.197-1.771.343-1.692.453zm-2.4 2.445c0 .146.703.136 1.401.504.697.368 1.073.947 1.207.887.134-.061-.099-.877-.99-1.341-.89-.463-1.667-.181-1.618-.05zm-.208 4.229c.139 0 .045-.787-.609-1.396-.653-.61-1.405-.635-1.415-.504-.01.131.544.378 1.074.882.529.504.812 1.063.95 1.018zm1.515-10.091c.108.101.653-.353 1.435-.62.781-.267 1.484-.277 1.484-.423 0-.146-.747-.398-1.668-.066-.92.333-1.375 1.029-1.251 1.109zm-.713-3.619c0 .061.589-.08 1.38-.589a7.076 7.076 0 001.881-1.83c.117-.153.212-.323.282-.504a.637.637 0 00.011-.42.633.633 0 00-.249-.336.787.787 0 00-.717-.065 2.041 2.041 0 00-.495.292 5.402 5.402 0 00-1.663 2.056c-.396.877-.405 1.482-.351 1.487.054.005.218-.539.668-1.315a5.99 5.99 0 01.945-1.23c.215-.214.446-.41.693-.585.262-.201.495-.312.638-.211.045.04.06.06.035.171a1.703 1.703 0 01-.208.373 8.086 8.086 0 01-1.682 1.819c-.698.565-1.203.817-1.168.887z" fill="#263238"/><path d="M138.724 254.769c.06 0 .124-.605-.188-1.512a4.982 4.982 0 00-.836-1.457 5.307 5.307 0 00-.703-.711 1.234 1.234 0 00-1.173-.337.7.7 0 00-.3.258.725.725 0 00-.115.382c-.004.194.019.387.069.574.077.336.207.656.386.948a3.4 3.4 0 001.183 1.209c.836.504 1.484.429 1.459.373a10.491 10.491 0 01-1.261-.68c-.41-.3-.748-.689-.99-1.139a3.121 3.121 0 01-.307-.822c-.079-.317-.069-.604.055-.625.123-.02.46.071.673.258a5.204 5.204 0 011.484 1.915c.416.796.485 1.376.564 1.366z" fill="#263238"/><path d="M193.287 242.693l-.758 24.469 29.89 1.119c-.07-2.918-15.341-9.334-15.341-9.334l1.118-15.659-14.909-.595z" fill="#C6E1F6"/><path opacity=".6" d="M197.899 257.283c-.291.08-.543.266-.708.522a1.271 1.271 0 00-.188.869c.067.298.243.559.492.728.25.17.553.236.849.185a1.29 1.29 0 00.75-.551 1.33 1.33 0 00.19-.921c-.178-.585-.96-1.064-1.484-.796m-5.271 9.843l.169-2.46 28.592 1.991s1.312.635 1.129 1.588l-29.89-1.119z" fill="#fff"/><path d="M207.583 258.811c0 .151-.742.191-1.484.64-.743.448-1.143 1.063-1.277 1.008-.134-.056.119-.913 1.019-1.442.901-.529 1.782-.337 1.742-.206zm3.088 1.441c.03.141-.614.373-1.128 1.008-.515.635-.688 1.27-.832 1.26-.143-.01-.208-.857.451-1.603.658-.746 1.514-.811 1.509-.665zm1.643 3.886c-.134 0-.312-.726.094-1.512s1.098-1.099 1.158-.973c.059.126-.381.545-.703 1.205-.322.66-.401 1.27-.549 1.28zm-4.84-8.921c-.064.131-.727-.101-1.554-.07-.826.03-1.484.267-1.553.136-.07-.131.569-.64 1.544-.655.974-.016 1.613.473 1.563.589zm-.609-3.639c0 .061-.579.131-1.484-.065a6.89 6.89 0 01-2.39-1.044 1.896 1.896 0 01-.441-.378.65.65 0 01-.024-.811.792.792 0 01.653-.317c.19.006.378.04.559.1.316.092.624.212.92.358.496.253.95.583 1.346.978.668.675.886 1.24.837 1.27-.05.03-.391-.433-1.079-1.008a5.847 5.847 0 00-1.306-.816 5.265 5.265 0 00-.852-.303c-.311-.096-.579-.111-.668.03-.029.056-.034.076.03.172.093.108.202.201.322.277.247.183.505.351.772.504.457.25.936.457 1.43.62.821.287 1.385.353 1.375.433z" fill="#263238"/><path d="M206.668 251.8c-.05.025-.322-.504-.342-1.487a5.1 5.1 0 01.267-1.658c.108-.318.247-.623.416-.912.088-.2.225-.373.399-.502.173-.13.377-.21.591-.234a.688.688 0 01.369.134.712.712 0 01.24.314c.073.18.118.371.133.565.039.336.027.676-.034 1.008a3.538 3.538 0 01-.698 1.552c-.609.766-1.227.923-1.237.872-.01-.05.494-.348.95-1.088.273-.428.452-.912.524-1.417.04-.292.04-.589 0-.882-.039-.322-.148-.589-.267-.559-.119.03-.411.227-.539.479a5.053 5.053 0 00-.401.811 5.522 5.522 0 00-.347 1.512c-.079.892.06 1.457-.024 1.492zm-71.996-86.331s.044.045.103.151c.096.15.179.309.248.474a4.49 4.49 0 01.361 1.935 6.633 6.633 0 01-.802 2.802 13.881 13.881 0 01-2.068 2.883 20.165 20.165 0 01-4.949 4.032c-.56.318-1.137.605-1.727.862a3.332 3.332 0 01-.663.242c.197-.13.404-.243.619-.338.406-.201.99-.504 1.677-.927a21.536 21.536 0 004.84-4.067 14.186 14.186 0 002.054-2.813 6.64 6.64 0 00.826-2.701 4.774 4.774 0 00-.272-1.885c-.148-.413-.267-.64-.247-.65z" fill="#263238"/><path d="M134.236 169.34a.786.786 0 01-.208.116 4.576 4.576 0 01-.614.267 7.463 7.463 0 01-2.424.443 9.258 9.258 0 01-3.978-.83 9.414 9.414 0 01-3.262-2.461 16.565 16.565 0 01-1.361-1.92 13.888 13.888 0 01-.955-1.981 10.84 10.84 0 01-.723-3.649 8.73 8.73 0 01.327-2.485c.06-.219.133-.434.218-.645.054-.146.089-.222.099-.216.01.005-.084.317-.218.887a9.334 9.334 0 00-.242 2.454c.053 1.225.311 2.431.762 3.568.265.669.583 1.314.95 1.931.402.66.85 1.29 1.341 1.885a9.108 9.108 0 003.533 2.575c1.113.462 2.302.7 3.504.701a8.04 8.04 0 002.395-.353c.564-.176.856-.307.856-.287zm54.83 4.238a1.957 1.957 0 01-.431-.297 37.183 37.183 0 01-1.118-.897c-.931-.776-2.247-1.8-3.573-3.105a10.643 10.643 0 01-.901-1.008 3.245 3.245 0 01-.564-1.169 8.377 8.377 0 01-.232-2.157c.002-.486.036-.971.103-1.452.017-.173.057-.342.119-.504.04 0-.074.756-.039 1.971.007.706.1 1.408.277 2.091.178.771.787 1.417 1.42 2.077 1.306 1.285 2.613 2.338 3.504 3.145.455.403.816.731 1.068.962.137.098.26.213.367.343zm4.315-21.732c.062.232.098.47.109.71a12.65 12.65 0 010 1.966 11.87 11.87 0 01-2.128 6.048c-1.534 1.981-2.969 3.775-4.182 4.869-.472.438-.967.848-1.484 1.23a3.062 3.062 0 01-.599.383c.166-.171.346-.326.539-.464.352-.292.856-.721 1.44-1.285a45.136 45.136 0 004.098-4.894 12.11 12.11 0 002.147-5.882c.067-.892.087-1.787.06-2.681z" fill="#263238"/><path d="M197.181 156.286c.136-.595.2-1.204.193-1.815a6.11 6.11 0 00-.42-1.915 5.754 5.754 0 00-1.317-1.981 7.605 7.605 0 00-3.845-1.859 9.342 9.342 0 00-1.801 0c.157-.071.324-.117.495-.137.444-.08.897-.097 1.346-.05a7.36 7.36 0 014.003 1.855 5.876 5.876 0 011.742 4.082 4.89 4.89 0 01-.183 1.356 1.54 1.54 0 01-.213.464zm-55.557 31.379s-11.105-10.029-15.974-9.944c-4.869.086-20.858-1.008-14.153 21.557 6.76 22.74 18.854 57.512 19.186 56.267l20.823-9.324-8.462-32.347s28.385.327 33.863-.409c5.478-.735 15.736-8.064 15.736-8.064l-1.628 40.855 21.774-1.235s3.053-49.095 3.959-59.185c.767-8.79-8.908-18.648-18.805-16.421-6.433 1.452-29.538 18.044-29.538 18.044l-26.781.206z" fill="#263238"/><path d="M193.391 183.648c.023.358.015.718-.025 1.074-.04.756-.089 1.734-.149 2.908-.108 2.455-.188 5.852-.247 9.611-.059 3.76-.129 7.157-.257 9.617a61.424 61.424 0 01-.193 2.913 6.032 6.032 0 01-.139 1.063 6.202 6.202 0 010-1.073c0-.756.05-1.734.079-2.913.04-2.52.094-5.892.149-9.617.054-3.724.178-7.156.356-9.616.089-1.23.178-2.223.262-2.908.023-.357.078-.711.164-1.059z" fill="#455A64"/><path d="M192.51 202.785a4.276 4.276 0 01-.96-1.179 13.045 13.045 0 01-1.559-3.342 13.541 13.541 0 01-.584-3.654 4.506 4.506 0 01.134-1.512c.119 0-.05 2.349.802 5.071.851 2.721 2.286 4.551 2.167 4.616zm-29.612 8.281c-.035 0-.084-.554-.253-1.557a20.247 20.247 0 00-1.138-4.113 21.193 21.193 0 00-3.147-5.443 19.962 19.962 0 00-5.815-4.924c-4.72-2.783-8.872-5.514-11.772-7.651-1.45-1.064-2.588-1.976-3.345-2.646-.381-.328-.663-.605-.852-.786-.188-.182-.287-.288-.277-.298.01-.01.436.343 1.223.973.786.63 1.935 1.512 3.399 2.545 2.93 2.072 7.097 4.763 11.808 7.56a19.798 19.798 0 015.903 5.04 20.752 20.752 0 013.123 5.544c.509 1.35.859 2.755 1.044 4.189.054.387.089.778.104 1.169.012.132.01.266-.005.398zm7.68-23.945a5.68 5.68 0 01-.361.948 34.133 34.133 0 00-.99 2.56 46.776 46.776 0 00-2.905 17.827 46.54 46.54 0 00.154 2.757c.047.333.061.671.039 1.008a5.4 5.4 0 01-.183-1.008c-.104-.646-.198-1.588-.272-2.757a42.16 42.16 0 012.9-17.923c.435-1.083.826-1.945 1.128-2.52.134-.313.298-.612.49-.892zm-41.751-2.938c.108.055.209.122.302.201l.836.615c.178.141.381.292.599.454.218.161.426.388.663.605.549.477 1.065.992 1.544 1.542l.846.952c.268.353.535.726.822 1.109l.43.59c.139.206.268.423.401.64.262.433.549.872.817 1.341a41.522 41.522 0 012.791 6.421c.821 2.348 1.445 4.636 1.979 6.713l1.45 5.544c.421 1.573.762 2.843 1.019 3.715.119.418.208.756.282 1.008.039.116.065.236.08.357a1.742 1.742 0 01-.129-.342l-.327-1.008c-.287-.862-.658-2.127-1.103-3.695-.446-1.567-.935-3.447-1.485-5.514-.549-2.066-1.192-4.354-2.014-6.693a42.102 42.102 0 00-2.756-6.385c-.257-.469-.54-.903-.802-1.341-.128-.212-.252-.429-.391-.635l-.42-.585c-.277-.383-.54-.761-.807-1.109l-.821-.957a16.763 16.763 0 00-1.51-1.563c-.232-.216-.435-.438-.643-.615l-.584-.468-.802-.655a2.185 2.185 0 01-.267-.242z" fill="#455A64"/><path d="M141.396 187.459c3.959 2.666 8.324 3.291 12.985 4.198 2.692.504 5.508 1.008 8.131.212 5.631-1.694 11.075-8.22 14.692-10.549l-11.213-3.558-24.595 9.697z" fill="#C6E1F6"/><path d="M149.383 190.11a15.69 15.69 0 01.941-2.702 15.88 15.88 0 011.182-2.606c-.234.928-.55 1.833-.945 2.702a16.07 16.07 0 01-1.178 2.606zm14.866-.983a9.382 9.382 0 01-2.098-.746 9.142 9.142 0 01-1.98-1.008 19.507 19.507 0 014.093 1.739l-.015.015zm3.835-7.011c-.819.121-1.649.153-2.474.096-.829.03-1.658-.026-2.475-.166a11.386 11.386 0 012.475-.096c.828-.03 1.657.025 2.474.166z" fill="#fff"/></svg>