<svg width="320" height="322" fill="none" xmlns="http://www.w3.org/2000/svg"><path fill-rule="evenodd" clip-rule="evenodd" d="M109.967 266.464c-25.739-4.317-59.696 2.901-73.048-21.496-13.428-24.535 9.634-57.969 13.035-88.157 3.051-27.076-8.081-55.866 5.83-79.28 14.092-23.718 40.73-33.159 64.709-39.442 21.843-5.724 42.207 1.872 63.551 5.832 24.907 4.621 52.746 1.262 71.442 19.215 21.141 20.302 35.869 50.658 35.552 83.529-.323 33.529-14.486 68.613-37.249 92.535-21.096 22.171-50.961 23.795-78.39 28.995-22.453 4.256-43.557 1.938-65.432-1.731z" fill="#FFEEF2"/><path d="M218.546 60.986H96.126v177.079h122.42V60.986z" fill="#fff"/><path d="M218.552 238.065c0-1.248-.059-72.603-.142-177.078l.142.142H96.168l.154-.154c0 66.525 0 127.977-.03 177.078l-.124-.124 122.425.124-122.425.124h-.124v-.124c0-49.101 0-110.559-.03-177.078v-.154h122.692v.142c-.101 104.499-.154 175.854-.154 177.102z" fill="#093636"/><path d="M212.763 66.314H101.908v167.258h110.855V66.314z" fill="#E0E0E0"/><path d="M195.198 164.173a2.259 2.259 0 00-1.07-1.773c-9.46-6.267-16.608-20.161-17.323-31.927 0-.668-.041-1.348-.065-2.033-.55-16.821-3.027-37.248-5.25-42.652-4.103-10.05-18.009-10.985-18.009-10.985-18.464-1.324-21.763 12.865-23.649 25.784-1.182 8.035-5.623 36.739-5.623 36.739l3.394 1.318a41.768 41.768 0 0024.702 25.831c3.399 1.283 6.284 1.773 7.632.692a46.42 46.42 0 0019.428 11.824 24.102 24.102 0 009.211 1.224c2.016-.189 4.139-.851 5.321-2.483a4.626 4.626 0 00.352-4.946 4.632 4.632 0 00-4.325-2.427c.745-2.3 5.351-1.632 5.274-4.186z" fill="#093636"/><path d="M155.935 80.024l-1.183-1.1-12.48 5.032a3.483 3.483 0 00-3.294 3.37l.113 40.67c0 2.756.532 5.144 2.199 7.343l1.774 2.318c3.996 5.274 12.215 4.842 15.372-.975.19-.329.337-.681.437-1.047.08-.3.143-.604.189-.91.367-3.276.391-6.114.391-6.114.224-3.588.295-5.067.295-5.031 0 .035 7.645-.881 9.714-10.689 1.029-4.884.834-11.594.544-18.204-.378-9.147-6.734-14.669-14.071-14.663z" fill="#FFBE9D"/><path d="M153.375 100.167a1.274 1.274 0 01-1.283 1.218 1.212 1.212 0 01-1.147-.719 1.214 1.214 0 01-.107-.463 1.275 1.275 0 011.289-1.218 1.186 1.186 0 011.152.714c.063.148.096.307.096.468zm12.906.343a1.264 1.264 0 01-1.288 1.218 1.21 1.21 0 01-.872-.331 1.222 1.222 0 01-.382-.851 1.272 1.272 0 011.289-1.218 1.214 1.214 0 011.253 1.182zm2.442-3.21c-.165.16-1.088-.592-2.454-.668-1.365-.077-2.4.59-2.542.396-.142-.196.107-.373.591-.669a3.497 3.497 0 012.04-.52c.71.036 1.391.294 1.945.74.373.342.503.65.42.72zm-13.852.142c-.184.136-1.023-.71-2.365-.917-1.342-.207-2.442.32-2.566.13-.059-.082.142-.354.626-.59a3.49 3.49 0 012.082-.308 3.373 3.373 0 011.862.934c.355.372.449.686.361.75zm4.771 9.938a9.016 9.016 0 012.235-.29c.349 0 .686-.07.756-.307a1.762 1.762 0 00-.183-1.046l-.898-2.702c-1.242-3.855-2.123-7.012-1.969-7.06.153-.047 1.289 3.033 2.536 6.882.296.954.579 1.861.851 2.72.197.432.237.919.113 1.377a.875.875 0 01-.591.479 2.265 2.265 0 01-.592.054 8.99 8.99 0 01-2.258-.107z" fill="#093636"/><path d="M159.772 123.58a25.216 25.216 0 01-13.072-4.198s2.974 7.018 12.936 6.604l.136-2.406zm-.875-12.966a2.46 2.46 0 00-2.158-1.023 2.251 2.251 0 00-1.596.757 1.438 1.438 0 00-.189 1.62 1.663 1.663 0 001.773.544 5.182 5.182 0 001.774-.958c.162-.099.303-.23.414-.384a.46.46 0 000-.509" fill="#EB996E"/><path d="M155.586 108.119c.225 0 .154 1.484 1.366 2.596 1.212 1.111 2.802 1.034 2.802 1.241 0 .095-.366.272-1.034.254a3.687 3.687 0 01-2.365-.951 3.242 3.242 0 01-1.053-2.17c-.012-.621.172-.982.284-.97zm.591-15.999c-.189.344-1.513-.035-3.127-.088-1.614-.053-2.956.183-3.122-.177-.071-.172.207-.485.78-.757a5.432 5.432 0 014.76.201c.544.32.792.656.709.822zm12.351-.685c-.254.295-1.183-.071-2.312-.142-1.129-.071-2.099.1-2.3-.237-.088-.16.077-.46.509-.733a3.357 3.357 0 013.719.302c.384.337.496.662.384.81z" fill="#093636"/><path d="M139.256 104.702s6.995 2.176 10.95-15.082c1.354-5.913 6.823-10.678 6.823-10.678l-2.218-.668s-13.787 3.885-14.018 4.056c-.23.171-3.482 7.136-3.482 7.136l1.945 15.236z" fill="#093636"/><path d="M140.983 104.04c.035-.733-.733-2.513-1.455-2.667-1.927-.396-5.433-.42-5.717 4.511-.378 6.746 6.468 5.741 6.504 5.546.035-.195.544-4.848.668-7.39z" fill="#FFBE9D"/><path d="M138.387 108.758s-.124.076-.325.153a1.135 1.135 0 01-.881-.029c-.697-.302-1.235-1.466-1.182-2.684a3.923 3.923 0 01.42-1.662 1.36 1.36 0 01.934-.851.59.59 0 01.68.361c.077.195.029.325.059.337.029.011.153-.101.118-.385a.785.785 0 00-.242-.437.895.895 0 00-.645-.207 1.636 1.636 0 00-1.283.975 3.983 3.983 0 00-.514 1.857c-.036 1.36.591 2.672 1.549 3.009a1.257 1.257 0 001.082-.118c.207-.154.284-.308.23-.319z" fill="#EB996E"/><path d="M143.998 101.385c.34-.051.678-.12 1.011-.207a6.076 6.076 0 002.4-1.39c.474-.44.895-.933 1.254-1.471.405-.62.746-1.28 1.017-1.97a42.642 42.642 0 001.454-4.9c.434-1.657.951-3.29 1.549-4.896a28.627 28.627 0 011.774-3.813c.457-.824.973-1.615 1.543-2.365.195-.272.372-.461.485-.591.052-.07.112-.136.177-.195a1.31 1.31 0 01-.154.218c-.1.148-.266.343-.455.592a23.944 23.944 0 00-1.49 2.365 29.619 29.619 0 00-1.708 3.807c-.556 1.472-1.065 3.128-1.538 4.884a39.385 39.385 0 01-1.472 4.919c-.28.696-.631 1.361-1.046 1.986a8.326 8.326 0 01-1.289 1.478 6.02 6.02 0 01-2.472 1.372 3.786 3.786 0 01-1.04.177z" fill="#093636"/><path d="M134.787 130.154a1.397 1.397 0 01-.077-.331l-.166-.958c-.147-.863-.349-2.093-.591-3.659h.166c.029.248.071.52.106.798.041.089.095.195.142.301l-.172.059a65.86 65.86 0 01-2.571-17.872c0-2.466 0-5.085.668-7.686.267-1.07.678-2.098 1.224-3.057a16.66 16.66 0 011.862-2.601c1.372-1.585 2.85-2.956 4.198-4.298l7.242-7.095 4.896-4.783 1.342-1.29.354-.33.13-.107s-.029.048-.106.13l-.331.35-1.301 1.33a1671.753 1671.753 0 00-4.83 4.853l-7.195 7.166c-1.342 1.36-2.82 2.732-4.168 4.298a13.246 13.246 0 00-3.022 5.534c-.644 2.56-.638 5.168-.668 7.621a68.1 68.1 0 002.454 17.826l-.172.065-.136-.308c-.035-.284-.071-.555-.1-.798h.16c.23 1.567.407 2.803.532 3.672.053.408.094.727.13.963.002.069.002.138 0 .207zm-5.31-31.175c.026-.1.066-.195.119-.284.106-.213.236-.473.39-.792.343-.686.881-1.656 1.59-2.832a58.364 58.364 0 012.667-4.02 58.602 58.602 0 013.719-4.594c1.395-1.567 2.832-2.956 4.168-4.18a48.686 48.686 0 013.713-3.08c1.099-.822 2.004-1.467 2.654-1.88l.745-.48c.085-.056.174-.105.266-.147 0 0-.071.077-.236.2l-.71.521a65.577 65.577 0 00-2.583 1.957 63.173 63.173 0 00-7.793 7.296c-1.401 1.549-2.637 3.11-3.719 4.552a57.724 57.724 0 00-2.713 3.967 66.318 66.318 0 00-1.668 2.779l-.443.763a1.46 1.46 0 01-.166.254z" fill="#455A64"/><path d="M137.199 127.6c.236-.343 1.809-3.376 1.809-3.376l8.892 7.674s8.738 7.314 8.738 6.841l1.396-7.036 1.714-6.409 3.205 4.849s10.05 19.747 10.05 19.983c0 .237 6.238 20.693 6.238 20.693l-1.342 8.277-.16 29.355-18.783-.787-3.707-5.912-6.344-37.649-11.706-36.503z" fill="#fff"/><path d="M158.246 202.136h20.723l6.107 31.483h-41.522l14.692-31.483z" fill="#093636"/><path d="M133.799 132.49l-12.096 4.54 11.174 49.764s-.656 13.444-3.033 20.297c-2.377 6.852-7.958 26.528-7.958 26.528h37.164s1.579-27.007.952-36.656c-.626-9.649-.366-27.835-4.061-37.324-3.696-9.489-18.506-32.807-18.506-32.807l-3.636 5.658zm26.517-6.628l5.48 4.529 15.053 2.24s7.124 25.807 5.806 35.953c-1.318 10.145.52 27.711.52 27.711l6.598 37.324h-14.485s-4.138-43.65-4.381-43.124c-.242.526-1.04-21.349-2.619-28.444-1.578-7.095-9.548-29.396-9.548-29.396l-2.424-6.793z" fill="#C6E1F6"/><path d="M199.834 190.099s6.066-2.767 6.066-8.171-3.696-13.049-4.482-15.963c-.786-2.915-18.718-33.742-20.563-33.345l-1.844.396 9.489 41.652-12.919 3.163 5.511 15.856 18.742-3.588z" fill="#C6E1F6"/><path d="M181.34 176.636l2.66-8.608.456-5.865 6.261-4.138s1.679.195 1.182 1.495c-.496 1.301-3.056 3.642-3.056 3.642l-1.496 4.18 2.43-4.245 3.547-1.773 3.518.26s.65 1.561-.976 1.626h-1.773l-2.673 2.152-1.667 4.032 2.513-3.902 3.713-1.319 2.365.592s.65 1.04-.521 1.182c-1.17.142-1.951.13-1.951.13l-2.146 1.248-1.892 3.961 3.323-2.738 4.292-.514s.721 1.035-.39 1.425a35.586 35.586 0 00-3.317 1.567l-2.412 2.926-11.99 2.684z" fill="#FFBE9D"/><path d="M160.15 202.136a.894.894 0 01-.065-.195c-.035-.142-.088-.337-.148-.591-.136-.527-.319-1.272-.591-2.223-.479-1.957-1.182-4.73-2.022-8.207-.839-3.476-1.886-7.579-3.056-12.143a445.995 445.995 0 00-1.904-7.154 137.762 137.762 0 00-1.076-3.755c-.189-.632-.402-1.265-.591-1.903a17.342 17.342 0 00-.775-1.851c-2.217-4.452-4.481-8.644-6.503-12.51-2.022-3.867-3.95-7.379-5.582-10.418l-.041-.082.065-.059c.414-.373.822-.722 1.23-1.053.201-.169.412-.325.632-.467l.095-.053h.059l-.035.041a.106.106 0 00.002.08.101.101 0 00.057.056h-3.352v-.059c-.864-2.229-1.544-3.997-2.017-5.226l-.526-1.384-.13-.36-.035-.125s0 .036.059.113l.154.354.591 1.366c.49 1.224 1.182 2.956 2.099 5.197l-.089-.059c.857 0 1.774-.047 2.761-.047h.372c.071-.006.142-.006.213 0h.036a.116.116 0 01.029.118c-.035.065-.029.041-.041.053h-.083a.623.623 0 00-.071.041c-.207.138-.405.29-.591.456-.396.331-.804.68-1.182 1.052v-.142c1.637 3.033 3.547 6.545 5.628 10.394s4.328 8.047 6.551 12.51c.3.613.562 1.242.786 1.886.207.645.42 1.277.591 1.916a85.779 85.779 0 011.076 3.766c.68 2.477 1.295 4.872 1.881 7.16 1.182 4.57 2.163 8.697 2.997 12.167l1.927 8.224c.213.958.385 1.709.503 2.241.047.242.089.437.118.591a.847.847 0 01-.006.284zm19.138-29.272a2.367 2.367 0 010-.461c0-.337.042-.774.077-1.324 0-.29.036-.591.059-.958v-1.135c0-.822 0-1.774-.059-2.773a57.752 57.752 0 00-3.122-15.697 55.707 55.707 0 00-2.53-6.202 53.817 53.817 0 00-2.927-5.693c-.963-1.679-1.85-3.14-2.595-4.346l-1.774-2.82c-.195-.307-.349-.591-.473-.751a2.04 2.04 0 01-.147-.272c.072.074.138.155.195.243l.508.727c.438.638 1.064 1.578 1.833 2.773a122.383 122.383 0 012.66 4.321 51.44 51.44 0 012.957 5.706 52.955 52.955 0 012.56 6.267 55.585 55.585 0 013.05 15.786c.065 1.034.03 1.968 0 2.784 0 .408 0 .792-.029 1.141-.03.349-.059.668-.083.958-.053.55-.101.993-.13 1.324a3.842 3.842 0 01-.03.402zm20.995 17.004a2.017 2.017 0 01-.373.101l-1.082.248-4.085.893-14.284 3.033-.124.029-.042-.124c-1.182-3.547-2.518-7.426-3.896-11.499l-1.431-4.239-.059-.16.166-.041 10.742-2.525 4.63-1.082 2.087-.485a9.744 9.744 0 011.962-.331 7.255 7.255 0 013.311.674c.777.352 1.494.82 2.129 1.39.397.355.755.752 1.07 1.182.089.142.165.254.225.343.059.089.076.124.07.124a9.736 9.736 0 00-1.442-1.567 8.446 8.446 0 00-2.117-1.33 7.323 7.323 0 00-3.24-.591 9.104 9.104 0 00-1.909.349l-2.087.502-4.624 1.112c-3.269.774-6.893 1.637-10.736 2.56l.106-.201 1.437 4.239c1.371 4.079 2.684 7.964 3.878 11.511l-.165-.095 14.307-2.92 4.103-.816 1.088-.207c.126-.034.255-.06.385-.077z" fill="#093636"/><path d="M130.459 210.543l19.788 1.821-3.405 6.055-20.841-2.04 4.458-5.836z" fill="#C6E1F6"/><path d="M130.459 210.532s0 .047-.071.118l-.219.307-.863 1.183-3.228 4.304-.071-.166 20.119 1.94.733.07-.147.077 3.405-6.06.112.219-14.154-1.401-4.138-.42-1.112-.124a2.24 2.24 0 01-.39-.059h.373l1.093.077 4.139.337 14.225 1.283h.225l-.113.201-3.393 6.06-.054.082h-.1l-.733-.07-20.102-2.017h-.189l.112-.147 3.335-4.269.898-1.135a4.29 4.29 0 01.308-.39z" fill="#093636"/><path d="M183.728 212.577l3.092 5.841 6.646-1.359-3.524-5.381-6.214.899z" fill="#C6E1F6"/><path d="M183.728 212.577a2.48 2.48 0 01.408-.083l1.242-.213a266.73 266.73 0 014.546-.733h.083l.047.071c1.029 1.561 2.247 3.4 3.548 5.369l.124.189-.225.047-.331.065-6.32 1.271h-.095l-.047-.088c-.934-1.774-1.685-3.282-2.199-4.31-.237-.479-.432-.875-.592-1.183a2.914 2.914 0 01-.183-.402s.101.16.26.438l.668 1.182c.592 1.017 1.36 2.436 2.283 4.139l-.148-.065 6.314-1.313.331-.065-.094.231c-1.289-1.975-2.49-3.82-3.506-5.392l.124.059c-1.839.254-3.37.437-4.47.591l-1.283.148c-.307.035-.473.053-.485.047z" fill="#093636"/><path opacity=".3" d="M128.413 216.621l-.821 1.797 20.557 1.886 1.531-6.935-2.838 5.049-18.429-1.797zm4.239-26.676s3.229 6.763 7.42 8.744c5.718 2.696 20.037.934 20.037.934l.041-4.109-16.595.946-10.903-6.515z" fill="#000"/><path d="M122.477 136.717s-5.799.396-5.912 15.555c-.112 15.159 17.66 40.594 20.693 43.1 3.033 2.507 6.504 4.186 15.632 2.832 11.458-1.696 19.428-3.228 19.428-3.228l-1.585-13.84-20.468-.923-16.596-34.125s-5.533-10.051-11.192-9.371z" fill="#C6E1F6"/><path opacity=".3" d="M175.688 186.948c-2.247-.935-4.73-.952-7.184-.958l-9.672-.03a24.606 24.606 0 00-6.22.515 8.28 8.28 0 00-5.067 3.405l-5.055 4.18a33.497 33.497 0 0019.511-1.141 24.884 24.884 0 014.73-1.549c4.369-.686 8.791 1.85 13.137 1.04.006-2.435-1.939-4.522-4.18-5.462z" fill="#000"/><path d="M142.922 172.865a43.835 43.835 0 005.8 1.88 36.544 36.544 0 017.189 2.288 47.633 47.633 0 014.795 2.205l3.051 10.642s-5.067 3.187-10.784 3.021c-5.717-.165-10.784 1.685-11.517 1.183-.733-.503-.816-1.413 0-1.821.816-.408 4.28-.899 4.28-.899l2.956-1.224s-10.21.899-11.026.491c-.816-.408-1.632-.982-1.307-1.88a1.278 1.278 0 011.141-.899s-2.205.083-2.122-.816a2.819 2.819 0 011.224-1.88c.331-.165 4.611-1.904 4.611-1.904l5.511-1.099-5.292-.213-4.623 1.289s-1.845.213-1.431-1.342c.414-1.555 6.078-3.282 6.078-3.282l7.189-.49s-5.558-.816-6.131-2.531a2.659 2.659 0 01.408-2.719zm17.784 6.373h.355l14.03-.621 4.197 12.25-15.531-1.011-3.051-10.618z" fill="#FFBE9D"/><path d="M148.491 186.203c-.567.087-1.14.132-1.714.136a45.785 45.785 0 00-4.139.425c-1.62.243-3.021.556-4.05.81-.55.166-1.111.295-1.679.385a7.67 7.67 0 011.62-.592 30.865 30.865 0 018.218-1.241 7.888 7.888 0 011.744.077z" fill="#EB996E"/><path d="M137.962 153.803a3.77 3.77 0 01-.467-.674c-.284-.437-.686-1.082-1.183-1.862a68.973 68.973 0 00-4.345-5.871 33.264 33.264 0 00-5.174-5.126 28.313 28.313 0 00-2.536-1.644c.262.078.515.181.757.308.291.135.574.289.845.461.368.211.724.444 1.064.698a29.797 29.797 0 015.28 5.102 54.506 54.506 0 014.292 5.96c.497.792.875 1.454 1.13 1.915a4.3 4.3 0 01.337.733zm9.081 20.191a3.613 3.613 0 01-.314-.68l-.768-1.886a230.242 230.242 0 00-5.363-12.327c-.342-.733-.632-1.354-.857-1.845a3.072 3.072 0 01-.284-.698c.15.202.281.418.391.645.23.42.555 1.034.946 1.803a118.81 118.81 0 012.861 6.096 115.246 115.246 0 012.513 6.243c.295.81.526 1.472.674 1.927.094.232.161.474.201.722zm9.454-35.137s-.13-.041-.355-.154l-.964-.508-3.393-1.874.201-.101c-.166 1.525-.444 3.305-.728 5.203-.112.774-.218 1.525-.307 2.247l-.036.277-.206-.177a403.394 403.394 0 01-4.517-3.884l-1.301-1.183a3.025 3.025 0 01-.449-.449c.187.099.36.222.514.366l1.366 1.094c1.153.94 2.755 2.271 4.576 3.802l-.243.094c.083-.721.184-1.478.302-2.252.278-1.904.591-3.683.763-5.197v-.201l.171.1 3.34 1.975.923.591c.125.06.24.138.343.231zm5.185-8.703c.038.267.047.536.029.804 0 .592 0 1.307-.041 2.182-.047 1.851-.13 4.399-.242 7.213v.698l-.266-.414-3.37-5.321h.207c-.373 1.023-.68 1.88-.923 2.536-.097.32-.226.628-.384.922.057-.328.144-.651.26-.963l.822-2.572.077-.237.136.207 3.435 5.28-.284.077v-.201c.112-2.814.231-5.363.331-7.207.059-.875.101-1.608.142-2.182a4.12 4.12 0 01.071-.822zm18.552 8.183a2.222 2.222 0 01-.473-.248l.071-.048c.373 1.325 1.425 5.647 2.62 10.778.733 3.128 1.371 5.96 1.821 8.017.212.988.384 1.81.52 2.436.076.297.125.6.148.905a5.694 5.694 0 01-.266-.875 134.12 134.12 0 01-.592-2.418 561.319 561.319 0 01-1.909-7.994c-1.183-5.132-2.164-9.459-2.413-10.831v-.106l.083.059c.142.093.273.202.39.325zm-18.552 58.425a2.671 2.671 0 01-.361.118l-1.058.284c-.923.242-2.271.556-3.944.863-1.966.361-3.952.6-5.947.715a27.618 27.618 0 01-7.32-.484 14.961 14.961 0 01-3.6-1.26 13.133 13.133 0 01-1.561-.94c-.46-.36-.89-.755-1.289-1.182a47.19 47.19 0 01-3.701-4.73 90.485 90.485 0 01-2.247-3.352l-.591-.928a2.115 2.115 0 01-.183-.337c.089.091.168.193.236.301.16.231.367.532.627.899.544.78 1.324 1.915 2.323 3.287a50.399 50.399 0 003.731 4.641c.386.416.805.799 1.253 1.147.485.341.995.646 1.526.911 1.124.561 2.316.975 3.547 1.229 2.38.483 4.813.654 7.237.509a53.565 53.565 0 005.912-.651 87.205 87.205 0 003.949-.762l1.071-.231c.127-.034.258-.049.39-.047z" fill="#093636"/><path opacity=".3" d="M134.355 133.903l1.567 7.443 1.277-.798-.733 1.774 16.016 29.047-2.081-6.634-12.469-23.596 1.975-1.578h-3.317l-2.235-5.658z" fill="#000"/><path d="M168.002 163.417c-.183.23-3.979 10.724-3.979 10.724l3.742-2.365s1.561 4.565 1.526 4.405c-.036-.16 2.926-11.387 2.926-11.387l-4.215-1.377zm6.947 1.483s2.808 10.607 2.885 10.489c.077-.118 1.525-3.471 1.525-3.471l3.625 2.3-3.82-10.801-4.215 1.483z" fill="#093636"/><path d="M173.506 166.107a9.135 9.135 0 100-18.27 9.135 9.135 0 000 18.27z" fill="#455A64"/><path d="M180.654 156.682a13.203 13.203 0 00-.278-1.732 7.161 7.161 0 00-2.607-3.866 7.017 7.017 0 00-6.646-.982 6.5 6.5 0 00-1.773.952 6.654 6.654 0 00-1.478 1.49 6.967 6.967 0 000 8.277 6.432 6.432 0 001.478 1.49 6.546 6.546 0 001.773.958 7.028 7.028 0 006.646-.988 7.093 7.093 0 002.607-3.86c.131-.571.224-1.15.278-1.733.017.152.017.304 0 .456.002.186-.012.372-.041.555-.025.254-.07.505-.136.751a7.13 7.13 0 01-2.59 4.009 7.22 7.22 0 01-6.876 1.076 7.102 7.102 0 01-1.85-.988 6.887 6.887 0 01-1.543-1.543 7.246 7.246 0 010-8.632 6.838 6.838 0 011.566-1.555 6.773 6.773 0 011.851-.987 7.25 7.25 0 013.825-.301 7.188 7.188 0 015.64 5.386c.066.246.112.497.136.751.029.181.043.365.042.549.009.156.001.313-.024.467z" fill="#093636"/><path opacity=".2" d="M175.652 148.092l-11.28 10.134.715 2.294 12.895-11.517a5.138 5.138 0 00-2.33-.911zm3.353 1.579c-.048-.036-13.185 12.238-13.185 12.238l.781 1.041c.029.029 13.214-12.588 13.214-12.588l-.81-.691z" fill="#fff"/><path d="M174.588 153.614v7.142h-1.655v-5.8h-1.431v-1.324l3.086-.018z" fill="#fff"/><path opacity=".3" d="M167.493 156.683c0-3.743 2.649-6.811 6.013-7.125h-.591c-3.636 0-6.581 3.199-6.581 7.148 0 3.95 2.957 7.148 6.581 7.148.195 0 .384 0 .591-.029-3.364-.337-6.013-3.406-6.013-7.142z" fill="#000"/><path opacity=".3" d="M178.969 66.314l1.685 59.548 32.115 9.489V66.314h-33.8z" fill="#fff"/><path d="M132.652 180.048c.065.053-4.931 6.143-11.162 13.598-6.232 7.455-11.334 13.45-11.399 13.397-.065-.053 4.931-6.143 11.162-13.598 6.232-7.455 11.334-13.45 11.399-13.397zm2.696-11.6c.059.053-5.392 6.279-12.179 13.9s-12.345 13.758-12.416 13.698c-.071-.059 5.386-6.278 12.174-13.899 6.787-7.621 12.356-13.758 12.421-13.699zm69.842-59.353c.065.053-5.971 6.923-13.486 15.33-7.514 8.407-13.651 15.189-13.71 15.159-.06-.029 5.971-6.953 13.485-15.372 7.515-8.419 13.646-15.176 13.711-15.117zm-90.15-43.042l.81 10.796a5.986 5.986 0 001.679 3.766c.247.252.507.491.78.716a6.68 6.68 0 003.695 1.495l7.887.668-8.596.852a3.493 3.493 0 00-1.721.668c-.195.148-.384.296-.591.455a8.368 8.368 0 00-2.838 5.593l-.591 6.391-.65-5.912a8.365 8.365 0 00-3.938-6.29l-.053-.036a3.344 3.344 0 00-1.437-.444l-9.465-.72 8.23-.764a6.614 6.614 0 004.256-2.051c.225-.243.444-.503.651-.769a5.963 5.963 0 001.182-3.257l.71-11.157zM90.397 93.209l.52 6.976a3.88 3.88 0 001.088 2.43c.16.165.327.321.503.467a4.36 4.36 0 002.365.964l5.096.431-5.54.55a2.24 2.24 0 00-1.111.432c-.13.094-.248.189-.367.289a5.413 5.413 0 00-1.832 3.613l-.39 4.138-.414-3.807a5.416 5.416 0 00-2.549-4.062h-.035a2.113 2.113 0 00-.928-.284l-6.15-.484 5.322-.491a4.277 4.277 0 002.75-1.324c.147-.16.289-.326.419-.497a3.82 3.82 0 00.774-2.105l.48-7.236z" fill="#fff"/><path d="M196.369 242.552h-74.087a3.193 3.193 0 00-3.192 3.193v12.404a3.193 3.193 0 003.192 3.193h74.087a3.194 3.194 0 003.193-3.193v-12.404a3.194 3.194 0 00-3.193-3.193z" fill="#C6E1F6"/><path opacity=".3" d="M156.414 242.552l-16.105 18.79h5.587l16.241-18.79h-5.723z" fill="#fff"/><path d="M144.175 249.464v.863h-3.606v-4.659h3.547v.863h-2.453v1.011h2.164v.828h-2.164v1.082l2.512.012zm5.097.863v-2.796l-1.372 2.305h-.485l-1.365-2.246v2.737h-1.011v-4.659h.892l1.774 2.897 1.72-2.897h.84v4.659h-.993zm6.16-2.968c0 1.035-.78 1.685-2.028 1.685h-.934v1.283h-1.082v-4.659h2.016c1.248 0 2.028.645 2.028 1.691zm-1.094 0c0-.514-.331-.816-.993-.816h-.875v1.62h.875c.662 0 .993-.301.993-.804zm1.839-1.691h1.076v3.778h2.365v.881h-3.441v-4.659zm3.666 2.33a2.554 2.554 0 112.548 2.406 2.416 2.416 0 01-2.351-1.453 2.402 2.402 0 01-.197-.953zm4.008 0a1.465 1.465 0 00-.921-1.328 1.46 1.46 0 10-.539 2.817 1.4 1.4 0 00.576-.098 1.41 1.41 0 00.896-1.391h-.012zm3.938.68v1.649h-1.082v-1.667l-1.803-2.992h1.147l1.241 2.07 1.248-2.07h1.058l-1.809 3.01zm5.824.786v.863H170v-4.659h3.548v.863h-2.472v1.011h2.164v.828h-2.164v1.082l2.537.012zm4.44 0v.863h-3.607v-4.659h3.518v.863h-2.448v1.011h2.164v.828h-2.164v1.082l2.537.012z" fill="#fff"/><path opacity=".3" d="M197.119 245.148a1.093 1.093 0 01-2.166.218 1.097 1.097 0 01.469-1.124c.18-.12.393-.183.61-.182a1.089 1.089 0 011.087 1.088zm0 13.137a1.093 1.093 0 01-2.166.218 1.097 1.097 0 01.469-1.124c.18-.12.393-.183.61-.182a1.089 1.089 0 011.087 1.088zm-74.364-12.871a1.091 1.091 0 01-.671 1.005 1.092 1.092 0 01-1.186-.236 1.089 1.089 0 01.769-1.857 1.087 1.087 0 011.088 1.088zm.379 12.871a1.084 1.084 0 01-.672 1.005 1.089 1.089 0 11.672-1.005z" fill="#000"/><path opacity=".3" d="M150.856 242.552l-16.489 18.79h-2.306l16.265-18.79h2.53z" fill="#fff"/><path d="M129.466 255.465a2.957 2.957 0 013.408-3.11 2.966 2.966 0 011.562.762 2.959 2.959 0 01-2.014 5.115 2.773 2.773 0 01-2.729-1.663 2.755 2.755 0 01-.227-1.104zm4.599 0a1.677 1.677 0 00-1.057-1.52 1.66 1.66 0 00-.963-.081 1.675 1.675 0 00-.579 3.03c.275.182.597.279.926.28a1.635 1.635 0 001.567-1.052c.08-.21.116-.433.106-.657zm3.418-1.697v1.413h2.477v.993h-2.477v1.951h-1.236v-5.35h4.044v.993h-2.808zm6.917.018h-1.715v-1.011h4.659v1.011h-1.708v4.339H144.4v-4.339zm8.514-1.011v5.35h-1.236v-2.193h-2.43v2.193h-1.236v-5.35h1.236v2.098h2.43v-2.11l1.236.012zm5.41 4.357v.993h-4.139v-5.35h4.038v.993h-2.808v1.182h2.483v.964h-2.483v1.236l2.909-.018zm8.01.993v-3.21l-1.572 2.643h-.562l-1.567-2.572v3.139h-1.182v-5.35h1.023l2.004 3.328 1.969-3.328h1.017v5.35h-1.13zm2.093-2.66a2.958 2.958 0 014.981-2.337 2.953 2.953 0 01.712 3.252 2.956 2.956 0 01-2.766 1.852 2.766 2.766 0 01-2.927-2.767zm4.6 0a1.677 1.677 0 00-1.057-1.52 1.663 1.663 0 00-.964-.081 1.668 1.668 0 00-1.194 2.285c.128.303.342.562.616.745.275.182.597.279.926.279a1.637 1.637 0 001.209-.489 1.628 1.628 0 00.464-1.219zm7.089-2.69v5.35h-1.017l-2.666-3.251v3.245h-1.224v-5.35h1.029l2.654 3.252v-3.252l1.224.006zm2.377 1.011h-1.715v-1.011h4.659v1.011h-1.709v4.339h-1.235v-4.339zm8.514-1.011v5.35h-1.236v-2.193h-2.43v2.193h-1.236v-5.35h1.236v2.098h2.43v-2.11l1.236.012zm-3.814-12.28l.242 3.205c.029.417.205.811.497 1.111.347.372.818.605 1.324.656l2.365.201-2.542.255a.997.997 0 00-.509.195l-.171.136a2.476 2.476 0 00-.84 1.655l-.177 1.898-.195-1.774a2.472 2.472 0 00-1.182-1.862.99.99 0 00-.426-.13l-2.82-.225 2.436-.225a1.985 1.985 0 001.265-.591l.189-.23c.213-.278.337-.614.355-.964l.189-3.311z" fill="#fff"/></svg>