<svg width="320" height="322" fill="none" xmlns="http://www.w3.org/2000/svg"><path fill-rule="evenodd" clip-rule="evenodd" d="M109.967 266.464c-25.739-4.317-59.696 2.901-73.048-21.496-13.428-24.535 9.634-57.969 13.035-88.157 3.05-27.076-8.081-55.866 5.83-79.28 14.092-23.718 40.73-33.159 64.709-39.442 21.843-5.724 42.207 1.872 63.551 5.832 24.907 4.621 52.746 1.262 71.442 19.215 21.141 20.302 35.869 50.658 35.552 83.529-.323 33.529-14.486 68.613-37.249 92.535-21.097 22.171-50.961 23.795-78.391 28.995-22.452 4.256-43.556 1.938-65.431-1.731z" fill="#E1E5F0"/><path d="M129.962 208.571c3.289-16.578 6.598-33.259 6.99-50.156.134-6.113-.618-13.206-5.711-16.578-2.598-1.711-5.815-2.061-8.908-2.34-3.093-.278-6.495-.464-9.278 1.031-3.093 1.681-4.866 5.155-6.114 8.464-2.691 7.217-4.031 15.062-7.99 21.65-3.783 6.32-9.825 11.341-12.093 18.382-2.268 7.041-.154 14.897 4.485 20.547 4.64 5.649 11.557 9.124 18.732 10.557 4.423.876 9.279.969 13.186-1.248 4.444-2.515 5.897-5.062 6.691-10.309" fill="#455A64"/><path d="M116.56 143.807c-.32.165-1.371-1.031-2.526-3.403a28.427 28.427 0 01-.866-1.948c-.134-.351-.278-.722-.412-1.103a4.307 4.307 0 01-.34-1.598 2.3 2.3 0 01.443-1.278c.235-.316.534-.58.876-.774a8.77 8.77 0 011.474-.618c.999-.34 2.04-.542 3.093-.598a7.682 7.682 0 013.31.474 5.6 5.6 0 012.577 2.062 7.588 7.588 0 011.186 4.918 10.454 10.454 0 01-.732 3.092c-.279.67-.526 1.031-.712 1.031-.185 0-.278-.453-.319-1.165-.042-.711 0-1.732-.134-2.886a6.549 6.549 0 00-1.289-3.464 3.354 3.354 0 00-1.516-1.083 5.805 5.805 0 00-2.226-.247 11.26 11.26 0 00-2.444.422 7.973 7.973 0 00-1.031.351l-.103.062-.124-.103c-.072 0-.134-.072-.082 0h.227c-.003.27.043.539.134.794.082.371.175.732.258 1.092l.525 1.949c.67 2.33 1.093 3.835.753 4.021z" fill="#455A64"/><path d="M110.787 220.623a5.357 5.357 0 01-.495-.712 12.315 12.315 0 01-1.175-2.165 17.912 17.912 0 01-1.031-8.959c.371-3.856 2.062-8.175 4-12.804a70.76 70.76 0 002.752-7.392 45 45 0 001.567-8.248c.423-5.444.451-10.912.083-16.361-.217-5.041-.485-9.588-.258-13.402a17.53 17.53 0 012.485-8.66 9.762 9.762 0 011.618-1.866c.218-.188.449-.36.691-.516a13.343 13.343 0 00-2.134 2.495 17.789 17.789 0 00-2.278 8.567c-.176 3.794.123 8.341.371 13.403.412 5.47.412 10.963 0 16.433a45.452 45.452 0 01-1.598 8.392 73.443 73.443 0 01-2.794 7.433c-2 4.619-3.67 8.866-4.124 12.65a18.038 18.038 0 00.866 8.835c.401.999.888 1.961 1.454 2.877z" fill="#093636"/><path d="M112.859 194.21c-.083.134-5.072-2.619-11.155-6.135-6.083-3.515-10.949-6.474-10.876-6.598.072-.123 5.072 2.619 11.154 6.135 6.083 3.515 10.949 6.525 10.877 6.598z" fill="#093636"/><path d="M117.313 139.353s-.64.381-1.712 1.165a14.811 14.811 0 00-3.763 4.124 19.397 19.397 0 00-2.577 7.742 85.125 85.125 0 00-.516 10.196 60.588 60.588 0 01-.907 10.238 53.473 53.473 0 01-2.124 8.124 47.144 47.144 0 01-2.154 5.237c-.279.608-.526 1.031-.701 1.371-.176.34-.258.464-.279.454.229-.651.494-1.287.794-1.908a64.527 64.527 0 001.98-5.268 57.718 57.718 0 002-8.093c.558-3.36.844-6.759.855-10.165-.03-3.428.159-6.854.567-10.258a19.159 19.159 0 012.794-7.918 14.233 14.233 0 013.969-4.051c.428-.286.872-.548 1.33-.784.137-.091.286-.161.444-.206z" fill="#fff"/><path d="M182.84 141.559l13.227 5.609 10.784-25.712 9.845 1.835s-5.155 29.99-6.68 34.877c-2 6.361-10.897 10.309-16.434 7.876-5.536-2.433-17.804-6.608-17.804-6.608l7.062-17.877z" fill="#FFBE9D"/><path d="M171.685 131.425l18 11.99-4.887 23.32-10.536-5.103-2.577-30.207z" fill="#C5CBF1"/><path opacity=".3" d="M172.231 133.816a240.092 240.092 0 004.887 29.393l.443-.083a36.27 36.27 0 00-5.33-29.31z" fill="#000"/><path d="M145.396 118.188a2.056 2.056 0 00-2.155-.505c-3.093.649-5.227 3.247-7 5.794a77.106 77.106 0 00-12.547 29.495l-.227 1.103a11.871 11.871 0 003.825 3.846c1.629.835 3.887.732 4.99-.722a6.05 6.05 0 00.835-3.495 69.723 69.723 0 012.526-17.392 35.889 35.889 0 018.67-15.145c.825-.814 1.753-2.041 1.083-2.979z" fill="#455A64"/><path d="M155.313 63.083c.258-1.835 2.382-3.918 4-4.825a12.376 12.376 0 015.33-1.371 26.21 26.21 0 0123.929 12.949 9.951 9.951 0 011.588 5.67c-.196 1.98-1.64 3.959-3.619 4.124a4.254 4.254 0 011.505 4.118 4.262 4.262 0 01-2.928 3.263c.547 2.774-1.33 5.444-3.381 7.392-7.99 7.588-19.939 9.887-30.836 8.248-3.722-.557-7.536-1.619-10.31-4.124-4-3.722-4.845-9.68-4.969-15.134a2.371 2.371 0 01-3.175 1.03 3.26 3.26 0 01-1.588-3.155 5.371 5.371 0 011.67-3.257 6.009 6.009 0 01-2.495.103 2.064 2.064 0 01-1.639-1.68 2.285 2.285 0 011.279-1.99c.721-.412 1.546-.629 2.278-1.03 2.711-1.486 3.382-4.98 4.907-7.671a11.788 11.788 0 0113.873-5.38 11.79 11.79 0 014.561 2.74" fill="#093636"/><path d="M182.458 81.331c-.34-7.34-8.113-14.794-15.464-14.145L143.22 71.31v3.949l.629 48.867s1.763 15.794 15.073 15.124c11.959-.609 11.516-13.238 11.516-13.248l-.207-9.217s9.66-.216 11.805-12.371c1.144-6.155.814-14.928.422-23.083z" fill="#FFBE9D"/><path d="M179.18 90.166a1.578 1.578 0 01-1.536 1.557 1.517 1.517 0 01-1.598-1.443 1.578 1.578 0 011.536-1.557 1.517 1.517 0 011.598 1.443zm1.031-3.247c-.196.206-1.371-.691-3.093-.722-1.722-.031-2.938.804-3.093.588-.154-.217.124-.454.67-.835a4.23 4.23 0 012.495-.722 4.123 4.123 0 012.433.825c.516.412.691.793.588.866zm-16.124 3.65a1.574 1.574 0 01-1.536 1.556 1.517 1.517 0 01-1.598-1.443 1.578 1.578 0 011.536-1.557 1.517 1.517 0 011.598 1.444zm-.186-3.372c-.206.196-1.371-.701-3.093-.722-1.721-.02-2.938.794-3.093.588-.154-.206.114-.464.66-.845a4.301 4.301 0 012.495-.722 4.122 4.122 0 012.433.825c.516.412.681.783.598.876zm5.65 11.949a12.94 12.94 0 012.752-.392c.433 0 .846-.103.918-.35.072-.248-.062-.66-.258-1.031l-1.206-2.794c-1.67-3.97-2.866-7.217-2.67-7.3.196-.082 1.691 3.094 3.361 7.094.402.979.783 1.917 1.154 2.804.251.437.317.956.186 1.443a1.03 1.03 0 01-.722.526c-.241.046-.486.07-.732.072a13.08 13.08 0 01-2.783-.072z" fill="#093636"/><path d="M170.375 116.816a31.09 31.09 0 01-16.289-4.639s4.124 8.536 16.351 7.598l-.062-2.959z" fill="#FFBE9D"/><path d="M165.004 102.611c.279 0 .248 1.825 1.794 3.093 1.547 1.268 3.495 1.165 3.505 1.423.011.258-.443.34-1.268.35a4.613 4.613 0 01-2.928-1.031 4 4 0 01-1.381-2.639c-.062-.752.206-1.206.278-1.196zm-.567-19.125c-.237.587-1.876.123-3.876.226-2 .103-3.67.64-3.876.073-.083-.279.247-.815.958-1.33a5.446 5.446 0 012.969-1.031 4.959 4.959 0 012.928.794c.681.474 1 .99.897 1.268zm15.836-.155c-.351.577-1.897.083-3.722.155s-3.33.567-3.722 0c-.175-.279 0-.846.681-1.423a4.875 4.875 0 016-.124c.68.536.887 1.103.763 1.392z" fill="#093636"/><path d="M144.138 89.496c-.227-.093-9.33-2.567-8.866 6.66.464 9.227 9.639 6.856 9.639 6.588 0-.268-.773-13.248-.773-13.248z" fill="#FFBE9D"/><path d="M142.725 99.373s-.154.123-.412.257a1.587 1.587 0 01-1.206.083c-1.031-.299-1.887-1.814-2.062-3.474a5.456 5.456 0 01.33-2.32 1.85 1.85 0 011.155-1.299.834.834 0 01.969.392c.134.257.082.443.134.453.051.01.196-.165.092-.536a1.03 1.03 0 00-.391-.567 1.228 1.228 0 00-.897-.185 2.259 2.259 0 00-1.609 1.516 5.469 5.469 0 00-.422 2.597c.154 1.856 1.196 3.547 2.546 3.866a1.7 1.7 0 001.454-.32c.319-.236.361-.453.319-.463z" fill="#FFBE9D"/><path d="M182.52 71.877a11.003 11.003 0 00-7.041-4.98 32.899 32.899 0 00-8.835-.618l-25.166 2.279-.732 19.99 2.186 3.237 1.938 2.062c2.515-.825 5.155-4.062 5.371-7.96a8.54 8.54 0 006.186-4.422 11.276 11.276 0 001.031-7.629 8.458 8.458 0 004.618 4.732 5.426 5.426 0 002.64.444 4.214 4.214 0 002.932-2.151 4.214 4.214 0 00.161-3.633 17.462 17.462 0 008.082 5.732c1.918.66 4.217.907 5.846-.32 1.928-1.525 1.969-4.598.783-6.763z" fill="#093636"/><path d="M143.829 116.816l26.877 10.103s4.257 15.197 5.299 21.65c1.618 9.949 2.381 80.538 2.381 80.538s-52.805-5.412-52.805-9.495c0-4.082 2.618-10.103 2.618-10.103s-2.061-.567-.35-7.031c1.711-6.464 2.392-39.939 2.392-39.939s.319-22.516 3.093-29.661c2.773-7.144 10.495-16.062 10.495-16.062z" fill="#C5CBF1"/><path d="M171.231 128.157c.252.554.462 1.126.629 1.711.371 1.114.887 2.732 1.454 4.763a104.63 104.63 0 013.258 16.083c.623 5.438.922 10.908.897 16.382 0 2.062 0 3.794-.072 4.969.01.611-.031 1.221-.124 1.825a10.71 10.71 0 01-.093-1.825c0-1.258 0-2.938-.093-4.959-.093-4.196-.288-9.99-1.031-16.33a117.718 117.718 0 00-3.093-16.052c-.515-2.062-.969-3.66-1.288-4.794a10.623 10.623 0 01-.444-1.773z" fill="#093636"/><path d="M206.088 122.497s-3.98-5.217-3.949-7.33l1.639-12.279s1.031-1.134 2.258.856c1.227 1.99 0 4.763 0 4.763l.701 2.887 1.485-2.186 1.69-8.248s1.031-5.928 2.001-5.31c.969.62 1.175 2.341.711 4.898l-1.031 5.804s-.124 1.031.835-.68c.959-1.712 2-8.856 2.361-9.825.361-.97.515-3.516 1.969-3.371 1.454.144.608 3.391.608 3.391l-1.422 10.64s1.371-4.248 1.628-4.969c.258-.722.66-3.093 1.155-4.32.495-1.227 1.227-1.918 1.876-1.835a1.217 1.217 0 011.145 1.206l-2.165 9.042s-1.206 4.123-1.124 4.381c.083.258 1.598-1.722 1.598-1.722l1.165-2.928s.969-4.123 2.062-4.278c1.093-.155 1.155.732 1.155.732l-1.774 7.567-3.371 8.609-3.186 6.505s-4.443-.691-4.608-.464c-.165.227-5.412-1.536-5.412-1.536z" fill="#FFBE9D"/><path d="M213.964 118.878a12.956 12.956 0 01-.917-1.907 6.64 6.64 0 00-3.289-3.505 3.544 3.544 0 00-2.33-.186l-.258.083-.062-.289c-.288-1.258-.68-2.423-.866-3.217a3.094 3.094 0 01-.206-1.309c.207.387.373.795.495 1.217a34.098 34.098 0 011.031 3.247l-.32-.206a3.932 3.932 0 012.67.155 5.469 5.469 0 012.31 1.793 8.742 8.742 0 011.134 2.062c.321.647.527 1.345.608 2.062z" fill="#FFBE9D"/><path d="M156.757 191.571l-32.166 22.66-1.093-7.815 33.259-26.413v11.568z" fill="#455A64"/><path d="M127.437 141.869a28.352 28.352 0 0126.979-13.877c4.124.423 8.248 1.897 11.001 4.949 2.752 3.051 3.773 7.216 4.33 11.34a68.143 68.143 0 01-11.495 47.743 8.633 8.633 0 01-3.351 3.238c-1.443.618-3.423.278-4.124-1.124a76.9 76.9 0 0011.939-43.929c-.165-4.412-.887-9.186-4.031-12.289-2.681-2.639-4.774-3.278-8.537-3.392-4.742-.134-9.01 2.464-13.186 6.475-3.422 3.288-7.536 10.742-8.556 15.371" fill="#455A64"/><path d="M141.344 129.909a36.354 36.354 0 01-3.165 2.062 71.909 71.909 0 00-7.309 5.268 74.383 74.383 0 00-6.578 6.186c-1.577 1.681-2.505 2.773-2.567 2.722.144-.307.331-.592.557-.845.381-.526.969-1.248 1.732-2.124a55.332 55.332 0 016.515-6.32 54.12 54.12 0 017.454-5.155c1.031-.587 1.835-1.031 2.423-1.299.289-.205.605-.372.938-.495zm3.897 4.434c0 .072-1.206.958-3.144 2.525a66.573 66.573 0 00-7.083 6.671 65.466 65.466 0 00-5.98 7.66c-1.381 2.061-2.154 3.412-2.226 3.371.094-.364.244-.712.443-1.031.309-.629.804-1.505 1.464-2.578a52.512 52.512 0 015.907-7.814 53.678 53.678 0 017.217-6.609c1.031-.752 1.835-1.329 2.433-1.69a4.01 4.01 0 01.969-.505z" fill="#093636"/><path opacity=".3" d="M164.458 170.426c-2.763-2.815-10.042 1.144-13.712-.32a187.312 187.312 0 000 56.187l4.289-.279c2.371-3.762 3.093-8.319 3.711-12.721 1.54-10.557 3.083-21.111 4.629-31.661.444-3.031 3.196-9.093 1.083-11.206z" fill="#000"/><path d="M176.458 223.417h-50.867v36.66h50.867v-36.66z" fill="#455A64"/><path d="M139.622 223.478a78.039 78.039 0 01-6.856 6.042 77.688 77.688 0 01-7.216 5.629 76.968 76.968 0 016.845-6.042 79.52 79.52 0 017.227-5.629zm8.516.001c.093.113-4.825 4.804-11 10.484-6.176 5.681-11.258 10.196-11.341 10.083-.082-.113 4.825-4.794 11.001-10.474 6.175-5.681 11.237-10.197 11.34-10.093zm11.361-.062c.103.113-7.413 7.216-16.784 15.804-9.371 8.588-17.042 15.464-17.145 15.403-.103-.062 7.413-7.217 16.784-15.795 9.372-8.577 17.042-15.515 17.145-15.412zm11.526.062c.103.113-8.722 8.402-19.712 18.557-10.99 10.154-19.99 18.165-20.083 18.082-.093-.082 8.722-8.391 19.722-18.557 11.001-10.165 19.98-18.186 20.073-18.082zm5.433 6.742c.103.113-7.134 6.928-16.165 15.237-9.031 8.31-16.423 14.949-16.495 14.836-.072-.114 7.134-6.928 16.165-15.238 9.031-8.309 16.392-14.969 16.495-14.835zm-.01 10.845c.103.114-4.505 4.516-10.31 9.825-5.804 5.31-10.546 9.537-10.639 9.423-.093-.113 4.495-4.505 10.309-9.814 5.815-5.31 10.537-9.537 10.64-9.434zm-.052 9.145a50.178 50.178 0 01-5.041 5.227 49.166 49.166 0 01-5.413 4.856 48.435 48.435 0 015.042-5.237 48.397 48.397 0 015.412-4.846z" fill="#fff"/><path d="M146.828 223.478a5.85 5.85 0 01-.216 1.238 9.714 9.714 0 01-.371 1.412 18.02 18.02 0 01-.639 1.835 26.596 26.596 0 01-2.289 4.516 31.553 31.553 0 01-3.877 4.845 30.545 30.545 0 01-4.845 3.876 27.353 27.353 0 01-4.516 2.289 17.64 17.64 0 01-1.835.629c-.462.157-.934.285-1.412.382-.404.11-.819.179-1.237.206 0-.114 1.722-.454 4.34-1.567a28.908 28.908 0 004.392-2.361 32.457 32.457 0 004.732-3.835 33.076 33.076 0 003.845-4.732 28.678 28.678 0 002.351-4.392c1.124-2.619 1.464-4.361 1.577-4.341zm29.816 21.269a5.186 5.186 0 01-1.299.052 17.754 17.754 0 01-3.495-.485 19.593 19.593 0 01-14.98-16.155 16.896 16.896 0 01-.206-3.516 5.226 5.226 0 01.144-1.288c.045 1.588.189 3.172.433 4.742a20.054 20.054 0 0014.702 15.897c1.549.348 3.119.6 4.701.753z" fill="#093636"/><path d="M153.21 240.891l6.835 7.557 2.207 9.423s-1.361 1.825-2.846-.474c0 0 .32 7.763-.433 8.196-.753.433-3.196.103-3.35-1.815a3.194 3.194 0 01-2.392 1.382c-1.495 0-2.062-.846-2.237-2.66 0 0-1.382 1.701-2.557 1.031a3.145 3.145 0 01-1.382-2.124s-2.123.639-2.66-.423a19.063 19.063 0 01-1.278-5.536v-6.495l-.34-4.124 10.433-3.938z" fill="#FFBE9D"/><path d="M155.519 257.943a9.599 9.599 0 00-.175 2.928 9.274 9.274 0 00.279 2.907 9.528 9.528 0 00.175-2.917 9.052 9.052 0 00-.279-2.918zm-4.649-.206a11.93 11.93 0 000 4.68 5.895 5.895 0 00.216-2.34 6.268 6.268 0 00-.216-2.34zm-3.897-.268a6.035 6.035 0 000 1.989 8.807 8.807 0 00.083 1.98c.343-.607.477-1.31.381-2a3.717 3.717 0 00-.464-1.969zm12.536-5.351a11.571 11.571 0 00-.237 2.876c-.11.957-.09 1.925.062 2.877a7.84 7.84 0 00.444-2.908 7.99 7.99 0 00-.269-2.845zm-16.732-7.258s-4.516-37.794-4.124-43.526c.454-5.97 2.062-27.218 2.062-27.218h19.372l-4.279 29.403-.577 40.805-12.454.536z" fill="#FFBE9D"/><path d="M154.19 132.126c-1.093-.289-10.918-.144-13.176 8.742-2.495 9.784-2.319 33.063-2.319 33.063h27.093l-1.33-29.279a14.435 14.435 0 00-6.134-11.34c-1.175-.743-2.732-.815-4.134-1.186z" fill="#C5CBF1"/><path d="M157.107 132.61l.196.093.577.32c.716.433 1.386.937 2 1.505a14.654 14.654 0 014.495 8.041c.193 1.021.3 2.055.32 3.093.062 1.031.113 2.206.175 3.371.114 2.33.237 4.836.361 7.485.247 5.289.526 11.155.814 17.392v.279h-27.619v-.248c0-9.742.475-18.041 1.031-23.887.299-2.918.65-5.227.949-6.794.134-.783.299-1.381.391-1.783.035-.206.094-.407.176-.598a4.608 4.608 0 01-.093.618c-.062.413-.206 1.031-.32 1.794-.247 1.567-.536 3.876-.793 6.794-.495 5.835-.856 14.134-.866 23.856l-.248-.247h27.093l-.268.278c-.268-6.237-.525-12.103-.752-17.392-.114-2.65-.217-5.155-.32-7.485 0-1.165-.093-2.299-.134-3.371a19.102 19.102 0 00-.288-3.093 14.7 14.7 0 00-4.269-7.969 20.262 20.262 0 00-2.608-2.052z" fill="#093636"/></svg>