<svg width="920" height="697" fill="none" xmlns="http://www.w3.org/2000/svg"><path fill-rule="evenodd" clip-rule="evenodd" d="M913.508 383.179c2.206 85.118-36.966 99.73-129.383 153.917-59.742 35.029-101.915 81.406-171.061 105.769-76.877 27.088-162.302 57.82-243.614 40.341-81.263-17.467-114.822-83.199-170.01-129.251-60.143-50.186-142.981-88.011-167.194-152.129C4.059 327.184-19.796 230.883 56.4 175.169c77.908-56.966 218.087 2.503 321.586-26.145C486.988 118.854 548.392-16.433 658.99 8.378c111.272 24.962 46.562 163.771 117.393 230.02 71.89 67.24 134.914 59.491 137.125 144.781z" fill="#E1F0EE"/></svg>