<svg width="709" height="684" fill="none" xmlns="http://www.w3.org/2000/svg"><path fill-rule="evenodd" clip-rule="evenodd" d="M708.509 378.179c2.206 85.118-36.967 99.73-129.383 153.917-59.742 35.029-101.916 81.406-171.061 105.769-76.878 27.088-162.302 57.82-243.614 40.341-81.263-17.467-114.822-83.199-170.01-129.251-60.144-50.186-142.981-88.011-167.194-152.129-28.187-74.642-52.042-170.943 24.153-226.657 77.909-56.966 218.088 2.503 321.587-26.145C281.989 113.854 343.393-21.433 453.991 3.378c111.272 24.962 46.561 163.771 117.393 230.02 71.889 67.24 134.914 59.491 137.125 144.781z" fill="#E1F0EE"/></svg>