<svg width="1366" height="629" fill="none" xmlns="http://www.w3.org/2000/svg"><path fill-rule="evenodd" clip-rule="evenodd" d="M983.832 12.046C663.001 4.956 62.159-16.048-205.14 22.84c-269.68 39.233-320.11 114.639-372.104 183.854-46.692 62.155 85.479 120.107 158.23 181.088 79.034 66.248-84.964 151.643 144.444 198.92 239.386 49.333 828.195 46.401 1155.994 36.142 309.266-9.68 408.936-58.629 665.306-97.138 263.73-39.615 346.74 10.728 442.17-55.425 95.5-66.201 130.12-187.686 0-251.089-113.64-55.367-166.86-118.195-383.61-156.713-224.09-39.821-332.51-44.047-621.458-50.432z" fill="url(#paint0_linear_560_10)"/><defs><linearGradient id="paint0_linear_560_10" x1="743.5" y1="0" x2="743.5" y2="629" gradientUnits="userSpaceOnUse"><stop stop-color="#C6E1F6"/><stop offset="1" stop-color="#E1F0EE"/></linearGradient></defs></svg>