<svg width="911" height="665" viewBox="0 0 911 665" fill="none" xmlns="http://www.w3.org/2000/svg">
<path fill-rule="evenodd" clip-rule="evenodd" d="M478.744 8.30715C547.517 20.6917 594.95 76.5512 657.72 107.262C740.005 147.52 868.387 130.928 902.854 215.806C936.681 299.106 845.392 380.355 800.173 458.061C764.904 518.668 728.765 578.669 669.701 616.462C613.081 652.692 545.683 669.861 478.744 663.735C415.683 657.964 371.353 604.644 311.595 583.69C213.929 549.443 76.2874 589.443 19.7113 502.774C-33.6375 421.049 33.6286 310.673 75.9737 222.74C113.724 144.35 169.092 73.9862 245.889 33.0997C316.519 -4.50336 399.995 -5.87381 478.744 8.30715Z" fill="#E1F0EE"/>
</svg>
