<svg width="659" height="665" fill="none" xmlns="http://www.w3.org/2000/svg"><path fill-rule="evenodd" clip-rule="evenodd" d="M478.744 8.307c68.773 12.385 116.206 68.244 178.976 98.955 82.285 40.258 210.667 23.666 245.134 108.544 33.827 83.3-57.462 164.549-102.681 242.255-35.269 60.607-71.408 120.608-130.472 158.401-56.62 36.23-124.018 53.399-190.957 47.273-63.061-5.771-107.391-59.091-167.149-80.045-97.666-34.247-235.308 5.753-291.884-80.916-53.349-81.726 13.918-192.101 56.263-280.034 37.75-78.39 93.118-148.754 169.915-189.64C316.519-4.503 399.995-5.874 478.744 8.307z" fill="#E1F0EE"/></svg>