<svg width="83" height="88" fill="none" xmlns="http://www.w3.org/2000/svg"><path fill-rule="evenodd" clip-rule="evenodd" d="M49.155 1.912c-9.84-.978-28.268-3.876-36.466 1.49C4.418 8.815 2.871 19.22 1.277 28.772-.156 37.347 3.898 45.344 6.129 53.76c2.424 9.141-2.605 20.925 4.43 27.449 7.343 6.807 25.402 6.403 35.455 4.987 9.485-1.336 12.542-8.09 20.405-13.404 8.09-5.467 10.635 1.48 13.562-7.648 2.929-9.135 3.99-25.899 0-34.648-3.485-7.64-5.118-16.31-11.766-21.625-6.873-5.495-10.198-6.078-19.06-6.959z" fill="#C6E1F6"/><g clip-path="url(#clip0_639_45)"><path d="M42.432 11.91C25.26 11.91 11.34 25.828 11.34 43s13.92 31.091 31.09 31.091c17.172 0 31.092-13.92 31.092-31.09 0-17.172-13.92-31.092-31.091-31.092z" fill="#40B3E0"/><path d="M57.56 29.794l-5.553 27.998s-.777 1.942-2.913 1.01L36.28 48.977l-4.66-2.252-7.844-2.64s-1.204-.428-1.32-1.36c-.117-.932 1.359-1.436 1.359-1.436l31.182-12.233s2.563-1.126 2.563.738" fill="#fff"/><path d="M35.295 57.477s-.374-.035-.84-1.51c-.466-1.476-2.835-9.243-2.835-9.243l18.834-11.96s1.087-.66 1.048 0c0 0 .194.117-.388.66-.582.544-14.795 13.32-14.795 13.32" fill="#D2E5F1"/><path d="M41.193 52.744l-5.068 4.621s-.397.301-.83.113l.97-8.584" fill="#B5CFE4"/></g><defs><clipPath id="clip0_639_45"><path fill="#fff" transform="translate(11.34 11.91)" d="M0 0h62.182v62.182H0z"/></clipPath></defs></svg>