<svg width="753" height="613" fill="none" xmlns="http://www.w3.org/2000/svg"><path fill-rule="evenodd" clip-rule="evenodd" d="M871.928 209.689c34.017 69.948 92.072 155.984 29.57 222.223-64.684 68.551-204.401 34.499-304.396 69.036-81.518 28.155-133.897 111.142-219.834 112.026-86.195.887-130.481-67.863-193.104-107.779C117.938 462.982 6.134 441.477.779 373c-5.407-69.134 111.995-114.258 159.115-178.115 43.795-59.349 29.11-145.055 105.695-180.75 76.482-35.644 163.343 6.947 246.276 16.71 74.257 8.742 151.818 7.066 212.744 37.328 68.146 33.848 118.751 82.77 147.319 141.516z" fill="#FFEEF2"/></svg>