<svg width="1015" height="775" viewBox="0 0 1015 775" fill="none" xmlns="http://www.w3.org/2000/svg">
<path fill-rule="evenodd" clip-rule="evenodd" d="M928.333 308.689C962.35 378.637 1020.4 464.673 957.903 530.912C893.219 599.463 753.501 565.411 653.507 599.948C571.989 628.103 519.61 711.091 433.673 711.974C347.478 712.861 303.192 644.111 240.569 604.195C174.343 561.982 62.5392 540.477 57.1835 472C51.7765 402.866 169.179 357.742 216.299 293.885C260.094 234.536 245.409 148.83 321.994 113.136C398.476 77.4908 485.337 120.082 568.27 129.845C642.527 138.587 720.088 136.911 781.014 167.173C849.16 201.021 899.765 249.943 928.333 308.689Z" fill="#FFEEF2"/>
</svg>
