<svg width="41" height="41" fill="none" xmlns="http://www.w3.org/2000/svg"><path d="M20.203 0C9.086 0 .073 9.014.073 20.13c0 11.117 9.013 20.13 20.13 20.13 11.116 0 20.13-9.013 20.13-20.13C40.333 9.014 31.319 0 20.203 0zm9.674 15.174c.013.211.013.431.013.647 0 6.597-5.023 14.195-14.203 14.195a14.15 14.15 0 01-7.666-2.238c.404.045.79.063 1.204.063 2.337 0 4.485-.79 6.197-2.13a4.992 4.992 0 01-4.665-3.46c.769.113 1.46.113 2.252-.09a4.988 4.988 0 01-3.995-4.897V17.2c.66.373 1.438.602 2.251.633a4.993 4.993 0 01-2.224-4.152c0-.93.243-1.779.679-2.516a14.168 14.168 0 0010.29 5.217c-.706-3.393 1.828-6.138 4.875-6.138a4.98 4.98 0 013.644 1.573 9.86 9.86 0 003.168-1.2 4.967 4.967 0 01-2.193 2.745 9.87 9.87 0 002.876-.777 10.46 10.46 0 01-2.503 2.588z" fill="#00325A"/></svg>