<svg width="82" height="88" fill="none" xmlns="http://www.w3.org/2000/svg"><path fill-rule="evenodd" clip-rule="evenodd" d="M48.519 2.616c-9.84-.978-28.268-3.876-36.466 1.49C3.782 9.519 2.235 19.925.64 29.476c-1.432 8.576 2.622 16.573 4.853 24.988 2.424 9.141-2.606 20.925 4.43 27.449 7.342 6.807 25.401 6.403 35.455 4.987 9.485-1.336 12.542-8.09 20.405-13.404 8.089-5.467 10.635 1.48 13.561-7.648 2.93-9.135 3.992-25.899 0-34.648-3.485-7.64-5.117-16.31-11.765-21.625-6.873-5.495-10.198-6.078-19.06-6.959z" fill="#C5CBF1"/><path d="M16.618 40.524V45.3c0 .655.335 1.326.502 1.955.375 1.406.31 2.963.53 4.398.158 1.024.49 2.07.601 3.072.033.294.316.695.433.978.202.49.388 1.066.642 1.529.294.533.584 1.357 1.118 1.696.475.303.977.738 1.382 1.131.506.492 1.266 1.467 1.955 1.697 1.057.352 2.178.4 3.212.887.599.282 1.672.43 2.066.977.804 1.117.42 2.361.377 3.645-.036 1.096 0 2.198 0 3.295 0 .838.131 1.802-.007 2.632-.018.109-.37.932-.37.608 0-.73 1.197-1.28 1.64-1.725.248-.248.61-.4.804-.705.203-.32.183-.69.447-1.033.386-.504.767-.82 1.186-1.278.384-.419.966-.911 1.425-1.264.255-.196 1.106-.956 1.159-1.257.004-.024.525-.6.572-.628.273-.155.643-.53.88-.754.447-.423 1.3-.293 1.892-.447.95-.246 1.861-.108 2.82-.188 2.212-.184 4.373-.622 6.592-.622 1.443 0 2.746-.402 4.154-.6 1.017-.143 2.16-.47 3.114-.852a33.25 33.25 0 003.156-1.431c.89-.469 1.373-1.267 1.773-2.171.732-1.66 1.276-3.43 2.073-5.055.07-.142.87-1.925 1.027-1.02.206 1.191.047 2.112-.335 3.205-.12.34-.24.734-.322 1.082-.096.41-.358.182-.558.461-.123.17-.314.312-.419.475-.536.834.913-1.763 1.306-2.674.459-1.065.98-2.09 1.305-3.205.263-.898.433-1.818.747-2.702.339-.953.367-1.913.384-2.911.02-1.144.243-2.337.384-3.47.275-2.2.078-4.404-.481-6.528-.19-.717-.814-1.459-.901-2.2-.088-.744-.433-1.532-.705-2.227-.914-2.334-1.253-4.788-3.198-6.625-1.64-1.55-4.06-1.658-6.088-2.395-.413-.15-.721-.445-1.131-.629-.87-.389-1.786-.526-2.71-.69-1.21-.217-2.471-.164-3.686-.413-.852-.174-1.853-.405-2.722-.405-2.306 0-4.6-.251-6.912-.251-2.706 0-5.427.245-8.057.922-1.188.305-3.282.76-4.162 1.843-.42.518-1.005 1.033-1.48 1.508-.59.59-1.107 1.217-1.634 1.822-.946 1.088-2.301 2.116-2.897 3.407-1.294 2.805-1.162 6.153-2.004 9.097" stroke="#7360F2" stroke-width="3.886" stroke-linecap="round"/><path d="M34.212 33.486c-1.559 1.309-3.133 2.549-4.524 4.022-.4.423-.655.998-.755 1.57-.282 1.626-1.329 3.405-2.646 4.392-.897.673-2.247 2.09-2.939.517-.474-1.077-.152-2.135.244-3.149.303-.774.566-1.54.566-2.38 0-1.27.487-2.254 1.194-3.275.466-.674.917-1.339 1.382-2.01a6.92 6.92 0 01.691-.818c.238-.25.618-.513.803-.76.315-.42.975-.585 1.487-.748.803-.254 1.565-.666 2.374-.886.485-.133.988-.245 1.467-.398.607-.196.897-.429-.056-.273-.98.16-2.072.775-3.107.545-.979-.218 1.128-1.13 1.263-1.194.617-.288 1.306-.414 1.983-.433.904-.025 1.792-.251 2.695-.251 1.51 0 3.004-.051 4.51-.133 1.75-.094 3.563-.261 5.307.007 2.029.312 4.156.403 6.08 1.187 1.042.424 1.993.851 2.591 1.885.346.598.697 1.245 1.068 1.822.305.475.344.906.566 1.39.468 1.018.53 2.246.935 3.295.394 1.018.95 2.276.95 3.365 0 2.475.014 5.353-1.327 7.513-.098.158-.141.351-.181.53-.061.277-.264.35-.37.58-.21.456-.498.85-.761 1.278-.474.77-.457 1.833-.852 2.667-.71 1.5-2.296 1.779-3.798 2.164-1.627.417-3.404.664-5.083.824-1.137.108-2.28.471-3.407.523-.778.037-1.437.083-2.192.287-1.086.293-2.097.228-3.142.698a4.632 4.632 0 00-1.48 1.061c-.339.376-.457 1.06-.81 1.452-.263.293-.059.951-.475 1.16" stroke="#7360F2" stroke-width="12.954" stroke-linecap="round"/><path d="M31.573 67.921c-.053-.374-.126-.752-.126-1.131" stroke="#7360F2" stroke-width="3.886" stroke-linecap="round"/><path d="M46.78 36.502a28.947 28.947 0 00-.727 2.737c-.235 1.096-1.445 1.844-2.262 2.541-1.614 1.378-3.514 2.58-5.558 3.142-2.268.625-4.512 1.365-6.772 2.01-1.043.299-2.124.588-3.184.783-.39.071-1.803.425-2.038.796-.476.747.41 2.01.684 2.695.186.465.912 1.222 1.452 1.124.589-.107 1.14-.119 1.745-.119.397 0 .728-.12 1.104-.251 1.278-.448 2.586-.897 3.91-1.187 2.26-.496 4.563-.923 6.842-1.327 1.425-.252 2.884-.357 4.294-.69 1.511-.36 3.065-.42 4.53-.944" stroke="#7360F2" stroke-width="18.136" stroke-linecap="round"/><path d="M64.314 21.259c-1.541-1.412-7.785-5.952-21.69-6.011 0 0-16.41-.982-24.402 6.353-4.446 4.446-6.003 10.957-6.182 19.033-.179 8.075-.378 23.212 14.211 27.326h.013l-.013 6.267s-.096 2.54 1.573 3.05c2.016.632 3.207-1.3 5.138-3.379 1.057-1.142 2.513-2.816 3.62-4.093 6.34.587 12.733.099 18.91-1.444l-.389.083c2.016-.655 13.422-2.114 15.266-17.247 1.928-15.623-.917-25.48-6.055-29.938zm1.69 28.798C64.43 62.687 55.192 63.49 53.492 64.035c-3.71.943-7.97 1.482-12.356 1.482-1.26 0-2.508-.044-3.744-.132l.166.01s-6.317 7.615-8.283 9.594c-.643.643-1.35.59-1.337-.692 0-.837.05-10.41.05-10.41-12.352-3.425-11.637-16.318-11.492-23.051.146-6.734 1.41-12.268 5.175-15.984 6.767-6.132 20.698-5.223 20.698-5.223 11.77.05 17.406 3.596 18.717 4.785 4.337 3.718 6.547 12.61 4.918 25.64v.003zm-16.87-9.815v.037a.788.788 0 01-1.573.038v-.002a3.757 3.757 0 00-3.969-4.114h.01a.788.788 0 01.042-1.573h.044-.003l.18-.003a5.278 5.278 0 015.267 5.636v-.016l.002-.003zm2.464 1.376c.122-5.15-3.096-9.182-9.206-9.633a.787.787 0 11.112-1.57h-.003.044a10.637 10.637 0 0110.62 11.265l.003-.028a.787.787 0 01-1.572-.02v-.022l.002.008zm5.7 1.63v.005a.787.787 0 01-1.573.008c-.062-9.903-6.666-15.294-14.67-15.351a.784.784 0 110-1.57c8.963.062 16.165 6.246 16.238 16.905l.005.003zm-1.36 11.913v.023c-1.311 2.309-3.765 4.858-6.29 4.045l-.024-.037a46.74 46.74 0 01-12.517-6.94l.106.077a32 32 0 01-5.101-5.086l-.05-.065a39.079 39.079 0 01-3.632-5.456l-.104-.205a35.392 35.392 0 01-3.09-6.51l-.078-.255c-.814-2.526 1.723-4.98 4.044-6.29h.023a2.205 2.205 0 012.902.468l.003.006s1.505 1.795 2.15 2.684c.607.826 1.423 2.15 1.845 2.889a2.529 2.529 0 01-.448 3.228l-.003.003-1.456 1.166a2.128 2.128 0 00-.642 1.707v-.008a15.283 15.283 0 0010.13 10.21l.109.03a2.137 2.137 0 001.7-.64l1.166-1.457a2.531 2.531 0 013.24-.443l-.01-.005a31.654 31.654 0 015.589 4.013l-.029-.026a2.159 2.159 0 01.457 2.876l.005-.007.005.005z" fill="#fff"/></svg>