<svg width="83" height="88" fill="none" xmlns="http://www.w3.org/2000/svg"><path fill-rule="evenodd" clip-rule="evenodd" d="M48.791 2.616c-9.84-.978-28.267-3.876-36.466 1.49C4.055 9.519 2.508 19.925.913 29.476-.52 38.052 3.535 46.049 5.766 54.463c2.424 9.141-2.606 20.925 4.43 27.449 7.342 6.807 25.401 6.403 35.455 4.987 9.485-1.336 12.542-8.09 20.405-13.404 8.088-5.467 10.634 1.48 13.561-7.648 2.93-9.135 3.991-25.899 0-34.648-3.485-7.64-5.117-16.31-11.765-21.625-6.873-5.495-10.198-6.078-19.06-6.959z" fill="#E1F0EE"/><g clip-path="url(#clip0_639_55)"><path d="M27.226 67.165l1.005.503c4.187 2.512 8.876 3.684 13.565 3.684 14.738 0 26.796-12.058 26.796-26.795 0-7.034-2.847-13.9-7.871-18.925-5.025-5.024-11.724-7.87-18.925-7.87-14.737 0-26.796 12.057-26.628 26.962 0 5.024 1.507 9.881 4.02 14.068l.67 1.005-2.68 9.88 10.048-2.512z" fill="#00E676"/><path d="M63.568 22.953c-5.694-5.862-13.566-9.044-21.604-9.044-17.082 0-30.815 13.9-30.648 30.815 0 5.36 1.507 10.551 4.02 15.24l-4.355 15.91 16.245-4.187c4.522 2.512 9.546 3.685 14.57 3.685 16.915 0 30.648-13.9 30.648-30.815 0-8.206-3.182-15.91-8.876-21.604zM41.964 70.18c-4.522 0-9.044-1.172-12.896-3.517l-1.005-.502-9.713 2.512 2.512-9.546-.67-1.005c-7.369-11.89-3.852-27.633 8.206-35.002 12.058-7.369 27.633-3.852 35.002 8.206 7.369 12.058 3.852 27.633-8.206 35.002-3.852 2.512-8.541 3.852-13.23 3.852zM56.7 51.59l-1.842-.837s-2.68-1.172-4.354-2.01c-.168 0-.335-.167-.503-.167-.502 0-.837.168-1.172.335 0 0-.167.168-2.512 2.847a.921.921 0 01-.837.503h-.168c-.167 0-.502-.168-.67-.335l-.837-.335c-1.842-.837-3.517-1.843-4.857-3.182-.335-.335-.837-.67-1.172-1.005-1.173-1.172-2.345-2.512-3.182-4.02l-.168-.334c-.167-.168-.167-.335-.335-.67 0-.335 0-.67.168-.838 0 0 .67-.837 1.172-1.34.335-.334.503-.837.837-1.172.335-.502.503-1.172.335-1.674-.167-.838-2.177-5.36-2.679-6.364-.335-.503-.67-.67-1.172-.838H30.91c-.336 0-.67.168-1.005.168l-.168.167c-.335.168-.67.503-1.005.67-.335.335-.502.67-.837 1.005-1.172 1.507-1.842 3.35-1.842 5.192 0 1.34.335 2.68.837 3.852l.168.502c1.507 3.182 3.516 6.029 6.196 8.541l.67.67c.502.502 1.005.837 1.34 1.34 3.517 3.014 7.536 5.191 12.058 6.364.502.167 1.172.167 1.675.334h1.674c.838 0 1.842-.334 2.512-.67.503-.334.838-.334 1.172-.67l.336-.334c.335-.335.67-.502 1.004-.837.335-.335.67-.67.838-1.005.335-.67.502-1.508.67-2.345v-1.172s-.168-.168-.503-.335z" fill="#fff"/></g><defs><clipPath id="clip0_639_55"><path fill="#fff" transform="translate(10.977 13.91)" d="M0 0h61.469v62.182H0z"/></clipPath></defs></svg>