<svg width="10" height="6" viewBox="0 0 10 6" fill="none" xmlns="http://www.w3.org/2000/svg">
<path d="M9.66669 0.999797C9.66719 1.08753 9.65038 1.17451 9.6172 1.25573C9.58402 1.33696 9.53514 1.41084 9.47335 1.47313L5.47335 5.47313C5.34844 5.5973 5.17948 5.66699 5.00335 5.66699C4.82723 5.66699 4.65826 5.5973 4.53335 5.47313L0.533352 1.47313C0.424134 1.3456 0.367063 1.18155 0.373544 1.01376C0.380025 0.845977 0.449579 0.686818 0.568309 0.568089C0.687039 0.449358 0.846198 0.379803 1.01398 0.373322C1.18177 0.366842 1.34582 0.423913 1.47335 0.533131L5.00002 4.0598L8.52669 0.533131C8.61953 0.439516 8.73805 0.375535 8.86726 0.349278C8.99647 0.323022 9.13057 0.335668 9.25259 0.385619C9.37461 0.435569 9.47908 0.52058 9.55279 0.629902C9.6265 0.739225 9.66613 0.867949 9.66669 0.999797Z" fill="#3B3A3A"/>
</svg>
