<svg width="16" height="16" viewBox="0 0 16 16" fill="none" xmlns="http://www.w3.org/2000/svg">
<path d="M6.28125 0.09375C2.86953 0.09375 0.09375 2.86953 0.09375 6.28125C0.09375 9.69297 2.86953 12.4688 6.28125 12.4688C7.70067 12.4688 9.00592 11.9832 10.0511 11.1763L14.548 15.6733C14.8588 15.984 15.3625 15.984 15.6733 15.6733C15.984 15.3625 15.984 14.8588 15.6733 14.548L11.1763 10.0511C11.9832 9.00592 12.4688 7.70067 12.4688 6.28125C12.4688 2.86953 9.69297 0.09375 6.28125 0.09375ZM6.28125 1.46875C8.93466 1.46875 11.0938 3.62784 11.0938 6.28125C11.0938 8.93466 8.93466 11.0938 6.28125 11.0938C3.62784 11.0938 1.46875 8.93466 1.46875 6.28125C1.46875 3.62784 3.62784 1.46875 6.28125 1.46875Z" fill="#574E4E"/>
</svg>
