<svg width="19" height="18" viewBox="0 0 19 18" fill="none" xmlns="http://www.w3.org/2000/svg">
<rect width="1440" height="1719" transform="translate(-168 -43)" fill="white"/>
<path d="M9.04617 0C5.16102 0 2 3.16102 2 7.04617C2 10.9315 5.16102 14.0923 9.04617 14.0923C12.9315 14.0923 16.0923 10.9315 16.0923 7.04617C16.0923 3.16102 12.9315 0 9.04617 0ZM9.04617 12.7915C5.87821 12.7915 3.30083 10.2142 3.30083 7.0462C3.30083 3.87824 5.87821 1.30083 9.04617 1.30083C12.2141 1.30083 14.7915 3.87821 14.7915 7.04617C14.7915 10.2141 12.2141 12.7915 9.04617 12.7915Z" fill="#363636"/>
<path d="M17.8097 14.8898L14.0806 11.1608C13.8265 10.9067 13.415 10.9067 13.1609 11.1608C12.9068 11.4147 12.9068 11.8266 13.1609 12.0805L16.89 15.8095C17.017 15.9366 17.1833 16.0001 17.3498 16.0001C17.5161 16.0001 17.6826 15.9366 17.8097 15.8095C18.0638 15.5557 18.0638 15.1437 17.8097 14.8898Z" fill="#363636"/>
</svg>
