<svg width="21" height="21" fill="none" xmlns="http://www.w3.org/2000/svg"><g clip-path="url(#clip0)" fill="#1553A6"><path d="M15.86 12.485a2.65 2.65 0 00-2.647 2.647 2.65 2.65 0 002.647 2.647 2.65 2.65 0 002.647-2.647 2.65 2.65 0 00-2.647-2.647zm0 3.971a1.325 1.325 0 010-2.647 1.325 1.325 0 010 2.647zm-9.045-3.971a2.65 2.65 0 00-2.647 2.647 2.65 2.65 0 002.647 2.647 2.65 2.65 0 002.647-2.647 2.65 2.65 0 00-2.647-2.647zm0 3.971a1.325 1.325 0 010-2.647c.73 0 1.324.594 1.324 1.323 0 .73-.594 1.324-1.324 1.324zM17.643 4.908a.662.662 0 00-.591-.364h-3.486v1.323h3.078l1.802 3.585 1.182-.595-1.985-3.949z"/><path d="M13.874 14.493H8.867v1.323h5.007v-1.323zm-9.044 0H2.538a.662.662 0 100 1.323H4.83a.662.662 0 100-1.323zm16.031-4.046l-1.302-1.676a.66.66 0 00-.522-.256h-4.81V3.882a.662.662 0 00-.66-.661H2.536a.662.662 0 100 1.323h10.367v4.633c0 .365.297.661.662.661h5.147l.963 1.242v3.413h-1.83a.662.662 0 100 1.323h2.492a.662.662 0 00.662-.662v-4.3a.662.662 0 00-.139-.407zm-16.073.693H1.744a.662.662 0 100 1.323h3.044a.662.662 0 100-1.323zm1.521-2.603H.662a.662.662 0 100 1.323h5.647a.662.662 0 100-1.323z"/><path d="M7.39 5.934H1.745a.662.662 0 100 1.323H7.39a.662.662 0 100-1.323z"/></g><defs><clipPath id="clip0"><path fill="#fff" d="M0 0h21v21H0z"/></clipPath></defs></svg>