<svg width="21" height="21" fill="none" xmlns="http://www.w3.org/2000/svg"><path d="M18.9 3.15H2.1A2.1 2.1 0 000 5.25v10.5c0 1.16.94 2.1 2.1 2.1h16.8a2.1 2.1 0 002.1-2.1V5.25a2.1 2.1 0 00-2.1-2.1zm1.05 12.626a1.05 1.05 0 01-1.076 1.024H2.126a1.05 1.05 0 01-1.076-1.023v-5.015h18.9v5.014zm0-6.064H1.05V7.087h18.9v2.625zm0-3.675H1.05v-.813A1.05 1.05 0 012.126 4.2h16.748a1.05 1.05 0 011.076 1.023v.814z" fill="#1553A6"/><path d="M4.515 15.382h.026c.372 0 .716-.117.998-.316a1.72 1.72 0 001.023.316h.027a1.706 1.706 0 001.68-1.758 1.732 1.732 0 00-2.73-1.39 1.732 1.732 0 10-1.024 3.149zm2.047-2.389a.656.656 0 01.657.708.682.682 0 01-1.052.548 1.728 1.728 0 00.014-1.156.68.68 0 01.381-.1zm-2.85.537a.682.682 0 01.803-.536.682.682 0 01.401.041 1.727 1.727 0 00.009 1.251.678.678 0 01-.41.046.682.682 0 01-.803-.802zm9.702 1.432h4.647a.499.499 0 00.525-.525v-1.575a.525.525 0 00-.525-.525h-4.647a.525.525 0 00-.525.525v1.575a.499.499 0 00.525.525zm.525-1.575h3.597v.525h-3.597v-.525z" fill="#1553A6"/></svg>