<svg width="20" height="18" fill="none" xmlns="http://www.w3.org/2000/svg"><path d="M19.663 8.397L16.607 2.24a.472.472 0 00-.405-.247L16 2.038h-3.955a2.112 2.112 0 00-4.09 0H4l-.202-.045a.472.472 0 00-.405.247L.337 8.397A.427.427 0 000 8.824c0 1.888 1.708 3.438 3.798 3.438s3.82-1.55 3.82-3.438a.45.45 0 00-.337-.427l-2.72-5.46h3.372A2.09 2.09 0 009.55 4.553v7.888c-1.461.18-2.607 1.28-2.787 2.404h-.989a.54.54 0 00-.494.495v1.798a.45.45 0 00.49.404h8.455a.45.45 0 00.494-.4v-1.801a.54.54 0 00-.494-.495h-.99c-.179-1.123-1.325-2.224-2.786-2.404V4.554a2.09 2.09 0 001.618-1.618h3.371l-2.719 5.461a.45.45 0 00-.337.427c0 1.888 1.708 3.438 3.82 3.438S20 10.712 20 8.824a.427.427 0 00-.337-.427zM3.798 11.318c-1.416 0-2.607-.966-2.854-2.09h5.73c-.247 1.124-1.438 2.09-2.876 2.09zM6.27 8.33H1.348l2.45-4.922L6.27 8.33zm7.55 7.415v.9H6.18v-.9h7.64zm-1.505-.899h-4.63c.18-.899 1.146-1.573 2.315-1.573 1.168 0 2.135.675 2.315 1.573zM10 3.723a1.213 1.213 0 110-2.427 1.213 1.213 0 010 2.427zm6.202-.315l2.45 4.922H13.73l2.472-4.922zm0 7.91c-1.438 0-2.629-.966-2.876-2.09h5.73c-.247 1.124-1.438 2.09-2.854 2.09z" fill="gray"/></svg>