<svg width="20" height="18" fill="none" xmlns="http://www.w3.org/2000/svg"><path d="M5.469.25C2.31.25 0 2.98 0 6.5c0 3.613 2.506 6.4 4.923 8.281 2.415 1.883 4.842 2.891 4.842 2.891.15.06.321.06.469 0 0 0 2.428-1.008 4.845-2.89C17.494 12.9 20 10.111 20 6.5 20 2.98 17.69.25 14.531.25 11.954.25 10.552 1.792 10 2.475 9.447 1.795 8.046.25 5.469.25zm0 1.25c2.437 0 4.025 2.188 4.025 2.188.229.32.784.32 1.012 0 0 0 1.588-2.188 4.025-2.188 2.457 0 4.219 2.004 4.219 5 0 3.025-2.181 5.535-4.454 7.305-2.15 1.675-4.075 2.48-4.296 2.578-.223-.098-2.146-.903-4.298-2.578-2.27-1.77-4.452-4.28-4.452-7.305 0-2.996 1.763-5 4.219-5z" fill="gray"/></svg>