<svg width="16" height="16" viewBox="0 0 16 16" fill="none" xmlns="http://www.w3.org/2000/svg">
<path d="M12.1877 7.85366C12.2204 7.85063 12.2522 7.84118 12.2813 7.82587C12.3103 7.81055 12.336 7.78966 12.357 7.76439C12.378 7.73912 12.3937 7.70996 12.4034 7.67859C12.4131 7.64722 12.4165 7.61425 12.4135 7.58156C11.7297 1.9998 3.73812 2.39001 3.56445 7.99983C3.74041 13.4902 11.4177 14.0313 12.3894 8.64085C12.3988 8.57532 12.3818 8.50876 12.3421 8.45575C12.3025 8.40274 12.2435 8.36761 12.178 8.35805C12.1125 8.34849 12.0459 8.36529 11.9927 8.40476C11.9396 8.44423 11.9043 8.50316 11.8945 8.56862C11.0321 13.3523 4.21968 12.87 4.06445 7.99974C4.21942 3.02165 11.309 2.67703 11.9157 7.62799C11.9186 7.66073 11.9279 7.69257 11.9432 7.72167C11.9585 7.75078 11.9794 7.77657 12.0047 7.79755C12.03 7.81853 12.0592 7.83429 12.0906 7.84392C12.122 7.85356 12.155 7.85686 12.1877 7.85366Z" fill="#40914E"/>
<path d="M8.00042 8.33613C8.08876 8.33486 8.17306 8.29887 8.23508 8.23594C8.29711 8.17301 8.33187 8.0882 8.33187 7.99985C8.33187 7.91149 8.2971 7.82668 8.23507 7.76376C8.17305 7.70084 8.08875 7.66485 8.0004 7.66357C7.91205 7.66485 7.82776 7.70084 7.76574 7.76377C7.70371 7.8267 7.66894 7.91151 7.66895 7.99986C7.66895 8.08822 7.70372 8.17302 7.76575 8.23595C7.82777 8.29887 7.91207 8.33486 8.00042 8.33613Z" fill="#40914E"/>
<path d="M7.99963 11.2644C8.06594 11.2644 8.12953 11.2381 8.17641 11.1912C8.2233 11.1443 8.24963 11.0807 8.24963 11.0144V10.5525C8.84033 10.4939 9.39247 10.2324 9.81221 9.8127C10.2319 9.39296 10.4934 8.84081 10.552 8.25012H11.0139C11.0802 8.25012 11.1438 8.22378 11.1907 8.1769C11.2376 8.13002 11.2639 8.06643 11.2639 8.00012C11.2639 7.93382 11.2376 7.87023 11.1907 7.82335C11.1438 7.77646 11.0802 7.75012 11.0139 7.75012H10.552C10.4934 7.15943 10.2319 6.60728 9.81221 6.18755C9.39247 5.76781 8.84033 5.50639 8.24963 5.44772V4.98584C8.24963 4.91954 8.2233 4.85595 8.17641 4.80906C8.12953 4.76218 8.06594 4.73584 7.99963 4.73584C7.93333 4.73584 7.86974 4.76218 7.82286 4.80906C7.77597 4.85595 7.74963 4.91954 7.74963 4.98584V5.44772C7.15894 5.50639 6.6068 5.76781 6.18706 6.18755C5.76732 6.60728 5.5059 7.15943 5.44724 7.75012H4.98535C4.91905 7.75012 4.85546 7.77646 4.80858 7.82335C4.76169 7.87023 4.73535 7.93382 4.73535 8.00012C4.73535 8.06643 4.76169 8.13002 4.80858 8.1769C4.85546 8.22378 4.91905 8.25012 4.98535 8.25012H5.44724C5.5059 8.84081 5.76732 9.39296 6.18706 9.8127C6.6068 10.2324 7.15894 10.4939 7.74963 10.5525V11.0144C7.74963 11.0807 7.77597 11.1443 7.82286 11.1912C7.86974 11.2381 7.93333 11.2644 7.99963 11.2644ZM5.95125 8.25012H6.38367C6.44997 8.25012 6.51356 8.22378 6.56044 8.1769C6.60733 8.13002 6.63367 8.06643 6.63367 8.00012C6.63367 7.93382 6.60733 7.87023 6.56044 7.82335C6.51356 7.77646 6.44997 7.75012 6.38367 7.75012H5.95125C6.00768 7.2928 6.2153 6.86745 6.54113 6.54162C6.86696 6.21579 7.29231 6.00817 7.74963 5.95174V6.38416C7.75056 6.44985 7.77731 6.51253 7.82409 6.55866C7.87088 6.60479 7.93394 6.63064 7.99963 6.63064C8.06533 6.63064 8.12839 6.60479 8.17517 6.55866C8.22196 6.51253 8.24871 6.44985 8.24963 6.38416V5.95174C8.70696 6.00817 9.13231 6.21579 9.45814 6.54162C9.78397 6.86745 9.99158 7.2928 10.048 7.75012H9.6156C9.5493 7.75012 9.48571 7.77646 9.43883 7.82335C9.39194 7.87023 9.3656 7.93382 9.3656 8.00012C9.3656 8.06643 9.39194 8.13002 9.43883 8.1769C9.48571 8.22378 9.5493 8.25012 9.6156 8.25012H10.048C9.99158 8.70744 9.78397 9.1328 9.45814 9.45863C9.13231 9.78445 8.70696 9.99207 8.24963 10.0485V9.61609C8.24871 9.5504 8.22196 9.48771 8.17517 9.44159C8.12839 9.39546 8.06533 9.3696 7.99963 9.3696C7.93394 9.3696 7.87088 9.39546 7.82409 9.44159C7.77731 9.48771 7.75056 9.5504 7.74963 9.61609V10.0485C7.29231 9.99206 6.86696 9.78445 6.54113 9.45862C6.21531 9.13279 6.00769 8.70744 5.95125 8.25012Z" fill="#40914E"/>
<path d="M14.7501 7.75H14.2962C14.2315 6.16717 13.5738 4.6666 12.4536 3.54643C11.3335 2.42627 9.83288 1.76851 8.25006 1.70384V1.25C8.25006 1.1837 8.22372 1.12011 8.17683 1.07322C8.12995 1.02634 8.06636 1 8.00006 1C7.93375 1 7.87016 1.02634 7.82328 1.07322C7.77639 1.12011 7.75006 1.1837 7.75006 1.25V1.70384C6.16723 1.76851 4.66665 2.42627 3.54649 3.54643C2.42633 4.6666 1.76857 6.16717 1.7039 7.75H1.25006C1.18442 7.75102 1.12182 7.77781 1.07577 7.82458C1.02972 7.87136 1.0039 7.93437 1.00391 8.00001C1.00391 8.06565 1.02972 8.12866 1.07578 8.17543C1.12184 8.2222 1.18444 8.24899 1.25007 8.25H1.70745C1.75307 9.52192 2.18551 10.7497 2.94708 11.7694C2.9667 11.7957 2.99131 11.8179 3.01951 11.8347C3.04772 11.8516 3.07895 11.8626 3.11144 11.8674C3.14392 11.8721 3.17703 11.8704 3.20885 11.8624C3.24068 11.8543 3.27061 11.8401 3.29693 11.8204C3.32325 11.8008 3.34545 11.7762 3.36226 11.748C3.37907 11.7198 3.39016 11.6886 3.3949 11.6561C3.39964 11.6236 3.39793 11.5905 3.38988 11.5587C3.38182 11.5268 3.36758 11.4969 3.34796 11.4706C0.492706 7.71581 3.27866 2.15815 8.00013 2.19755C9.5385 2.1993 11.0134 2.81119 12.1011 3.89898C13.1889 4.98678 13.8008 6.46163 13.8026 8C13.8171 13.0719 7.62451 15.7143 3.986 12.1874C3.93801 12.1427 3.87434 12.1186 3.80874 12.1203C3.74313 12.1221 3.68085 12.1496 3.63532 12.1968C3.5898 12.2441 3.56468 12.3074 3.56539 12.373C3.5661 12.4386 3.59258 12.5013 3.63911 12.5476C4.74713 13.6172 6.21106 14.24 7.75006 14.2965V14.75C7.75107 14.8156 7.77786 14.8782 7.82464 14.9243C7.87141 14.9703 7.93442 14.9962 8.00006 14.9961C8.0657 14.9961 8.12871 14.9703 8.17548 14.9243C8.22226 14.8782 8.24904 14.8156 8.25006 14.75V14.2962C9.83288 14.2315 11.3335 13.5737 12.4536 12.4536C13.5738 11.3334 14.2315 9.83283 14.2962 8.25H14.7501C14.8157 8.24894 14.8782 8.22214 14.9242 8.17537C14.9703 8.1286 14.9961 8.06561 14.9961 8C14.9961 7.93439 14.9703 7.8714 14.9242 7.82463C14.8782 7.77786 14.8157 7.75106 14.7501 7.75Z" fill="#40914E"/>
</svg>
