<svg width="15" height="14" viewBox="0 0 15 14" fill="none" xmlns="http://www.w3.org/2000/svg">
<path d="M4.86466 3.40901H13.2039L8.64849 6.98626C8.55195 7.06199 8.43711 7.09897 8.33293 7.1091C8.22804 7.09879 8.11284 7.06181 8.01524 6.98626L4.75978 4.42892C4.72529 4.40119 4.68635 4.38003 4.64351 4.36688C4.79675 4.1507 4.88422 3.88919 4.8796 3.60741C4.87871 3.54288 4.87302 3.47639 4.86466 3.40901ZM2.74395 1.10839C2.75444 1.11017 2.77169 1.11675 2.8092 1.13417C2.88333 1.16937 3.0012 1.26003 3.11658 1.38643C3.34893 1.63959 3.58111 2.02306 3.70164 2.27621C3.70537 2.28368 3.70929 2.29186 3.71284 2.30021C4.05489 2.88706 4.20244 3.33595 4.20689 3.61755C4.21169 3.90039 4.13578 4.02217 3.89595 4.15995L3.27729 4.51657C2.87426 4.74857 2.68386 5.16439 2.63657 5.5523C2.58911 5.94039 2.65897 6.31746 2.8316 6.61559L4.35871 9.24759C4.53169 9.54555 4.82698 9.79479 5.18804 9.94786C5.54946 10.1013 6.00653 10.1447 6.40955 9.91319L7.02822 9.55728C7.26786 9.41986 7.41275 9.41701 7.65613 9.56172C7.90022 9.70679 8.2172 10.0572 8.55782 10.6444C8.56262 10.6531 8.56724 10.6604 8.57275 10.6687C8.7324 10.899 8.94982 11.2895 9.05471 11.6167C9.1068 11.7791 9.12724 11.926 9.12066 12.0072C9.11337 12.0888 9.1116 12.0805 9.09009 12.0933L8.61933 12.3631C7.43675 12.876 6.35284 12.7603 5.38413 12.2579C4.41364 11.7534 3.57009 10.8423 2.982 9.77257C2.98004 9.77044 2.97915 9.76777 2.97755 9.76635L1.68937 7.54626C1.68724 7.54412 1.68635 7.54217 1.68457 7.53932C1.04724 6.49755 0.675864 5.31479 0.722441 4.22661C0.769019 3.14003 1.20991 2.14946 2.24849 1.38732L2.71942 1.11835C2.73026 1.11212 2.73382 1.10732 2.74395 1.10839ZM2.74875 0.446879C2.62413 0.444923 2.49702 0.471057 2.38271 0.537368L1.88475 0.823768C1.87355 0.830168 1.86324 0.836746 1.85311 0.843146C0.655064 1.71995 0.103419 2.94057 0.0495526 4.1987C-0.00431405 5.4563 0.415597 6.75426 1.10929 7.88901L2.3932 10.1015L2.39017 10.0949C3.03106 11.2595 3.94946 12.2698 5.07177 12.8519C6.19462 13.4348 7.53222 13.5699 8.89471 12.9758C8.90591 12.971 8.91729 12.9656 8.92742 12.9594L9.42609 12.673C9.65666 12.5418 9.77258 12.2865 9.79142 12.0636C9.8108 11.8414 9.76546 11.625 9.69666 11.4119C9.56191 10.9903 9.32689 10.5809 9.13275 10.3C8.766 9.6691 8.41186 9.23123 8.00262 8.98643C7.59017 8.74057 7.09506 8.74412 6.69115 8.9763L6.07249 9.33292C5.88973 9.43817 5.67604 9.4259 5.45115 9.33079C5.22733 9.23568 5.02004 9.04546 4.94306 8.91212L3.41595 6.2803C3.3388 6.14626 3.27569 5.87283 3.30555 5.63177C3.33435 5.39141 3.43195 5.20315 3.61489 5.09772L4.21595 4.75212C4.2316 4.83266 4.27711 4.90572 4.34306 4.95479L7.59871 7.51266C7.81044 7.67906 8.06129 7.77168 8.31391 7.78626C8.32671 7.78697 8.33986 7.78697 8.35284 7.78626C8.60564 7.77168 8.85524 7.67888 9.06715 7.51266L13.5511 3.99017V9.80955C13.5511 9.89808 13.4501 10.0147 13.252 10.0147H10.1479C9.96102 10.0136 9.80973 10.1644 9.80973 10.3502C9.80973 10.5356 9.9612 10.6863 10.1479 10.6853H13.252C13.7594 10.6853 14.2257 10.3185 14.2257 9.80955V3.61417C14.2257 3.10483 13.7594 2.73826 13.252 2.73826H4.67995C4.58502 2.50092 4.45969 2.24937 4.30182 1.97595C4.15409 1.66839 3.91444 1.26181 3.61453 0.934879C3.46306 0.76919 3.29969 0.622346 3.09542 0.527412V0.528301C2.99391 0.480301 2.8732 0.449546 2.74875 0.446879Z" fill="#40914E"/>
</svg>
