<svg width="12" height="16" viewBox="0 0 12 16" fill="none" xmlns="http://www.w3.org/2000/svg">
<path d="M10.25 1.15625H6.8765C6.61888 1.15572 6.36781 1.23734 6.15975 1.38925L5.34375 1.98238H4.86112V0.875C4.86112 0.816984 4.83808 0.761344 4.79705 0.720321C4.75603 0.679297 4.70039 0.65625 4.64237 0.65625H2.15487C2.12612 0.656201 2.09764 0.661824 2.07107 0.672796C2.04449 0.683769 2.02034 0.699876 2 0.720195C1.97965 0.740515 1.96352 0.764647 1.95252 0.791211C1.94151 0.817775 1.93586 0.846248 1.93587 0.875V1.98238H1.38212C1.32864 1.98239 1.27702 2.002 1.23701 2.03749C1.19701 2.07298 1.17139 2.1219 1.165 2.175L0.79075 5.29213L0.680375 5.37225C0.556945 5.46231 0.456482 5.5802 0.387136 5.71635C0.31779 5.8525 0.281514 6.00308 0.28125 6.15588V14.5C0.281515 14.7237 0.370495 14.9382 0.528671 15.0963C0.686848 15.2545 0.901305 15.3435 1.125 15.3438H10.875C11.0987 15.3435 11.3132 15.2545 11.4713 15.0963C11.6295 14.9382 11.7185 14.7237 11.7188 14.5V2.625C11.7183 2.23562 11.5634 1.86232 11.288 1.58699C11.0127 1.31165 10.6394 1.15675 10.25 1.15625ZM2.37337 1.09375H4.42338V1.98238H2.37337V1.09375ZM1.57612 2.41988H4.742L1.2735 4.94125L1.57612 2.41988ZM11.2812 14.5C11.2811 14.6077 11.2383 14.711 11.1621 14.7871C11.086 14.8633 10.9827 14.9061 10.875 14.9062H1.125C1.0173 14.9061 0.914042 14.8633 0.837884 14.7871C0.761726 14.711 0.718882 14.6077 0.71875 14.5V6.15588C0.718879 6.07211 0.738753 5.98956 0.77676 5.91491C0.814767 5.84026 0.869837 5.77563 0.9375 5.72625L6.41712 1.743C6.5505 1.6457 6.7114 1.59342 6.8765 1.59375H10.25C10.5234 1.59405 10.7855 1.70279 10.9789 1.89613C11.1722 2.08946 11.281 2.35159 11.2812 2.625V14.5Z" fill="#40914E"/>
<path d="M10.0602 2.2207H6.8977C6.8514 2.22069 6.80628 2.23535 6.76883 2.26258L5.70145 3.03945C5.67638 3.05768 5.65546 3.08103 5.6401 3.10796C5.62473 3.13488 5.61526 3.16476 5.61232 3.19562C5.60937 3.22649 5.61302 3.25762 5.62302 3.28696C5.63303 3.31631 5.64915 3.34319 5.67033 3.36583L8.06083 5.92345C8.08133 5.94531 8.10609 5.96273 8.13359 5.97464C8.16109 5.98655 8.19074 5.9927 8.2207 5.9927H10.4352C10.4639 5.99272 10.4924 5.98707 10.5189 5.97609C10.5455 5.9651 10.5696 5.94899 10.5899 5.92867C10.6102 5.90835 10.6263 5.88423 10.6373 5.85768C10.6483 5.83114 10.654 5.80268 10.654 5.77395V2.81445C10.6538 2.65704 10.5911 2.50613 10.4798 2.39483C10.3685 2.28352 10.2176 2.2209 10.0602 2.2207ZM10.2165 5.5552H8.31558L6.15858 3.24758L6.96858 2.6582H10.0602C10.1016 2.6582 10.1414 2.67467 10.1707 2.70397C10.2 2.73327 10.2165 2.77301 10.2165 2.81445V5.5552Z" fill="#40914E"/>
<path d="M9.67941 7.9039C9.72042 7.86289 9.74345 7.80727 9.74345 7.74927C9.74345 7.69127 9.72042 7.63565 9.67941 7.59465C9.6384 7.55364 9.58278 7.5306 9.52478 7.5306C9.46679 7.5306 9.41117 7.55364 9.37016 7.59465L8.17241 8.7924H3.82766L2.63003 7.59465C2.60986 7.57375 2.58572 7.55708 2.55904 7.54561C2.53235 7.53414 2.50365 7.5281 2.4746 7.52784C2.44556 7.52758 2.41675 7.53311 2.38986 7.54411C2.36298 7.5551 2.33855 7.57134 2.31801 7.59187C2.29747 7.61241 2.28122 7.63683 2.27021 7.66371C2.25921 7.69059 2.25367 7.71939 2.25391 7.74844C2.25416 7.77748 2.26019 7.80619 2.27165 7.83288C2.28311 7.85957 2.29977 7.88371 2.32066 7.9039L3.51828 9.10177V11.7975L2.32066 12.9953C2.29977 13.0155 2.28311 13.0396 2.27165 13.0663C2.26019 13.093 2.25416 13.1217 2.25391 13.1507C2.25367 13.1798 2.25921 13.2086 2.27021 13.2355C2.28122 13.2623 2.29747 13.2868 2.31801 13.3073C2.33855 13.3278 2.36298 13.3441 2.38986 13.3551C2.41675 13.3661 2.44556 13.3716 2.4746 13.3713C2.50365 13.3711 2.53235 13.365 2.55904 13.3536C2.58572 13.3421 2.60986 13.3254 2.63003 13.3045L3.82766 12.1068H8.17241L9.37016 13.3045C9.39046 13.3248 9.41457 13.3409 9.4411 13.3519C9.46763 13.3629 9.49606 13.3686 9.52478 13.3686C9.5535 13.3686 9.58193 13.3629 9.60846 13.3519C9.63499 13.3409 9.6591 13.3248 9.67941 13.3045C9.69971 13.2842 9.71582 13.2601 9.72681 13.2336C9.7378 13.207 9.74345 13.1786 9.74345 13.1499C9.74345 13.1212 9.7378 13.0927 9.72681 13.0662C9.71582 13.0397 9.69971 13.0156 9.67941 12.9953L8.48166 11.7975V9.10177L9.67941 7.9039ZM3.95578 9.2299H8.04416V11.6693H3.95578V9.2299Z" fill="#40914E"/>
</svg>
