<svg width="12" height="16" viewBox="0 0 12 16" fill="none" xmlns="http://www.w3.org/2000/svg">
<path fill-rule="evenodd" clip-rule="evenodd" d="M6 16C6.15673 16 6.30309 15.9217 6.39002 15.7913C6.74654 15.2565 7.15374 14.6862 7.58471 14.0827C7.71418 13.9014 7.84579 13.717 7.97882 13.5298C8.55122 12.724 9.14464 11.8708 9.68053 10.9995C10.7422 9.27324 11.625 7.40427 11.625 5.625C11.625 2.52296 9.10204 9.53674e-07 6 9.53674e-07C2.89796 9.53674e-07 0.375 2.52296 0.375 5.625C0.375 7.40427 1.25778 9.27324 2.31947 10.9995C2.85536 11.8708 3.44878 12.724 4.02118 13.5298C4.15421 13.717 4.28582 13.9014 4.41529 14.0827C4.84626 14.6862 5.25346 15.2565 5.60998 15.7913C5.69691 15.9217 5.84327 16 6 16ZM3.11803 10.5083C2.07034 8.80488 1.3125 7.12698 1.3125 5.625C1.3125 3.04073 3.41573 0.937501 6 0.937501C8.58427 0.937501 10.6875 3.04073 10.6875 5.625C10.6875 7.12698 9.92966 8.80488 8.88197 10.5083C8.36317 11.3519 7.78472 12.1842 7.21454 12.9868C7.08516 13.169 6.95592 13.3499 6.82787 13.5293C6.54217 13.9294 6.26237 14.3212 6 14.6991C5.73762 14.3212 5.45782 13.9293 5.17212 13.5293C5.04407 13.3499 4.91484 13.169 4.78546 12.9868C4.21528 12.1842 3.63683 11.3519 3.11803 10.5083Z" fill="#40914E"/>
<path fill-rule="evenodd" clip-rule="evenodd" d="M3.1875 5.625C3.1875 7.17616 4.44884 8.4375 6 8.4375C7.55116 8.4375 8.8125 7.17616 8.8125 5.625C8.8125 4.07384 7.55116 2.8125 6 2.8125C4.44884 2.8125 3.1875 4.07384 3.1875 5.625ZM6 7.5C4.9666 7.5 4.125 6.6584 4.125 5.625C4.125 4.5916 4.9666 3.75 6 3.75C7.0334 3.75 7.875 4.5916 7.875 5.625C7.875 6.6584 7.0334 7.5 6 7.5Z" fill="#40914E"/>
</svg>
