<svg width="24" height="24" viewBox="0 0 24 24" fill="none" xmlns="http://www.w3.org/2000/svg">
<g clip-path="url(#clip0_32_1189)">
<path d="M12 14.4609C13.3591 14.4609 14.4609 13.3591 14.4609 12C14.4609 10.6409 13.3591 9.53906 12 9.53906C10.6409 9.53906 9.53906 10.6409 9.53906 12C9.53906 13.3591 10.6409 14.4609 12 14.4609Z" fill="white"/>
<path d="M12 0.28125C5.52792 0.28125 0.28125 5.52792 0.28125 12C0.28125 18.4721 5.52792 23.7188 12 23.7188C18.4721 23.7188 23.7188 18.4721 23.7188 12C23.7188 5.52792 18.4721 0.28125 12 0.28125ZM19.2402 14.9784C19.184 16.0926 18.8709 17.1912 18.059 17.9945C17.2392 18.8055 16.1353 19.1076 15.0105 19.1633H8.98959C7.86459 19.1076 6.76087 18.8056 5.94108 17.9945C5.12911 17.1912 4.81608 16.0926 4.75983 14.9784V9.02156C4.81608 7.90744 5.12916 6.80878 5.94108 6.00544C6.76087 5.1945 7.86473 4.89234 8.98959 4.8367H15.0104C16.1354 4.89234 17.2391 5.19436 18.0589 6.00544C18.8709 6.80878 19.1839 7.90744 19.2402 9.02156L19.2402 14.9784Z" fill="white"/>
<path d="M14.9347 6.19374C13.4682 6.15352 10.5329 6.15352 9.06636 6.19374C8.30319 6.21469 7.43802 6.40468 6.89427 6.98546C6.32924 7.58916 6.11572 8.31853 6.09407 9.13449C6.056 10.5666 6.09407 14.8651 6.09407 14.8651C6.11886 15.6809 6.32924 16.4104 6.89427 17.0141C7.43802 17.595 8.30319 17.7848 9.06636 17.8058C10.5329 17.846 13.4682 17.846 14.9347 17.8058C15.6979 17.7848 16.5631 17.5949 17.1068 17.0141C17.6719 16.4104 17.8854 15.681 17.907 14.8651V9.13449C17.8854 8.31853 17.6719 7.58916 17.1068 6.98546C16.5629 6.40449 15.6977 6.21469 14.9347 6.19374ZM12.0004 15.8142C11.2459 15.8142 10.5084 15.5905 9.88117 15.1714C9.25388 14.7522 8.76497 14.1565 8.47627 13.4595C8.18756 12.7625 8.11202 11.9955 8.2592 11.2556C8.40638 10.5157 8.76968 9.836 9.30314 9.30254C9.8366 8.76908 10.5163 8.40579 11.2562 8.25861C11.9961 8.11143 12.7631 8.18697 13.4601 8.47567C14.1571 8.76438 14.7528 9.25329 15.172 9.88057C15.5911 10.5079 15.8148 11.2453 15.8148 11.9998C15.8148 13.0114 15.4129 13.9816 14.6976 14.697C13.9822 15.4123 13.012 15.8142 12.0004 15.8142ZM15.831 8.97268C15.6802 8.97264 15.5327 8.92786 15.4072 8.84401C15.2818 8.76016 15.1841 8.641 15.1263 8.5016C15.0686 8.3622 15.0536 8.20881 15.083 8.06084C15.1125 7.91286 15.1851 7.77695 15.2918 7.67027C15.3985 7.5636 15.5345 7.49096 15.6825 7.46154C15.8304 7.43212 15.9838 7.44724 16.1232 7.50498C16.2626 7.56273 16.3817 7.66051 16.4656 7.78597C16.5494 7.91142 16.5941 8.05891 16.5941 8.20979C16.5941 8.30999 16.5744 8.4092 16.536 8.50177C16.4977 8.59434 16.4415 8.67845 16.3706 8.7493C16.2997 8.82014 16.2156 8.87633 16.123 8.91466C16.0305 8.95299 15.9312 8.9727 15.831 8.97268Z" fill="white"/>
</g>
<defs>
<clipPath id="clip0_32_1189">
<rect width="24" height="24" fill="white"/>
</clipPath>
</defs>
</svg>
