<svg width="99" height="90" viewBox="0 0 99 90" fill="none" xmlns="http://www.w3.org/2000/svg">
<g clip-path="url(#clip0_30_62)">
<path d="M28.8905 31.2686C28.417 31.4908 28.2081 32.05 28.4191 32.528L30.5818 37.1707C30.6881 37.4019 30.882 37.5819 31.1203 37.6707C31.2248 37.7086 31.3356 37.7282 31.4469 37.7282C31.5863 37.7294 31.7239 37.6996 31.8506 37.6421L48.191 30.0098L46.711 45.4848C46.6824 45.7895 46.7998 46.089 47.0276 46.2924C47.744 46.8854 48.6368 47.2231 49.5657 47.2535C49.8219 47.2532 50.0765 47.221 50.3248 47.1578C51.6514 46.8117 52.6799 45.6296 53.3816 43.6108L59.812 24.5697L72.5475 18.6291C76.2963 16.8799 78.2281 13.3332 76.9308 10.5648C76.1945 9.11787 74.7843 8.13358 73.1724 7.94064C71.3814 7.67033 69.551 7.95208 67.9244 8.74854L53.2275 15.6401L37.4258 9.45952C35.4359 8.71001 33.8598 8.72927 32.7545 9.52724C31.8271 10.2882 31.2994 11.432 31.322 12.6315C31.3317 12.9358 31.4849 13.2173 31.7353 13.3913L42.3756 20.7057L36.282 23.5893L26.064 20.9938C25.6453 20.8908 25.2095 21.0796 24.9973 21.4552L22.4505 26.0398C22.3183 26.2827 22.2976 26.5711 22.3936 26.8306C22.489 27.0903 22.6919 27.2959 22.9504 27.3953L30.515 30.5194L28.8905 31.2686ZM33.2921 12.1511C33.3487 11.7448 33.5543 11.3748 33.8691 11.1129C34.4173 10.7186 35.4169 10.7764 36.7528 11.2761L50.8248 16.7646L44.4038 19.7636L33.2921 12.1511ZM24.6418 26.0305L26.3142 23.0605L36.1472 25.5016C36.3591 25.5552 36.5827 25.535 36.782 25.4444L68.7416 10.517C70.0122 9.89026 71.4431 9.66209 72.8458 9.86316C73.8295 9.95377 74.7058 10.5215 75.1913 11.3817C75.998 13.1122 74.4123 15.6401 71.7303 16.8896L60.6575 22.0804L61.3305 20.0901C61.5006 19.5781 61.2228 19.0249 60.7108 18.8551C60.1982 18.6854 59.6452 18.9632 59.4754 19.4752L51.5647 43.0145C51.0936 44.3509 50.5073 45.1489 49.8538 45.3214C49.4489 45.3993 49.0299 45.3199 48.6811 45.1008L50.6036 24.9153C50.6538 24.3846 50.2646 23.9135 49.7334 23.8633C49.2027 23.8124 48.7316 24.2022 48.6811 24.7329L48.3834 27.8182L31.8888 35.5077L30.5343 32.624L33.2442 31.3556C33.5931 31.2018 33.818 30.8568 33.818 30.4761C33.818 30.095 33.5931 29.75 33.2442 29.5965L24.6418 26.0305Z" fill="white"/>
</g>
<g clip-path="url(#clip1_30_62)">
<path d="M35.9866 70.9555C35.9866 70.9555 30.309 67.4522 30.3019 67.4478C29.8932 67.1956 29.343 67.3286 29.0916 67.7342C28.8397 68.1407 28.9734 68.6941 29.3781 68.9436C29.3781 68.9436 35.0594 72.4492 35.0629 72.4513C35.4713 72.7033 36.0212 72.5736 36.2723 72.1649C36.5234 71.756 36.3954 71.2075 35.9866 70.9555Z" fill="white"/>
<path d="M26.8482 65.471C26.2868 65.4709 25.8635 66.0053 25.9918 66.5516C26.0429 66.7692 26.1925 66.9669 26.3895 67.0917C26.5248 67.1774 26.6825 67.2288 26.8462 67.2288C27.1537 67.2288 27.4341 67.0733 27.595 66.8115C27.9376 66.2538 27.5069 65.4711 26.8482 65.471Z" fill="white"/>
<path d="M17.7471 67.6887C17.4991 67.2939 16.9275 67.1662 16.5349 67.4143C16.5349 67.4143 10.8939 70.9714 10.8844 70.9773C10.4779 71.2336 10.3539 71.7828 10.6099 72.1889C10.7638 72.4332 11.0608 72.5763 11.3548 72.5846C11.5202 72.5893 11.6846 72.5512 11.8222 72.4644C11.8222 72.4644 17.4687 68.903 17.4727 68.9005C17.8791 68.6442 18.0025 68.0955 17.7471 67.6887Z" fill="white"/>
<path d="M19.9759 65.4033C19.5677 65.4033 19.2101 65.6902 19.1198 66.0878C18.9969 66.6295 19.4257 67.1611 19.9776 67.1611C20.385 67.1611 20.7446 66.8743 20.8346 66.4764C20.9577 65.9315 20.5328 65.4033 19.9759 65.4033Z" fill="white"/>
<path d="M45.5772 84.9214L45.4514 85.0307L45.5771 84.9213C45.1982 84.4855 44.5378 84.4396 44.102 84.8184C44.0083 84.8999 43.9158 84.9813 43.8238 85.062C42.9846 85.7992 42.2006 86.488 41.1328 86.7831C39.8639 87.1337 38.6496 86.8817 37.4739 86.3172L42.011 71.0517C42.1466 70.596 41.9573 70.1061 41.5507 69.8597L41.4643 70.0022L41.5507 69.8597L37.3961 67.3424V59.9433C37.3961 59.366 36.928 58.8978 36.3506 58.8978H34.7594V56.4277C34.7594 55.8503 34.2913 55.3821 33.7139 55.3821H31.112V52.9121C31.112 52.3347 30.6439 51.8665 30.0664 51.8665H25.9704V45.8809C25.9704 45.3035 25.5023 44.8353 24.9248 44.8353H21.4092C20.8317 44.8353 20.3636 45.3035 20.3636 45.8809V51.8665H16.2676C15.6901 51.8665 15.222 52.3347 15.222 52.9121V55.3821H12.6201C12.0427 55.3821 11.5746 55.8503 11.5746 56.4277V58.8978H9.98343C9.40595 58.8978 8.93786 59.366 8.93786 59.9433V67.3424L4.78342 69.8596C4.37669 70.106 4.18754 70.5959 4.32305 71.0517L4.40246 71.0281C4.32305 71.0517 4.32307 71.0517 4.3231 71.0518L4.32325 71.0524L4.32388 71.0545L4.32635 71.0628L4.33614 71.0957L4.37432 71.2242L4.51924 71.7118L5.03651 73.4521L6.60628 78.7337L8.17642 84.0165L8.69414 85.7584L8.77001 86.0137C8.62447 85.9661 8.45241 85.9249 8.28151 85.8901C7.90652 85.8136 7.5135 85.7632 7.36489 85.7441C7.35524 85.7429 7.34661 85.7418 7.33909 85.7408C4.70437 85.3998 2.70963 86.7256 0.859847 88.334C0.424041 88.7129 0.37806 89.3732 0.756846 89.809L0.756864 89.809C1.11908 90.2255 1.78979 90.2963 2.23186 89.912C3.17633 89.0909 4.16648 88.3809 5.22182 88.0275C6.26983 87.6765 7.38715 87.6754 8.60099 88.2824L8.67448 88.1354L8.601 88.2824C10.897 89.4303 13.3115 89.9404 15.747 88.6587L15.6694 88.5112L15.747 88.6587C17.6621 87.6507 19.4324 86.8286 21.4803 87.8037L23.6711 88.8469C25.5918 89.7616 27.7857 89.7405 29.6883 88.7891C29.9176 88.6744 30.1423 88.5552 30.3667 88.4362C30.7166 88.2505 31.0656 88.0653 31.429 87.8991C32.0175 87.63 32.6141 87.426 33.2392 87.3831C34.4738 87.2983 35.6779 87.7578 36.7977 88.3181L36.7977 88.3182C38.3229 89.0808 40.1067 89.2326 41.7426 88.7663C43.2391 88.3396 44.3293 87.3917 45.4392 86.4266L45.474 86.3963C45.91 86.0174 45.9559 85.3571 45.5772 84.9214ZM20.9066 85.4142L20.9066 85.4142C19.3396 85.0751 17.6574 85.2901 16.2351 86.0387C16.0707 86.1253 15.9085 86.2133 15.7475 86.3007C14.9063 86.7573 14.0976 87.1962 13.1638 87.3164L13.1615 87.3167L13.1587 87.317C13.1585 87.3171 13.1584 87.3171 13.1582 87.3171C12.5373 87.3925 11.9032 87.3522 11.3011 87.1894L6.55744 71.2298L22.1214 61.7994V61.814V61.8321V61.8506V61.8697V61.8892V61.9092V61.9297V61.9507V61.9721V61.994V62.0164V62.0392V62.0625V62.0863V62.1105V62.1352V62.1603V62.1859V62.2119V62.2384V62.2653V62.2927V62.3205V62.3487V62.3774V62.4065V62.4361V62.466V62.4965V62.5273V62.5586V62.5902V62.6223V62.6548V62.6878V62.7211V62.7549V62.789V62.8236V62.8586V62.894V62.9297V62.9659V63.0025V63.0394V63.0768V63.1145V63.1526V63.1912V63.23V63.2693V63.309V63.349V63.3894V63.4302V63.4713V63.5128V63.5547V63.5969V63.6395V63.6824V63.7257V63.7694V63.8134V63.8578V63.9025V63.9475V63.9929V64.0386V64.0847V64.1311V64.1778V64.2249V64.2723V64.32V64.3681V64.4165V64.4652V64.5142V64.5635V64.6132V64.6631V64.7134V64.7639V64.8148V64.866V64.9175V64.9693V65.0213V65.0737V65.1264V65.1793V65.2326V65.2861V65.3399V65.394V65.4483V65.503V65.5579V65.6131V65.6686V65.7243V65.7803V65.8365V65.8931V65.9498V66.0069V66.0642V66.1217V66.1795V66.2375V66.2958V66.3543V66.4131V66.4721V66.5314V66.5909V66.6506V66.7105V66.7707V66.8311V66.8917V66.9526V67.0136V67.0749V67.1364V67.1981V67.26V67.3222V67.3845V67.447V67.5098V67.5727V67.6359V67.6992V67.7627V67.8264V67.8904V67.9545V68.0187V68.0832V68.1478V68.2126V68.2776V68.3428V68.4081V68.4737V68.5393V68.6052V68.6712V68.7373V68.8037V68.8701V68.9368V69.0035V69.0705V69.1376V69.2048V69.2721V69.3396V69.4073V69.4751V69.543V69.611V69.6792V69.7475V69.8159V69.8845V69.9532V70.0219V70.0909V70.1599V70.229V70.2983V70.3676V70.4371V70.5066V70.5763V70.646V70.7159V70.7858V70.8559V70.926V70.9962V71.0665V71.1369V71.2074V71.2779V71.3486V71.4193V71.49V71.5609V71.6318V71.7028V71.7738V71.8449V71.9161V71.9873V72.0586V72.1299V72.2013V72.2727V72.3442V72.4157V72.4872V72.5588V72.6305V72.7021V72.7738V72.8456V72.9173V72.9891V73.0609V73.1328V73.2046V73.2765V73.3484V73.4203V73.4922V73.5641V73.636V73.7079V73.7799V73.8518V73.9237V73.9957V74.0676V74.1395V74.2114V74.2833V74.3551V74.427V74.4988V74.5706V74.6424V74.7142V74.7859V74.8576V74.9293V75.0009V75.0725V75.1441V75.2156V75.2871V75.3585V75.4299V75.5012V75.5725V75.6437V75.7148V75.7859V75.857V75.928V75.9989V76.0697V76.1405V76.2112V76.2818V76.3524V76.4228V76.4932V76.5635V76.6338V76.7039V76.7739V76.8439V76.9137V76.9835V77.0532V77.1227V77.1922V77.2615V77.3308V77.3999V77.4689V77.5378V77.6066V77.6753V77.7438V77.8123V77.8806V77.9488V78.0168V78.0847V78.1525V78.2201V78.2877V78.355V78.4222V78.4893V78.5563V78.623V78.6897V78.7561V78.8225V78.8886V78.9546V79.0205V79.0862V79.1517V79.217V79.2822V79.3472V79.412V79.4766V79.5411V79.6054V79.6695V79.7334V79.7971V79.8606V79.924V79.9871V80.0501V80.1128V80.1753V80.2377V80.2998V80.3617V80.4235V80.4849V80.5462V80.6073V80.6681V80.7288V80.7892V80.8493V80.9093V80.969V81.0285V81.0877V81.1468V81.2055V81.2641V81.3224V81.3804V81.4382V81.4957V81.553V81.6101V81.6668V81.7234V81.7796V81.8356V81.8914V81.9468V82.002V82.0569V82.1116V82.166V82.22V82.2739V82.3274V82.3806V82.4336V82.4862V82.5386V82.5907V82.6425V82.694V82.7451V82.796V82.8466V82.8969V82.9468V82.9965V83.0458V83.0948V83.1435V83.1919V83.2399V83.2877V83.3351V83.3822V83.4289V83.4753V83.5214V83.5671V83.6125V83.6576V83.7023V83.7466V83.7906V83.8343V83.8776V83.9206V83.9632V84.0054V84.0473V84.0888V84.1299V84.1707V84.2111V84.2511V84.2908V84.33V84.3689V84.4074V84.4456V84.4833V84.5207V84.5576V84.5942V84.6304V84.6662V84.7015V84.7365V84.7711V84.8053V84.839V84.8724V84.9053V84.9378V84.9699V85.0016V85.0329V85.0637V85.0941V85.1241V85.1537V85.1828V85.2115V85.2397V85.2675V85.2949V85.3218V85.3483V85.3744V85.3999V85.4251V85.4497V85.474V85.4977V85.521V85.5439V85.5662V85.5882V85.6096V85.6306V85.651V85.6711V85.6906V85.7096V85.7282V85.7463V85.7541C21.9974 85.7052 21.8422 85.6561 21.6873 85.6116C21.3488 85.5142 20.9907 85.4324 20.9066 85.4142ZM35.305 60.9889V66.0753L26.9103 60.9889H35.305ZM22.4548 46.9264H23.8792V51.8665H22.4548V46.9264ZM17.3132 53.9577H29.0208V55.3821H17.3132V53.9577ZM11.029 60.9889H19.4237L11.029 66.0753V60.9889ZM13.6657 58.8978V57.4733H32.6683V58.8978H13.6657ZM39.7766 71.2298L35.5537 85.4372C35.4787 85.4137 35.3887 85.3949 35.2925 85.3793C35.0499 85.3401 34.7289 85.3151 34.4083 85.2994C34.0863 85.2837 33.7594 85.2771 33.5025 85.2755C33.2515 85.274 33.0547 85.2771 33.0018 85.2827C31.6664 85.424 30.4832 86.0322 29.3381 86.6208C29.1422 86.7215 28.9473 86.8217 28.753 86.9188C27.255 87.6679 25.7087 87.4787 24.2126 86.788V61.7994L39.7766 71.2298Z" fill="white" stroke="white" stroke-width="0.333333"/>
</g>
<g clip-path="url(#clip2_30_62)">
<path d="M62.0066 80.6023C62.0948 80.6612 62.1985 80.6927 62.3046 80.6927L62.0066 80.6023ZM62.0066 80.6023C61.9184 80.5434 61.8497 80.4596 61.8091 80.3615M62.0066 80.6023L61.8091 80.3615M61.8091 80.3615C61.7685 80.2635 61.7578 80.1557 61.7785 80.0516M61.8091 80.3615L61.7785 80.0516M61.7785 80.0516C61.7992 79.9475 61.8503 79.8519 61.9254 79.7769M61.7785 80.0516L61.9254 79.7769M61.9254 79.7769C62.0004 79.7019 62.096 79.6508 62.2 79.6301M61.9254 79.7769L62.2 79.6301M62.2 79.6301C62.3041 79.6094 62.412 79.62 62.51 79.6606M62.2 79.6301L62.51 79.6606M62.51 79.6606C62.608 79.7012 62.6918 79.77 62.7507 79.8582M62.51 79.6606L62.7507 79.8582M62.7507 79.8582C62.8097 79.9464 62.8411 80.0501 62.8411 80.1563M62.7507 79.8582L62.8411 80.1563M62.8411 80.1563C62.8409 80.2985 62.7844 80.4348 62.6838 80.5354C62.5832 80.6359 62.4469 80.6925 62.3047 80.6927L62.8411 80.1563ZM62.3049 77.8802H62.3047C61.8545 77.8802 61.4145 78.0137 61.0402 78.2638C60.6659 78.5139 60.3742 78.8694 60.2019 79.2852C60.0296 79.7011 59.9846 80.1588 60.0724 80.6003C60.1602 81.0418 60.377 81.4473 60.6953 81.7657C61.0136 82.084 61.4191 82.3007 61.8607 82.3886C62.3022 82.4764 62.7598 82.4313 63.1757 82.259C63.5916 82.0868 63.9471 81.795 64.1971 81.4208C64.4472 81.0465 64.5807 80.6064 64.5807 80.1563L64.5807 80.1561C64.5801 79.5527 64.3401 78.9742 63.9134 78.5475C63.4867 78.1209 62.9083 77.8809 62.3049 77.8802Z" fill="white" stroke="white" stroke-width="0.333333"/>
<path d="M88.7254 80.6023C88.8136 80.6612 88.9173 80.6927 89.0233 80.6927L88.7254 80.6023ZM88.7254 80.6023C88.6372 80.5434 88.5684 80.4596 88.5278 80.3615M88.7254 80.6023L88.5278 80.3615M88.5278 80.3615C88.4872 80.2635 88.4766 80.1557 88.4973 80.0516M88.5278 80.3615L88.4973 80.0516M88.4973 80.0516C88.518 79.9475 88.5691 79.8519 88.6441 79.7769M88.4973 80.0516L88.6441 79.7769M88.6441 79.7769C88.7191 79.7019 88.8147 79.6508 88.9188 79.6301M88.6441 79.7769L88.9188 79.6301M88.9188 79.6301C89.0228 79.6094 89.1307 79.62 89.2287 79.6606M88.9188 79.6301L89.2287 79.6606M89.2287 79.6606C89.3268 79.7012 89.4105 79.77 89.4695 79.8582M89.2287 79.6606L89.4695 79.8582M89.4695 79.8582C89.5284 79.9464 89.5599 80.0501 89.5599 80.1563M89.4695 79.8582L89.5599 80.1563M89.5599 80.1563C89.5597 80.2985 89.5031 80.4348 89.4025 80.5354C89.302 80.6359 89.1657 80.6925 89.0234 80.6927L89.5599 80.1563ZM89.0236 77.8802H89.0234C88.5733 77.8802 88.1332 78.0137 87.7589 78.2638C87.3846 78.5139 87.0929 78.8694 86.9207 79.2852C86.7484 79.7011 86.7033 80.1588 86.7911 80.6003C86.879 81.0418 87.0957 81.4473 87.414 81.7657C87.7323 82.084 88.1379 82.3007 88.5794 82.3886C89.0209 82.4764 89.4785 82.4313 89.8944 82.259C90.3103 82.0868 90.6658 81.795 90.9159 81.4208C91.166 81.0465 91.2995 80.6064 91.2995 80.1563L91.2995 80.1561C91.2988 79.5527 91.0588 78.9742 90.6321 78.5475C90.2055 78.1209 89.627 77.8809 89.0236 77.8802Z" fill="white" stroke="white" stroke-width="0.333333"/>
<mask id="path-9-outside-1_30_62" maskUnits="userSpaceOnUse" x="52.8672" y="51.0312" width="45" height="35" fill="black">
<rect fill="white" x="52.8672" y="51.0312" width="45" height="35"/>
<path d="M97.3493 68.5257L91.0212 58.6819C90.9575 58.583 90.8699 58.5015 90.7666 58.4452C90.6632 58.3888 90.5474 58.3593 90.4297 58.3594H81.9922V54.4922C81.9915 53.8397 81.732 53.2142 81.2706 52.7528C80.8092 52.2915 80.1837 52.032 79.5312 52.0312H56.3281C55.6757 52.032 55.0501 52.2915 54.5888 52.7528C54.1274 53.2142 53.8679 53.8397 53.8672 54.4922V80.1562C53.8672 80.3427 53.9413 80.5216 54.0731 80.6534C54.205 80.7853 54.3838 80.8594 54.5703 80.8594H57.4338C57.6028 82.0307 58.1882 83.1019 59.0828 83.8766C59.9774 84.6514 61.1212 85.0779 62.3047 85.0779C63.4881 85.0779 64.632 84.6514 65.5265 83.8766C66.4211 83.1019 67.0066 82.0307 67.1756 80.8594H84.1525C84.3216 82.0307 84.907 83.1019 85.8016 83.8766C86.6962 84.6514 87.84 85.0779 89.0234 85.0779C90.2069 85.0779 91.3507 84.6514 92.2453 83.8766C93.1399 83.1019 93.7253 82.0307 93.8943 80.8594H96.7578C96.9443 80.8594 97.1231 80.7853 97.255 80.6534C97.3869 80.5216 97.4609 80.3427 97.4609 80.1562V68.9062C97.4609 68.7713 97.4222 68.6392 97.3493 68.5257ZM62.3047 83.6719C61.6094 83.6719 60.9297 83.4657 60.3515 83.0794C59.7734 82.6931 59.3228 82.144 59.0567 81.5016C58.7906 80.8592 58.721 80.1523 58.8566 79.4704C58.9923 78.7884 59.3271 78.162 59.8188 77.6703C60.3104 77.1786 60.9369 76.8438 61.6188 76.7082C62.3008 76.5725 63.0077 76.6421 63.6501 76.9082C64.2925 77.1743 64.8415 77.6249 65.2278 78.2031C65.6141 78.7812 65.8203 79.4609 65.8203 80.1562C65.8194 81.0884 65.4487 81.982 64.7896 82.6411C64.1305 83.3002 63.2368 83.6709 62.3047 83.6719ZM80.5859 79.4531H67.1756C67.0066 78.2818 66.4211 77.2106 65.5265 76.4358C64.632 75.6611 63.4881 75.2346 62.3047 75.2346C61.1212 75.2346 59.9774 75.6611 59.0828 76.4358C58.1882 77.2106 57.6028 78.2818 57.4338 79.4531H55.2734V72.4219H80.5859V79.4531ZM80.5859 71.0156H55.2734V54.4922C55.2737 54.2125 55.3849 53.9444 55.5826 53.7467C55.7803 53.5489 56.0485 53.4377 56.3281 53.4375H79.5312C79.8109 53.4377 80.079 53.5489 80.2768 53.7467C80.4745 53.9444 80.5857 54.2125 80.5859 54.4922V71.0156ZM91.4018 61.875L95.4702 68.2031H85.5078V61.875H91.4018ZM89.0234 83.6719C88.3281 83.6719 87.6484 83.4657 87.0703 83.0794C86.4921 82.6931 86.0415 82.144 85.7754 81.5016C85.5093 80.8592 85.4397 80.1523 85.5754 79.4704C85.711 78.7884 86.0458 78.162 86.5375 77.6703C87.0292 77.1786 87.6556 76.8438 88.3376 76.7082C89.0195 76.5725 89.7264 76.6421 90.3688 76.9082C91.0112 77.1743 91.5603 77.6249 91.9466 78.2031C92.3329 78.7812 92.5391 79.4609 92.5391 80.1562C92.5381 81.0884 92.1674 81.982 91.5083 82.6411C90.8492 83.3002 89.9556 83.6709 89.0234 83.6719ZM96.0547 73.8281H94.6484C94.462 73.8281 94.2831 73.754 94.1513 73.6222C94.0194 73.4903 93.9453 73.3115 93.9453 73.125C93.9453 72.9385 94.0194 72.7597 94.1513 72.6278C94.2831 72.4959 94.462 72.4219 94.6484 72.4219H96.0547V73.8281ZM96.0547 71.0156H94.6484C94.089 71.0156 93.5525 71.2379 93.1569 71.6334C92.7613 72.029 92.5391 72.5656 92.5391 73.125C92.5391 73.6844 92.7613 74.221 93.1569 74.6165C93.5525 75.0121 94.089 75.2344 94.6484 75.2344H96.0547V79.4531H93.8943C93.7253 78.2818 93.1399 77.2106 92.2453 76.4358C91.3507 75.6611 90.2069 75.2346 89.0234 75.2346C87.84 75.2346 86.6962 75.6611 85.8016 76.4358C84.907 77.2106 84.3216 78.2818 84.1525 79.4531H81.9922V59.7656H90.0456L90.4982 60.4687H84.8047C84.6182 60.4687 84.4394 60.5428 84.3075 60.6747C84.1756 60.8065 84.1016 60.9854 84.1016 61.1719V68.9062C84.1016 69.0927 84.1756 69.2716 84.3075 69.4034C84.4394 69.5353 84.6182 69.6094 84.8047 69.6094H96.0547V71.0156Z"/>
</mask>
<path d="M97.3493 68.5257L91.0212 58.6819C90.9575 58.583 90.8699 58.5015 90.7666 58.4452C90.6632 58.3888 90.5474 58.3593 90.4297 58.3594H81.9922V54.4922C81.9915 53.8397 81.732 53.2142 81.2706 52.7528C80.8092 52.2915 80.1837 52.032 79.5312 52.0312H56.3281C55.6757 52.032 55.0501 52.2915 54.5888 52.7528C54.1274 53.2142 53.8679 53.8397 53.8672 54.4922V80.1562C53.8672 80.3427 53.9413 80.5216 54.0731 80.6534C54.205 80.7853 54.3838 80.8594 54.5703 80.8594H57.4338C57.6028 82.0307 58.1882 83.1019 59.0828 83.8766C59.9774 84.6514 61.1212 85.0779 62.3047 85.0779C63.4881 85.0779 64.632 84.6514 65.5265 83.8766C66.4211 83.1019 67.0066 82.0307 67.1756 80.8594H84.1525C84.3216 82.0307 84.907 83.1019 85.8016 83.8766C86.6962 84.6514 87.84 85.0779 89.0234 85.0779C90.2069 85.0779 91.3507 84.6514 92.2453 83.8766C93.1399 83.1019 93.7253 82.0307 93.8943 80.8594H96.7578C96.9443 80.8594 97.1231 80.7853 97.255 80.6534C97.3869 80.5216 97.4609 80.3427 97.4609 80.1562V68.9062C97.4609 68.7713 97.4222 68.6392 97.3493 68.5257ZM62.3047 83.6719C61.6094 83.6719 60.9297 83.4657 60.3515 83.0794C59.7734 82.6931 59.3228 82.144 59.0567 81.5016C58.7906 80.8592 58.721 80.1523 58.8566 79.4704C58.9923 78.7884 59.3271 78.162 59.8188 77.6703C60.3104 77.1786 60.9369 76.8438 61.6188 76.7082C62.3008 76.5725 63.0077 76.6421 63.6501 76.9082C64.2925 77.1743 64.8415 77.6249 65.2278 78.2031C65.6141 78.7812 65.8203 79.4609 65.8203 80.1562C65.8194 81.0884 65.4487 81.982 64.7896 82.6411C64.1305 83.3002 63.2368 83.6709 62.3047 83.6719ZM80.5859 79.4531H67.1756C67.0066 78.2818 66.4211 77.2106 65.5265 76.4358C64.632 75.6611 63.4881 75.2346 62.3047 75.2346C61.1212 75.2346 59.9774 75.6611 59.0828 76.4358C58.1882 77.2106 57.6028 78.2818 57.4338 79.4531H55.2734V72.4219H80.5859V79.4531ZM80.5859 71.0156H55.2734V54.4922C55.2737 54.2125 55.3849 53.9444 55.5826 53.7467C55.7803 53.5489 56.0485 53.4377 56.3281 53.4375H79.5312C79.8109 53.4377 80.079 53.5489 80.2768 53.7467C80.4745 53.9444 80.5857 54.2125 80.5859 54.4922V71.0156ZM91.4018 61.875L95.4702 68.2031H85.5078V61.875H91.4018ZM89.0234 83.6719C88.3281 83.6719 87.6484 83.4657 87.0703 83.0794C86.4921 82.6931 86.0415 82.144 85.7754 81.5016C85.5093 80.8592 85.4397 80.1523 85.5754 79.4704C85.711 78.7884 86.0458 78.162 86.5375 77.6703C87.0292 77.1786 87.6556 76.8438 88.3376 76.7082C89.0195 76.5725 89.7264 76.6421 90.3688 76.9082C91.0112 77.1743 91.5603 77.6249 91.9466 78.2031C92.3329 78.7812 92.5391 79.4609 92.5391 80.1562C92.5381 81.0884 92.1674 81.982 91.5083 82.6411C90.8492 83.3002 89.9556 83.6709 89.0234 83.6719ZM96.0547 73.8281H94.6484C94.462 73.8281 94.2831 73.754 94.1513 73.6222C94.0194 73.4903 93.9453 73.3115 93.9453 73.125C93.9453 72.9385 94.0194 72.7597 94.1513 72.6278C94.2831 72.4959 94.462 72.4219 94.6484 72.4219H96.0547V73.8281ZM96.0547 71.0156H94.6484C94.089 71.0156 93.5525 71.2379 93.1569 71.6334C92.7613 72.029 92.5391 72.5656 92.5391 73.125C92.5391 73.6844 92.7613 74.221 93.1569 74.6165C93.5525 75.0121 94.089 75.2344 94.6484 75.2344H96.0547V79.4531H93.8943C93.7253 78.2818 93.1399 77.2106 92.2453 76.4358C91.3507 75.6611 90.2069 75.2346 89.0234 75.2346C87.84 75.2346 86.6962 75.6611 85.8016 76.4358C84.907 77.2106 84.3216 78.2818 84.1525 79.4531H81.9922V59.7656H90.0456L90.4982 60.4687H84.8047C84.6182 60.4687 84.4394 60.5428 84.3075 60.6747C84.1756 60.8065 84.1016 60.9854 84.1016 61.1719V68.9062C84.1016 69.0927 84.1756 69.2716 84.3075 69.4034C84.4394 69.5353 84.6182 69.6094 84.8047 69.6094H96.0547V71.0156Z" fill="white"/>
<path d="M97.3493 68.5257L91.0212 58.6819C90.9575 58.583 90.8699 58.5015 90.7666 58.4452C90.6632 58.3888 90.5474 58.3593 90.4297 58.3594H81.9922V54.4922C81.9915 53.8397 81.732 53.2142 81.2706 52.7528C80.8092 52.2915 80.1837 52.032 79.5312 52.0312H56.3281C55.6757 52.032 55.0501 52.2915 54.5888 52.7528C54.1274 53.2142 53.8679 53.8397 53.8672 54.4922V80.1562C53.8672 80.3427 53.9413 80.5216 54.0731 80.6534C54.205 80.7853 54.3838 80.8594 54.5703 80.8594H57.4338C57.6028 82.0307 58.1882 83.1019 59.0828 83.8766C59.9774 84.6514 61.1212 85.0779 62.3047 85.0779C63.4881 85.0779 64.632 84.6514 65.5265 83.8766C66.4211 83.1019 67.0066 82.0307 67.1756 80.8594H84.1525C84.3216 82.0307 84.907 83.1019 85.8016 83.8766C86.6962 84.6514 87.84 85.0779 89.0234 85.0779C90.2069 85.0779 91.3507 84.6514 92.2453 83.8766C93.1399 83.1019 93.7253 82.0307 93.8943 80.8594H96.7578C96.9443 80.8594 97.1231 80.7853 97.255 80.6534C97.3869 80.5216 97.4609 80.3427 97.4609 80.1562V68.9062C97.4609 68.7713 97.4222 68.6392 97.3493 68.5257ZM62.3047 83.6719C61.6094 83.6719 60.9297 83.4657 60.3515 83.0794C59.7734 82.6931 59.3228 82.144 59.0567 81.5016C58.7906 80.8592 58.721 80.1523 58.8566 79.4704C58.9923 78.7884 59.3271 78.162 59.8188 77.6703C60.3104 77.1786 60.9369 76.8438 61.6188 76.7082C62.3008 76.5725 63.0077 76.6421 63.6501 76.9082C64.2925 77.1743 64.8415 77.6249 65.2278 78.2031C65.6141 78.7812 65.8203 79.4609 65.8203 80.1562C65.8194 81.0884 65.4487 81.982 64.7896 82.6411C64.1305 83.3002 63.2368 83.6709 62.3047 83.6719ZM80.5859 79.4531H67.1756C67.0066 78.2818 66.4211 77.2106 65.5265 76.4358C64.632 75.6611 63.4881 75.2346 62.3047 75.2346C61.1212 75.2346 59.9774 75.6611 59.0828 76.4358C58.1882 77.2106 57.6028 78.2818 57.4338 79.4531H55.2734V72.4219H80.5859V79.4531ZM80.5859 71.0156H55.2734V54.4922C55.2737 54.2125 55.3849 53.9444 55.5826 53.7467C55.7803 53.5489 56.0485 53.4377 56.3281 53.4375H79.5312C79.8109 53.4377 80.079 53.5489 80.2768 53.7467C80.4745 53.9444 80.5857 54.2125 80.5859 54.4922V71.0156ZM91.4018 61.875L95.4702 68.2031H85.5078V61.875H91.4018ZM89.0234 83.6719C88.3281 83.6719 87.6484 83.4657 87.0703 83.0794C86.4921 82.6931 86.0415 82.144 85.7754 81.5016C85.5093 80.8592 85.4397 80.1523 85.5754 79.4704C85.711 78.7884 86.0458 78.162 86.5375 77.6703C87.0292 77.1786 87.6556 76.8438 88.3376 76.7082C89.0195 76.5725 89.7264 76.6421 90.3688 76.9082C91.0112 77.1743 91.5603 77.6249 91.9466 78.2031C92.3329 78.7812 92.5391 79.4609 92.5391 80.1562C92.5381 81.0884 92.1674 81.982 91.5083 82.6411C90.8492 83.3002 89.9556 83.6709 89.0234 83.6719ZM96.0547 73.8281H94.6484C94.462 73.8281 94.2831 73.754 94.1513 73.6222C94.0194 73.4903 93.9453 73.3115 93.9453 73.125C93.9453 72.9385 94.0194 72.7597 94.1513 72.6278C94.2831 72.4959 94.462 72.4219 94.6484 72.4219H96.0547V73.8281ZM96.0547 71.0156H94.6484C94.089 71.0156 93.5525 71.2379 93.1569 71.6334C92.7613 72.029 92.5391 72.5656 92.5391 73.125C92.5391 73.6844 92.7613 74.221 93.1569 74.6165C93.5525 75.0121 94.089 75.2344 94.6484 75.2344H96.0547V79.4531H93.8943C93.7253 78.2818 93.1399 77.2106 92.2453 76.4358C91.3507 75.6611 90.2069 75.2346 89.0234 75.2346C87.84 75.2346 86.6962 75.6611 85.8016 76.4358C84.907 77.2106 84.3216 78.2818 84.1525 79.4531H81.9922V59.7656H90.0456L90.4982 60.4687H84.8047C84.6182 60.4687 84.4394 60.5428 84.3075 60.6747C84.1756 60.8065 84.1016 60.9854 84.1016 61.1719V68.9062C84.1016 69.0927 84.1756 69.2716 84.3075 69.4034C84.4394 69.5353 84.6182 69.6094 84.8047 69.6094H96.0547V71.0156Z" stroke="white" stroke-width="0.666667" mask="url(#path-9-outside-1_30_62)"/>
<path d="M86.9141 70.849H84.8047C84.574 70.849 84.3528 70.9406 84.1897 71.1037C84.0265 71.2668 83.9349 71.4881 83.9349 71.7188C83.9349 71.9494 84.0265 72.1707 84.1897 72.3338C84.3528 72.4969 84.574 72.5885 84.8047 72.5885H86.9141C87.1447 72.5885 87.366 72.4969 87.5291 72.3338C87.6922 72.1707 87.7839 71.9494 87.7839 71.7188C87.7839 71.4881 87.6922 71.2668 87.5291 71.1037C87.366 70.9406 87.1447 70.849 86.9141 70.849Z" fill="white" stroke="white" stroke-width="0.333333"/>
<path d="M72.1484 75.401H77.7734C78.0041 75.401 78.2254 75.3094 78.3885 75.1463C78.5516 74.9832 78.6432 74.7619 78.6432 74.5312C78.6432 74.3006 78.5516 74.0793 78.3885 73.9162C78.2254 73.7531 78.0041 73.6615 77.7734 73.6615H72.1484C71.9178 73.6615 71.6965 73.7531 71.5334 73.9162C71.3703 74.0793 71.2786 74.3006 71.2786 74.5312C71.2786 74.7619 71.3703 74.9832 71.5334 75.1463C71.6965 75.3094 71.9178 75.401 72.1484 75.401Z" fill="white" stroke="white" stroke-width="0.333333"/>
<path d="M77.7734 75.7708H75.6641C75.4334 75.7708 75.2121 75.8625 75.049 76.0256C74.8859 76.1887 74.7943 76.4099 74.7943 76.6406C74.7943 76.8713 74.8859 77.0925 75.049 77.2557C75.2121 77.4188 75.4334 77.5104 75.6641 77.5104H77.7734C78.0041 77.5104 78.2254 77.4188 78.3885 77.2557C78.5516 77.0925 78.6432 76.8713 78.6432 76.6406C78.6432 76.4099 78.5516 76.1887 78.3885 76.0256C78.2254 75.8625 78.0041 75.7708 77.7734 75.7708Z" fill="white" stroke="white" stroke-width="0.333333"/>
</g>
<defs>
<clipPath id="clip0_30_62">
<rect width="55" height="55" fill="white" transform="translate(22.334)"/>
</clipPath>
<clipPath id="clip1_30_62">
<rect width="45" height="45" fill="white" transform="translate(0.666992 45)"/>
</clipPath>
<clipPath id="clip2_30_62">
<rect width="45" height="45" fill="white" transform="translate(53.1641 45)"/>
</clipPath>
</defs>
</svg>
