<svg width="100" height="100" viewBox="0 0 100 100" fill="none" xmlns="http://www.w3.org/2000/svg">
<path d="M27.8302 58.1683C28.9439 58.1683 30.0325 57.8309 30.9695 57.1811L56.3595 39.605C58.8069 37.9099 59.4787 34.609 57.89 32.0913C57.0946 30.833 55.8574 29.9614 54.4043 29.64C52.9542 29.3156 51.4599 29.5828 50.2066 30.3892L24.2381 47.0956C22.9778 47.906 22.1171 49.1593 21.8129 50.6255C21.5076 52.0907 21.7968 53.584 22.6253 54.8262L23.2057 55.6979C24.0372 56.9451 25.3056 57.7867 26.7778 58.0679C27.1293 58.1351 27.4808 58.1683 27.8302 58.1683ZM26.1281 53.7537L25.5476 52.88C25.2423 52.4241 25.1359 51.8778 25.2494 51.3415C25.3608 50.8032 25.6762 50.3443 26.1361 50.047L52.1056 33.3406C52.438 33.1277 52.8156 33.0182 53.2012 33.0182C53.3478 33.0182 53.4975 33.0333 53.6451 33.0664C54.1763 33.1839 54.6302 33.5043 54.9215 33.9652C55.5039 34.8881 55.2579 36.0982 54.3611 36.7188L28.9721 54.295C28.5191 54.6093 27.9748 54.7218 27.4366 54.6203C26.8963 54.5169 26.4313 54.2096 26.1281 53.7537Z" fill="white"/>
<path d="M96.4888 65.209C96.4888 57.7053 85.8208 43.0475 82.4486 38.6008V24.9834C82.4486 21.569 80.179 18.7069 77.0809 17.7388V11.5467C77.0809 8.06301 74.246 5.22906 70.7633 5.22906H60.4799C56.9973 5.22906 54.1623 8.06301 54.1623 11.5467V17.3592H53.153C51.6276 17.3592 50.1534 17.8091 48.8901 18.6627L16.4282 40.555C12.7115 43.0616 10.4932 47.2352 10.4932 51.7171V88.3847C10.4932 94.7897 15.7031 99.9997 22.1081 99.9997H70.8336C77.2386 99.9997 82.4496 94.7897 82.4496 88.3847V81.344C90.369 80.2333 96.4888 73.4306 96.4888 65.209ZM57.6731 11.5467C57.6731 9.99918 58.9324 8.73886 60.4799 8.73886H70.7633C72.3108 8.73886 73.5701 9.99918 73.5701 11.5467V17.3592H57.6731V11.5467ZM70.8336 96.4899H22.1071C17.6373 96.4899 14.002 92.8535 14.002 88.3847V51.7171C14.002 48.4031 15.6429 45.3181 18.3915 43.4643L50.8544 21.571C51.5352 21.112 52.3296 20.868 53.153 20.868H74.8254C77.092 20.868 78.9388 22.7148 78.9388 24.9824V37.3314C78.8946 37.3756 78.8333 37.3937 78.7942 37.4429C77.2657 39.4001 63.8662 56.8085 63.8662 65.209C63.8662 73.7851 70.5233 80.8208 78.9388 81.4585V88.3857C78.9388 92.8535 75.3035 96.4899 70.8336 96.4899ZM80.178 78.0109C73.1202 78.0109 67.377 72.2677 67.377 65.209C67.377 59.7339 75.6379 47.5144 80.178 41.4197C84.7202 47.5134 92.979 59.7299 92.979 65.209C92.979 72.2677 87.2348 78.0109 80.178 78.0109Z" fill="white"/>
<path d="M25.7716 25.36C29.2904 25.36 32.1545 22.4969 32.1545 18.977C32.1545 16.0457 28.3274 10.9161 27.1544 9.41372C26.4896 8.56213 25.0536 8.56213 24.3888 9.41372C23.2158 10.9161 19.3887 16.0457 19.3887 18.977C19.3897 22.4969 22.2527 25.36 25.7716 25.36ZM25.7716 13.4618C27.3231 15.7062 28.6447 18.0732 28.6447 18.977C28.6447 20.5607 27.3553 21.8502 25.7716 21.8502C24.1889 21.8502 22.8995 20.5607 22.8995 18.977C22.8995 18.0752 24.22 15.7073 25.7716 13.4618Z" fill="white"/>
<path d="M16.3596 10.202C16.3596 7.27066 12.5324 2.14103 11.3595 0.638693C10.6947 -0.212898 9.25864 -0.212898 8.59383 0.638693C7.42089 2.14103 3.59375 7.27066 3.59375 10.202C3.59375 13.7219 6.45783 16.5849 9.97666 16.5849C13.4955 16.5849 16.3596 13.7219 16.3596 10.202ZM9.97767 13.0751C8.39399 13.0751 7.10455 11.7857 7.10455 10.202C7.10455 9.30021 8.42613 6.93223 9.97767 4.68576C11.5282 6.93123 12.8498 9.29821 12.8498 10.202C12.8498 11.7867 11.5613 13.0751 9.97767 13.0751Z" fill="white"/>
<path d="M87.7142 62.2665C86.7441 62.2665 85.9588 63.0529 85.9588 64.0219C85.9588 67.4082 83.2032 70.1648 79.8159 70.1648C78.8458 70.1648 78.0615 70.9502 78.0615 71.9192C78.0615 72.8883 78.8458 73.6746 79.8159 73.6746C85.1384 73.6746 89.4686 69.3444 89.4686 64.0219C89.4686 63.0529 88.6843 62.2665 87.7142 62.2665Z" fill="white"/>
<path d="M64.8989 84.2051H28.0425C27.0724 84.2051 26.2881 84.9904 26.2881 85.9595C26.2881 86.9286 27.0724 87.7149 28.0425 87.7149H64.8989C65.869 87.7149 66.6533 86.9286 66.6533 85.9595C66.6533 84.9904 65.869 84.2051 64.8989 84.2051Z" fill="white"/>
</svg>
