<svg width="60" height="60" viewBox="0 0 60 60" fill="none" xmlns="http://www.w3.org/2000/svg">
<path fill-rule="evenodd" clip-rule="evenodd" d="M8.7868 51.2132C20.5025 62.9289 39.4975 62.9289 51.2133 51.2132C62.929 39.4975 62.929 20.5025 51.2133 8.78674C39.4975 -2.92899 20.5025 -2.92899 8.7868 8.78674C-2.92893 20.5025 -2.92893 39.4975 8.7868 51.2132ZM49.556 49.5559C38.7555 60.3564 21.2445 60.3564 10.4441 49.5559C-0.35636 38.7555 -0.35636 21.2445 10.4441 10.444C21.2445 -0.356415 38.7555 -0.356415 49.556 10.444C60.3564 21.2445 60.3564 38.7555 49.556 49.5559Z" fill="#40914E"/>
<path fill-rule="evenodd" clip-rule="evenodd" d="M12.5988 48.2215C13.793 49.3624 15.6383 49.5285 17.0112 48.5784L16.3449 47.6156L17.0112 48.5784C20.6991 46.026 25.1732 44.5312 30 44.5312C34.8268 44.5312 39.3009 46.026 42.9888 48.5784C44.3685 49.5332 46.2153 49.3553 47.4079 48.215C52.2024 43.6311 55.192 37.1702 55.1953 30.012C55.2018 16.0529 43.9945 4.82381 30.0352 4.80476C16.1039 4.78559 4.80469 16.0731 4.80469 30C4.80469 37.1662 7.79772 43.6345 12.5988 48.2215L12.5988 48.2215ZM15.6774 46.6512C15.234 46.958 14.6207 46.9117 14.2179 46.5268C9.86032 42.3637 7.14844 36.4999 7.14844 30C7.14844 17.3686 17.3965 7.13112 30.032 7.14851C42.6976 7.16579 52.8575 17.3452 52.8516 30.0109C52.8485 36.5034 50.1398 42.3605 45.7883 46.5209L46.5981 47.368L45.7882 46.5209C45.3797 46.9116 44.7645 46.957 44.3226 46.6512L44.3226 46.6511C40.2553 43.8363 35.3184 42.1875 30 42.1875C24.6816 42.1875 19.7447 43.8363 15.6774 46.6511L15.6774 46.6512Z" fill="#40914E"/>
<path d="M31.6573 31.6572C30.7421 32.5724 29.258 32.5724 28.3428 31.6572C27.4274 30.742 27.4274 29.2579 28.3428 28.3427C29.258 27.4273 30.7421 27.4273 31.6573 28.3427C32.5725 29.2579 32.5725 30.742 31.6573 31.6572Z" fill="#40914E"/>
<path fill-rule="evenodd" clip-rule="evenodd" d="M10.1867 35.3083C10.3542 35.9335 10.9967 36.3045 11.6219 36.137L14.452 35.3788C15.0772 35.2113 15.4482 34.5688 15.2807 33.9436C15.1132 33.3185 14.4706 32.9474 13.8455 33.1149L11.0154 33.8731C10.3902 34.0406 10.0192 34.6832 10.1867 35.3083Z" fill="#40914E"/>
<path fill-rule="evenodd" clip-rule="evenodd" d="M44.7189 26.0564C44.8864 26.6816 45.529 27.0526 46.1541 26.8851L48.9842 26.1269C49.6094 25.9594 49.9804 25.3168 49.8129 24.6917C49.6454 24.0665 49.0029 23.6955 48.3777 23.863L45.5476 24.6212C44.9225 24.7887 44.5514 25.4312 44.7189 26.0564Z" fill="#40914E"/>
<path fill-rule="evenodd" clip-rule="evenodd" d="M26.0559 15.2811C26.6811 15.1136 27.0521 14.471 26.8846 13.8459L26.1264 11.0158C25.9589 10.3906 25.3163 10.0196 24.6912 10.1871C24.066 10.3546 23.695 10.9971 23.8625 11.6223L24.6207 14.4524C24.7882 15.0775 25.4307 15.4486 26.0559 15.2811Z" fill="#40914E"/>
<path fill-rule="evenodd" clip-rule="evenodd" d="M33.9431 15.2811C34.5683 15.4486 35.2109 15.0775 35.3783 14.4524L36.1365 11.6223C36.304 10.9971 35.933 10.3546 35.3078 10.1871C34.6827 10.0196 34.0401 10.3906 33.8726 11.0158L33.1144 13.8459C32.9469 14.471 33.318 15.1136 33.9431 15.2811Z" fill="#40914E"/>
<path fill-rule="evenodd" clip-rule="evenodd" d="M40.7729 19.2271C41.2306 19.6847 41.9726 19.6847 42.4302 19.2271L44.5009 17.1564C44.9586 16.6987 44.9586 15.9567 44.5009 15.4991C44.0433 15.0414 43.3013 15.0414 42.8436 15.4991L40.7729 17.5698C40.3153 18.0274 40.3153 18.7694 40.7729 19.2271Z" fill="#40914E"/>
<path fill-rule="evenodd" clip-rule="evenodd" d="M49.8129 35.3083C49.9804 34.6832 49.6094 34.0406 48.9842 33.8731L46.1541 33.1149C45.529 32.9474 44.8864 33.3185 44.7189 33.9436C44.5514 34.5688 44.9225 35.2113 45.5476 35.3788L48.3777 36.137C49.0029 36.3045 49.6454 35.9335 49.8129 35.3083Z" fill="#40914E"/>
<path fill-rule="evenodd" clip-rule="evenodd" d="M15.2807 26.0564C15.4482 25.4312 15.0772 24.7887 14.452 24.6212L11.6219 23.863C10.9967 23.6955 10.3542 24.0665 10.1867 24.6917C10.0192 25.3168 10.3902 25.9594 11.0154 26.1269L13.8455 26.8851C14.4706 27.0526 15.1132 26.6816 15.2807 26.0564Z" fill="#40914E"/>
<path fill-rule="evenodd" clip-rule="evenodd" d="M19.2275 19.2271C19.6851 18.7694 19.6851 18.0274 19.2275 17.5698L17.1568 15.4991C16.6991 15.0414 15.9571 15.0414 15.4995 15.4991C15.0418 15.9567 15.0418 16.6987 15.4995 17.1564L17.5702 19.2271C18.0278 19.6847 18.7698 19.6847 19.2275 19.2271Z" fill="#40914E"/>
<path fill-rule="evenodd" clip-rule="evenodd" d="M30.8286 29.1713C31.2862 29.6289 32.0282 29.6289 32.4859 29.1713L44.5009 17.1563C44.9585 16.6986 44.9585 15.9567 44.5009 15.499C44.0432 15.0414 43.3012 15.0414 42.8436 15.499L30.8286 27.514C30.3709 27.9717 30.3709 28.7136 30.8286 29.1713Z" fill="#40914E"/>
<path d="M16.9619 38.2042C16.9619 38.8515 16.4373 39.3761 15.79 39.3761C15.1428 39.3761 14.6182 38.8515 14.6182 38.2042C14.6182 37.557 15.1428 37.0323 15.79 37.0323C16.4373 37.0323 16.9619 37.557 16.9619 38.2042Z" fill="#40914E"/>
<path d="M14.7656 30C14.7656 30.6472 14.241 31.1719 13.5937 31.1719C12.9465 31.1719 12.4219 30.6472 12.4219 30C12.4219 29.3528 12.9465 28.8281 13.5937 28.8281C14.241 28.8281 14.7656 29.3528 14.7656 30Z" fill="#40914E"/>
<path d="M16.9619 21.7957C16.9619 22.4429 16.4373 22.9675 15.79 22.9675C15.1428 22.9675 14.6182 22.4429 14.6182 21.7957C14.6182 21.1484 15.1428 20.6238 15.79 20.6238C16.4373 20.6238 16.9619 21.1484 16.9619 21.7957Z" fill="#40914E"/>
<path d="M22.9678 15.7898C22.9678 16.437 22.4431 16.9617 21.7959 16.9617C21.1487 16.9617 20.624 16.437 20.624 15.7898C20.624 15.1426 21.1487 14.6179 21.7959 14.6179C22.4431 14.6179 22.9678 15.1426 22.9678 15.7898Z" fill="#40914E"/>
<path d="M31.1719 13.5938C31.1719 14.241 30.6472 14.7656 30 14.7656C29.3528 14.7656 28.8281 14.241 28.8281 13.5938C28.8281 12.9465 29.3528 12.4219 30 12.4219C30.6472 12.4219 31.1719 12.9465 31.1719 13.5938Z" fill="#40914E"/>
<path d="M39.376 15.7898C39.376 16.437 38.8513 16.9617 38.2041 16.9617C37.5569 16.9617 37.0322 16.437 37.0322 15.7898C37.0322 15.1426 37.5569 14.6179 38.2041 14.6179C38.8513 14.6179 39.376 15.1426 39.376 15.7898Z" fill="#40914E"/>
<path d="M45.3818 21.7957C45.3818 22.4429 44.8572 22.9675 44.21 22.9675C43.5627 22.9675 43.0381 22.4429 43.0381 21.7957C43.0381 21.1484 43.5627 20.6238 44.21 20.6238C44.8572 20.6238 45.3818 21.1484 45.3818 21.7957Z" fill="#40914E"/>
<path d="M47.5781 30C47.5781 30.6472 47.0535 31.1719 46.4062 31.1719C45.759 31.1719 45.2344 30.6472 45.2344 30C45.2344 29.3528 45.759 28.8281 46.4062 28.8281C47.0535 28.8281 47.5781 29.3528 47.5781 30Z" fill="#40914E"/>
<path d="M45.3818 38.2042C45.3818 38.8515 44.8572 39.3761 44.21 39.3761C43.5627 39.3761 43.0381 38.8515 43.0381 38.2042C43.0381 37.557 43.5627 37.0323 44.21 37.0323C44.8572 37.0323 45.3818 37.557 45.3818 38.2042Z" fill="#40914E"/>
<path fill-rule="evenodd" clip-rule="evenodd" d="M24.1406 50.5078C24.1406 51.155 24.6653 51.6797 25.3125 51.6797H34.6875C35.3347 51.6797 35.8594 51.155 35.8594 50.5078C35.8594 49.8606 35.3347 49.3359 34.6875 49.3359H25.3125C24.6653 49.3359 24.1406 49.8606 24.1406 50.5078Z" fill="#40914E"/>
</svg>
