<svg width="60" height="60" viewBox="0 0 60 60" fill="none" xmlns="http://www.w3.org/2000/svg">
<path d="M51.5624 47.8125V7.5C51.561 6.25725 51.0666 5.06581 50.1879 4.18705C49.3091 3.30829 48.1177 2.81396 46.8749 2.8125H9.37494C8.13218 2.81396 6.94075 3.30829 6.06199 4.18705C5.18323 5.06581 4.6889 6.25725 4.68744 7.5V12.1875H12.1874V15.0475C10.1528 15.2318 8.2188 16.0168 6.63125 17.3027C5.04369 18.5886 3.87419 20.3173 3.27134 22.2694C2.66849 24.2214 2.65949 26.3086 3.24549 28.2657C3.83148 30.2229 4.98603 31.9617 6.56244 33.2612V45.857L12.1874 40.232V52.5C12.1889 53.7428 12.6832 54.9342 13.562 55.8129C14.4407 56.6917 15.6322 57.186 16.8749 57.1875H50.6249C51.8677 57.186 53.0591 56.6917 53.9379 55.8129C54.8166 54.9342 55.311 53.7428 55.3124 52.5V47.8125H51.5624ZM6.56244 10.3125V7.5C6.56244 6.75408 6.85875 6.03871 7.3862 5.51126C7.91364 4.98382 8.62901 4.6875 9.37494 4.6875C10.1209 4.6875 10.8362 4.98382 11.3637 5.51126C11.8911 6.03871 12.1874 6.75408 12.1874 7.5V10.3125H6.56244ZM4.68744 25.3125C4.68744 23.6437 5.18229 22.0124 6.10941 20.6249C7.03654 19.2373 8.35429 18.1559 9.89604 17.5173C11.4378 16.8787 13.1343 16.7116 14.771 17.0371C16.4077 17.3627 17.9111 18.1663 19.0911 19.3463C20.2712 20.5263 21.0747 22.0297 21.4003 23.6664C21.7259 25.3031 21.5588 26.9996 20.9202 28.5414C20.2816 30.0831 19.2001 31.4009 17.8126 32.328C16.425 33.2551 14.7937 33.75 13.1249 33.75C10.8879 33.7475 8.74326 32.8578 7.16146 31.276C5.57966 29.6942 4.68992 27.5495 4.68744 25.3125ZM8.43744 34.4866C9.88671 35.2347 11.494 35.625 13.1249 35.625C14.7559 35.625 16.3632 35.2347 17.8124 34.4866V41.3303L13.1249 36.6428L8.43744 41.3303V34.4866ZM19.6874 52.5C19.6874 53.2459 19.3911 53.9613 18.8637 54.4887C18.3362 55.0162 17.6209 55.3125 16.8749 55.3125C16.129 55.3125 15.4136 55.0162 14.8862 54.4887C14.3588 53.9613 14.0624 53.2459 14.0624 52.5V40.232L19.6874 45.857V33.2612C21.2638 31.9617 22.4184 30.2229 23.0044 28.2657C23.5904 26.3086 23.5814 24.2214 22.9785 22.2694C22.3757 20.3173 21.2062 18.5886 19.6186 17.3027C18.0311 16.0168 16.0971 15.2318 14.0624 15.0475V7.5C14.0637 6.48525 13.7339 5.49779 13.1231 4.6875H46.8749C47.6206 4.68832 48.3355 4.9849 48.8628 5.51217C49.39 6.03944 49.6866 6.75433 49.6874 7.5V47.8125H19.6874V52.5ZM53.4374 52.5C53.4366 53.2457 53.14 53.9606 52.6128 54.4878C52.0855 55.0151 51.3706 55.3117 50.6249 55.3125H20.6231C21.2339 54.5022 21.5637 53.5147 21.5624 52.5V49.6875H53.4374V52.5Z" fill="#40914E"/>
<path d="M18.75 8.4375H31.875V10.3125H18.75V8.4375Z" fill="#40914E"/>
<path d="M27.1875 16.875H33.75V18.75H27.1875V16.875Z" fill="#40914E"/>
<path d="M27.1875 22.5H40.3125V24.375H27.1875V22.5Z" fill="#40914E"/>
<path d="M27.1875 28.125H40.3125V30H27.1875V28.125Z" fill="#40914E"/>
<path d="M27.1875 33.75H40.3125V35.625H27.1875V33.75Z" fill="#40914E"/>
<path d="M32.8125 42.1875H45.9375V44.0625H32.8125V42.1875Z" fill="#40914E"/>
<path d="M43.125 7.5C42.3833 7.5 41.6583 7.71993 41.0416 8.13199C40.4249 8.54404 39.9443 9.12971 39.6605 9.81494C39.3766 10.5002 39.3024 11.2542 39.4471 11.9816C39.5918 12.709 39.9489 13.3772 40.4734 13.9017C40.9978 14.4261 41.666 14.7833 42.3934 14.9279C43.1208 15.0726 43.8748 14.9984 44.5601 14.7145C45.2453 14.4307 45.831 13.9501 46.243 13.3334C46.6551 12.7167 46.875 11.9917 46.875 11.25C46.874 10.2557 46.4786 9.30247 45.7756 8.59942C45.0725 7.89637 44.1193 7.50097 43.125 7.5ZM43.125 13.125C42.7542 13.125 42.3916 13.015 42.0833 12.809C41.775 12.603 41.5346 12.3101 41.3927 11.9675C41.2508 11.6249 41.2137 11.2479 41.286 10.8842C41.3584 10.5205 41.537 10.1864 41.7992 9.92418C42.0614 9.66195 42.3955 9.48337 42.7592 9.41103C43.1229 9.33868 43.4999 9.37581 43.8425 9.51773C44.1851 9.65964 44.478 9.89996 44.684 10.2083C44.89 10.5166 45 10.8792 45 11.25C44.9993 11.7471 44.8016 12.2236 44.4501 12.5751C44.0986 12.9266 43.6221 13.1243 43.125 13.125Z" fill="#40914E"/>
<path d="M13.125 30.9375C14.2375 30.9375 15.3251 30.6076 16.2501 29.9895C17.1751 29.3714 17.8961 28.4929 18.3218 27.4651C18.7476 26.4373 18.859 25.3063 18.6419 24.2151C18.4249 23.124 17.8891 22.1217 17.1025 21.335C16.3158 20.5484 15.3135 20.0126 14.2224 19.7956C13.1312 19.5785 12.0002 19.6899 10.9724 20.1157C9.94457 20.5414 9.06607 21.2624 8.44798 22.1874C7.8299 23.1124 7.5 24.2 7.5 25.3125C7.50164 26.8038 8.0948 28.2336 9.14933 29.2882C10.2039 30.3427 11.6337 30.9359 13.125 30.9375ZM13.125 21.5625C13.8667 21.5625 14.5917 21.7824 15.2084 22.1945C15.8251 22.6065 16.3057 23.1922 16.5895 23.8774C16.8734 24.5627 16.9476 25.3167 16.8029 26.0441C16.6583 26.7715 16.3011 27.4397 15.7766 27.9642C15.2522 28.4886 14.584 28.8458 13.8566 28.9904C13.1292 29.1351 12.3752 29.0609 11.6899 28.7771C11.0047 28.4932 10.419 28.0126 10.007 27.3959C9.59493 26.7792 9.375 26.0542 9.375 25.3125C9.37597 24.3182 9.77137 23.365 10.4744 22.6619C11.1775 21.9589 12.1307 21.5635 13.125 21.5625Z" fill="#40914E"/>
</svg>
