<svg width="60" height="60" viewBox="0 0 60 60" fill="none" xmlns="http://www.w3.org/2000/svg">
<path d="M15.4242 34.2496C11.0515 35.418 8.00835 39.3772 8.00392 43.9033V44.0573C7.40319 44.1876 6.8929 44.5812 6.61424 45.1291L5.12458 48.0824L1.78533 48.5563C1.0001 48.6629 0.346345 49.2119 0.10576 49.967C-0.137481 50.7117 0.0718126 51.5299 0.642623 52.0665L3.04502 54.3559L2.47815 57.5902C2.34079 58.3559 2.6535 59.1327 3.28295 59.5897C3.92205 60.0645 4.77625 60.1324 5.48245 59.7647L8.47476 58.226L11.4671 59.7647C12.1718 60.131 13.0238 60.0631 13.6615 59.5897C14.2912 59.1328 14.6042 58.3561 14.4673 57.5902L14.1874 55.9905H19.7241L19.6241 56.5294C19.4292 57.6246 19.8763 58.7351 20.7759 59.3897C21.3003 59.7799 21.9368 59.9902 22.5904 59.9895C23.0754 59.9891 23.5534 59.8736 23.9851 59.6526L30.0137 56.5954L36.0123 59.6526C37.045 60.1843 38.2904 60.0811 39.2216 59.3866C40.1196 58.7324 40.5663 57.6234 40.3723 56.5294L40.2724 55.9905H45.8111L45.5312 57.5902C45.3943 58.356 45.7073 59.1328 46.3369 59.5897C46.9759 60.065 47.8303 60.1329 48.5364 59.7647L51.5288 58.226L54.521 59.7647C55.2272 60.1327 56.0815 60.0647 56.7206 59.5897C57.3481 59.1315 57.6588 58.3549 57.5203 57.5902L56.9535 54.36L59.3579 52.0665C59.9288 51.5299 60.138 50.7117 59.8948 49.967C59.6539 49.2113 58.9992 48.6621 58.2132 48.5563L54.8739 48.0824L53.3843 45.1291C53.1053 44.581 52.5946 44.1875 51.9936 44.0573V43.9033C51.9892 39.3772 48.946 35.4181 44.5733 34.2496L36.6642 32.139C35.9775 30.6579 35.6589 29.0329 35.7354 27.4021C36.5012 26.7573 37.1861 26.1424 37.7199 25.6455C38.5329 24.888 38.9951 23.8273 38.9966 22.7162V21.8724C40.5793 21.4688 41.7553 20.1401 41.9636 18.5201C42.1719 16.9 41.3705 15.317 39.9414 14.5261C40.6612 13.4942 41.0309 12.2586 40.9962 11.0009C40.9752 7.47147 38.6851 4.35647 35.3225 3.28373C35.477 3.13426 35.6476 3.0024 35.8314 2.89082C36.1717 2.7138 36.3808 2.35779 36.3695 1.97443C36.3582 1.59107 36.1286 1.24796 35.7784 1.09131C33.9489 0.329407 31.9801 -0.0410639 29.9988 0.00360909C26.8712 -0.0400799 23.9496 1.5588 22.3005 4.21664C20.1421 5.31064 18.844 7.5865 19.0013 10.0013C19.0158 11.5577 19.4661 13.0788 20.301 14.3922C18.7744 15.1056 17.8606 16.7011 18.0175 18.3788C18.1745 20.0564 19.3685 21.4547 21.0008 21.8725V22.7163C21.0023 23.8274 21.4645 24.8881 22.2775 25.6456C22.8114 26.1454 23.4962 26.7573 24.262 27.4022C24.3375 29.0328 24.0193 30.6575 23.3342 32.1391L15.4242 34.2496ZM12.3299 53.0912C11.9623 53.4408 11.7942 53.9512 11.882 54.4509L12.4929 57.9361L13.4786 57.7641L12.3789 57.983L9.17968 56.3374C8.7359 56.1084 8.20878 56.1084 7.76501 56.3374L4.56577 57.983L5.02264 58.8718L4.44878 57.9361L5.06062 54.4468C5.14731 53.9448 4.976 53.4329 4.60474 53.0841L2.06734 50.5367L5.64452 50.0278C6.1435 49.9587 6.57684 49.6494 6.80424 49.1999L8.47082 45.9927C8.52277 45.9927 8.53379 46.0167 8.5398 46.0287L10.1395 49.199C10.3666 49.6474 10.7985 49.9565 11.2962 50.0269L14.9184 50.6147L12.3299 53.0912ZM38.0319 57.79C37.7101 58.0329 37.2769 58.0679 36.9202 57.88L30.9216 54.8237C30.3418 54.5303 29.6569 54.5303 29.0771 54.8237L23.0785 57.88C22.722 58.0689 22.2882 58.0338 21.9668 57.79C21.6787 57.5877 21.5336 57.2369 21.5948 56.8903L22.7396 50.4178C22.8555 49.7676 22.6347 49.1028 22.1527 48.6513L17.3019 44.0544C17.0371 43.8187 16.9377 43.4481 17.0489 43.1116C17.1674 42.7464 17.489 42.4846 17.8707 42.4428L24.5782 41.498C25.2258 41.4091 25.7893 41.0093 26.0868 40.4272L29.0861 34.5376C29.2696 34.2033 29.6206 33.9957 30.0019 33.9957C30.3832 33.9957 30.7342 34.2034 30.9177 34.5376L33.917 40.4272C34.2158 41.0086 34.7791 41.4081 35.4266 41.498L42.1341 42.4428C42.5157 42.4846 42.8374 42.7465 42.9559 43.1116C43.0672 43.4482 42.9677 43.8187 42.7029 44.0544L37.8501 48.6393C37.3683 49.0905 37.1474 49.7549 37.2632 50.4048L38.408 56.8783C38.4692 57.2264 38.3225 57.5785 38.0321 57.7801V57.79H38.0319ZM27.3044 33.6267C26.5849 33.4234 25.8997 33.1144 25.2709 32.7099C25.7898 31.5155 26.1064 30.2431 26.2077 28.9448C26.3297 29.0358 26.4466 29.1298 26.5686 29.2187C27.2567 29.7226 28.0871 29.995 28.94 29.9966H31.0575C31.9101 29.9952 32.7402 29.7228 33.4279 29.2187C33.5509 29.1298 33.6678 29.0347 33.7899 28.9448C33.8907 30.2432 34.2073 31.5156 34.7266 32.7099C34.0978 33.1144 33.4125 33.4234 32.6931 33.6267C32.1682 32.6242 31.1302 31.996 29.9988 31.996C28.8673 31.996 27.8293 32.6242 27.3044 33.6267ZM51.5938 46.0298L53.1935 49.2001C53.4207 49.6484 53.8525 49.9575 54.3501 50.028L57.9733 50.6158L55.3929 53.0832C55.0238 53.4332 54.8542 53.9447 54.9409 54.446L55.5528 57.9311L56.5375 57.7591L55.4378 57.9781L52.2386 56.3325C51.7948 56.1035 51.2677 56.1035 50.8239 56.3325L47.6247 57.9781L48.0816 58.8669L47.5087 57.9311L48.1186 54.4479C48.2072 53.9471 48.039 53.435 47.6706 53.0842L45.1272 50.5368L48.7044 50.0279C49.2017 49.958 49.6334 49.6491 49.8601 49.201L51.5267 45.9927C51.5797 45.9928 51.5938 46.0178 51.5938 46.0298ZM36.2334 34.0956L44.0585 36.1841C47.5559 37.1175 49.9903 40.2835 49.9941 43.9032V44.6631C49.8662 44.8027 49.7579 44.9591 49.6722 45.128L48.1825 48.0823L44.8423 48.5562C44.0568 48.6624 43.4023 49.211 43.1606 49.9659C42.9185 50.7106 43.1276 51.5283 43.6975 52.0654L45.72 53.991H39.9214L39.2216 50.0918L44.0744 45.5069C44.8934 44.7428 45.199 43.5751 44.8592 42.5077C44.5086 41.4098 43.5546 40.6137 42.4117 40.4651L35.6973 39.5203L33.6138 35.4283C34.5531 35.128 35.4376 34.6779 36.2334 34.0956ZM23.3163 5.95121C23.566 5.86551 23.7729 5.68632 23.8932 5.45135C25.149 3.27615 27.4876 1.95534 29.9988 2.00317C31.154 1.99264 32.3061 2.12459 33.4289 2.39607C33.1745 2.71636 32.9584 3.06528 32.7851 3.43585C32.6539 3.71638 32.6602 4.04189 32.802 4.31721C32.9439 4.59252 33.2053 4.78647 33.5099 4.84256C33.7329 4.88457 38.9966 5.92829 38.9966 11.0011C39.0046 11.5838 38.8941 12.162 38.6717 12.7008C38.1534 11.6609 37.0922 11.003 35.9303 11.0011H32.998C31.3737 11.0911 29.7572 10.7172 28.3371 9.92336C27.3281 9.32087 26.1751 9.00235 24.9999 9.00157C23.2472 9.01091 21.7312 10.2247 21.3388 11.9329C21.1197 11.3123 21.0055 10.6595 21.0009 10.0013C21.0009 6.81495 23.2304 5.98122 23.3163 5.95121ZM23.6393 24.1819C23.2324 23.8031 23.0009 23.2722 23.0005 22.7163V20.9986C23.0005 20.4465 22.5528 19.9989 22.0007 19.9989C21.0971 20.0011 20.3049 19.3953 20.0704 18.5226C19.836 17.6499 20.2178 16.7287 21.0009 16.2777V16.9996C21.0009 17.5517 21.4485 17.9993 22.0006 17.9993C22.5527 17.9993 23.0004 17.5517 23.0004 16.9996V14.0003C23.0004 13.8773 23.0414 11.001 24.9999 11.001C25.8558 11.0047 26.6937 11.247 27.4193 11.7008C29.1229 12.6416 31.0541 13.0916 32.998 13.0005H35.9303C36.3645 12.9963 36.7572 13.2574 36.9211 13.6594C36.9663 13.7677 36.9919 13.883 36.9971 14.0003V16.9996C36.9971 17.5517 37.4447 17.9993 37.9968 17.9993C38.5489 17.9993 38.9965 17.5517 38.9965 16.9996V16.2777C39.7796 16.7287 40.1615 17.6499 39.927 18.5226C39.6925 19.3953 38.9004 20.0011 37.9967 19.9989C37.4446 19.9989 36.997 20.4465 36.997 20.9986V22.7163C36.9964 23.2722 36.765 23.8031 36.3582 24.1819C35.0598 25.4002 33.6912 26.5412 32.2591 27.5991C31.9116 27.8561 31.4916 27.9961 31.0594 27.999H28.9399C28.5077 27.9958 28.0878 27.8558 27.7402 27.5991C26.3078 26.5411 24.9384 25.4001 23.6393 24.1819ZM26.3847 35.4283L24.3002 39.5173L17.5928 40.4621C16.4499 40.6107 15.496 41.4068 15.1453 42.5047C14.8055 43.5721 15.1111 44.7398 15.9301 45.504L20.775 50.052L20.0742 53.9911H14.2755L16.3021 52.0625C16.8721 51.5255 17.0811 50.7078 16.8389 49.963C16.5973 49.2081 15.9429 48.6595 15.1573 48.5534L11.818 48.0795L10.3274 45.1252C10.2409 44.9572 10.1319 44.8018 10.0035 44.6633V43.9034C10.0065 40.2827 12.4416 37.1155 15.9401 36.1822L23.7642 34.0957C24.5604 34.6779 25.4452 35.128 26.3847 35.4283Z" fill="#40914E"/>
</svg>
