<svg width="60" height="52" viewBox="0 0 60 52" fill="none" xmlns="http://www.w3.org/2000/svg">
<path d="M53.6179 25.0434V9.82181C53.6179 7.53455 51.7569 5.67361 49.4695 5.67361H47.5862V3.51396C47.5862 1.58728 46.0188 0.0198975 44.0921 0.0198975C42.1655 0.0198975 40.5981 1.58728 40.5981 3.51396V5.67349H36.0642V3.51396C36.0642 1.58728 34.4968 0.0198975 32.5702 0.0198975C30.6435 0.0198975 29.0761 1.58728 29.0761 3.51396V5.67349H24.5422V3.51396C24.5422 1.58728 22.9748 0.0198975 21.0482 0.0198975C19.1215 0.0198975 17.5541 1.58728 17.5541 3.51396V5.67349H13.0202V3.51396C13.0202 1.58728 11.4529 0.0198975 9.52617 0.0198975C7.59949 0.0198975 6.03176 1.58728 6.03176 3.51396V5.67349H4.1482C1.86094 5.67349 0 7.53431 0 9.82181V10.2547C0 10.7393 0.39293 11.1322 0.8775 11.1322C1.36207 11.1322 1.755 10.7393 1.755 10.2547V9.82181C1.755 8.50228 2.82867 7.42861 4.1482 7.42861H6.03152C6.03152 7.42861 6.03152 9.58802 6.03152 9.58814C6.03152 11.5148 7.59891 13.0822 9.52559 13.0822C11.4523 13.0822 13.0196 11.5148 13.0196 9.58802V7.42861H17.5535C17.5535 7.42861 17.5535 9.58802 17.5535 9.58814C17.5535 11.5148 19.1209 13.0822 21.0476 13.0822C22.9743 13.0822 24.5416 11.5148 24.5416 9.58802V7.42861H29.0755C29.0755 7.42861 29.0755 9.58802 29.0755 9.58814C29.0755 11.5148 30.6429 13.0822 32.5696 13.0822C34.4963 13.0822 36.0636 11.5148 36.0636 9.58802V7.42861H40.5975C40.5975 7.42861 40.5975 9.58802 40.5975 9.58814C40.5975 11.5148 42.1649 13.0822 44.0916 13.0822C46.0182 13.0822 47.5856 11.5148 47.5856 9.58802V7.42861H49.4689C50.7886 7.42861 51.8623 8.50228 51.8623 9.82181V16.0152H1.755V13.7647C1.755 13.2801 1.36207 12.8872 0.8775 12.8872C0.39293 12.8872 0 13.28 0 13.7647V44.0485C0 46.3359 1.86094 48.1968 4.1482 48.1968H35.3546C37.9729 50.5476 41.4315 51.9801 45.219 51.9801C48.3816 51.9801 51.3986 50.9946 53.9441 49.1301C54.3352 48.8437 54.4199 48.2946 54.1335 47.9036C53.8471 47.5126 53.2978 47.428 52.907 47.7143C50.6644 49.3569 48.006 50.225 45.2189 50.225C38.0364 50.225 32.193 44.3816 32.193 37.1992C32.193 30.0167 38.0365 24.1733 45.2189 24.1733C46.5185 24.1733 47.8129 24.3677 49.0552 24.75C49.0798 24.7575 49.104 24.7653 49.1286 24.7731C54.4068 26.4375 58.2449 31.3782 58.2449 37.1992C58.2449 40.2023 57.198 43.1329 55.2974 45.4514C54.9901 45.8261 55.0447 46.3792 55.4195 46.6863C55.7944 46.9936 56.3473 46.9388 56.6544 46.5642C58.8118 43.933 60 40.6071 60 37.1992C60 32.1665 57.471 27.7139 53.6179 25.0434ZM11.2646 9.58802C11.2646 10.547 10.4845 11.3271 9.52559 11.3271C8.56664 11.3271 7.78652 10.5471 7.78652 9.58802V3.51396C7.78652 2.55501 8.56652 1.7749 9.52559 1.7749C10.4845 1.7749 11.2646 2.5549 11.2646 3.51396V9.58802ZM22.7868 9.58802C22.7868 10.547 22.0066 11.3271 21.0477 11.3271C20.0887 11.3271 19.3086 10.5471 19.3086 9.58802V3.51396C19.3086 2.55501 20.0887 1.7749 21.0477 1.7749C22.0066 1.7749 22.7868 2.5549 22.7868 3.51396V9.58802ZM34.309 9.58802C34.309 10.547 33.5289 11.3271 32.5699 11.3271C31.611 11.3271 30.8309 10.5471 30.8309 9.58802V3.51396C30.8309 2.55501 31.611 1.7749 32.5699 1.7749C33.5289 1.7749 34.309 2.5549 34.309 3.51396V9.58802ZM45.8311 9.58802C45.8311 10.547 45.051 11.3271 44.092 11.3271C43.1331 11.3271 42.353 10.5471 42.353 9.58802V3.51396C42.353 2.55501 43.1331 1.7749 44.092 1.7749C45.051 1.7749 45.8311 2.5549 45.8311 3.51396V9.58802ZM22.5001 17.7702H31.1176V26.1573H22.5001V17.7702ZM10.3725 46.4417H4.1482C2.82867 46.4417 1.755 45.3681 1.755 44.0484V38.0545H10.3724L10.3725 46.4417ZM10.3725 36.2995H1.755V27.9124H10.3724L10.3725 36.2995ZM10.3725 26.1573H1.755V17.7702H10.3724L10.3725 26.1573ZM12.1275 27.9124H20.7449V36.2995H12.1275V27.9124ZM20.7451 46.4417H12.1277V38.0546H20.7451V46.4417ZM20.7451 26.1573H12.1277V17.7702H20.7451V26.1573ZM22.5 27.9124H31.1175V32.7663C30.7629 33.8922 30.5401 35.0762 30.4663 36.2996H22.5V27.9124ZM33.6803 46.4417H22.5001V38.0546H30.4628C30.6367 41.1521 31.7532 44.0512 33.6803 46.4417ZM32.8727 29.0824V27.9124H33.7294C33.4254 28.2877 33.1395 28.6782 32.8727 29.0824ZM41.4901 22.8951C39.199 23.4928 37.1231 24.6282 35.4047 26.1573H32.8727V17.7702H41.4901V22.8951ZM51.8627 23.9926C51.0363 23.5762 50.1743 23.2413 49.288 22.9879C49.2691 22.9826 49.2502 22.9772 49.2314 22.9718C47.9279 22.6036 46.5737 22.4181 45.2193 22.4181C44.5499 22.4182 43.8912 22.4636 43.2452 22.5502V17.7699H51.8627V23.9926Z" fill="#40914E"/>
</svg>
