<svg width="127" height="117" viewBox="0 0 127 117" fill="none" xmlns="http://www.w3.org/2000/svg">
<path d="M4.83248 83.8214L54.0343 112.62C57.9143 114.908 63.1174 116.145 68.5942 116.145C74.0258 116.145 79.1377 114.908 83.0172 112.663L122.132 90.5056C124.278 89.2695 125.875 87.8045 126.97 86.202V81.2121C126.97 84.0961 125.054 86.9806 121.311 89.1324L82.1956 111.29C78.453 113.441 73.5239 114.54 68.5942 114.54C63.6193 114.54 58.6443 113.441 54.8559 111.245L5.6541 82.4482C1.91156 80.2505 0.0402832 77.3665 0.0402832 74.482V79.5183C1.08994 81.1662 2.73316 82.5858 4.83248 83.8214Z" fill="white"/>
<path d="M54.8104 111.25C62.3413 115.644 74.6191 115.692 82.15 111.295L121.265 89.1375C128.796 84.788 128.796 77.6004 121.311 73.2056L72.1085 44.4087C64.5776 40.0139 52.3003 39.968 44.7694 44.3634L5.65385 66.5214C-1.87706 70.8709 -1.87705 78.0585 5.60857 82.4533L54.8104 111.25Z" fill="#EEEEF6"/>
<path d="M55.0849 84.7523L46.2299 79.6248C44.1306 78.4345 40.753 78.4345 38.6537 79.6248L35.2303 81.6395L23.5002 79.8082V82.0512C23.5002 82.8298 24.0022 83.6537 25.0524 84.2489L52.8939 100.364C54.9932 101.554 58.3708 101.554 60.4701 100.364L74.0714 92.398C75.0758 91.8028 75.5777 91.0701 75.6236 90.2921V87.9115L55.0849 84.7523Z" fill="#636C9E"/>
<path d="M55.0849 84.2419L46.2299 79.1143C44.1306 77.924 40.753 77.924 38.6537 79.1143L35.2303 81.1291L23.5002 79.2978V81.5408C23.5002 82.3194 24.0022 83.1433 25.0524 83.7385L52.8939 99.8533C54.9932 101.044 58.3708 101.044 60.4701 99.8533L74.0714 91.8876C75.0758 91.2925 75.5777 90.5597 75.6236 89.7816V87.4011L55.0849 84.2419Z" fill="url(#paint0_linear)"/>
<path d="M24.8692 81.8621L52.7107 97.977C53.7604 98.618 55.1756 98.9385 56.6813 98.9385C58.1876 98.9385 59.6481 98.5721 60.6977 97.977L74.2991 90.0113C74.8927 89.6908 75.3493 89.2785 75.6232 88.821V87.4019C75.6232 88.18 75.1207 89.0039 74.071 89.5991L60.4697 97.5653C59.42 98.1604 58.0507 98.4809 56.6813 98.4809C55.3125 98.4809 53.9432 98.1604 52.9388 97.5653L25.0972 81.4499C24.0476 80.8548 23.5457 80.0767 23.5457 79.2527V80.626C23.8195 81.1299 24.2756 81.5416 24.8692 81.8621Z" fill="white"/>
<path d="M60.4696 97.605C58.4161 98.8412 54.9927 98.8412 52.8934 97.605L25.0513 81.4897C22.952 80.2994 22.952 78.2852 25.0513 77.0949L38.6526 69.1292C40.7067 67.893 44.13 67.893 46.2294 69.1292L74.0709 85.244C76.1708 86.4343 76.1708 88.4485 74.0709 89.6388L60.4696 97.605Z" fill="url(#paint1_linear)"/>
<path d="M42.8006 73.8562C42.3898 74.085 41.7057 74.085 41.249 73.8562L40.063 73.1693C39.6522 72.9406 39.6522 72.5283 40.063 72.2995L41.2038 71.6127C41.614 71.3839 42.2987 71.3839 42.7548 71.6127L43.9414 72.2995C44.3517 72.5283 44.3517 72.9406 43.9414 73.1693L42.8006 73.8562Z" fill="#636C9E"/>
<path d="M46.64 76.0433C46.2292 76.2726 45.5445 76.2726 45.0884 76.0433L43.9023 75.357C43.4915 75.1277 43.4915 74.716 43.9023 74.4872L45.0426 73.8003C45.4534 73.5715 46.1381 73.5715 46.5942 73.8003L47.7802 74.4872C48.191 74.716 48.191 75.1277 47.7802 75.357L46.64 76.0433Z" fill="#636C9E"/>
<path d="M50.4278 78.262C50.017 78.4907 49.3329 78.4907 48.8768 78.262L47.6902 77.5751C47.2794 77.3464 47.2794 76.9341 47.6902 76.7054L48.831 76.0185C49.2418 75.7897 49.9259 75.7897 50.382 76.0185L51.5686 76.7054C51.9794 76.9341 51.9794 77.3464 51.5686 77.5751L50.4278 78.262Z" fill="#636C9E"/>
<path d="M54.2154 80.4597C53.8046 80.6885 53.1205 80.6885 52.6644 80.4597L51.4778 79.7729C51.067 79.5441 51.067 79.1319 51.4778 78.9031L52.6186 78.2162C53.0294 77.9874 53.7135 77.9874 54.1702 78.2162L55.3562 78.9031C55.767 79.1319 55.767 79.5441 55.3562 79.7729L54.2154 80.4597Z" fill="#636C9E"/>
<path d="M58.05 82.6469C57.6397 82.8757 56.955 82.8757 56.4989 82.6469L55.3123 81.9601C54.9021 81.7313 54.9021 81.3196 55.3123 81.0903L56.4531 80.404C56.8639 80.1747 57.5481 80.1747 58.0047 80.404L59.1908 81.0903C59.6016 81.3196 59.6016 81.7313 59.1908 81.9601L58.05 82.6469Z" fill="#636C9E"/>
<path d="M61.8392 84.8858C61.4284 85.1151 60.7443 85.1151 60.2882 84.8858L59.1016 84.1995C58.6908 83.9702 58.6908 83.5584 59.1016 83.3297L60.2423 82.6428C60.6531 82.414 61.3373 82.414 61.7934 82.6428L62.98 83.3297C63.3908 83.5584 63.3908 83.9702 62.98 84.1995L61.8392 84.8858Z" fill="#636C9E"/>
<path d="M65.6266 87.0945C65.2164 87.3233 64.5317 87.3233 64.0756 87.0945L62.889 86.4077C62.4787 86.1789 62.4787 85.7667 62.889 85.5379L64.0298 84.851C64.4406 84.6222 65.1247 84.6222 65.5813 84.851L66.7674 85.5379C67.1782 85.7667 67.1782 86.1789 66.7674 86.4077L65.6266 87.0945Z" fill="#636C9E"/>
<path d="M69.4606 89.2818C69.0503 89.5106 68.3656 89.5106 67.9095 89.2818L66.7229 88.595C66.3121 88.3662 66.3121 87.9539 66.7229 87.7252L67.8637 87.0383C68.2745 86.8095 68.9586 86.8095 69.4153 87.0383L70.6013 87.7252C71.0121 87.9539 71.0121 88.3662 70.6013 88.595L69.4606 89.2818Z" fill="#636C9E"/>
<path d="M38.922 76.137C38.5112 76.3658 37.827 76.3658 37.3704 76.137L36.1843 75.4502C35.7735 75.2214 35.7735 74.8097 36.1843 74.5804L37.3251 73.8941C37.7354 73.6648 38.4201 73.6648 38.8762 73.8941L40.0628 74.5804C40.473 74.8097 40.473 75.2214 40.0628 75.4502L38.922 76.137Z" fill="#636C9E"/>
<path d="M42.7088 78.3555C42.298 78.5848 41.6134 78.5848 41.1573 78.3555L39.9712 77.6692C39.5604 77.4399 39.5604 77.0282 39.9712 76.7989L41.112 76.1126C41.5222 75.8838 42.2069 75.8838 42.663 76.1126L43.8496 76.7989C44.2599 77.0282 44.2599 77.4399 43.8496 77.6692L42.7088 78.3555Z" fill="#636C9E"/>
<path d="M46.5029 80.5529C46.0926 80.7822 45.4079 80.7822 44.9518 80.5529L43.7652 79.8666C43.355 79.6372 43.355 79.2256 43.7652 78.9968L44.906 78.3099C45.3168 78.0812 46.001 78.0812 46.4576 78.3099L47.6437 78.9968C48.0545 79.2256 48.0545 79.6372 47.6437 79.8666L46.5029 80.5529Z" fill="#636C9E"/>
<path d="M50.3372 82.7408C49.9264 82.9696 49.2423 82.9696 48.7862 82.7408L47.5996 82.054C47.1888 81.8252 47.1888 81.413 47.5996 81.1842L48.7404 80.4973C49.1512 80.2686 49.8353 80.2686 50.2914 80.4973L51.478 81.1842C51.8888 81.413 51.8888 81.8252 51.478 82.054L50.3372 82.7408Z" fill="#636C9E"/>
<path d="M54.1237 84.9176C53.7134 85.1464 53.0288 85.1464 52.5727 84.9176L51.3861 84.2307C50.9758 84.0019 50.9758 83.5897 51.3861 83.3609L52.5268 82.6741C52.9376 82.4453 53.6218 82.4453 54.0784 82.6741L55.2645 83.3609C55.6753 83.5897 55.6753 84.0019 55.2645 84.2307L54.1237 84.9176Z" fill="#636C9E"/>
<path d="M57.9129 87.1466C57.5021 87.3754 56.818 87.3754 56.3613 87.1466L55.1753 86.4597C54.7645 86.2309 54.7645 85.8187 55.1753 85.5899L56.3161 84.903C56.7263 84.6742 57.411 84.6742 57.8671 84.903L59.0537 85.5899C59.464 85.8187 59.464 86.2309 59.0537 86.4597L57.9129 87.1466Z" fill="#636C9E"/>
<path d="M61.7472 89.3339C61.3364 89.5632 60.6522 89.5632 60.1956 89.3339L59.0095 88.6475C58.5987 88.4182 58.5987 88.0065 59.0095 87.7772L60.1503 87.0909C60.5606 86.8616 61.2453 86.8616 61.7014 87.0909L62.888 87.7772C63.2982 88.0065 63.2982 88.4182 62.888 88.6475L61.7472 89.3339Z" fill="#636C9E"/>
<path d="M65.5365 91.5212C65.1257 91.75 64.441 91.75 63.9849 91.5212L62.7988 90.8344C62.388 90.6056 62.388 90.1934 62.7988 89.9646L63.9396 89.2778C64.3499 89.049 65.0345 89.049 65.4906 89.2778L66.6772 89.9646C67.0875 90.1934 67.0875 90.6056 66.6772 90.8344L65.5365 91.5212Z" fill="#636C9E"/>
<path d="M38.922 76.137C38.5112 76.3658 37.827 76.3658 37.3704 76.137L36.1843 75.4502C35.7735 75.2214 35.7735 74.8097 36.1843 74.5804L37.3251 73.8941C37.7354 73.6648 38.4201 73.6648 38.8762 73.8941L40.0628 74.5804C40.473 74.8097 40.473 75.2214 40.0628 75.4502L38.922 76.137Z" fill="#636C9E"/>
<path d="M42.7088 78.3555C42.298 78.5848 41.6134 78.5848 41.1573 78.3555L39.9712 77.6692C39.5604 77.4399 39.5604 77.0282 39.9712 76.7989L41.112 76.1126C41.5222 75.8838 42.2069 75.8838 42.663 76.1126L43.8496 76.7989C44.2599 77.0282 44.2599 77.4399 43.8496 77.6692L42.7088 78.3555Z" fill="#636C9E"/>
<path d="M46.5029 80.5529C46.0926 80.7822 45.4079 80.7822 44.9518 80.5529L43.7652 79.8666C43.355 79.6372 43.355 79.2256 43.7652 78.9968L44.906 78.3099C45.3168 78.0812 46.001 78.0812 46.4576 78.3099L47.6437 78.9968C48.0545 79.2256 48.0545 79.6372 47.6437 79.8666L46.5029 80.5529Z" fill="#636C9E"/>
<path d="M50.3372 82.7408C49.9264 82.9696 49.2423 82.9696 48.7862 82.7408L47.5996 82.054C47.1888 81.8252 47.1888 81.413 47.5996 81.1842L48.7404 80.4973C49.1512 80.2686 49.8353 80.2686 50.2914 80.4973L51.478 81.1842C51.8888 81.413 51.8888 81.8252 51.478 82.054L50.3372 82.7408Z" fill="#636C9E"/>
<path d="M54.1237 84.9176C53.7134 85.1464 53.0288 85.1464 52.5727 84.9176L51.3861 84.2307C50.9758 84.0019 50.9758 83.5897 51.3861 83.3609L52.5268 82.6741C52.9376 82.4453 53.6218 82.4453 54.0784 82.6741L55.2645 83.3609C55.6753 83.5897 55.6753 84.0019 55.2645 84.2307L54.1237 84.9176Z" fill="#636C9E"/>
<path d="M57.9129 87.1466C57.5021 87.3754 56.818 87.3754 56.3613 87.1466L55.1753 86.4597C54.7645 86.2309 54.7645 85.8187 55.1753 85.5899L56.3161 84.903C56.7263 84.6742 57.411 84.6742 57.8671 84.903L59.0537 85.5899C59.464 85.8187 59.464 86.2309 59.0537 86.4597L57.9129 87.1466Z" fill="#636C9E"/>
<path d="M61.7472 89.3339C61.3364 89.5632 60.6522 89.5632 60.1956 89.3339L59.0095 88.6475C58.5987 88.4182 58.5987 88.0065 59.0095 87.7772L60.1503 87.0909C60.5606 86.8616 61.2453 86.8616 61.7014 87.0909L62.888 87.7772C63.2982 88.0065 63.2982 88.4182 62.888 88.6475L61.7472 89.3339Z" fill="#636C9E"/>
<path d="M65.5365 91.5212C65.1257 91.75 64.441 91.75 63.9849 91.5212L62.7988 90.8344C62.388 90.6056 62.388 90.1934 62.7988 89.9646L63.9396 89.2778C64.3499 89.049 65.0345 89.049 65.4906 89.2778L66.6772 89.9646C67.0875 90.1934 67.0875 90.6056 66.6772 90.8344L65.5365 91.5212Z" fill="#636C9E"/>
<path d="M35.0084 78.4079C34.5976 78.6367 33.9134 78.6367 33.4568 78.4079L32.2708 77.721C31.8599 77.4922 31.8599 77.08 32.2708 76.8512L33.4115 76.1643C33.8218 75.9355 34.5065 75.9355 34.9626 76.1643L36.1492 76.8512C36.5595 77.08 36.5595 77.4922 36.1492 77.721L35.0084 78.4079Z" fill="#636C9E"/>
<path d="M38.7851 80.6054C38.3748 80.8342 37.6901 80.8342 37.234 80.6054L36.0475 79.9186C35.6372 79.6898 35.6372 79.2775 36.0475 79.0488L37.1882 78.3624C37.599 78.1331 38.2832 78.1331 38.7398 78.3624L39.9259 79.0488C40.3367 79.2775 40.3367 79.6898 39.9259 79.9186L38.7851 80.6054Z" fill="#636C9E"/>
<path d="M42.5719 82.7928C42.1617 83.0216 41.477 83.0216 41.0209 82.7928L39.8343 82.1059C39.424 81.8772 39.424 81.465 39.8343 81.2362L40.9751 80.5493C41.3859 80.3205 42.07 80.3205 42.5266 80.5493L43.7127 81.2362C44.1235 81.465 44.1235 81.8772 43.7127 82.1059L42.5719 82.7928Z" fill="#636C9E"/>
<path d="M46.4115 84.9697C46.0007 85.1984 45.3165 85.1984 44.8604 84.9697L43.6738 84.2828C43.263 84.054 43.263 83.6418 43.6738 83.413L44.8146 82.7261C45.2254 82.4974 45.9095 82.4974 46.3662 82.7261L47.5522 83.413C47.963 83.6418 47.963 84.054 47.5522 84.2828L46.4115 84.9697Z" fill="#636C9E"/>
<path d="M50.1987 87.1883C49.7884 87.4171 49.1037 87.4171 48.6476 87.1883L47.461 86.5014C47.0508 86.2726 47.0508 85.8604 47.461 85.6316L48.6018 84.9447C49.0126 84.7159 49.6968 84.7159 50.1534 84.9447L51.3395 85.6316C51.7503 85.8604 51.7503 86.2726 51.3395 86.5014L50.1987 87.1883Z" fill="#636C9E"/>
<path d="M53.9884 89.4277C53.5776 89.6565 52.8934 89.6565 52.4373 89.4277L51.2507 88.7408C50.8399 88.5121 50.8399 88.0998 51.2507 87.871L52.3915 87.1842C52.8023 86.9554 53.4865 86.9554 53.9431 87.1842L55.1292 87.871C55.54 88.0998 55.54 88.5121 55.1292 88.7408L53.9884 89.4277Z" fill="#636C9E"/>
<path d="M57.8219 91.615C57.4111 91.8438 56.7269 91.8438 56.2703 91.615L55.0842 90.9281C54.6734 90.6993 54.6734 90.2871 55.0842 90.0583L56.225 89.3715C56.6353 89.1427 57.32 89.1427 57.7761 89.3715L58.9627 90.0583C59.3735 90.2871 59.3735 90.6993 58.9627 90.9281L57.8219 91.615Z" fill="#636C9E"/>
<path d="M61.6095 93.823C61.1993 94.0518 60.5146 94.0518 60.0585 93.823L58.8719 93.1367C58.4616 92.9074 58.4616 92.4957 58.8719 92.2664L60.0127 91.5801C60.4235 91.3508 61.1076 91.3508 61.5642 91.5801L62.7503 92.2664C63.1611 92.4957 63.1611 92.9074 62.7503 93.1367L61.6095 93.823Z" fill="#636C9E"/>
<path d="M35.0084 78.4079C34.5976 78.6367 33.9134 78.6367 33.4568 78.4079L32.2708 77.721C31.8599 77.4922 31.8599 77.08 32.2708 76.8512L33.4115 76.1643C33.8218 75.9355 34.5065 75.9355 34.9626 76.1643L36.1492 76.8512C36.5595 77.08 36.5595 77.4922 36.1492 77.721L35.0084 78.4079Z" fill="#636C9E"/>
<path d="M38.7851 80.6054C38.3748 80.8342 37.6901 80.8342 37.234 80.6054L36.0475 79.9186C35.6372 79.6898 35.6372 79.2775 36.0475 79.0488L37.1882 78.3624C37.599 78.1331 38.2832 78.1331 38.7398 78.3624L39.9259 79.0488C40.3367 79.2775 40.3367 79.6898 39.9259 79.9186L38.7851 80.6054Z" fill="#636C9E"/>
<path d="M42.5719 82.7928C42.1617 83.0216 41.477 83.0216 41.0209 82.7928L39.8343 82.1059C39.424 81.8772 39.424 81.465 39.8343 81.2362L40.9751 80.5493C41.3859 80.3205 42.07 80.3205 42.5266 80.5493L43.7127 81.2362C44.1235 81.465 44.1235 81.8772 43.7127 82.1059L42.5719 82.7928Z" fill="#636C9E"/>
<path d="M46.4115 84.9697C46.0007 85.1984 45.3165 85.1984 44.8604 84.9697L43.6738 84.2828C43.263 84.054 43.263 83.6418 43.6738 83.413L44.8146 82.7261C45.2254 82.4974 45.9095 82.4974 46.3662 82.7261L47.5522 83.413C47.963 83.6418 47.963 84.054 47.5522 84.2828L46.4115 84.9697Z" fill="#636C9E"/>
<path d="M50.1987 87.1883C49.7884 87.4171 49.1037 87.4171 48.6476 87.1883L47.461 86.5014C47.0508 86.2726 47.0508 85.8604 47.461 85.6316L48.6018 84.9447C49.0126 84.7159 49.6968 84.7159 50.1534 84.9447L51.3395 85.6316C51.7503 85.8604 51.7503 86.2726 51.3395 86.5014L50.1987 87.1883Z" fill="#636C9E"/>
<path d="M53.9884 89.4277C53.5776 89.6565 52.8934 89.6565 52.4373 89.4277L51.2507 88.7408C50.8399 88.5121 50.8399 88.0998 51.2507 87.871L52.3915 87.1842C52.8023 86.9554 53.4865 86.9554 53.9431 87.1842L55.1292 87.871C55.54 88.0998 55.54 88.5121 55.1292 88.7408L53.9884 89.4277Z" fill="#636C9E"/>
<path d="M57.8219 91.615C57.4111 91.8438 56.7269 91.8438 56.2703 91.615L55.0842 90.9281C54.6734 90.6993 54.6734 90.2871 55.0842 90.0583L56.225 89.3715C56.6353 89.1427 57.32 89.1427 57.7761 89.3715L58.9627 90.0583C59.3735 90.2871 59.3735 90.6993 58.9627 90.9281L57.8219 91.615Z" fill="#636C9E"/>
<path d="M61.6095 93.823C61.1993 94.0518 60.5146 94.0518 60.0585 93.823L58.8719 93.1367C58.4616 92.9074 58.4616 92.4957 58.8719 92.2664L60.0127 91.5801C60.4235 91.3508 61.1076 91.3508 61.5642 91.5801L62.7503 92.2664C63.1611 92.4957 63.1611 92.9074 62.7503 93.1367L61.6095 93.823Z" fill="#636C9E"/>
<path d="M31.0741 80.6887C30.6633 80.918 29.9791 80.918 29.5225 80.6887L28.3364 80.0023C27.9256 79.773 27.9256 79.3613 28.3364 79.132L29.4772 78.4457C29.8875 78.2169 30.5721 78.2169 31.0282 78.4457L32.2148 79.132C32.6251 79.3613 32.6251 79.773 32.2148 80.0023L31.0741 80.6887Z" fill="#636C9E"/>
<path d="M34.8707 82.8762C34.4599 83.105 33.7757 83.105 33.3191 82.8762L32.1331 82.1894C31.7222 81.9606 31.7222 81.5484 32.1331 81.3196L33.2738 80.6328C33.6846 80.404 34.3688 80.404 34.8249 80.6328L36.0115 81.3196C36.4223 81.5484 36.4223 81.9606 36.0115 82.1894L34.8707 82.8762Z" fill="#636C9E"/>
<path d="M38.6946 85.0629C38.2838 85.2922 37.5991 85.2922 37.143 85.0629L35.9564 84.3766C35.5461 84.1478 35.5461 83.7355 35.9564 83.5068L37.0972 82.8199C37.508 82.5911 38.1927 82.5911 38.6488 82.8199L39.8348 83.5068C40.2456 83.7355 40.2456 84.1478 39.8348 84.3766L38.6946 85.0629Z" fill="#636C9E"/>
<path d="M42.4817 87.2821C42.0709 87.5108 41.3863 87.5108 40.9302 87.2821L39.7441 86.5952C39.3333 86.3664 39.3333 85.9542 39.7441 85.7254L40.8844 85.0385C41.2952 84.8097 41.9798 84.8097 42.4359 85.0385L43.6225 85.7254C44.0328 85.9542 44.0328 86.3664 43.6225 86.5952L42.4817 87.2821Z" fill="#636C9E"/>
<path d="M46.2745 89.4691C45.8637 89.6978 45.179 89.6978 44.7229 89.4691L43.5369 88.7822C43.1261 88.5534 43.1261 88.1418 43.5369 87.9125L44.6771 87.2261C45.0879 86.9968 45.7726 86.9968 46.2287 87.2261L47.4147 87.9125C47.8255 88.1418 47.8255 88.5534 47.4147 88.7822L46.2745 89.4691Z" fill="#636C9E"/>
<path d="M50.1076 91.6566C49.6973 91.8854 49.0127 91.8854 48.5566 91.6566L47.37 90.9697C46.9597 90.741 46.9597 90.3287 47.37 90.1L48.5107 89.4131C48.9215 89.1843 49.6057 89.1843 50.0623 89.4131L51.2484 90.1C51.6592 90.3287 51.6592 90.741 51.2484 90.9697L50.1076 91.6566Z" fill="#636C9E"/>
<path d="M53.8966 93.8646C53.4858 94.0939 52.8016 94.0939 52.345 93.8646L51.1589 93.1783C50.7481 92.9489 50.7481 92.5372 51.1589 92.3085L52.2997 91.6216C52.7105 91.3928 53.3947 91.3928 53.8508 91.6216L55.0374 92.3085C55.4482 92.5372 55.4482 92.9489 55.0374 93.1783L53.8966 93.8646Z" fill="#636C9E"/>
<path d="M57.6854 96.0619C57.2746 96.2912 56.5899 96.2912 56.1338 96.0619L54.9478 95.3756C54.5369 95.1468 54.5369 94.7346 54.9478 94.5058L56.088 93.8189C56.4988 93.5901 57.1835 93.5901 57.6396 93.8189L58.8256 94.5058C59.2364 94.7346 59.2364 95.1468 58.8256 95.3756L57.6854 96.0619Z" fill="#636C9E"/>
<path d="M31.0741 80.6887C30.6633 80.918 29.9791 80.918 29.5225 80.6887L28.3364 80.0023C27.9256 79.773 27.9256 79.3613 28.3364 79.132L29.4772 78.4457C29.8875 78.2169 30.5721 78.2169 31.0282 78.4457L32.2148 79.132C32.6251 79.3613 32.6251 79.773 32.2148 80.0023L31.0741 80.6887Z" fill="#636C9E"/>
<path d="M34.8707 82.8762C34.4599 83.105 33.7757 83.105 33.3191 82.8762L32.1331 82.1894C31.7222 81.9606 31.7222 81.5484 32.1331 81.3196L33.2738 80.6328C33.6846 80.404 34.3688 80.404 34.8249 80.6328L36.0115 81.3196C36.4223 81.5484 36.4223 81.9606 36.0115 82.1894L34.8707 82.8762Z" fill="#636C9E"/>
<path d="M38.6946 85.0629C38.2838 85.2922 37.5991 85.2922 37.143 85.0629L35.9564 84.3766C35.5461 84.1478 35.5461 83.7355 35.9564 83.5068L37.0972 82.8199C37.508 82.5911 38.1927 82.5911 38.6488 82.8199L39.8348 83.5068C40.2456 83.7355 40.2456 84.1478 39.8348 84.3766L38.6946 85.0629Z" fill="#636C9E"/>
<path d="M42.4817 87.2821C42.0709 87.5108 41.3863 87.5108 40.9302 87.2821L39.7441 86.5952C39.3333 86.3664 39.3333 85.9542 39.7441 85.7254L40.8844 85.0385C41.2952 84.8097 41.9798 84.8097 42.4359 85.0385L43.6225 85.7254C44.0328 85.9542 44.0328 86.3664 43.6225 86.5952L42.4817 87.2821Z" fill="#636C9E"/>
<path d="M46.2745 89.4691C45.8637 89.6978 45.179 89.6978 44.7229 89.4691L43.5369 88.7822C43.1261 88.5534 43.1261 88.1418 43.5369 87.9125L44.6771 87.2261C45.0879 86.9968 45.7726 86.9968 46.2287 87.2261L47.4147 87.9125C47.8255 88.1418 47.8255 88.5534 47.4147 88.7822L46.2745 89.4691Z" fill="#636C9E"/>
<path d="M50.1076 91.6566C49.6973 91.8854 49.0127 91.8854 48.5566 91.6566L47.37 90.9697C46.9597 90.741 46.9597 90.3287 47.37 90.1L48.5107 89.4131C48.9215 89.1843 49.6057 89.1843 50.0623 89.4131L51.2484 90.1C51.6592 90.3287 51.6592 90.741 51.2484 90.9697L50.1076 91.6566Z" fill="#636C9E"/>
<path d="M53.8966 93.8646C53.4858 94.0939 52.8016 94.0939 52.345 93.8646L51.1589 93.1783C50.7481 92.9489 50.7481 92.5372 51.1589 92.3085L52.2997 91.6216C52.7105 91.3928 53.3947 91.3928 53.8508 91.6216L55.0374 92.3085C55.4482 92.5372 55.4482 92.9489 55.0374 93.1783L53.8966 93.8646Z" fill="#636C9E"/>
<path d="M57.6854 96.0619C57.2746 96.2912 56.5899 96.2912 56.1338 96.0619L54.9478 95.3756C54.5369 95.1468 54.5369 94.7346 54.9478 94.5058L56.088 93.8189C56.4988 93.5901 57.1835 93.5901 57.6396 93.8189L58.8256 94.5058C59.2364 94.7346 59.2364 95.1468 58.8256 95.3756L57.6854 96.0619Z" fill="#636C9E"/>
<path d="M45.7271 57.9642L104.377 91.8886V35.3029L45.7271 1.33319V57.9642Z" fill="url(#paint2_linear)"/>
<path d="M106.756 90.4574L104.376 91.9223V35.3365L106.756 33.8716V90.4574Z" fill="#636C9E"/>
<path d="M48.1461 0L45.7271 1.32731L104.377 35.3429L106.751 33.878L48.1461 0Z" fill="#F4F4FC"/>
<path d="M48.1461 5.49919L102.004 36.6761V87.7221L48.1461 56.5452V5.49919ZM45.7271 1.33319V57.9184L104.377 91.8886V35.3029L45.7271 1.33319Z" fill="#BDC1E6"/>
<path opacity="0.7" d="M96.888 41.4677C91.4111 38.3085 91.4111 49.2504 85.9801 46.0913C80.5026 42.9326 80.5027 31.9907 75.0711 28.832C69.5942 25.6728 69.5942 36.6148 64.1631 33.4556C58.6857 30.297 58.6857 19.355 53.2546 16.1964V34.3713L96.888 59.6426V41.4677Z" fill="url(#paint3_linear)"/>
<path d="M96.8872 41.4669C91.4103 38.3077 91.4103 49.2496 85.9793 46.0905C80.5019 42.9318 80.5019 31.9898 75.0703 28.8312C69.5934 25.672 69.5934 36.614 64.1624 33.4548C58.685 30.2961 58.685 19.3542 53.2539 16.1955V34.3704L96.8872 59.6418V41.4669Z" fill="url(#paint4_linear)"/>
<path d="M87.8014 46.9144C87.2084 46.9144 86.569 46.731 85.8391 46.3193C83.0545 44.7168 81.6399 41.1001 80.2705 37.575C78.947 34.1412 77.5777 30.5703 74.8848 29.0595C72.3288 27.5946 71.0511 29.38 69.727 31.3031C68.4035 33.2256 66.8972 35.3774 63.9763 33.6837C61.1923 32.0812 59.7771 28.4644 58.4078 24.9394C57.0843 21.5056 55.7149 17.9347 53.0678 16.4239C52.9767 16.378 52.9309 16.241 52.9767 16.1493C53.0225 16.0575 53.159 16.0116 53.2506 16.0575C56.0346 17.66 57.4498 21.2768 58.8186 24.8018C60.1427 28.2356 61.5115 31.8065 64.1591 33.3173C66.715 34.7822 67.9927 32.9968 69.3162 31.0738C70.6403 29.1513 72.1461 26.9994 75.0675 28.6932C77.8515 30.2957 79.2662 33.9124 80.6355 37.4374C81.959 40.8713 83.3284 44.4421 86.0213 45.9529C88.5772 47.4179 89.8555 45.6324 91.179 43.7094C92.5025 41.7869 94.0088 39.6351 96.9297 41.3288C97.0214 41.3747 97.0667 41.5123 97.0214 41.6035C96.9756 41.6952 96.8386 41.7411 96.7475 41.6952C94.1916 40.2303 92.9133 42.0157 91.5898 43.9387C90.5854 45.3578 89.4905 46.9144 87.8014 46.9144Z" fill="#FF5A72"/>
<path d="M58.3661 56.5407C55.5373 54.8929 53.21 50.8639 53.21 47.6136C53.21 44.3632 55.5373 43.0353 58.3661 44.6837C58.868 44.9583 59.233 45.6447 59.233 46.1939C59.233 46.7438 58.8222 46.9726 58.3661 46.6979C56.4953 45.5988 54.9438 46.4691 54.9438 48.6662C54.9438 50.818 56.4953 53.4733 58.3661 54.5724C60.2368 55.671 61.7884 54.8012 61.7884 52.6035C61.7884 52.0542 62.1986 51.8254 62.6553 52.1001C63.1572 52.3747 63.5222 53.0616 63.5222 53.6109C63.5675 56.8612 61.2406 58.1891 58.3661 56.5407Z" fill="#FF5A72"/>
<path d="M82.8316 70.4543C80.0024 68.8065 77.6755 64.7775 77.6755 61.5272C77.6755 58.2309 80.0024 56.9489 82.8316 58.5968C83.8808 59.1919 84.8846 60.1076 85.7062 61.2978C86.1165 61.8477 86.2081 62.534 85.9343 62.8545C85.6604 63.175 85.1132 62.9462 84.7024 62.4428C84.1546 61.6642 83.4705 61.0691 82.7858 60.6574C80.9151 59.5583 79.364 60.428 79.364 62.6257C79.364 64.7775 80.9151 67.4327 82.7858 68.5313C84.6566 69.6304 86.2081 68.7606 86.2081 66.5629C86.2081 66.0137 86.6184 65.7849 87.075 66.0595C87.577 66.3342 87.9419 67.021 87.9419 67.5703C87.9872 70.7748 85.6604 72.1027 82.8316 70.4543Z" fill="#BE3D50"/>
<path d="M73.064 56.0321L65.5811 51.6827V49.9431L73.064 54.292V56.0321Z" fill="#D0D4F9"/>
<path d="M73.0645 59.4169L65.5815 55.1138V53.3284L73.0645 57.6774V59.4169Z" fill="#D0D4F9"/>
<path d="M73.0645 62.8481L65.5815 58.4987V56.7133L73.0645 61.0627V62.8481Z" fill="#D0D4F9"/>
<path d="M96.5682 68.9788L89.04 64.6752V62.8898L96.5682 67.2393V68.9788Z" fill="#D0D4F9"/>
<path d="M96.5682 72.4092L89.04 68.0603V66.2749L96.5682 70.6238V72.4092Z" fill="#D0D4F9"/>
<path d="M96.5682 75.8111L89.04 71.4621V69.7225L96.5682 74.0256V75.8111Z" fill="#D0D4F9"/>
<defs>
<linearGradient id="paint0_linear" x1="48.7267" y1="89.4873" x2="64.5292" y2="89.7817" gradientUnits="userSpaceOnUse">
<stop stop-color="#CFD5F7"/>
<stop offset="1" stop-color="#BCC2E6"/>
</linearGradient>
<linearGradient id="paint1_linear" x1="28.6239" y1="79.1678" x2="70.5741" y2="87.5061" gradientUnits="userSpaceOnUse">
<stop stop-color="#C4CAEC"/>
<stop offset="1" stop-color="#B1B7DB"/>
</linearGradient>
<linearGradient id="paint2_linear" x1="124.192" y1="129.834" x2="53.9741" y2="11.6513" gradientUnits="userSpaceOnUse">
<stop stop-color="#191468"/>
<stop offset="1" stop-color="#383097"/>
</linearGradient>
<linearGradient id="paint3_linear" x1="75.0487" y1="46.6453" x2="87.2304" y2="25.6121" gradientUnits="userSpaceOnUse">
<stop/>
<stop offset="1" stop-color="white"/>
</linearGradient>
<linearGradient id="paint4_linear" x1="52.7195" y1="26.9588" x2="97.0517" y2="50.3231" gradientUnits="userSpaceOnUse">
<stop stop-color="#B80036"/>
<stop offset="1" stop-color="#FF5A72"/>
</linearGradient>
</defs>
</svg>
