<svg width="14" height="19" viewBox="0 0 14 19" fill="none" xmlns="http://www.w3.org/2000/svg">
<path d="M7 0.5C3.27783 0.5 0.25 3.52818 0.25 7.25C0.25 12.2297 6.47779 18.1484 6.74294 18.3982C6.81543 18.4659 6.90771 18.5 7 18.5C7.09229 18.5 7.18457 18.4659 7.2571 18.3982C7.52221 18.1484 13.75 12.2297 13.75 7.25C13.75 3.52818 10.7222 0.5 7 0.5ZM7 11C4.93236 11 3.24999 9.31764 3.24999 7.25C3.24999 5.18236 4.93239 3.49999 7 3.49999C9.06761 3.49999 10.75 5.18239 10.75 7.25C10.75 9.31761 9.06764 11 7 11Z" fill="#A9B0BE"/>
</svg>
