<svg width="16" height="16" viewBox="0 0 16 16" fill="none" xmlns="http://www.w3.org/2000/svg">
<path d="M7.99997 15.3334C3.95644 15.3334 0.666626 12.0436 0.666626 8.00003C0.666626 3.95649 3.95644 0.666678 7.99997 0.666678C12.0435 0.666678 15.3333 3.95649 15.3333 8.00003C15.3333 12.0436 12.0435 15.3334 7.99997 15.3334ZM11.7517 12.5941C11.8341 12.6859 11.9504 12.74 12.074 12.7449C12.1805 12.757 12.3175 12.7051 12.407 12.6201C13.3577 11.72 14.004 10.5741 14.2743 9.30653C14.3173 9.10424 14.2197 8.89833 14.0362 8.80346C13.5877 8.5716 13.0551 8.45928 12.5448 8.45928C11.8797 8.45928 11.2495 8.64997 10.8843 9.01521C10.1072 9.79174 10.4313 11.1296 11.7517 12.5941ZM4.24829 3.33435C4.16592 3.24261 4.04956 3.188 3.92602 3.18306C3.92065 3.18263 3.91438 3.18263 3.9081 3.18263C3.79084 3.18263 3.67805 3.2274 3.59301 3.30797C2.64233 4.20808 1.99599 5.35392 1.72568 6.62193C1.68271 6.82423 1.78029 7.03014 1.96381 7.12501C2.99686 7.65808 4.47031 7.55874 5.11574 6.9133C5.89184 6.13669 5.56777 4.79885 4.24829 3.33435ZM5.1157 9.01516C4.75046 8.64993 4.12024 8.45923 3.45513 8.45923C2.94487 8.45923 2.41313 8.5716 1.96377 8.80341C1.78025 8.89829 1.68266 9.10419 1.72563 9.30649C1.99599 10.5741 2.64229 11.7199 3.59297 12.62C3.68247 12.7051 3.81409 12.7579 3.92598 12.7449C4.04951 12.74 4.16587 12.6858 4.24824 12.5941C5.56867 11.1296 5.8927 9.79174 5.1157 9.01516ZM9.95325 1.88815C9.31856 1.68585 8.66148 1.58333 7.99997 1.58333C7.33847 1.58333 6.68135 1.68581 6.0467 1.88815C5.84526 1.9526 5.71369 2.14596 5.728 2.35677C5.8426 4.00617 6.81924 5.25003 7.99997 5.25003C9.18071 5.25003 10.1573 4.00617 10.2719 2.35681C10.2863 2.14596 10.1547 1.9526 9.95325 1.88815ZM6.16663 8.00003C6.16663 9.01112 6.98931 9.83337 7.99997 9.83337C9.01064 9.83337 9.83332 9.01117 9.83332 8.00003C9.83332 6.98888 9.01064 6.16668 7.99997 6.16668C6.98931 6.16668 6.16663 6.98893 6.16663 8.00003ZM10.2719 13.607C10.1573 11.9581 9.18071 10.7142 7.99997 10.7142C6.81924 10.7142 5.8426 11.9581 5.728 13.607C5.71369 13.8178 5.84436 14.0112 6.0458 14.0752C7.31518 14.4807 8.68481 14.4807 9.95415 14.0752C10.1556 14.0112 10.2863 13.8178 10.2719 13.607ZM14.2743 6.69485C14.004 5.42684 13.3577 4.28099 12.407 3.38089C12.3219 3.30032 12.2092 3.25555 12.0919 3.25555C12.0856 3.25555 12.0793 3.25554 12.074 3.25597C11.9504 3.26092 11.8341 3.31506 11.7517 3.4068C10.4313 4.8713 10.1072 6.2096 10.8843 6.98618C11.5297 7.63204 13.0023 7.7301 14.0362 7.19789C14.2197 7.10305 14.3173 6.89715 14.2743 6.69485Z" fill="#A9B0BE"/>
</svg>
