<svg width="20" height="12" viewBox="0 0 20 12" fill="none" xmlns="http://www.w3.org/2000/svg">
<path d="M19.655 0.822754H11.4578C11.0068 0.822754 10.5549 0.929537 10.151 1.13148C9.65143 1.38109 9.09292 1.51264 8.53526 1.51264H7.92706C7.48309 1.51264 7.10328 1.2317 6.95675 0.838249L4.61122 2.17826C1.86298 3.74919 0.119079 6.64279 0 9.79121H5.68495L6.28001 10.5845C6.7319 7.60249 9.30514 5.30698 12.4113 5.30698C15.7182 5.30698 18.4223 7.90819 18.6027 11.171H19.655C19.8455 11.171 20 11.0164 20 10.826V1.16769C20 0.977539 19.8455 0.822754 19.655 0.822754ZM5.29588 3.37629C3.38625 4.46804 2.0213 6.33002 1.55122 8.48522L0.87751 8.33818C1.38869 5.99265 2.87473 3.96579 4.95364 2.77753L6.37618 1.9647L6.71843 2.56363L5.29588 3.37629ZM19.3101 3.58228H15.1708V1.51264H19.3101V3.58228Z" fill="#A9B0BE"/>
</svg>
