<svg width="30" height="30" viewBox="0 0 30 30" fill="none" xmlns="http://www.w3.org/2000/svg">
<path d="M28.8483 23.0264L28.8466 23.0248L21.3445 16.3871C20.9965 16.0789 20.4695 16.0954 20.1405 16.4236L18.9038 17.6603L17.3702 16.1269L20.1028 12.8005C22.6551 14.1229 25.8725 13.714 28.0146 11.5725C29.6963 9.8909 30.3097 7.54487 29.8545 5.3793C29.7203 4.74004 28.9299 4.5045 28.4681 4.9668L25.59 7.84487C25.0674 8.36752 24.2201 8.36752 23.6974 7.84487C23.1394 7.28682 22.7133 6.86079 22.1552 6.30274C21.6326 5.78008 21.6326 4.93288 22.1552 4.41081L25.0334 1.53216C25.4957 1.07044 25.2601 0.280068 24.6209 0.145889C22.4552 -0.309384 20.1091 0.304092 18.4275 1.98567C16.2859 4.1278 15.8769 7.34512 17.1994 9.89734L13.873 12.6298L7.08991 5.8467L7.84108 5.09559C8.14987 4.7851 8.11811 4.27856 7.7781 4.00926L3.89093 0.809111C3.60089 0.579599 3.18575 0.603623 2.9239 0.865478L0.865204 2.92417C0.603348 3.18602 0.579325 3.60116 0.808837 3.89114L4.00946 7.77778C4.28421 8.12471 4.79257 8.14399 5.09538 7.84118L5.84696 7.08959L12.5084 13.7508L0.891161 23.2938C-0.208058 24.1569 -0.305323 25.7857 0.682567 26.7741C0.952098 27.0437 2.956 29.0475 3.22554 29.3171C4.21401 30.3049 5.84292 30.2077 6.706 29.1085L16.2492 17.4916L17.6609 18.9032L16.3761 20.188C16.0463 20.5186 16.0318 21.0485 16.3433 21.3965L23.0412 28.8641C24.3652 30.3327 26.6383 30.3798 28.0233 28.9929L28.9932 28.023C30.3896 26.6267 30.3225 24.3375 28.8483 23.0264ZM5.05132 25.8273C4.56546 25.8273 4.17241 25.4336 4.17241 24.9484C4.17241 24.4627 4.56616 24.0695 5.05132 24.0695C5.53554 24.0695 5.93022 24.4612 5.93022 24.9484C5.93022 25.4336 5.53706 25.8273 5.05132 25.8273Z" fill="#222454"/>
</svg>
