<svg width="23" height="32" viewBox="0 0 23 32" fill="none" xmlns="http://www.w3.org/2000/svg">
<path opacity="0.4" d="M0.565118 30.1746C0.36752 29.7839 0.25724 29.3549 0.24186 28.9171L0.163697 26.9164C0.0571283 23.7719 1.03296 20.6815 2.92906 18.1587C4.82515 15.6359 7.52734 13.8326 10.5866 13.0484C12.3413 12.6554 13.9077 11.6692 15.0196 10.2573C16.1314 8.84548 16.7202 7.09515 16.6856 5.30391L16.6262 3.21888C16.6144 2.82029 16.6814 2.42298 16.8234 2.04962C16.9655 1.67626 17.1798 1.33416 17.4541 1.04287C17.7285 0.751571 18.0574 0.516778 18.4222 0.351895C18.7871 0.187013 19.1806 0.0952676 19.5804 0.0819004C19.9802 0.0685332 20.3784 0.133805 20.7522 0.273989C21.1261 0.414172 21.4684 0.626519 21.7594 0.898911C22.0505 1.1713 22.2847 1.4984 22.4486 1.86153C22.6125 2.22466 22.703 2.61671 22.7148 3.0153L22.7742 5.10033C22.8564 8.2553 21.8494 11.347 19.9219 13.8582C17.9943 16.3694 15.2631 18.148 12.1849 18.8962C10.4549 19.3203 8.92112 20.3236 7.84057 21.7382C6.76001 23.1528 6.19826 24.8927 6.24941 26.6666L6.32759 28.6673C6.35187 29.3586 6.13861 30.0384 5.72312 30.5941C5.30762 31.1497 4.71483 31.548 4.04287 31.7229C3.37091 31.8978 2.66011 31.8388 2.02815 31.5557C1.39618 31.2727 0.880963 30.7825 0.56781 30.1664L0.565118 30.1746Z" fill="#0296E5"/>
</svg>
