<svg width="23" height="25" viewBox="0 0 23 25" fill="none" xmlns="http://www.w3.org/2000/svg">
<path opacity="0.4" d="M20.1938 24.1141C19.8406 24.1848 19.4762 24.1778 19.1256 24.0936L17.5221 23.7152C15.0054 23.1075 12.7699 21.6535 11.187 19.5948C9.60407 17.536 8.76908 14.9966 8.82075 12.3983C8.89542 10.9206 8.45826 9.46149 7.58358 8.26911C6.7089 7.07674 5.45069 6.22466 4.02284 5.85773L2.35658 5.44587C2.03794 5.36751 1.73767 5.22692 1.47291 5.0321C1.20815 4.83728 0.984082 4.59205 0.813504 4.31042C0.642925 4.0288 0.529174 3.71629 0.478749 3.39073C0.428324 3.06517 0.442209 2.73295 0.519614 2.41302C0.597019 2.0931 0.736428 1.79173 0.929879 1.52615C1.12333 1.26056 1.36703 1.03595 1.64708 0.865134C1.92712 0.694317 2.23802 0.580642 2.56203 0.530602C2.88603 0.480562 3.2168 0.495135 3.53544 0.573489L5.2017 0.98536C7.7213 1.61475 9.95098 3.09368 11.5178 5.17479C13.0846 7.2559 13.8935 9.81298 13.8093 12.4183C13.7646 13.8834 14.2225 15.3203 15.1063 16.4885C15.99 17.6566 17.2459 18.485 18.6637 18.835L20.2672 19.2134C20.8207 19.3463 21.3127 19.665 21.6618 20.1168C22.011 20.5685 22.1962 21.1262 22.187 21.6975C22.1777 22.2688 21.9745 22.8194 21.611 23.2582C21.2474 23.6969 20.7454 23.9975 20.1879 24.1102L20.1938 24.1141Z" fill="#0296E5"/>
</svg>
