<svg width="592" height="433" viewBox="0 0 592 433" fill="none" xmlns="http://www.w3.org/2000/svg">
<path d="M560 368.5C560 368.5 26.002 423.5 26.002 269C26.0019 114.383 591 306 591 137.5C591 -24.0001 26.002 87.4999 26.002 87.4999" stroke="#7BB745" stroke-width="2" stroke-dasharray="19 19"/>
<circle cx="21" cy="89" r="7" fill="#7BB745" stroke="white" stroke-width="2"/>
<g clip-path="url(#clip0_138_1167)">
<path d="M2.0739 61.7599C1.8029 61.8509 1.5869 61.6009 1.4879 61.4579C1.2089 61.0529 1.0659 60.1489 1.4839 59.2309C1.9069 58.3039 2.1859 57.1589 3.1739 55.4099C3.2889 55.2059 3.6679 52.6639 4.4159 51.0559C4.6179 50.6209 5.9109 50.3719 6.4249 50.5269C6.9379 50.6809 6.4199 51.5069 6.3879 51.6609C6.0439 53.3119 5.0829 55.7379 4.9379 56.0649C4.1379 57.8709 2.9729 58.4539 2.8669 59.7709C2.8119 60.4609 2.6619 61.0569 2.2669 60.9989C2.1739 61.3509 2.1729 61.7269 2.0739 61.7599ZM16.6689 61.9639C16.9259 62.0899 17.1729 61.8699 17.2889 61.7419C17.6189 61.3769 17.8799 60.4999 17.5849 59.5339C17.2879 58.5589 17.1609 57.3879 16.4109 55.5239C16.3239 55.3069 16.2819 52.7369 15.7509 51.0449C15.6079 50.5879 14.3589 50.1699 13.8289 50.2559C13.2999 50.3419 13.7049 51.2279 13.7169 51.3849C13.8409 53.0669 14.4749 55.5979 14.5759 55.9409C15.1319 57.8359 16.2099 58.5679 16.1419 59.8869C16.1059 60.5789 16.1759 61.1889 16.5749 61.1829C16.6229 61.5459 16.5749 61.9179 16.6689 61.9639Z" fill="#D4AB88"/>
<path d="M13.5118 64.5C14.0118 61.766 13.7748 58.02 13.7748 58.02H6.13083C6.13083 58.02 5.89283 61.766 6.39283 64.5C6.45583 64.844 6.58083 67.844 6.28383 70C6.21783 70.479 9.16983 70.937 9.12783 69.875C9.04983 67.906 9.39183 66.362 9.45583 65.375C9.49083 64.828 9.70583 63.5 9.79983 62.167C9.81083 62.149 10.0948 62.149 10.1058 62.167C10.1998 63.5 10.4138 64.828 10.4498 65.375C10.5138 66.362 10.8558 67.906 10.7778 69.875C10.7358 70.937 13.6878 70.479 13.6218 70C13.3248 67.844 13.4498 64.844 13.5118 64.5Z" fill="#4289C1"/>
<path d="M14.4969 70.9999C14.9959 70.5939 14.4559 69.8389 13.0769 69.5979C11.9139 69.3949 10.8769 69.5659 10.7139 69.9479C10.5019 70.4409 10.6639 70.9999 10.6639 70.9999H14.4969ZM5.37988 70.9999C4.88088 70.5939 5.42088 69.8389 6.79988 69.5979C7.96288 69.3949 8.99988 69.5659 9.16288 69.9479C9.37488 70.4419 9.21288 71.0009 9.21288 71.0009L5.37988 70.9999Z" fill="#292F33"/>
<path d="M14.7539 49.766C13.5349 49 11.9569 49 11.9569 49H7.95691C7.95691 49 6.37891 49 5.15991 49.766C3.95891 50.52 3.50391 52.766 3.50391 52.766L5.87691 53.454L5.98191 58.981H13.9319L14.0369 53.454L16.4099 52.766C16.4099 52.766 15.9549 50.52 14.7539 49.766Z" fill="#FA743E"/>
<path d="M12.0149 35.4899C10.9119 35.1329 8.31587 35.2299 7.66787 36.0739C5.98087 36.1059 4.00187 37.6309 3.74187 39.6429C3.48487 41.6339 4.05787 42.5579 4.26087 44.0549C4.49187 45.7509 5.44487 46.2939 6.20787 46.5209C7.30487 47.9699 8.47087 47.9079 10.4279 47.9079C14.2509 47.9079 16.0719 45.3499 16.2329 41.0059C16.3299 38.3769 14.7879 36.3869 12.0149 35.4899Z" fill="#963B22"/>
<path d="M8.23926 46.5991V49.0571C8.23926 49.9621 8.92726 51.7771 9.87726 51.7771C10.8273 51.7771 11.5153 49.9621 11.5153 49.0571V46.5991H8.23926Z" fill="#D4AB88"/>
<path d="M8.24023 48.716C8.73823 49.279 9.20524 49.42 9.87724 49.42C10.5482 49.42 11.0192 49.278 11.5172 48.716V48.05H8.24023V48.716Z" fill="#CC9B7A"/>
<path d="M14.2011 41.191C13.8311 40.679 13.3571 40.266 12.3191 40.12C12.7081 40.298 13.0811 40.915 13.1301 41.255C13.1791 41.596 13.2271 41.871 12.9191 41.531C11.6841 40.166 10.3401 40.704 9.00707 39.87C8.07607 39.288 7.79307 38.644 7.79307 38.644C7.79307 38.644 7.67907 39.504 6.26807 40.38C5.85907 40.634 5.37107 41.199 5.10007 42.035C4.90507 42.635 4.96607 43.171 4.96607 44.085C4.96607 46.755 7.16707 49 9.88107 49C12.5951 49 14.7961 46.735 14.7961 44.085C14.7971 42.424 14.6231 41.775 14.2011 41.191Z" fill="#D4AB88"/>
<path d="M12 47H8C8 47 8 48 10 48C12 48 12 47 12 47Z" fill="#C1694F"/>
<path d="M7.5 44C7.77614 44 8 43.7761 8 43.5C8 43.2239 7.77614 43 7.5 43C7.22386 43 7 43.2239 7 43.5C7 43.7761 7.22386 44 7.5 44Z" fill="#662113"/>
<path d="M12.5 44C12.7761 44 13 43.7761 13 43.5C13 43.2239 12.7761 43 12.5 43C12.2239 43 12 43.2239 12 43.5C12 43.7761 12.2239 44 12.5 44Z" fill="#662113"/>
<path d="M9 45H11C11 45 11 46 10 46C9 46 9 45 9 45Z" fill="#C1694F"/>
</g>
<g clip-path="url(#clip1_138_1167)">
<path d="M28 35C26.7844 34.9987 25.5974 35.3689 24.598 36.061C24.401 36.031 24.205 36 24 36C22.9391 36 21.9217 36.4214 21.1716 37.1716C20.4214 37.9217 20 38.9391 20 40V46C20 46.9193 20.1811 47.8295 20.5328 48.6788C20.8846 49.5281 21.4002 50.2997 22.0503 50.9498C22.7003 51.5998 23.4719 52.1154 24.3212 52.4672C25.1705 52.8189 26.0807 53 27 53C27.9193 53 28.8295 52.8189 29.6788 52.4672C30.5281 52.1154 31.2997 51.5998 31.9497 50.9498C32.5998 50.2997 33.1154 49.5281 33.4672 48.6788C33.8189 47.8295 34 46.9193 34 46V41.001C34.0001 40.213 33.845 39.4327 33.5436 38.7046C33.2421 37.9765 32.8002 37.315 32.243 36.7577C31.6858 36.2005 31.0244 35.7584 30.2963 35.4568C29.5683 35.1552 28.788 35 28 35Z" fill="#292F33"/>
<path d="M28.213 69.309C28.161 69.991 30.062 70.262 30.342 70.1C30.641 69.927 29.644 69.477 29.64 69.123C29.621 67.326 30.17 67.475 29.951 65.631C30.394 64.006 30.623 63.039 30.623 62.5C30.623 61.25 27.311 61.734 27.311 62.5C27.311 62.844 27.676 64.181 27.728 65.631C27.415 67.29 28.369 67.246 28.213 69.309ZM25.765 69.309C25.817 69.991 23.916 70.262 23.636 70.1C23.337 69.927 24.334 69.477 24.338 69.123C24.357 67.326 23.808 67.475 24.027 65.631C23.584 64.006 23.355 63.039 23.355 62.5C23.355 61.25 26.668 61.734 26.668 62.5C26.668 62.844 26.303 64.181 26.251 65.631C26.562 67.29 25.609 67.246 25.765 69.309Z" fill="#F7DECE"/>
<path d="M30.623 62.5C30.623 61.25 27.311 61.734 27.311 62.5C27.311 62.651 27.382 62.999 27.465 63.461H30.494C30.578 63.05 30.623 62.732 30.623 62.5ZM26.667 62.5C26.667 61.734 23.355 61.25 23.355 62.5C23.355 62.732 23.4 63.05 23.485 63.461H26.514C26.596 62.999 26.667 62.651 26.667 62.5Z" fill="#EEC2AD"/>
<path d="M20.2579 61.96C19.9999 62.084 19.7549 61.863 19.6389 61.733C19.3109 61.366 19.0559 60.487 19.3569 59.524C19.6599 58.551 19.9569 57.14 20.5559 55.522C20.6369 55.302 21.0549 51.758 21.3609 51.077C21.5579 50.64 22.6409 50.181 23.1709 50.27C23.6999 50.359 23.4169 50.921 23.2759 51.4C23.2759 51.4 22.3599 55.353 22.2599 55.696C21.9439 56.775 20.6359 58.614 20.6949 59.933C20.7259 60.625 20.7549 61.188 20.3559 61.179C20.3069 61.541 20.3529 61.914 20.2579 61.96ZM35.2419 61.76C35.5129 61.851 35.7289 61.601 35.8279 61.458C36.1069 61.053 36.2499 60.149 35.8319 59.231C35.4089 58.304 34.9379 56.941 34.1419 55.41C34.0339 55.202 33.1759 51.738 32.7869 51.101C32.5369 50.692 31.4049 50.372 30.8899 50.527C30.3769 50.681 30.7279 51.203 30.9269 51.661C30.9269 51.661 32.3299 55.468 32.4729 55.796C32.9219 56.827 34.4499 58.487 34.5549 59.804C34.6109 60.494 34.6519 61.057 35.0469 60.998C35.1409 61.351 35.1419 61.727 35.2419 61.76Z" fill="#F7DECE"/>
<path d="M30.945 71C31.25 71 31.317 70.582 31.034 70.371C30.655 70.086 30.154 69 29.473 69H28.228C27.999 69 27.738 70.209 27.818 70.48C27.92 70.825 28.251 71 28.63 71H30.945ZM23.032 71C22.727 71 22.66 70.582 22.943 70.371C23.322 70.086 23.823 69 24.504 69H25.749C25.978 69 26.239 70.209 26.159 70.48C26.057 70.825 25.726 71 25.348 71H23.032Z" fill="#292F33"/>
<path d="M31.354 52.771L33 51C31.562 49.208 29 49 29 49H25C25 49 22.438 49.208 21 51L22.646 52.771C22.646 52.771 23.25 55.688 23.25 56C23.25 56.312 22 60.75 22 63H32C32 60.75 30.75 56.312 30.75 56C30.75 55.688 31.354 52.771 31.354 52.771Z" fill="#E75A70"/>
<path d="M30.7501 56C30.7501 55.894 30.8201 55.488 30.9111 55H23.0891C23.1811 55.488 23.2501 55.894 23.2501 56C23.2501 56.083 23.1281 56.509 23.0271 57H30.9691C30.8611 56.442 30.7501 56.083 30.7501 56Z" fill="#DA2F47"/>
<path d="M25 46V50C25 50.5304 25.2107 51.0391 25.5858 51.4142C25.9609 51.7893 26.4696 52 27 52C27.5304 52 28.0391 51.7893 28.4142 51.4142C28.7893 51.0391 29 50.5304 29 50V46H25Z" fill="#F7DECE"/>
<path d="M25 48.56C25.608 49.247 26.178 49.419 26.998 49.419C27.817 49.419 28.392 49.246 29 48.56V47.748H25V48.56Z" fill="#EEC2AD"/>
<path d="M32 38H22V44C22 46.762 24.238 49 27 49C29.762 49 32 46.763 32 44V38Z" fill="#F7DECE"/>
<path d="M32 37H22L21 42C25 42 25 38 25 38C25 38 25 42 33 42L32 37Z" fill="#292F33"/>
<path d="M29 47H25C25 47 25 48 27 48C29 48 29 47 29 47Z" fill="#DF1F32"/>
<path d="M24.5 44C24.7761 44 25 43.7761 25 43.5C25 43.2239 24.7761 43 24.5 43C24.2239 43 24 43.2239 24 43.5C24 43.7761 24.2239 44 24.5 44Z" fill="#662113"/>
<path d="M29.5 44C29.7761 44 30 43.7761 30 43.5C30 43.2239 29.7761 43 29.5 43C29.2239 43 29 43.2239 29 43.5C29 43.7761 29.2239 44 29.5 44Z" fill="#662113"/>
<path d="M26 45H28C28 45 28 46 27 46C26 46 26 45 26 45Z" fill="#C1694F"/>
<path d="M43.5 35C42.3595 34.9993 41.2472 35.3553 40.319 36.018C39.4249 36.0623 38.582 36.4484 37.9643 37.0964C37.3467 37.7444 37.0015 38.6048 37 39.5C37 41.042 37.007 42.984 39.038 43.708C39.546 44.4172 40.2158 44.9951 40.9918 45.3937C41.7678 45.7924 42.6276 46.0002 43.5 46C44.9587 46 46.3576 45.4205 47.3891 44.3891C48.4205 43.3576 49 41.9587 49 40.5C49 39.0413 48.4205 37.6424 47.3891 36.6109C46.3576 35.5795 44.9587 35 43.5 35Z" fill="#292F33"/>
<path d="M35.1171 61.7599C34.8461 61.8509 34.6301 61.6009 34.5311 61.4579C34.2521 61.0529 34.1091 60.1489 34.5271 59.2309C34.9501 58.3039 35.2291 57.1589 36.2171 55.4099C36.3321 55.2059 36.7111 52.6639 37.4591 51.0559C37.6611 50.6209 38.9541 50.3719 39.4681 50.5269C39.9811 50.6809 39.4631 51.5069 39.4311 51.6609C39.0871 53.3119 38.1261 55.7379 37.9811 56.0649C37.1811 57.8709 36.0161 58.4539 35.9101 59.7709C35.8551 60.4609 35.7051 61.0569 35.3101 60.9989C35.2181 61.3509 35.2161 61.7269 35.1171 61.7599ZM49.7121 61.9639C49.9691 62.0899 50.2161 61.8699 50.3321 61.7419C50.6621 61.3769 50.9231 60.4999 50.6281 59.5339C50.3311 58.5589 50.2041 57.3879 49.4541 55.5239C49.3671 55.3069 49.3251 52.7369 48.7941 51.0449C48.6511 50.5879 47.4021 50.1699 46.8721 50.2559C46.3431 50.3419 46.7481 51.2279 46.7601 51.3849C46.8841 53.0669 47.5181 55.5979 47.6191 55.9409C48.1751 57.8359 49.2531 58.5679 49.1851 59.8869C49.1491 60.5789 49.2191 61.1889 49.6181 61.1829C49.6661 61.5459 49.6181 61.9179 49.7121 61.9639Z" fill="#F7DECE"/>
<path d="M46.5549 64.5C47.0549 61.766 46.9769 58 46.9769 58H39.0139C39.0139 58 38.9359 61.766 39.4359 64.5C39.4989 64.844 39.6239 67.844 39.3269 70C39.2609 70.479 42.2129 70.937 42.1709 69.875C42.0929 67.906 42.4349 66.362 42.4989 65.375C42.5339 64.828 42.7489 63.5 42.8429 62.167C42.8539 62.149 43.1379 62.149 43.1489 62.167C43.2429 63.5 43.4569 64.828 43.4929 65.375C43.5569 66.362 43.8989 67.906 43.8209 69.875C43.7789 70.937 46.7309 70.479 46.6649 70C46.3679 67.844 46.4929 64.844 46.5549 64.5Z" fill="#AAB8C2"/>
<path d="M47.5401 70.9999C48.0391 70.5939 47.4991 69.8389 46.1201 69.5979C44.9571 69.3949 43.9201 69.5659 43.7571 69.9479C43.5451 70.4409 43.7071 70.9999 43.7071 70.9999H47.5401ZM38.4231 70.9999C37.9241 70.5939 38.4641 69.8389 39.8431 69.5979C41.0061 69.3949 42.0431 69.5659 42.2061 69.9479C42.4181 70.4419 42.2561 71.0009 42.2561 71.0009L38.4231 70.9999Z" fill="#292F33"/>
<path d="M47.7971 49.766C46.5781 49 45.0001 49 45.0001 49H41.0001C41.0001 49 39.4221 49 38.2031 49.766C37.0021 50.52 36.5471 52.766 36.5471 52.766L38.7501 53.454L38.8591 59H47.1401L47.2491 53.453L49.4521 52.765C49.4531 52.766 48.9981 50.52 47.7971 49.766Z" fill="#4289C1"/>
<path d="M41 45.042V49.042C41 49.724 41.896 50.347 43 50.347C44.104 50.347 45 49.679 45 49.042V45.042H41Z" fill="#F7DECE"/>
<path d="M41 48.561C41.608 49.248 42.178 49.42 42.998 49.42C43.817 49.42 44.392 49.247 45 48.561V47.749H41V48.561Z" fill="#EEC2AD"/>
<path d="M48 38H38V44C38 46.762 40.238 49 43 49C45.762 49 48 46.763 48 44V38Z" fill="#F7DECE"/>
<path d="M38 37.5L37.5 40L38 42C40.333 42 40.85 39.588 40.965 38.512C41.004 39.588 41.779 42 48 42L48.5 40L48 37.5H38Z" fill="#292F33"/>
<path d="M45 47H41C41 47 41 48 43 48C45 48 45 47 45 47Z" fill="#C1694F"/>
<path d="M40.5 44C40.7761 44 41 43.7761 41 43.5C41 43.2239 40.7761 43 40.5 43C40.2239 43 40 43.2239 40 43.5C40 43.7761 40.2239 44 40.5 44Z" fill="#662113"/>
<path d="M45.5 44C45.7761 44 46 43.7761 46 43.5C46 43.2239 45.7761 43 45.5 43C45.2239 43 45 43.2239 45 43.5C45 43.7761 45.2239 44 45.5 44Z" fill="#662113"/>
<path d="M42 45H44C44 45 44 46 43 46C42 46 42 45 42 45Z" fill="#C1694F"/>
</g>
<path d="M185 108C185 109.061 184.579 110.078 183.828 110.828C183.078 111.579 182.061 112 181 112H155C153.939 112 152.922 111.579 152.172 110.828C151.421 110.078 151 109.061 151 108V88.313C151 86.104 156.791 82 159 82H179.625C182.719 82 185 84.312 185 87.375V108Z" fill="#226699"/>
<path d="M183 112C183 113.061 182.579 114.078 181.828 114.829C181.078 115.579 180.061 116 179 116H157C155.939 116 154.922 115.579 154.172 114.829C153.421 114.078 153 113.061 153 112V88.0001C153 83.8811 152.979 84.0001 158 84.0001H179C180.061 84.0001 181.078 84.4215 181.828 85.1717C182.579 85.9218 183 86.9392 183 88.0001V112Z" fill="#CCD6DD"/>
<path d="M181 113C181 113.796 180.684 114.559 180.121 115.121C179.559 115.684 178.796 116 178 116H154C153.204 116 152.441 115.684 151.879 115.121C151.316 114.559 151 113.796 151 113V89C151 88.2044 151.316 87.4413 151.879 86.8787C152.441 86.3161 153.204 86 154 86H178C178.796 86 179.559 86.3161 180.121 86.8787C180.684 87.4413 181 88.2044 181 89V113Z" fill="#E1E8ED"/>
<path d="M181 114C181 115.061 180.579 116.078 179.828 116.828C179.078 117.579 178.061 118 177 118H156C154.939 118 153.922 117.579 153.172 116.828C152.421 116.078 152 115.061 152 114V92C152 90.9391 152.421 89.9217 153.172 89.1716C153.922 88.4214 154.939 88 156 88H177C178.061 88 179.078 88.4214 179.828 89.1716C180.579 89.9217 181 90.9391 181 92V114Z" fill="#3B88C3"/>
<path d="M179 114C179 115.061 178.579 116.078 177.828 116.828C177.078 117.579 176.061 118 175 118H156C154.939 118 153.922 117.579 153.172 116.828C152.421 116.078 152 115.061 152 114V94C152 92.9391 152.421 91.9217 153.172 91.1716C153.922 90.4214 154.939 90 156 90H175.335C177.544 90 179 91.456 179 93.665V114Z" fill="#55ACEE"/>
<path d="M156 88C154.312 88 154.269 86.078 155 85.25C155.832 84.309 157.125 84 159.438 84H161V82H158.281C154.312 82 151 84.5 151 87.375V114C151 115.061 151.421 116.078 152.172 116.828C152.922 117.579 153.939 118 155 118H157V88H156Z" fill="#226699"/>
<path d="M159 105V95H165.173V96.2172H160.488V99.3499H164.286V100.567H160.488V103.783H165.43V105H159Z" fill="white"/>
<path d="M167.123 105V97.8354H168.531V98.8105L168.487 99.3499H168.516C168.594 99.1747 168.709 98.9972 168.861 98.8174C169.012 98.6376 169.203 98.4578 169.433 98.278C169.662 98.0982 169.948 97.9507 170.29 97.8354C170.637 97.7201 171.006 97.6625 171.397 97.6625C172.287 97.6625 172.942 97.8907 173.362 98.3472C173.787 98.799 174 99.4859 174 100.408V105H172.541V100.726C172.541 100.45 172.522 100.212 172.482 100.014C172.448 99.8156 172.382 99.6289 172.284 99.4537C172.187 99.2785 172.04 99.1471 171.845 99.0595C171.649 98.9673 171.405 98.9212 171.111 98.9212C170.373 98.9212 169.765 99.1747 169.286 99.6819C168.812 100.184 168.575 100.809 168.575 101.556V105H167.123Z" fill="white"/>
<circle cx="166" cy="66" r="7" fill="#7BB745" stroke="white" stroke-width="2"/>
<circle cx="372" cy="50" r="7" fill="#7BB745" stroke="white" stroke-width="2"/>
<g clip-path="url(#clip2_138_1167)">
<path d="M389 36V34C389 32.4087 388.368 30.8826 387.243 29.7574C386.117 28.6321 384.591 28 383 28H367C365.409 28 363.883 28.6321 362.757 29.7574C361.632 30.8826 361 32.4087 361 34V36H389Z" fill="#E1E8ED"/>
<path d="M382.799 28.127C382.799 29.487 379.308 30.561 375 30.561C370.693 30.561 367.201 29.501 367.201 28.141C367.201 28.079 367.216 28 367.23 28H366.496L365.791 28.099L365.797 29.116C365.911 31.521 369.983 32.508 375 32.508C379.996 32.508 384.054 31.499 384.2 29.094L384.214 28.12C384.214 28.122 382.799 28.065 382.799 28.127Z" fill="#EA596E"/>
<path d="M375 31.5091C380.089 31.5091 384.214 29.9694 384.214 28.0701C384.214 26.1708 380.089 24.6311 375 24.6311C369.911 24.6311 365.786 26.1708 365.786 28.0701C365.786 29.9694 369.911 31.5091 375 31.5091Z" fill="#BE1931"/>
<path d="M375 30.5329C370.693 30.5329 367.201 29.4299 367.201 28.0699C367.201 26.7099 370.693 25.6069 375 25.6069C379.307 25.6069 382.799 26.7099 382.799 28.0699C382.799 29.4299 379.307 30.5329 375 30.5329Z" fill="#292F33"/>
<path d="M370.64 27.937C372.384 29.204 373.488 29.448 375 29.448C376.511 29.448 377.616 29.203 379.36 27.937V24.126H370.64V27.937Z" fill="#F7DECE"/>
<path d="M370.632 25.9729C371.848 27.3469 373.356 27.7189 374.996 27.7189C376.635 27.7189 378.143 27.3469 379.36 25.9729V22.4819H370.632V25.9729Z" fill="#EEC2AD"/>
<path d="M378.597 3.51597C376.672 2.89297 372.142 3.06297 371.009 4.53497C368.065 4.59197 364.611 7.25297 364.158 10.763C363.71 14.238 364.709 15.851 365.064 18.464C365.467 21.424 367.131 22.371 368.461 22.767C370.375 25.296 372.41 25.188 375.827 25.188C382.499 25.188 385.677 20.724 385.958 13.141C386.128 8.55597 383.437 5.08197 378.597 3.51597Z" fill="#292F33"/>
<path d="M382.413 13.466C381.767 12.572 380.941 11.852 379.129 11.598C379.809 11.909 380.46 12.985 380.545 13.58C380.63 14.175 380.715 14.656 380.177 14.061C378.022 11.679 375.675 12.617 373.35 11.162C371.726 10.146 371.231 9.021 371.231 9.021C371.231 9.021 371.033 10.521 368.57 12.05C367.856 12.493 367.004 13.48 366.532 14.938C366.192 15.986 366.298 16.92 366.298 18.516C366.298 23.176 370.139 27.094 374.876 27.094C379.613 27.094 383.454 23.141 383.454 18.516C383.453 15.618 383.149 14.485 382.413 13.466Z" fill="#F7DECE"/>
<path d="M375.827 20.9H373.921C373.794 20.9 373.673 20.8498 373.584 20.7603C373.494 20.6709 373.444 20.5496 373.444 20.423C373.444 20.2965 373.494 20.1752 373.584 20.0858C373.673 19.9963 373.794 19.946 373.921 19.946H375.827C375.953 19.946 376.075 19.9963 376.164 20.0858C376.254 20.1752 376.304 20.2965 376.304 20.423C376.304 20.5496 376.254 20.6709 376.164 20.7603C376.075 20.8498 375.953 20.9 375.827 20.9Z" fill="#C1694F"/>
<path d="M371.062 17.5641C370.809 17.5641 370.567 17.4637 370.388 17.285C370.209 17.1062 370.109 16.8638 370.109 16.6111V15.6581C370.109 15.4053 370.209 15.1629 370.388 14.9842C370.567 14.8055 370.809 14.7051 371.062 14.7051C371.315 14.7051 371.557 14.8055 371.736 14.9842C371.915 15.1629 372.015 15.4053 372.015 15.6581V16.6111C372.015 16.8638 371.915 17.1062 371.736 17.285C371.557 17.4637 371.315 17.5641 371.062 17.5641ZM378.687 17.5641C378.434 17.5641 378.192 17.4637 378.013 17.285C377.834 17.1062 377.734 16.8638 377.734 16.6111V15.6581C377.734 15.4053 377.834 15.1629 378.013 14.9842C378.192 14.8055 378.434 14.7051 378.687 14.7051C378.94 14.7051 379.182 14.8055 379.361 14.9842C379.54 15.1629 379.64 15.4053 379.64 15.6581V16.6111C379.64 16.8638 379.54 17.1062 379.361 17.285C379.182 17.4637 378.94 17.5641 378.687 17.5641Z" fill="#662113"/>
<path d="M375 24.88C372.246 24.88 371.4 24.175 371.259 24.032C371.197 23.9727 371.147 23.9018 371.112 23.8232C371.077 23.7446 371.058 23.6599 371.055 23.5739C371.051 23.4003 371.115 23.2319 371.235 23.106C371.355 22.98 371.519 22.9067 371.693 22.9022C371.867 22.8977 372.035 22.9624 372.161 23.082C372.213 23.119 372.882 23.569 375 23.569C377.2 23.569 377.836 23.084 377.842 23.079C377.902 23.0191 377.974 22.9718 378.053 22.9401C378.132 22.9084 378.217 22.8927 378.302 22.8941C378.387 22.8955 378.471 22.9139 378.549 22.9482C378.626 22.9826 378.697 23.0321 378.755 23.094C378.876 23.2209 378.943 23.3904 378.94 23.5658C378.937 23.7413 378.866 23.9087 378.741 24.032C378.6 24.175 377.754 24.88 375 24.88Z" fill="#C1694F"/>
<path d="M386 33V36H389V34C389 33.659 388.965 33.326 388.91 33H386Z" fill="#55ACEE"/>
<path d="M387 34H389V36H387V34Z" fill="#FFCC4D"/>
<path d="M377.004 36C375.806 30.854 370.956 27 365.147 27C359.338 27 354.488 30.854 353.29 36H377.004Z" fill="#E1E8ED"/>
<path d="M375.669 35.9999C374.496 31.5359 370.237 28.2219 365.147 28.2219C360.057 28.2219 355.798 31.5359 354.625 35.9999H375.669Z" fill="#292F33"/>
<path d="M374.637 36C373.489 32.063 369.681 29.167 365.147 29.167C360.613 29.167 356.805 32.063 355.657 36H374.637Z" fill="#FFAC33"/>
<path d="M371.195 35.048L371.298 34.985C372.067 34.517 372.226 33.447 371.599 32.803C371.129 32.3196 370.604 31.8943 370.033 31.536C369.473 31.1895 368.874 30.9118 368.248 30.709C367.42 30.436 366.537 30.942 366.382 31.8C366.263 32.461 366.606 33.146 367.237 33.378C368.086 33.6884 368.85 34.1932 369.468 34.852C369.911 35.324 370.642 35.385 371.195 35.048Z" fill="#FFDC5D"/>
<path d="M359.344 14.2619L357.802 13.6909L357.202 11.4909C357.163 11.3502 357.079 11.2261 356.963 11.1378C356.847 11.0494 356.705 11.0016 356.559 11.0017C356.413 11.0018 356.271 11.0498 356.155 11.1384C356.039 11.2269 355.955 11.3511 355.916 11.4919L355.316 13.6919L353.774 14.2629C353.646 14.3095 353.535 14.3945 353.457 14.5063C353.378 14.6182 353.336 14.7514 353.336 14.8879C353.336 15.0244 353.378 15.1576 353.457 15.2694C353.535 15.3813 353.646 15.4663 353.774 15.5129L355.308 16.0809L355.912 18.4959C355.948 18.6401 356.032 18.7681 356.149 18.8594C356.266 18.9508 356.411 19.0004 356.559 19.0003C356.708 19.0002 356.852 18.9504 356.97 18.8588C357.087 18.7672 357.17 18.6392 357.206 18.4949L357.81 16.0799L359.344 15.5119C359.472 15.4653 359.583 15.3803 359.662 15.2684C359.74 15.1566 359.782 15.0234 359.782 14.8869C359.782 14.7504 359.74 14.6172 359.662 14.5053C359.583 14.3935 359.472 14.3085 359.344 14.2619Z" fill="#9266CC"/>
<path d="M364.28 4.63396L361.67 3.66796L360.704 1.05796C360.626 0.846679 360.484 0.66446 360.299 0.535783C360.114 0.407106 359.894 0.338135 359.669 0.338135C359.444 0.338135 359.224 0.407106 359.039 0.535783C358.854 0.66446 358.712 0.846679 358.634 1.05796L357.668 3.66796L355.058 4.63396C354.847 4.71238 354.664 4.85359 354.536 5.03861C354.407 5.22363 354.338 5.44359 354.338 5.66896C354.338 5.89432 354.407 6.11429 354.536 6.29931C354.664 6.48433 354.847 6.62554 355.058 6.70396L357.668 7.66996L358.634 10.28C358.712 10.4917 358.853 10.6744 359.038 10.8034C359.223 10.9325 359.443 11.0017 359.669 11.0017C359.895 11.0017 360.115 10.9325 360.3 10.8034C360.485 10.6744 360.626 10.4917 360.704 10.28L361.67 7.66996L364.28 6.70396C364.491 6.62554 364.673 6.48433 364.802 6.29931C364.931 6.11429 365 5.89432 365 5.66896C365 5.44359 364.931 5.22363 364.802 5.03861C364.673 4.85359 364.491 4.71238 364.28 4.63396Z" fill="#5DADEC"/>
</g>
<circle cx="548" cy="76" r="7" fill="#7BB745" stroke="white" stroke-width="2"/>
<g clip-path="url(#clip3_138_1167)">
<path d="M515 72.1799C500.438 72.1799 497 76.8439 497 78.9999C497 81.1559 498.791 82.9999 501 82.9999H529C531.209 82.9999 533 81.1489 533 78.9999C533 76.8509 529.562 72.1799 515 72.1799Z" fill="#78B159"/>
<path d="M525.804 75.1499C525.804 76.6809 524.562 77.2299 523.031 77.2299C521.5 77.2299 520.258 76.6819 520.258 75.1499L520.951 68.9109C520.951 67.3799 521.499 67.5239 523.031 67.5239C524.562 67.5239 525.111 67.3789 525.111 68.9109L525.804 75.1499Z" fill="#662113"/>
<path d="M531.868 66.7169C527.278 62.5819 525.419 56.6609 523.031 56.6609C520.643 56.6609 518.784 62.5819 514.195 66.7169C512.266 68.4549 513.185 69.4599 515.829 69.2589C518.186 69.0799 520.39 68.5179 523.031 68.5179C525.672 68.5179 527.877 69.0809 530.233 69.2589C532.877 69.4599 533.796 68.4539 531.868 66.7169Z" fill="#5C913B"/>
<path d="M530.377 65.0779C526.85 61.6769 524.868 56.8049 523.031 56.8049C521.195 56.8049 519.213 61.6769 515.686 65.0779C512.883 67.7809 519.359 68.3869 523.031 65.0779C526.702 68.3869 533.179 67.7809 530.377 65.0779Z" fill="#3E721D"/>
<path d="M530.377 62.323C526.85 59.145 524.868 54.594 523.031 54.594C521.195 54.594 519.213 59.145 515.686 62.323C512.883 64.848 519.359 65.414 523.031 62.323C526.702 65.414 533.179 64.847 530.377 62.323Z" fill="#5C913B"/>
<path d="M528.766 60.066C526.013 57.585 524.465 54.032 523.031 54.032C521.598 54.032 520.05 57.585 517.296 60.066C515.108 62.037 520.163 62.48 523.031 60.066C525.898 62.479 530.954 62.037 528.766 60.066Z" fill="#3E721D"/>
<path d="M528.766 58.001C526.013 55.52 524.465 51.967 523.031 51.967C521.598 51.967 520.05 55.52 517.296 58.001C515.108 59.972 520.163 60.415 523.031 58.001C525.898 60.415 530.954 59.973 528.766 58.001Z" fill="#5C913B"/>
<path d="M527.659 56.1681C525.437 54.1661 524.188 51.2991 523.031 51.2991C521.874 51.2991 520.625 54.1661 518.403 56.1681C516.637 57.7591 520.717 58.1161 523.031 56.1681C525.345 58.1161 529.426 57.7591 527.659 56.1681Z" fill="#3E721D"/>
<path d="M527.659 54.6141C525.437 52.6121 524.188 49.7451 523.031 49.7451C521.874 49.7451 520.625 52.6121 518.403 54.6141C516.637 56.2051 520.717 56.5621 523.031 54.6141C525.345 56.5621 529.426 56.2051 527.659 54.6141Z" fill="#5C913B"/>
<path d="M526.553 52.3261C524.863 50.8031 523.912 48.6211 523.031 48.6211C522.151 48.6211 521.2 50.8031 519.509 52.3261C518.165 53.5371 521.27 53.8081 523.031 52.3261C524.792 53.8091 527.897 53.5371 526.553 52.3261Z" fill="#3E721D"/>
<path d="M526.553 51.29C524.863 49.767 523.912 47.585 523.031 47.585C522.151 47.585 521.2 49.767 519.509 51.29C518.165 52.501 521.27 52.772 523.031 51.29C524.792 52.772 527.897 52.501 526.553 51.29Z" fill="#5C913B"/>
<path d="M512.101 80C511.677 80 511.299 79.733 511.157 79.334L506.145 65.301C506.091 65.1528 506.074 64.9936 506.096 64.8374C506.118 64.6812 506.178 64.5327 506.27 64.405C506.364 64.2765 506.488 64.1726 506.63 64.1021C506.773 64.0316 506.931 63.9966 507.09 64H518.849C519.25 64 519.613 64.22 519.771 64.589L525.785 78.612C525.851 78.764 525.877 78.93 525.863 79.095C525.848 79.2599 525.792 79.4185 525.7 79.5564C525.608 79.6943 525.484 79.8071 525.337 79.8846C525.191 79.9621 525.028 80.0017 524.862 80H512.101Z" fill="#F4900C"/>
<path d="M501.075 79.9999C500.909 79.9993 500.746 79.9576 500.601 79.8788C500.455 79.7999 500.331 79.6862 500.24 79.5478C500.149 79.4094 500.093 79.2507 500.078 79.0856C500.063 78.9206 500.089 78.7544 500.154 78.6019L506.172 64.5599C506.249 64.3794 506.378 64.2254 506.541 64.1173C506.705 64.0091 506.897 63.9514 507.094 63.9514C507.29 63.9514 507.482 64.0091 507.646 64.1173C507.809 64.2254 507.938 64.3794 508.015 64.5599L514.033 78.6009C514.098 78.7536 514.124 78.9199 514.109 79.085C514.094 79.2502 514.038 79.409 513.947 79.5475C513.856 79.686 513.732 79.7997 513.586 79.8787C513.44 79.9576 513.277 79.9992 513.111 79.9999H501.075Z" fill="#FFCC4D"/>
<path d="M507.09 66.436L505.084 80H509.094L507.09 66.436Z" fill="#292F33"/>
<path d="M511.127 78.887L511.575 80H509.094L511.127 78.887ZM503.052 78.887L502.604 80H505.084L503.052 78.887Z" fill="#FFAC33"/>
<path d="M509.094 80.0001C509.094 80.0001 510.917 79.5351 511.808 78.7121L507.09 66.4361L509.094 80.0001ZM505.084 80.0001C505.084 80.0001 503.261 79.5351 502.37 78.7121L507.089 66.4351L505.084 80.0001Z" fill="#FFE8B6"/>
</g>
<circle cx="556" cy="191" r="7" fill="#7BB745" stroke="white" stroke-width="2"/>
<path d="M555.103 230H558.103V240H555.103V230Z" fill="#BE1931"/>
<path d="M559.719 223.459L553.486 223.461C553.457 223.565 550.741 232.985 541.461 240H547.286C549.739 238.344 553.006 237.322 556.602 237.322C560.198 237.322 563.466 238.344 565.919 240H571.746C562.501 233.002 559.748 223.563 559.719 223.459ZM556.603 234.322C554.452 234.322 552.401 234.651 550.51 235.228C551.663 233.733 552.705 232.157 553.629 230.511H559.576C560.5 232.157 561.542 233.733 562.695 235.228C560.72 234.626 558.667 234.321 556.603 234.322Z" fill="#DD2E44"/>
<path d="M553.539 220.038C553.331 221.216 553.069 222.384 552.754 223.538H560.509C560.193 222.384 559.931 221.216 559.724 220.038H553.539Z" fill="#DD2E44"/>
<path d="M562.42 223.586L561.545 222.944C561.499 222.911 561.444 222.893 561.387 222.893H551.84C551.783 222.893 551.728 222.911 551.682 222.944L550.807 223.586C550.773 223.611 550.747 223.643 550.729 223.681C550.711 223.718 550.703 223.76 550.705 223.801C550.705 223.801 550.909 227.242 550.97 227.353C551.043 227.486 551.478 227.833 551.558 227.833H561.669C561.749 227.833 562.183 227.487 562.257 227.353C562.319 227.241 562.522 223.801 562.522 223.801C562.525 223.76 562.517 223.718 562.499 223.68C562.481 223.643 562.454 223.61 562.42 223.586ZM559.199 216.705H554.063C553.912 217.82 553.738 218.931 553.539 220.038H559.723C559.524 218.931 559.349 217.82 559.199 216.705Z" fill="#CDD6DD"/>
<path d="M558.774 213.205H554.488C554.363 214.374 554.221 215.54 554.063 216.705H559.199C559.041 215.54 558.9 214.374 558.774 213.205Z" fill="#DD2E44"/>
<path d="M558.657 212.089C558.632 212.093 554.636 212.091 554.606 212.086C554.572 212.42 554.533 212.79 554.488 213.205H558.774L558.657 212.089Z" fill="#CDD6DD"/>
<path d="M558.657 212.089C558.598 211.518 558.522 210.808 558.522 210.808H554.741C554.741 210.808 554.665 211.517 554.606 212.086C554.636 212.091 558.632 212.093 558.657 212.089Z" fill="#AAB8C2"/>
<path d="M554.175 209.901V211.219C554.175 211.495 554.408 211.719 554.696 211.719H558.584C558.719 211.722 558.85 211.67 558.948 211.577C559.046 211.483 559.102 211.354 559.105 211.219V209.901H554.175Z" fill="#E1E8ED"/>
<path d="M558.583 208.083H557.484L557.279 204.325C557.278 204.278 557.258 204.233 557.224 204.2C557.19 204.167 557.144 204.149 557.097 204.15H556.249C556.226 204.149 556.202 204.154 556.18 204.162C556.159 204.171 556.139 204.183 556.122 204.2C556.105 204.216 556.091 204.235 556.082 204.257C556.072 204.278 556.067 204.301 556.067 204.325L555.862 208.083H554.696C554.561 208.08 554.43 208.131 554.332 208.225C554.234 208.319 554.178 208.448 554.175 208.583V209.901H559.104V208.583C559.103 208.516 559.088 208.45 559.061 208.388C559.034 208.327 558.996 208.271 558.947 208.225C558.899 208.178 558.842 208.142 558.779 208.118C558.717 208.093 558.65 208.081 558.583 208.083Z" fill="#DD2E44"/>
<circle cx="390" cy="211" r="7" fill="#7BB745" stroke="white" stroke-width="2"/>
<g clip-path="url(#clip4_138_1167)">
<path d="M375 177H405V195H375V177Z" fill="#66757F"/>
<path d="M374 195H406C406.53 195 407.039 195.211 407.414 195.586C407.789 195.961 408 196.47 408 197H372C372 196.47 372.211 195.961 372.586 195.586C372.961 195.211 373.47 195 374 195Z" fill="#CCD6DD"/>
<path d="M390 184C389.204 184 388.441 184.316 387.879 184.879C387.316 185.441 387 186.204 387 187V193H393V187C393 186.204 392.684 185.441 392.121 184.879C391.559 184.316 390.796 184 390 184Z" fill="#292F33"/>
<path d="M375 182H379V193H375V182ZM381 182H385V193H381V182ZM401 182H405V193H401V182ZM395 182H399V193H395V182Z" fill="#CCD6DD"/>
<path d="M374 193H406V195H374V193Z" fill="#AAB8C2"/>
<path d="M408 172L390 161L372 172H408Z" fill="#66757F"/>
<path d="M390 163.4L374 173V177H406V173L390 163.4Z" fill="#CCD6DD"/>
<path d="M375 180H379V182H375V180ZM381 180H385V182H381V180ZM395 180H399V182H395V180ZM401 180H405V182H401V180Z" fill="#8899A6"/>
<path d="M373 173H407V178H373V173Z" fill="#CCD6DD"/>
<path d="M408 173C408 173.265 407.895 173.52 407.707 173.707C407.52 173.895 407.265 174 407 174H373C372.735 174 372.48 173.895 372.293 173.707C372.105 173.52 372 173.265 372 173V172C372 171.735 372.105 171.48 372.293 171.293C372.48 171.105 372.735 171 373 171H407C407.265 171 407.52 171.105 407.707 171.293C407.895 171.48 408 171.735 408 172V173ZM408 179C408 179.265 407.895 179.52 407.707 179.707C407.52 179.895 407.265 180 407 180H373C372.735 180 372.48 179.895 372.293 179.707C372.105 179.52 372 179.265 372 179V178C372 177.735 372.105 177.48 372.293 177.293C372.48 177.105 372.735 177 373 177H407C407.265 177 407.52 177.105 407.707 177.293C407.895 177.48 408 177.735 408 178V179Z" fill="#AAB8C2"/>
<path d="M385 193H395V195H385V193Z" fill="#E1E8ED"/>
<path d="M383 195H397V197H383V195Z" fill="#F5F8FA"/>
</g>
<circle cx="210" cy="205" r="7" fill="#7BB745" stroke="white" stroke-width="2"/>
<g clip-path="url(#clip5_138_1167)">
<path d="M225 258V254C225 252.409 224.368 250.883 223.243 249.757C222.117 248.632 220.591 248 219 248H203C201.409 248 199.883 248.632 198.757 249.757C197.632 250.883 197 252.409 197 254V258H225Z" fill="#CCD6DD"/>
<path d="M207 249L211 253L215 249V244H207V249Z" fill="#F7DECE"/>
<path d="M207 246C208.216 247.374 209.355 247.719 210.996 247.719C212.635 247.719 213.783 247.373 215 246V242H207V246Z" fill="#EEC2AD"/>
<path d="M214.597 223.071C212.672 222.448 208.142 222.618 207.009 224.09C204.065 224.147 200.611 226.808 200.158 230.318C199.71 233.793 200.709 235.406 201.064 238.019C201.467 240.979 203.131 241.926 204.461 242.322C206.375 244.851 208.41 244.743 211.827 244.743C218.499 244.743 221.677 240.279 221.958 232.696C222.128 228.11 219.437 224.637 214.597 223.071Z" fill="#292F33"/>
<path d="M218.413 233.021C217.767 232.127 216.941 231.407 215.129 231.153C215.809 231.464 216.46 232.54 216.545 233.135C216.63 233.73 216.715 234.211 216.177 233.616C214.022 231.234 211.675 232.172 209.35 230.717C207.725 229.7 207.23 228.576 207.23 228.576C207.23 228.576 207.032 230.076 204.569 231.605C203.855 232.048 203.003 233.035 202.531 234.493C202.191 235.541 202.297 236.475 202.297 238.071C202.297 242.731 206.138 246.649 210.875 246.649C215.612 246.649 219.453 242.696 219.453 238.071C219.453 235.172 219.149 234.04 218.413 233.021Z" fill="#F7DECE"/>
<path d="M211.827 240.454H209.921C209.794 240.454 209.673 240.404 209.584 240.314C209.494 240.225 209.444 240.104 209.444 239.977C209.444 239.85 209.494 239.729 209.584 239.64C209.673 239.55 209.794 239.5 209.921 239.5H211.827C211.953 239.5 212.075 239.55 212.164 239.64C212.254 239.729 212.304 239.85 212.304 239.977C212.304 240.104 212.254 240.225 212.164 240.314C212.075 240.404 211.953 240.454 211.827 240.454Z" fill="#C1694F"/>
<path d="M207.062 237.118C206.809 237.118 206.567 237.018 206.388 236.839C206.209 236.66 206.109 236.418 206.109 236.165V235.212C206.109 234.959 206.209 234.717 206.388 234.538C206.567 234.359 206.809 234.259 207.062 234.259C207.315 234.259 207.557 234.359 207.736 234.538C207.915 234.717 208.015 234.959 208.015 235.212V236.165C208.015 236.418 207.915 236.66 207.736 236.839C207.557 237.018 207.315 237.118 207.062 237.118ZM214.687 237.118C214.434 237.118 214.192 237.018 214.013 236.839C213.834 236.66 213.734 236.418 213.734 236.165V235.212C213.734 234.959 213.834 234.717 214.013 234.538C214.192 234.359 214.434 234.259 214.687 234.259C214.94 234.259 215.182 234.359 215.361 234.538C215.54 234.717 215.64 234.959 215.64 235.212V236.165C215.64 236.418 215.54 236.66 215.361 236.839C215.182 237.018 214.94 237.118 214.687 237.118Z" fill="#662113"/>
<path d="M211 244.434C208.246 244.434 207.4 243.729 207.259 243.586C207.133 243.466 207.06 243.302 207.055 243.128C207.051 242.954 207.115 242.786 207.235 242.66C207.355 242.534 207.519 242.461 207.693 242.456C207.867 242.452 208.035 242.516 208.161 242.636C208.213 242.673 208.882 243.123 211 243.123C213.2 243.123 213.836 242.638 213.842 242.633C213.902 242.573 213.974 242.526 214.053 242.494C214.132 242.462 214.217 242.447 214.302 242.448C214.387 242.449 214.471 242.468 214.549 242.502C214.626 242.537 214.697 242.586 214.755 242.648C214.876 242.775 214.943 242.944 214.94 243.12C214.937 243.295 214.866 243.463 214.741 243.586C214.6 243.729 213.754 244.434 211 244.434Z" fill="#C1694F"/>
<path d="M208.059 258L207 248.781C207 248.781 208.41 250.426 211 250.426C213.59 250.426 215.219 248.781 215.219 248.781L213.996 258H208.059Z" fill="#66757F"/>
<path d="M207.081 247.25C207.647 247.816 210 258 210 258H206.844L205.14 255.438L206.844 252.603L204.827 251.969L205.081 248.012C205.081 248.012 206.81 246.979 207.081 247.25ZM214.919 247.25C214.353 247.816 212 258 212 258H215.156L216.86 255.438L215.156 252.603L217.173 251.969L216.919 248.012C216.919 248.012 215.19 246.979 214.919 247.25Z" fill="#F5F8FA"/>
<path opacity="0.4" d="M203.753 232.75H218.253V238H203.753V232.75Z" fill="white"/>
<path d="M218 232H204C203 232 203 233 203 233V237C203 238.461 205.333 239 207 239C208.667 239 209.599 238 211 238C212.401 238 213.333 239 215 239C216.667 239 219 238.461 219 237V233C219 232 218 232 218 232ZM218 236C218 237.325 217.148 238 215 238C213.461 238 212.196 237 211 237C209.804 237 208.539 238 207 238C204.852 238 204 237.325 204 236V233H218V236Z" fill="#F5F8FA"/>
<path d="M196 234C196.552 234 197 233.552 197 233C197 232.448 196.552 232 196 232C195.448 232 195 232.448 195 233C195 233.552 195.448 234 196 234Z" fill="#9266CC"/>
<path d="M198 239C198.552 239 199 238.552 199 238C199 237.448 198.552 237 198 237C197.448 237 197 237.448 197 238C197 238.552 197.448 239 198 239Z" fill="#9266CC"/>
<path d="M194.5 238C195.328 238 196 237.328 196 236.5C196 235.672 195.328 235 194.5 235C193.672 235 193 235.672 193 236.5C193 237.328 193.672 238 194.5 238Z" fill="#9266CC"/>
<path d="M199 240H194C194 240 192 240 192 242C192 244 194 244 194 244V249L190 254C189.117 255.104 189 255.821 189 256C189 258 191 258 191 258H202C202 258 204 258 204 256C204 255.866 204.153 255.441 203 254L199 249V244C199 244 201 244 201 242C201 240 199 240 199 240Z" fill="#A8BCCC"/>
<path d="M198 249.351V243H199C199.449 242.988 200 242.806 200 242C200 241.197 199.453 241.013 198.992 241H194C193.55 241.012 193 241.194 193 242C193 242.806 193.55 242.988 194.012 243L194.987 243.024L195 249.351L193.106 251.719L196.5 255.219L199.894 251.719L198 249.351Z" fill="#E1E8ED"/>
<path d="M189.999 256.034C190 256.806 190.55 256.988 191.012 257H202C202.449 256.988 203 256.806 203 256V255.959L203.006 255.877C203.006 255.874 202.951 255.54 202.219 254.625L199.894 251.719H193.106L190.781 254.625C190.062 255.524 189.999 256.029 189.999 256.034Z" fill="#9266CC"/>
</g>
<circle cx="54" cy="223" r="7" fill="#7BB745" stroke="white" stroke-width="2"/>
<g clip-path="url(#clip6_138_1167)">
<path d="M40.5499 200.329C40.5499 200.329 43.0089 204.415 42.3299 205.981C41.9209 206.926 41.2069 208.045 39.9409 208.252C39.5179 208.321 39.3179 209.15 39.4399 209.757C39.5789 210.443 40.0609 211.403 40.3259 211.889C40.5909 212.376 41.1029 212.37 41.7369 212.93C42.1789 213.32 42.3339 214.005 41.5839 214.012L38.0389 214.041C37.3749 214.047 36.9459 213.643 36.7989 212.974C36.5949 212.046 36.0389 208.513 36.2479 207.828C36.3979 207.337 36.9149 206.942 37.2429 205.993C37.4859 205.29 36.8999 204.19 36.8999 204.19L40.5499 200.329ZM46.2979 194.758C46.2979 194.758 45.4739 194.612 45.0259 194.697C44.5779 194.783 43.3209 195.716 42.9409 195.857C42.5609 195.998 41.6419 195.782 41.6419 195.782C41.6419 195.782 40.5769 197.218 40.6469 197.363C40.7169 197.508 42.2639 197.833 42.6279 197.942C42.9909 198.051 44.3829 195.861 44.7739 195.615C45.1649 195.369 45.7539 195.974 46.1469 195.956C46.5389 195.938 46.4289 195.658 46.1519 195.582C46.1519 195.582 46.6189 195.739 46.6349 195.563C46.6509 195.387 46.2469 195.282 46.2469 195.282C46.2469 195.282 46.6559 195.428 46.7219 195.256C46.7859 195.084 46.6589 194.876 46.2979 194.758Z" fill="#3E701E"/>
<path d="M26.2761 209.309C27.3771 207.219 32.5391 204.789 33.6001 203.896C34.6611 203.002 36.6121 197.203 38.2341 196.14C39.3951 195.38 39.8581 193.725 40.1761 192.172C40.3021 191.555 41.8481 190.839 41.9631 190.317C42.2581 190.822 45.1331 192.36 43.5871 192.776C42.2031 193.148 43.2201 197.046 41.7221 199.504C40.8151 200.991 40.7311 203.393 38.6271 205.537C36.5891 207.614 32.2441 206.861 30.2701 209.588C26.7371 214.468 20.6261 214.458 18.1411 211.057C18.1411 211.057 20.6841 211.827 22.2761 211.79C23.9611 211.751 25.2791 211.2 26.2761 209.309Z" fill="#5C913A"/>
<path d="M38.8639 200.625C38.8639 200.625 40.3349 203.958 39.5919 205.733C38.9049 207.376 37.2329 208.685 35.6949 209.205C35.3209 209.331 34.6019 209.321 34.4269 209.863C34.2519 210.405 34.5909 212.206 34.8349 212.654C35.0789 213.102 36.3669 213.339 36.6339 214.16C36.7339 214.467 36.9369 214.909 36.3529 214.963C35.6659 215.026 32.0869 214.989 31.4759 214.995C30.8649 215 30.7109 214.521 30.7049 213.891C30.7019 213.493 31.3929 211.501 31.0949 210.088C30.9137 209.253 30.5735 208.461 30.0929 207.754C29.0919 206.265 30.0489 206.093 31.4439 206.093C33.6199 206.093 35.7839 205.482 35.7839 205.482L38.8639 200.625ZM46.7559 197.483C46.7559 197.483 45.9759 197.059 45.4959 196.994C45.0159 196.93 43.4389 197.446 43.0079 197.46C42.5779 197.474 41.3179 196.61 41.3179 196.61C41.3179 196.61 40.1719 198.035 40.1939 198.205C40.2159 198.374 41.6629 199.221 41.9919 199.453C42.3209 199.685 44.1349 197.994 44.6109 197.878C45.0869 197.762 45.7989 198.524 46.1989 198.638C46.5999 198.752 46.5829 198.433 46.3289 198.263C46.3289 198.263 46.7459 198.578 46.8219 198.407C46.8969 198.236 46.5259 197.994 46.5259 197.994C46.5259 197.994 46.8879 198.279 47.0119 198.127C47.1369 197.975 47.0789 197.724 46.7559 197.483Z" fill="#77B155"/>
<path d="M42.36 187.102C42.249 187.296 43.62 188.888 44.037 189.113C44.28 189.247 44.834 189.199 45.377 189.15C44.654 188.848 44.85 188.399 45.175 187.986C44.919 188.072 44.716 188.13 44.616 188.125C44.207 188.091 42.675 186.509 42.36 187.102Z" fill="#292E32"/>
<path d="M44.043 190.055C44.586 190.197 45.255 190.055 45.57 189.813C45.821 189.637 45.864 189.399 45.495 189.207C45.466 189.195 45.437 189.174 45.397 189.161C45.387 189.16 45.388 189.15 45.378 189.15C44.834 189.199 44.28 189.247 44.038 189.113C43.62 188.889 42.249 187.296 42.361 187.102C42.676 186.509 44.208 188.09 44.617 188.124C44.717 188.13 44.921 188.071 45.176 187.986C45.316 187.804 45.476 187.633 45.605 187.48C45.605 187.48 45.264 186.789 44.265 186.22C43.266 185.651 41.6 186.046 40.99 186.722C40.379 187.399 43.056 189.798 44.043 190.055Z" fill="#77B155"/>
<path d="M43.9741 192.803C44.4911 192.591 44.6511 192.432 45.0901 192.087C45.3841 191.857 45.7961 191.642 46.3291 191.693C47.5951 191.814 49.8031 192.331 50.2221 192.015C50.6411 191.699 50.8721 190.82 50.5701 190.672C50.5183 190.651 50.466 190.631 50.4131 190.613L50.4111 190.643C50.4111 190.643 50.4541 191.627 50.0711 191.675C49.6871 191.733 46.7561 190.441 46.0621 190.131C45.8271 190.027 45.6741 189.908 45.5691 189.812C45.2541 190.054 44.5851 190.196 44.0421 190.054C43.0551 189.797 40.3781 187.397 40.9881 186.721C41.6001 186.046 43.2661 185.652 44.2651 186.22C45.2641 186.789 45.6051 187.48 45.6051 187.48C45.4761 187.633 45.3161 187.804 45.1751 187.986C45.5011 187.885 45.9011 187.728 46.2901 187.58C46.1161 187.299 45.9551 186.969 45.9551 186.969C45.9551 186.969 47.1301 186.396 47.8761 186.489C48.6231 186.582 51.7941 187.016 52.1001 187.264C52.3971 187.502 51.8491 188.322 51.8491 188.322C51.8151 188.39 51.7811 188.448 51.7471 188.516C51.9061 188.535 52.0251 188.552 52.0861 188.546C52.5701 188.494 52.8991 186.789 52.6821 186.216C52.4551 185.642 51.4671 184.172 49.9561 183.453C48.4351 182.724 47.6141 182.659 47.2001 182.204C47.0891 182.085 47.0741 181.728 46.5461 181.566C45.9751 181.391 44.9971 181.446 44.2551 180.769C42.0391 178.747 41.6991 180.133 40.3901 180.564C38.7421 181.107 37.8501 180.004 36.4341 183.701C35.3421 186.552 37.0971 188.046 35.1431 189.833C35.1431 189.833 33.4761 191.376 32.2021 192.028C23.4681 196.495 27.1861 205.746 22.7151 209.039C18.6351 212.044 17.9331 207.333 18.7381 205.894C18.8741 205.652 18.6241 205.304 18.2571 205.651C17.3651 206.492 17.0881 208.348 17.3391 209.506C17.9991 212.558 20.8371 213.086 23.6071 212.737C28.0331 212.18 30.1821 205.065 34.3701 207.223C36.5721 208.358 37.9171 203.48 39.4671 201.152C40.8381 199.094 42.5161 194.048 42.7971 193.118C42.8411 192.969 43.4291 193.026 43.9741 192.803Z" fill="#77B155"/>
<path d="M45.955 186.969C45.955 186.969 46.116 187.299 46.29 187.58C46.42 187.768 46.541 187.925 46.63 187.95C46.7 187.954 46.776 187.668 46.822 187.4L46.832 187.401L46.899 186.934C46.899 186.934 46.927 187.136 46.965 187.358C47.038 187.643 47.14 187.96 47.279 187.978C47.339 187.981 47.541 187.612 47.687 187.34C47.766 187.184 47.823 187.067 47.823 187.067C47.823 187.067 47.825 187.207 47.835 187.388C47.848 187.68 47.865 188.082 47.924 188.095C47.984 188.099 48.192 187.79 48.336 187.548L48.481 187.296L48.484 187.587C48.487 187.887 48.503 188.309 48.562 188.332C48.632 188.336 48.862 187.999 49.026 187.758C49.104 187.622 49.169 187.526 49.169 187.526C49.169 187.526 49.172 187.646 49.193 187.808C49.206 188.109 49.251 188.543 49.33 188.557C49.41 188.562 49.619 188.233 49.764 187.981C49.864 187.816 49.932 187.68 49.932 187.68C49.932 187.68 49.913 187.839 49.902 188.029C49.865 188.327 49.841 188.737 49.93 188.762C50.018 188.797 50.279 188.442 50.445 188.181C50.543 188.036 50.62 187.91 50.62 187.91C50.62 187.91 50.593 188.039 50.563 188.207C50.516 188.505 50.471 188.933 50.549 188.968C50.627 189.003 50.869 188.626 51.036 188.345L51.037 188.335C51.137 188.17 51.215 188.035 51.215 188.035L51.195 188.385C51.178 188.685 51.175 189.085 51.233 189.119C51.311 189.164 51.525 188.915 51.749 188.518C51.781 188.448 51.815 188.39 51.849 188.322C51.849 188.322 52.397 187.502 52.1 187.264C51.794 187.016 48.622 186.582 47.876 186.489C47.13 186.396 45.955 186.969 45.955 186.969ZM45.381 189.441C45.381 189.441 45.382 189.601 45.57 189.813C45.7155 189.946 45.8821 190.054 46.063 190.132C46.756 190.443 49.688 191.734 50.072 191.676C50.456 191.628 50.412 190.644 50.412 190.644L50.414 190.614C50.466 190.056 50.41 189.642 50.3 189.635C50.21 189.63 49.952 190.276 49.891 190.463C49.879 190.492 49.868 190.512 49.868 190.512C49.868 190.512 49.869 190.492 49.862 190.452C49.845 190.231 49.761 189.424 49.642 189.407C49.522 189.4 49.334 190.061 49.28 190.298C49.267 190.347 49.255 190.377 49.255 190.377C49.255 190.377 49.257 190.347 49.24 190.286C49.214 190.034 49.127 189.298 49.008 189.271C48.889 189.244 48.693 189.864 48.618 190.12L48.582 190.228C48.582 190.228 48.574 190.187 48.569 190.107C48.526 189.814 48.43 189.047 48.331 189.021C48.233 188.975 47.959 189.731 47.888 189.917C47.8819 189.929 47.8779 189.942 47.876 189.956L47.879 189.906C47.861 189.695 47.827 188.901 47.728 188.885C47.658 188.881 47.423 189.308 47.286 189.591C47.218 189.727 47.172 189.825 47.172 189.825C47.172 189.825 47.171 189.675 47.181 189.495C47.179 189.204 47.18 188.834 47.121 188.82C47.081 188.818 46.949 189.02 46.827 189.224C46.694 189.447 46.57 189.67 46.57 189.67C46.57 189.67 46.567 189.369 46.552 189.108C46.542 188.927 46.522 188.766 46.493 188.744C46.454 188.722 46.334 188.895 46.233 189.09C46.112 189.283 46.009 189.498 46.009 189.498C46.009 189.498 46 189.307 45.962 189.104C45.942 188.923 45.903 188.74 45.855 188.697C45.798 188.644 45.642 188.915 45.529 189.139C45.507 189.168 45.496 189.187 45.495 189.207C45.427 189.344 45.381 189.441 45.381 189.441Z" fill="#F4900C"/>
<path d="M50.563 188.208C50.7173 188.262 50.8754 188.304 51.036 188.335L51.035 188.345L51.194 188.384C51.3761 188.437 51.5607 188.481 51.747 188.516C51.781 188.448 51.815 188.39 51.849 188.322C51.849 188.322 52.397 187.502 52.1 187.264C51.794 187.016 48.622 186.582 47.876 186.489C47.13 186.396 45.955 186.969 45.955 186.969C45.955 186.969 46.116 187.299 46.29 187.58C46.474 187.52 46.659 187.451 46.822 187.4L46.832 187.401C46.883 187.384 46.923 187.376 46.965 187.358C47.199 187.292 47.391 187.253 47.49 187.279C47.53 187.291 47.599 187.305 47.687 187.34C47.726 187.352 47.776 187.365 47.835 187.389C48.0042 187.435 48.1713 187.488 48.336 187.548L48.484 187.586C48.652 187.636 48.828 187.696 49.025 187.758C49.074 187.771 49.133 187.794 49.193 187.808C49.3819 187.87 49.5723 187.928 49.764 187.981C49.8118 187.991 49.8582 188.007 49.902 188.029C50.083 188.078 50.2637 188.129 50.444 188.181C50.4825 188.194 50.5225 188.203 50.563 188.208ZM47.903 183.946C45.632 183.184 46.892 182.896 45.734 182.288C45.121 181.971 44.276 182.033 44.12 182.475C43.961 182.977 44.002 183.65 45.192 184.05C45.88 184.28 47.903 183.946 47.903 183.946ZM44.043 190.055C44.586 190.197 45.255 190.055 45.57 189.813C45.7155 189.946 45.8821 190.054 46.063 190.132C46.756 190.443 49.688 191.734 50.072 191.676C50.456 191.628 50.412 190.644 50.412 190.644L50.414 190.614L49.892 190.464C49.882 190.463 49.872 190.463 49.863 190.452C49.6697 190.398 49.4757 190.347 49.281 190.298C49.271 190.297 49.251 190.296 49.242 190.286C49.035 190.234 48.818 190.171 48.62 190.12C48.6027 190.12 48.5857 190.116 48.571 190.107C48.304 190.041 48.068 189.968 47.891 189.917L47.882 189.906C47.833 189.893 47.783 189.88 47.744 189.868C47.557 189.807 47.423 189.699 47.289 189.591C47.251 189.559 47.223 189.527 47.184 189.495C47.07 189.388 46.965 189.292 46.829 189.224C46.7462 189.168 46.6531 189.128 46.555 189.108C46.5028 189.096 46.4495 189.09 46.396 189.089C46.346 189.086 46.296 189.083 46.236 189.09C46.156 189.095 46.065 189.1 45.965 189.104C45.835 189.106 45.683 189.128 45.532 189.139C45.482 189.146 45.431 189.153 45.381 189.15C44.837 189.199 44.283 189.247 44.041 189.113C43.623 188.889 42.252 187.296 42.364 187.102C42.679 186.509 44.211 188.09 44.62 188.124C44.72 188.13 44.924 188.071 45.179 187.986C45.316 187.804 45.476 187.633 45.605 187.48C45.605 187.48 45.264 186.789 44.265 186.22C43.266 185.651 41.6 186.046 40.99 186.722C40.379 187.399 43.056 189.798 44.043 190.055Z" fill="#77B155"/>
<path d="M45.1921 184.05C45.8801 184.28 47.9031 183.946 47.9031 183.946C45.6321 183.184 46.8921 182.896 45.7341 182.288C45.1211 181.971 44.2761 182.033 44.1201 182.475C43.9611 182.977 44.0021 183.65 45.1921 184.05Z" fill="#3E701E"/>
<path d="M45.3529 183.594C45.0856 183.594 44.8689 183.377 44.8689 183.11C44.8689 182.843 45.0856 182.626 45.3529 182.626C45.6202 182.626 45.8369 182.843 45.8369 183.11C45.8369 183.377 45.6202 183.594 45.3529 183.594Z" fill="#292F33"/>
<path d="M32.637 193.538C32.6662 193.598 32.7072 193.652 32.7574 193.696C32.8077 193.74 32.8663 193.773 32.9297 193.794C32.9931 193.815 33.06 193.823 33.1266 193.818C33.1932 193.812 33.258 193.794 33.3173 193.763C33.3765 193.732 33.429 193.69 33.4716 193.638C33.5142 193.587 33.5461 193.528 33.5654 193.464C33.5847 193.4 33.5909 193.333 33.5838 193.266C33.5767 193.2 33.5564 193.135 33.524 193.077C33.4609 192.963 33.3557 192.878 33.231 192.841C33.1062 192.803 32.9717 192.816 32.8561 192.876C32.7405 192.936 32.6529 193.039 32.612 193.162C32.571 193.286 32.58 193.421 32.637 193.538ZM31.391 196.689C31.4329 196.774 31.4914 196.85 31.563 196.912C31.6346 196.974 31.7179 197.021 31.808 197.051C31.8981 197.08 31.9932 197.092 32.0877 197.084C32.1821 197.076 32.2741 197.05 32.3582 197.006C32.4423 196.962 32.5169 196.902 32.5774 196.829C32.638 196.756 32.6834 196.672 32.7109 196.581C32.7385 196.49 32.7476 196.395 32.7379 196.301C32.7281 196.207 32.6996 196.115 32.654 196.032C32.5645 195.869 32.4147 195.747 32.2366 195.693C32.0585 195.639 31.8662 195.657 31.7011 195.743C31.5359 195.829 31.411 195.976 31.3531 196.153C31.2951 196.329 31.3087 196.522 31.391 196.689ZM30.854 194.479C30.9004 194.568 30.9803 194.635 31.076 194.665C31.1718 194.695 31.2755 194.686 31.3645 194.64C31.4535 194.593 31.5204 194.513 31.5505 194.418C31.5806 194.322 31.5714 194.218 31.525 194.129C31.4786 194.04 31.3988 193.973 31.303 193.943C31.2073 193.913 31.1035 193.922 31.0145 193.969C30.9255 194.015 30.8586 194.095 30.8285 194.191C30.7984 194.286 30.8076 194.39 30.854 194.479ZM29.792 195.917C29.8128 195.96 29.842 195.999 29.878 196.031C29.914 196.062 29.956 196.087 30.0015 196.102C30.047 196.117 30.0951 196.123 30.1429 196.119C30.1908 196.115 30.2373 196.102 30.2799 196.08C30.3225 196.058 30.3602 196.027 30.3908 195.99C30.4213 195.953 30.4442 195.911 30.4579 195.865C30.4716 195.819 30.4759 195.77 30.4706 195.723C30.4653 195.675 30.4505 195.629 30.427 195.587C30.3815 195.506 30.3063 195.446 30.2172 195.419C30.1282 195.393 30.0322 195.402 29.9498 195.445C29.8673 195.487 29.8047 195.561 29.7753 195.649C29.7458 195.737 29.7518 195.833 29.792 195.917ZM26.787 203.45C26.8021 203.484 26.8239 203.514 26.8512 203.54C26.8784 203.565 26.9106 203.584 26.9456 203.596C26.9806 203.609 27.0178 203.614 27.0548 203.611C27.0919 203.609 27.128 203.598 27.1609 203.581C27.1939 203.564 27.223 203.541 27.2465 203.512C27.2699 203.483 27.2873 203.45 27.2974 203.414C27.3075 203.378 27.3102 203.341 27.3053 203.304C27.3005 203.267 27.2881 203.232 27.269 203.2C27.2334 203.141 27.1765 203.097 27.1099 203.078C27.0433 203.059 26.9719 203.066 26.9105 203.098C26.849 203.13 26.802 203.184 26.7791 203.25C26.7561 203.315 26.759 203.387 26.787 203.45ZM28.003 198.08C28.0889 198.227 28.228 198.335 28.3914 198.382C28.5549 198.43 28.7303 198.412 28.8812 198.334C29.0322 198.255 29.1472 198.122 29.2024 197.961C29.2577 197.8 29.2489 197.624 29.178 197.469C29.0921 197.322 28.9531 197.214 28.7896 197.167C28.6261 197.12 28.4508 197.137 28.2998 197.215C28.1489 197.294 28.0339 197.428 27.9786 197.588C27.9234 197.749 27.9321 197.925 28.003 198.08Z" fill="#3E701E"/>
<path d="M28.65 203.106C28.4158 203.106 28.226 202.916 28.226 202.682C28.226 202.448 28.4158 202.258 28.65 202.258C28.8841 202.258 29.074 202.448 29.074 202.682C29.074 202.916 28.8841 203.106 28.65 203.106Z" fill="#3E701E"/>
<path d="M30.1641 198.421C29.93 198.421 29.7401 198.231 29.7401 197.997C29.7401 197.763 29.93 197.573 30.1641 197.573C30.3983 197.573 30.5881 197.763 30.5881 197.997C30.5881 198.231 30.3983 198.421 30.1641 198.421Z" fill="#3E701E"/>
<path d="M27.379 201.811C27.1448 201.811 26.955 201.621 26.955 201.387C26.955 201.153 27.1448 200.963 27.379 200.963C27.6131 200.963 27.803 201.153 27.803 201.387C27.803 201.621 27.6131 201.811 27.379 201.811Z" fill="#3E701E"/>
<path d="M28.9599 200.663C28.6136 200.663 28.3329 200.382 28.3329 200.036C28.3329 199.69 28.6136 199.409 28.9599 199.409C29.3062 199.409 29.5869 199.69 29.5869 200.036C29.5869 200.382 29.3062 200.663 28.9599 200.663Z" fill="#3E701E"/>
</g>
<path d="M67.3169 249C61.5939 258.083 68.2749 267 68.2749 267C68.2749 267 71.1489 266.558 75.1499 261.8C79.1499 257.042 67.3169 249 67.3169 249ZM88.6589 249C94.3819 258.083 87.7009 267 87.7009 267C87.7009 267 84.8269 266.558 80.8259 261.8C76.8249 257.042 88.6589 249 88.6589 249Z" fill="#662113"/>
<path d="M75.2029 269.557C75.0804 269.342 74.8952 269.169 74.6719 269.061C72.6399 266.889 74.0829 264.344 74.0829 264.344C74.0829 263.641 75.3539 261.8 74.0829 261.8L72.8109 263.072C71.5389 264.343 71.5389 268.161 71.5389 268.161H68.9949C68.6577 268.161 68.3343 268.295 68.0958 268.533C67.8574 268.772 67.7234 269.095 67.7234 269.433C67.7234 269.77 67.8574 270.093 68.0958 270.332C68.3343 270.57 68.6577 270.704 68.9949 270.704H70.4029L70.1209 270.857C69.838 271.025 69.631 271.296 69.5433 271.613C69.4556 271.93 69.4939 272.269 69.6503 272.558C69.8066 272.848 70.0689 273.065 70.3821 273.166C70.6954 273.266 71.0354 273.242 71.3309 273.097L74.6879 271.281C74.9845 271.12 75.2052 270.849 75.3018 270.526C75.3983 270.202 75.3627 269.854 75.2029 269.557ZM80.7989 269.557C80.9219 269.328 81.1159 269.173 81.3289 269.061C83.3619 266.889 81.9179 264.344 81.9179 264.344C81.9179 263.641 80.6469 261.8 81.9179 261.8L83.1899 263.072C84.4629 264.343 84.4629 268.161 84.4629 268.161H87.0069C87.1739 268.161 87.3393 268.194 87.4937 268.258C87.648 268.322 87.7882 268.415 87.9063 268.533C88.0243 268.652 88.1179 268.792 88.1817 268.946C88.2455 269.101 88.2782 269.266 88.2779 269.433C88.278 269.6 88.2452 269.765 88.1814 269.92C88.1176 270.074 88.024 270.214 87.9059 270.332C87.7879 270.45 87.6477 270.544 87.4934 270.608C87.3392 270.671 87.1738 270.704 87.0069 270.704H85.5989L85.8799 270.857C86.027 270.937 86.1569 271.044 86.2624 271.174C86.3679 271.304 86.4467 271.453 86.4945 271.613C86.5423 271.773 86.558 271.942 86.5408 272.108C86.5237 272.274 86.4739 272.435 86.3944 272.583C86.3149 272.73 86.2072 272.86 86.0774 272.965C85.9477 273.071 85.7984 273.149 85.6382 273.197C85.478 273.245 85.3099 273.261 85.1436 273.244C84.9773 273.226 84.816 273.177 84.6689 273.097L81.3129 271.281C81.1659 271.202 81.0361 271.094 80.9307 270.964C80.8253 270.835 80.7465 270.686 80.6988 270.526C80.6511 270.365 80.6353 270.197 80.6525 270.031C80.6697 269.865 80.7194 269.704 80.7989 269.557Z" fill="#FFAC33"/>
<path d="M88.278 249.292C91.169 243.2 88.278 238.75 88.278 238.75C88.278 238.75 82.497 239.709 81.534 241.625C80.315 244.049 88.278 249.292 88.278 249.292Z" fill="#662113"/>
<path d="M89.562 250.738C89.562 261.035 86.41 271.333 78 271.333C69.591 271.333 66.437 261.035 66.437 250.738C66.437 240.44 71.614 240.083 78 240.083C84.387 240.083 89.562 240.44 89.562 250.738Z" fill="#662113"/>
<path d="M87.666 255.738C87.666 266.035 79.892 270.333 78 270.333C76.108 270.333 68.334 266.035 68.334 255.738C68.334 245.44 87.666 245.44 87.666 255.738Z" fill="#C1694F"/>
<path d="M67.7219 249.292C64.8309 243.2 67.7219 238.75 67.7219 238.75C67.7219 238.75 73.5039 239.709 74.4679 241.625C75.6859 244.049 67.7219 249.292 67.7219 249.292Z" fill="#662113"/>
<path d="M74.9291 242.373C70.7021 240.789 67.7221 238.75 67.7221 238.75C67.7221 238.75 65.6461 241.971 66.7941 246.676C67.2401 248.813 68.7341 250.871 70.6981 251.338C73.3351 251.965 78.0001 251.289 78.0001 247.375C78.0001 244.68 76.9261 243.123 74.9291 242.373ZM81.0711 242.373C85.2981 240.789 88.2771 238.75 88.2771 238.75C88.2771 238.75 90.3531 241.971 89.2051 246.676C88.7601 248.813 87.2661 250.871 85.3031 251.338C82.6651 251.965 78.0001 251.289 78.0001 247.375C78.0001 244.68 79.0741 243.123 81.0711 242.373Z" fill="#C1694F"/>
<path d="M76.083 246.417C76.083 247.434 75.6792 248.408 74.9603 249.127C74.2415 249.846 73.2666 250.25 72.25 250.25C71.2334 250.25 70.2585 249.846 69.5397 249.127C68.8208 248.408 68.417 247.434 68.417 246.417C68.417 245.4 68.8208 244.425 69.5397 243.707C70.2585 242.988 71.2334 242.584 72.25 242.584C73.2666 242.584 74.2415 242.988 74.9603 243.707C75.6792 244.425 76.083 245.4 76.083 246.417ZM87.583 246.417C87.583 247.434 87.1792 248.408 86.4603 249.127C85.7415 249.846 84.7666 250.25 83.75 250.25C82.7334 250.25 81.7585 249.846 81.0397 249.127C80.3208 248.408 79.917 247.434 79.917 246.417C79.917 245.4 80.3208 244.425 81.0397 243.707C81.7585 242.988 82.7334 242.584 83.75 242.584C84.7666 242.584 85.7415 242.988 86.4603 243.707C87.1792 244.425 87.583 245.4 87.583 246.417Z" fill="#FFD983"/>
<path d="M74.167 246.417C74.1728 246.672 74.1276 246.926 74.0339 247.164C73.9402 247.401 73.8 247.618 73.6214 247.801C73.4429 247.983 73.2296 248.128 72.9942 248.228C72.7588 248.327 72.5059 248.378 72.2505 248.378C71.9951 248.378 71.7422 248.327 71.5068 248.228C71.2714 248.128 71.0581 247.983 70.8796 247.801C70.701 247.618 70.5608 247.401 70.4671 247.164C70.3734 246.926 70.3282 246.672 70.334 246.417C70.3454 245.916 70.5524 245.44 70.9105 245.09C71.2687 244.74 71.7497 244.544 72.2505 244.544C72.7513 244.544 73.2323 244.74 73.5905 245.09C73.9486 245.44 74.1556 245.916 74.167 246.417ZM85.667 246.417C85.6728 246.672 85.6276 246.926 85.5339 247.164C85.4402 247.401 85.3 247.618 85.1214 247.801C84.9429 247.983 84.7296 248.128 84.4942 248.228C84.2588 248.327 84.0059 248.378 83.7505 248.378C83.4951 248.378 83.2422 248.327 83.0068 248.228C82.7714 248.128 82.5581 247.983 82.3796 247.801C82.201 247.618 82.0608 247.401 81.9671 247.164C81.8734 246.926 81.8282 246.672 81.834 246.417C81.8454 245.916 82.0524 245.44 82.4105 245.09C82.7687 244.74 83.2497 244.544 83.7505 244.544C84.2513 244.544 84.7323 244.74 85.0905 245.09C85.4486 245.44 85.6556 245.916 85.667 246.417Z" fill="#292F33"/>
<path d="M80.875 250.729C80.875 253.111 78 254.083 78 254.083C78 254.083 75.125 253.11 75.125 250.729C75.125 248.348 78 247.375 78 247.375C78 247.375 80.875 248.347 80.875 250.729Z" fill="#FFCC4D"/>
<path d="M80.875 250.729C80.875 253.111 78 254.083 78 254.083C78 254.083 75.125 253.11 75.125 250.729C76.323 251.927 78 252.167 78 252.167C78 252.167 79.677 251.927 80.875 250.729Z" fill="#F4900C"/>
<circle cx="138" cy="358" r="7" fill="#7BB745" stroke="white" stroke-width="2"/>
<path d="M132 376.607L123 374.196C121.343 373.752 120 374.735 120 376.393V396.393C120 398.049 121.343 399.752 123 400.197L132 402.608V376.607ZM144 399.393L153 401.804C154.656 402.247 156 401.264 156 399.608V379.608C156 377.951 154.656 376.248 153 375.804L144 373.393V399.393Z" fill="#CCD6DD"/>
<path d="M144 399.392L132 402.607V376.607L144 373.392V399.392Z" fill="#E1E8ED"/>
<path d="M132 378.607L124 376.463C122.896 376.167 122 376.823 122 377.927V395.927C122 397.031 122.896 398.167 124 398.462L132 400.607V378.607ZM152 377.535L144 375.391V397.391L152 399.535C153.104 399.831 154 399.176 154 398.07V380.07C154 378.967 153.104 377.831 152 377.535Z" fill="#55ACEE"/>
<path d="M144 397.392L132 400.607V378.607L144 375.392V397.392Z" fill="#88C9F9"/>
<path d="M132 390.506C131.732 390.512 131.405 390.61 131.155 390.651C130.719 390.724 130.826 391.168 130.692 391.094C130.383 390.927 130.108 390.704 129.88 390.436C129.543 390.042 130.13 389.959 130.298 389.814C130.466 389.669 129.982 389.642 129.813 389.482C129.644 389.323 129.342 389.586 129.074 389.206C128.804 388.83 128.973 388.416 128.941 388.026C128.907 387.636 129.377 387.685 129.68 387.692C129.983 387.695 130.218 387.836 130.218 388.294C130.218 388.75 130.588 389.002 130.487 388.44C130.386 387.879 130.588 387.783 130.722 387.55C130.856 387.32 131.092 387 131.394 386.51C131.615 386.152 131.783 386.227 132 386.346V383.001C131.945 382.957 131.89 382.911 131.835 382.888C131.532 382.756 131.931 383.641 131.696 383.997C131.459 384.353 131.098 384.19 130.726 384.091C130.357 383.992 130.013 383.546 130.283 383.084C130.551 382.622 131.065 382.816 131.334 382.431C131.603 382.046 130.377 381.759 129.94 381.49C129.502 381.219 128.977 381.081 128.54 381.344C128.103 381.608 127.167 381.477 126.797 381.53C126.427 381.584 126.361 381.161 126.294 380.837C126.227 380.515 125.641 380.508 125.037 380.499C124.431 380.489 123.296 380.78 123.49 382.258C123.558 382.772 124.095 382.382 124.197 382.294C124.298 382.206 124.802 382.494 124.868 382.931C124.936 383.37 124.903 383.818 124.769 384.163C124.632 384.508 125.105 385.169 125.373 385.775C125.642 386.38 125.946 386.461 126.08 386.498C126.215 386.534 126.988 387.085 126.955 387.494C126.922 387.905 127.661 388.485 127.964 388.834C128.267 389.184 128.458 389.496 128.851 389.68C129.244 389.863 129.703 390.715 129.905 390.845C130.06 390.945 130.323 391.296 130.481 391.425C130.273 391.667 129.869 392.173 129.869 392.454C129.869 392.837 130.309 393.557 130.477 393.754C130.644 393.95 131.127 394.196 131.228 394.604C131.329 395.011 131.158 396.25 130.856 396.511C130.552 396.773 130.442 397.554 130.442 397.554C130.442 397.554 130.549 397.847 130.907 397.678C131.216 397.534 131.683 397.112 132.001 396.877V390.506H132Z" fill="#5C913B"/>
<path d="M132.268 386.413C132.168 386.429 132.081 386.425 132 386.424V383.079C132.254 383.144 132.512 383.396 132.707 383.815C132.941 384.324 133.311 383.881 133.446 384.189C133.58 384.497 134.321 384.947 133.951 384.931C133.58 384.916 133.21 384.939 133.11 385.385C133.008 385.833 133.278 386.179 133.008 386.213C132.738 386.246 132.638 386.355 132.268 386.413ZM134.858 391.971C134.422 391.897 134.499 391.948 134.23 391.372C133.962 390.795 133.799 390.629 133.194 390.716C132.589 390.803 132.611 390.852 132.443 390.553C132.371 390.425 132.202 390.471 132 390.584V396.954C132.09 396.84 132.17 396.743 132.228 396.687C132.761 396.18 133.251 395.629 133.694 395.041C134.164 394.42 133.994 394.117 134.229 393.56C134.465 393.002 134.77 392.943 135.173 392.415C135.578 391.885 135.295 392.047 134.858 391.971ZM144 384.731V378.417C143.96 378.421 143.932 378.429 143.89 378.432C143.681 378.443 143.408 378.567 143.111 378.752C143.087 378.747 143.065 378.736 143.041 378.731C142.145 378.556 141.729 379.936 141.002 379.883C140.273 379.83 139.302 379.539 138.67 380.397C138.039 381.254 137.893 381.927 138.67 381.691C139.447 381.455 139.982 380.266 140.37 380.602C140.758 380.938 140.66 381.323 139.738 381.707C138.816 382.092 137.82 382.524 137.286 382.667C136.752 382.81 136.631 383.201 136.994 383.489C137.358 383.777 136.775 383.96 136.168 384.509C135.561 385.056 136.314 385.021 136.824 385.214C137.334 385.407 137.722 384.891 137.941 384.282C138.158 383.674 139.099 382.761 139.491 382.738C139.883 382.715 139.883 382.935 139.809 383.34C139.796 383.411 139.81 383.443 139.82 383.478C139.65 384.018 139.51 384.508 139.455 384.784C139.428 384.981 139.419 385.18 139.428 385.379C139.342 385.383 139.245 385.4 139.18 385.38C138.742 385.251 137.746 385.16 137.479 385.423C137.212 385.688 137.067 385.925 136.751 386.146C136.434 386.365 135.148 387.37 135.124 388.23C135.099 389.089 135.075 390.06 135.585 389.951C136.095 389.842 137.334 389.125 137.722 388.663C138.109 388.2 138.643 388.141 138.814 388.507C138.984 388.876 138.862 389.156 138.694 389.861C138.523 390.569 138.804 390.824 139.075 391.329C139.348 391.833 139.566 392.104 139.566 392.518C139.566 392.93 139.955 393.241 140.536 392.395C140.739 392.09 140.918 391.77 141.072 391.438C141.481 390.969 141.84 390.515 141.83 390.342C141.817 390.134 141.809 389.926 141.806 389.718L141.897 389.498C142.024 389.205 142.138 388.752 142.259 388.343C142.265 388.334 142.272 388.326 142.279 388.319C142.516 387.982 142.464 387.966 142.859 387.563C143.123 387.293 143.113 387.051 143.073 386.885C143.178 386.71 143.207 386.605 143.04 386.65L143.024 386.654C143.022 386.654 143.019 386.673 143.018 386.668C142.995 386.519 142.812 386.671 142.517 386.816C142.233 386.824 141.951 386.75 141.849 386.448C141.716 386.052 141.247 385.452 141.21 385.112C141.213 385.071 141.215 385.035 141.22 384.988C141.232 384.952 141.256 384.92 141.289 384.9C141.324 384.881 141.362 384.869 141.401 384.865C141.442 384.976 141.476 385.144 141.487 385.329C141.513 385.806 141.881 385.525 141.881 385.827C141.881 386.13 142.411 386.319 142.542 386.375C142.579 386.391 142.636 386.348 142.701 386.277C142.732 386.288 142.761 386.31 142.794 386.314C143.086 386.345 143.716 385.33 143.911 385.15C144.013 385.055 144.015 384.881 143.944 384.756L144 384.731Z" fill="#77B255"/>
<path d="M147.634 389.221C147.581 389.661 147.818 389.422 148.24 389.926C148.663 390.434 148.136 390.32 147.951 390.242C147.766 390.162 147.581 390.111 147.372 389.724C147.159 389.333 147.372 389.029 147.372 388.697C147.372 388.697 147.688 388.781 147.634 389.221ZM147.996 388.32C148.385 388.486 148.11 387.838 148.24 387.479C148.372 387.123 148.556 387.111 148.795 387.116C149.031 387.118 149.217 386.925 149.376 386.727C149.533 386.528 149.824 386.273 149.798 385.994C149.772 385.715 149.694 385.512 149.586 385.151C149.481 384.791 149.902 384.783 150.088 384.44C150.272 384.097 150.088 384.44 150.509 384.432C150.931 384.424 150.747 384.374 150.825 384.214C150.905 384.055 150.958 383.887 150.879 383.534C150.801 383.181 150.509 383.434 150.219 383.357C149.93 383.28 150.325 382.932 150.351 382.577C150.377 382.221 150.748 382.412 151.012 382.452C151.275 382.491 151.354 382.936 151.433 383.049C151.514 383.161 152.328 382.684 152.541 382.408C152.752 382.133 152.355 382.117 152.462 382.005C152.568 381.894 151.83 381.668 151.537 381.536C151.248 381.403 150.509 381.169 150.219 380.887C149.93 380.604 148.823 380.461 148.531 380.55C148.24 380.636 148.055 380.407 147.925 380.144C147.794 379.882 147.239 379.847 147.081 379.677C146.923 379.507 146.765 379.804 146.552 379.837C146.342 379.872 146.263 379.88 145.998 379.628C145.735 379.376 146.078 379.257 145.71 379.007C145.355 378.769 144.897 378.825 144 378.416V384.73C144.157 384.744 144.309 384.766 144.364 384.781C144.495 384.816 144.812 385.354 144.812 385.565C144.812 385.776 144.97 386.393 145.103 386.76C145.234 387.126 145.523 387.266 145.789 387.578C146.053 387.89 146.183 387.715 146.183 387.715C146.183 387.715 146.078 387.171 146.078 386.75C146.078 386.326 146.394 386.049 146.394 386.049C146.394 386.049 146.894 386.607 146.922 386.734C146.948 386.862 147.343 387.39 147.371 387.61C147.397 387.829 147.608 388.156 147.996 388.32ZM150.088 386.252C150.272 386.332 151.064 386.423 150.642 385.918C150.219 385.412 150.536 385.619 150.589 385.18C150.642 384.74 150.325 384.656 150.325 384.656C150.325 384.988 150.114 385.294 150.325 385.682C150.535 386.072 149.902 386.172 150.088 386.252ZM152.092 391.623C151.961 391.406 151.671 391.238 151.354 391.162C151.039 391.086 151.064 390.682 150.748 390.629C150.432 390.574 150.204 390.24 150.062 390.117C149.75 389.851 149.956 390.326 150.062 390.816C150.168 391.304 150.563 391.062 150.931 391.402C151.3 391.742 151.328 391.418 151.671 391.631C152.013 391.842 152.146 392.151 152.475 392.209C152.804 392.268 152.225 391.84 152.092 391.623ZM149.004 390.191C149.266 390.593 149.163 390.234 149.508 390.175C149.851 390.116 149.217 389.614 149.006 389.376C148.795 389.138 148.586 389.075 148.401 389.425C148.191 389.824 148.743 389.789 149.004 390.191ZM151.407 392.77C151.274 392.432 150.889 392.057 150.732 391.86C150.573 391.667 150.325 391.548 150.114 391.581C149.902 391.612 149.771 391.489 149.666 391.22C149.56 390.954 149.376 390.987 149.217 390.976C149.06 390.964 148.426 391.095 148.056 391.206C147.688 391.319 147.519 391.458 147.278 391.663C146.896 391.983 147.108 391.768 147.278 392.087C147.446 392.405 147.091 393.153 147.065 393.63C147.038 394.107 147.741 393.661 148.004 393.669C148.268 393.681 148.19 393.48 148.4 393.355C148.612 393.23 148.749 393.226 148.979 393.527C149.212 393.832 149.516 394.138 149.516 394.41C149.516 394.68 150.35 395.357 150.667 395.262C150.983 395.164 151.168 394.854 151.458 394.627C151.749 394.402 151.644 393.803 151.722 393.459C151.803 393.115 151.537 393.105 151.407 392.77Z" fill="#5C913B"/>
<circle cx="329" cy="378" r="7" fill="#7BB745" stroke="white" stroke-width="2"/>
<g clip-path="url(#clip7_138_1167)">
<path d="M327 432.9C336.941 432.9 345 430.5 345 427.54C345 424.58 336.941 422.18 327 422.18C317.059 422.18 309 424.58 309 427.54C309 430.5 317.059 432.9 327 432.9Z" fill="#3B88C3"/>
<path d="M342.813 425.538C342.813 427.154 340.313 428.125 328.331 428.125C317.406 428.125 314.719 427.154 314.719 425.538C314.719 423.922 320.402 422.612 328.331 422.612C336.26 422.612 342.813 423.922 342.813 425.538Z" fill="#88C9F9"/>
<path d="M316 425.25C316 424.25 317 420.25 327 420.25C339 420.25 342 424.25 342 425.25C342 426.25 342 427.25 328 427.25C316 427.25 316 426.25 316 425.25Z" fill="#F4900C"/>
<path d="M329.62 424.667C329.584 424.832 329.516 424.988 329.42 425.126C329.324 425.265 329.202 425.383 329.06 425.475C328.918 425.566 328.76 425.628 328.594 425.658C328.428 425.688 328.257 425.685 328.093 425.649C327.928 425.614 327.772 425.546 327.633 425.45C327.494 425.353 327.376 425.231 327.285 425.089C327.101 424.803 327.038 424.455 327.11 424.122L332.193 398.137C332.224 397.967 332.289 397.806 332.383 397.662C332.478 397.518 332.6 397.394 332.744 397.299C332.887 397.203 333.048 397.137 333.217 397.105C333.387 397.073 333.561 397.076 333.729 397.112C333.897 397.149 334.057 397.219 334.197 397.318C334.338 397.418 334.457 397.544 334.548 397.691C334.639 397.837 334.699 398.001 334.725 398.171C334.752 398.341 334.743 398.515 334.701 398.682L329.62 424.667Z" fill="#66757F"/>
<path d="M333.358 398.827C325.736 397.173 318.501 400.7 317.198 406.705C317.198 406.705 316.835 408.377 317.672 408.559C318.508 408.741 320.544 407.431 320.544 407.431L341.452 411.969C341.452 411.969 342.761 414.005 343.598 414.187C344.435 414.369 344.797 412.696 344.797 412.696C346.101 406.69 340.979 400.481 333.358 398.827Z" fill="#DD2E44"/>
<path d="M333.358 398.827C327.584 397.574 321.847 401.426 320.544 407.43C320.544 407.43 320.181 409.103 321.854 409.466C323.527 409.83 326.399 408.701 326.399 408.701L335.598 410.698C335.598 410.698 337.744 412.915 339.417 413.279C341.09 413.641 341.452 411.968 341.452 411.968C342.755 405.964 339.131 400.08 333.358 398.827Z" fill="#FFE8B6"/>
<path d="M333.358 398.827C330.355 398.176 327.701 402.697 326.398 408.701C326.398 408.701 328.544 410.919 330.216 411.281L331.053 411.464C332.726 411.826 335.597 410.698 335.597 410.698C336.901 404.694 336.361 399.479 333.358 398.827Z" fill="#DD2E44"/>
<path d="M324.844 424.948C325.313 424.521 326.594 424.622 327.344 424.346C328.094 424.07 328.563 423.719 329.188 423.97C329.813 424.221 330 424.597 330.594 424.648C331.188 424.699 331.625 425.05 331.375 425.326C331.125 425.602 329.156 425.702 327.844 425.702C326.532 425.702 324.265 425.476 324.844 424.948Z" fill="#FFAC33"/>
</g>
<circle cx="563" cy="368" r="7" fill="#7BB745" stroke="white" stroke-width="2"/>
<g clip-path="url(#clip8_138_1167)">
<path d="M563 352C553.611 352 546 344.389 546 335C546 325.611 553.611 318 563 318C572.389 318 580 325.611 580 335C580 344.389 572.389 352 563 352Z" fill="#FFCC4D"/>
<path d="M562.001 344.5C560.896 344.5 560.001 343.381 560.001 342C560.001 340.619 560.896 339.5 562.001 339.5C563.106 339.5 564.001 340.619 564.001 342C564.001 343.381 563.106 344.5 562.001 344.5Z" fill="#664500"/>
<path d="M571.889 337.383C572.068 337.383 572.243 337.335 572.397 337.244C572.551 337.153 572.677 337.022 572.764 336.866C572.85 336.709 572.893 336.533 572.888 336.354C572.882 336.175 572.829 336.001 572.734 335.85C571.818 334.397 569.033 331.912 565.044 332.888C564.792 332.956 564.576 333.12 564.443 333.345C564.31 333.57 564.271 333.838 564.333 334.092C564.395 334.346 564.554 334.565 564.776 334.703C564.998 334.841 565.265 334.886 565.52 334.83C569.124 333.948 571.022 336.886 571.041 336.916C571.131 337.059 571.257 337.177 571.405 337.259C571.553 337.341 571.72 337.383 571.889 337.383ZM559.916 333.641C560.122 333.641 560.324 333.578 560.492 333.459C560.661 333.34 560.789 333.172 560.859 332.978C560.928 332.783 560.936 332.572 560.88 332.373C560.825 332.175 560.71 331.998 560.55 331.867C557.374 329.263 553.788 330.305 552.335 331.221C552.11 331.362 551.951 331.587 551.892 331.845C551.833 332.104 551.879 332.375 552.02 332.6C552.161 332.825 552.386 332.984 552.644 333.043C552.903 333.102 553.174 333.056 553.399 332.915C553.537 332.831 556.451 331.092 559.283 333.414C559.461 333.561 559.685 333.641 559.916 333.641Z" fill="#664500"/>
<path d="M566.654 347.273C566.77 347.273 566.884 347.246 566.988 347.195C567.092 347.143 567.182 347.068 567.252 346.976C567.322 346.883 567.37 346.776 567.391 346.662C567.413 346.548 567.407 346.431 567.376 346.319C566.939 344.779 567.118 343.29 567.866 342.233C568.363 341.531 569.071 341.102 569.809 341.055C570.223 341.03 570.537 340.673 570.511 340.26C570.485 339.847 570.13 339.509 569.716 339.559C568.523 339.633 567.403 340.292 566.643 341.366C565.632 342.795 565.373 344.749 565.934 346.727C565.978 346.884 566.072 347.022 566.202 347.121C566.332 347.219 566.491 347.273 566.654 347.273ZM555.617 344.212C555.763 344.212 555.907 344.169 556.029 344.088C557.196 343.318 557.849 341.971 557.821 340.393C557.792 338.758 557.012 337.24 555.837 336.524C555.753 336.473 555.66 336.438 555.562 336.423C555.465 336.408 555.366 336.412 555.27 336.436C555.174 336.459 555.084 336.501 555.005 336.559C554.925 336.617 554.858 336.691 554.807 336.775C554.756 336.859 554.721 336.952 554.706 337.05C554.691 337.147 554.695 337.246 554.718 337.342C554.742 337.438 554.784 337.528 554.842 337.607C554.9 337.687 554.974 337.754 555.058 337.805C555.793 338.253 556.302 339.304 556.322 340.419C556.342 341.474 555.933 342.355 555.204 342.836C555.069 342.925 554.967 343.055 554.912 343.206C554.857 343.358 554.852 343.523 554.899 343.678C554.945 343.832 555.04 343.968 555.169 344.064C555.299 344.16 555.456 344.212 555.617 344.212Z" fill="#E2A62D"/>
<path d="M562.821 318.72C562.872 318.67 562.939 318.638 563.01 318.629C563.01 318.629 578.934 315.606 579.623 316.214C580.311 316.823 579.26 332.998 579.26 332.998C579.255 333.079 579.237 333.148 579.193 333.197C578.589 333.881 574.435 331.193 569.914 327.196C565.392 323.198 562.217 319.404 562.821 318.72Z" fill="#DD2E44"/>
<path d="M579.651 316.271C579.669 316.31 579.682 316.351 579.689 316.394C579.53 317.765 577.994 329.046 577.037 332.572C575.601 331.769 574.142 330.678 572.428 329.319C573.884 326.654 578.842 316.146 579.651 316.271Z" fill="#EA596E"/>
<path d="M550.098 345.229L560.671 343.926C561.801 343.824 563.788 343.814 563.686 342.024C563.593 340.401 561.646 340.651 560.207 340.864L549.569 342.638L550.098 345.229Z" fill="#3B88C3"/>
<path d="M549.57 342.639L553.792 341.915C554.286 341.826 554.726 342.562 554.748 343.341C554.773 344.207 554.521 344.645 554.022 344.747L549.878 345.259L549.57 342.639Z" fill="#88C9F9"/>
<path d="M545.082 342.341L547.704 344.752L552.391 339.655L549.769 337.244C549.111 336.643 548.243 336.326 547.352 336.364C546.462 336.401 545.623 336.789 545.018 337.443L544.883 337.59C544.282 338.248 543.966 339.116 544.003 340.007C544.04 340.897 544.428 341.736 545.082 342.341Z" fill="#3B88C3"/>
<path d="M547.706 344.753C546.579 343.718 546.716 341.738 548.01 340.33C549.304 338.923 551.266 338.621 552.392 339.656C553.518 340.692 553.382 342.672 552.088 344.08C550.794 345.487 548.832 345.789 547.706 344.753Z" fill="#88C9F9"/>
<path d="M548.643 343.734C548.08 343.216 548.253 342.112 549.029 341.267C549.806 340.423 550.891 340.158 551.455 340.676C552.018 341.194 551.845 342.298 551.068 343.142C550.292 343.987 549.206 344.251 548.643 343.734Z" fill="#226699"/>
<path d="M577.5 351C576.672 351 576 350.328 576 349.5C576 348.672 576.672 348 577.5 348C578.328 348 579 348.672 579 349.5C579 350.328 578.328 351 577.5 351Z" fill="#55ACEE"/>
<path d="M551 320C549.895 320 549 319.105 549 318C549 316.895 549.895 316 551 316C552.105 316 553 316.895 553 318C553 319.105 552.105 320 551 320Z" fill="#55ACEE"/>
<path d="M575.136 345.246L577.474 339.63L579.588 345.675L575.136 345.246ZM554 321L558 322L557 318L554 321Z" fill="#EA596E"/>
<path d="M548.001 329L544 323.999L547 322L548.001 329Z" fill="#77B255"/>
</g>
<g clip-path="url(#clip9_138_1167)">
<path d="M321.297 295.412C320.924 295.258 318.14 294.111 316.481 294.111C312.925 294.111 308.161 287 305.222 287C300.481 287 297.009 296.289 293.889 297.741C291.32 298.938 290.287 302.516 289.871 305.201C289.592 307.007 289.592 308.408 289.592 308.408L321.297 308.333V295.412Z" fill="#FFAC33"/>
<path d="M299.667 276.333C304.576 276.333 308.556 272.354 308.556 267.445C308.556 262.535 304.576 258.556 299.667 258.556C294.758 258.556 290.778 262.535 290.778 267.445C290.778 272.354 294.758 276.333 299.667 276.333Z" fill="#FFCC4D"/>
<path d="M299.667 274.555C303.594 274.555 306.778 271.372 306.778 267.444C306.778 263.517 303.594 260.333 299.667 260.333C295.739 260.333 292.556 263.517 292.556 267.444C292.556 271.372 295.739 274.555 299.667 274.555Z" fill="#FFAC33"/>
<path d="M317 299.764C291.112 299.764 285 308.056 285 311.889C285 315.722 288.184 319 292.111 319H341.889C345.816 319 349 315.709 349 311.889C349 308.068 342.888 299.764 317 299.764Z" fill="#FFE8B6"/>
<path d="M302.89 294.828C301.972 297.329 303.876 298.993 303.876 298.993C303.876 298.993 303.98 297.756 304.077 296.143C304.177 294.488 305.64 293.365 305.692 292.773C305.86 290.796 304.173 289.34 304.26 290.033C304.445 291.48 303.626 292.821 302.89 294.828ZM296.346 299.393C295.679 300.703 295.775 303.83 295.775 303.83C295.775 303.83 297.375 302.89 297.446 301.921C297.517 300.952 297.471 300.438 297.692 299.877C298.317 298.277 299.69 298.38 300.527 296.165C300.824 295.382 300.182 294.026 299.994 294.469C299.265 296.173 297.014 298.083 296.346 299.393ZM307.092 298.794C306.886 298.221 307.313 294.566 307.676 295.061C308.038 295.555 307.665 297.125 308.856 298.413C310.344 300.022 310.138 301.935 309.729 301.077C309.318 300.216 307.299 299.366 307.092 298.794Z" fill="#F4900C"/>
<path d="M321.297 304.591V299.983C317.274 299.302 300.81 297.142 289.873 305.203C289.565 305.43 289.546 305.919 289.546 306.076C289.546 308.052 296.236 305.468 304.319 306.392C308.204 306.836 312.52 307.151 313.667 306.3C314.054 306.012 313.084 305.007 311.263 304.102C312.175 303.868 313.121 303.658 314.204 303.67C317.729 303.702 320.07 304.225 321.297 304.591Z" fill="#FFAC33"/>
<path d="M314.396 276.643C316.881 276.643 318.84 278.661 318.84 281.149V291.429C318.84 292.652 320.618 293.635 320.618 294.186V275.34C320.618 271.606 323.996 268.581 327.729 268.581C331.462 268.581 334.84 271.606 334.84 275.34V298.755C336.618 298.22 336.618 297.21 336.618 295.933V290.161C336.618 287.672 338.575 285.654 341.062 285.654C343.549 285.654 345.507 287.672 345.507 290.161V298.045C345.507 300.533 343.836 302.41 342.003 303.466C340.604 304.275 336.618 305.269 334.84 305.327V310.703C334.84 314.259 320.618 314.259 320.618 310.703V300.806C318.84 300.673 314.956 299.733 313.619 298.961C311.788 297.905 309.949 296.029 309.949 293.539V281.148C309.951 278.661 311.905 276.643 314.396 276.643Z" fill="#77B255"/>
<path d="M342.778 303.679C343.4 303.679 343.905 303.175 343.905 302.552C343.905 301.93 343.4 301.425 342.778 301.425C342.155 301.425 341.651 301.93 341.651 302.552C341.651 303.175 342.155 303.679 342.778 303.679Z" fill="#3E721D"/>
<path d="M338.273 295.793C338.895 295.793 339.4 295.288 339.4 294.666C339.4 294.043 338.895 293.539 338.273 293.539C337.65 293.539 337.146 294.043 337.146 294.666C337.146 295.288 337.65 295.793 338.273 295.793Z" fill="#3E721D"/>
<path d="M346.157 293.541C346.78 293.541 347.284 293.036 347.284 292.413C347.284 291.791 346.78 291.286 346.157 291.286C345.535 291.286 345.03 291.791 345.03 292.413C345.03 293.036 345.535 293.541 346.157 293.541Z" fill="#3E721D"/>
<path d="M315.743 300.3C316.366 300.3 316.87 299.795 316.87 299.173C316.87 298.55 316.366 298.045 315.743 298.045C315.121 298.045 314.616 298.55 314.616 299.173C314.616 299.795 315.121 300.3 315.743 300.3Z" fill="#3E721D"/>
<path d="M312.364 291.288C312.986 291.288 313.491 290.784 313.491 290.161C313.491 289.539 312.986 289.034 312.364 289.034C311.741 289.034 311.236 289.539 311.236 290.161C311.236 290.784 311.741 291.288 312.364 291.288Z" fill="#3E721D"/>
<path d="M316.87 285.656C317.493 285.656 317.997 285.151 317.997 284.529C317.997 283.906 317.493 283.402 316.87 283.402C316.248 283.402 315.743 283.906 315.743 284.529C315.743 285.151 316.248 285.656 316.87 285.656Z" fill="#3E721D"/>
<path d="M310.111 282.276C310.734 282.276 311.238 281.772 311.238 281.149C311.238 280.527 310.734 280.022 310.111 280.022C309.489 280.022 308.984 280.527 308.984 281.149C308.984 281.772 309.489 282.276 310.111 282.276Z" fill="#3E721D"/>
<path d="M323.628 308.837C324.25 308.837 324.755 308.332 324.755 307.709C324.755 307.087 324.25 306.582 323.628 306.582C323.005 306.582 322.5 307.087 322.5 307.709C322.5 308.332 323.005 308.837 323.628 308.837Z" fill="#3E721D"/>
<path d="M333.764 302.552C334.387 302.552 334.892 302.047 334.892 301.425C334.892 300.802 334.387 300.298 333.764 300.298C333.142 300.298 332.637 300.802 332.637 301.425C332.637 302.047 333.142 302.552 333.764 302.552Z" fill="#3E721D"/>
<path d="M325.882 295.793C326.504 295.793 327.009 295.288 327.009 294.666C327.009 294.043 326.504 293.539 325.882 293.539C325.259 293.539 324.755 294.043 324.755 294.666C324.755 295.288 325.259 295.793 325.882 295.793Z" fill="#3E721D"/>
<path d="M332.641 291.288C333.263 291.288 333.768 290.784 333.768 290.161C333.768 289.539 333.263 289.034 332.641 289.034C332.018 289.034 331.514 289.539 331.514 290.161C331.514 290.784 332.018 291.288 332.641 291.288Z" fill="#3E721D"/>
<path d="M324.755 283.404C325.377 283.404 325.882 282.899 325.882 282.277C325.882 281.654 325.377 281.149 324.755 281.149C324.132 281.149 323.628 281.654 323.628 282.277C323.628 282.899 324.132 283.404 324.755 283.404Z" fill="#3E721D"/>
<path d="M334.892 280.024C335.514 280.024 336.019 279.519 336.019 278.897C336.019 278.274 335.514 277.77 334.892 277.77C334.269 277.77 333.764 278.274 333.764 278.897C333.764 279.519 334.269 280.024 334.892 280.024Z" fill="#3E721D"/>
<path d="M322.5 273.089C323.123 273.089 323.628 272.584 323.628 271.962C323.628 271.339 323.123 270.835 322.5 270.835C321.878 270.835 321.373 271.339 321.373 271.962C321.373 272.584 321.878 273.089 322.5 273.089Z" fill="#3E721D"/>
<path d="M311.242 304.095C311.242 304.095 309.236 303.46 308.07 303.293C306.904 303.126 312.671 302.812 315.37 303.692C312.671 303.649 311.242 304.095 311.242 304.095Z" fill="#F4900C"/>
</g>
<g clip-path="url(#clip10_138_1167)">
<path d="M293.925 156.111L281.778 114.853C281.778 114.853 279.253 116.205 277.148 117.763C276.592 118.173 273.634 122.723 273.038 123.167C269.906 125.505 266.724 128.218 266.297 128.797C265.481 129.907 260 157 260 157L293.925 156.111Z" fill="#292F33"/>
<path d="M307.111 120.111L294.112 103.734L292 97L282.448 108.527L280.722 110.611C280 112.001 277.778 120.111 277.778 120.111L275.556 128.556L265.781 146.429L261.63 154.851L316.889 155.222L307.111 120.111Z" fill="#4B545D"/>
<path d="M281.333 153.444H284.889L288.444 125.444L290.638 122.25L296.999 112.945L297.166 110.333L291.323 118.251L286.667 124.559L282.421 137.647L281.333 141L278.149 146.571L274.222 153.444H281.333ZM302.771 122.127L299.278 132.611L297.333 139.222L302.297 152.778L308.611 152.667C308.611 152.667 300.889 140.333 300.889 139.222C300.889 139.009 302 134.445 302 134.445L303.945 126.39L304.444 123.667L302.771 122.127Z" fill="#292F33"/>
<path d="M324 157C324 157 323.317 150.164 322.482 144.408C322.482 144.408 322.222 137.501 320.222 135.222C318.357 133.098 315.557 131.889 315.186 131.734L313.001 125.471L309.694 116.111L305.388 112.333L302.11 109.443L301.212 108.339L292 97L296.069 109.976L297.001 112.945L302.772 122.127L303.945 126.388L306.501 130.444L307.877 135.245L309.778 141.889L306.222 153.444L324 157Z" fill="#292F33"/>
<path d="M319.925 150.668C317.534 150.668 311.111 151.667 310.222 151.667C306.667 151.667 302.667 148.556 300.889 148.556C299.111 148.556 294.5 151.667 290.944 151.667C287.943 151.667 286.667 150.223 282.555 150.223C281.225 150.223 275.273 151.772 274 151.612C270.759 151.206 269.093 149.889 268.277 149.889C263.556 149.889 260 157 260 157H324C324 157 322.444 150.668 319.925 150.668Z" fill="#5C903F"/>
</g>
<defs>
<clipPath id="clip0_138_1167">
<rect width="18" height="36" fill="white" transform="translate(0 35)"/>
</clipPath>
<clipPath id="clip1_138_1167">
<rect width="36" height="36" fill="white" transform="translate(17 35)"/>
</clipPath>
<clipPath id="clip2_138_1167">
<rect width="36" height="36" fill="white" transform="translate(353)"/>
</clipPath>
<clipPath id="clip3_138_1167">
<rect width="36" height="36" fill="white" transform="translate(497 47)"/>
</clipPath>
<clipPath id="clip4_138_1167">
<rect width="36" height="36" fill="white" transform="translate(372 161)"/>
</clipPath>
<clipPath id="clip5_138_1167">
<rect width="36" height="36" fill="white" transform="translate(189 222)"/>
</clipPath>
<clipPath id="clip6_138_1167">
<rect width="36" height="36" fill="white" transform="matrix(-1 0 0 1 53 179)"/>
</clipPath>
<clipPath id="clip7_138_1167">
<rect width="36" height="36" fill="white" transform="translate(309 397)"/>
</clipPath>
<clipPath id="clip8_138_1167">
<rect width="36" height="36" fill="white" transform="matrix(-1 0 0 1 580 316)"/>
</clipPath>
<clipPath id="clip9_138_1167">
<rect width="64" height="64" fill="white" transform="translate(285 255)"/>
</clipPath>
<clipPath id="clip10_138_1167">
<rect width="64" height="64" fill="white" transform="translate(260 93)"/>
</clipPath>
</defs>
</svg>
