<svg width="210" height="25" viewBox="0 0 210 25" fill="none" xmlns="http://www.w3.org/2000/svg">
<g clip-path="url(#clip0_86_515)">
<path d="M208.911 13.5384C207.855 13.3922 206.883 13.3403 205.823 13.2837C204.762 13.2271 203.795 13.0857 202.739 12.9395C200.451 12.6376 198.256 12.2509 195.967 11.949C191.656 11.3595 187.256 10.7653 182.931 10.4446C178.963 10.0532 174.903 9.74662 170.926 9.53442C169.865 9.47783 168.805 9.42124 167.833 9.36937C163.851 9.24678 159.874 9.03458 155.892 8.91199C146.598 8.6857 137.216 8.4547 127.913 8.40764C118.786 8.37001 109.659 8.33238 100.616 8.38909C96.1829 8.42216 91.6614 8.45051 87.2282 8.48358C82.3436 8.6723 77.4685 8.68179 72.677 8.78561C62.6474 9.05929 52.711 9.24807 42.6814 9.52175C33.9822 9.77655 25.3571 10.3049 16.7176 11.1021C11.1905 11.7059 5.57013 12.3946 0.0381759 13.088C6.28901 13.8709 12.6426 14.3897 19.0009 14.8188C23.1546 15.0404 27.3131 15.1725 31.3832 15.2998C34.0393 15.3516 36.7001 15.3139 39.4494 15.2808C41.1333 15.2808 42.7337 15.1864 44.334 15.0921C48.6884 14.8751 53.1263 14.7524 57.4807 14.5354C62.5421 14.3561 67.5199 14.0825 72.5812 13.9032C77.731 13.7286 82.9691 13.5587 88.1189 13.3842C92.7336 13.2709 97.4367 13.1624 102.14 13.0538C106.666 12.9359 111.276 12.9122 115.798 12.8839C120.408 12.8602 124.929 12.8319 129.539 12.8082C134.237 12.7893 138.838 12.9449 143.531 13.0156C152.034 13.1098 160.523 13.4729 169.101 13.8407C173.873 14.0954 178.567 14.1661 183.349 14.2415C188.042 14.3122 192.736 14.3829 197.346 14.3592C199.206 14.3686 201.155 14.3828 203.021 14.3026C203.909 14.2601 204.886 14.2224 205.78 14.0903C206.585 13.9535 207.394 13.7271 208.194 13.6799C208.464 13.6044 208.646 13.5243 208.911 13.5384Z" fill="#7BB745"/>
</g>
<defs>
<clipPath id="clip0_86_515">
<rect width="208.6" height="13.3718" fill="white" transform="translate(0.712402 0.452148) rotate(3.0543)"/>
</clipPath>
</defs>
</svg>
