<svg width="24" height="24" viewBox="0 0 24 24" fill="none" xmlns="http://www.w3.org/2000/svg">
<path fill-rule="evenodd" clip-rule="evenodd" d="M18.483 19.7901V19.7881L18.501 19.7451L21.5 4.62506V4.57706C21.5 4.20006 21.36 3.87106 21.058 3.67406C20.793 3.50106 20.488 3.48906 20.274 3.50506C20.0748 3.52307 19.8782 3.56332 19.688 3.62506C19.6068 3.65121 19.5268 3.68057 19.448 3.71306L19.435 3.71806L2.71497 10.2771L2.70997 10.2791C2.65914 10.2964 2.60938 10.3168 2.56097 10.3401C2.44206 10.3935 2.32797 10.4571 2.21997 10.5301C2.00497 10.6781 1.59597 11.0261 1.66497 11.5781C1.72197 12.0361 2.03697 12.3261 2.24997 12.4771C2.3757 12.5652 2.51087 12.639 2.65297 12.6971L2.68497 12.7111L2.69497 12.7141L2.70197 12.7171L5.62797 13.7021C5.61797 13.8851 5.63597 14.0721 5.68497 14.2571L7.14997 19.8161C7.23 20.1191 7.40294 20.3894 7.64449 20.5891C7.88605 20.7888 8.18408 20.9078 8.49675 20.9294C8.80941 20.9511 9.12099 20.8742 9.38774 20.7097C9.65448 20.5451 9.86299 20.3012 9.98397 20.0121L12.272 17.5661L16.201 20.5781L16.257 20.6021C16.614 20.7581 16.947 20.8071 17.252 20.7661C17.557 20.7241 17.799 20.5961 17.981 20.4511C18.1915 20.2804 18.3593 20.063 18.471 19.8161L18.479 19.7991L18.482 19.7931L18.483 19.7901ZM7.13497 13.8751C7.11875 13.8134 7.1226 13.7481 7.14598 13.6888C7.16936 13.6294 7.21104 13.5791 7.26497 13.5451L17.186 7.24506C17.186 7.24506 17.77 6.89006 17.749 7.24506C17.749 7.24506 17.853 7.30706 17.54 7.59806C17.244 7.87506 10.469 14.4161 9.78297 15.0781C9.74483 15.1151 9.7181 15.1623 9.70597 15.2141L8.59997 19.4341L7.13497 13.8741V13.8751Z" fill="#05203E"/>
</svg>
