<svg width="138" height="60" viewBox="0 0 138 60" fill="none" xmlns="http://www.w3.org/2000/svg">
<g clip-path="url(#clip0)">
<path d="M38.2715 29.9966C38.4812 30.2497 38.7975 30.3651 39.045 30.2032C39.4919 29.9036 39.5606 30.1292 39.4953 30.7198C39.7755 30.2032 39.9353 29.8864 40.1141 29.5833C40.3238 29.2269 40.5352 28.8721 41.0079 28.7912C41.1043 28.7844 41.1947 28.7418 41.2615 28.6717C41.3282 28.6017 41.3665 28.5092 41.3688 28.4124C41.3585 28.2057 41.197 28.1627 41.0079 28.1782C40.6641 28.2074 41.1076 27.8028 40.7604 27.7305C40.6005 27.696 40.8635 27.6134 40.9323 27.5583C41.3327 27.2724 41.3843 27.1054 41.1866 26.6491C41.1316 26.5199 41.2296 26.4597 41.2932 26.3839C41.7229 25.8845 41.9807 25.3507 41.7401 24.6757C41.6542 24.4346 41.7539 24.3313 41.9601 24.3881C42.2695 24.4622 42.2626 24.2814 42.2609 24.0782C42.3499 24.1047 42.4306 24.1538 42.4951 24.2208C42.5595 24.2878 42.6056 24.3704 42.6287 24.4605C42.6889 24.7394 42.5944 24.8565 42.2437 24.7411C42.9725 25.4299 43.1031 26.2479 43.0481 27.1416C43.0103 27.715 42.988 28.2815 42.7044 28.7981C42.5944 28.9996 42.9588 29.0288 42.8298 29.2975C42.7501 29.4623 42.629 29.6036 42.4783 29.7074C42.3276 29.8113 42.1526 29.8741 41.9704 29.8898C42.0151 30.3375 42.6339 30.3375 42.5995 30.83C42.5789 31.1055 42.3365 31.2329 42.2798 31.4671C41.6696 31.3156 41.362 31.7943 40.946 32.1146C41.1566 32.0981 41.3685 32.1121 41.5751 32.1559C41.8329 32.2523 42.4208 32.044 42.1767 32.7242C42.1423 32.8189 42.3829 33.01 42.5205 33.1942C42.0529 33.2545 42.2197 34.1069 41.5407 33.883C41.5132 34.1792 41.8295 34.2171 41.8278 34.4409C41.6765 34.6579 41.3431 34.6855 41.2605 34.9799C41.2365 35.0557 41.1059 35.0832 41.2262 35.221C41.5527 35.5947 41.496 35.7806 41.0543 35.9511C40.8016 36.0458 40.6538 36.2869 40.4785 36.5951C40.396 36.7432 40.1347 36.7845 39.9456 36.8758C40.5266 37.2305 40.5129 38.9594 39.925 39.135C39.5812 39.2418 39.2031 39.29 38.8353 39.4105C39.1584 39.5035 39.5108 39.5087 39.7205 39.8238C39.6809 40.0511 39.497 39.8531 39.3767 39.9185C39.2048 40.0098 39.0329 39.9047 39.2186 40.2285C39.3905 40.5109 39.6139 41.0274 38.8576 40.9172C38.892 41.1273 38.342 40.9345 38.5964 41.3718C38.8318 41.7817 38.5448 42.1226 38.0034 42.1932C37.9346 42.2035 37.8796 42.2225 37.8693 42.2621C37.7369 42.7408 37.168 43.0094 37.2402 43.6397C37.0443 43.4778 37.1749 43.266 37.0683 43.1231C36.5045 43.4916 35.9854 44.0254 35.212 43.7326C35.0917 43.6879 35.0642 43.7326 35.0263 43.8015C34.7857 44.1976 34.2116 44.17 33.995 44.6625C33.8885 44.9001 33.8232 44.3749 33.5206 44.5626L33.1872 45.4098C32.632 44.9397 32.4017 44.957 31.9393 45.4994C31.8242 45.3961 31.7812 45.2135 31.6076 45.1722L31.5474 45.2462C31.8482 45.508 31.5595 45.8059 31.4323 45.7628C30.9544 45.6285 30.951 46.0297 30.8822 46.2312C30.6966 46.7943 29.997 47.0405 30.0056 47.7035C29.5072 47.7035 29.3525 48.2373 28.9485 48.3923C28.7767 48.4611 28.6615 48.3458 28.5652 48.258C28.3504 48.0651 28.1613 47.8447 27.9224 47.5916C27.8296 48.0944 27.9826 48.5903 27.8468 49.069C27.546 49.1275 27.6611 48.7143 27.4239 48.7039C27.2864 48.8279 27.4102 49.4926 26.9375 48.9485C26.4803 49.6372 26.2379 49.0518 25.9234 48.7849C25.7309 48.6213 25.6621 48.7022 25.4902 49.3152L24.8955 48.5404L24.6858 49.422C24.4074 49.2326 24.3163 48.9295 24.1427 48.6058C23.9588 49.1826 23.4861 49.639 23.0254 49.4926C22.6129 49.3635 21.9529 50.0953 21.8102 49.1758C21.5008 49.2412 21.5146 49.8129 21.2086 49.6304C20.7789 49.3721 19.9126 49.527 20.1773 48.4112L19.464 49.329C19.3231 49.1224 19.4503 48.778 19.2165 48.7298C18.9827 48.6816 18.8727 48.9829 18.7232 49.1327C18.6715 49.1954 18.5993 49.2378 18.5194 49.2523C18.4395 49.2668 18.357 49.2525 18.2866 49.2119C18.1457 49.1517 18.0975 48.8055 17.795 49.131C17.6524 49.2825 17.6919 48.8245 17.5458 48.7005C17.3086 48.7126 17.4152 49.0449 17.1333 49.1C16.9889 48.6144 17.1075 48.1064 17.0766 47.5502C16.7156 47.8653 16.5162 48.4543 16.0917 48.3527C15.8682 48.301 15.2013 48.2717 15.3869 47.5468C14.8954 47.9325 14.7424 47.8223 14.5396 47.3402C14.127 46.3535 13.192 45.8369 12.367 45.2394C12.3181 45.1992 12.2581 45.1751 12.1951 45.1705C11.9167 45.1729 11.6438 45.0923 11.4112 44.939C11.1786 44.7857 10.9968 44.5666 10.8888 44.3095C10.6825 45.2566 10.2287 44.7142 9.83339 44.5334C9.86777 44.2475 9.56353 44.3061 9.45525 44.1649C9.2318 43.6483 8.59583 43.5932 8.30879 43.1317C8.27097 43.0697 8.20222 43.0628 8.17128 43.1317C7.90486 43.7946 7.57828 43.1782 7.53187 43.0766C7.35999 42.6977 6.96122 42.8493 6.69652 42.6048C5.94023 41.9074 5.55006 40.9551 4.87112 40.2181C4.84415 40.1748 4.82748 40.1259 4.82241 40.0752C4.81735 40.0244 4.82401 39.9732 4.8419 39.9254C4.99144 39.581 5.01378 39.333 4.56001 39.2366C4.48438 39.2194 4.36578 39.0713 4.37781 39.0093C4.51188 38.398 4.05123 37.7936 4.35719 37.184C4.44313 37.0118 4.47751 36.8224 4.285 36.7621C3.92404 36.6468 3.83122 36.2697 3.52871 36.0871C2.93227 35.7204 2.68132 34.9197 2.86868 34.2136C2.88243 34.162 2.88587 34.1069 2.89618 34.0535C2.38053 34.0535 2.4149 33.5197 2.14849 33.2958C1.94566 33.1236 1.89066 33.0617 2.10895 32.8998C2.18802 32.8395 2.33584 32.7706 2.28084 32.669C1.97145 32.118 2.55069 32.1421 2.75352 31.8804C2.38912 31.9355 1.82534 31.7375 1.90097 31.5756C2.07286 31.2312 1.82534 30.9695 1.86144 30.6716C1.92676 30.1205 2.48022 30.384 2.53866 30.0344C1.83394 29.8192 1.78237 29.5523 2.21208 28.9324C2.30662 28.8032 2.12958 28.4502 2.01785 28.2264C1.98348 28.1575 1.86316 28.0542 1.87691 27.9888C2.06083 27.1278 1.80816 26.2668 2.00067 25.4058C2.21482 24.4453 2.7118 23.5713 3.4273 22.8969C3.20385 22.8539 3.01478 22.4664 3.08353 22.1823C3.47886 22.2219 3.47886 22.2219 3.97732 21.9636C4.09764 22.1995 3.77106 22.308 3.81575 22.5491H4.83846C4.19945 22.8834 3.61893 23.3196 3.11963 23.8406C2.77586 24.2022 2.38053 24.7532 2.54038 25.0804C2.7982 25.6107 2.3685 25.8553 2.3685 26.2272C2.3685 26.377 2.08489 26.8609 2.69164 26.6611C2.79992 26.6267 2.88587 26.9711 2.86352 27.1433C2.79133 27.6461 2.95806 28.0043 3.33104 28.3487C3.59231 28.5966 3.61121 29.0374 3.61981 29.399C3.61981 29.6177 3.59059 29.8898 3.79169 29.9449C4.62876 30.1653 4.2764 30.8817 4.27296 31.3053C4.27296 32.3298 4.6958 33.0927 5.72882 33.4302C5.78116 33.4238 5.83391 33.4383 5.8757 33.4705C5.91749 33.5027 5.94499 33.55 5.95226 33.6024C6.03821 34.2257 6.40947 34.2446 6.89419 34.0638C6.18087 33.8228 6.08633 33.6299 6.6123 33.177C6.99044 32.8499 6.92856 32.5089 6.92169 32.1439C6.91309 31.4172 6.9045 31.3982 7.6711 31.3225C8.10768 31.2794 8.47036 31.1847 8.63365 30.706C8.69552 30.5166 8.9035 30.4649 9.10804 30.5424C9.49478 31.4378 10.2287 32.0836 10.93 32.6777C11.2738 32.9601 11.9046 33.0117 12.5113 33.0909C12.8473 33.1311 13.159 33.2869 13.3931 33.5317C13.5426 34.1568 14.0153 32.9497 14.4416 32.6139C14.5311 32.5507 14.6366 32.5139 14.746 32.5078C14.8555 32.5017 14.9644 32.5265 15.0604 32.5795C15.1119 32.6243 15.2322 32.7 15.2322 32.7655C15.0191 32.8602 14.4588 34.391 14.4674 34.6596C14.4846 35.0763 14.4674 35.4931 14.0823 35.7737C14.0549 35.7901 14.0316 35.8126 14.0143 35.8395C13.997 35.8664 13.9862 35.8969 13.9827 35.9287C14.0514 36.707 13.4292 36.7725 12.9307 36.8896C12.5045 36.9894 12.2312 37.1789 12.0833 37.5887C12.0146 37.7815 11.8324 37.9159 11.7 38.076C11.3271 38.5237 11.5058 39.1178 12.0748 39.1867C12.4563 39.2332 12.5131 39.4312 12.5216 39.7239C12.5423 40.4213 12.7932 41.055 13.0682 41.6835C13.1672 41.8934 13.3218 42.0721 13.5151 42.2001C13.7437 42.3723 14.1511 42.424 13.9328 42.8751C13.8984 42.944 13.9844 43.0594 14.0531 43.0766C14.5688 43.2195 14.6203 43.7361 14.8782 44.0805C15.1669 44.4628 15.5279 44.895 16.1329 44.5971C16.2618 44.5334 16.3478 44.5798 16.4767 44.6349C17.1917 44.9587 17.8517 45.4322 18.7455 45.1515C19.0893 45.0431 19.2818 45.5734 19.5087 45.8231C19.9814 46.3397 20.0673 46.3862 20.5881 45.9505C20.6913 45.8644 20.8803 45.675 20.9147 45.8851C21.0264 46.5739 21.7913 46.462 22.0732 47.0336C22.3431 46.3449 22.5803 46.5687 22.8639 46.9269C23.0873 47.211 23.3658 47.2713 23.6494 46.9475C23.9588 46.6032 24.2905 46.4895 24.6343 46.9252C24.6774 46.9863 24.7369 47.034 24.806 47.0627C24.875 47.0913 24.9508 47.0998 25.0244 47.087C25.6432 46.8666 26.3995 46.9906 26.8395 46.3362C26.8739 46.2846 26.9048 46.2209 26.9633 46.1985C27.8829 45.8662 28.1871 44.9931 28.6426 44.263C28.6615 44.2199 28.6898 44.1816 28.7255 44.151C28.7612 44.1204 28.8033 44.0982 28.8487 44.0862C28.8941 44.0741 28.9417 44.0724 28.9878 44.0813C29.034 44.0901 29.0775 44.1093 29.1153 44.1373C29.2614 44.3095 29.1737 44.6195 29.459 44.7124C29.301 44.5578 29.183 44.3669 29.1153 44.1562C29.0981 43.7171 29.4693 43.7258 29.7341 43.6052C29.9988 43.4847 30.3477 43.4434 30.0778 43.0198C30.1037 42.8792 30.1645 42.7475 30.2547 42.6368C30.3448 42.526 30.4613 42.4398 30.5935 42.3861C31.1813 42.1037 31.752 41.7903 31.6248 40.9689C31.6084 40.8973 31.6194 40.8222 31.6557 40.7584C31.692 40.6946 31.7509 40.6468 31.8207 40.6245C31.8387 40.6291 31.8561 40.6361 31.8723 40.6452C31.886 40.6555 31.8895 40.6796 31.8981 40.6968C32.0356 40.2543 32.369 39.8927 32.4137 39.414C32.4137 39.3726 32.4137 39.3055 32.4343 39.2934C33.2422 38.9215 32.6062 38.5358 32.4464 38.1535C32.4169 38.0865 32.4016 38.0141 32.4016 37.9408C32.4016 37.8676 32.4169 37.7952 32.4464 37.7282C32.496 37.6147 32.5154 37.4903 32.5024 37.3671C32.4894 37.2439 32.4446 37.1262 32.3725 37.0256C32.2679 36.8391 32.2364 36.6203 32.2841 36.4118C32.3317 36.2033 32.4551 36.0201 32.6303 35.8977C32.7592 35.8065 32.9998 35.7669 32.919 35.5619C32.8383 35.357 32.5925 35.4552 32.4172 35.4448C32.1473 35.4139 31.9599 35.1556 31.6712 35.1728C31.4168 35.0006 31.6454 34.7044 31.5113 34.4978C31.3876 34.1758 31.5285 33.8813 31.6059 33.58C31.8642 33.3756 32.163 33.2289 32.4825 33.1495C32.9121 33.1579 33.3379 33.0658 33.7258 32.8805C34.1137 32.6952 34.4531 32.4217 34.7169 32.0819C34.961 31.7943 35.2842 31.5894 35.4732 31.2209C35.5936 30.997 35.7397 30.8214 35.6795 30.5493C35.6469 30.4504 35.6424 30.3443 35.6667 30.243C35.691 30.1417 35.7431 30.0492 35.817 29.9759C35.8858 29.907 36.0233 29.8123 35.9167 29.7279C35.5282 29.4232 35.9562 29.2406 35.9975 29.0013C35.9734 28.6569 36.2381 28.4193 36.3412 28.1162C36.362 28.0976 36.3867 28.0839 36.4135 28.0761C36.4403 28.0684 36.4685 28.0668 36.4959 28.0714C36.5338 28.2557 36.6678 28.2178 36.8019 28.2161C37.0167 28.3883 36.9222 28.6465 36.9394 28.8532C36.9944 29.6108 37.1113 29.752 37.9191 29.7366C38.1306 29.7366 38.2904 29.709 38.2767 29.9862" fill="#AEB0AC"/>
<path d="M39.6534 17.564C39.5503 17.5054 39.3509 17.4503 39.344 17.3918C39.2959 16.4964 38.5706 16.3896 37.9466 16.2329C37.6201 16.1502 37.8951 16.0831 37.8779 16.0021C37.8435 15.8041 37.804 15.5665 37.5221 15.5062C37.2933 15.443 37.0683 15.3665 36.8483 15.2772C37.0202 15.1791 37.278 15.1739 37.1921 14.8932C37.1679 14.803 37.1147 14.7232 37.0408 14.6662C36.9669 14.6093 36.8763 14.5783 36.783 14.5781C36.3473 14.5257 35.9056 14.5668 35.487 14.6986C35.8514 14.337 36.3086 14.0408 35.5592 13.8376C35.5392 13.8339 35.5206 13.825 35.5051 13.8118C35.4896 13.7987 35.4778 13.7817 35.4709 13.7626C35.464 13.7435 35.4621 13.7229 35.4655 13.7028C35.469 13.6828 35.4775 13.6639 35.4904 13.6482C35.8634 13.1799 35.5042 12.8269 35.279 12.4859C35.1587 12.3137 35.0126 12.2655 35.3134 12.1243C35.4853 12.0451 35.3718 11.7592 35.2549 11.6938C34.5158 11.2805 34.1205 10.3335 33.2095 10.2474C32.4653 10.175 31.697 9.6705 30.9132 10.3162C31.2346 9.33472 31.128 8.44963 30.358 7.87105C29.6704 7.35446 28.8282 7.01007 27.8622 7.18227C28.2627 6.6829 28.0633 6.47971 26.9788 6.2128C26.7794 6.36778 27.1781 6.46593 27.0234 6.61919C26.1915 6.27479 26.1915 6.2748 26.164 6.79999C25.6071 5.88735 24.5741 5.85291 23.8694 5.28467C24.6875 5.39315 25.5882 5.15036 26.3583 6.07677C26.2379 5.60151 26.1726 5.35355 26.6505 5.54641C27.5443 5.91318 28.469 6.19731 29.3834 6.51759C29.6309 6.45216 29.7392 6.65018 29.8784 6.78966C30.2961 7.04796 30.7138 7.30625 31.128 7.55766C31.9221 8.05014 32.7025 8.565 33.5756 8.918C33.6667 8.95244 33.8163 9.05232 33.8077 9.0902C33.6599 9.75488 34.2202 9.74454 34.5812 9.90297C34.9421 10.0614 35.2687 10.2129 35.3031 10.6658C35.3026 10.7079 35.3119 10.7496 35.3303 10.7875C35.3487 10.8254 35.3756 10.8586 35.4089 10.8843C35.4423 10.91 35.4811 10.9276 35.5224 10.9357C35.5637 10.9438 35.6063 10.9422 35.6468 10.931C35.6979 10.9158 35.7515 10.9115 35.8044 10.9183C35.8572 10.925 35.908 10.9427 35.9536 10.9703C35.9992 10.9978 36.0386 11.0346 36.0692 11.0782C36.0999 11.1219 36.1211 11.1714 36.1315 11.2237C36.1917 11.8987 36.7813 12.2397 37.0425 12.7804C37.1732 13.0438 37.4619 13.1041 37.7129 13.2332C37.4207 13.4192 37.0425 13.4054 36.8311 13.7843C37.1132 13.7591 37.3974 13.792 37.6664 13.8808C37.9354 13.9697 38.1834 14.1126 38.3953 14.3009L38.5053 14.4352C38.5053 14.7692 38.4967 15.0843 38.8868 15.2617C39.0708 15.3426 39.045 15.3995 38.9418 15.7783C38.8903 15.978 39.2065 15.9505 39.1618 16.1451C38.9728 16.1451 38.7906 15.9729 38.5517 16.1037C39.0116 16.3391 39.4142 16.673 39.7308 17.0818C39.8803 17.2798 39.8614 17.4159 39.6655 17.5467" fill="#AEB0AD"/>
<path d="M13.871 9.52942C13.8051 9.56265 13.7491 9.61286 13.709 9.67489C13.6688 9.73693 13.6458 9.80856 13.6424 9.88243C13.6029 10.399 13.6132 10.4059 13.0872 10.4679C13.0305 10.6401 13.2883 10.7434 13.1903 10.9294C12.7675 10.6539 12.3584 10.4989 12.0319 11.0585C12.0022 11.1255 11.9541 11.1825 11.8932 11.2231C11.8323 11.2637 11.7612 11.286 11.6881 11.2875C11.2498 11.3048 11.0951 11.5424 11.2343 11.9539C11.2962 12.1261 11.2343 12.3087 11.0831 12.2725C10.6912 12.1778 10.5674 12.7151 10.1377 12.5997C9.86784 12.5256 10.0741 12.827 10.1068 12.9527C10.1463 13.1077 10.2786 13.2592 10.1291 13.4142C9.97957 13.5691 9.87987 13.3453 9.75096 13.3332C9.62205 13.3212 9.45876 13.3126 9.31438 13.3057C9.20957 13.2888 9.1021 13.3055 9.00734 13.3534C8.91257 13.4014 8.83535 13.4781 8.7867 13.5726C8.67325 13.8257 8.91905 13.9342 9.05655 14.072C9.13138 14.1402 9.21062 14.2035 9.29375 14.2614C8.92248 14.6058 8.49277 14.6574 8.05619 14.7039C8.1026 14.9071 8.38277 14.9174 8.38621 15.1551L7.43054 15.4134C7.7743 15.62 8.13182 15.5305 8.42058 15.8697C7.31194 15.6751 6.39752 15.8284 5.90765 16.9252C6.05891 16.9803 6.35798 16.9339 6.5694 17.1267C6.54534 17.1474 6.52299 17.187 6.50065 17.187C5.19433 17.187 5.41778 17.0785 4.90213 18.4268C4.77838 18.7454 4.73025 19.0863 4.43289 19.3222C4.31257 19.4186 4.13381 19.5908 4.32976 19.856C4.49477 20.0713 4.42945 20.3726 4.2146 20.5792C3.6852 20.0885 3.92755 19.4979 4.07709 18.9727C4.20085 18.5422 4.48961 18.1599 4.72165 17.7673C4.9537 17.3747 5.34043 17.0785 5.0998 16.5619C5.09188 16.511 5.09721 16.4589 5.11528 16.4106C5.13334 16.3623 5.16353 16.3196 5.20293 16.2864C5.93687 15.9799 5.95921 15.2188 6.24626 14.6402C6.51096 14.1098 6.9888 13.8309 7.43569 13.5209C7.64195 13.3763 7.88259 13.2747 7.99088 13.0439C8.20401 12.5876 8.91045 12.777 9.03421 12.2208L9.31953 12.424C9.20953 11.5734 9.96238 11.0981 10.1033 10.3577C10.1463 10.1252 10.4471 10.0563 10.7187 10.034C11.2549 9.99091 11.8015 9.93064 12.3773 9.52942H11.5918C12.0129 9.1747 12.5114 9.20225 13.0236 9.17642C13.3949 9.1592 13.6888 9.12476 13.8624 9.52081" fill="#AFB0AE"/>
<path d="M16.2429 6.31104C16.5351 6.51767 16.8308 6.36269 17.1488 6.34203C16.8617 6.5435 16.7758 6.99982 16.2773 6.93094C16.1054 6.90855 15.8871 7.12036 15.9335 7.21851C16.1329 7.7351 15.6482 7.72304 15.4523 7.79192C14.9968 7.95378 14.7338 8.23274 14.6754 8.68734C14.6169 9.14194 14.3539 9.26764 13.9706 9.29691C13.6269 9.0524 13.3123 8.76827 12.7675 8.56852L13.3622 8.52203H13.6028C13.4309 8.27407 13.7025 8.20347 13.7609 8.0571C14.2199 6.90339 15.3766 6.81729 16.2533 6.31792L16.2429 6.31104ZM27.4875 37.0222V38.572C27.0114 38.1552 26.4563 38.4514 25.987 38.2844C25.8803 38.2392 25.7622 38.2282 25.649 38.2529C25.5357 38.2775 25.4329 38.3367 25.3545 38.4221C25.2101 38.553 25.1018 38.572 25.0107 38.398C24.9196 38.2241 24.8388 38.2844 24.7323 38.3688C24.5242 38.5621 24.2663 38.6931 23.9877 38.747C23.7091 38.8009 23.421 38.7754 23.1561 38.6735C23.1174 38.6582 23.0745 38.6574 23.0353 38.6714C22.9961 38.6853 22.9633 38.713 22.943 38.7493C22.4531 39.3399 21.9735 38.8389 21.5026 38.7149C21.4287 38.6977 21.4098 38.4635 21.3307 38.2362C20.9783 38.6426 20.6088 38.7183 20.2306 38.3705C20.1189 38.2672 20.0312 38.2448 19.947 38.4101C19.8783 38.5444 19.7494 38.5823 19.6445 38.4617C19.5617 38.353 19.4455 38.2745 19.3138 38.2384C19.1821 38.2023 19.0422 38.2106 18.9157 38.262C18.4602 38.4635 17.9188 38.0812 17.4719 38.6357C17.4513 38.1191 17.3 37.711 17.6782 37.3855C18.2007 37.6524 18.2385 37.6145 18.3829 36.5969C18.5427 36.85 18.5204 37.2753 18.859 37.2168C18.9905 37.2022 19.1177 37.1612 19.2329 37.0961C19.3481 37.031 19.4489 36.9431 19.5293 36.8379C19.6737 36.6365 20.045 36.6279 20.0794 36.2766C20.1138 36.0183 20.057 35.7324 20.3166 35.4449C20.3733 35.9873 20.351 36.4781 20.5744 36.9258C20.8907 36.8224 20.7978 36.4987 20.9697 36.2852C21.4252 36.7708 21.6315 37.5646 22.4479 37.4906C22.6954 37.4682 23.0633 37.3494 23.0495 36.9171C23.0892 37.0978 23.1392 37.276 23.1991 37.451C23.208 37.4862 23.2247 37.5189 23.248 37.5467C23.2713 37.5745 23.3005 37.5967 23.3336 37.6116C23.3666 37.6265 23.4026 37.6337 23.4389 37.6328C23.4751 37.6318 23.5106 37.6226 23.5428 37.6059C24.0018 37.4027 24.8715 37.4596 25.3081 37.6662C25.7034 37.8522 26.0936 37.8591 26.3652 37.4251C26.8808 37.7402 27.1386 37.4079 27.3621 37.0067C27.3697 36.9993 27.379 36.9938 27.3891 36.9906C27.3993 36.9874 27.41 36.9867 27.4205 36.9883C27.431 36.99 27.4409 36.9941 27.4496 37.0002C27.4583 37.0064 27.4654 37.0145 27.4704 37.0239" fill="#AEAFAD"/>
<path d="M27.369 24.7239C27.3346 25.1889 27.8675 25.6934 27.2796 26.1635L27.6578 25.9775C27.3484 26.3667 27.2728 26.6835 27.6784 26.9349C27.5289 27.0865 27.589 27.3086 27.5272 27.4515C27.3381 27.8992 27.3862 28.1799 27.8365 28.4434C28.0428 28.5639 28.0806 29.0064 27.9912 29.2596C27.9736 29.4097 28.0037 29.5615 28.0772 29.6935C28.6307 30.3582 29.0019 31.1916 29.8304 31.6101C30.0181 31.6927 30.2176 31.745 30.4217 31.765C30.8067 31.8305 31.2123 31.8907 31.037 32.471C30.9597 32.7259 31.2914 32.6983 31.3567 32.8671C31.2639 33.1495 31.0301 33.2218 30.7723 33.2494C30.4114 33.2976 30.0452 33.394 29.7273 33.1116C29.7788 32.4745 29.1016 32.4969 28.8283 32.1404C28.5888 31.8276 28.2567 31.5985 27.8795 31.4861C27.3518 31.3552 27.424 30.694 26.9273 30.5769C26.8465 30.5597 27.1542 30.5528 27.1215 30.2566C27.0442 29.5506 26.7348 29.1597 25.8977 29.0064C26.2896 28.8515 26.5766 29.1563 26.7124 28.8515C26.8121 28.6276 26.5835 28.5364 26.4495 28.4141C26.3601 28.3314 26.4013 28.2281 26.4151 28.1214C26.501 27.3706 26.3291 26.6095 26.7038 25.8484C26.8173 25.6176 26.8878 25.194 26.996 24.8617C27.0648 24.6378 27.1954 24.6258 27.3742 24.7119" fill="#AFB0AE"/>
<path d="M19.7528 31.6461C19.7597 31.5887 19.7806 31.5339 19.8135 31.4865C19.8465 31.439 19.8906 31.4004 19.9419 31.3741C20.2994 31.0727 20.8787 31.319 21.1795 30.8747C21.3256 31.3 21.8258 30.978 22.0217 31.3689L22.1128 30.749C22.3191 30.7834 22.3775 30.6009 22.4875 30.4941C22.6199 30.7576 22.8622 30.8644 23.1235 30.9591C23.3847 31.0538 23.2679 30.7008 23.4673 30.7214C23.5085 30.9866 23.4673 31.2001 23.9004 31.3413C24.3335 31.4825 24.6292 32.087 24.6962 32.6673C24.4315 32.6845 24.3009 32.1507 23.9743 32.4951C23.5274 31.9957 22.8708 32.4434 22.3586 32.1507C22.1867 32.0508 21.9564 32.347 21.7622 32.4004C21.47 32.4813 21.4184 33.1718 20.9199 32.7327C20.8512 32.6707 20.7618 32.8412 20.7481 32.9393C20.7171 33.1356 20.7085 33.3354 20.6913 33.5368C20.3373 33.468 20.4163 33.1408 20.2358 32.8911C20.0777 33.5162 19.5792 33.666 19.0327 33.8967C19.1048 33.5868 19.4108 33.4714 19.3592 33.1787C19.1495 33.0065 18.9914 33.3629 18.7233 33.2768C19.2045 32.8033 19.7804 32.4055 19.7408 31.6444" fill="#AEB0AD"/>
<path d="M27.3604 24.0902C27.5744 23.8978 27.8433 23.7774 28.1292 23.7458C28.2607 23.8727 28.3425 24.0425 28.3597 24.2246C28.1877 24.4277 28.0054 24.6103 27.9865 24.8996C27.9865 25.0201 27.9005 25.1785 27.7869 25.1751C27.6149 25.1751 27.6149 24.9857 27.5943 24.8479C27.5736 24.7102 27.6682 24.4897 27.3844 24.5035C27.3053 24.3692 27.522 24.2177 27.3586 24.0902" fill="#B8ABB2"/>
<path d="M17.6524 39.5191C18.5857 40.38 19.5087 41.2582 20.6535 41.8385C20.6878 41.8558 20.7429 41.8764 20.7566 41.9074C20.9388 42.3827 21.2791 42.424 21.7226 42.3121C21.7729 42.2951 21.8263 42.2895 21.879 42.2955C21.9317 42.3016 21.9824 42.3192 22.0276 42.3472C22.0727 42.3751 22.1111 42.4127 22.1401 42.4573C22.1691 42.5018 22.1879 42.5522 22.1953 42.6048C22.2675 42.9595 22.3465 43.3969 21.9787 43.5657C21.4338 43.8171 20.9302 44.3319 20.2255 44.022C20.0192 43.9307 19.9505 44.2028 19.7837 44.2458C19.4915 44.3147 19.1306 44.5214 19.2165 43.9187C18.914 43.8928 18.5049 44.6195 18.3159 43.7981C18.3094 43.7912 18.3013 43.7859 18.2923 43.7829C18.2833 43.7799 18.2736 43.7792 18.2643 43.7809C17.5338 44.1546 17.0474 43.4796 16.432 43.3607C16.377 43.3521 16.3117 43.3917 16.2601 43.4072C15.9903 43.235 15.9043 42.7185 15.3835 42.9458C15.3423 42.963 14.9143 42.653 14.971 42.3017C15.3148 41.7369 14.5997 41.5699 14.5138 41.0757C15.0123 41.4304 15.3491 41.9367 15.9576 41.966C16.279 41.9832 16.6881 42.3104 16.7878 41.6474C16.8136 41.4752 17.1316 41.2686 17.3378 41.3977C17.5785 41.5596 17.8191 41.4873 18.0546 41.5355C18.2265 41.5699 18.584 41.6508 18.5187 41.4976C18.3726 41.1704 18.8745 40.8605 18.4637 40.5677C18.186 40.3552 17.9272 40.119 17.6902 39.8617C17.6043 39.7756 17.4393 39.6516 17.661 39.5173" fill="#B0AFAE"/>
<path d="M25.7481 40.931C25.8564 41.2581 25.5522 41.7058 26.2363 41.8488C26.6952 41.9452 25.9957 42.1346 26.0816 42.3654C26.0988 42.3877 26.14 42.4463 26.1469 42.4428C26.6901 42.1398 27.3363 42.4325 27.8829 42.1398C27.9272 42.1101 27.9802 42.0963 28.0332 42.1007C28.0863 42.1051 28.1363 42.1274 28.1751 42.1639C28.5825 42.5978 28.708 42.2982 28.8111 41.8539C28.9142 42.1639 28.7888 42.5083 29.1205 42.6495C28.8403 43.4502 28.017 43.4984 27.4257 43.8669C27.3098 43.9068 27.1864 43.9198 27.0648 43.9048C26.8929 43.9048 26.721 43.5776 26.5611 44.0494C26.458 44.3594 26.0455 44.0494 25.767 43.8359C25.7808 44.0942 25.8392 44.4661 25.4577 44.2957C24.8011 44.0064 24.0654 44.0942 23.4243 43.7877C22.9739 43.5724 23.1029 43.1643 23.0805 42.8027C23.0582 42.4411 23.2833 42.3946 23.5652 42.3946C24.1909 42.3946 24.3989 41.7403 24.9059 41.5095C25.1878 41.3821 25.4559 41.1169 25.743 40.9241" fill="#AFB0AE"/>
<path d="M17.8467 24.3192C17.7126 24.8771 18.242 25.3059 18.1509 25.8586C18.1543 25.8776 18.1623 25.8954 18.1743 25.9105C18.1863 25.9255 18.2019 25.9373 18.2196 25.9447C18.9501 26.0188 18.7954 26.5698 18.7731 27.0537C19.0344 26.9228 19.0172 26.6507 19.208 26.4166C19.2537 26.7796 19.2286 27.148 19.1341 27.5014C19.0137 27.9043 18.7903 28.2763 18.9106 28.7619C18.9341 28.8386 18.94 28.9196 18.9279 28.9989C18.9158 29.0782 18.886 29.1537 18.8407 29.2199C18.7955 29.2861 18.7359 29.3412 18.6665 29.3811C18.597 29.4211 18.5195 29.4449 18.4397 29.4506C18.3636 29.4641 18.2912 29.4929 18.2266 29.5353C18.162 29.5776 18.1067 29.6326 18.0639 29.697C18.0212 29.7614 17.9919 29.8338 17.9779 29.9099C17.9639 29.9859 17.9655 30.064 17.9824 30.1394C17.991 30.2286 17.9662 30.3178 17.9128 30.3897C17.8595 30.4616 17.7814 30.5111 17.6937 30.5286C17.4994 30.5561 17.1952 30.6732 17.5355 30.9815C17.6318 31.0676 17.5957 31.1433 17.343 31.1881C16.5214 31.3259 16.0659 31.8941 15.6414 32.5416C15.3887 32.9204 14.9539 32.7999 14.5585 32.7413C14.6015 33.0857 14.8731 32.9445 15.0054 33.0461C14.988 33.1443 14.9469 33.2367 14.8856 33.3153C14.8244 33.394 14.7449 33.4564 14.654 33.4971C14.5631 33.5379 14.4637 33.5557 14.3644 33.5492C14.265 33.5426 14.1688 33.5118 14.0841 33.4594C13.992 33.3046 13.8563 33.1805 13.6939 33.1029C13.4499 32.545 13.8555 31.6909 14.4416 31.6186C15.375 31.5084 15.8975 30.8816 16.3547 30.1722C16.6469 29.721 16.8497 29.201 17.398 28.9874C17.5527 28.9272 17.5098 28.8531 17.4891 28.7464C17.4513 28.5518 17.3723 28.7464 17.3173 28.7257C17.1969 28.7033 17.0422 28.7171 16.9975 28.5879C16.9529 28.4588 17.0835 28.371 17.1832 28.2987C17.2829 28.2263 17.3654 28.1953 17.4513 28.1402C17.9154 27.8303 17.9274 27.7373 17.5098 27.3912C17.2812 27.2018 17.1247 27.0227 17.3276 26.7024C17.4994 26.4269 17.3533 26.0997 17.3276 25.8311C17.3074 25.5283 17.3667 25.2256 17.4994 24.9529C17.5132 24.9357 17.3688 24.9012 17.4376 24.9529C17.4315 24.9587 17.4268 24.9657 17.4238 24.9736C17.3482 25.2353 17.1213 25.3799 17.0113 25.1061C16.7638 24.5086 16.2894 24.1591 15.8425 23.763C15.823 23.7393 15.809 23.7116 15.8016 23.6818C15.7942 23.652 15.7935 23.6209 15.7995 23.5908C16.5444 23.5934 17.2665 23.8482 17.8484 24.314" fill="#B0B0AF"/>
<path d="M28.3609 24.2177C28.2685 24.1827 28.193 24.1135 28.1502 24.0245C28.1073 23.9354 28.1002 23.8332 28.1304 23.739C28.4985 23.6185 28.8528 23.3602 29.2656 23.5909L28.3609 24.2177Z" fill="#AFB0AE"/>
<path d="M44.7549 7.92109C45.0987 9.02315 44.9784 10.1476 44.7549 11.2359C44.6518 11.7525 44.1619 12.2346 44.2977 12.7856C44.4696 13.4744 44.0021 13.6294 43.6789 14.0254C43.2458 14.542 42.8367 14.9846 42.1767 15.1551C42.1767 15.1757 42.1853 15.1947 42.1939 15.2119C42.2111 15.2687 42.254 15.3272 42.1595 15.3841C41.6679 14.8451 41.001 14.6953 40.3083 14.5816C40.8618 14.8089 40.781 15.5149 41.2365 15.7991C41.2537 15.7991 41.2571 15.837 41.2537 15.8559C41.2193 16.6067 41.2932 16.8891 41.7074 17.6261C41.7134 17.6426 41.7163 17.6601 41.716 17.6777C41.5888 17.7914 41.3551 17.552 41.2898 17.7897C41.2451 17.9618 41.4273 18.0135 41.5356 18.1065C41.8226 18.3562 41.8621 18.6782 41.9343 19.0536C42.0856 19.8388 42.4586 20.5758 42.6992 21.3472C42.8814 21.9327 43.2321 22.4286 43.2028 23.1381C43.1856 23.5513 43.4039 24.2487 43.9557 24.5638C44.0101 24.5934 44.0678 24.6165 44.1276 24.6327C43.6291 25.5884 44.1516 26.26 44.791 27.0435L44.1035 26.6991C44.0691 27.1554 44.2977 27.536 44.3562 27.9423C44.0932 28.0112 44.0296 27.7133 43.8061 27.7529C43.7064 28.1266 44.0726 28.3556 44.1499 28.6793C43.8921 28.8119 43.7443 28.5622 43.5105 28.5691C43.4761 29.2097 43.7168 29.7745 43.9299 30.3669C44.0674 30.7577 44.5281 31.202 43.8955 31.5895C43.8835 31.5895 43.8955 31.6273 43.8955 31.648C43.8268 32.4642 43.4916 33.2666 43.7408 34.0984C43.813 34.3394 43.6652 34.3446 43.5432 34.3876C43.0911 34.5495 42.8436 34.8095 42.8041 35.3416C42.7594 35.9443 42.2884 36.3972 42.0065 36.9138C41.9721 36.9826 41.7384 36.7295 41.6146 37.005C41.4221 37.4355 41.3448 37.7937 41.9034 38.0261C41.6284 38.2758 41.3052 38.0899 40.989 38.2672C41.5046 38.5117 40.616 39.2074 41.4617 39.3245C41.1866 39.5828 40.8824 39.5208 40.5197 39.5656C40.9666 39.9272 40.5197 40.5127 41.0251 40.8794C40.9316 40.9184 40.8333 40.9444 40.7329 40.9569C40.1141 40.9259 40.0024 41.2221 40.2172 41.7404C40.2688 41.8661 40.2688 42.0641 40.1227 42.0159C39.4695 41.799 39.2976 42.7254 38.6479 42.6134C38.5276 42.5928 38.2612 43.1541 37.9982 43.4004C37.7352 43.6466 38.5242 43.4004 38.1495 43.7017C37.9829 43.826 37.8044 43.9333 37.6166 44.022C37.3072 44.1822 38.1048 44.239 37.6476 44.3836C37.445 44.4236 37.2386 44.4409 37.0322 44.4353C37.1697 44.9519 36.3619 44.4646 36.4873 44.9588C36.3894 44.7297 36.1178 44.7866 35.9717 44.666C35.8737 44.5713 35.8514 44.5386 35.7586 44.6436C35.5867 44.8503 35.5248 45.3324 35.071 44.957C34.8751 45.4908 34.2254 45.3703 33.9091 45.756L33.8094 45.2394C33.6238 45.7732 33.5172 46.264 32.8176 46.2726C32.7919 46.2554 32.9551 46.078 32.8176 45.9282C32.7317 46.0746 32.6458 46.2037 32.5839 46.3346C32.3467 46.7892 32.1834 46.8512 31.7554 46.5171C31.6471 46.4345 31.5526 46.4035 31.5182 46.4793C31.2535 47.0578 30.4869 47.323 30.5041 48.0583C30.5213 48.6007 29.8337 48.3786 29.7891 48.7987C29.7478 49.1776 29.7598 49.5839 29.1789 49.4531C29.0637 49.4272 28.9382 49.4823 28.9503 49.6012C29.0328 50.4863 28.2627 50.2968 27.8846 50.302C27.5596 50.3026 27.2445 50.4137 26.9908 50.6171C26.5697 50.9219 26.1434 51.1991 25.5985 51.2233C25.4542 51.2233 25.3012 51.3696 25.3613 51.039C25.3888 50.8771 25.162 50.9942 25.0949 51.0562C24.8973 51.2491 24.7236 51.4626 24.5655 51.6382C24.0808 51.3283 23.5222 51.3386 22.9636 51.3972C22.6937 51.423 22.4049 51.4902 22.1815 51.3352C22.0835 51.2663 22.1471 51.0252 21.8841 51.1923C21.5919 51.3817 21.2791 51.3335 20.9732 51.1354C20.4575 50.8031 19.9006 50.519 19.3798 50.1884C19.0223 49.9593 18.651 50.0506 18.2883 50.085C17.515 50.1879 16.7307 50.0042 16.0831 49.5684C15.6534 49.2895 15.2976 49.1827 15.0071 48.6558C14.8352 48.3321 14.5911 47.9842 14.3763 47.6433C14.1282 47.2331 13.8309 46.8549 13.4911 46.5171C13.3983 46.431 13.2951 46.3346 13.2109 46.5275C13.1267 46.7203 12.9995 46.7427 12.9565 46.5275C12.8293 45.8731 12.5131 46.3208 12.3085 46.4293C12.1366 46.5206 12.0335 46.722 11.8186 46.958C12.0008 46.2692 11.5402 46.0591 11.0624 45.8301C10.7667 46.0315 10.7186 46.4586 10.5467 46.8426C10.5295 46.0298 10.0311 45.4926 9.58416 44.926C9.36931 45.0776 9.58416 45.248 9.48103 45.434C9.21118 45.1688 9.13727 44.7625 8.74537 44.5937L8.68349 45.038C8.62162 44.9966 8.53911 44.9725 8.5288 44.9295C8.42911 44.4921 7.81892 44.4646 7.78282 43.9514C7.76048 43.6311 7.24655 43.9755 7.15201 43.5261C7.04888 43.0336 6.74293 43.5915 6.51605 43.514C6.40948 43.3659 6.50229 43.2006 6.48682 43.0457C6.48465 42.9254 6.4685 42.8058 6.4387 42.6892C5.86117 42.6617 5.56897 42.0521 5.0241 42.0004C4.8694 41.9867 4.65627 42.0314 4.73705 41.842C5.09113 41.0292 4.63048 40.9001 3.83638 40.9294C4.53595 40.5678 3.90514 39.8962 4.52392 39.5914C4.12858 39.4933 3.83638 39.5914 3.56653 39.3589C4.21968 39.1695 3.60778 38.5841 3.94467 38.2621C3.77279 38.0899 3.5459 38.2173 3.3637 38.145C3.11791 38.0485 2.66242 38.0451 3.11104 37.6008C3.22792 37.4854 3.28292 37.2254 3.00791 37.2564C2.73289 37.2874 2.8068 36.9327 2.59023 36.9516C2.71742 36.3903 2.26709 36.392 1.93707 36.2766C2.22412 35.8668 1.38705 35.7773 1.67409 35.364C1.67841 35.3465 1.67831 35.3282 1.67381 35.3108C1.66931 35.2934 1.66054 35.2773 1.64831 35.2641C1.13266 35.0334 1.30454 34.4376 1.01234 34.0932C0.794048 33.8349 1.20829 33.8228 1.18422 33.5249C1.11547 32.7501 0.780297 32.0268 0.80608 31.2433C0.80608 30.9747 0.29043 31.1521 0.335119 30.7681C0.489814 30.6475 0.689199 31.1004 0.812955 30.7681C0.831961 30.7243 0.840605 30.6767 0.838212 30.629C0.835818 30.5812 0.822452 30.5347 0.799156 30.4931C0.775861 30.4514 0.743267 30.4157 0.703918 30.3887C0.664569 30.3617 0.619531 30.3442 0.572318 30.3376C0.482939 30.3169 0.386684 30.2102 0.520753 30.1137C0.916085 29.8382 0.76139 29.5386 0.486377 29.3423C0.170111 29.1443 0.372934 28.7637 -0.012085 28.5226C0.892022 28.595 0.606695 27.9372 0.76139 27.5824C0.800838 27.437 0.800838 27.2836 0.76139 27.1382C0.558568 26.5648 1.10516 26.093 0.933273 25.5368C0.890303 25.399 0.950462 25.337 1.13953 25.2509C1.4833 25.1011 1.53487 24.6603 1.51424 24.3176C1.46955 23.5324 1.77206 22.8126 1.87176 22.055C1.88557 21.8287 1.94618 21.6077 2.04974 21.4062C2.1533 21.2046 2.29756 21.0268 2.47335 20.884C2.72774 20.6774 2.79305 20.011 3.03197 19.5857C3.08353 19.4961 3.10416 19.367 3.17979 19.3153C3.72982 18.9365 3.48918 18.2821 3.73325 17.7862C3.83638 17.5796 3.66106 17.4418 3.41871 17.4814L2.60742 17.5968C2.72842 17.4498 2.90026 17.3539 3.08869 17.3282C3.56481 17.2386 3.99967 16.6394 3.97217 16.5188C3.82951 15.8903 4.5772 15.6579 4.48782 15.0948C4.45688 14.8778 4.29016 14.957 4.24203 14.8503C4.05296 15.0845 3.65762 14.9484 3.582 15.0225C3.12651 15.5046 2.80165 15.0397 2.47507 14.9019C2.07789 14.7217 1.74508 14.4243 1.52111 14.0496C1.00546 13.2695 0.867958 12.3276 0.309337 11.5803C0.161517 11.384 0.371215 11.167 0.367777 10.938C0.36434 9.81525 -0.043024 8.72181 0.15808 7.58876C0.189019 7.41656 0.130578 7.21509 0.21652 7.03773C0.577475 7.03773 0.618727 7.32702 0.594663 7.55432C0.48122 8.65465 0.859364 9.70505 0.859364 10.7847C0.848908 10.8902 0.866262 10.9966 0.909694 11.0933C0.953126 11.19 1.02112 11.2736 1.10688 11.3357C1.54346 11.5975 1.62253 12.0039 1.63971 12.4619C1.63971 12.8821 1.74628 13.242 2.19662 13.4124C2.36204 13.5032 2.48543 13.6553 2.54038 13.836C2.60329 13.9919 2.70632 14.1282 2.83897 14.2311C2.97162 14.334 3.12914 14.3999 3.29547 14.4219C3.46181 14.444 3.631 14.4215 3.78581 14.3567C3.94062 14.2918 4.0755 14.1871 4.17671 14.053C4.40532 13.7775 4.7319 13.7086 4.97769 13.5364C5.44521 13.2058 6.12071 13.2437 6.4387 12.6754C6.54183 12.486 6.74809 12.5032 6.92685 12.443C7.37718 12.3 7.50266 11.9556 7.18811 11.5958C6.89934 11.2651 6.92685 10.9827 7.22249 10.7348C7.51813 10.4868 7.50437 10.2561 7.43734 9.95129C7.37031 9.6465 7.26546 9.34171 7.3239 9.02143C7.38234 8.70114 7.51984 8.49795 7.82923 8.46351C7.9651 8.44487 8.10325 8.47329 8.22079 8.54407C8.33833 8.61484 8.4282 8.72373 8.47552 8.85268C8.83647 9.60345 8.83991 9.58623 9.6787 9.42437C10.2975 9.30383 10.9266 9.38993 11.5522 9.36754C11.6553 9.36134 11.7586 9.36134 11.8616 9.36754C12.0335 9.38476 12.2879 9.25734 12.3549 9.49497C12.422 9.7326 12.1727 9.85141 11.9871 9.92201C11.6027 10.0782 11.1972 10.1758 10.7839 10.2113C10.4848 10.2285 10.2339 10.3439 10.1479 10.6246C10.0001 11.0895 9.68042 11.4735 9.55151 11.9212C9.50937 12.0905 9.42969 12.248 9.3184 12.3822C9.2071 12.5163 9.06705 12.6236 8.90866 12.6961C8.22113 12.9888 7.73985 13.5571 7.12451 13.9359C6.85539 14.0958 6.62668 14.3157 6.45617 14.5785C6.28565 14.8413 6.17792 15.1399 6.14134 15.4512C6.09665 15.7784 5.88351 15.9678 5.65491 16.14C5.50709 16.2554 5.27333 16.3535 5.31114 16.5481C5.42287 17.2369 4.91581 17.6571 4.64767 18.1788C4.55314 18.3648 4.45173 18.5456 4.35547 18.7298C4.19508 19.0021 4.10565 19.3104 4.09544 19.6264C4.08523 19.9424 4.15455 20.2558 4.29703 20.5379C4.15437 21.2439 3.62669 21.7261 3.26573 22.2995C3.56481 22.9159 3.26573 23.3568 2.87727 23.8148C2.12958 24.7016 2.03848 25.7916 2.06598 26.8885C2.07974 27.443 2.05395 28.0129 2.31522 28.5416C2.3704 28.6311 2.39366 28.7367 2.38117 28.8412C2.36868 28.9457 2.32119 29.0428 2.24646 29.1167C1.98004 29.3957 2.07458 29.6574 2.37537 29.8399C2.67617 30.0225 2.59023 30.1723 2.37537 30.3565C1.7841 30.9024 1.88379 31.4672 2.62632 31.772C2.86009 31.8684 2.84118 31.9442 2.70539 32.1301C2.11067 32.9257 2.13302 33.2115 2.85665 33.9107C2.91495 33.9677 2.95725 34.0391 2.97927 34.1177C3.0013 34.1963 3.00228 34.2793 2.98212 34.3584C2.9299 34.68 2.97079 35.0099 3.09995 35.309C3.22911 35.6081 3.44114 35.8638 3.71091 36.0459C3.97389 36.2353 4.13546 36.5418 4.39844 36.745C4.45142 36.7828 4.49064 36.8369 4.51018 36.899C4.52973 36.9612 4.52851 37.028 4.50673 37.0894C4.22656 37.6266 4.56689 38.1536 4.50673 38.6839C4.48809 38.7668 4.49777 38.8535 4.53423 38.9302C5.19942 39.9375 5.49678 41.1515 6.32869 42.0469C6.77903 42.5291 7.39437 42.7529 7.88596 43.1662C8.74537 42.8993 9.04101 43.6449 9.51197 44.0754C9.61522 44.2397 9.76309 44.3711 9.93824 44.4542C10.2219 44.6023 10.4951 44.7745 10.7461 44.3853C10.8595 44.2132 10.9781 44.3113 11.0899 44.437C11.4336 44.8331 11.7946 45.2084 12.3962 45.1258C12.4804 45.1329 12.5595 45.1695 12.6196 45.2291C13.3931 45.806 14.2491 46.2933 14.6599 47.2369C14.6771 47.2748 14.6943 47.3351 14.7218 47.3437C15.2546 47.4883 15.5812 47.9842 16.1106 48.1254C16.3942 48.2029 16.5368 47.9188 16.7122 47.7466C16.8153 47.6467 16.9064 47.4969 17.0731 47.5744C17.1401 47.6087 17.193 47.6652 17.2228 47.7344C17.2526 47.8035 17.2574 47.8809 17.2364 47.9533C17.0748 48.6885 17.5974 48.7867 18.0958 48.9348C18.2969 48.9916 18.4791 49.107 18.6802 48.9348C18.9209 48.7281 19.1649 48.4871 19.4657 48.8659C19.477 48.879 19.4914 48.8891 19.5075 48.8952C19.5237 48.9013 19.5411 48.9033 19.5583 48.9009C19.5754 48.8985 19.5916 48.8918 19.6055 48.8815C19.6193 48.8712 19.6304 48.8575 19.6376 48.8418C20.045 48.308 20.1876 48.6696 20.3991 49.0312C20.5469 49.286 20.9732 49.4737 21.1485 49.3756C21.8102 49.0002 22.441 49.3756 23.0804 49.3343C23.2154 49.3229 23.3461 49.2815 23.463 49.2129C23.5799 49.1444 23.68 49.0505 23.7559 48.9382C24.0911 48.3958 24.3163 48.4802 24.581 49.076C24.7529 48.599 24.9248 48.3579 25.3132 48.8091C25.5263 49.0588 25.7567 48.4388 26.0557 48.7505C26.2568 48.9571 26.4889 49.1586 26.8241 48.9468C26.9616 48.8607 27.1455 48.8711 27.2796 48.7574C27.4514 48.6076 27.5821 48.7057 27.7058 48.8435C27.7574 48.7023 27.7058 48.5628 27.7058 48.4233C27.7316 48.1375 27.5993 47.7518 27.8605 47.6002C28.1579 47.4281 28.2834 47.8362 28.4707 47.9997C28.5376 48.0566 28.6151 48.0994 28.6989 48.1255C28.7826 48.1517 28.8707 48.1607 28.9579 48.152C29.0452 48.1434 29.1298 48.1172 29.2067 48.075C29.2837 48.0329 29.3514 47.9757 29.4058 47.9068C29.8698 47.2868 30.4628 46.7599 30.8049 46.0522C30.9888 45.6699 31.4924 45.5787 31.5955 45.1292C32.0253 45.36 32.3931 44.8537 32.8194 45.0294C32.9345 45.0759 33.0944 45.1206 33.1545 44.9777C33.457 44.2717 34.2838 44.3234 34.7444 43.8515C34.9559 43.6363 35.1965 43.6277 35.4836 43.6552C35.9184 43.6983 36.2845 43.483 36.6403 43.2489C36.7778 43.1628 36.8913 43.025 37.0786 43.0353C37.1405 43.0353 37.1388 43.1731 37.2024 43.0956C37.5238 42.7099 37.6218 42.1347 38.2337 41.9935C38.4537 41.9419 38.4881 41.6629 38.4193 41.4528C38.3162 41.1257 38.3918 40.9363 38.7459 40.8708C39.1 40.8054 39.1928 40.6005 39.0553 40.275C38.9178 39.9496 38.9745 39.7791 39.3612 39.8066C39.344 39.7137 39.2753 39.7378 39.234 39.7206C39.0622 39.6396 38.7493 39.6964 38.77 39.4158C38.7871 39.1678 39.0553 39.1609 39.2615 39.123C39.4585 39.0895 39.6441 39.0077 39.8019 38.8849C39.9596 38.7622 40.0847 38.6022 40.1658 38.4193C40.247 38.2365 40.2817 38.0363 40.267 37.8367C40.2523 37.6372 40.1885 37.4443 40.0814 37.2754C39.8649 36.943 39.937 36.8225 40.133 36.5521C40.3736 36.225 40.4939 35.8289 40.9924 35.7687C41.1935 35.7445 41.2932 35.5448 41.1557 35.3296C41.1211 35.2826 41.0963 35.2291 41.083 35.1722C41.0696 35.1154 41.068 35.0564 41.0781 34.9989C41.0882 34.9414 41.1099 34.8865 41.1419 34.8377C41.1739 34.7889 41.2154 34.7471 41.264 34.7148C41.4823 34.5426 41.6077 34.3876 41.4737 34.0846C41.3877 33.89 41.5974 33.8228 41.7487 33.7402C41.8914 33.6774 42.0074 33.566 42.0759 33.4257C42.1445 33.2854 42.1613 33.1254 42.1234 32.9739C42.0443 32.6054 41.9103 32.2851 41.4531 32.2851C41.3058 32.2903 41.1591 32.2633 41.0233 32.2059C40.9271 32.1594 40.8171 32.0199 40.9288 31.9821C41.2726 31.8529 41.2382 31.2623 41.7367 31.3449C41.859 31.3783 41.9896 31.3619 42.1 31.2994C42.2104 31.2368 42.2917 31.1331 42.3262 31.0109C42.4517 30.7078 42.3159 30.5425 42.1234 30.36C41.8484 30.0982 41.7453 29.8606 42.2042 29.6712C42.4998 29.5472 42.5772 29.2975 42.6253 28.9721C42.7456 28.1524 42.9467 27.3465 42.8694 26.5062C42.8635 26.1925 42.7982 25.8828 42.6769 25.5936C42.505 25.232 42.0804 24.9341 42.3847 24.4399C42.4156 24.3848 42.2643 24.2797 42.1887 24.2108C42.0563 24.1097 41.912 24.0253 41.759 23.9594C41.3912 23.7993 41.1918 23.6581 41.7109 23.3912C41.9653 23.2603 42.1509 22.2547 41.9825 22.024C41.4462 21.2749 41.0612 20.376 40.0917 20.0368C39.9439 19.9852 39.5245 19.9163 39.9199 19.5943C40.0574 19.4806 39.937 19.3739 39.882 19.2705C39.7755 19.0742 39.6345 18.9124 39.7961 18.6472C39.9577 18.382 39.6534 18.2408 39.5039 18.1134C39.1601 17.8327 39.2908 17.6571 39.5795 17.4763C39.5967 16.9424 39.1412 16.7582 38.8301 16.4775C38.519 16.1968 38.5173 16.2192 38.8301 15.9782C38.9161 15.9127 38.8301 15.4151 38.6754 15.2894C38.3557 15.0311 38.1993 14.7624 38.5104 14.3939C39.4334 14.3078 39.5245 14.1873 39.4248 13.2058C39.3905 12.8614 39.2787 12.4481 39.7944 12.3586C40.2585 12.2794 40.6538 12.6737 40.6538 13.1955C40.6493 13.3625 40.6361 13.5292 40.6143 13.6948C40.604 13.8326 40.5455 14.0048 40.7415 14.0651C40.8132 14.0864 40.89 14.0827 40.9593 14.0545C41.0287 14.0263 41.0864 13.9754 41.123 13.9101C41.4273 13.3849 41.8707 13.4365 42.3778 13.5278C43.2475 13.6879 43.4778 13.4675 43.4091 12.5842C43.3819 12.4194 43.3977 12.2503 43.4549 12.0935C43.5121 11.9366 43.6088 11.7972 43.7357 11.6887C44.3132 11.2118 44.4232 10.5781 44.3802 9.88585C44.3521 9.40641 44.3521 8.92573 44.3802 8.44629C44.394 8.20522 44.3974 7.9297 44.7584 7.92109H44.7549ZM11.5952 9.5449C10.7977 9.61034 9.99153 9.42092 9.18883 9.75498C8.80037 9.91857 8.47723 9.60689 8.40332 9.16952C8.33801 8.79585 8.16613 8.49795 7.76736 8.61504C7.39437 8.72181 7.42359 9.09719 7.48031 9.41576C7.52421 9.68083 7.58158 9.94348 7.65219 10.2027C7.67648 10.2592 7.68934 10.3199 7.69003 10.3814C7.69072 10.4429 7.67922 10.504 7.6562 10.561C7.63318 10.618 7.59909 10.6699 7.55592 10.7136C7.51274 10.7573 7.46134 10.792 7.40468 10.8157C7.10045 10.9879 6.74809 11.2875 7.41671 11.5045C7.54563 11.5493 7.70376 11.6595 7.5886 11.8351C7.41671 12.0969 7.60579 12.5928 7.07295 12.6186C6.72918 12.6358 6.42323 12.6823 6.38541 13.1266C6.38541 13.192 6.26853 13.316 6.23416 13.2988C5.80101 13.1851 5.57756 13.5502 5.28536 13.6604C4.83331 13.8326 4.43969 13.8894 4.1389 14.3492C3.92576 14.6798 3.45136 14.5214 3.08182 14.5627C2.58335 14.6144 2.41147 14.3905 2.39428 13.9204C2.38709 13.8489 2.36269 13.7802 2.32317 13.7202C2.28365 13.6602 2.2302 13.6108 2.1674 13.576C1.30798 13.39 1.46955 12.6944 1.43517 12.1123C1.41798 11.8541 1.36298 11.6646 1.11203 11.5785C0.692637 11.4287 0.653104 11.062 0.639353 10.7176C0.596382 9.60345 0.295586 8.50828 0.415905 7.38384C0.417524 7.30991 0.396476 7.23725 0.3556 7.17567C0.314724 7.11409 0.255984 7.06655 0.1873 7.03945C0.501846 5.33988 1.39048 3.88482 2.16911 2.39016C2.2499 2.23518 2.41835 2.24034 2.50429 2.18352C2.97353 1.8839 3.23651 1.40864 3.60434 0.948874C3.7556 0.966093 3.66278 1.202 3.7195 1.36214C4.18874 0.432285 5.06363 0.483944 5.89898 0.380627C7.50387 0.166765 9.13667 0.383045 10.6309 1.00742C10.7306 1.05047 10.8028 1.18823 10.8767 0.952318C10.9506 0.716409 11.0366 0.838668 11.0761 0.986757C11.1005 1.13327 11.1723 1.26771 11.2803 1.36942C11.3884 1.47114 11.5268 1.53452 11.6743 1.54984C12.4082 1.63594 12.5062 2.25584 12.7228 2.78104C12.7915 3.30968 12.599 3.70746 12.104 3.91237C12.0144 3.93597 11.9367 3.99197 11.886 4.06956C11.8352 4.14715 11.8149 4.24083 11.829 4.33253C11.8393 4.56844 11.9665 4.62182 12.1727 4.67692C12.8087 4.84912 12.8328 4.97826 12.7399 5.66877C12.6678 6.20774 12.6282 6.73294 12.061 7.098C12.4787 7.27019 12.9376 6.86725 13.1662 7.28741C13.3818 7.66238 13.4665 8.09865 13.4068 8.52723C13.3809 8.56358 13.3466 8.59308 13.3068 8.61318C13.2669 8.63328 13.2228 8.64337 13.1782 8.6426C13.5348 8.74418 13.8485 8.95938 14.072 9.25561C14.182 9.51046 14.3196 9.78426 13.8211 9.62584C13.5031 9.20912 13.039 9.36065 12.6299 9.34688C12.2756 9.33032 11.9223 9.39757 11.5986 9.54318L11.5952 9.5449ZM44.7549 7.92109C44.473 8.06746 44.5384 8.33437 44.5177 8.58061C44.449 9.35205 44.6209 10.1218 44.4782 10.9053C44.4296 11.1579 44.2886 11.3832 44.0829 11.5372C43.6841 11.8816 43.4675 12.2381 43.5672 12.8184C43.691 13.5071 43.3214 13.8274 42.6219 13.7413C42.436 13.7302 42.2524 13.6955 42.0753 13.638C41.7178 13.4968 41.4668 13.5588 41.3224 13.9307C41.2945 14.0025 41.2525 14.0679 41.1988 14.1231C41.1452 14.1783 41.0811 14.2221 41.0102 14.2519C40.9394 14.2818 40.8632 14.2971 40.7864 14.297C40.7095 14.2968 40.6334 14.2812 40.5627 14.251C40.2963 14.158 40.451 13.8429 40.4802 13.6173C40.5404 13.1404 40.6693 12.653 39.9645 12.5101C39.5812 12.4326 39.5177 12.5962 39.5348 12.8958C39.5449 13.077 39.565 13.2576 39.595 13.4365C39.7394 14.3147 39.375 14.6505 38.5053 14.4404C38.3918 14.4525 38.3334 14.3802 38.3076 14.2889C38.3076 13.6569 38.1873 13.0939 37.5788 12.7391C37.309 12.579 37.2574 12.2673 37.2179 11.9694C37.1543 11.4873 37.0838 11.0258 36.575 10.7641C36.3292 10.6366 36.2914 10.3577 36.4031 10.0977C36.6352 9.58107 36.3378 9.52941 35.939 9.55007C35.814 9.55368 35.6899 9.57277 35.5695 9.60689C34.7187 9.86519 34.7187 9.86519 34.2804 9.09719C34.2517 9.0293 34.2094 8.96801 34.1562 8.91707C34.103 8.86614 34.04 8.82665 33.971 8.80102C33.39 8.66326 33.335 8.2431 33.3281 7.74545C33.3281 7.30808 33.2078 6.88447 33.2009 6.43676C33.2009 6.28695 33.1425 6.10959 32.9723 6.10443C32.7626 6.09582 32.8004 6.30245 32.7833 6.4316C32.7708 6.5777 32.7708 6.7246 32.7833 6.8707C32.7833 7.24953 32.7179 7.60253 32.2556 7.6628C31.8517 7.71446 31.4357 7.74029 31.293 7.22026C31.2243 6.97229 31.0043 6.87586 30.8461 6.714C30.5161 6.36961 30.5608 6.11476 31.006 5.91501C31.4082 5.74281 31.6557 5.35537 32.0545 5.15735C32.2951 5.03681 32.2264 4.70447 32.2264 4.45823C32.2264 3.94164 32.2779 3.44572 32.8623 3.22875C32.9386 3.19424 32.9998 3.13301 33.0342 3.05655C33.1889 2.73627 33.3058 2.36777 33.7389 2.3385C34.4402 2.28684 35.1449 2.1663 35.8497 2.3385C36.0662 2.38499 36.1075 2.53824 36.0215 2.71733C35.8015 3.19431 36.0611 3.20981 36.4169 3.15126C36.6031 3.12521 36.7928 3.14898 36.9669 3.22014C37.0993 3.2718 37.2557 3.37856 37.3399 3.17193C37.3722 3.09323 37.3742 3.00535 37.3456 2.92522C37.3171 2.8451 37.2599 2.7784 37.1852 2.73799C37.1321 2.70417 37.0741 2.67862 37.0133 2.66223C36.2966 2.42115 36.1917 2.28339 36.233 1.64627C36.2776 0.957484 36.5767 0.583818 37.2093 0.471891C37.4155 0.437451 37.6149 0.385793 37.8229 0.361685C38.5534 0.268699 38.6479 0.327246 38.6823 1.05047C38.696 1.33459 38.794 1.43274 39.069 1.35526C39.1481 1.33115 39.0467 1.35526 39.1292 1.33804C40.4664 1.13657 40.9254 1.51023 40.9649 2.85336C41.1712 2.89641 41.1712 2.69494 41.2623 2.60023C41.7195 2.12325 42.34 2.18696 42.6373 2.78621C42.7729 3.06997 42.9991 3.30027 43.2802 3.44055C43.4424 3.5132 43.5772 3.63598 43.6647 3.79091C43.7522 3.94585 43.788 4.12479 43.7666 4.30153C43.7408 4.74063 43.4452 4.77852 43.1306 4.84223C42.8161 4.90594 42.7611 5.12291 42.7697 5.41048C42.7869 5.92706 42.9158 6.44365 42.8384 6.96024C42.8384 7.04117 42.9656 6.97057 42.8831 6.98263C42.8659 6.98263 42.8659 6.96541 42.8659 6.93097C42.8434 6.77368 42.8788 6.61356 42.9654 6.48048C43.0521 6.3474 43.1841 6.25045 43.3369 6.20774C43.66 6.10443 43.9419 6.22496 44.1963 6.44021C44.5401 6.72778 44.5521 7.1841 44.7687 7.53365C44.7687 7.65936 44.7515 7.78334 44.7463 7.90904L44.7549 7.92109ZM44.7756 7.54226C44.4782 7.53193 44.4885 7.26158 44.4318 7.08594C44.3601 6.86834 44.2341 6.67273 44.0657 6.5177C43.971 6.40728 43.8417 6.33245 43.6989 6.30554C43.5561 6.27862 43.4084 6.30122 43.2802 6.36961C43.0172 6.51253 42.8505 6.77255 43.0481 7.10661C43.1306 7.24953 43.1599 7.41139 42.9656 7.451C42.9346 7.45383 42.9034 7.45029 42.8738 7.44059C42.8442 7.4309 42.8169 7.41526 42.7936 7.39462C42.7703 7.37398 42.7514 7.34879 42.7381 7.32058C42.7248 7.29238 42.7174 7.26175 42.7164 7.23059C42.7473 6.52458 42.6098 5.8358 42.5703 5.14185C42.5531 4.80951 42.8694 4.67692 43.1891 4.65281C43.361 4.63904 43.648 4.72169 43.605 4.4324C43.5672 4.17411 43.7941 3.81766 43.3988 3.65752C42.9347 3.47155 42.529 3.25458 42.4362 2.676C42.4248 2.62402 42.4014 2.57541 42.3681 2.53399C42.3347 2.49257 42.2922 2.45946 42.2439 2.43727C42.1956 2.41508 42.1428 2.4044 42.0897 2.40609C42.0366 2.40777 41.9846 2.42177 41.9378 2.44698C41.7384 2.56752 41.3396 2.37121 41.3431 2.82581C41.3431 3.1702 41.0852 3.18742 40.8583 3.10477C40.6315 3.02212 40.628 2.8327 40.738 2.58818C40.9202 2.18869 40.5249 1.52057 40.09 1.48613C39.7463 1.4603 39.4025 1.32598 39.0587 1.50679C38.6049 1.74786 38.4674 1.54639 38.4949 1.09352C38.5328 0.463281 38.3953 0.353075 37.7558 0.456393C36.6781 0.628589 36.2948 1.02808 36.3808 1.92695C36.4083 2.2369 36.41 2.58129 36.9222 2.44354C37.1835 2.37466 37.4379 2.59851 37.5272 2.78793C37.6166 2.97734 37.5272 3.27352 37.4619 3.50082C37.4069 3.67302 37.2608 3.55765 37.1611 3.48704C36.9654 3.32872 36.7179 3.24894 36.4667 3.26319C36.2226 3.28558 35.9683 3.54559 35.7345 3.21153C35.5007 2.87747 35.9442 2.76382 35.9579 2.51586C35.2996 2.25068 34.6276 2.49864 33.9675 2.44698C33.5619 2.41598 33.28 2.57613 33.2456 3.02728C33.2353 3.15815 33.1889 3.30624 33.0617 3.3269C32.2539 3.45605 32.3742 4.08457 32.3742 4.61837C32.3845 5.06608 32.3226 5.40531 31.8018 5.47935C31.3824 5.53962 31.3033 6.12681 30.798 6.12681C30.6828 6.12681 30.7464 6.49875 30.9596 6.62101C31.0871 6.6842 31.1981 6.77621 31.284 6.88976C31.3699 7.00332 31.4283 7.13532 31.4546 7.27536C31.5543 7.69552 31.9703 7.51643 32.259 7.5216C32.5478 7.52677 32.6028 7.29774 32.6303 7.04462C32.6647 6.75877 32.4584 6.43849 32.6595 6.20774C32.7661 6.09065 32.5117 5.7342 32.895 5.84958C33.1081 5.91157 33.3883 5.95289 33.3625 6.2594C33.3109 6.82765 33.5224 7.37351 33.4949 7.93487C33.4777 8.27926 33.512 8.52722 33.9418 8.5961C34.0908 8.60841 34.23 8.67558 34.3325 8.78465C34.4351 8.89371 34.4936 9.03696 34.4969 9.18674C34.5141 9.83075 35.0538 9.73088 35.2704 9.54835C35.6142 9.25562 35.9786 9.42781 36.3155 9.36238C36.6524 9.29694 36.8861 9.60345 36.6472 9.93062C36.3034 10.4093 36.4925 10.6194 36.9342 10.826C37.4705 11.0706 37.2643 11.625 37.3605 12.0314C37.3967 12.2983 37.5354 12.5405 37.7473 12.7064C38.3385 13.1249 38.5499 13.6397 38.3832 14.2992C37.8676 14.2734 37.4413 13.9204 36.9136 13.886C36.6764 13.8739 36.7211 13.6552 36.8621 13.5175C37.001 13.3667 37.1909 13.2728 37.3949 13.254C36.8818 12.8547 36.4619 12.3482 36.1642 11.7697C36.1161 11.6784 36.1195 11.5286 36.0439 11.4856C35.3976 11.1239 35.1415 10.3267 34.4368 10.0322C34.0742 9.88854 33.7711 9.62561 33.5774 9.28661C33.2508 8.75625 32.5598 8.6271 32.0304 8.31198C31.269 7.8591 30.4835 7.451 29.7959 6.86898C29.7409 6.57624 29.679 6.29729 29.2975 6.59002C28.4088 6.44193 27.5872 6.08376 26.7484 5.7807C26.623 5.73765 26.4511 5.47935 26.3583 5.85302C26.3136 6.02522 26.1004 5.98217 25.9853 5.8909C25.3407 5.37431 24.5655 5.51896 23.8333 5.44664C23.3967 5.44664 22.9601 5.42942 22.5167 5.45697C22.4101 5.62916 22.7814 5.78758 22.5339 5.92879C22.3448 6.03555 22.1729 5.91501 22.0182 5.80136C21.8945 5.7101 21.8463 5.38809 21.6005 5.68599C21.5662 5.73076 21.4286 5.70665 21.3599 5.66877C20.363 5.15218 19.3781 5.55512 18.4104 5.76003C17.7057 5.90984 17.0491 6.27662 16.3375 6.43676C15.5949 6.65718 14.9727 7.11177 14.3092 7.48716C13.9827 7.67141 13.8795 8.0313 13.7592 8.34814C13.6681 8.60127 13.5873 8.71492 13.3364 8.52034C13.3879 8.16389 13.07 7.89699 13.1421 7.49921C13.1868 7.2547 12.8792 7.15482 12.5749 7.25814C12.3515 7.34079 12.0421 7.58015 11.8788 7.19443C11.7499 6.88792 12.0507 6.85004 12.2449 6.7295C12.4391 6.60896 12.7468 5.24344 12.6506 5.06436C12.5474 4.85256 12.1641 4.76646 11.688 4.84912C11.5625 4.6597 11.7533 4.47028 11.676 4.26021C11.578 3.9933 11.6038 3.7815 12.0198 3.74362C12.5698 3.70573 12.4838 3.09788 12.7073 2.7621C13.412 2.9343 12.972 3.50254 13.0511 3.87104C13.2693 4.79746 13.5151 5.72732 13.5667 6.62618C14.4261 6.93269 14.7991 6.15436 15.3577 5.71354C15.6448 5.48969 16.2171 5.58095 16.1484 4.9731C16.7465 5.41736 17.1917 4.73719 17.7349 4.75441C18.608 4.78196 19.4125 4.42379 20.2581 4.28431C20.4816 4.24643 20.8425 4.4875 21.0144 4.31359C21.6229 3.73673 22.3792 4.64937 22.8604 3.99502C22.9288 3.94492 23.0075 3.91079 23.0908 3.89515C23.4345 3.79183 23.4483 4.22749 23.7009 4.22577C23.7095 4.22577 23.7319 4.38074 23.8728 4.39796C24.7941 4.47373 25.7206 4.54261 26.6367 4.66831C27.2331 4.75096 27.8708 4.79229 28.3452 5.23139C28.689 5.54134 29.0723 5.28305 29.4384 5.42081C29.9393 5.58584 30.4591 5.68652 30.9854 5.72043C31.1194 5.73765 31.4271 5.76348 31.3566 5.3416C31.293 4.95588 31.6196 4.58393 31.7296 4.18272C31.9617 3.32174 32.7609 2.68805 32.7386 1.69793C32.7386 1.52573 34.2168 0.881717 34.4402 0.836946C35.0934 0.709521 35.7397 0.571764 36.3877 0.435729C36.9824 0.315192 37.6252 0.404734 38.1752 0.0431223C38.3471 -0.0636393 38.5482 0.139552 38.7648 0.149884C39.5039 0.180879 40.2086 0.32208 40.6727 1.01947C41.0612 1.59978 41.8587 1.63938 42.3108 2.1508C42.6837 2.57441 43.3111 2.77071 43.4332 3.41472C44.6604 4.00019 44.229 5.24 44.4816 6.19052C44.602 6.6279 44.9698 7.04117 44.7687 7.55087L44.7756 7.54226ZM8.89319 10.4214C9.31602 10.4386 9.43634 10.7279 9.45009 11.0533C9.46384 11.3788 9.16477 11.5355 8.90522 11.5183C8.54427 11.5045 8.38957 11.1739 8.36207 10.857C8.31738 10.4782 8.64396 10.4644 8.89491 10.4197L8.89319 10.4214ZM9.45353 44.1822C9.69417 44.0823 9.83167 44.3199 10.0276 44.3664C10.062 44.3664 10.1995 44.4559 10.062 44.5265C9.98632 44.5494 9.90708 44.5582 9.82824 44.5524C9.66495 44.4663 9.46728 44.4181 9.45353 44.1839V44.1822ZM43.9849 5.16596C44.0534 5.17101 44.1176 5.20123 44.1652 5.25081C44.2127 5.30039 44.2404 5.36584 44.2427 5.43458C44.253 5.59645 44.143 5.64122 44.0072 5.64122C43.8268 5.64122 43.6635 5.5689 43.6927 5.35882C43.7064 5.23139 43.8302 5.16423 43.9849 5.16423V5.16596ZM29.8698 6.79149C29.6823 6.74729 29.5101 6.65331 29.3714 6.51942C29.4831 6.38166 29.502 6.0631 29.7014 6.12853C29.9988 6.22669 29.832 6.55902 29.8733 6.78804L29.8698 6.79149ZM17.6524 39.5191C17.4805 39.3122 17.3539 39.0715 17.2804 38.8126C17.207 38.5537 17.1885 38.2823 17.2261 38.0158C17.3018 37.0942 17.5453 36.1943 17.9446 35.3605C17.9343 36.0493 17.6249 36.6951 17.6867 37.389C17.7177 37.6542 17.5699 37.9194 17.6696 38.2224C17.9618 38.1536 18.2711 38.2448 18.529 38.1467C19.1529 37.9125 19.7184 38.2534 20.3131 38.2793C20.5709 38.2913 20.8288 38.4067 21.0935 38.2793C21.2997 38.1863 21.4372 38.2965 21.5851 38.4377C21.958 38.7959 22.3637 39.0059 22.8622 38.6512C22.9918 38.5825 23.1403 38.5583 23.285 38.5823C23.7356 38.5684 24.1806 38.4787 24.6016 38.3172C25.088 38.157 25.6329 37.9418 26.1898 38.0933C26.3101 38.1284 26.4332 38.1532 26.5576 38.1673C27.2847 38.2328 27.2882 38.2362 27.3414 37.5096C27.342 37.3201 27.3969 37.1348 27.4996 36.9757C27.5302 36.9694 27.562 36.9708 27.592 36.9798C27.622 36.9889 27.6493 37.0052 27.6715 37.0274C28.1458 38.0468 27.9808 39.0662 27.2074 39.8428C26.7902 40.2515 26.3457 40.6312 25.877 40.9793C25.3098 41.427 24.6738 41.7921 24.1582 42.3138C23.9958 42.4462 23.8012 42.533 23.5944 42.5652C23.4925 42.5905 23.4034 42.6523 23.3439 42.7389C23.2843 42.8255 23.2585 42.931 23.2712 43.0353C23.2576 43.1487 23.2772 43.2635 23.3275 43.366C23.3779 43.4684 23.4568 43.5539 23.5548 43.6122C24.1255 43.9566 24.813 43.8016 25.3974 44.0719C25.7017 43.5967 26.2775 44.0719 26.6659 43.6931C26.8378 43.5313 27.2744 43.7241 27.6027 43.5726C28.1046 43.3401 28.6804 43.2454 28.8987 42.6289C28.9245 42.5601 29.0362 42.5497 29.1221 42.5377C30.2222 42.2226 31.1555 41.718 31.4941 40.5006C31.6437 39.9668 31.862 39.4502 31.9307 38.8372C32.4722 39.3538 32.4326 39.8187 31.862 40.6401C31.4976 40.9156 32.1267 41.4219 31.6248 41.6646L31.0696 42.4016C30.6227 42.4154 30.3821 42.746 30.107 43.0319C29.3628 43.3642 28.5601 43.6087 27.8846 44.0651C27.1231 44.5679 26.2689 44.6781 25.4404 44.8744C25.076 44.9605 24.6807 44.9054 24.3472 45.1499C24.3297 45.167 24.3087 45.1802 24.2856 45.1885C24.2626 45.1968 24.238 45.2001 24.2136 45.1981C24.1892 45.1962 24.1655 45.189 24.1441 45.1771C24.1227 45.1653 24.104 45.1489 24.0894 45.1292C23.5222 44.5472 22.8278 44.7848 22.1574 44.8675C21.4871 44.9501 20.8821 44.8193 20.2409 44.7125C19.6995 44.6264 19.1409 44.4887 18.5823 44.5128C17.551 44.5575 16.8239 43.9583 16.0504 43.4331C16.0765 43.3781 16.1161 43.3307 16.1656 43.2953C16.652 43.0302 16.9597 43.5485 17.3825 43.5777C17.9325 43.6174 18.4516 43.9394 19.0292 43.7964C19.0704 43.7861 19.1151 43.7672 19.1495 43.7861C19.9951 44.2683 20.7738 43.8619 21.5558 43.5967C21.698 43.5591 21.8234 43.4746 21.9117 43.3568C22 43.239 22.046 43.0948 22.0423 42.9475C22.0423 42.6858 21.9048 42.4309 21.6521 42.4964C21.0969 42.6341 20.8494 42.2208 20.4747 41.9798C19.5811 41.4124 18.7537 40.7464 18.0082 39.9943C17.8655 39.8531 17.6644 39.7533 17.6421 39.5122L17.6524 39.5191ZM9.0857 30.62C9.2404 30.3927 9.34353 30.1551 9.01179 30.0087C8.87772 29.9484 8.64052 30.0207 8.66803 29.7848C8.68521 29.5989 8.91897 29.6023 9.06336 29.53C9.11781 29.4983 9.1706 29.4638 9.22149 29.4267C9.01523 29.2269 8.68006 29.3165 8.51677 29.0478C8.66802 28.8963 8.8846 29.0737 9.07195 28.979C8.88803 28.7723 8.57005 28.7 8.60443 28.3659C9.0857 28.2867 9.29196 28.6466 9.52057 28.9514C9.86433 29.437 10.0809 30.0018 10.3284 30.5408C10.6738 31.419 11.2624 32.1801 12.0249 32.7346C12.1968 32.8654 12.4512 32.9377 12.4632 33.2201C12.1091 33.3545 11.7516 33.5267 11.5419 33.0032C11.5247 32.9567 11.3219 32.9257 11.2549 32.9687C10.8681 33.2098 10.722 32.8775 10.5501 32.676C10.3215 32.4005 9.88324 31.9976 9.65635 31.9218L9.53604 31.8874C9.81449 31.3122 8.79694 31.1986 9.08914 30.62H9.0857ZM36.1367 29.022C36.1934 29.053 36.3773 28.9152 36.3086 29.1012C36.2278 29.313 35.9562 29.2734 35.7637 29.3802C35.8325 29.5765 36.025 29.5386 36.1487 29.6144C36.355 29.7401 36.4169 29.914 36.1195 29.9691C35.6847 30.05 35.7311 30.2653 35.8359 30.5976C35.9219 30.8628 35.6898 31.1211 35.6297 31.338C35.3976 32.1301 34.3543 32.1525 34.2546 32.986C34.2202 33.2563 34.0913 32.986 34.0071 32.998C33.7733 33.029 33.4691 32.7156 33.3195 33.2322C33.2766 33.3872 32.7592 33.37 32.4601 33.2098C32.4504 33.1494 32.4645 33.0876 32.4997 33.0376C33.2284 32.4918 33.9693 31.9614 34.4076 31.1159C34.5973 30.7484 34.7626 30.3687 34.9026 29.9794C34.9507 29.8158 35.0745 29.6953 35.126 29.5317C35.2721 28.9979 35.6245 28.8636 36.1264 29.0151L36.1367 29.022ZM36.4702 28.1369C36.8139 27.7581 37.29 27.672 37.7662 27.6117C37.9896 27.5824 38.2474 27.6358 38.2612 27.2932C38.531 27.6238 38.5448 27.8442 38.0274 27.8373C37.5633 27.8373 37.168 28.0439 36.7624 28.2437C36.6592 28.2265 36.4736 28.4383 36.4702 28.1404V28.1369ZM31.0507 33.9451L31.6402 33.6386C31.7949 33.921 31.3996 34.2017 31.6402 34.4858C31.7021 34.6356 31.623 34.658 31.5027 34.6339C31.5234 34.3997 31.379 34.3015 31.1847 34.2671C30.9544 34.2258 31.0129 34.0846 31.0558 33.9451H31.0507ZM13.3501 33.6524C13.6114 33.5973 13.7025 33.8762 13.9053 33.9348C13.9259 34.2396 13.5908 34.3962 13.4997 34.3308C13.3972 34.2525 13.3259 34.1401 13.2985 34.014C13.2711 33.8878 13.2894 33.7559 13.3501 33.642V33.6524ZM12.9943 35.6051C13.1026 35.2435 13.3897 35.0885 13.2006 34.8164C13.137 34.7217 13.2006 34.5495 13.2693 34.5409C13.4097 34.5321 13.5486 34.5736 13.6612 34.658C13.7816 34.7579 13.5719 34.8078 13.5684 34.8818C13.5547 35.2176 13.2762 35.3054 12.9943 35.6051ZM31.4976 34.6339L31.6351 34.4858C31.9995 34.6408 31.5543 34.9456 31.7554 35.1315L31.9617 35.4759C31.5388 35.3967 31.4288 35.023 31.2655 34.7527C31.159 34.5805 31.403 34.6563 31.4976 34.6408V34.6339ZM13.1868 23.3568C12.764 23.7494 12.2329 23.9216 11.7 24.0886C11.829 23.1553 12.1985 22.9745 13.1868 23.355V23.3568ZM11.7121 24.0765C11.5264 24.5587 11.15 24.8514 10.7186 25.0925C10.5467 24.7998 10.4058 24.588 10.8509 24.3124C11.1099 24.1551 11.4075 24.0734 11.7104 24.0765H11.7121ZM34.4798 25.8639L34.0225 25.1063C34.4179 25.1063 34.7857 25.1063 34.753 25.6969C34.7359 25.9965 34.9249 26.2135 35.2962 25.907L35.004 26.3891L34.478 25.8622L34.4798 25.8639ZM27.4875 37.0222C27.4511 37.0275 27.4139 37.0215 27.381 37.005C27.3294 36.6227 27.3363 36.1991 27.0131 35.9374C26.8413 35.7962 26.8928 35.6567 26.8791 35.5104C26.8791 35.4759 26.9513 35.3898 26.9856 35.3933C27.1988 35.4105 27.1919 35.6102 27.2607 35.748C27.2913 35.7988 27.3257 35.8472 27.3638 35.8926L27.5958 37.0257H27.5443L27.4893 37.0154L27.4875 37.0222ZM33.9985 25.0822C33.696 24.9823 33.5653 24.7119 33.4003 24.4743C33.8885 24.3882 34.105 24.5776 33.9985 25.0822ZM10.4676 25.1975C10.7289 25.4472 10.6945 25.5419 10.2236 25.8347C10.4126 25.6625 9.99668 25.2612 10.4642 25.1975H10.4676ZM14.9624 42.3018C15.2116 42.5119 15.3612 42.9389 15.8218 42.6754C15.9198 42.6203 16.0401 42.6444 16.0624 42.8339C16.1044 43.0301 16.166 43.2217 16.2464 43.4056L16.0521 43.4348C15.4557 43.2867 14.7716 43.3005 14.5052 42.5738C13.9311 42.734 13.8176 42.0349 13.3639 41.9367C13.2715 41.8566 13.2021 41.7533 13.1628 41.6373C13.1235 41.5214 13.1158 41.3971 13.1404 41.2772C13.1828 41.1255 13.1928 40.9666 13.1697 40.8109C13.1466 40.6551 13.0909 40.5059 13.0064 40.3732C12.8889 40.1696 12.8165 39.943 12.7939 39.7089C12.7714 39.4748 12.7993 39.2386 12.8757 39.0163C13.2539 39.9702 13.094 41.2307 14.3024 41.8162C14.4089 42.1261 14.7424 42.1382 14.9555 42.3104L14.9624 42.3018ZM12.7193 32.8775C13.1267 32.7053 13.4464 33.1289 13.84 33.0497C13.95 33.1702 14.3556 33.122 14.0841 33.4664C13.5684 33.4251 13.1456 33.1392 12.7193 32.8809" fill="#000105"/>
<path d="M28.8249 27.0865C28.8472 26.1945 29.7754 25.8226 31.6025 25.9569C30.6572 26.5183 29.4196 25.9913 28.8266 27.0882L28.8249 27.0865ZM30.6125 27.8648C30.2034 28.2902 29.3818 28.3711 28.9916 27.9923C28.9351 28.0048 28.8776 28.0117 28.8197 28.0129C28.6822 28.0009 28.5207 27.9991 28.5138 27.8028C28.5165 27.7743 28.5257 27.7468 28.5406 27.7224C28.5555 27.6979 28.5757 27.6771 28.5997 27.6616C28.7372 27.5876 28.8197 27.7185 28.9091 27.7787C28.9641 27.8132 28.9744 27.9131 29.0054 27.9854L28.9968 27.9923L29.0071 27.9836C29.2993 27.9836 29.5915 28.0078 29.8768 27.9836C30.3925 27.932 30.7586 27.6393 30.7981 27.1227C30.8325 26.7094 31.0267 26.6698 31.3602 26.6577C31.1109 27.0882 30.9391 27.5187 30.6108 27.8631L30.6125 27.8648ZM34.76 27.5893C34.76 27.3827 34.4369 27.3569 34.5022 27.1158C34.4856 27.0341 34.4506 26.9572 34.4 26.891C34.3494 26.8248 34.2844 26.7709 34.21 26.7335C34.0381 26.613 34.3303 26.6646 34.2616 26.5785C34.2547 26.4666 34.2444 26.3547 34.2358 26.2341C33.6136 24.643 32.4087 23.7683 30.7758 23.4239C30.6212 23.4371 30.4684 23.4671 30.3203 23.5134C29.9679 23.2431 29.6087 23.3757 29.2495 23.4618C28.8472 23.5651 28.5825 23.8682 28.2869 24.1247C28.0853 24.2888 27.9296 24.5024 27.8349 24.7446C27.663 24.6999 27.7077 24.2556 27.3828 24.5001L27.3656 24.7205C27.2708 25.3472 27.2363 25.9815 27.2625 26.6147C27.2625 26.8144 27.4344 27.0107 27.3312 27.2518C27.1215 27.7064 27.2522 28.1128 27.5891 28.44C27.7542 28.5985 27.8588 28.8099 27.8847 29.0375C27.951 29.6334 28.1753 30.2006 28.5344 30.6802C28.8935 31.1599 29.3742 31.5345 29.9267 31.7651C30.4526 32.001 30.9717 32.0681 31.0491 32.7604C31.0611 32.8637 31.221 32.9326 31.3241 33.0014C31.7813 33.1082 32.1319 32.8051 32.5273 32.6829C33.201 31.9476 34.1086 31.4 34.3922 30.3531C34.3843 30.072 34.4558 29.7945 34.5985 29.5524C34.7085 28.991 34.485 28.3986 34.736 27.8476H34.7566C34.7896 27.8117 34.8079 27.7647 34.8079 27.7159C34.8079 27.6671 34.7896 27.6201 34.7566 27.5842L34.76 27.5893ZM16.4579 27.8614C16.3444 28.0646 16.1657 28.0336 15.9852 27.9819V27.9888H15.9629C15.5968 28.3676 14.8061 28.2867 14.3729 27.8562C14.0292 27.5118 13.8676 27.0882 13.6132 26.6302C13.8264 26.7335 14.055 26.613 14.1547 26.8936C14.5328 27.9699 14.6583 28.0474 15.7996 27.9819C15.854 27.9786 15.9085 27.9786 15.9629 27.9819L15.9749 27.9699H15.9852C15.999 27.7167 16.1571 27.6255 16.3805 27.6496C16.4579 27.6668 16.5009 27.7822 16.4579 27.8614ZM13.5152 25.95C13.9793 26.0309 14.4331 25.9328 14.8903 25.95C15.5778 25.9741 16.1915 26.5303 16.1588 27.2122C15.5572 25.9793 14.3317 26.5062 13.517 25.9483L13.5152 25.95ZM17.0732 28.5726C17.3218 28.4159 17.5601 28.2433 17.7865 28.056C18.1939 27.6823 18.1303 27.5394 17.6147 27.3069C17.5631 27.2845 17.2142 27.0624 17.3104 26.9625C17.6129 26.6491 17.6886 26.3684 17.2726 25.9466L17.704 26.1739C17.044 25.7055 17.833 25.0167 17.4634 24.4915C17.3001 24.7378 17.5029 25.0598 17.1196 25.2199C17.0096 24.4106 16.3977 24.0145 15.8065 23.5978C15.8003 23.6014 15.7935 23.6036 15.7864 23.6044C15.7794 23.6052 15.7723 23.6045 15.7655 23.6024C15.7587 23.6003 15.7524 23.5968 15.7471 23.5922C15.7417 23.5875 15.7373 23.5818 15.7343 23.5754C15.528 23.5754 15.3166 23.5754 15.1086 23.5754C14.4456 23.5876 13.7918 23.7329 13.1859 24.0027C12.5799 24.2725 12.0342 24.6614 11.581 25.1463C11.1277 25.6312 10.7762 26.2022 10.5472 26.8256C10.3182 27.4491 10.2164 28.1122 10.2477 28.7758C10.2911 29.2327 10.36 29.6869 10.454 30.1361L10.4884 30.3393C11.0831 31.3208 11.5919 32.3764 12.7229 32.8844C12.9687 33.0273 13.2815 32.9756 13.517 33.1771C13.5432 33.2028 13.5762 33.2204 13.6122 33.228C13.6481 33.2355 13.6854 33.2325 13.7198 33.2195C13.7541 33.2065 13.784 33.1839 13.8059 33.1544C13.8278 33.1249 13.8409 33.0898 13.8435 33.0531C13.7645 32.9773 13.462 32.9791 13.706 32.7896C13.8487 32.6812 14.0154 32.6174 13.9209 32.4211C13.6803 31.9046 14.2647 31.8081 14.3919 31.8012C15.4403 31.7392 16.0368 31.0177 16.4837 30.2515C16.6177 30.0276 17.1368 29.8554 16.9013 29.418C17.5201 29.3578 17.6301 28.7861 17.955 28.3849C17.6353 28.3849 17.3964 28.6862 17.0784 28.5743L17.0732 28.5726Z" fill="#000105"/>
<path d="M35.0127 30.031C34.9566 29.9768 34.9236 29.9031 34.9204 29.8252C34.9172 29.7473 34.9441 29.6711 34.9955 29.6125C35.0986 29.0271 35.8429 28.2453 36.4084 28.1316C35.9495 28.2642 35.2997 29.5953 35.0127 30.0258V30.031ZM21.4855 28.0937C21.3531 27.7872 21.0661 27.4256 21.635 27.4394C22.1043 27.4497 22.5976 27.1295 23.0101 27.6116C22.742 27.499 22.4429 27.4849 22.1654 27.5719C21.888 27.6589 21.6502 27.8413 21.4941 28.0869L21.4855 28.0937ZM34.9749 26.389C35.1296 26.7851 35.5937 26.8832 35.7862 27.2672C35.8773 27.4497 36.0784 27.2552 36.2228 27.1932C36.5385 27.0385 36.8881 26.9665 37.2391 26.9836C37.5902 27.0008 37.9311 27.1066 38.2304 27.2913C38.3386 27.5444 38.251 27.7184 37.9811 27.7166C37.4272 27.7188 36.8858 27.8815 36.4221 28.185C36.4221 28.185 35.4699 29.1218 35.0093 29.6711C34.8847 29.6543 34.7706 29.5925 34.6883 29.4974C34.606 29.4023 34.5612 29.2803 34.5624 29.1545C34.5452 28.8015 34.4592 28.4433 34.497 28.0903C34.5037 28.022 34.5211 27.9552 34.5486 27.8923C34.4833 27.1863 34.681 27.8372 34.54 27.5823C34.4833 27.3636 34.1962 26.7799 34.1395 26.5664C34.0961 26.4408 34.0769 26.3082 34.0828 26.1755C34.1052 25.9654 34.1636 25.7829 34.4266 25.757C34.7703 25.8208 34.815 26.1583 34.9869 26.377L34.9749 26.389ZM19.7529 31.6462C19.1772 32.4529 18.4001 33.0942 17.4994 33.5057C16.5987 33.9173 15.606 34.0848 14.6204 33.9915C14.6044 33.957 14.5872 33.9249 14.5689 33.895C14.868 33.5644 15.3424 33.8434 15.6603 33.5799C15.8363 33.509 16.0173 33.4515 16.2018 33.4077C18.0237 32.9669 19.2269 31.8459 19.8629 30.0912C19.9569 29.6956 20.0145 29.2921 20.0348 28.8859C20.4009 28.3951 20.7808 28.2212 21.3806 27.9043C21.6763 27.9422 21.3686 28.3469 21.2981 28.4984C20.8461 29.4593 19.8646 31.5807 19.7512 31.6599L19.7529 31.6462ZM32.474 33.1391C32.474 33.1735 31.4135 33.759 31.013 33.8055C29.9524 33.883 28.9504 34.0431 27.9191 33.6471C27.4792 33.4483 27.0541 33.2181 26.6471 32.9583C26.4237 32.8326 26.0387 32.3315 26.1418 32.1094C26.6231 32.4796 27.5375 33.0668 28.1064 33.2631C28.9666 33.52 29.8829 33.52 30.7431 33.2631C31.1505 33.1425 31.5682 32.9307 32.0288 32.9652C32.2007 32.9755 32.4705 32.9101 32.4705 33.1374L32.474 33.1391ZM16.0402 33.4508C15.7308 33.9226 14.9986 33.8468 14.6204 33.9915C14.397 33.9777 13.5204 33.7728 13.3485 33.6471L12.4599 33.2131C11.4698 32.5588 10.6207 31.7839 10.2254 30.6199C10.3113 30.5114 10.4488 29.5626 10.6138 29.6969C10.7148 30.1852 10.8886 30.6554 11.1295 31.0917C11.5117 31.8079 12.0949 32.3964 12.8071 32.7844C13.2408 33.049 13.7063 33.2573 14.1925 33.4043C14.7511 33.6161 15.6397 33.4904 16.0385 33.4456L16.0402 33.4508ZM21.2534 28.0679C20.8443 28.5501 20.6862 29.1906 20.2479 29.6521C19.887 29.1924 20.0932 28.6499 20.0417 28.1454C20.0224 27.9157 20.0299 27.6846 20.064 27.4566C20.2874 26.9504 20.2874 26.9504 20.7343 27.3671C20.975 27.5272 21.0214 27.3085 21.152 27.1828C21.4528 26.897 21.7192 26.8247 22.2521 26.7592C22.2761 26.7764 23.1871 26.6094 23.799 27.1174C24.172 27.4222 24.215 27.4153 24.4144 27.1053C24.6327 27.2001 24.6137 27.3877 24.6103 27.5754C24.5931 28.4123 24.5536 29.2526 24.8269 30.0637C24.8269 30.2186 24.8269 30.3736 24.6137 30.3736C24.4126 29.8811 24.2047 29.3921 24.0122 28.8962C23.8222 28.3718 23.466 27.9242 22.998 27.6219C22.2074 27.2948 21.7158 27.4497 21.3308 27.9835C21.3049 28.0134 21.2761 28.0405 21.2448 28.0645L21.2534 28.0679ZM10.4849 30.3323C10.4592 30.4873 10.4076 30.6216 10.2168 30.625C9.97272 30.1515 9.73552 29.6728 9.48286 29.2027C9.29641 28.826 8.98103 28.529 8.59422 28.3658C8.22983 27.9749 7.57151 28.1368 7.25353 27.6529C7.23819 27.6436 7.22097 27.6379 7.20313 27.6361C7.18529 27.6343 7.16727 27.6365 7.1504 27.6426C6.92179 28.0214 6.7035 27.8148 6.64678 27.5737C6.57803 27.2879 6.84273 27.1312 7.10055 27.0847C7.66778 26.9539 8.26048 26.988 8.80907 27.1828C8.92939 27.231 9.05487 27.4239 9.19065 27.2689C9.32644 27.114 9.64786 26.5526 9.89881 26.3528C10.1309 26.1944 10.2426 26.3287 10.3062 26.525C10.3876 26.7423 10.3937 26.9807 10.3234 27.2018C9.93319 28.1764 10.1309 29.1063 10.4952 30.031C10.5173 30.0778 10.5273 30.1295 10.5243 30.1812C10.5213 30.233 10.5054 30.2831 10.4781 30.3271L10.4849 30.3323ZM10.4557 30.1343C10.0655 29.8639 10.0363 29.3835 10.0054 29.0202C9.95382 28.4295 9.46051 27.0916 9.79396 26.4889C9.89709 26.2995 10.0896 26.253 10.2271 25.8397C10.4162 25.6675 10.6328 25.1268 10.7187 25.0993C10.9765 24.686 11.3633 24.4105 11.7122 24.0799L11.7002 24.0919C12.1127 23.6855 12.6747 23.5753 13.1869 23.3618C13.6112 23.1864 14.0694 23.1087 14.5276 23.1345C15.0956 23.1315 15.6631 23.1689 16.2258 23.2464C16.1794 23.5702 16.0368 23.5392 15.8718 23.7045C14.8095 23.7561 13.5857 23.9163 12.6369 24.4966C11.1123 25.4264 10.0123 27.8923 10.564 29.5626C10.6396 29.7899 10.6809 29.9242 10.454 30.1343H10.4557ZM15.7274 23.5736L16.2258 23.2464C17.9447 23.5357 19.1736 24.4966 20.0073 25.9912C20.2617 26.4424 20.4885 26.909 20.7257 27.3688C20.5539 27.5117 20.162 27.1966 20.0262 27.7717C20.0131 27.4634 19.9444 27.1601 19.8234 26.8763C19.416 25.8691 18.7036 25.0151 17.7865 24.4346C17.2009 24.0567 16.5418 23.8078 15.8529 23.7045C15.7966 23.6779 15.7498 23.6346 15.7188 23.5805L15.7274 23.5736ZM34.1533 26.5319C34.0553 25.9465 33.5311 25.2026 33.0635 24.7618C32.3983 24.1367 32.101 23.6425 31.0233 23.5392C30.9717 23.4875 30.5076 23.5392 30.2962 23.4978C30.0848 23.4565 30.1243 23.2344 30.1501 23.119C30.5699 23.0713 30.9937 23.0713 31.4135 23.119C31.7459 23.2053 32.0731 23.3111 32.3932 23.4358C32.8122 23.7114 33.2104 24.0176 33.5843 24.3519C33.8262 24.5145 34.017 24.7427 34.1344 25.0097C34.1344 25.0097 34.4094 25.4574 34.65 25.8707C34.3922 25.8828 34.1739 26.3873 34.1344 26.5371L34.1533 26.5319ZM24.7513 30.1171C24.3078 29.1476 24.6103 28.0972 24.4247 27.1036C24.7685 26.3017 25.2259 25.5536 25.7826 24.8823C25.8547 24.7962 26.4598 24.2245 26.6145 24.3485C26.7692 24.4725 26.1573 24.9925 26.0335 25.1234C25.5514 25.6288 25.1865 26.2345 24.9649 26.8973C24.7433 27.5602 24.6703 28.2638 24.7513 28.9582C24.7856 29.3473 24.8922 29.7331 24.9661 30.1171C24.9544 30.1348 24.9384 30.1494 24.9196 30.1595C24.9009 30.1695 24.88 30.1748 24.8587 30.1748C24.8374 30.1748 24.8165 30.1695 24.7977 30.1595C24.779 30.1494 24.763 30.1348 24.7513 30.1171ZM30.8909 23.212C30.6898 23.2499 31.0731 23.5047 30.7826 23.5168C30.4389 23.534 29.5967 23.5512 29.3044 23.6545C28.9607 23.6718 28.5516 23.8026 28.182 23.8439C27.9162 23.9509 27.6412 24.0333 27.3604 24.0902C27.0803 24.2624 26.7417 24.5413 26.4615 24.7049C26.3343 24.4983 26.1177 24.5672 26.2896 24.4552C27.1954 23.8095 28.5671 23.1982 29.6688 23.1293C29.9524 23.1121 30.9012 23.0329 30.8961 23.2154L30.8909 23.212ZM24.7513 30.1171H24.9661C25.181 31.0538 26.312 32.0973 26.5938 32.9238C25.7946 32.3556 24.9438 31.2742 24.6258 30.3667L24.7513 30.1153V30.1171ZM34.497 29.6056C34.5091 29.1924 34.5142 28.7791 34.5349 28.3658C34.5435 28.173 34.4489 27.9302 34.7411 27.8492C34.7411 28.2797 34.7411 28.7102 34.7583 29.1407C34.7583 29.3301 34.6724 29.5815 34.9955 29.6142C35.0012 29.752 35.007 29.8909 35.0127 30.031C34.8443 30.699 34.534 31.3229 34.103 31.8598C33.672 32.3968 33.1304 32.8343 32.5152 33.1425L31.9996 33.1253C31.9308 32.7327 32.3846 32.8223 32.4929 32.5915C32.6476 32.2678 32.957 32.087 33.1976 31.8476C33.6506 31.4371 34.012 30.9354 34.2581 30.3753C34.3598 30.1254 34.4442 29.8688 34.5108 29.6074L34.497 29.6056ZM34.7635 27.8544C34.7635 27.7683 34.7635 27.6822 34.7635 27.5892C34.956 27.6168 35.1313 27.7339 35.3479 27.6753C35.2934 27.7751 35.2017 27.8492 35.0928 27.8814C34.984 27.9137 34.8668 27.9015 34.7669 27.8475L34.7635 27.8544ZM32.5891 32.4176C32.5599 32.7207 32.0735 32.8653 31.9927 33.1236C31.5527 33.0478 31.2261 33.5248 30.7723 33.3733C30.8101 33.2941 30.8841 33.2769 30.9219 33.2011C31.0766 33.115 31.2656 33.0857 31.4203 32.9996C31.8191 32.9996 32.223 32.6845 32.5891 32.4262V32.4176ZM34.497 29.6056C34.5211 29.8984 34.5091 30.1739 34.2478 30.3736C34.3252 30.1153 34.4919 29.9604 34.4988 29.6039L34.497 29.6056ZM26.9221 59.4799C27.3381 59.4972 27.7472 59.4007 28.1528 59.6866C28.5138 59.9414 29.6259 59.5144 29.992 58.7343C29.9521 58.6496 29.9441 58.5534 29.9694 58.4633C29.9946 58.3731 30.0515 58.2951 30.1295 58.2436C30.7105 57.6374 30.8858 56.866 30.9889 56.0739C31.1161 55.0407 30.903 54.0299 30.7534 53.0157C31.4117 54.3192 31.3842 55.6933 31.0972 57.0675C30.9298 57.7823 30.6276 58.4585 30.2068 59.0598C29.5193 60.093 29.0449 60.2032 27.8606 59.7486C27.5684 59.6384 27.1851 59.7486 26.9204 59.473L26.9221 59.4799ZM22.7368 57.2207C23.0341 57.2087 22.931 56.8832 23.0805 56.7799C23.1923 56.7007 23.2352 56.4235 23.4467 56.5733C23.6082 56.6869 23.481 56.8075 23.4054 56.9349C23.3534 57.059 23.3198 57.1901 23.3057 57.324C23.1631 57.3585 22.9791 57.3826 22.9362 57.5238C22.7041 58.2539 22.2074 58.0232 21.8086 57.789C21.4098 57.5548 21.1606 57.6581 20.8461 57.9388C20.1885 58.5442 19.4021 58.9918 18.5463 59.2475C18.4259 59.2819 18.3056 59.3129 18.2025 59.2079C18.6391 58.7602 19.2544 58.619 19.7752 58.3124C20.064 58.1403 20.3682 58.0025 20.5659 57.7408C20.9406 57.2414 21.3772 57.1381 21.8602 57.5169C22.3432 57.8957 22.5477 57.603 22.7368 57.219V57.2207ZM18.2025 59.2079L18.5463 59.2457C17.8711 59.6657 17.0668 59.826 16.2826 59.6969C15.9629 59.6556 15.6088 59.616 15.4747 59.2268C15.5366 59.2268 15.6122 59.213 15.6552 59.2406C16.0986 59.5109 16.0815 58.9961 16.6865 59.0598C16.8811 59.0665 17.0741 59.0984 17.2606 59.1545C17.3578 59.1733 17.4529 59.2022 17.5442 59.2406L18.2025 59.2061" fill="#249B46"/>
<path d="M29.6362 55.7434C29.5586 55.7434 29.4829 55.7203 29.4184 55.6772C29.354 55.6341 29.3038 55.5728 29.2741 55.501C29.2444 55.4293 29.2367 55.3503 29.2518 55.2742C29.2669 55.198 29.3042 55.1281 29.359 55.0731C29.4139 55.0182 29.4837 54.9808 29.5597 54.9657C29.6357 54.9505 29.7145 54.9583 29.7861 54.988C29.8577 55.0178 29.9189 55.0681 29.962 55.1326C30.0051 55.1972 30.0281 55.2731 30.0281 55.3508C30.0281 55.4549 29.9868 55.5548 29.9133 55.6284C29.8398 55.702 29.7401 55.7434 29.6362 55.7434ZM28.7131 52.5199C28.7131 52.4422 28.7361 52.3663 28.7792 52.3017C28.8223 52.2372 28.8835 52.1869 28.9551 52.1571C29.0267 52.1274 29.1055 52.1197 29.1815 52.1348C29.2575 52.1499 29.3273 52.1873 29.3821 52.2422C29.437 52.2972 29.4743 52.3671 29.4894 52.4433C29.5045 52.5194 29.4968 52.5984 29.4671 52.6701C29.4374 52.7418 29.3872 52.8032 29.3228 52.8463C29.2583 52.8894 29.1825 52.9125 29.105 52.9125C29.0011 52.9125 28.9014 52.8711 28.8279 52.7975C28.7544 52.7238 28.7131 52.624 28.7131 52.5199ZM28.4158 59.1839C28.3384 59.1838 28.2628 59.1609 28.1984 59.1179C28.1341 59.0749 28.0838 59.0138 28.0541 58.9423C28.0243 58.8707 28.0163 58.792 28.0312 58.7159C28.046 58.6398 28.083 58.5699 28.1375 58.5148C28.1919 58.4598 28.2615 58.4221 28.3372 58.4066C28.413 58.3911 28.4917 58.3984 28.5634 58.4275C28.6351 58.4567 28.6965 58.5065 28.74 58.5706C28.7834 58.6347 28.807 58.7103 28.8077 58.7878C28.8081 58.8396 28.7983 58.8911 28.7788 58.9391C28.7593 58.9871 28.7306 59.0308 28.6941 59.0676C28.6577 59.1045 28.6143 59.1337 28.5666 59.1536C28.5188 59.1736 28.4675 59.1839 28.4158 59.1839ZM27.6337 56.4459C27.5561 56.4459 27.4803 56.4229 27.4158 56.3796C27.3513 56.3364 27.3011 56.275 27.2715 56.2032C27.2419 56.1313 27.2342 56.0523 27.2495 55.9761C27.2647 55.8999 27.3022 55.8299 27.3572 55.7751C27.4122 55.7203 27.4822 55.683 27.5583 55.6681C27.6345 55.6531 27.7133 55.6611 27.7849 55.6911C27.8565 55.7211 27.9175 55.7717 27.9604 55.8365C28.0033 55.9012 28.026 55.9773 28.0256 56.055C28.0261 56.1069 28.0163 56.1583 27.9968 56.2063C27.9773 56.2544 27.9485 56.2981 27.912 56.3349C27.8756 56.3717 27.8323 56.4009 27.7845 56.4209C27.7367 56.4408 27.6855 56.4511 27.6337 56.4511V56.4459ZM27.0356 58.2936C26.958 58.2939 26.882 58.2712 26.8174 58.2283C26.7527 58.1853 26.7022 58.1241 26.6723 58.0524C26.6423 57.9807 26.6343 57.9017 26.6493 57.8255C26.6642 57.7492 26.7014 57.6791 26.7561 57.624C26.8109 57.5689 26.8807 57.5313 26.9568 57.5161C27.0328 57.5008 27.1117 57.5084 27.1834 57.5381C27.2551 57.5678 27.3164 57.6181 27.3596 57.6827C27.4027 57.7473 27.4257 57.8233 27.4257 57.901C27.4262 57.9528 27.4164 58.0043 27.3969 58.0523C27.3774 58.1003 27.3486 58.144 27.3122 58.1808C27.2757 58.2177 27.2324 58.2469 27.1846 58.2668C27.1368 58.2868 27.0856 58.297 27.0338 58.297L27.0356 58.2936ZM25.4714 54.7687C25.3941 54.7681 25.3186 54.7445 25.2546 54.7009C25.1907 54.6574 25.141 54.5958 25.1118 54.524C25.0827 54.4522 25.0754 54.3734 25.0909 54.2975C25.1064 54.2215 25.144 54.1519 25.199 54.0973C25.2539 54.0428 25.3237 54.0057 25.3997 53.9908C25.4756 53.976 25.5542 53.9839 25.6256 54.0138C25.697 54.0436 25.758 54.0939 25.8009 54.1584C25.8439 54.2229 25.8668 54.2986 25.8668 54.3761C25.8672 54.4283 25.8573 54.48 25.8376 54.5282C25.8179 54.5765 25.7888 54.6203 25.752 54.6572C25.7152 54.6941 25.6714 54.7232 25.6233 54.743C25.5751 54.7627 25.5235 54.7726 25.4714 54.7722V54.7687ZM25.4714 57.1795C25.3941 57.1788 25.3186 57.1552 25.2546 57.1117C25.1907 57.0681 25.141 57.0066 25.1118 56.9348C25.0827 56.863 25.0754 56.7841 25.0909 56.7082C25.1064 56.6323 25.144 56.5626 25.199 56.5081C25.2539 56.4535 25.3237 56.4165 25.3997 56.4016C25.4756 56.3867 25.5542 56.3947 25.6256 56.4245C25.697 56.4543 25.758 56.5046 25.8009 56.5691C25.8439 56.6336 25.8668 56.7094 25.8668 56.7869C25.8641 56.8898 25.8211 56.9875 25.7472 57.059C25.6732 57.1305 25.5742 57.1701 25.4714 57.1692V57.1795ZM23.7973 54.965C23.7198 54.965 23.644 54.942 23.5796 54.8989C23.5151 54.8557 23.4649 54.7944 23.4352 54.7227C23.4056 54.6509 23.3978 54.572 23.4129 54.4958C23.428 54.4197 23.4654 54.3497 23.5202 54.2948C23.575 54.2399 23.6448 54.2025 23.7208 54.1874C23.7968 54.1722 23.8756 54.18 23.9473 54.2097C24.0189 54.2394 24.0801 54.2898 24.1231 54.3543C24.1662 54.4189 24.1892 54.4948 24.1892 54.5724C24.1878 54.6757 24.1459 54.7742 24.0726 54.8467C23.9992 54.9192 23.9003 54.9599 23.7973 54.9599V54.965ZM23.7973 57.0607C23.7198 57.0607 23.644 57.0376 23.5796 56.9945C23.5151 56.9514 23.4649 56.89 23.4352 56.8183C23.4056 56.7466 23.3978 56.6676 23.4129 56.5915C23.428 56.5153 23.4654 56.4454 23.5202 56.3904C23.575 56.3355 23.6448 56.2982 23.7208 56.283C23.7968 56.2679 23.8756 56.2756 23.9473 56.3053C24.0189 56.3351 24.0801 56.3854 24.1231 56.4499C24.1662 56.5145 24.1892 56.5904 24.1892 56.6681C24.1878 56.7713 24.1459 56.8698 24.0726 56.9423C23.9992 57.0149 23.9003 57.0555 23.7973 57.0555V57.0607ZM27.2349 53.5926C27.3125 53.5926 27.3882 53.6157 27.4527 53.6588C27.5171 53.702 27.5673 53.7633 27.597 53.835C27.6267 53.9067 27.6344 53.9857 27.6193 54.0618C27.6042 54.138 27.5669 54.208 27.5121 54.2629C27.4573 54.3178 27.3874 54.3552 27.3114 54.3703C27.2354 54.3855 27.1566 54.3777 27.085 54.348C27.0134 54.3183 26.9522 54.2679 26.9091 54.2034C26.866 54.1388 26.8431 54.0629 26.8431 53.9853C26.8426 53.9331 26.8525 53.8814 26.8722 53.8331C26.8919 53.7849 26.921 53.741 26.9578 53.7042C26.9946 53.6673 27.0384 53.6381 27.0866 53.6184C27.1347 53.5987 27.1863 53.5887 27.2384 53.5892L27.2349 53.5926ZM21.7347 54.9702C21.6572 54.9702 21.5814 54.9472 21.517 54.904C21.4525 54.8609 21.4023 54.7996 21.3726 54.7278C21.343 54.6561 21.3352 54.5772 21.3503 54.501C21.3654 54.4249 21.4028 54.3549 21.4576 54.3C21.5124 54.2451 21.5822 54.2077 21.6582 54.1925C21.7342 54.1774 21.813 54.1852 21.8846 54.2149C21.9563 54.2446 22.0175 54.2949 22.0605 54.3595C22.1036 54.424 22.1266 54.5 22.1266 54.5776C22.1239 54.6805 22.0809 54.7783 22.007 54.8498C21.933 54.9213 21.834 54.9608 21.7312 54.9599L21.7347 54.9702ZM21.7347 57.0658C21.6572 57.0658 21.5814 57.0428 21.517 56.9997C21.4525 56.9565 21.4023 56.8952 21.3726 56.8235C21.343 56.7517 21.3352 56.6728 21.3503 56.5966C21.3654 56.5205 21.4028 56.4505 21.4576 56.3956C21.5124 56.3407 21.5822 56.3033 21.6582 56.2882C21.7342 56.273 21.813 56.2808 21.8846 56.3105C21.9563 56.3402 22.0175 56.3905 22.0605 56.4551C22.1036 56.5197 22.1266 56.5956 22.1266 56.6732C22.1243 56.7765 22.0816 56.8746 22.0076 56.9465C21.9336 57.0184 21.8343 57.0582 21.7312 57.0572L21.7347 57.0658ZM19.8577 57.1864C19.7803 57.1864 19.7047 57.1634 19.6403 57.1204C19.576 57.0775 19.5257 57.0163 19.496 56.9448C19.4662 56.8733 19.4583 56.7945 19.4731 56.7184C19.488 56.6424 19.5249 56.5724 19.5794 56.5174C19.6339 56.4623 19.7034 56.4247 19.7792 56.4091C19.855 56.3936 19.9336 56.4009 20.0053 56.4301C20.077 56.4593 20.1384 56.509 20.1819 56.5731C20.2254 56.6373 20.2489 56.7128 20.2496 56.7903C20.246 56.8926 20.2027 56.9895 20.1288 57.0603C20.055 57.131 19.9565 57.1701 19.8543 57.1692L19.8577 57.1864ZM19.2321 54.3899C19.2321 54.3123 19.255 54.2364 19.2981 54.1718C19.3412 54.1072 19.4024 54.0569 19.474 54.0272C19.5456 53.9975 19.6244 53.9897 19.7004 54.0048C19.7764 54.02 19.8463 54.0574 19.9011 54.1123C19.9559 54.1672 19.9932 54.2372 20.0083 54.3133C20.0234 54.3895 20.0157 54.4684 19.986 54.5402C19.9563 54.6119 19.9061 54.6732 19.8417 54.7163C19.7772 54.7595 19.7015 54.7825 19.6239 54.7825C19.5713 54.783 19.5191 54.7729 19.4705 54.7527C19.4219 54.7325 19.3778 54.7027 19.3409 54.6651C19.304 54.6275 19.275 54.5829 19.2557 54.5338C19.2365 54.4847 19.2272 54.4323 19.2286 54.3796L19.2321 54.3899ZM18.0289 58.3056C17.9514 58.3056 17.8756 58.2826 17.8111 58.2395C17.7467 58.1963 17.6965 58.135 17.6668 58.0633C17.6371 57.9915 17.6294 57.9126 17.6445 57.8364C17.6596 57.7603 17.697 57.6903 17.7518 57.6354C17.8066 57.5805 17.8764 57.5431 17.9524 57.528C18.0284 57.5128 18.1072 57.5206 18.1788 57.5503C18.2505 57.58 18.3117 57.6304 18.3547 57.6949C18.3978 57.7595 18.4208 57.8354 18.4208 57.913C18.4181 58.016 18.3751 58.1137 18.3012 58.1852C18.2272 58.2567 18.1282 58.2963 18.0254 58.2953L18.0289 58.3056ZM17.2468 56.0671C17.2468 55.9895 17.2698 55.9135 17.3128 55.849C17.3559 55.7844 17.4171 55.7341 17.4887 55.7044C17.5603 55.6747 17.6391 55.6669 17.7151 55.682C17.7912 55.6972 17.861 55.7346 17.9158 55.7895C17.9706 55.8444 18.0079 55.9143 18.0231 55.9905C18.0382 56.0667 18.0304 56.1456 18.0008 56.2173C17.9711 56.2891 17.9209 56.3504 17.8564 56.3935C17.792 56.4367 17.7162 56.4597 17.6387 56.4597C17.5862 56.4602 17.5342 56.4501 17.4856 56.43C17.4371 56.41 17.3931 56.3803 17.3563 56.3429C17.3194 56.3055 17.2904 56.261 17.271 56.2122C17.2516 56.1633 17.2422 56.1111 17.2434 56.0585L17.2468 56.0671ZM16.4647 52.9228C16.3872 52.9252 16.3107 52.9044 16.245 52.8632C16.1792 52.822 16.1271 52.7621 16.0954 52.6912C16.0636 52.6203 16.0535 52.5416 16.0664 52.465C16.0793 52.3884 16.1147 52.3173 16.1679 52.2608C16.2212 52.2043 16.29 52.1649 16.3656 52.1476C16.4412 52.1303 16.5203 52.1359 16.5927 52.1636C16.6652 52.1914 16.7278 52.24 16.7726 52.3034C16.8175 52.3669 16.8425 52.4422 16.8446 52.5199C16.8446 52.6225 16.8045 52.7211 16.7329 52.7945C16.6612 52.8679 16.5637 52.9102 16.4613 52.9125L16.4647 52.9228ZM16.2292 58.6983C16.1517 58.6983 16.076 58.6752 16.0115 58.6321C15.9471 58.589 15.8968 58.5276 15.8672 58.4559C15.8375 58.3842 15.8298 58.3052 15.8449 58.2291C15.86 58.1529 15.8973 58.0829 15.9521 58.028C16.0069 57.9731 16.0768 57.9357 16.1528 57.9206C16.2288 57.9054 16.3076 57.9132 16.3792 57.9429C16.4508 57.9726 16.512 58.023 16.5551 58.0875C16.5982 58.1521 16.6211 58.228 16.6211 58.3056C16.6184 58.4086 16.5755 58.5063 16.5015 58.5778C16.4276 58.6493 16.3286 58.6889 16.2258 58.6879L16.2292 58.6983ZM15.5675 55.7537C15.49 55.7537 15.4142 55.7307 15.3498 55.6875C15.2853 55.6444 15.2351 55.5831 15.2054 55.5113C15.1758 55.4396 15.168 55.3607 15.1831 55.2845C15.1983 55.2083 15.2356 55.1384 15.2904 55.0835C15.3452 55.0286 15.415 54.9912 15.491 54.976C15.5671 54.9609 15.6459 54.9687 15.7175 54.9984C15.7891 55.0281 15.8503 55.0784 15.8933 55.143C15.9364 55.2075 15.9594 55.2834 15.9594 55.3611C15.9567 55.464 15.9137 55.5618 15.8398 55.6333C15.7659 55.7048 15.6668 55.7443 15.5641 55.7434L15.5675 55.7537ZM17.8123 53.5978C17.8898 53.5978 17.9656 53.6208 18.03 53.664C18.0945 53.7071 18.1447 53.7684 18.1744 53.8402C18.204 53.9119 18.2118 53.9908 18.1967 54.067C18.1815 54.1432 18.1442 54.2131 18.0894 54.268C18.0346 54.3229 17.9648 54.3603 17.8888 54.3755C17.8127 54.3906 17.7339 54.3829 17.6623 54.3531C17.5907 54.3234 17.5295 54.2731 17.4864 54.2085C17.4434 54.144 17.4204 54.0681 17.4204 53.9904C17.419 53.9384 17.428 53.8867 17.4467 53.8382C17.4655 53.7897 17.4937 53.7454 17.5297 53.7079C17.5657 53.6704 17.6087 53.6405 17.6563 53.6198C17.704 53.5991 17.7552 53.5881 17.8071 53.5875L17.8123 53.5978ZM30.7551 53.0261C30.6778 52.6817 30.432 52.4579 30.2223 52.1996C30.0951 52.0412 29.5347 51.5452 29.3732 51.404C29.2777 51.3376 29.1626 51.3054 29.0466 51.3128C28.8387 51.357 28.6359 51.4228 28.4416 51.5091C27.1078 52.0257 25.8203 52.6215 24.7065 53.541C24.7065 53.541 24.7065 53.5582 24.7065 53.5634C24.349 53.7821 24.0534 53.9319 23.7715 53.6787C23.4986 53.5252 23.195 53.4347 22.8827 53.4139C22.5705 53.393 22.2575 53.4423 21.9667 53.5582C21.6109 53.7304 21.0764 53.5289 20.791 53.448C20.602 53.3447 18.4569 52.0945 18.3554 51.9671C18.2462 51.8678 18.1235 51.7843 17.9911 51.7191C17.4995 51.559 17.0079 51.392 16.5129 51.2422C16.341 51.1871 16.1296 51.1165 15.98 51.2697C15.5847 51.6709 15.1515 52.1307 15.1206 52.6714C15.0978 53.0257 14.9519 53.3608 14.7081 53.6185C14.6514 53.9112 14.4056 55.4403 14.3746 55.6728C14.2921 56.2927 14.299 56.9177 14.5895 57.498C14.739 57.8287 15.32 58.9996 15.4867 59.22C15.552 59.2751 15.6363 59.2923 15.7033 59.3405C16.121 59.6247 16.4836 59.7073 16.7346 59.1287C16.7965 58.9875 17.3877 59.2493 17.5596 59.3182C17.775 59.3803 18.0051 59.3682 18.2128 59.2837C18.3338 59.208 18.4589 59.1391 18.5875 59.0771C19.2578 58.762 20.0021 58.5381 20.5212 57.9991C20.9853 57.517 21.3806 57.3276 21.9994 57.7236C22.4067 57.9819 22.2056 57.8614 22.4463 58.0129C22.9327 57.944 23.1338 57.975 23.6701 57.7099C23.8849 57.6031 24.0035 57.7271 24.1685 57.8183C25.1139 58.3349 25.9097 59.0926 26.9307 59.4714C27.2401 59.5954 27.5959 59.5024 27.8812 59.6161C28.8816 60.0121 29.6121 59.771 30.0676 58.824C30.0391 58.7161 30.0435 58.6022 30.0803 58.4969C30.117 58.3917 30.1845 58.2998 30.2738 58.2333C30.9098 57.6995 31.0594 56.9315 31.1126 56.1842C31.2173 55.1149 31.0967 54.0354 30.7586 53.0158L30.7551 53.0261Z" fill="#249B46"/>
<path d="M61.548 28.8979V24.0764C62.6481 24.0764 63.1981 23.6551 63.1981 22.8125C63.1981 22.0411 62.7782 21.6554 61.9382 21.6554C61.0983 21.6554 60.6726 22.1857 60.6611 23.2465V35.2485H55.209V23.8147C55.209 22.63 55.3276 21.6588 55.5648 20.9011C55.817 20.1175 56.231 19.3959 56.78 18.7831C57.4498 18.0386 58.2749 17.4507 59.1967 17.0612C60.1402 16.6447 61.1599 16.4295 62.1909 16.4292C64.053 16.4292 65.6171 17.0577 66.8833 18.3148C68.1495 19.5718 68.7826 21.1273 68.7826 22.9813C68.7826 24.7836 68.2143 26.2461 67.0775 27.3688C66.0394 28.402 64.4729 28.9186 62.3782 28.9186L61.548 28.8979ZM77.6913 26.0326V30.8765H76.1203V35.2502H70.6647V23.5753C70.6647 21.3138 71.2801 19.5574 72.5108 18.3061C73.7415 17.0549 75.4717 16.4292 77.7016 16.4292C79.8502 16.4292 81.439 16.9963 82.468 18.1305C83.497 19.2647 84.0126 21.0154 84.0149 23.3825V35.2502H78.5593V23.7475C78.5593 23.0301 78.4746 22.5324 78.305 22.2546C78.1354 21.9768 77.8317 21.8379 77.394 21.8379C76.5426 21.8379 76.1169 22.475 76.1169 23.7493V26.036L77.6913 26.0326ZM86.9438 35.2485V23.3291C86.9438 21.2398 87.5683 19.5672 88.8173 18.3113C90.0664 17.0554 91.7279 16.4275 93.802 16.4275C95.8646 16.4275 97.447 17.0371 98.5494 18.2562C99.6517 19.4754 100.2 21.2289 100.194 23.5168V35.2485H94.7422V23.5168C94.7422 22.3952 94.3411 21.8344 93.539 21.8344C92.769 21.8344 92.3839 22.3952 92.3839 23.5168V35.2485H86.9438ZM108.967 22.1616V35.2485H103.512V16.8855H110.616C113.732 16.8855 116.172 17.5938 117.934 19.0104C120.029 20.706 121.076 23.0065 121.076 25.912C121.076 28.6924 120.183 30.9614 118.395 32.719C116.607 34.4765 114.302 35.3559 111.478 35.357C111.146 35.357 110.605 35.3398 109.854 35.3053V29.9087H110.731C113.907 29.9087 115.495 28.5771 115.495 25.9138C115.495 23.4112 113.933 22.1599 110.808 22.1599L108.967 22.1616ZM130.288 26.0326V30.8765H128.717V35.2502H123.265V23.5753C123.265 21.3138 123.88 19.5574 125.111 18.3061C126.341 17.0549 128.072 16.4292 130.301 16.4292C132.45 16.4292 134.039 16.9963 135.068 18.1305C136.097 19.2647 136.612 21.0154 136.615 23.3825V35.2502H131.164V23.7475C131.164 23.0301 131.079 22.5324 130.91 22.2546C130.74 21.9768 130.437 21.8379 129.999 21.8379C129.148 21.8379 128.722 22.475 128.722 23.7493V26.036L130.288 26.0326ZM55.7934 39.915V46.7857H60.2967V46.0108H56.6734V43.5759H60.0423V42.8303H56.6734V40.6606H60.2194V39.915H55.7934ZM61.6787 46.7857H62.5793V42.8768C62.5793 42.3086 62.5793 41.7093 62.9025 41.2186C63.0487 41.0035 63.2465 40.8288 63.4778 40.7106C63.7091 40.5923 63.9664 40.5343 64.226 40.5418C64.4871 40.5308 64.7466 40.5873 64.9796 40.7058C65.2126 40.8243 65.4112 41.0009 65.5564 41.2186C65.8898 41.7351 65.8692 42.3671 65.8692 42.8682V46.7943H66.7699V42.9199C66.7699 42.2414 66.7991 41.3357 66.182 40.6124C65.9352 40.3393 65.6322 40.1231 65.2939 39.9786C64.9557 39.8342 64.5901 39.7649 64.2226 39.7756C63.8566 39.7634 63.4925 39.8317 63.1557 39.9757C62.819 40.1197 62.5178 40.3359 62.2734 40.609C61.646 41.3546 61.6752 42.219 61.6752 42.9164L61.6787 46.7857ZM70.7404 43.0146V43.7619H73.2499V43.8704C73.2702 44.403 73.1223 44.9285 72.827 45.3719C72.6401 45.6316 72.3919 45.8408 72.1045 45.9808C71.8172 46.1208 71.4997 46.1873 71.1804 46.1744C70.8539 46.1824 70.531 46.1047 70.2439 45.9488C69.9568 45.7929 69.7155 45.5643 69.5441 45.2858C69.1419 44.6659 69.0731 43.9083 69.0731 43.34C69.0731 42.8234 69.1315 41.9969 69.5441 41.377C69.718 41.1013 69.96 40.8754 70.2467 40.7209C70.5333 40.5664 70.855 40.4888 71.1804 40.4953C71.4554 40.4833 71.7296 40.5336 71.9826 40.6424C72.2355 40.7512 72.4607 40.9158 72.6414 41.1239C72.9184 41.4445 73.08 41.8489 73.1003 42.2724H73.9993C73.9269 41.702 73.6849 41.1667 73.3048 40.7359C72.9247 40.3051 72.424 39.9989 71.8678 39.857C71.3117 39.7151 70.7257 39.7441 70.1863 39.9403C69.6468 40.1364 69.1786 40.4906 68.8428 40.9568C68.3652 41.661 68.1243 42.4995 68.1552 43.3503C68.1552 44.0787 68.2721 44.9621 68.8428 45.7473C69.103 46.129 69.4546 46.4393 69.8653 46.6498C70.2761 46.8604 70.7329 46.9645 71.1941 46.9527C72.4403 46.963 73.1536 46.3534 73.5575 45.7473C74.0474 44.9897 74.1351 44.0891 74.1351 43.3813V43.0283L70.7404 43.0146ZM75.6081 39.915V46.7857H79.5271V46.0211H76.4882V39.915H75.6081ZM80.5635 39.915V46.7857H81.4659V39.915H80.5635ZM83.0421 44.5884C83.0441 44.9355 83.1221 45.2779 83.2706 45.5915C83.4191 45.9051 83.6345 46.1822 83.9015 46.4034C84.4515 46.8339 85.1047 46.9441 85.7131 46.9441C86.3043 46.9664 86.8893 46.8169 87.3976 46.5136C87.6539 46.3465 87.8645 46.1177 88.0101 45.8483C88.1557 45.5788 88.2317 45.2771 88.2312 44.9707C88.2466 44.6633 88.1782 44.3576 88.0335 44.0861C87.8888 43.8147 87.6731 43.5877 87.4096 43.4296C87.0177 43.1764 86.5158 43.0283 85.8421 42.8527C85.1373 42.6667 84.8107 42.5978 84.5701 42.4222C84.4385 42.3327 84.3304 42.2127 84.255 42.0724C84.1796 41.9321 84.1391 41.7757 84.137 41.6163C84.1314 41.4566 84.1621 41.2977 84.2267 41.1515C84.2913 41.0054 84.3882 40.8758 84.51 40.7726C84.8286 40.5718 85.1994 40.47 85.5756 40.4798C85.9705 40.4658 86.3613 40.5637 86.7032 40.7622C87.1363 41.0584 87.2738 41.5595 87.2927 42.0795H88.1762C88.1736 41.7421 88.0977 41.4092 87.9537 41.1042C87.8098 40.7991 87.6012 40.529 87.3426 40.3128C86.8507 39.9352 86.2431 39.7404 85.6238 39.7618C84.7643 39.7514 84.2487 39.9977 83.929 40.2336C83.7107 40.3894 83.5339 40.5965 83.4141 40.8367C83.2942 41.0768 83.235 41.3427 83.2415 41.6112C83.2327 41.8503 83.2793 42.0883 83.3778 42.3064C83.4762 42.5245 83.6237 42.7168 83.8087 42.8682C84.2504 43.2419 84.84 43.3848 85.4244 43.5363C86.3354 43.7826 86.5897 43.8704 86.7857 43.9875C86.9542 44.0778 87.0934 44.2144 87.1872 44.3813C87.2809 44.5481 87.3253 44.7382 87.3151 44.9294C87.3175 45.1191 87.2743 45.3065 87.189 45.4759C87.1037 45.6453 86.9789 45.7915 86.8252 45.9023C86.4932 46.1073 86.108 46.2092 85.7183 46.195C85.2724 46.2197 84.8322 46.0855 84.4756 45.8162C84.094 45.5011 83.9599 45.0792 83.9599 44.5884H83.0421ZM89.7111 39.9168V46.7874H90.5946V43.5587H94.0203V46.7874H94.902V39.9168H94.0203V42.7924H90.5912V39.9168H89.7111ZM98.8725 44.5902C98.8746 44.9372 98.9526 45.2796 99.1011 45.5932C99.2496 45.9068 99.4649 46.184 99.7319 46.4051C100.279 46.8356 100.935 46.9458 101.542 46.9458C102.133 46.968 102.718 46.8185 103.226 46.5153C103.483 46.3482 103.693 46.1195 103.839 45.85C103.984 45.5805 104.06 45.2789 104.06 44.9724C104.075 44.6647 104.006 44.3587 103.861 44.0873C103.715 43.8158 103.499 43.589 103.235 43.4313C102.845 43.1782 102.345 43.0301 101.671 42.8544C100.966 42.6684 100.639 42.5996 100.395 42.4239C100.264 42.3341 100.157 42.2139 100.082 42.0736C100.007 41.9333 99.9675 41.7771 99.9657 41.6181C99.96 41.4585 99.9904 41.2996 100.055 41.1535C100.119 41.0074 100.216 40.8777 100.337 40.7743C100.656 40.5664 101.03 40.4591 101.411 40.4661C101.806 40.4529 102.196 40.5514 102.537 40.7502C102.967 41.0429 103.104 41.5457 103.125 42.0658H104.007C104.004 41.728 103.929 41.3948 103.785 41.0894C103.641 40.784 103.432 40.5137 103.173 40.2973C102.681 39.9197 102.074 39.7249 101.454 39.7463C100.595 39.7377 100.079 39.9839 99.7595 40.2198C99.5412 40.3757 99.3644 40.5827 99.2445 40.8229C99.1247 41.063 99.0654 41.329 99.0719 41.5974C99.0632 41.8366 99.1098 42.0745 99.2082 42.2926C99.3066 42.5107 99.4541 42.703 99.6391 42.8544C100.081 43.2281 100.67 43.371 101.255 43.5225C102.166 43.7688 102.42 43.8566 102.616 43.9737C102.785 44.0641 102.924 44.2007 103.018 44.3675C103.111 44.5343 103.156 44.7244 103.146 44.9156C103.148 45.105 103.104 45.2921 103.019 45.4612C102.934 45.6302 102.809 45.7762 102.656 45.8868C102.324 46.0918 101.938 46.1937 101.549 46.1795C101.102 46.2033 100.662 46.0678 100.306 45.7973C99.9245 45.4839 99.7904 45.062 99.7904 44.5712L98.8725 44.5902ZM110.303 44.3542C110.295 44.826 110.111 45.2777 109.787 45.6199C109.61 45.801 109.398 45.9441 109.164 46.0403C108.93 46.1366 108.679 46.1839 108.426 46.1795C108.088 46.1827 107.756 46.0996 107.459 45.9381C107.162 45.7766 106.912 45.542 106.731 45.2566C106.387 44.7279 106.27 43.9823 106.27 43.3452C106.27 42.2741 106.563 41.6921 106.731 41.4304C106.911 41.1428 107.161 40.9061 107.457 40.7428C107.754 40.5794 108.087 40.4948 108.426 40.4971C108.684 40.4876 108.941 40.5355 109.179 40.6373C109.417 40.7391 109.629 40.8923 109.801 41.086C110.095 41.4285 110.261 41.8623 110.272 42.3137H111.183C111.147 41.6112 110.838 40.9507 110.321 40.4742C109.805 39.9977 109.122 39.7431 108.421 39.7652C107.957 39.756 107.498 39.8611 107.084 40.0713C106.671 40.2815 106.315 40.5903 106.049 40.9706C105.595 41.6861 105.354 42.5164 105.354 43.3641C105.354 44.2119 105.595 45.0421 106.049 45.7577C106.315 46.1378 106.671 46.4466 107.085 46.6568C107.498 46.867 107.957 46.9721 108.421 46.963C108.806 46.98 109.191 46.9117 109.548 46.7629C109.904 46.6141 110.224 46.3885 110.483 46.102C110.903 45.6189 111.163 45.0173 111.228 44.3801L110.303 44.3542ZM112.709 39.9185V46.7891H113.591V43.5604H117.029V46.7891H117.91V39.9185H117.029V42.7942H113.591V39.9185H112.709ZM119.378 43.3555C119.378 42.1501 119.732 41.3443 120.164 40.8139C120.43 40.486 120.766 40.2216 121.147 40.0401C121.528 39.8586 121.945 39.7644 122.367 39.7644C122.789 39.7644 123.206 39.8586 123.587 40.0401C123.968 40.2216 124.304 40.486 124.571 40.8139C125.001 41.3443 125.355 42.157 125.355 43.3555C125.355 44.554 125.002 45.3668 124.571 45.8971C124.304 46.2254 123.968 46.49 123.587 46.6717C123.206 46.8534 122.789 46.9477 122.366 46.9477C121.944 46.9477 121.527 46.8534 121.146 46.6717C120.765 46.49 120.428 46.2254 120.162 45.8971C119.72 45.3633 119.366 44.5506 119.366 43.3538L119.378 43.3555ZM120.301 43.3383C120.301 43.8273 120.339 44.6418 120.779 45.3013C120.947 45.5714 121.181 45.7943 121.459 45.9487C121.736 46.1032 122.049 46.1843 122.366 46.1843C122.684 46.1843 122.997 46.1032 123.274 45.9487C123.552 45.7943 123.786 45.5714 123.954 45.3013C124.396 44.6418 124.435 43.8273 124.435 43.3383C124.435 42.6891 124.346 41.9728 123.954 41.3839C123.786 41.1137 123.552 40.8909 123.274 40.7365C122.997 40.582 122.684 40.5009 122.366 40.5009C122.049 40.5009 121.736 40.582 121.459 40.7365C121.181 40.8909 120.947 41.1137 120.779 41.3839C120.377 41.9693 120.289 42.6874 120.289 43.3366L120.301 43.3383ZM126.637 43.3555C126.637 42.1501 126.989 41.3443 127.421 40.8139C127.687 40.4857 128.023 40.2211 128.404 40.0393C128.786 39.8576 129.203 39.7633 129.625 39.7633C130.047 39.7633 130.464 39.8576 130.846 40.0393C131.227 40.2211 131.563 40.4857 131.829 40.8139C132.259 41.3443 132.613 42.157 132.613 43.3555C132.613 44.554 132.261 45.3668 131.829 45.8971C131.563 46.2254 131.227 46.49 130.846 46.6717C130.464 46.8534 130.047 46.9477 129.625 46.9477C129.203 46.9477 128.786 46.8534 128.404 46.6717C128.023 46.49 127.687 46.2254 127.421 45.8971C126.979 45.3633 126.627 44.5506 126.627 43.3538L126.637 43.3555ZM127.558 43.3383C127.558 43.8273 127.598 44.6418 128.039 45.3013C128.207 45.5711 128.441 45.7935 128.719 45.9478C128.996 46.102 129.309 46.1829 129.626 46.1829C129.943 46.1829 130.255 46.102 130.533 45.9478C130.811 45.7935 131.044 45.5711 131.212 45.3013C131.654 44.6418 131.694 43.8273 131.694 43.3383C131.694 42.6891 131.604 41.9728 131.212 41.3839C131.044 41.1137 130.811 40.8909 130.533 40.7365C130.255 40.582 129.943 40.5009 129.625 40.5009C129.307 40.5009 128.995 40.582 128.717 40.7365C128.44 40.8909 128.206 41.1137 128.038 41.3839C127.637 41.9693 127.55 42.6874 127.55 43.3366L127.558 43.3383ZM134.09 39.9202V46.7908H138.009V46.0263H134.963V39.915L134.09 39.9202Z" fill="black"/>
</g>
<defs>
<clipPath id="clip0">
<rect width="138" height="60" fill="white"/>
</clipPath>
</defs>
</svg>
