<svg width="14" height="22" viewBox="0 0 14 22" fill="none" xmlns="http://www.w3.org/2000/svg">
<path fill-rule="evenodd" clip-rule="evenodd" d="M13.75 9.49997L13.744 9.74297L13.75 9.99997L13.744 10.243L13.75 10.5L13.744 10.745L13.75 11L13.588 18.103C13.5695 18.9178 13.2553 19.698 12.7041 20.2983C12.1529 20.8987 11.4022 21.2781 10.592 21.366C8.20431 21.6245 5.79569 21.6245 3.408 21.366C2.59776 21.2781 1.84709 20.8987 1.29589 20.2983C0.744684 19.698 0.430543 18.9178 0.412 18.103L0.25 11L0.256 10.743L0.25 10.5L0.256 10.244L0.25 9.99997L0.256 9.74397L0.25 9.49997L0.414 3.40197C0.416 3.31697 0.422 3.23297 0.432 3.14997L0.435 3.11497L0.438 3.08597C0.479831 2.6574 0.624964 2.24536 0.86096 1.88519C1.09696 1.52501 1.41678 1.22743 1.793 1.01797C2.1683 0.790335 2.59079 0.651786 3.028 0.612967C5.67041 0.369734 8.32959 0.369734 10.972 0.612967C11.4084 0.65178 11.8302 0.789976 12.205 1.01697C12.5808 1.22584 12.9004 1.52259 13.1365 1.88184C13.3726 2.2411 13.5183 2.65218 13.561 3.07997L13.569 3.15397C13.579 3.23597 13.584 3.31897 13.586 3.40197L13.75 9.49997ZM12.074 3.31997L12.231 10.187L12.104 14.917C12.0905 15.4309 11.8889 15.9221 11.5374 16.2974C11.1859 16.6726 10.709 16.9059 10.197 16.953C8.07016 17.1488 5.92984 17.1488 3.803 16.953C3.29117 16.9059 2.81437 16.6728 2.46291 16.2977C2.11146 15.9227 1.90975 15.4318 1.896 14.918L1.769 10.188L1.926 3.32097C1.926 3.30597 1.926 3.29097 1.928 3.27697C1.988 2.87397 2.22 2.52697 2.551 2.31697C2.67933 2.24996 2.81907 2.20756 2.963 2.19197C5.646 1.90197 8.353 1.90197 11.037 2.19197C11.185 2.20797 11.324 2.25097 11.449 2.31597C11.779 2.52697 12.013 2.87497 12.072 3.27697L12.074 3.31997ZM7 20.7C7.39782 20.7 7.77936 20.5419 8.06066 20.2606C8.34196 19.9793 8.5 19.5978 8.5 19.2C8.5 18.8021 8.34196 18.4206 8.06066 18.1393C7.77936 17.858 7.39782 17.7 7 17.7C6.60218 17.7 6.22064 17.858 5.93934 18.1393C5.65804 18.4206 5.5 18.8021 5.5 19.2C5.5 19.5978 5.65804 19.9793 5.93934 20.2606C6.22064 20.5419 6.60218 20.7 7 20.7Z" fill="#05203E"/>
</svg>
