<svg width="52" height="30" viewBox="0 0 52 30" fill="none" xmlns="http://www.w3.org/2000/svg">
<path d="M2.20662 27.7177C-1.66866 20.5238 0.595964 14.4679 4.82805 12.2085C9.05624 9.94987 15.3674 11.4173 19.2292 18.606C20.7362 21.4147 22.3726 21.9951 22.8068 21.7725C23.2384 21.5381 23.6592 19.8492 22.1461 17.05C18.2834 9.85734 20.5481 3.80143 24.7763 1.54284C29.0058 -0.728292 35.3108 0.748603 39.1822 7.94339C40.6883 10.7483 42.3295 11.3317 42.7571 11.0982C43.1857 10.8686 43.6035 9.18444 42.1013 6.37872C41.8373 5.91649 41.669 5.40612 41.6064 4.87771C41.5437 4.34929 41.5878 3.81354 41.7363 3.30207C41.8847 2.79059 42.1345 2.31375 42.4707 1.89968C42.8069 1.48561 43.2229 1.14269 43.694 0.891167C44.1651 0.639642 44.6819 0.484601 45.2137 0.435193C45.7456 0.385786 46.2819 0.44301 46.7909 0.603492C47.2999 0.763974 47.7712 1.02446 48.1772 1.36959C48.5832 1.71471 48.9156 2.13748 49.1548 2.61295C53.0196 9.79693 50.7646 15.8589 46.5303 18.127C42.3021 20.3856 35.9979 18.9126 32.1257 11.7139C30.6156 8.90991 28.9823 8.32477 28.5507 8.5591C28.1222 8.78868 27.6957 10.4707 29.2018 13.2756C33.0732 20.4703 30.8164 26.5245 26.5812 28.7887C22.35 31.0521 16.0458 29.5791 12.1736 22.3804C10.673 19.5824 9.02803 18.9999 8.60339 19.2286C8.16789 19.4638 7.74442 21.1411 9.25533 23.949C9.52647 24.4113 9.70117 24.9235 9.76898 25.4549C9.83678 25.9864 9.79631 26.5262 9.64998 27.0421C9.50364 27.5579 9.25445 28.0393 8.91731 28.4573C8.58017 28.8754 8.16199 29.2215 7.6878 29.4751C7.2136 29.7286 6.69312 29.8843 6.15747 29.933C5.62183 29.9816 5.08203 29.9221 4.57034 29.758C4.05866 29.594 3.5856 29.3288 3.17947 28.9782C2.77333 28.6276 2.44245 28.1989 2.20662 27.7177Z" fill="#FF76A6"/>
</svg>
