<svg width="53" height="32" viewBox="0 0 53 32" fill="none" xmlns="http://www.w3.org/2000/svg">
<path opacity="0.9" d="M1.39128 2.35108C1.66539 1.84211 2.05441 1.40414 2.52724 1.07216C3.00008 0.740185 3.54361 0.523409 4.11441 0.43916C4.68521 0.354911 5.26744 0.405526 5.81457 0.586958C6.3617 0.768391 6.85855 1.07561 7.26541 1.48406C17.5454 11.7956 35.3238 25.7028 42.6466 24.3368C43.4752 24.1856 44.4173 23.8008 45.1551 22.1439C46.5754 18.9561 39.9768 15.7781 39.91 15.7463C39.4567 15.5555 39.0463 15.2758 38.7027 14.9238C38.3592 14.5717 38.0894 14.1544 37.9092 13.6961C37.729 13.2379 37.6421 12.748 37.6534 12.2552C37.6648 11.7624 37.7743 11.2766 37.9754 10.8262C38.1765 10.3759 38.4653 9.97001 38.8248 9.63249C39.1842 9.29496 39.6072 9.03253 40.0688 8.86058C40.5304 8.68864 41.0214 8.61063 41.5131 8.63114C42.0047 8.65165 42.487 8.77026 42.9319 8.98002C47.6002 11.0586 55.4832 17.1182 51.9065 25.1475C50.3097 28.7328 47.5737 30.9504 43.9789 31.6229C30.2107 34.1838 6.61349 11.3299 2.02428 6.72149C1.4639 6.15893 1.09974 5.43011 0.985734 4.64295C0.871724 3.8558 1.01392 3.05218 1.39128 2.35108Z" fill="#90B755"/>
</svg>
