<svg width="45" height="36" viewBox="0 0 45 36" fill="none" xmlns="http://www.w3.org/2000/svg">
<path opacity="0.8" d="M0.585106 32.5161C0.384436 31.9933 0.335621 31.4434 0.442022 30.9044L0.915487 28.4395C1.68579 24.5693 4.17993 21.0118 7.98345 18.3582C11.787 15.7046 16.6709 14.1146 21.8237 13.8525C24.762 13.7717 27.5754 12.9223 29.7856 11.4488C31.9958 9.97532 33.4663 7.96865 33.9472 5.76995L34.4761 3.20625C34.5764 2.71605 34.8031 2.24537 35.1433 1.82109C35.4834 1.3968 35.9304 1.02721 36.4586 0.733433C36.9868 0.439653 37.586 0.227429 38.2218 0.108883C38.8576 -0.0096634 39.5178 -0.032214 40.1644 0.0425215C40.8111 0.117257 41.4317 0.287816 41.9908 0.544455C42.5498 0.801094 43.0364 1.13879 43.4227 1.53826C43.809 1.93773 44.0875 2.39115 44.2423 2.87264C44.3971 3.35412 44.4251 3.85425 44.3248 4.34445L43.7959 6.90815C42.9832 10.7857 40.4387 14.3376 36.5881 16.9699C32.7374 19.6022 27.8142 21.1552 22.6419 21.3691C19.7337 21.4936 16.9677 22.3713 14.8071 23.8552C12.6464 25.3392 11.2223 27.3393 10.7734 29.5206L10.2999 31.9855C10.1319 32.8365 9.58556 33.6193 8.75124 34.2043C7.91691 34.7892 6.84471 35.1413 5.71213 35.2021C4.57956 35.2629 3.45456 35.0288 2.52341 34.5387C1.59226 34.0485 0.910793 33.3316 0.591875 32.5067L0.585106 32.5161Z" fill="#FF76A7"/>
</svg>
