<svg width="64" height="64" viewBox="0 0 64 64" fill="none" xmlns="http://www.w3.org/2000/svg">
<path d="M64 41.3737C64 59.0468 50.3196 64 32.6465 64C14.9734 64 0 59.0468 0 41.3737C0 23.7006 14.9734 0 32.6465 0C50.3196 0 64 23.7006 64 41.3737Z" fill="#7BB745"/>
<path d="M32 32V16M32 16L26 22M32 16L38 22" stroke="white" stroke-width="2.58586" stroke-linecap="round" stroke-linejoin="round"/>
<path d="M13.952 50V42.86H17.27C18.0073 42.86 18.5907 43.0233 19.02 43.35C19.4587 43.6673 19.678 44.12 19.678 44.708C19.678 45.044 19.594 45.3567 19.426 45.646C19.2673 45.926 19.0387 46.136 18.74 46.276V46.29C19.1507 46.3927 19.4633 46.598 19.678 46.906C19.8927 47.2047 20 47.5453 20 47.928C20 48.6093 19.7527 49.1273 19.258 49.482C18.7727 49.8273 18.1333 50 17.34 50H13.952ZM15.73 45.8H16.892C17.2187 45.8 17.466 45.716 17.634 45.548C17.802 45.3707 17.886 45.142 17.886 44.862C17.886 44.302 17.5453 44.022 16.864 44.022H15.73V45.8ZM15.73 48.824H17.032C17.4147 48.824 17.704 48.74 17.9 48.572C18.1053 48.3947 18.208 48.1613 18.208 47.872C18.208 47.5733 18.1053 47.34 17.9 47.172C17.6947 46.9947 17.4053 46.906 17.032 46.906H15.73V48.824ZM21.4852 50V42.86H24.8032C25.5405 42.86 26.1239 43.0233 26.5532 43.35C26.9919 43.6673 27.2112 44.12 27.2112 44.708C27.2112 45.044 27.1272 45.3567 26.9592 45.646C26.8005 45.926 26.5719 46.136 26.2732 46.276V46.29C26.6839 46.3927 26.9965 46.598 27.2112 46.906C27.4259 47.2047 27.5332 47.5453 27.5332 47.928C27.5332 48.6093 27.2859 49.1273 26.7912 49.482C26.3059 49.8273 25.6665 50 24.8732 50H21.4852ZM23.2632 45.8H24.4252C24.7519 45.8 24.9992 45.716 25.1672 45.548C25.3352 45.3707 25.4192 45.142 25.4192 44.862C25.4192 44.302 25.0785 44.022 24.3972 44.022H23.2632V45.8ZM23.2632 48.824H24.5652C24.9479 48.824 25.2372 48.74 25.4332 48.572C25.6385 48.3947 25.7412 48.1613 25.7412 47.872C25.7412 47.5733 25.6385 47.34 25.4332 47.172C25.2279 46.9947 24.9385 46.906 24.5652 46.906H23.2632V48.824ZM28.5844 46.43C28.5844 45.3287 28.9204 44.4327 29.5924 43.742C30.2737 43.042 31.1511 42.692 32.2244 42.692C33.2137 42.692 33.9884 43.014 34.5484 43.658C35.1084 44.2927 35.3884 45.1 35.3884 46.08C35.3884 46.2387 35.3697 46.4673 35.3324 46.766H30.4184C30.4744 47.3633 30.7031 47.83 31.1044 48.166C31.5057 48.4927 31.9911 48.656 32.5604 48.656C33.2697 48.656 33.9511 48.3947 34.6044 47.872L35.3044 49.146C34.9497 49.4633 34.5111 49.7153 33.9884 49.902C33.4751 50.0793 32.9571 50.168 32.4344 50.168C31.2864 50.168 30.3577 49.8087 29.6484 49.09C28.9391 48.362 28.5844 47.4753 28.5844 46.43ZM30.4604 45.548H33.6104C33.6011 45.0813 33.4611 44.7127 33.1904 44.442C32.9291 44.1713 32.5931 44.036 32.1824 44.036C31.7344 44.036 31.3564 44.176 31.0484 44.456C30.7404 44.7267 30.5444 45.0907 30.4604 45.548ZM36.8661 52.8V42.86H38.4901V43.392L38.4621 43.896H38.4901C38.7234 43.5133 39.0407 43.2193 39.4421 43.014C39.8527 42.7993 40.3007 42.692 40.7861 42.692C41.7474 42.692 42.5127 43.0373 43.0821 43.728C43.6607 44.4187 43.9501 45.3193 43.9501 46.43C43.9501 47.55 43.6421 48.4553 43.0261 49.146C42.4194 49.8273 41.6401 50.168 40.6881 50.168C39.8387 50.168 39.1527 49.832 38.6301 49.16H38.6021C38.6301 49.328 38.6441 49.5333 38.6441 49.776V52.8H36.8661ZM38.5881 46.472C38.5881 47.0693 38.7467 47.5873 39.0641 48.026C39.3814 48.4553 39.8154 48.67 40.3661 48.67C40.8794 48.67 41.3041 48.474 41.6401 48.082C41.9854 47.6807 42.1581 47.1393 42.1581 46.458C42.1581 45.786 41.9947 45.2447 41.6681 44.834C41.3414 44.4233 40.9167 44.218 40.3941 44.218C39.8807 44.218 39.4514 44.4093 39.1061 44.792C38.7607 45.1653 38.5881 45.7253 38.5881 46.472ZM44.5323 50L46.8843 46.388L44.5883 42.86H46.6043L47.7103 44.806L47.9343 45.254H47.9623C48.0556 45.0767 48.1349 44.9273 48.2003 44.806L49.3063 42.86H51.3223L49.0263 46.388L51.3923 50H49.4043L48.1723 47.928L47.9623 47.55H47.9343C47.8689 47.6993 47.8036 47.8253 47.7383 47.928L46.5063 50H44.5323Z" fill="white"/>
</svg>
