<svg width="34" height="32" viewBox="0 0 34 32" fill="none" xmlns="http://www.w3.org/2000/svg">
<path d="M8.90458 10.2858H4.61886C3.8611 10.2858 3.13437 10.5868 2.59856 11.1226C2.06274 11.6584 1.76172 12.3852 1.76172 13.1429V18.8572C1.76172 19.615 2.06274 20.3417 2.59856 20.8775C3.13437 21.4133 3.8611 21.7144 4.61886 21.7144H8.90458V10.2858ZM8.90458 21.7144L20.076 29.7429C20.4899 30.0293 20.9721 30.2013 21.4738 30.2414C21.9756 30.2816 22.479 30.1884 22.9331 29.9715C23.4257 29.7503 23.8455 29.394 24.1438 28.9439C24.4422 28.4939 24.6069 27.9685 24.6189 27.4286V4.5715C24.6311 4.05842 24.5049 3.55151 24.2535 3.10405C24.0021 2.6566 23.6348 2.28512 23.1903 2.02865C22.7361 1.81171 22.2327 1.7186 21.731 1.75873C21.2293 1.79887 20.7471 1.97083 20.3331 2.25722L8.90458 10.2858M30.3331 11.7144C31.3264 12.9152 31.8358 14.4434 31.7617 16.0001C31.8358 17.5567 31.3264 19.085 30.3331 20.2858" fill="white"/>
<path d="M8.90458 10.2858H4.61886C3.8611 10.2858 3.13437 10.5868 2.59856 11.1226C2.06274 11.6584 1.76172 12.3852 1.76172 13.1429V18.8572C1.76172 19.615 2.06274 20.3417 2.59856 20.8775C3.13437 21.4133 3.8611 21.7144 4.61886 21.7144H8.90458M8.90458 10.2858V21.7144M8.90458 10.2858L20.3331 2.25722C20.7471 1.97083 21.2293 1.79887 21.731 1.75873C22.2327 1.7186 22.7361 1.81171 23.1903 2.02865C23.6348 2.28512 24.0021 2.6566 24.2535 3.10405C24.5049 3.55151 24.6311 4.05842 24.6189 4.5715V27.4286C24.6069 27.9685 24.4422 28.4939 24.1438 28.9439C23.8455 29.394 23.4257 29.7503 22.9331 29.9715C22.479 30.1884 21.9756 30.2816 21.4738 30.2414C20.9721 30.2013 20.4899 30.0293 20.076 29.7429L8.90458 21.7144M30.3331 11.7144C31.3264 12.9152 31.8358 14.4435 31.7617 16.0001C31.8358 17.5567 31.3264 19.085 30.3331 20.2858" stroke="white" stroke-width="3" stroke-linecap="round" stroke-linejoin="round"/>
</svg>
