<svg width="38" height="32" viewBox="0 0 38 32" fill="none" xmlns="http://www.w3.org/2000/svg">
<path d="M8.23077 10.4864H4.19231C3.47826 10.4864 2.79346 10.7768 2.28856 11.2938C1.78365 11.8108 1.5 12.512 1.5 13.2432V18.7568C1.5 19.488 1.78365 20.1892 2.28856 20.7062C2.79346 21.2232 3.47826 21.5136 4.19231 21.5136H8.23077V10.4864ZM8.23077 21.5136L18.7577 29.2602C19.1477 29.5366 19.6021 29.7025 20.0749 29.7412C20.5477 29.78 21.022 29.6901 21.45 29.4808C21.9141 29.2673 22.3097 28.9235 22.5908 28.4893C22.872 28.055 23.0272 27.5481 23.0385 27.0272V4.97277C23.05 4.4777 22.931 3.9886 22.6942 3.55686C22.4573 3.12511 22.1112 2.76668 21.6923 2.51921C21.2643 2.30989 20.79 2.22005 20.3172 2.25878C19.8444 2.29751 19.39 2.46343 19 2.73976L8.23077 10.4864M36.5 11.8648L28.4231 20.1352L36.5 11.8648ZM28.4231 11.8648L36.5 20.1352L28.4231 11.8648Z" fill="white"/>
<path d="M8.23077 10.4864H4.19231C3.47826 10.4864 2.79346 10.7768 2.28856 11.2938C1.78365 11.8108 1.5 12.512 1.5 13.2432V18.7568C1.5 19.488 1.78365 20.1892 2.28856 20.7062C2.79346 21.2232 3.47826 21.5136 4.19231 21.5136H8.23077M8.23077 10.4864V21.5136M8.23077 10.4864L19 2.73976C19.39 2.46343 19.8444 2.29751 20.3172 2.25878C20.79 2.22005 21.2643 2.30989 21.6923 2.51921C22.1112 2.76668 22.4573 3.12511 22.6942 3.55686C22.931 3.9886 23.05 4.4777 23.0385 4.97277V27.0272C23.0272 27.5481 22.872 28.055 22.5908 28.4893C22.3097 28.9235 21.9141 29.2673 21.45 29.4808C21.022 29.6901 20.5477 29.78 20.0749 29.7412C19.6021 29.7025 19.1477 29.5366 18.7577 29.2602L8.23077 21.5136M36.5 11.8648L28.4231 20.1352M28.4231 11.8648L36.5 20.1352" stroke="white" stroke-width="3" stroke-linecap="round" stroke-linejoin="round"/>
</svg>
