<svg width="72" height="72" viewBox="0 0 72 72" fill="none" xmlns="http://www.w3.org/2000/svg">
<path d="M53.1282 14.0766C46.8141 12.2063 44.8313 15.75 36 15.75C27.1688 15.75 25.186 12.1922 18.8719 14.0766C12.5578 15.9469 9.40784 22.5703 6.42659 35.0016C3.44534 47.4469 3.99378 56.4328 7.5094 58.1063C11.025 59.7797 14.9907 55.9406 18.7735 51.2016C21.8391 47.4891 23.3719 47.25 36 47.25C48.6141 47.25 49.9219 47.3484 53.2266 51.2016C57.0094 55.9406 60.975 59.7797 64.4907 58.1063C68.0063 56.4328 68.5547 47.4469 65.5735 35.0016C62.5922 22.5703 59.4282 15.9609 53.1282 14.0766ZM18.0282 37.0828C14.9766 37.0828 12.5016 34.5938 12.5016 31.5141C12.5016 28.4484 14.9766 25.9453 18.0282 25.9453C21.0797 25.9453 23.5547 28.4484 23.5547 31.5141C23.5547 34.5797 21.0797 37.0828 18.0282 37.0828ZM43.5516 34.2563C42.061 34.2563 40.8375 33.0328 40.8375 31.5281C40.8375 30.0234 42.061 28.8 43.5516 28.8C45.0563 28.8 46.2797 30.0234 46.2797 31.5281C46.2657 33.0328 45.0563 34.2563 43.5516 34.2563ZM49.486 40.2188C47.9953 40.2188 46.7719 38.9953 46.7719 37.4906C46.7719 35.9719 47.9953 34.7625 49.486 34.7625C50.9907 34.7625 52.2141 35.9859 52.2141 37.4906C52.2141 39.0094 50.9907 40.2188 49.486 40.2188ZM49.486 28.2797C47.9953 28.2797 46.7719 27.0563 46.7719 25.5516C46.7719 24.0469 47.9953 22.8234 49.486 22.8234C50.9907 22.8234 52.2141 24.0469 52.2141 25.5516C52.2141 27.0563 50.9907 28.2797 49.486 28.2797ZM55.4344 34.2563C53.9297 34.2563 52.7203 33.0328 52.7203 31.5281C52.7203 30.0234 53.9438 28.8 55.4344 28.8C56.925 28.8 58.1485 30.0234 58.1485 31.5281C58.1485 33.0328 56.9391 34.2563 55.4344 34.2563Z" fill="url(#paint0_linear_86_524)"/>
<defs>
<linearGradient id="paint0_linear_86_524" x1="12.5" y1="23" x2="40.3075" y2="53.3413" gradientUnits="userSpaceOnUse">
<stop stop-color="#F2D477"/>
<stop offset="1" stop-color="#F8C326"/>
</linearGradient>
</defs>
</svg>
