<svg width="45" height="21" viewBox="0 0 45 21" fill="none" xmlns="http://www.w3.org/2000/svg">
<path d="M43.5445 17.9227C43.1552 18.3084 42.6866 18.6048 42.1709 18.7916L39.8177 19.6543C36.113 20.9909 32.0563 21.0174 28.3217 19.7293C24.5872 18.4412 21.3995 15.9161 19.2886 12.5735C18.1454 10.6345 16.368 9.14805 14.2585 8.36672C12.149 7.58539 9.83752 7.55745 7.71708 8.28766L5.25626 9.16053C4.78602 9.32797 4.28696 9.40098 3.78757 9.3754C3.28817 9.34981 2.79822 9.22613 2.3457 9.01142C1.89318 8.79671 1.48695 8.49518 1.15019 8.12404C0.81344 7.75289 0.552761 7.3194 0.383043 6.84832C0.213324 6.37724 0.137888 5.87779 0.161043 5.37849C0.184198 4.8792 0.305488 4.38983 0.517991 3.93834C0.730494 3.48684 1.03004 3.08205 1.39954 2.74709C1.76904 2.41212 2.20125 2.15354 2.67149 1.9861L5.13232 1.11324C8.85893 -0.198286 12.9291 -0.188187 16.662 1.14184C20.3949 2.47186 23.5641 5.04116 25.6396 8.41996C26.8103 10.3177 28.5955 11.7587 30.6962 12.5017C32.797 13.2446 35.0857 13.2444 37.1791 12.5011L39.5322 11.6383C40.3464 11.3435 41.2381 11.336 42.0599 11.6172C42.8816 11.8983 43.5841 12.4513 44.0509 13.1844C44.5177 13.9176 44.7209 14.787 44.6269 15.6487C44.5328 16.5103 44.1472 17.3126 43.5337 17.9227L43.5445 17.9227Z" fill="#FFE185"/>
</svg>
