<svg width="280" height="12" viewBox="0 0 280 12" fill="none" xmlns="http://www.w3.org/2000/svg">
<path d="M279.271 3.12442C277.852 3.01713 276.549 3.00103 275.129 2.98347C273.708 2.96591 272.407 2.86008 270.987 2.75278C267.911 2.53526 264.955 2.22947 261.879 2.01195C256.083 1.5813 250.167 1.14918 244.368 0.987744C239.042 0.742421 233.597 0.585372 228.27 0.519523C226.849 0.501963 225.429 0.484403 224.126 0.468307C218.798 0.492194 213.47 0.426345 208.141 0.450232C195.707 0.565794 183.155 0.679893 170.718 0.974928C158.519 1.27289 146.319 1.57085 134.237 1.96001C128.314 2.15606 122.273 2.35064 116.35 2.54668C109.833 2.91489 103.318 3.10361 96.9206 3.38354C83.5326 4.02582 70.2642 4.57982 56.8762 5.2221C45.2651 5.79659 33.7692 6.64175 22.2699 7.75612C14.9186 8.56276 7.4479 9.45768 0.0955607 10.3541C8.49566 10.9066 17.0175 11.1915 25.5404 11.3866C31.1047 11.4553 36.6701 11.4344 42.1171 11.412C45.6699 11.3661 49.2238 11.2305 52.8961 11.0964C55.1466 11.0345 57.2798 10.8814 59.4131 10.7282C65.2197 10.3513 71.1436 10.0655 76.9502 9.68849C83.704 9.32321 90.3404 8.86674 97.0942 8.50146C103.966 8.13765 110.957 7.77531 117.829 7.41149C123.99 7.12864 130.269 6.84725 136.548 6.56586C142.59 6.28154 148.75 6.08842 154.791 5.89384C160.95 5.70072 166.992 5.50614 173.151 5.31302C179.429 5.12137 185.586 5.10772 191.863 5.00581C203.233 4.78734 214.6 4.83808 226.085 4.89029C232.478 4.9693 238.754 4.86739 245.15 4.76693C251.427 4.66501 257.703 4.5631 263.863 4.36998C266.35 4.31097 268.956 4.25343 271.444 4.10468C272.629 4.02958 273.933 3.95594 275.119 3.7911C276.187 3.6248 277.255 3.36876 278.322 3.29219C278.678 3.20684 278.916 3.12003 279.271 3.12442Z" fill="#FAC017"/>
</svg>
