<svg width="14" height="14" viewBox="0 0 14 14" fill="none" xmlns="http://www.w3.org/2000/svg">
<path d="M11.6663 0.333374H2.33301C1.80257 0.333374 1.29387 0.544088 0.918794 0.919161C0.543722 1.29423 0.333008 1.80294 0.333008 2.33337V11.6667C0.333008 12.1971 0.543722 12.7058 0.918794 13.0809C1.29387 13.456 1.80257 13.6667 2.33301 13.6667H11.6663C12.1968 13.6667 12.7055 13.456 13.0806 13.0809C13.4556 12.7058 13.6663 12.1971 13.6663 11.6667V2.33337C13.6663 1.80294 13.4556 1.29423 13.0806 0.919161C12.7055 0.544088 12.1968 0.333374 11.6663 0.333374ZM10.8063 4.79337L5.83301 10.0867C5.77027 10.1525 5.69473 10.2048 5.61104 10.2404C5.52735 10.2759 5.43727 10.2939 5.34634 10.2934C5.25542 10.2939 5.16534 10.2759 5.08164 10.2404C4.99795 10.2048 4.92241 10.1525 4.85967 10.0867L3.20634 8.33337C3.13883 8.27149 3.0848 8.19637 3.04761 8.11268C3.01041 8.02899 2.99086 7.93854 2.99017 7.84697C2.98948 7.75539 3.00766 7.66465 3.04359 7.58042C3.07951 7.49618 3.1324 7.42024 3.19897 7.35735C3.26554 7.29446 3.34435 7.24595 3.43049 7.21486C3.51663 7.18377 3.60825 7.17076 3.69964 7.17664C3.79103 7.18252 3.88022 7.20717 3.96167 7.24905C4.04311 7.29093 4.11505 7.34913 4.17301 7.42004L5.34634 8.66671L9.83301 3.89337C9.89498 3.83089 9.96872 3.78129 10.05 3.74745C10.1312 3.7136 10.2183 3.69618 10.3063 3.69618C10.3943 3.69618 10.4815 3.7136 10.5627 3.74745C10.644 3.78129 10.7177 3.83089 10.7797 3.89337C10.8958 4.01291 10.963 4.1716 10.9679 4.33819C10.9728 4.50478 10.9152 4.66717 10.8063 4.79337Z" fill="#57B89B"/>
</svg>
