<svg width="16" height="16" viewBox="0 0 16 16" fill="none" xmlns="http://www.w3.org/2000/svg">
<path d="M6.55994 0.0799866C3.18354 0.0799866 0.439941 2.82358 0.439941 6.19999C0.439941 9.57639 3.18354 12.32 6.55994 12.32C7.89588 12.32 9.13057 11.8897 10.1374 11.1612L14.8737 15.8862L15.8862 14.8737L11.2062 10.1825C12.1259 9.11092 12.6799 7.72014 12.6799 6.19999C12.6799 2.82358 9.93635 0.0799866 6.55994 0.0799866ZM6.55994 0.799987C9.54682 0.799987 11.9599 3.21311 11.9599 6.19999C11.9599 9.18686 9.54682 11.6 6.55994 11.6C3.57307 11.6 1.15994 9.18686 1.15994 6.19999C1.15994 3.21311 3.57307 0.799987 6.55994 0.799987Z" fill="black" fill-opacity="0.5"/>
</svg>
