<svg width="28" height="28" viewBox="0 0 28 28" fill="none" xmlns="http://www.w3.org/2000/svg">
<path d="M22.3999 21.5599H5.59992C4.672 21.5599 3.91992 20.8079 3.91992 19.8799V8.11994C3.91992 7.19202 4.672 6.43994 5.59992 6.43994H22.3999C23.3278 6.43994 24.0799 7.19202 24.0799 8.11994V19.8799C24.0799 20.8079 23.3278 21.5599 22.3999 21.5599Z" fill="#FEFDEF"/>
<path d="M6.43992 21.5601H5.59992C4.672 21.5601 3.91992 20.808 3.91992 19.8801V8.12012H6.43992V21.5601Z" fill="#F15B6C"/>
<path d="M21.5601 21.5601H22.4001C23.328 21.5601 24.0801 20.808 24.0801 19.8801V8.12012H21.5601V21.5601Z" fill="#F15B6C"/>
<path d="M22.9853 6.71997H22.9841L14.0001 13.3L5.01598 6.71997H5.01486C4.48762 6.71997 4.06006 7.14753 4.06006 7.67477V8.10989C4.06006 8.55621 4.27286 8.97565 4.63294 9.23941L14.0001 16.1L23.3672 9.23941C23.7273 8.97565 23.9401 8.55621 23.9401 8.10989V7.67477C23.9401 7.14753 23.5125 6.71997 22.9853 6.71997Z" fill="#F15B6C"/>
<path d="M22.4001 21.8399H5.60014C4.51962 21.8399 3.64014 20.9607 3.64014 19.8799V8.11991C3.64014 7.03911 4.51962 6.15991 5.60014 6.15991H22.4001C23.4807 6.15991 24.3601 7.03911 24.3601 8.11991V19.8799C24.3601 20.9607 23.4807 21.8399 22.4001 21.8399ZM5.60014 6.71991C4.82818 6.71991 4.20014 7.34795 4.20014 8.11991V19.8799C4.20014 20.6519 4.82818 21.2799 5.60014 21.2799H22.4001C23.1721 21.2799 23.8001 20.6519 23.8001 19.8799V8.11991C23.8001 7.34795 23.1721 6.71991 22.4001 6.71991H5.60014Z" fill="#1F212B"/>
<path d="M13.9999 16.2399C13.9708 16.2399 13.942 16.231 13.917 16.2128L4.54992 9.35222C4.15568 9.06354 3.91992 8.59902 3.91992 8.10986H4.19992C4.19992 8.50998 4.39256 8.88994 4.7154 9.12626L13.9999 15.9263L23.2842 9.12626C23.6073 8.88994 23.7999 8.51026 23.7999 8.10986H24.0799C24.0799 8.59902 23.8442 9.06354 23.4496 9.35222L14.0828 16.2128C14.0579 16.231 14.029 16.2399 13.9999 16.2399Z" fill="#1F212B"/>
<path d="M6.30016 20.7199C6.22288 20.7199 6.16016 20.6572 6.16016 20.58V11.34C6.16016 11.2627 6.22288 11.2 6.30016 11.2C6.37744 11.2 6.44016 11.2627 6.44016 11.34V20.58C6.44016 20.6572 6.37744 20.7199 6.30016 20.7199Z" fill="#1F212B"/>
<path d="M21.7001 17.36C21.6228 17.36 21.5601 17.2972 21.5601 17.22V11.34C21.5601 11.2627 21.6228 11.2 21.7001 11.2C21.7773 11.2 21.8401 11.2627 21.8401 11.34V17.22C21.8401 17.2972 21.7773 17.36 21.7001 17.36Z" fill="#1F212B"/>
<path d="M21.7001 19.5999C21.6228 19.5999 21.5601 19.5372 21.5601 19.4599V18.0599C21.5601 17.9826 21.6228 17.9199 21.7001 17.9199C21.7773 17.9199 21.8401 17.9826 21.8401 18.0599V19.4599C21.8401 19.5372 21.7773 19.5999 21.7001 19.5999Z" fill="#1F212B"/>
<path d="M21.7001 20.7199C21.6228 20.7199 21.5601 20.6572 21.5601 20.5799V20.2999C21.5601 20.2226 21.6228 20.1599 21.7001 20.1599C21.7773 20.1599 21.8401 20.2226 21.8401 20.2999V20.5799C21.8401 20.6572 21.7773 20.7199 21.7001 20.7199Z" fill="#1F212B"/>
<path d="M20.8601 8.41564C20.8173 8.41564 20.7744 8.39576 20.7473 8.35824C20.7016 8.2958 20.7151 8.20816 20.7775 8.16252L21.3375 7.7526C21.3994 7.70668 21.4873 7.72012 21.5329 7.78284C21.5786 7.84528 21.5651 7.93292 21.5027 7.97856L20.9427 8.38848C20.9178 8.40696 20.8889 8.41564 20.8601 8.41564Z" fill="#1F212B"/>
<path d="M19.18 9.64619C19.1371 9.64619 19.0943 9.62631 19.0671 9.58879C19.0215 9.52635 19.0349 9.43871 19.0971 9.39307L20.2171 8.57267C20.2795 8.52675 20.3672 8.54019 20.4128 8.60291C20.4584 8.66535 20.445 8.75299 20.3828 8.79863L19.2628 9.61903C19.2376 9.63723 19.2088 9.64619 19.18 9.64619Z" fill="#1F212B"/>
<path d="M14.0002 13.44C13.9711 13.44 13.9423 13.4311 13.9173 13.4129L4.83751 6.76286C4.77507 6.71722 4.76163 6.62958 4.80755 6.56714C4.85319 6.50442 4.94111 6.49126 5.00327 6.5369L14.0002 13.1264L18.5051 9.8269C18.5679 9.78098 18.6552 9.79442 18.7009 9.85714C18.7465 9.91958 18.7331 10.0072 18.6709 10.0529L14.0831 13.4129C14.0582 13.4311 14.0293 13.44 14.0002 13.44Z" fill="#1F212B"/>
</svg>
