<svg width="28" height="28" viewBox="0 0 28 28" fill="none" xmlns="http://www.w3.org/2000/svg">
<path d="M19.32 22.96H8.68004C6.66964 22.96 5.04004 21.3304 5.04004 19.32V8.68004C5.04004 6.66964 6.66964 5.04004 8.68004 5.04004H19.32C21.3304 5.04004 22.96 6.66964 22.96 8.68004V19.32C22.96 21.3304 21.3304 22.96 19.32 22.96Z" fill="#4E6E91"/>
<path d="M8.81998 16.6599C8.81998 14.689 10.2835 13.0577 12.18 12.7847V12.1906C12.0876 12.1836 11.9943 12.1799 11.9 12.1799C9.73838 12.1799 7.97998 13.9383 7.97998 16.0999C7.97998 17.6394 8.8743 18.9705 10.1685 19.6114C9.34414 18.8924 8.81998 17.8373 8.81998 16.6599Z" fill="#78CCD3"/>
<path d="M12.7399 18.6199C13.8207 18.6199 14.6999 17.7404 14.6999 16.6599V13.2702V11.8999V7.97992H15.9333C15.8887 7.80548 15.8526 7.61956 15.828 7.41992H13.8599V11.3399V12.7102V16.0999C13.8599 17.1804 12.9807 18.0599 11.8999 18.0599C11.6803 18.0599 11.4701 18.0221 11.2729 17.9552C11.6322 18.3618 12.1558 18.6199 12.7399 18.6199Z" fill="#78CCD3"/>
<path d="M19.1798 10.5001C19.121 10.5001 18.4353 10.4906 17.6958 10.1467C18.1749 10.5919 18.7307 10.8204 19.1798 10.9372V10.5001Z" fill="#78CCD3"/>
<path d="M17.6962 10.1466C17.2054 9.69022 16.7957 9.00674 16.6683 7.97998H15.9336C16.243 9.19126 16.9937 9.82014 17.6962 10.1466Z" fill="#78CCD3"/>
<path d="M19.18 10.937V12.4599C18.2887 12.4599 16.9405 12.1626 15.82 11.2845V16.0999C15.82 18.2615 14.0616 20.0199 11.9 20.0199C11.2778 20.0199 10.6915 19.8704 10.1685 19.6114C10.8575 20.2126 11.7558 20.5799 12.74 20.5799C14.9016 20.5799 16.66 18.8215 16.66 16.6599V11.8445C17.7805 12.7229 19.1287 13.0199 20.02 13.0199V11.0599C19.9791 11.0599 19.6344 11.0552 19.18 10.937Z" fill="#F05B6C"/>
<path d="M11.8999 14.14C10.8191 14.14 9.93994 15.0195 9.93994 16.1C9.93994 16.9613 10.4991 17.6929 11.273 17.9553C10.9673 17.6095 10.7799 17.1567 10.7799 16.66C10.7799 15.5795 11.6591 14.7 12.7399 14.7C12.8351 14.7 12.9284 14.7076 13.0199 14.721V12.7506C12.9275 12.7436 12.8343 12.74 12.7399 12.74C12.5493 12.74 12.3633 12.7582 12.1799 12.7848V14.161C12.0884 14.1476 11.9951 14.14 11.8999 14.14Z" fill="#F05B6C"/>
<path d="M15.8198 16.1V11.2845C16.9404 12.1629 18.2886 12.46 19.1798 12.46V10.9371C18.7307 10.8203 18.1749 10.5921 17.6958 10.1466C16.9933 9.82014 16.2426 9.19126 15.9332 7.97998H14.6998V11.9V13.2703V16.66C14.6998 17.7405 13.8206 18.62 12.7398 18.62C12.1557 18.62 11.6321 18.3618 11.2729 17.9553C10.499 17.6929 9.93982 16.9613 9.93982 16.1C9.93982 15.0195 10.819 14.14 11.8998 14.14C11.995 14.14 12.0883 14.1475 12.1798 14.161V12.7848C10.2834 13.0581 8.81982 14.6891 8.81982 16.66C8.81982 17.8374 9.34398 18.8924 10.1683 19.6115C10.6913 19.8705 11.2777 20.02 11.8998 20.02C14.0614 20.02 15.8198 18.2616 15.8198 16.1Z" fill="white"/>
<path d="M10.1683 19.7515C10.1473 19.7515 10.1263 19.7468 10.1062 19.737C8.7084 19.0451 7.83984 17.6515 7.83984 16.1C7.83984 13.8614 9.66124 12.04 11.8998 12.04C11.9978 12.04 12.0944 12.044 12.1905 12.0512C12.2636 12.0566 12.3198 12.1173 12.3198 12.1907V12.7848C12.3198 12.8546 12.2686 12.9134 12.1997 12.9234C10.3528 13.1892 8.95984 14.7958 8.95984 16.66C8.95984 17.7476 9.43388 18.785 10.2607 19.506C10.3134 19.5524 10.3243 19.6306 10.2851 19.6891C10.2582 19.7294 10.214 19.7515 10.1683 19.7515ZM11.8998 12.32C9.81552 12.32 8.11984 14.0157 8.11984 16.1C8.11984 17.1828 8.57428 18.183 9.35072 18.8874C8.91728 18.2308 8.67984 17.4583 8.67984 16.66C8.67984 14.6981 10.116 13.0021 12.0398 12.6653V12.3228C11.9934 12.3209 11.9469 12.32 11.8998 12.32Z" fill="#1F212B"/>
<path d="M12.7402 18.76C12.141 18.76 11.5681 18.5005 11.1682 18.048C11.1265 18.0004 11.1215 17.9307 11.1568 17.8777C11.192 17.8248 11.2584 17.803 11.318 17.8226C11.5087 17.8873 11.7044 17.92 11.9002 17.92C12.9037 17.92 13.7202 17.1035 13.7202 16.1V7.42003C13.7202 7.34275 13.7829 7.28003 13.8602 7.28003H15.8283C15.8991 7.28003 15.9588 7.33267 15.9672 7.40295C15.9898 7.58635 16.024 7.76891 16.0691 7.94559C16.0797 7.98731 16.0705 8.03183 16.0439 8.06599C16.0173 8.10015 15.977 8.12003 15.9336 8.12003H14.8402V16.66C14.8402 17.8181 13.8982 18.76 12.7402 18.76ZM11.7677 18.1958C12.0567 18.3795 12.3935 18.48 12.7402 18.48C13.7437 18.48 14.5602 17.6635 14.5602 16.66V7.98003C14.5602 7.90275 14.6229 7.84003 14.7002 7.84003H15.7569C15.7373 7.74763 15.7202 7.65411 15.7059 7.56003H14.0002V16.1C14.0002 17.2581 13.0582 18.2 11.9002 18.2C11.8562 18.2 11.812 18.1986 11.7677 18.1958Z" fill="#1F212B"/>
<path d="M19.1802 11.077C19.1684 11.077 19.1567 11.0756 19.1449 11.0725C18.5387 10.9149 18.019 10.6379 17.6007 10.2493C17.5503 10.2025 17.5416 10.1258 17.58 10.0687C17.6186 10.0113 17.6925 9.99114 17.7553 10.0197C18.4791 10.356 19.1519 10.3599 19.1802 10.3599C19.2575 10.3599 19.3202 10.4226 19.3202 10.4999V10.937C19.3202 10.9804 19.3003 11.0213 19.2659 11.0479C19.2412 11.0666 19.2107 11.077 19.1802 11.077ZM18.5843 10.5755C18.7288 10.6433 18.8811 10.7021 19.0402 10.7513V10.6346C18.9338 10.6276 18.7759 10.6116 18.5843 10.5755Z" fill="#1F212B"/>
<path d="M17.6959 10.2867C17.676 10.2867 17.6559 10.2825 17.6368 10.2738C16.6999 9.83817 16.0641 9.05697 15.7978 8.01481C15.7871 7.97281 15.7964 7.92829 15.823 7.89413C15.8496 7.85997 15.8902 7.84009 15.9333 7.84009H16.668C16.7386 7.84009 16.7982 7.89273 16.8069 7.96273C16.9155 8.83773 17.2465 9.53801 17.7914 10.0442C17.8418 10.091 17.8505 10.1677 17.8121 10.2248C17.7855 10.2646 17.7413 10.2867 17.6959 10.2867ZM16.1178 8.12009C16.3007 8.71789 16.6129 9.20425 17.0499 9.57385C16.7971 9.15805 16.6283 8.67197 16.5457 8.12009H16.1178Z" fill="#1F212B"/>
<path d="M12.7399 20.7199C11.7636 20.7199 10.8177 20.3637 10.0763 19.7169C10.0234 19.6705 10.0127 19.5921 10.0519 19.5335C10.0911 19.475 10.1681 19.4546 10.2306 19.4859C10.7584 19.7475 11.3198 19.8799 11.8999 19.8799C13.9842 19.8799 15.6799 18.1842 15.6799 16.0999V11.2845C15.6799 11.231 15.7104 11.182 15.7586 11.1585C15.8065 11.1349 15.8642 11.1411 15.9062 11.1741C16.9279 11.9749 18.1672 12.2871 19.0396 12.3174V10.9367C19.0396 10.8933 19.0595 10.8524 19.094 10.8258C19.1278 10.7992 19.1721 10.7903 19.2149 10.8012C19.6654 10.9185 20.0056 10.9199 20.0199 10.9199C20.0972 10.9199 20.1599 10.9826 20.1599 11.0599V13.0199C20.1599 13.0972 20.0972 13.1599 20.0199 13.1599C19.1578 13.1599 17.888 12.8835 16.7999 12.1222V16.6599C16.7999 18.8985 14.9785 20.7199 12.7399 20.7199ZM11.1638 20.0921C11.6555 20.3195 12.1925 20.4399 12.7399 20.4399C14.8242 20.4399 16.5199 18.7442 16.5199 16.6599V11.9055C16.3298 11.8041 16.1422 11.6899 15.9599 11.5622V16.0999C15.9599 18.3385 14.1385 20.1599 11.8999 20.1599C11.651 20.1599 11.4052 20.1372 11.1638 20.0921ZM17.9944 12.4554C18.6712 12.734 19.3446 12.8586 19.8799 12.8774V11.1943C19.7556 11.1859 19.5585 11.1652 19.3199 11.1139V12.4599C19.3199 12.5372 19.2572 12.5999 19.1799 12.5999C18.8369 12.5999 18.4292 12.5562 17.9944 12.4554Z" fill="#1F212B"/>
<path d="M11.2729 18.0953C11.2578 18.0953 11.2429 18.0928 11.2281 18.0881C10.3738 17.7983 9.7998 16.9994 9.7998 16.1001C9.7998 14.942 10.7417 14.0001 11.8998 14.0001C11.9457 14.0001 11.9925 14.0017 12.0398 14.0051V12.7849C12.0398 12.7151 12.091 12.6563 12.1599 12.6463C12.4996 12.5973 12.7608 12.5908 13.0304 12.6113C13.1035 12.6166 13.1598 12.6773 13.1598 12.7507V14.7211C13.1598 14.7617 13.1422 14.8003 13.1114 14.8269C13.0806 14.8538 13.0394 14.8655 12.9996 14.8594C12.9112 14.8465 12.8241 14.8401 12.7398 14.8401C11.7363 14.8401 10.9198 15.6565 10.9198 16.6601C10.9198 17.1016 11.0825 17.5286 11.3779 17.8627C11.4196 17.91 11.4246 17.98 11.3894 18.0329C11.3628 18.0727 11.3188 18.0953 11.2729 18.0953ZM11.8998 14.2801C10.8963 14.2801 10.0798 15.0965 10.0798 16.1001C10.0798 16.7049 10.3794 17.2573 10.8599 17.5919C10.716 17.3038 10.6398 16.9854 10.6398 16.6601C10.6398 15.502 11.5817 14.5601 12.7398 14.5601C12.7857 14.5601 12.8325 14.5617 12.8798 14.5651V12.8829C12.7045 12.8764 12.5292 12.882 12.3198 12.9075V14.1611C12.3198 14.2017 12.3022 14.2403 12.2714 14.2669C12.2406 14.2938 12.2002 14.305 12.1596 14.2994C12.0712 14.2865 11.9841 14.2801 11.8998 14.2801Z" fill="#1F212B"/>
<path d="M11.9002 20.1601C11.2763 20.1601 10.6729 20.0178 10.1068 19.737C10.0959 19.7314 10.0861 19.725 10.0768 19.7171C9.18922 18.9429 8.68018 17.8285 8.68018 16.6601C8.68018 14.6575 10.1762 12.9322 12.1603 12.6463C12.2006 12.6404 12.2415 12.6527 12.2717 12.679C12.3025 12.7056 12.3202 12.7443 12.3202 12.7849V14.1611C12.3202 14.2017 12.3025 14.2403 12.2717 14.2669C12.2409 14.2938 12.2006 14.305 12.16 14.2994C12.0715 14.2865 11.9845 14.2801 11.9002 14.2801C10.8967 14.2801 10.0802 15.0966 10.0802 16.1001C10.0802 16.8793 10.5775 17.5718 11.3181 17.8226C11.3413 17.8305 11.362 17.8442 11.3783 17.8627C11.7249 18.255 12.2211 18.4801 12.7402 18.4801C13.7437 18.4801 14.5602 17.6636 14.5602 16.6601V7.98009C14.5602 7.90281 14.6229 7.84009 14.7002 7.84009H15.9336C15.9977 7.84009 16.0534 7.88349 16.0691 7.94537C16.3175 8.91725 16.8847 9.61501 17.755 10.0199C17.7684 10.026 17.7805 10.0344 17.7914 10.0442C18.175 10.401 18.6541 10.6558 19.2152 10.8016C19.2771 10.8176 19.3202 10.8733 19.3202 10.9372V12.4601C19.3202 12.5374 19.2575 12.6001 19.1802 12.6001C18.3181 12.6001 17.0483 12.3237 15.9602 11.5624V16.1001C15.9602 18.3387 14.1388 20.1601 11.9002 20.1601ZM10.2473 19.4942C10.7701 19.7502 11.3259 19.8801 11.9002 19.8801C13.9845 19.8801 15.6802 18.1844 15.6802 16.1001V11.2846C15.6802 11.2312 15.7107 11.1822 15.7589 11.1586C15.8067 11.1351 15.8644 11.1413 15.9064 11.1743C16.9281 11.9751 18.1674 12.2873 19.0399 12.3176V11.0438C18.4858 10.8848 18.0078 10.623 17.6169 10.2643C16.7229 9.84181 16.1058 9.10233 15.8261 8.12009H14.8402V16.6601C14.8402 17.8182 13.8983 18.7601 12.7402 18.7601C12.1533 18.7601 11.5916 18.5112 11.1932 18.0758C10.3582 17.7764 9.80018 16.9871 9.80018 16.1001C9.80018 14.942 10.7421 14.0001 11.9002 14.0001C11.9461 14.0001 11.9929 14.0018 12.0402 14.0051V12.9501C10.2731 13.283 8.96018 14.8502 8.96018 16.6601C8.96018 17.7417 9.42918 18.7735 10.2473 19.4942Z" fill="#1F212B"/>
<path d="M6.30016 9.51991C6.22288 9.51991 6.16016 9.45719 6.16016 9.37991C6.16016 7.60443 7.60468 6.15991 9.38016 6.15991H10.2202C10.2974 6.15991 10.3602 6.22263 10.3602 6.29991C10.3602 6.37719 10.2974 6.43991 10.2202 6.43991H9.38016C7.75896 6.43991 6.44016 7.75871 6.44016 9.37991C6.44016 9.45719 6.37744 9.51991 6.30016 9.51991Z" fill="#1F212B"/>
<path d="M21.6858 19.04C21.6813 19.04 21.6771 19.04 21.6726 19.0394C21.5959 19.0324 21.5388 18.9641 21.546 18.8871C21.5542 18.7989 21.5598 18.7101 21.5598 18.62C21.5598 18.5427 21.6225 18.48 21.6998 18.48C21.777 18.48 21.8398 18.5427 21.8398 18.62C21.8398 18.7188 21.8339 18.8163 21.8249 18.9129C21.8182 18.9854 21.7572 19.04 21.6858 19.04Z" fill="#1F212B"/>
<path d="M18.62 21.8399C18.5427 21.8399 18.48 21.7772 18.48 21.6999C18.48 21.6226 18.5427 21.5599 18.62 21.5599C19.3695 21.5599 20.0844 21.2752 20.6335 20.758C20.6897 20.7048 20.7782 20.7073 20.8314 20.7639C20.8843 20.8202 20.8818 20.9089 20.8255 20.9618C20.2241 21.528 19.4412 21.8399 18.62 21.8399Z" fill="#1F212B"/>
<path d="M21.1995 20.44C21.1732 20.44 21.1468 20.4327 21.123 20.4173C21.0584 20.3751 21.0402 20.2883 21.0822 20.2236C21.2429 19.9775 21.3655 19.7078 21.4462 19.4219C21.4672 19.3475 21.5453 19.3038 21.6189 19.3253C21.6937 19.3463 21.7368 19.4239 21.7158 19.4981C21.6273 19.8111 21.4929 20.1065 21.3168 20.3765C21.2899 20.4176 21.2451 20.44 21.1995 20.44Z" fill="#1F212B"/>
<path d="M19.3198 23.24H8.67977C6.51817 23.24 4.75977 21.4816 4.75977 19.32V8.68001C4.75977 6.51841 6.51817 4.76001 8.67977 4.76001H19.3198C21.4814 4.76001 23.2398 6.51841 23.2398 8.68001V19.32C23.2398 21.4816 21.4814 23.24 19.3198 23.24ZM8.67977 5.32001C6.82701 5.32001 5.31977 6.82725 5.31977 8.68001V19.32C5.31977 21.1728 6.82701 22.68 8.67977 22.68H19.3198C21.1725 22.68 22.6798 21.1728 22.6798 19.32V8.68001C22.6798 6.82725 21.1725 5.32001 19.3198 5.32001H8.67977Z" fill="#1F212B"/>
</svg>
