<svg width="28" height="28" viewBox="0 0 28 28" fill="none" xmlns="http://www.w3.org/2000/svg">
<path d="M8.12012 4.19995H9.24012L10.0451 7.10495H10.1151L10.9201 4.19995H12.0401L10.6401 8.67995V11.48H9.52012V8.67995L8.12012 4.19995Z" fill="#1F212B"/>
<path d="M14.6978 6.43722C14.4175 6.15918 14.0597 6.02002 13.6206 6.02002C13.1371 6.02002 12.7552 6.15246 12.4704 6.41734C12.1834 6.67774 12.04 7.03334 12.04 7.47462V9.88598C12.04 10.3715 12.1792 10.7601 12.4572 11.0471C12.7375 11.3344 13.1063 11.48 13.5722 11.48C14.0558 11.48 14.4332 11.3409 14.7068 11.0606C14.9806 10.7803 15.1172 10.3961 15.1172 9.90614V7.50794C15.1172 7.07086 14.9784 6.7133 14.6978 6.43722ZM14 10.08C14 10.3119 13.8119 10.5 13.58 10.5C13.3482 10.5 13.16 10.3119 13.16 10.08C13.16 9.8997 13.16 7.60034 13.16 7.42002C13.16 7.18818 13.3482 7.00002 13.58 7.00002C13.8119 7.00002 14 7.18818 14 7.42002C14 7.60034 14 9.8997 14 10.08Z" fill="#1F212B"/>
<path d="M17.92 6.15991V10.137C17.7408 10.3235 17.5095 10.4999 17.325 10.4999C17.1897 10.4999 17.08 10.3902 17.08 10.2549V6.15991H15.96C15.96 6.15991 15.96 10.4568 15.96 10.7626C15.96 11.1588 16.2811 11.4799 16.6773 11.4799C17.1376 11.4799 17.6164 11.1915 17.92 10.8398V11.4799H19.04V6.15991H17.92Z" fill="#1F212B"/>
<path d="M5.87988 18.0601C5.87988 19.6701 5.93168 21.1359 6.02324 21.5601C6.1218 22.0168 6.33684 22.4317 6.6524 22.7473C6.96824 23.0631 7.38264 23.2779 7.8396 23.3765C8.50488 23.5201 11.7599 23.5201 13.9996 23.5201C16.2396 23.5201 19.4949 23.5201 20.1599 23.3765C20.6166 23.2779 21.0312 23.0629 21.3471 22.7473C21.6629 22.4315 21.8777 22.0168 21.9762 21.5601C22.0681 21.1356 22.1199 19.6704 22.1199 18.0601H22.1196C22.1196 16.4501 22.0681 14.9846 21.9765 14.5604C21.878 14.1037 21.6629 13.689 21.3474 13.3732C21.0318 13.0573 20.6171 12.8426 20.1602 12.744C19.4949 12.6001 16.2396 12.6001 13.9996 12.6001C11.7596 12.6001 8.5046 12.6001 7.8396 12.7437C7.38292 12.8423 6.96824 13.0573 6.6524 13.3729C6.33656 13.6885 6.1218 14.1034 6.02324 14.5601C5.93168 14.9846 5.87988 16.4501 5.87988 18.0601Z" fill="#F15B6C"/>
<path d="M14.0645 23.8001C14.0211 23.8001 13.9783 23.8001 13.9354 23.8001C11.0497 23.8001 8.41802 23.7881 7.78102 23.6503C7.26274 23.5383 6.8041 23.2944 6.45522 22.9453C6.10578 22.5961 5.86218 22.1375 5.75018 21.6195C5.63958 21.1082 5.6001 19.4455 5.6001 18.0601C5.6001 16.6747 5.63958 15.0123 5.7499 14.5013C5.8619 13.983 6.10578 13.5244 6.45494 13.1752C6.8041 12.8261 7.26246 12.5825 7.78074 12.4702C8.42306 12.3313 11.0912 12.3193 14.0001 12.3201C14.0219 12.3201 14.0441 12.3201 14.0656 12.3201C16.9513 12.3201 19.5822 12.3321 20.2195 12.4699C20.7377 12.5819 21.1964 12.8258 21.5453 13.1749C21.8944 13.5241 22.1383 13.9827 22.2503 14.501C22.3606 15.0115 22.3998 16.6741 22.3998 18.0598C22.4001 19.3811 22.3612 21.1062 22.2503 21.6192C22.1383 22.1375 21.8944 22.5958 21.5453 22.945C21.1961 23.2941 20.7377 23.538 20.2195 23.65C19.5822 23.7881 16.9502 23.8001 14.0645 23.8001ZM14.0001 23.2401C16.0452 23.2393 19.4646 23.2404 20.101 23.1029C20.514 23.0136 20.8766 22.8223 21.1493 22.5493C21.4223 22.2763 21.6139 21.9137 21.7029 21.501C21.7849 21.1213 21.8401 19.7384 21.8401 18.0601C21.8398 16.3804 21.7847 14.9975 21.7029 14.6192C21.6139 14.2062 21.4223 13.8436 21.1493 13.5706C20.8763 13.2976 20.514 13.1063 20.101 13.017C19.4643 12.8801 16.0441 12.8787 14.0001 12.8801C11.9586 12.8821 8.53618 12.8801 7.89946 13.0173C7.48646 13.1063 7.12386 13.2979 6.85114 13.5709C6.57814 13.8439 6.38662 14.2065 6.29758 14.6195C6.21526 14.9989 6.1601 16.3815 6.1601 18.0601C6.1601 19.7387 6.21526 21.1213 6.2973 21.501C6.38634 21.914 6.57786 22.2763 6.85086 22.5493C7.12386 22.8223 7.48618 23.0136 7.89918 23.1029C8.5359 23.2404 11.9561 23.2409 14.0001 23.2401Z" fill="#1F212B"/>
<path d="M10.64 14.28H7.28003V15.4182H8.40003V21.56H9.52003V15.4182H10.64V14.28Z" fill="white"/>
<path d="M12.5999 16.24V20.055C12.5999 20.055 12.2499 20.44 11.9699 20.44C11.854 20.44 11.7599 20.3459 11.7599 20.23V16.24H10.6399C10.6399 16.24 10.6399 20.5803 10.6399 20.7376C10.6399 21.1918 11.0081 21.56 11.4623 21.56C11.9581 21.56 12.3535 21.2369 12.5999 21V21.56H13.7199V16.24H12.5999Z" fill="white"/>
<path d="M16.2051 16.1C16.0149 16.1 15.8383 16.1504 15.6801 16.2316V14.28H14.5601V21.56H15.6801V21.4284C15.8383 21.5096 16.0149 21.56 16.2051 21.56C16.8429 21.56 17.3601 21.0429 17.3601 20.405C17.3601 19.9887 17.3601 17.6708 17.3601 17.255C17.3601 16.6172 16.8429 16.1 16.2051 16.1ZM16.2401 20.4927C16.2401 20.6181 16.1381 20.72 16.0124 20.72C15.7851 20.72 15.6801 20.545 15.6801 20.545V17.255C15.6801 17.255 15.7851 17.08 16.0124 17.08C16.1381 17.08 16.2401 17.1819 16.2401 17.3077C16.2401 17.4149 16.2401 20.3846 16.2401 20.4927Z" fill="white"/>
<path d="M20.9999 19.0401C20.9999 18.5005 20.9999 17.9153 20.9999 17.6401C20.9999 16.7895 20.3106 16.1001 19.4599 16.1001C18.6093 16.1001 17.9199 16.7895 17.9199 17.6401C17.9199 18.1195 17.9199 19.5407 17.9199 20.0201C17.9199 20.8707 18.6093 21.5601 19.4599 21.5601C20.3106 21.5601 20.9999 20.8707 20.9999 20.0201C20.9999 19.9176 20.9999 19.7703 20.9999 19.6001H19.8799C19.8799 19.6001 19.8799 20.0683 19.8799 20.3001C19.8799 20.5319 19.6918 20.7201 19.4599 20.7201C19.2281 20.7201 19.0399 20.5319 19.0399 20.3001C19.0399 20.0683 19.0399 19.0401 19.0399 19.0401H20.9999ZM19.4599 17.0801C19.6918 17.0801 19.8799 17.2683 19.8799 17.5001C19.8799 17.5964 19.8799 18.2001 19.8799 18.2001H19.0399C19.0399 18.2001 19.0399 17.7319 19.0399 17.5001C19.0399 17.2683 19.2281 17.0801 19.4599 17.0801Z" fill="white"/>
</svg>
