<svg width="28" height="28" viewBox="0 0 28 28" fill="none" xmlns="http://www.w3.org/2000/svg">
<path d="M19.5891 22.8631H8.66908C6.82108 22.8631 5.30908 21.3511 5.30908 19.5031V8.58314C5.30908 6.73514 6.82108 5.22314 8.66908 5.22314H19.5891C21.4371 5.22314 22.9491 6.73514 22.9491 8.58314V19.5031C22.9491 21.3511 21.4371 22.8631 19.5891 22.8631Z" fill="#FDFCEE"/>
<path d="M19.5893 23.1431H8.6693C6.66226 23.1431 5.0293 21.5102 5.0293 19.5031V8.58312C5.0293 6.57608 6.66226 4.94312 8.6693 4.94312H19.5893C21.5963 4.94312 23.2293 6.57608 23.2293 8.58312V19.5031C23.2293 21.5102 21.5963 23.1431 19.5893 23.1431ZM8.6693 5.50312C6.9711 5.50312 5.5893 6.88492 5.5893 8.58312V19.5031C5.5893 21.2013 6.9711 22.5831 8.6693 22.5831H19.5893C21.2875 22.5831 22.6693 21.2013 22.6693 19.5031V8.58312C22.6693 6.88492 21.2875 5.50312 19.5893 5.50312H8.6693Z" fill="#1F212B"/>
<path d="M21.6888 13.4832V18.7088C21.6888 20.3006 20.3863 21.6032 18.7945 21.6032H9.46321C7.87141 21.6032 6.56885 20.3006 6.56885 18.7088V9.37751C6.56885 7.78571 7.87141 6.48315 9.46321 6.48315H18.8888" fill="#FDFCEE"/>
<path d="M18.7948 21.7431H9.46356C7.79028 21.7431 6.4292 20.382 6.4292 18.7087V9.37713C6.4292 7.70385 7.79028 6.34277 9.46356 6.34277H18.8892C18.9665 6.34277 19.0292 6.40549 19.0292 6.48277C19.0292 6.56005 18.9665 6.62277 18.8892 6.62277H9.46356C7.94484 6.62277 6.7092 7.85841 6.7092 9.37713V18.7084C6.7092 20.2271 7.94484 21.4628 9.46356 21.4628H18.7948C20.3136 21.4628 21.5492 20.2271 21.5492 18.7084V13.4831C21.5492 13.4058 21.6119 13.3431 21.6892 13.3431C21.7665 13.3431 21.8292 13.4058 21.8292 13.4831V18.7087C21.8292 20.3817 20.4678 21.7431 18.7948 21.7431Z" fill="#1F212B"/>
<path d="M21.6893 13.0632C21.612 13.0632 21.5493 13.0005 21.5493 12.9232V11.8032C21.5493 11.7259 21.612 11.6632 21.6893 11.6632C21.7666 11.6632 21.8293 11.7259 21.8293 11.8032V12.9232C21.8293 13.0005 21.7666 13.0632 21.6893 13.0632ZM21.6893 11.3832C21.612 11.3832 21.5493 11.3205 21.5493 11.2432V10.6832C21.5493 10.6059 21.612 10.5432 21.6893 10.5432C21.7666 10.5432 21.8293 10.6059 21.8293 10.6832V11.2432C21.8293 11.3205 21.7666 11.3832 21.6893 11.3832Z" fill="#1F212B"/>
<path d="M17.8585 11.2066C17.7546 10.9392 17.6163 10.7124 17.3895 10.4859C17.1629 10.2594 16.9361 10.1208 16.6687 10.0169C16.4106 9.9161 16.1118 9.84694 15.6806 9.82818C15.2463 9.80942 15.1077 9.80298 14.0001 9.80298C12.8924 9.80298 12.7538 9.80606 12.3195 9.82818C11.8852 9.84694 11.5893 9.91638 11.3314 10.0169C11.064 10.1208 10.8372 10.2591 10.6107 10.4859C10.3841 10.7124 10.2455 10.9392 10.1417 11.2066C10.0409 11.4648 9.97169 11.7635 9.95293 12.1947C9.93417 12.629 9.92773 12.7676 9.92773 13.8753C9.92773 14.983 9.93081 15.1216 9.95293 15.5559C9.97169 15.9901 10.0411 16.2861 10.1417 16.544C10.2455 16.8114 10.3839 17.0382 10.6107 17.2647C10.8372 17.4912 11.064 17.6298 11.3314 17.7337C11.5895 17.8345 11.8883 17.9037 12.3195 17.9224C12.7538 17.9412 12.8924 17.9476 14.0001 17.9476C15.1077 17.9476 15.2463 17.9445 15.6806 17.9224C16.1149 17.9037 16.4109 17.8342 16.6687 17.7337C16.9361 17.6298 17.1629 17.4915 17.3895 17.2647C17.616 17.0382 17.7546 16.8114 17.8585 16.544C17.9593 16.2858 18.0284 15.9871 18.0472 15.5559C18.0659 15.1216 18.0724 14.983 18.0724 13.8753C18.0724 12.7676 18.0693 12.629 18.0472 12.1947C18.0284 11.7605 17.9593 11.4645 17.8585 11.2066Z" fill="#E050C9"/>
<path d="M14.0002 18.088C12.8945 18.088 12.7497 18.0818 12.3196 18.0628C11.9047 18.0446 11.5858 17.9835 11.2806 17.8642C10.977 17.7466 10.7399 17.5921 10.5117 17.3639C10.2835 17.1357 10.1292 16.8985 10.011 16.595C9.89176 16.2895 9.83072 15.9709 9.8128 15.5621C9.79068 15.1261 9.7876 14.9898 9.7876 13.8756C9.7876 12.771 9.79376 12.6263 9.81252 12.1962C9.83072 11.7798 9.89176 11.4612 10.011 11.156C10.1289 10.8525 10.2832 10.6153 10.5114 10.3871C10.7393 10.1589 10.9768 10.0047 11.2803 9.88677C11.5858 9.76749 11.9044 9.70617 12.3132 9.68853C12.7492 9.66641 12.8855 9.66333 13.9999 9.66333C15.1045 9.66333 15.2493 9.66949 15.6794 9.68825C16.0957 9.70645 16.4144 9.76749 16.7196 9.88677C17.0228 10.0047 17.2602 10.1589 17.4884 10.3871C17.7166 10.615 17.8709 10.8522 17.9888 11.156C18.1081 11.4618 18.1694 11.7801 18.187 12.1889C18.2094 12.6246 18.2125 12.7607 18.2125 13.8756C18.2125 14.9811 18.2064 15.1261 18.1873 15.5562C18.1691 15.9712 18.1081 16.2901 17.9888 16.5953C17.8712 16.8985 17.7166 17.136 17.4884 17.3642C17.2602 17.5924 17.0231 17.7469 16.7193 17.8648C16.4138 17.9841 16.0952 18.0451 15.6866 18.0631C15.251 18.0849 15.1149 18.088 14.0002 18.088ZM14.0002 9.94305C12.8922 9.94305 12.7576 9.94613 12.3266 9.96797C11.9489 9.98449 11.658 10.0397 11.3822 10.1475C11.1162 10.2508 10.909 10.3857 10.7096 10.5848C10.5103 10.7839 10.3756 10.9914 10.2723 11.2571C10.1648 11.5326 10.1093 11.8238 10.0928 12.2007C10.074 12.6333 10.0679 12.7766 10.0679 13.8751C10.0679 14.9828 10.071 15.1177 10.0928 15.5486C10.1093 15.9264 10.1645 16.2173 10.2723 16.4931C10.3756 16.7588 10.5106 16.9663 10.7096 17.1656C10.909 17.365 11.1165 17.5 11.3819 17.603C11.6577 17.7108 11.9486 17.766 12.3258 17.7825C12.7576 17.8012 12.9009 17.8077 14.0002 17.8077C15.1082 17.8077 15.2428 17.8046 15.6738 17.7825C16.0515 17.766 16.3424 17.7108 16.6182 17.603C16.8839 17.5 17.0911 17.365 17.2908 17.1656C17.4904 16.9663 17.6251 16.7588 17.7281 16.4934C17.8359 16.2176 17.8911 15.9267 17.9076 15.5495C17.9264 15.1177 17.9328 14.9744 17.9328 13.8751C17.9328 12.7668 17.9297 12.6322 17.9076 12.2015C17.8911 11.8238 17.8359 11.5329 17.7281 11.2571C17.7281 11.2571 17.7281 11.2571 17.7281 11.2568C17.6251 10.9914 17.4901 10.7839 17.2908 10.5845C17.0914 10.3852 16.8839 10.2502 16.6185 10.1472C16.3427 10.0394 16.0518 9.98421 15.6749 9.96769C15.242 9.94921 15.0986 9.94305 14.0002 9.94305Z" fill="#1F212B"/>
<path d="M13.9968 11.7827C12.8418 11.7827 11.9038 12.7204 11.9038 13.8757C11.9038 15.031 12.8415 15.9687 13.9968 15.9687C15.1521 15.9687 16.0898 15.031 16.0898 13.8757C16.0898 12.7204 15.1518 11.7827 13.9968 11.7827Z" fill="#FDFCEE"/>
<path d="M13.9972 16.1083C12.766 16.1083 11.7642 15.1067 11.7642 13.8756C11.7642 12.6444 12.766 11.6426 13.9972 11.6426C15.2283 11.6426 16.2299 12.6441 16.2299 13.8756C16.2299 15.1065 15.2283 16.1083 13.9972 16.1083ZM13.9972 11.9226C12.9203 11.9226 12.0442 12.7987 12.0442 13.8756C12.0442 14.9525 12.9203 15.8283 13.9972 15.8283C15.074 15.8283 15.9499 14.9525 15.9499 13.8756C15.9499 12.7987 15.074 11.9226 13.9972 11.9226Z" fill="#1F212B"/>
<path d="M16.2485 11.0713C16.1844 11.0713 16.121 11.0839 16.0618 11.1084C16.0027 11.1329 15.9489 11.1689 15.9036 11.2142C15.8583 11.2594 15.8224 11.3132 15.7979 11.3724C15.7734 11.4316 15.7607 11.495 15.7607 11.559C15.7607 11.6231 15.7734 11.6865 15.7979 11.7457C15.8224 11.8049 15.8583 11.8587 15.9036 11.9039C15.9489 11.9492 16.0027 11.9852 16.0618 12.0097C16.121 12.0342 16.1844 12.0468 16.2485 12.0468C16.3126 12.0468 16.376 12.0342 16.4352 12.0097C16.4943 11.9852 16.5481 11.9492 16.5934 11.9039C16.6387 11.8587 16.6746 11.8049 16.6991 11.7457C16.7236 11.6865 16.7363 11.6231 16.7363 11.559C16.7363 11.495 16.7236 11.4316 16.6991 11.3724C16.6746 11.3132 16.6387 11.2594 16.5934 11.2142C16.5481 11.1689 16.4943 11.1329 16.4352 11.1084C16.376 11.0839 16.3126 11.0713 16.2485 11.0713Z" fill="#FDFCEE"/>
<path d="M16.2484 12.1867C15.9023 12.1867 15.6206 11.905 15.6206 11.5589C15.6206 11.2128 15.9023 10.9312 16.2484 10.9312C16.5944 10.9312 16.8761 11.2128 16.8761 11.5589C16.8761 11.905 16.5947 12.1867 16.2484 12.1867ZM16.2484 11.2109C16.0566 11.2109 15.9006 11.3668 15.9006 11.5586C15.9006 11.7504 16.0566 11.9064 16.2484 11.9064C16.4402 11.9064 16.5961 11.7504 16.5961 11.5586C16.5961 11.3668 16.4404 11.2109 16.2484 11.2109Z" fill="#1F212B"/>
</svg>
