<svg width="28" height="28" viewBox="0 0 28 28" fill="none" xmlns="http://www.w3.org/2000/svg">
<path d="M26.2101 14.9656C25.5565 14.9656 25.0266 14.4358 25.0266 13.7822C25.0266 13.1286 25.5565 12.5987 26.2101 12.5987H27.6365C26.9665 6.03031 21.6395 0.819602 15.02 0.330383V1.57218C15.02 2.22577 14.4901 2.75562 13.8365 2.75562C13.1829 2.75562 12.6531 2.22577 12.6531 1.57218V0.358665C6.13154 0.997727 0.936777 6.22601 0.349043 12.7623H1.62654C2.28014 12.7623 2.80998 13.2921 2.80998 13.9457C2.80998 14.5993 2.28014 15.1291 1.62654 15.1291H0.339355C0.883496 21.7706 6.1824 27.0858 12.8167 27.6559V26.1556C12.8167 25.502 13.3465 24.9722 14.0001 24.9722C14.6537 24.9722 15.1836 25.502 15.1836 26.1556V27.6559C21.8722 27.0811 27.2033 21.6831 27.6732 14.9656H26.2101ZM18.7908 10.883L14.837 14.8368C14.6151 15.0587 14.3141 15.1834 14.0002 15.1834C13.6864 15.1834 13.3853 15.0587 13.1634 14.8368L6.28115 7.95452C5.81896 7.49241 5.81896 6.74312 6.28115 6.28093C6.74326 5.81874 7.49256 5.81874 7.95475 6.28093L14.0003 12.3264L17.1173 9.20937C17.5794 8.74718 18.3287 8.74718 18.7909 9.20937C19.2529 9.67148 19.2529 10.4209 18.7908 10.883Z" fill="#B80036"/>
</svg>
