<svg width="28" height="28" fill="none" xmlns="http://www.w3.org/2000/svg"><path d="M26.21 14.966a1.183 1.183 0 110-2.367h1.427C26.966 6.03 21.64.819 15.02.33v1.242a1.183 1.183 0 01-2.367 0V.36C6.132.998.937 6.226.35 12.762h1.278a1.183 1.183 0 110 2.367H.339c.544 6.642 5.843 11.957 12.478 12.527v-1.5a1.183 1.183 0 112.367 0v1.5c6.688-.575 12.02-5.973 12.49-12.69H26.21zm-7.42-4.083l-3.953 3.954a1.183 1.183 0 01-1.674 0L6.281 7.955A1.183 1.183 0 117.955 6.28L14 12.326l3.117-3.117a1.183 1.183 0 111.674 1.674z" fill="#B80036"/></svg>