<svg width="515" height="550" viewBox="0 0 515 550" fill="none" xmlns="http://www.w3.org/2000/svg">
<g clip-path="url(#clip0)">
<path d="M46.2709 35.7785C41.4915 54.1553 40.2591 73.2748 42.6398 92.1131C42.8215 97.6815 44.9932 103 48.7609 107.105C51.9448 109.564 55.7943 111.009 59.8099 111.254C80.98 113.508 100.994 101.154 108.467 81.2197C110.973 74.008 112.082 66.3851 111.735 58.7585C111.65 51.5029 110.28 44.3198 107.689 37.5422C101.891 23.0898 89.3305 12.4322 74.127 9.0637C70.2365 8.18185 63.7523 6.41815 60.2249 9.0637C52.392 14.6142 48.5534 26.96 46.2709 35.7785Z" fill="url(#paint0_linear)"/>
<path d="M71.1701 449.521C49.2795 462.178 49.3832 482.772 71.1701 495.481C96.1871 508.128 125.727 508.128 150.744 495.481L290.802 414.662L211.125 368.754L71.1701 449.521Z" fill="url(#paint1_linear)"/>
<path d="M61.1592 467.002C58.998 467.27 57.119 468.613 56.1661 470.571C55.2132 472.53 55.3157 474.837 56.4387 476.703C61.0958 487.6 70.7773 495.539 82.3754 497.971C95.7588 499.838 101.88 494.392 93.8913 484.069C85.9028 473.746 73.1419 463.008 70.652 463.683C68.1621 464.357 61.1592 467.002 61.1592 467.002Z" fill="url(#paint2_linear)"/>
<path d="M86.5766 351.74L74.3863 465.861C74.3863 465.861 93.0089 486.611 90.6227 488.322C88.2365 490.034 65.7753 488.841 60.1211 470.582L64.3747 356.149L86.5766 351.74Z" fill="#F9BFB5"/>
<path d="M99.5973 452.426C97.4626 452.812 95.6661 454.247 94.8191 456.245C93.9722 458.242 94.1889 460.531 95.3956 462.334C100.541 473.123 110.668 480.689 122.474 482.564C135.961 483.758 141.822 478.052 133.367 468.144C124.912 458.236 111.58 448.069 109.142 448.847C106.704 449.625 99.5973 452.426 99.5973 452.426Z" fill="url(#paint3_linear)"/>
<path d="M119.621 348.679L112.929 449.625C112.929 449.625 132.485 469.389 130.203 471.256C127.921 473.124 105.408 472.968 99.0789 454.968L97.834 354.126L119.621 348.679Z" fill="#F9BFB5"/>
<path d="M119.568 184.137C119.568 184.137 127.713 195.341 127.713 222.004C127.713 248.667 123.615 351.688 123.615 351.688C123.615 351.688 93.3723 363.256 72.3117 360.662C51.2511 358.068 52.3404 352.881 52.3404 352.881C55.3629 336.888 56.9255 320.654 57.009 304.379C56.0234 286.12 41.447 243.48 43.3144 221.382C43.7225 211.225 45.1123 201.132 47.4643 191.243L119.568 184.137Z" fill="url(#paint4_linear)"/>
<path d="M0.844686 179.225C1.08156 177.19 1.74677 174.821 2.95699 172.05C8.50745 159.341 26.3 117.012 33.0436 109.076C33.0436 109.076 37.7503 105.893 42.1198 105.496C61.2399 94.0282 98.5597 81.9459 98.5597 81.9459C98.5597 81.9459 102.554 79.2111 106.945 79.3909C107.156 79.3654 107.369 79.3522 107.586 79.3522C113.655 79.3522 124.704 85.7326 130.306 124.949C132.778 142.251 133.765 152.677 133.576 159.069C144.251 171.87 155.501 184.181 167.292 195.964C173.206 201.151 163.142 214.742 150.848 207.48C142.951 202.815 128.506 186.144 121.56 172.904C121.335 180.075 121.28 186.471 121.28 186.471C121.28 186.471 95.2398 202.448 68.0063 197.261C48.0869 193.214 47.2569 191.399 47.2569 191.399C49.8455 183.245 50.6764 174.635 49.695 166.136C49.2257 163.185 47.3749 158.993 45.0669 154.156C43.6414 157.464 41.9617 160.939 39.9946 164.58C34.349 175.029 29.8896 181.817 26.2472 186.137C36.2446 193.315 48.8927 202.046 56.6979 206.131C63.6489 209.866 57.0091 225.324 43.3145 221.122C29.6792 216.939 -5.81178 188.483 0.844686 179.225Z" fill="url(#paint5_linear)"/>
<path d="M165.684 197.261C165.684 197.261 175.229 195.704 176.785 197.572C178.341 199.439 173.258 201.203 173.258 201.203C176.487 202.673 179.328 204.875 181.558 207.635C183.736 211.163 180.728 220.811 175.955 219.203C171.183 217.595 162.779 211.163 161.69 206.079C161.275 202.625 162.814 199.226 165.684 197.261Z" fill="#F9BFB5"/>
<path d="M48.7611 162.817L35.0146 240.471L81.6489 251.209L94.6172 171.583L48.7611 162.817Z" fill="#0F0B5B"/>
<path d="M55.4015 207.895C55.4015 207.895 64.3237 204.16 66.2949 205.612C68.2661 207.065 63.6494 209.97 63.6494 209.97C67.0505 210.671 70.245 212.144 72.9866 214.275C75.8915 217.18 75.269 227.295 70.1854 226.777C65.1018 226.258 55.5571 222.056 53.2747 217.336C52.1702 214.038 52.9898 210.4 55.4015 207.895Z" fill="#F9BFB5"/>
<path d="M105.563 115.508C110.395 109.08 113.454 101.495 114.433 93.5136C119.487 69.6026 119.839 44.9365 115.47 20.8908C114.27 15.4183 110.357 10.9383 105.096 9.01179C102.247 8.4839 99.3154 9.30793 97.1591 11.2423C95.0221 13.185 93.2634 15.5066 91.9717 18.0896C84.9865 31.2497 81.52 45.9913 81.9083 60.8852C81.5012 63.6705 82.2095 66.504 83.8795 68.77C86.0063 71.0006 88.4962 72.868 90.5193 75.2542C94.9134 80.5683 98.4171 86.5596 100.894 92.9949C103.851 100.139 105.435 107.777 105.563 115.508Z" fill="url(#paint6_linear)"/>
<path d="M103.747 22.0839C103.747 22.0839 114.796 25.7669 113.707 45.1676C112.618 64.5683 113.707 75.6173 103.332 79.3003C92.9577 82.9834 74.1277 75.0986 67.851 65.1389C61.5743 55.1792 61.0556 26.0782 64.7386 25.2482C68.4216 24.4182 103.747 22.0839 103.747 22.0839Z" fill="#F9BFB5"/>
<path d="M85.6953 0.141443C72.3119 0.141443 57.0611 6.78124 52.7038 20.8908C49.1764 32.5623 49.5395 45.1676 45.7009 56.476C42.0476 67.2621 41.8302 78.9158 45.0784 89.8306C47.4187 97.5337 51.4406 104.621 56.8537 110.58C59.4534 113.512 62.377 116.139 65.5684 118.413C66.8952 119.508 68.2805 120.529 69.7183 121.473C71.2745 122.407 74.0756 122.459 75.3206 123.496C71.4941 121.09 68.631 117.419 67.2283 113.122C63.1034 100.446 62.002 86.9798 64.0122 73.8017C64.3278 66.5697 67.4106 59.7354 72.6232 54.7123C82.4791 45.4788 95.8106 41.1215 108.26 35.8304C110.75 34.7929 112.825 34.2223 114.122 31.8361C115.349 29.2338 115.851 26.3484 115.574 23.4845C115.036 18.0854 112.698 13.0243 108.935 9.11555C102.845 2.91283 94.3734 -0.358486 85.6953 0.141443Z" fill="url(#paint7_linear)"/>
<path d="M68.4734 61.404C68.4734 61.404 68.9921 90.2456 65.8278 92.5281C62.6636 94.8105 80.7155 107.675 91.194 100.361C101.672 93.0468 94.4101 87.3926 94.4101 87.3926L94.877 70.0669L68.4734 61.404Z" fill="#F9BFB5"/>
<path d="M183.943 493.665C162.001 506.323 162.157 526.864 183.943 539.625C208.96 552.273 238.5 552.273 263.517 539.625L403.576 458.806L323.898 412.898L183.943 493.665Z" fill="url(#paint8_linear)"/>
<path d="M154.168 211.163C154.168 211.163 148.981 196.638 145.298 195.912C141.615 195.186 143.015 203.589 143.015 203.589C138.592 200.387 133.503 198.224 128.127 197.261C121.591 196.949 110.387 208.361 116.3 213.808C122.214 219.255 137.361 225.998 145.298 223.716C153.234 221.434 154.168 211.163 154.168 211.163Z" fill="#ED90A5"/>
<path d="M217.868 511.977C222.724 515.623 225.4 521.482 224.975 527.539C224.829 530.426 223.285 533.061 220.837 534.599C218.39 536.138 215.346 536.387 212.681 535.268C208.5 532.62 203.822 530.855 198.935 530.081C192.762 530.081 178.963 530.703 173.88 525.983C168.796 521.262 163.505 512.184 168.692 509.02C173.88 505.856 191.205 503.833 201.736 505.959C207.506 506.692 213.028 508.752 217.868 511.977Z" fill="url(#paint9_linear)"/>
<path d="M308.855 489.879C313.71 493.525 316.386 499.384 315.961 505.441C315.85 508.341 314.335 511.006 311.899 512.585C309.464 514.164 306.412 514.459 303.719 513.377C299.553 510.701 294.869 508.934 289.973 508.19C283.8 508.19 270.001 508.761 264.918 504.04C259.834 499.32 254.543 490.242 259.73 487.077C264.918 483.913 282.244 482.15 292.774 484.017C298.506 484.739 304.002 486.743 308.855 489.879Z" fill="url(#paint10_linear)"/>
<path d="M291.841 267.653C289.302 273.3 286.337 278.745 282.97 283.941C280.065 287.365 275.864 300.644 280.999 301.786C286.135 302.927 293.916 309.93 297.495 300.852C300.388 290.362 302.333 279.632 303.305 268.794L291.841 267.653Z" fill="#ED90A5"/>
<path d="M285.615 277.561L302.007 285.757C302.007 285.757 335.258 220.448 330.434 206.857C325.61 193.266 322.393 197.364 315.702 205.301C309.01 213.238 285.615 277.561 285.615 277.561Z" fill="url(#paint11_linear)"/>
<path d="M274.93 136.776C264.296 142.327 259.108 157.162 280.895 180.661C302.682 204.16 309.166 212.823 315.858 215.624C322.55 218.425 336.192 214.223 328.774 202.604C321.357 190.984 284.838 131.641 274.93 136.776Z" fill="url(#paint12_linear)"/>
<path d="M297.391 282.748L301.904 400.501L308.596 495.896C308.596 495.896 293.604 507.412 289.558 495.896C285.512 484.38 271.921 404.754 271.921 404.754L252.676 326.425L226.221 400.345L216.572 513.066C216.572 513.066 202.774 522.3 198.728 513.066C196.653 508.397 196.03 400.604 196.03 400.604L209.465 294.16L297.391 282.748Z" fill="url(#paint13_linear)"/>
<path d="M218.595 90.1938C218.595 90.1938 207.339 125.312 222.33 139.162C237.321 153.012 260.665 133.664 262.688 127.335C264.711 121.007 273.633 84.6952 255.788 79.8191C237.944 74.943 218.595 90.1938 218.595 90.1938Z" fill="#ED90A5"/>
<path d="M154.272 208.828C154.272 208.828 199.506 238.656 204.849 247.889L205.212 248.46C204.676 248.741 204.353 249.308 204.382 249.912C204.463 253.524 203.311 257.056 201.114 259.924C199.869 261.376 198.468 262.621 197.379 264.125C181.817 266.408 139.592 225.48 139.592 225.48L154.272 208.828Z" fill="url(#paint14_linear)"/>
<path d="M218.855 163.75L269.016 137.814C269.016 137.814 293.397 135.012 295.679 163.18C297.495 184.811 293.345 206.546 292.774 234.973C293.197 251.169 295.265 267.281 298.947 283.059C298.947 283.059 268.446 304.379 249.979 306.195C231.512 308.01 209.102 293.538 209.102 293.538C209.102 293.538 205.627 197.261 205.627 186.886C205.352 177.304 210.458 168.374 218.855 163.75Z" fill="url(#paint15_linear)"/>
<path d="M231.615 170.286C220.826 161.209 204.745 162.35 195.771 196.638C186.797 230.926 182.751 241.872 183.892 250.379C185.033 258.886 196.341 271.803 202.566 258.523C208.791 245.243 241.679 178.742 231.615 170.286Z" fill="url(#paint16_linear)"/>
<path d="M266.215 143.883C263.267 148.776 258.668 152.455 253.246 154.257C248.291 155.168 243.211 155.168 238.255 154.257L235.609 131.174L260.872 120.228L266.215 143.883Z" fill="#ED90A5"/>
<path d="M215.275 78.8853C215.275 78.8853 205.367 90.6087 222.537 99.116L228.295 102.125C228.295 102.125 234.001 125.364 244.531 131.848C255.062 138.332 260.093 142.223 265.281 138.799C270.468 135.376 274.825 121.629 277.263 115.197C279.701 108.764 281.413 92.113 275.033 82.4646C266.318 69.2369 224.301 68.0956 215.275 78.8853Z" fill="url(#paint17_linear)"/>
<path d="M228.555 114.885C228.555 114.885 229.229 103.577 235.402 106.223C241.575 108.868 244.324 115.508 231.978 123.963C219.632 132.419 228.555 114.885 228.555 114.885Z" fill="#ED90A5"/>
<path d="M533.046 310.561L475.235 343.824L369.722 282.619L427.532 249.381L533.046 310.561Z" fill="url(#paint18_linear)"/>
<path d="M483.139 335.008C484.325 335.407 485.124 336.518 485.124 337.769C485.124 339.02 484.325 340.132 483.139 340.531L419.553 377.467C416.551 378.988 413.004 378.988 410.002 377.467L345.985 340.531C344.799 340.132 344 339.02 344 337.769C344 336.518 344.799 335.407 345.985 335.008L409.597 298.047C412.598 296.525 416.145 296.525 419.147 298.047L483.139 335.008Z" fill="#7FAAEF"/>
<path d="M481.467 275.272L419.426 311.321C416.51 312.827 413.045 312.827 410.128 311.321L347.707 275.272C346.613 274.79 345.866 273.752 345.756 272.561L345.579 337.541C345.689 338.724 346.424 339.758 347.504 340.252L409.875 376.301C412.8 377.77 416.247 377.77 419.172 376.301L481.188 340.252C482.255 339.755 482.985 338.737 483.114 337.567L483.342 272.612C483.239 273.771 482.524 274.786 481.467 275.272Z" fill="url(#paint19_linear)"/>
<path d="M481.417 269.876C482.559 270.281 483.323 271.362 483.323 272.574C483.323 273.786 482.559 274.867 481.417 275.272L419.426 311.321C416.51 312.827 413.045 312.827 410.129 311.321L347.708 275.272C346.565 274.867 345.802 273.786 345.802 272.574C345.802 271.362 346.565 270.281 347.708 269.876L409.698 233.852C412.614 232.346 416.079 232.346 418.996 233.852L481.417 269.876Z" fill="#D3E4FC"/>
<path d="M473.006 272.511L414.663 306.432L355.94 272.511L414.283 238.615L473.006 272.511Z" fill="url(#paint20_linear)"/>
<path d="M470.194 273.879L414.283 241.579L358.98 273.727C359.933 273.967 360.852 274.325 361.716 274.791C362.147 275.019 362.552 277.172 362.958 277.476L414.283 247.659L466.14 277.577C467.483 276.969 468.851 274.461 470.194 273.879Z" fill="#FFA282"/>
<path d="M414.283 241.579L467.863 272.536L414.663 303.443L361.083 272.511L414.283 241.579ZM414.283 237.424L353.889 272.511L414.689 307.597L475.058 272.511L414.258 237.424H414.283Z" fill="#F4F8FF"/>
<path opacity="0.603162" d="M361.083 30.9067V272.511L414.663 303.443L467.863 272.536V30.932L414.283 0L361.083 30.9067Z" fill="url(#paint21_linear)"/>
<path d="M435.918 208.215L412.865 221.616C411.776 222.175 410.483 222.175 409.394 221.616L386.189 208.215C385.789 208.027 385.519 207.641 385.479 207.201V235.803C385.519 236.243 385.789 236.628 386.189 236.816L409.419 250.217C410.5 250.776 411.784 250.776 412.865 250.217L435.943 236.816C436.343 236.628 436.613 236.243 436.653 235.803V207.201C436.62 207.651 436.335 208.043 435.918 208.215Z" fill="url(#paint22_linear)"/>
<path opacity="0.17706" d="M435.918 206.213C436.881 206.745 436.881 207.657 435.918 208.215L412.865 221.616C411.775 222.175 410.483 222.175 409.394 221.616L386.189 208.215C385.226 207.657 385.226 206.745 386.189 206.213L409.242 192.812C410.331 192.253 411.623 192.253 412.713 192.812L435.918 206.213Z" fill="white"/>
<path d="M435.918 146.173L412.865 159.6C411.776 160.159 410.483 160.159 409.394 159.6L386.189 146.173C385.789 145.986 385.519 145.6 385.479 145.16V173.761C385.519 174.201 385.789 174.587 386.189 174.775L409.419 188.176C410.507 188.707 411.778 188.707 412.865 188.176L435.867 174.8C436.267 174.612 436.537 174.227 436.577 173.787V145.185C436.549 145.608 436.298 145.985 435.918 146.173Z" fill="url(#paint23_linear)"/>
<path opacity="0.297433" d="M435.918 144.172C436.881 144.704 436.881 145.616 435.918 146.173L412.865 159.6C411.775 160.159 410.483 160.159 409.394 159.6L386.189 146.173C385.226 145.616 385.226 144.704 386.189 144.172L409.242 130.771C410.331 130.211 411.623 130.211 412.713 130.771L435.918 144.172Z" fill="white"/>
<path d="M435.918 84.132L412.865 97.5333C411.769 98.0647 410.49 98.0647 409.394 97.5333L386.189 84.132C385.789 83.9445 385.519 83.5586 385.479 83.1187V111.72C385.519 112.16 385.789 112.546 386.189 112.733L409.419 126.135C410.507 126.665 411.778 126.665 412.865 126.135L435.943 112.733C436.343 112.546 436.613 112.16 436.653 111.72V83.1187C436.62 83.5683 436.335 83.9606 435.918 84.132Z" fill="url(#paint24_linear)"/>
<path opacity="0.502232" d="M435.918 82.1053C436.359 82.2464 436.658 82.656 436.658 83.1187C436.658 83.5813 436.359 83.9909 435.918 84.132L412.865 97.5333C411.769 98.0647 410.49 98.0647 409.394 97.5333L386.189 84.132C385.748 83.9909 385.449 83.5813 385.449 83.1187C385.449 82.656 385.748 82.2464 386.189 82.1053L409.242 68.704C410.338 68.1726 411.617 68.1726 412.713 68.704L435.918 82.1053Z" fill="white"/>
</g>
<defs>
<linearGradient id="paint0_linear" x1="41.9654" y1="64.5164" x2="117.609" y2="57.572" gradientUnits="userSpaceOnUse">
<stop stop-color="#1A317B"/>
<stop offset="1" stop-color="#18176E"/>
</linearGradient>
<linearGradient id="paint1_linear" x1="251.558" y1="389.982" x2="159.519" y2="547.122" gradientUnits="userSpaceOnUse">
<stop stop-color="#B7D1F7" stop-opacity="0"/>
<stop offset="1" stop-color="#80A5EC" stop-opacity="0.620629"/>
</linearGradient>
<linearGradient id="paint2_linear" x1="138.222" y1="438.326" x2="178.809" y2="410.876" gradientUnits="userSpaceOnUse">
<stop stop-color="#1A317B"/>
<stop offset="1" stop-color="#18176E"/>
</linearGradient>
<linearGradient id="paint3_linear" x1="83.7003" y1="481.817" x2="121.125" y2="450.64" gradientUnits="userSpaceOnUse">
<stop stop-color="#1A317B"/>
<stop offset="1" stop-color="#18176E"/>
</linearGradient>
<linearGradient id="paint4_linear" x1="86.0582" y1="197.624" x2="71.1752" y2="356.789" gradientUnits="userSpaceOnUse">
<stop stop-color="#1A317B"/>
<stop offset="1" stop-color="#18176E"/>
</linearGradient>
<linearGradient id="paint5_linear" x1="-1.13339e-06" y1="187.5" x2="136.202" y2="181.624" gradientUnits="userSpaceOnUse">
<stop stop-color="#990430"/>
<stop offset="1" stop-color="#F30047"/>
</linearGradient>
<linearGradient id="paint6_linear" x1="41.7064" y1="74.4761" x2="121.195" y2="72.594" gradientUnits="userSpaceOnUse">
<stop stop-color="#1A317B"/>
<stop offset="1" stop-color="#18176E"/>
</linearGradient>
<linearGradient id="paint7_linear" x1="36.4674" y1="70.0668" x2="118.173" y2="64.3747" gradientUnits="userSpaceOnUse">
<stop stop-color="#1A317B"/>
<stop offset="1" stop-color="#18176E"/>
</linearGradient>
<linearGradient id="paint8_linear" x1="364.328" y1="434.126" x2="272.292" y2="591.273" gradientUnits="userSpaceOnUse">
<stop stop-color="#B7D1F7" stop-opacity="0"/>
<stop offset="1" stop-color="#80A5EC" stop-opacity="0.620629"/>
</linearGradient>
<linearGradient id="paint9_linear" x1="195.77" y1="522.663" x2="200.335" y2="305.895" gradientUnits="userSpaceOnUse">
<stop stop-color="#1A317B"/>
<stop offset="1" stop-color="#18176E"/>
</linearGradient>
<linearGradient id="paint10_linear" x1="284.474" y1="529.354" x2="289.014" y2="312.588" gradientUnits="userSpaceOnUse">
<stop stop-color="#1A317B"/>
<stop offset="1" stop-color="#18176E"/>
</linearGradient>
<linearGradient id="paint11_linear" x1="296.484" y1="285.757" x2="350.3" y2="243.182" gradientUnits="userSpaceOnUse">
<stop stop-color="#7594D1"/>
<stop offset="1" stop-color="#B4CDF6"/>
</linearGradient>
<linearGradient id="paint12_linear" x1="-14.33" y1="206.77" x2="28.6986" y2="195.588" gradientUnits="userSpaceOnUse">
<stop stop-color="#7594D1"/>
<stop offset="1" stop-color="#B4CDF6"/>
</linearGradient>
<linearGradient id="paint13_linear" x1="246.399" y1="526.501" x2="312.205" y2="325.314" gradientUnits="userSpaceOnUse">
<stop stop-color="#1A317B"/>
<stop offset="1" stop-color="#18176E"/>
</linearGradient>
<linearGradient id="paint14_linear" x1="60.4485" y1="659.089" x2="48.5012" y2="684.135" gradientUnits="userSpaceOnUse">
<stop stop-color="#7594D1"/>
<stop offset="1" stop-color="#B4CDF6"/>
</linearGradient>
<linearGradient id="paint15_linear" x1="224.872" y1="229.059" x2="295.507" y2="224.683" gradientUnits="userSpaceOnUse">
<stop stop-color="#7594D1"/>
<stop offset="1" stop-color="#B4CDF6"/>
</linearGradient>
<linearGradient id="paint16_linear" x1="197.119" y1="208.05" x2="222.875" y2="211.801" gradientUnits="userSpaceOnUse">
<stop stop-color="#7594D1"/>
<stop offset="1" stop-color="#B4CDF6"/>
</linearGradient>
<linearGradient id="paint17_linear" x1="279.805" y1="105.808" x2="219.58" y2="105.808" gradientUnits="userSpaceOnUse">
<stop stop-color="#1A317B"/>
<stop offset="1" stop-color="#18176E"/>
</linearGradient>
<linearGradient id="paint18_linear" x1="489.187" y1="280.117" x2="451.199" y2="352.165" gradientUnits="userSpaceOnUse">
<stop stop-color="#8DA8EA" stop-opacity="0"/>
<stop offset="1" stop-color="#ABC7EF" stop-opacity="0.661385"/>
</linearGradient>
<linearGradient id="paint19_linear" x1="401.388" y1="324.976" x2="422.618" y2="324.976" gradientUnits="userSpaceOnUse">
<stop stop-color="#F5F8FF"/>
<stop offset="0.3" stop-color="#F2F6FE"/>
<stop offset="0.51" stop-color="#E9F0FC"/>
<stop offset="0.69" stop-color="#DAE6F9"/>
<stop offset="0.86" stop-color="#C4D8F4"/>
<stop offset="1" stop-color="#ABC7EF"/>
</linearGradient>
<linearGradient id="paint20_linear" x1="355.94" y1="272.511" x2="473.006" y2="272.511" gradientUnits="userSpaceOnUse">
<stop stop-color="#FFA282"/>
<stop offset="1" stop-color="#FF4B70"/>
</linearGradient>
<linearGradient id="paint21_linear" x1="414.473" y1="303.443" x2="414.473" y2="0" gradientUnits="userSpaceOnUse">
<stop stop-color="#B80036"/>
<stop offset="1" stop-color="white" stop-opacity="0"/>
</linearGradient>
<linearGradient id="paint22_linear" x1="385.473" y1="240.168" x2="426.713" y2="238.401" gradientUnits="userSpaceOnUse">
<stop stop-color="#990430"/>
<stop offset="1" stop-color="#F30047"/>
</linearGradient>
<linearGradient id="paint23_linear" x1="385.473" y1="178.111" x2="426.652" y2="176.348" gradientUnits="userSpaceOnUse">
<stop stop-color="#990430"/>
<stop offset="1" stop-color="#F30047"/>
</linearGradient>
<linearGradient id="paint24_linear" x1="385.473" y1="116.07" x2="426.713" y2="114.302" gradientUnits="userSpaceOnUse">
<stop stop-color="#990430"/>
<stop offset="1" stop-color="#F30047"/>
</linearGradient>
<clipPath id="clip0">
<rect width="515" height="550" fill="white"/>
</clipPath>
</defs>
</svg>
