<svg width="515" height="550" fill="none" xmlns="http://www.w3.org/2000/svg"><g clip-path="url(#clip0)"><path d="M46.27 35.779a149.396 149.396 0 00-3.63 56.334 23.294 23.294 0 006.12 14.992 20.076 20.076 0 0011.05 4.149c21.17 2.254 41.184-10.1 48.657-30.034a60.106 60.106 0 003.268-22.462 61.43 61.43 0 00-4.046-21.216A47.152 47.152 0 0074.127 9.064c-3.89-.882-10.375-2.646-13.902 0-7.833 5.55-11.672 17.896-13.954 26.715z" fill="url(#paint0_linear)"/><path d="M71.17 449.521c-21.89 12.657-21.787 33.251 0 45.96a88.188 88.188 0 0079.574 0l140.058-80.819-79.677-45.908L71.17 449.521z" fill="url(#paint1_linear)"/><path d="M61.16 467.002a6.433 6.433 0 00-4.721 9.701 36.31 36.31 0 0025.936 21.268c13.384 1.867 19.505-3.579 11.516-13.902-7.988-10.323-20.75-21.061-23.239-20.386-2.49.674-9.493 3.319-9.493 3.319z" fill="url(#paint2_linear)"/><path d="M86.577 351.74l-12.19 114.121s18.622 20.75 16.236 22.461c-2.386 1.712-24.848.519-30.502-17.74l4.254-114.433 22.202-4.409z" fill="#F9BFB5"/><path d="M99.597 452.426a6.432 6.432 0 00-4.201 9.908 36.31 36.31 0 0027.078 20.23c13.487 1.194 19.348-4.512 10.893-14.42-8.455-9.908-21.787-20.075-24.225-19.297-2.438.778-9.545 3.579-9.545 3.579z" fill="url(#paint3_linear)"/><path d="M119.621 348.679l-6.692 100.946s19.556 19.764 17.274 21.631c-2.282 1.868-24.795 1.712-31.124-16.288l-1.245-100.842 21.787-5.447z" fill="#F9BFB5"/><path d="M119.568 184.137s8.145 11.204 8.145 37.867c0 26.663-4.098 129.684-4.098 129.684s-30.243 11.568-51.303 8.974c-21.06-2.594-19.972-7.781-19.972-7.781a268.602 268.602 0 004.669-48.502c-.986-18.259-15.562-60.899-13.695-82.997a157.596 157.596 0 014.15-30.139l72.104-7.106z" fill="url(#paint4_linear)"/><path d="M.845 179.225c.237-2.035.902-4.404 2.112-7.175 5.55-12.709 23.343-55.038 30.087-62.974 0 0 4.706-3.183 9.076-3.58 19.12-11.468 56.44-23.55 56.44-23.55s3.994-2.735 8.385-2.555a5.33 5.33 0 01.641-.039c6.069 0 17.118 6.38 22.72 45.597 2.472 17.302 3.459 27.728 3.27 34.12a551.517 551.517 0 0033.716 36.895c5.914 5.187-4.15 18.778-16.444 11.516-7.897-4.665-22.342-21.336-29.288-34.576-.225 7.171-.28 13.567-.28 13.567s-26.04 15.977-53.274 10.79c-19.92-4.047-20.75-5.862-20.75-5.862a60.54 60.54 0 002.439-25.263c-.47-2.951-2.32-7.143-4.628-11.98a131.157 131.157 0 01-5.072 10.424c-5.646 10.449-10.105 17.237-13.748 21.557 9.998 7.178 22.646 15.909 30.45 19.994 6.952 3.735.312 19.193-13.383 14.991-13.635-4.183-49.126-32.639-42.47-41.897z" fill="url(#paint5_linear)"/><path d="M165.684 197.261s9.545-1.557 11.101.311c1.556 1.867-3.527 3.631-3.527 3.631a22.832 22.832 0 018.3 6.432c2.178 3.528-.83 13.176-5.603 11.568-4.772-1.608-13.176-8.04-14.265-13.124a9.337 9.337 0 013.994-8.818z" fill="#F9BFB5"/><path d="M48.761 162.817l-13.746 77.654 46.634 10.738 12.968-79.626-45.856-8.766z" fill="#0F0B5B"/><path d="M55.401 207.895s8.923-3.735 10.894-2.283c1.971 1.453-2.646 4.358-2.646 4.358a22.673 22.673 0 019.338 4.305c2.904 2.905 2.282 13.02-2.802 12.502-5.083-.519-14.628-4.721-16.91-9.441a9.337 9.337 0 012.127-9.441z" fill="#F9BFB5"/><path d="M105.563 115.508a45.907 45.907 0 008.87-21.994 188.353 188.353 0 001.037-72.623 16.39 16.39 0 00-10.374-11.88 9.337 9.337 0 00-7.937 2.231 23.395 23.395 0 00-5.187 6.848 86.474 86.474 0 00-10.064 42.795 10.686 10.686 0 001.971 7.885c2.127 2.23 4.617 4.098 6.64 6.484a63.807 63.807 0 0110.375 17.74 61.531 61.531 0 014.669 22.514z" fill="url(#paint6_linear)"/><path d="M103.747 22.084s11.049 3.683 9.96 23.084c-1.089 19.4 0 30.45-10.375 34.132-10.374 3.683-29.204-4.2-35.481-14.16-6.277-9.96-6.795-39.06-3.112-39.89 3.683-.83 39.008-3.165 39.008-3.165z" fill="#F9BFB5"/><path d="M85.695.141c-13.383 0-28.634 6.64-32.991 20.75-3.528 11.671-3.165 24.277-7.003 35.585a55.037 55.037 0 00-.623 33.355 54.361 54.361 0 0011.776 20.749 51.885 51.885 0 008.714 7.833 47.32 47.32 0 004.15 3.06c1.556.934 4.358.986 5.603 2.023a19.346 19.346 0 01-8.093-10.374 85.437 85.437 0 01-3.216-39.32 28.219 28.219 0 018.611-19.09c9.856-9.233 23.188-13.59 35.637-18.882 2.49-1.037 4.565-1.608 5.862-3.994a15.977 15.977 0 001.452-8.351 24.173 24.173 0 00-6.639-14.37A30.14 30.14 0 0085.695.142z" fill="url(#paint7_linear)"/><path d="M68.473 61.404s.52 28.842-2.645 31.124c-3.164 2.282 14.888 15.147 25.366 7.833s3.216-12.968 3.216-12.968l.467-17.326-26.404-8.663z" fill="#F9BFB5"/><path d="M183.943 493.665c-21.942 12.658-21.786 33.199 0 45.96a88.182 88.182 0 0079.574 0l140.059-80.819-79.678-45.908-139.955 80.767z" fill="url(#paint8_linear)"/><path d="M154.168 211.163s-5.187-14.525-8.87-15.251c-3.683-.726-2.283 7.677-2.283 7.677a36.304 36.304 0 00-14.888-6.328c-6.536-.312-17.74 11.1-11.827 16.547 5.914 5.447 21.061 12.19 28.998 9.908 7.936-2.282 8.87-12.553 8.87-12.553z" fill="#ED90A5"/><path d="M217.868 511.977a17.894 17.894 0 017.107 15.562 8.87 8.87 0 01-12.294 7.729 36.305 36.305 0 00-13.746-5.187c-6.173 0-19.972.622-25.055-4.098-5.084-4.721-10.375-13.799-5.188-16.963 5.188-3.164 22.513-5.187 33.044-3.061a37.65 37.65 0 0116.132 6.018z" fill="url(#paint9_linear)"/><path d="M308.855 489.879a17.896 17.896 0 017.106 15.562 8.92 8.92 0 01-12.242 7.936 35.226 35.226 0 00-13.746-5.187c-6.173 0-19.972.571-25.055-4.15-5.084-4.72-10.375-13.798-5.188-16.963 5.188-3.164 22.514-4.927 33.044-3.06a38.493 38.493 0 0116.081 5.862z" fill="url(#paint10_linear)"/><path d="M291.841 267.653a121.79 121.79 0 01-8.871 16.288c-2.905 3.424-7.106 16.703-1.971 17.845 5.136 1.141 12.917 8.144 16.496-.934a181.603 181.603 0 005.81-32.058l-11.464-1.141z" fill="#ED90A5"/><path d="M285.615 277.561l16.392 8.196s33.251-65.309 28.427-78.9c-4.824-13.591-8.041-9.493-14.732-1.556-6.692 7.937-30.087 72.26-30.087 72.26z" fill="url(#paint11_linear)"/><path d="M274.93 136.776c-10.634 5.551-15.822 20.386 5.965 43.885s28.271 32.162 34.963 34.963c6.692 2.801 20.334-1.401 12.916-13.02-7.417-11.62-43.936-70.963-53.844-65.828z" fill="url(#paint12_linear)"/><path d="M297.391 282.748l4.513 117.753 6.692 95.395s-14.992 11.516-19.038 0c-4.046-11.516-17.637-91.142-17.637-91.142l-19.245-78.329-26.455 73.92-9.649 112.721s-13.798 9.234-17.844 0c-2.075-4.669-2.698-112.462-2.698-112.462l13.435-106.444 87.926-11.412z" fill="url(#paint13_linear)"/><path d="M218.595 90.194s-11.256 35.118 3.735 48.968c14.991 13.85 38.335-5.498 40.358-11.827 2.023-6.328 10.945-42.64-6.9-47.516-17.844-4.876-37.193 10.375-37.193 10.375z" fill="#ED90A5"/><path d="M154.272 208.828s45.234 29.828 50.577 39.061l.363.571a1.555 1.555 0 00-.83 1.452 15.878 15.878 0 01-3.268 10.012c-1.245 1.452-2.646 2.697-3.735 4.201-15.562 2.283-57.787-38.645-57.787-38.645l14.68-16.652z" fill="url(#paint14_linear)"/><path d="M218.855 163.75l50.161-25.936s24.381-2.802 26.663 25.366c1.816 21.631-2.334 43.366-2.905 71.793a239.06 239.06 0 006.173 48.086s-30.501 21.32-48.968 23.136c-18.467 1.815-40.877-12.657-40.877-12.657s-3.475-96.277-3.475-106.652a25.574 25.574 0 0113.228-23.136z" fill="url(#paint15_linear)"/><path d="M231.615 170.286c-10.789-9.077-26.87-7.936-35.844 26.352s-13.02 45.234-11.879 53.741c1.141 8.507 12.449 21.424 18.674 8.144s39.113-79.781 29.049-88.237z" fill="url(#paint16_linear)"/><path d="M266.215 143.883a23.964 23.964 0 01-12.969 10.374 41.456 41.456 0 01-14.991 0l-2.646-23.083 25.263-10.946 5.343 23.655z" fill="#ED90A5"/><path d="M215.275 78.885s-9.908 11.724 7.262 20.231l5.758 3.009s5.706 23.239 16.236 29.723c10.531 6.484 15.562 10.375 20.75 6.951 5.187-3.423 9.544-17.17 11.982-23.602 2.438-6.433 4.15-23.084-2.23-32.732-8.715-13.228-50.732-14.37-59.758-3.58z" fill="url(#paint17_linear)"/><path d="M228.555 114.885s.674-11.308 6.847-8.662c6.173 2.645 8.922 9.285-3.424 17.74-12.346 8.456-3.423-9.078-3.423-9.078z" fill="#ED90A5"/><path d="M533.046 310.561l-57.811 33.263-105.513-61.205 57.81-33.238 105.514 61.18z" fill="url(#paint18_linear)"/><path d="M483.139 335.008a2.913 2.913 0 010 5.523l-63.586 36.936a10.566 10.566 0 01-9.551 0l-64.017-36.936a2.915 2.915 0 010-5.523l63.612-36.961a10.558 10.558 0 019.55 0l63.992 36.961z" fill="#7FAAEF"/><path d="M481.467 275.272l-62.041 36.049a10.132 10.132 0 01-9.298 0l-62.421-36.049a3.294 3.294 0 01-1.951-2.711l-.177 64.98a3.32 3.32 0 001.925 2.711l62.371 36.049a10.357 10.357 0 009.297 0l62.016-36.049a3.37 3.37 0 001.926-2.685l.228-64.955a3.243 3.243 0 01-1.875 2.66z" fill="url(#paint19_linear)"/><path d="M481.417 269.876a2.863 2.863 0 010 5.396l-61.991 36.049a10.13 10.13 0 01-9.297 0l-62.421-36.049a2.862 2.862 0 010-5.396l61.99-36.024a10.132 10.132 0 019.298 0l62.421 36.024z" fill="#D3E4FC"/><path d="M473.006 272.511l-58.343 33.921-58.723-33.921 58.343-33.896 58.723 33.896z" fill="url(#paint20_linear)"/><path d="M470.194 273.879l-55.911-32.3-55.303 32.148c.953.24 1.872.598 2.736 1.064.431.228.836 2.381 1.242 2.685l51.325-29.817 51.857 29.918c1.343-.608 2.711-3.116 4.054-3.698z" fill="#FFA282"/><path d="M414.283 241.579l53.58 30.957-53.2 30.907-53.58-30.932 53.2-30.932zm0-4.155l-60.394 35.087 60.8 35.086 60.369-35.086-60.8-35.087h.025z" fill="#F4F8FF"/><path opacity=".603" d="M361.083 30.907V272.51l53.58 30.932 53.2-30.907V30.932L414.283 0l-53.2 30.907z" fill="url(#paint21_linear)"/><path d="M435.918 208.215l-23.053 13.401a3.802 3.802 0 01-3.471 0l-23.205-13.401c-.4-.188-.67-.574-.71-1.014v28.602c.04.44.31.825.71 1.013l23.23 13.401a3.75 3.75 0 003.446 0l23.078-13.401c.4-.188.67-.573.71-1.013v-28.602c-.033.45-.318.842-.735 1.014z" fill="url(#paint22_linear)"/><path opacity=".177" d="M435.918 206.213c.963.532.963 1.444 0 2.002l-23.053 13.401a3.802 3.802 0 01-3.471 0l-23.205-13.401c-.963-.558-.963-1.47 0-2.002l23.053-13.401a3.802 3.802 0 013.471 0l23.205 13.401z" fill="#fff"/><path d="M435.918 146.173L412.865 159.6a3.802 3.802 0 01-3.471 0l-23.205-13.427c-.4-.187-.67-.573-.71-1.013v28.601c.04.44.31.826.71 1.014l23.23 13.401a3.926 3.926 0 003.446 0l23.002-13.376c.4-.188.67-.573.71-1.013v-28.602a1.19 1.19 0 01-.659.988z" fill="url(#paint23_linear)"/><path opacity=".297" d="M435.918 144.172c.963.532.963 1.444 0 2.001L412.865 159.6a3.802 3.802 0 01-3.471 0l-23.205-13.427c-.963-.557-.963-1.469 0-2.001l23.053-13.401a3.796 3.796 0 013.471 0l23.205 13.401z" fill="#fff"/><path d="M435.918 84.132l-23.053 13.401a3.978 3.978 0 01-3.471 0l-23.205-13.401c-.4-.188-.67-.573-.71-1.013v28.601c.04.44.31.826.71 1.013l23.23 13.402c1.088.53 2.359.53 3.446 0l23.078-13.402c.4-.187.67-.573.71-1.013V83.119a1.19 1.19 0 01-.735 1.013z" fill="url(#paint24_linear)"/><path opacity=".502" d="M435.918 82.105a1.064 1.064 0 010 2.027l-23.053 13.401a3.978 3.978 0 01-3.471 0l-23.205-13.401a1.064 1.064 0 010-2.027l23.053-13.401a3.978 3.978 0 013.471 0l23.205 13.401z" fill="#fff"/></g><defs><linearGradient id="paint0_linear" x1="41.965" y1="64.516" x2="117.609" y2="57.572" gradientUnits="userSpaceOnUse"><stop stop-color="#1A317B"/><stop offset="1" stop-color="#18176E"/></linearGradient><linearGradient id="paint1_linear" x1="251.558" y1="389.982" x2="159.519" y2="547.122" gradientUnits="userSpaceOnUse"><stop stop-color="#B7D1F7" stop-opacity="0"/><stop offset="1" stop-color="#80A5EC" stop-opacity=".621"/></linearGradient><linearGradient id="paint2_linear" x1="138.222" y1="438.326" x2="178.809" y2="410.876" gradientUnits="userSpaceOnUse"><stop stop-color="#1A317B"/><stop offset="1" stop-color="#18176E"/></linearGradient><linearGradient id="paint3_linear" x1="83.7" y1="481.817" x2="121.125" y2="450.64" gradientUnits="userSpaceOnUse"><stop stop-color="#1A317B"/><stop offset="1" stop-color="#18176E"/></linearGradient><linearGradient id="paint4_linear" x1="86.058" y1="197.624" x2="71.175" y2="356.789" gradientUnits="userSpaceOnUse"><stop stop-color="#1A317B"/><stop offset="1" stop-color="#18176E"/></linearGradient><linearGradient id="paint5_linear" x1="0" y1="187.5" x2="136.202" y2="181.624" gradientUnits="userSpaceOnUse"><stop stop-color="#990430"/><stop offset="1" stop-color="#F30047"/></linearGradient><linearGradient id="paint6_linear" x1="41.706" y1="74.476" x2="121.195" y2="72.594" gradientUnits="userSpaceOnUse"><stop stop-color="#1A317B"/><stop offset="1" stop-color="#18176E"/></linearGradient><linearGradient id="paint7_linear" x1="36.467" y1="70.067" x2="118.173" y2="64.375" gradientUnits="userSpaceOnUse"><stop stop-color="#1A317B"/><stop offset="1" stop-color="#18176E"/></linearGradient><linearGradient id="paint8_linear" x1="364.328" y1="434.126" x2="272.292" y2="591.273" gradientUnits="userSpaceOnUse"><stop stop-color="#B7D1F7" stop-opacity="0"/><stop offset="1" stop-color="#80A5EC" stop-opacity=".621"/></linearGradient><linearGradient id="paint9_linear" x1="195.77" y1="522.663" x2="200.335" y2="305.895" gradientUnits="userSpaceOnUse"><stop stop-color="#1A317B"/><stop offset="1" stop-color="#18176E"/></linearGradient><linearGradient id="paint10_linear" x1="284.474" y1="529.354" x2="289.014" y2="312.588" gradientUnits="userSpaceOnUse"><stop stop-color="#1A317B"/><stop offset="1" stop-color="#18176E"/></linearGradient><linearGradient id="paint11_linear" x1="296.484" y1="285.757" x2="350.3" y2="243.182" gradientUnits="userSpaceOnUse"><stop stop-color="#7594D1"/><stop offset="1" stop-color="#B4CDF6"/></linearGradient><linearGradient id="paint12_linear" x1="-14.33" y1="206.77" x2="28.699" y2="195.588" gradientUnits="userSpaceOnUse"><stop stop-color="#7594D1"/><stop offset="1" stop-color="#B4CDF6"/></linearGradient><linearGradient id="paint13_linear" x1="246.399" y1="526.501" x2="312.205" y2="325.314" gradientUnits="userSpaceOnUse"><stop stop-color="#1A317B"/><stop offset="1" stop-color="#18176E"/></linearGradient><linearGradient id="paint14_linear" x1="60.449" y1="659.089" x2="48.501" y2="684.135" gradientUnits="userSpaceOnUse"><stop stop-color="#7594D1"/><stop offset="1" stop-color="#B4CDF6"/></linearGradient><linearGradient id="paint15_linear" x1="224.872" y1="229.059" x2="295.507" y2="224.683" gradientUnits="userSpaceOnUse"><stop stop-color="#7594D1"/><stop offset="1" stop-color="#B4CDF6"/></linearGradient><linearGradient id="paint16_linear" x1="197.119" y1="208.05" x2="222.875" y2="211.801" gradientUnits="userSpaceOnUse"><stop stop-color="#7594D1"/><stop offset="1" stop-color="#B4CDF6"/></linearGradient><linearGradient id="paint17_linear" x1="279.805" y1="105.808" x2="219.58" y2="105.808" gradientUnits="userSpaceOnUse"><stop stop-color="#1A317B"/><stop offset="1" stop-color="#18176E"/></linearGradient><linearGradient id="paint18_linear" x1="489.187" y1="280.117" x2="451.199" y2="352.165" gradientUnits="userSpaceOnUse"><stop stop-color="#8DA8EA" stop-opacity="0"/><stop offset="1" stop-color="#ABC7EF" stop-opacity=".661"/></linearGradient><linearGradient id="paint19_linear" x1="401.388" y1="324.976" x2="422.618" y2="324.976" gradientUnits="userSpaceOnUse"><stop stop-color="#F5F8FF"/><stop offset=".3" stop-color="#F2F6FE"/><stop offset=".51" stop-color="#E9F0FC"/><stop offset=".69" stop-color="#DAE6F9"/><stop offset=".86" stop-color="#C4D8F4"/><stop offset="1" stop-color="#ABC7EF"/></linearGradient><linearGradient id="paint20_linear" x1="355.94" y1="272.511" x2="473.006" y2="272.511" gradientUnits="userSpaceOnUse"><stop stop-color="#FFA282"/><stop offset="1" stop-color="#FF4B70"/></linearGradient><linearGradient id="paint21_linear" x1="414.473" y1="303.443" x2="414.473" y2="0" gradientUnits="userSpaceOnUse"><stop stop-color="#B80036"/><stop offset="1" stop-color="#fff" stop-opacity="0"/></linearGradient><linearGradient id="paint22_linear" x1="385.473" y1="240.168" x2="426.713" y2="238.401" gradientUnits="userSpaceOnUse"><stop stop-color="#990430"/><stop offset="1" stop-color="#F30047"/></linearGradient><linearGradient id="paint23_linear" x1="385.473" y1="178.111" x2="426.652" y2="176.348" gradientUnits="userSpaceOnUse"><stop stop-color="#990430"/><stop offset="1" stop-color="#F30047"/></linearGradient><linearGradient id="paint24_linear" x1="385.473" y1="116.07" x2="426.713" y2="114.302" gradientUnits="userSpaceOnUse"><stop stop-color="#990430"/><stop offset="1" stop-color="#F30047"/></linearGradient><clipPath id="clip0"><path fill="#fff" d="M0 0h515v550H0z"/></clipPath></defs></svg>