<svg width="181" height="98" fill="none" xmlns="http://www.w3.org/2000/svg"><path opacity=".5" d="M.66 70.956s6.231-1.104 8.724-2.571c2.969-1.729 4.801-4.078 4.801-6.687 0-4.81-13.525-9.182-13.525-9.182-.403-.145-.623-.44-.477-.697l6.159-8.557c.22-.257.733-.368 1.172-.295 0 0 14.882 2.499 20.784-.916 5.901-3.418 1.613-12.013 1.613-12.013-.11-.257.11-.548.513-.698l14.845-3.525c.147-.034.256-.034.403-.034l25.145-5.879 7.954 5.913c.184-.034.367-.034.55 0l5.095 1.21c.037-.033.073-.033.11-.072 5.902-3.414 1.613-12.01 1.613-12.01-.11-.256.11-.551.513-.697l14.845-3.525c.44-.073.99.034 1.21.257 0 0 7.478 7.86 15.798 7.86 4.509 0 8.614-1.066 11.583-2.756 2.493-1.433 4.399-5.032 4.399-5.032.147-.256.623-.402 1.026-.295l14.809 3.564c.403.111.659.44.513.697 0 0-4.325 8.596 1.576 12.01 5.901 3.418 20.783.958 20.783.958.44-.077.99.073 1.173.291l6.122 8.561c.146.257-.074.548-.477.697 0 0-13.562 4.334-13.562 9.143 0 4.813 13.562 9.148 13.562 9.148.403.145.623.44.477.697l-6.158 8.556c-.22.257-.734.368-1.173.296 0 0-14.882-2.499-20.784.92-5.901 3.414-1.612 12.009-1.612 12.009.109.257-.11.552-.514.697L94.13 93.986c-.037.035-.11.035-.147.035l-14.808 3.564c-.44.072-.99-.039-1.21-.257 0 0-7.478-7.86-15.835-7.86-8.32 0-15.835 7.86-15.835 7.86-.22.218-.77.368-1.21.257L30.278 94.02c-.403-.112-.66-.441-.513-.698 0 0 4.288-8.63-1.613-12.01h-.037s-.037.001-.037-.038c-5.9-3.414-20.782-.954-20.782-.954-.44.073-.99-.072-1.174-.295L0 71.431c0-.146.22-.402.66-.475z" fill="url(#paint0_linear)"/><path d="M57.69 38.656l-.108-.039V27.541L88.048 19a18.686 18.686 0 00-.943-2.575c-.037-.073-.037-.107-.037-.185V5.35l21.544 5.89 15.85.034L151.12 5.35v10.785l5.44 7.395 23.974 4.05v10.927c0 .223-.181.441-.508.553 0 0-5.621 1.804-9.611 4.415l10.083 3.57v10.854c0 .077 0 .15-.036.223l-6.094 8.573c-.217.257-.725.369-1.16.296 0 0-14.725-2.503-20.565.917-5.839 3.425-1.596 12.037-1.596 12.037.109.257-.108.549-.507.699l-14.653 3.57c-.435.073-.979-.038-1.197-.261 0 0-7.399-7.875-15.669-7.875-8.233 0-15.668 7.875-15.668 7.875-.217.223-.761.368-1.197.261l-14.652-3.57c-.29-.073-.508-.296-.544-.48V69.16c-.4-.476-.907-.883-1.56-1.252h-.036s-.037 0-.037-.034c-5.839-3.42-20.564-.956-20.564-.956-.435.073-.98-.073-1.16-.296l-6.058-8.611c-.072-.112-.036-.185 0-.296h-.036V46.899l4.135.771 6.42-3.973c-3.954-2.76-9.975-4.711-9.975-4.711a.616.616 0 01-.399-.33zm42.581 11.11c10.409 6.109 27.274 6.109 37.683 0 3.446-2.023 5.731-4.453 6.891-6.99-1.16-2.577-3.481-5.003-6.891-6.992-10.409-6.109-27.274-6.109-37.683 0-3.446 2.023-5.731 4.453-6.892 6.991 1.125 2.538 3.446 4.968 6.892 6.992z" fill="#636C9E"/><path d="M57.69 38.656l-.108-.039V27.541L88.048 19c-.436-1.508-.943-2.575-.943-2.575-.037-.073-.037-.107-.037-.18V5.349l21.544 5.89 15.85.038L151.12 5.35v10.785l5.44 7.395 23.974 4.05v10.927c0 .223-.181.441-.508.553 0 0-5.621 1.804-9.611 4.415l10.083 3.57v10.858c0 .073 0 .146-.036.219l-6.094 8.573c-.217.257-.725.369-1.16.296 0 0-14.725-2.503-20.565.922-5.839 3.42-1.596 12.032-1.596 12.032.109.257-.108.553-.507.699l-14.653 3.57c-.435.073-.979-.038-1.197-.257 0 0-7.399-7.879-15.669-7.879-8.233 0-15.668 7.88-15.668 7.88-.217.218-.761.364-1.197.256l-14.652-3.57c-.29-.073-.508-.296-.544-.48V69.16c-.4-.476-.907-.883-1.56-1.248h-.036s-.037 0-.037-.038c-5.839-3.42-20.564-.956-20.564-.956-.435.073-.98-.073-1.16-.296l-6.058-8.611c-.072-.108-.036-.185 0-.292h-.036v-10.82l4.135.772 6.42-3.973c-3.954-2.76-9.975-4.711-9.975-4.711-.18-.073-.326-.184-.399-.33zm42.581 11.11c10.409 6.109 27.274 6.109 37.683 0 3.446-2.023 5.731-4.449 6.891-6.99-1.16-2.577-3.481-5.003-6.891-6.992-10.409-6.109-27.274-6.109-37.683 0-3.446 2.023-5.731 4.453-6.892 6.991 1.125 2.542 3.446 4.968 6.892 6.992z" fill="#8B0834"/><path d="M151.293 68.202c0-.075 0-.11-.036-.19 0 0-4.219-8.888 1.586-12.37 2.344-1.436 6.166-1.854 9.88-1.854 5.408 0 10.564.912 10.564.912.072 0 .18.035.252.035.361 0 .758-.114.902-.34l6.057-8.813c.036-.04.036-.079.036-.114v2.27l-5.084 7.451c-.036.04-.036.075-.072.075-.396.493-1.081.797-1.839.797-.144 0-.288 0-.468-.04-.036 0-5.12-.867-10.348-.867-4.255 0-7.464.564-9.267 1.661-4.326 2.613-1.694 9.347-1.189 10.519a4.255 4.255 0 00-.974.868zM57.504 45.468c0 .074 0 .113.037.187l6.167 8.751c.184.188.554.336.923.336.074 0 .185 0 .258-.04 0 0 5.245-.858 10.748-.858 3.803 0 7.754.41 10.192 1.83 0 0 .037.004.037.04h.037c5.946 3.475 1.625 12.226 1.625 12.226-.111.262.11.562.517.71l14.92 3.629c.111 0 .184.04.295.04.369 0 .739-.114.923-.301 0 0 7.534-8.002 15.954-8.002 8.383 0 15.954 8.002 15.954 8.002.185.187.554.3.923.3.111 0 .185 0 .296-.039l14.92-3.629c.073-.034.147-.034.221-.074a6.681 6.681 0 00-.775 1.534l-14.071 3.402h-.037c-.184.039-.332.039-.517.039-.739 0-1.403-.261-1.809-.71-.074-.074-7.276-7.593-15.031-7.593-7.755 0-14.956 7.519-15.031 7.593-.406.449-1.108.71-1.809.71-.185 0-.37 0-.517-.04h-.037l-14.92-3.623h-.037c-.074-.04-.147-.04-.222-.075v-1.685a5.753 5.753 0 00-.997-.898c.518-1.158 3.213-7.814-1.181-10.393h-.037l-.037-.04c-1.884-1.084-5.17-1.68-9.565-1.68-5.355 0-10.488.858-10.562.858-.148.039-.295.039-.443.039-.776 0-1.478-.3-1.884-.789-.036-.035-.037-.074-.074-.074l-5.17-7.327v-2.356h-.184zm.069-18.722c0 .225.174.412.486.52 0 0 12.852 4.394 12.817 9.312 0 2.381-1.39 4.541-3.716 6.215-.348-.26-.73-.481-1.112-.741 2.362-1.527 3.647-3.5 3.647-5.474 0-.672-.555-2.572-5.765-5.365-3.092-1.635-6.218-2.715-6.252-2.754-.07-.035-.105-.035-.174-.074v-1.64h.07zm122.961 0v1.787c-.031 0-.062.037-.125.037-.031 0-2.876 1.127-5.658 2.878-4.658 2.874-5.19 4.856-5.19 5.553 0 .66.438 2.448 4.346 5.05-.375.235-.75.507-1.126.742-2.313-1.633-4.282-3.652-4.282-5.792 0-5.087 11.566-9.671 11.566-9.671.313-.118.469-.353.469-.584zM86.988 5.497s5.916 6.72-.064 10.55V13.48c.772-1.372.514-2.925 0-4.263V5.349c.064.076.064.11.064.147zm64.859 7.585v2.402l.604.563c-5.439-3.529-.957-10.204-.604-10.698v3.78c-.353 1.234-.504 2.645 0 3.953zM102.195 25.75c4.843-2.904 11.151-4.353 17.492-4.353 6.342 0 12.649 1.45 17.493 4.353 6.481 3.884 8.607 9.399 6.411 14.369-.244-.402-.522-.761-.836-1.163.314-.87.488-1.779.488-2.683 0-3.52-2.37-6.86-6.655-9.433-4.496-2.684-10.489-4.171-16.901-4.171-6.411 0-12.405 1.487-16.899 4.17-4.287 2.575-6.656 5.913-6.656 9.434 0 .904.174 1.813.488 2.683-.314.364-.558.761-.837 1.163-2.195-4.97-.07-10.485 6.412-14.37z" fill="#9D4B4B"/><path d="M87.02 66.674s4.246-8.506-1.598-11.838h-.036s-.036 0-.036-.038c-5.845-3.366-20.582-.94-20.582-.94-.436.071-.98-.072-1.161-.287l-6.063-8.473c-.144-.253.11-.506.545-.582 0 0 6.171-1.084 8.64-2.535 2.94-1.7 4.754-4.015 4.754-6.587 0-4.745-13.394-9.05-13.394-9.05-.4-.148-.617-.435-.472-.688l6.099-8.44c.217-.252.725-.358 1.161-.286 0 0 14.737 2.463 20.582-.907 5.844-3.365 1.597-11.838 1.597-11.838-.11-.253.109-.544.508-.688L102.265.022c.436-.071.98.034 1.198.253 0 0 7.405 7.748 15.644 7.748 4.465 0 8.531-1.05 11.471-2.716 2.468-1.413 4.356-4.96 4.356-4.96.145-.253.617-.396 1.016-.291l14.665 3.513c.399.11.653.435.508.688 0 0-4.283 8.472 1.561 11.838 5.844 3.37 20.582.945 20.582.945.435-.076.98.071 1.161.286l6.062 8.435c.145.257-.073.544-.472.692 0 0-13.43 4.272-13.43 9.012 0 4.745 13.43 9.017 13.43 9.017.399.144.617.435.472.688l-6.098 8.434c-.218.254-.726.363-1.162.291 0 0-14.737-2.463-20.581.903-5.844 3.37-1.597 11.843-1.597 11.843.109.252-.109.54-.509.687l-14.664 3.513c-.436.072-.98-.038-1.198-.257 0 0-7.405-7.748-15.681-7.748-8.24 0-15.681 7.748-15.681 7.748-.218.219-.763.362-1.198.257l-14.665-3.513c-.327-.072-.545-.4-.436-.654zm50.31-20.745c10.054-5.79 10.054-15.17 0-20.96-10.055-5.796-26.354-5.796-36.408 0-10.055 5.79-10.055 15.17 0 20.96 10.018 5.794 26.316 5.794 36.408 0z" fill="#B80036"/><defs><linearGradient id="paint0_linear" x1="146.844" y1="38.098" x2="5.105" y2="78.408" gradientUnits="userSpaceOnUse"><stop stop-color="#B80036"/><stop offset=".096" stop-color="#B80036" stop-opacity=".7"/><stop offset=".224" stop-color="#B80036" stop-opacity=".6"/><stop offset=".357" stop-color="#B80036" stop-opacity=".4"/><stop offset=".496" stop-color="#B80036" stop-opacity=".1"/><stop offset=".642" stop-color="#B80036" stop-opacity=".05"/><stop offset=".802" stop-color="#FCFCFD" stop-opacity="0"/><stop offset="1" stop-color="#fff" stop-opacity="0"/></linearGradient></defs></svg>