<svg width="74" height="122" fill="none" xmlns="http://www.w3.org/2000/svg"><path d="M40.814 4.744c-9.628-5.557-18.17-5.693-24.136-1.49L9.763 6.506l.813 4.473C9.085 14.368 8.271 18.57 8.271 23.45c0 14.098 7.593 36.329 15.322 55.578l8.136 42.429 8.949-4.474s32.407-26.84 32.407-56.12c.135-20.74-14.373-45.817-32.271-56.12z" fill="#8B0834"/><path d="M64.271 65.202c0 29.28-32.407 56.12-32.407 56.12S-.542 57.069-.542 27.789c0-20.605 14.508-28.873 32.406-18.436 17.899 10.167 32.407 35.245 32.407 55.85z" fill="#B80036"/><path opacity=".7" d="M33.898 8.133C24.542 2.711 16.135 2.44 10.17 6.371c5.695-2.575 13.289-1.898 21.695 2.982 17.899 10.303 32.407 35.38 32.407 55.985 0 25.078-23.864 48.258-30.644 54.493.136.271-1.085.949-1.085.949s33.763-27.382 33.763-56.662c0-20.605-14.508-45.682-32.407-55.985z" fill="#D62D69"/><path d="M40.303 60.84c4.59-2.683 4.543-11.302-.106-19.252-4.649-7.95-12.138-12.22-16.728-9.536-4.59 2.682-4.543 11.301.106 19.251 4.649 7.95 12.138 12.22 16.729 9.537z" fill="#fff"/><path d="M35.39 58.289c-6.51-3.796-11.797-12.879-11.797-20.333 0-2.983.814-5.152 2.305-6.643-3.525.271-5.83 3.254-5.83 8.27 0 7.455 5.288 16.537 11.796 20.333 3.933 2.304 7.458 2.033 9.628-.136-1.899.271-3.933-.271-6.102-1.491z" fill="#D62D69"/></svg>