<svg width="127" height="117" fill="none" xmlns="http://www.w3.org/2000/svg"><path d="M4.832 83.821l49.202 28.799c3.88 2.288 9.083 3.525 14.56 3.525 5.432 0 10.544-1.237 14.423-3.482l39.115-22.157c2.146-1.237 3.743-2.701 4.838-4.304v-4.99c0 2.884-1.916 5.769-5.659 7.92L82.196 111.29c-3.743 2.151-8.672 3.25-13.602 3.25-4.975 0-9.95-1.099-13.738-3.295L5.654 82.448C1.912 80.251.04 77.367.04 74.482v5.036c1.05 1.648 2.693 3.068 4.792 4.303z" fill="#fff"/><path d="M54.81 111.25c7.531 4.394 19.81 4.442 27.34.045l39.115-22.157c7.531-4.35 7.531-11.538.046-15.932L72.108 44.409c-7.53-4.395-19.808-4.441-27.339-.046L5.654 66.521c-7.531 4.35-7.531 11.537-.045 15.932L54.81 111.25z" fill="#EEEEF6"/><path d="M55.085 84.752l-8.855-5.127c-2.1-1.19-5.477-1.19-7.576 0l-3.424 2.014-11.73-1.83v2.242c0 .779.502 1.603 1.552 2.198l27.842 16.115c2.1 1.19 5.477 1.19 7.576 0l13.601-7.966c1.005-.595 1.507-1.328 1.553-2.106v-2.38l-20.54-3.16z" fill="#636C9E"/><path d="M55.085 84.242l-8.855-5.128c-2.1-1.19-5.477-1.19-7.576 0L35.23 81.13 23.5 79.298v2.243c0 .778.502 1.602 1.552 2.198l27.842 16.114c2.1 1.191 5.477 1.191 7.576 0l13.601-7.965c1.005-.596 1.507-1.328 1.553-2.106v-2.38l-20.54-3.16z" fill="url(#paint0_linear)"/><path d="M24.87 81.862l27.84 16.115c1.05.641 2.466.962 3.971.962 1.507 0 2.967-.367 4.017-.962l13.601-7.966c.594-.32 1.05-.733 1.324-1.19v-1.42c0 .779-.502 1.603-1.552 2.198L60.47 97.565c-1.05.595-2.42.916-3.789.916-1.368 0-2.738-.32-3.742-.916L25.097 81.45c-1.05-.595-1.551-1.373-1.551-2.197v1.373c.274.504.73.916 1.323 1.236z" fill="#fff"/><path d="M60.47 97.605c-2.054 1.236-5.477 1.236-7.577 0L25.051 81.49c-2.099-1.19-2.099-3.205 0-4.395l13.602-7.966c2.054-1.236 5.477-1.236 7.576 0l27.842 16.115c2.1 1.19 2.1 3.204 0 4.395L60.47 97.605z" fill="url(#paint1_linear)"/><path d="M42.8 73.856c-.41.229-1.094.229-1.551 0l-1.186-.687c-.41-.228-.41-.64 0-.87l1.14-.686c.411-.23 1.096-.23 1.552 0l1.186.686c.41.23.41.642 0 .87l-1.14.687zm3.84 2.187c-.41.23-1.096.23-1.552 0l-1.186-.686c-.41-.23-.41-.641 0-.87l1.14-.687c.411-.228 1.096-.228 1.552 0l1.186.687c.411.229.411.64 0 .87l-1.14.686zm3.788 2.219c-.411.229-1.095.229-1.551 0l-1.187-.687c-.41-.229-.41-.64 0-.87l1.141-.686c.41-.23 1.095-.23 1.551 0l1.187.686c.41.23.41.641 0 .87l-1.141.687zm3.787 2.198c-.41.229-1.095.229-1.55 0l-1.187-.687c-.411-.229-.411-.641 0-.87l1.14-.687c.411-.229 1.096-.229 1.552 0l1.186.687c.411.229.411.641 0 .87l-1.14.687zm3.835 2.187c-.41.229-1.095.229-1.551 0l-1.187-.687c-.41-.229-.41-.64 0-.87l1.141-.686c.41-.23 1.095-.23 1.552 0l1.186.686c.41.23.41.641 0 .87l-1.141.687zm3.79 2.239c-.412.23-1.096.23-1.552 0l-1.186-.686c-.411-.23-.411-.642 0-.87l1.14-.687c.411-.229 1.095-.229 1.551 0l1.187.687c.41.228.41.64 0 .87l-1.14.686zm3.787 2.208c-.41.23-1.095.23-1.551 0l-1.187-.686c-.41-.23-.41-.641 0-.87l1.14-.687c.412-.229 1.096-.229 1.552 0l1.186.687c.411.229.411.64 0 .87l-1.14.686zm3.833 2.188c-.41.229-1.094.229-1.55 0l-1.187-.687c-.41-.229-.41-.641 0-.87l1.14-.687c.412-.228 1.096-.228 1.552 0l1.186.687c.411.229.411.641 0 .87l-1.14.687zM38.922 76.137c-.41.229-1.095.229-1.552 0l-1.186-.687c-.41-.229-.41-.64 0-.87l1.141-.686c.41-.23 1.095-.23 1.551 0l1.187.686c.41.23.41.641 0 .87l-1.141.687zm3.787 2.219c-.411.229-1.096.229-1.552 0l-1.186-.687c-.41-.23-.41-.64 0-.87l1.141-.686c.41-.23 1.095-.23 1.551 0l1.187.686c.41.23.41.64 0 .87l-1.141.687zm3.794 2.197c-.41.23-1.095.23-1.551 0l-1.187-.686c-.41-.23-.41-.641 0-.87l1.141-.687c.41-.229 1.095-.229 1.552 0l1.186.687c.41.229.41.64 0 .87l-1.141.686zm3.834 2.187c-.41.23-1.095.23-1.55 0l-1.187-.686c-.411-.229-.411-.641 0-.87l1.14-.687c.411-.228 1.095-.228 1.551 0l1.187.687c.41.229.41.641 0 .87l-1.14.687zm3.787 2.178c-.41.228-1.095.228-1.551 0l-1.187-.687c-.41-.23-.41-.641 0-.87l1.14-.687c.412-.229 1.096-.229 1.552 0l1.186.687c.411.229.411.64 0 .87l-1.14.687zm3.789 2.229c-.41.228-1.095.228-1.552 0l-1.186-.687c-.41-.23-.41-.641 0-.87l1.141-.687c.41-.229 1.095-.229 1.551 0l1.187.687c.41.229.41.64 0 .87l-1.141.687zm3.834 2.187c-.41.23-1.095.23-1.551 0l-1.186-.687c-.411-.229-.411-.64 0-.87l1.14-.686c.41-.23 1.095-.23 1.551 0l1.187.686c.41.23.41.641 0 .87l-1.14.687zm3.79 2.187c-.411.229-1.096.229-1.552 0l-1.186-.687c-.411-.228-.411-.64 0-.87l1.14-.686c.41-.229 1.095-.229 1.552 0l1.186.687c.41.228.41.64 0 .87l-1.14.686z" fill="#636C9E"/><path d="M38.922 76.137c-.41.229-1.095.229-1.552 0l-1.186-.687c-.41-.229-.41-.64 0-.87l1.141-.686c.41-.23 1.095-.23 1.551 0l1.187.686c.41.23.41.641 0 .87l-1.141.687zm3.787 2.219c-.411.229-1.096.229-1.552 0l-1.186-.687c-.41-.23-.41-.64 0-.87l1.141-.686c.41-.23 1.095-.23 1.551 0l1.187.686c.41.23.41.64 0 .87l-1.141.687zm3.794 2.197c-.41.23-1.095.23-1.551 0l-1.187-.686c-.41-.23-.41-.641 0-.87l1.141-.687c.41-.229 1.095-.229 1.552 0l1.186.687c.41.229.41.64 0 .87l-1.141.686zm3.834 2.187c-.41.23-1.095.23-1.55 0l-1.187-.686c-.411-.229-.411-.641 0-.87l1.14-.687c.411-.228 1.095-.228 1.551 0l1.187.687c.41.229.41.641 0 .87l-1.14.687zm3.787 2.178c-.41.228-1.095.228-1.551 0l-1.187-.687c-.41-.23-.41-.641 0-.87l1.14-.687c.412-.229 1.096-.229 1.552 0l1.186.687c.411.229.411.64 0 .87l-1.14.687zm3.789 2.229c-.41.228-1.095.228-1.552 0l-1.186-.687c-.41-.23-.41-.641 0-.87l1.141-.687c.41-.229 1.095-.229 1.551 0l1.187.687c.41.229.41.64 0 .87l-1.141.687zm3.834 2.187c-.41.23-1.095.23-1.551 0l-1.186-.687c-.411-.229-.411-.64 0-.87l1.14-.686c.41-.23 1.095-.23 1.551 0l1.187.686c.41.23.41.641 0 .87l-1.14.687zm3.79 2.187c-.411.229-1.096.229-1.552 0l-1.186-.687c-.411-.228-.411-.64 0-.87l1.14-.686c.41-.229 1.095-.229 1.552 0l1.186.687c.41.228.41.64 0 .87l-1.14.686zM35.008 78.408c-.41.229-1.095.229-1.551 0l-1.186-.687c-.411-.229-.411-.641 0-.87l1.14-.687c.41-.228 1.096-.228 1.552 0l1.186.687c.41.229.41.641 0 .87l-1.14.687zm3.777 2.197c-.41.23-1.095.23-1.551 0l-1.187-.686c-.41-.23-.41-.641 0-.87l1.141-.687c.411-.229 1.095-.229 1.552 0l1.186.687c.41.228.41.64 0 .87l-1.14.686zm3.787 2.188c-.41.229-1.095.229-1.551 0l-1.187-.687c-.41-.229-.41-.641 0-.87l1.141-.687c.41-.229 1.095-.229 1.552 0l1.186.687c.41.229.41.641 0 .87l-1.141.687zm3.839 2.177c-.41.228-1.095.228-1.55 0l-1.187-.687c-.411-.229-.411-.641 0-.87l1.14-.687c.411-.229 1.096-.229 1.552 0l1.186.687c.411.229.411.641 0 .87l-1.14.687zm3.788 2.218c-.41.23-1.095.23-1.551 0l-1.187-.687c-.41-.228-.41-.64 0-.87l1.14-.686c.412-.23 1.096-.23 1.552 0l1.187.687c.41.228.41.64 0 .87l-1.141.686zm3.789 2.24c-.41.228-1.095.228-1.55 0l-1.187-.687c-.411-.229-.411-.641 0-.87l1.14-.687c.411-.229 1.096-.229 1.552 0l1.186.687c.411.229.411.641 0 .87l-1.14.687zm3.834 2.187c-.41.229-1.095.229-1.552 0l-1.186-.687c-.41-.229-.41-.64 0-.87l1.141-.687c.41-.228 1.095-.228 1.551 0l1.187.687c.41.23.41.641 0 .87l-1.141.687zm3.788 2.208c-.41.229-1.095.229-1.551 0l-1.187-.686c-.41-.23-.41-.641 0-.87l1.14-.687c.411-.23 1.096-.23 1.552 0l1.186.686c.411.23.411.641 0 .87l-1.14.687z" fill="#636C9E"/><path d="M35.008 78.408c-.41.229-1.095.229-1.551 0l-1.186-.687c-.411-.229-.411-.641 0-.87l1.14-.687c.41-.228 1.096-.228 1.552 0l1.186.687c.41.229.41.641 0 .87l-1.14.687zm3.777 2.197c-.41.23-1.095.23-1.551 0l-1.187-.686c-.41-.23-.41-.641 0-.87l1.141-.687c.411-.229 1.095-.229 1.552 0l1.186.687c.41.228.41.64 0 .87l-1.14.686zm3.787 2.188c-.41.229-1.095.229-1.551 0l-1.187-.687c-.41-.229-.41-.641 0-.87l1.141-.687c.41-.229 1.095-.229 1.552 0l1.186.687c.41.229.41.641 0 .87l-1.141.687zm3.839 2.177c-.41.228-1.095.228-1.55 0l-1.187-.687c-.411-.229-.411-.641 0-.87l1.14-.687c.411-.229 1.096-.229 1.552 0l1.186.687c.411.229.411.641 0 .87l-1.14.687zm3.788 2.218c-.41.23-1.095.23-1.551 0l-1.187-.687c-.41-.228-.41-.64 0-.87l1.14-.686c.412-.23 1.096-.23 1.552 0l1.187.687c.41.228.41.64 0 .87l-1.141.686zm3.789 2.24c-.41.228-1.095.228-1.55 0l-1.187-.687c-.411-.229-.411-.641 0-.87l1.14-.687c.411-.229 1.096-.229 1.552 0l1.186.687c.411.229.411.641 0 .87l-1.14.687zm3.834 2.187c-.41.229-1.095.229-1.552 0l-1.186-.687c-.41-.229-.41-.64 0-.87l1.141-.687c.41-.228 1.095-.228 1.551 0l1.187.687c.41.23.41.641 0 .87l-1.141.687zm3.788 2.208c-.41.229-1.095.229-1.551 0l-1.187-.686c-.41-.23-.41-.641 0-.87l1.14-.687c.411-.23 1.096-.23 1.552 0l1.186.686c.411.23.411.641 0 .87l-1.14.687zM31.074 80.689c-.41.229-1.095.229-1.552 0l-1.186-.687c-.41-.229-.41-.64 0-.87l1.141-.686c.41-.23 1.095-.23 1.551 0l1.187.686c.41.23.41.641 0 .87l-1.14.687zm3.796 2.187c-.41.229-1.094.229-1.55 0l-1.187-.687c-.41-.228-.41-.64 0-.87l1.14-.686c.412-.229 1.096-.229 1.552 0l1.186.687c.411.228.411.64 0 .87l-1.14.686zm3.825 2.187c-.411.23-1.096.23-1.552 0l-1.187-.686c-.41-.23-.41-.641 0-.87l1.141-.687c.411-.229 1.096-.229 1.552 0l1.186.687c.41.228.41.64 0 .87l-1.14.686zm3.787 2.219c-.411.229-1.096.229-1.552 0l-1.186-.687c-.41-.229-.41-.64 0-.87l1.14-.686c.411-.23 1.096-.23 1.552 0l1.187.686c.41.23.41.641 0 .87l-1.141.687zm3.793 2.188c-.411.228-1.096.228-1.552 0l-1.186-.688c-.41-.229-.41-.64 0-.87l1.14-.686c.41-.23 1.096-.23 1.552 0l1.186.686c.41.23.41.641 0 .87l-1.14.687zm3.833 2.187c-.41.228-1.095.228-1.551 0l-1.187-.687c-.41-.229-.41-.641 0-.87l1.14-.687c.412-.229 1.096-.229 1.552 0l1.186.687c.411.229.411.641 0 .87l-1.14.687zm3.789 2.208c-.411.229-1.095.229-1.552 0l-1.186-.687c-.41-.23-.41-.64 0-.87l1.14-.686c.412-.23 1.096-.23 1.552 0l1.186.686c.411.23.411.64 0 .87l-1.14.687zm3.788 2.197c-.41.23-1.095.23-1.551 0l-1.186-.686c-.411-.23-.411-.641 0-.87l1.14-.687c.41-.229 1.096-.229 1.552 0l1.186.687c.41.229.41.64 0 .87l-1.14.686z" fill="#636C9E"/><path d="M31.074 80.689c-.41.229-1.095.229-1.552 0l-1.186-.687c-.41-.229-.41-.64 0-.87l1.141-.686c.41-.23 1.095-.23 1.551 0l1.187.686c.41.23.41.641 0 .87l-1.14.687zm3.796 2.187c-.41.229-1.094.229-1.55 0l-1.187-.687c-.41-.228-.41-.64 0-.87l1.14-.686c.412-.229 1.096-.229 1.552 0l1.186.687c.411.228.411.64 0 .87l-1.14.686zm3.825 2.187c-.411.23-1.096.23-1.552 0l-1.187-.686c-.41-.23-.41-.641 0-.87l1.141-.687c.411-.229 1.096-.229 1.552 0l1.186.687c.41.228.41.64 0 .87l-1.14.686zm3.787 2.219c-.411.229-1.096.229-1.552 0l-1.186-.687c-.41-.229-.41-.64 0-.87l1.14-.686c.411-.23 1.096-.23 1.552 0l1.187.686c.41.23.41.641 0 .87l-1.141.687zm3.793 2.188c-.411.228-1.096.228-1.552 0l-1.186-.688c-.41-.229-.41-.64 0-.87l1.14-.686c.41-.23 1.096-.23 1.552 0l1.186.686c.41.23.41.641 0 .87l-1.14.687zm3.833 2.187c-.41.228-1.095.228-1.551 0l-1.187-.687c-.41-.229-.41-.641 0-.87l1.14-.687c.412-.229 1.096-.229 1.552 0l1.186.687c.411.229.411.641 0 .87l-1.14.687zm3.789 2.208c-.411.229-1.095.229-1.552 0l-1.186-.687c-.41-.23-.41-.64 0-.87l1.14-.686c.412-.23 1.096-.23 1.552 0l1.186.686c.411.23.411.64 0 .87l-1.14.687zm3.788 2.197c-.41.23-1.095.23-1.551 0l-1.186-.686c-.411-.23-.411-.641 0-.87l1.14-.687c.41-.229 1.096-.229 1.552 0l1.186.687c.41.229.41.64 0 .87l-1.14.686z" fill="#636C9E"/><path d="M45.727 57.964l58.65 33.925V35.303l-58.65-33.97v56.631z" fill="url(#paint2_linear)"/><path d="M106.756 90.457l-2.38 1.465V35.337l2.38-1.465v56.585z" fill="#636C9E"/><path d="M48.146 0l-2.419 1.327 58.65 34.016 2.374-1.465L48.146 0z" fill="#F4F4FC"/><path d="M48.146 5.5l53.858 31.176v51.046L48.146 56.545V5.5zm-2.419-4.167v56.585l58.65 33.97V35.304l-58.65-33.97z" fill="#BDC1E6"/><path opacity=".7" d="M96.888 41.468c-5.477-3.16-5.477 7.782-10.908 4.623-5.477-3.158-5.477-14.1-10.909-17.259-5.477-3.16-5.477 7.783-10.908 4.624-5.477-3.159-5.477-14.101-10.908-17.26v18.175l43.633 25.272V41.468z" fill="url(#paint3_linear)"/><path d="M96.887 41.467c-5.477-3.16-5.477 7.783-10.908 4.623-5.477-3.158-5.477-14.1-10.909-17.259-5.477-3.159-5.477 7.783-10.908 4.624-5.477-3.159-5.477-14.1-10.908-17.26V34.37l43.633 25.272V41.467z" fill="url(#paint4_linear)"/><path d="M87.801 46.914c-.593 0-1.232-.183-1.962-.595-2.784-1.602-4.2-5.219-5.569-8.744-1.323-3.434-2.692-7.005-5.385-8.516-2.556-1.464-3.834.321-5.158 2.244-1.324 1.923-2.83 4.074-5.75 2.38-2.785-1.602-4.2-5.219-5.57-8.744-1.323-3.433-2.692-7.004-5.34-8.515a.221.221 0 01-.09-.275.22.22 0 01.274-.091c2.784 1.602 4.199 5.219 5.568 8.744 1.324 3.434 2.692 7.005 5.34 8.515 2.556 1.465 3.834-.32 5.157-2.243 1.324-1.923 2.83-4.075 5.751-2.38 2.785 1.602 4.2 5.218 5.569 8.743 1.323 3.434 2.692 7.005 5.385 8.516 2.556 1.465 3.835-.32 5.158-2.244 1.323-1.922 2.83-4.074 5.75-2.38.092.046.138.183.092.274-.045.092-.182.138-.273.092-2.556-1.465-3.835.32-5.158 2.244-1.005 1.419-2.1 2.975-3.789 2.975zM58.366 56.54c-2.829-1.647-5.156-5.676-5.156-8.926s2.327-4.579 5.156-2.93c.502.274.867.96.867 1.51s-.41.779-.867.504c-1.87-1.1-3.422-.229-3.422 1.968 0 2.152 1.551 4.807 3.422 5.906 1.87 1.099 3.422.23 3.422-1.969 0-.549.41-.778.867-.503.502.275.867.962.867 1.51.046 3.251-2.281 4.58-5.156 2.93z" fill="#FF5A72"/><path d="M82.832 70.454c-2.83-1.647-5.156-5.676-5.156-8.927 0-3.296 2.326-4.578 5.156-2.93 1.049.595 2.053 1.51 2.874 2.7.41.55.502 1.237.228 1.558-.274.32-.82.091-1.232-.412a6.378 6.378 0 00-1.916-1.786c-1.87-1.099-3.422-.229-3.422 1.969 0 2.152 1.551 4.807 3.422 5.905 1.87 1.1 3.422.23 3.422-1.968 0-.55.41-.778.867-.504.502.275.867.962.867 1.511.045 3.205-2.282 4.533-5.11 2.884z" fill="#BE3D50"/><path d="M73.064 56.032l-7.483-4.35v-1.739l7.483 4.349v1.74zm0 3.385l-7.482-4.303v-1.786l7.483 4.35v1.739zm0 3.431l-7.482-4.35v-1.785l7.483 4.35v1.785zm23.504 6.131l-7.528-4.304V62.89l7.528 4.35v1.739zm0 3.431l-7.528-4.35v-1.785l7.528 4.349v1.785zm0 3.401l-7.528-4.349v-1.74l7.528 4.304v1.785z" fill="#D0D4F9"/><defs><linearGradient id="paint0_linear" x1="48.727" y1="89.487" x2="64.529" y2="89.782" gradientUnits="userSpaceOnUse"><stop stop-color="#CFD5F7"/><stop offset="1" stop-color="#BCC2E6"/></linearGradient><linearGradient id="paint1_linear" x1="28.624" y1="79.168" x2="70.574" y2="87.506" gradientUnits="userSpaceOnUse"><stop stop-color="#C4CAEC"/><stop offset="1" stop-color="#B1B7DB"/></linearGradient><linearGradient id="paint2_linear" x1="124.192" y1="129.834" x2="53.974" y2="11.651" gradientUnits="userSpaceOnUse"><stop stop-color="#191468"/><stop offset="1" stop-color="#383097"/></linearGradient><linearGradient id="paint3_linear" x1="75.049" y1="46.645" x2="87.23" y2="25.612" gradientUnits="userSpaceOnUse"><stop/><stop offset="1" stop-color="#fff"/></linearGradient><linearGradient id="paint4_linear" x1="52.719" y1="26.959" x2="97.052" y2="50.323" gradientUnits="userSpaceOnUse"><stop stop-color="#B80036"/><stop offset="1" stop-color="#FF5A72"/></linearGradient></defs></svg>