<svg width="181" height="98" viewBox="0 0 181 98" fill="none" xmlns="http://www.w3.org/2000/svg">
<path opacity="0.5" d="M0.659836 70.956C0.659836 70.956 6.89101 69.8522 9.38356 68.3848C12.3528 66.6563 14.1855 64.3075 14.1855 61.6977C14.1855 56.8888 0.659836 52.5163 0.659836 52.5163C0.256744 52.3709 0.0368042 52.0756 0.183136 51.8189L6.34158 43.2622C6.5611 43.0055 7.07457 42.8943 7.51447 42.967C7.51447 42.967 22.3962 45.4656 28.2975 42.0515C34.1992 38.6331 29.9107 30.0378 29.9107 30.0378C29.8007 29.7811 30.0202 29.4902 30.4237 29.3404L45.2687 25.815C45.4155 25.7808 45.5254 25.7808 45.6722 25.7808L70.8173 19.9024L78.7712 25.815C78.9548 25.7808 79.1379 25.7808 79.3211 25.815L84.4161 27.0258C84.4529 26.9916 84.4893 26.9916 84.5261 26.9531C90.4278 23.539 86.1389 14.9437 86.1389 14.9437C86.0289 14.687 86.2489 14.3919 86.6519 14.2464L101.497 10.721C101.937 10.6483 102.487 10.7553 102.707 10.9778C102.707 10.9778 110.185 18.8371 118.505 18.8371C123.014 18.8371 127.119 17.7718 130.088 16.0818C132.581 14.6486 134.487 11.0505 134.487 11.0505C134.634 10.7938 135.11 10.6483 135.513 10.7553L150.322 14.3191C150.725 14.4304 150.981 14.7598 150.835 15.0165C150.835 15.0165 146.51 23.6117 152.411 27.0258C158.312 30.4443 173.194 27.9842 173.194 27.9842C173.634 27.9072 174.184 28.057 174.367 28.2752L180.489 36.8361C180.635 37.0928 180.415 37.3838 180.012 37.5335C180.012 37.5335 166.45 41.8675 166.45 46.6763C166.45 51.4895 180.012 55.8235 180.012 55.8235C180.415 55.9689 180.635 56.2641 180.489 56.5208L174.331 65.0775C174.111 65.3342 173.597 65.4455 173.158 65.3728C173.158 65.3728 158.276 62.8742 152.374 66.2927C146.473 69.7068 150.762 78.302 150.762 78.302C150.871 78.5587 150.652 78.8539 150.248 78.9993L94.1296 93.9864C94.0933 94.0207 94.0196 94.0206 93.9833 94.0206L79.1747 97.5845C78.7348 97.6573 78.185 97.546 77.965 97.3279C77.965 97.3279 70.4874 89.4685 62.1299 89.4685C53.8093 89.4685 46.2952 97.3279 46.2952 97.3279C46.0753 97.546 45.5254 97.6958 45.0855 97.5845L30.2769 94.0206C29.8739 93.9094 29.6171 93.58 29.7639 93.3233C29.7639 93.3233 34.0524 84.6938 28.1511 81.3139C28.1511 81.3139 28.1511 81.3139 28.1143 81.3139C28.1143 81.3139 28.0775 81.314 28.0775 81.2755C22.1763 77.8613 7.29453 80.3214 7.29453 80.3214C6.85463 80.3941 6.30478 80.2486 6.1212 80.0261L0 71.4309C0 71.2854 0.21994 71.0288 0.659836 70.956Z" fill="url(#paint0_linear)"/>
<path d="M57.6904 38.6558L57.5816 38.6172V27.5407L88.0477 19.0019C87.6124 17.4931 87.1048 16.4257 87.1048 16.4257C87.0684 16.3528 87.0684 16.3185 87.0684 16.2413V5.34918L108.612 11.239L124.462 11.2732L151.12 5.34918V16.1342L156.56 23.5285L180.534 27.5793V38.5057C180.534 38.7286 180.353 38.9473 180.026 39.0588C180.026 39.0588 174.405 40.8634 170.415 43.4739L180.498 47.0446V57.8981C180.498 57.9753 180.498 58.0482 180.462 58.121L174.368 66.6942C174.151 66.9514 173.643 67.0628 173.208 66.9899C173.208 66.9899 158.483 64.4866 152.643 67.9073C146.804 71.3323 151.047 79.9439 151.047 79.9439C151.156 80.2011 150.939 80.4926 150.54 80.6426L135.887 84.2134C135.452 84.2862 134.908 84.1748 134.69 83.9519C134.69 83.9519 127.291 76.0774 119.021 76.0774C110.788 76.0774 103.353 83.9519 103.353 83.9519C103.136 84.1748 102.592 84.3205 102.156 84.2134L87.5036 80.6426C87.2136 80.5698 86.996 80.3469 86.9595 80.1625V80.1283C86.9595 80.1283 86.9595 80.1283 86.9595 80.0897V69.1589C86.5607 68.6831 86.053 68.2759 85.4002 67.9073C85.4002 67.9073 85.4002 67.9073 85.3637 67.9073C85.3637 67.9073 85.3273 67.9073 85.3273 67.873C79.4882 64.4523 64.763 66.9171 64.763 66.9171C64.3277 66.99 63.7837 66.8442 63.6024 66.6213L57.5452 58.0096C57.4728 57.8981 57.5092 57.8253 57.5452 57.7138H57.5092V46.8988L61.6438 47.6704L68.0634 43.6968C64.1101 40.9363 58.0893 38.9858 58.0893 38.9858C57.9081 38.9472 57.7628 38.8015 57.6904 38.6558ZM100.271 49.7666C110.68 55.8749 127.545 55.8749 137.954 49.7666C141.4 47.7433 143.685 45.3128 144.845 42.7752C143.685 40.1989 141.364 37.7728 137.954 35.7838C127.545 29.6754 110.68 29.6754 100.271 35.7838C96.8249 37.807 94.5398 40.2375 93.3792 42.7752C94.5038 45.3128 96.8249 47.7433 100.271 49.7666Z" fill="#636C9E"/>
<path d="M57.6904 38.6558L57.5816 38.6172V27.5407L88.0477 19.0019C87.6124 17.493 87.1048 16.4256 87.1048 16.4256C87.0684 16.3528 87.0684 16.3185 87.0684 16.2456V5.34918L108.612 11.2389L124.462 11.2775L151.12 5.34918V16.1342L156.56 23.5285L180.534 27.5793V38.5057C180.534 38.7286 180.353 38.9472 180.026 39.0587C180.026 39.0587 174.405 40.8633 170.415 43.4738L180.498 47.0446V57.9024C180.498 57.9753 180.498 58.0481 180.462 58.121L174.368 66.6941C174.151 66.9513 173.643 67.0628 173.208 66.9899C173.208 66.9899 158.483 64.4865 152.643 67.9115C146.804 71.3322 151.047 79.9439 151.047 79.9439C151.156 80.2011 150.939 80.4968 150.54 80.6426L135.887 84.2133C135.452 84.2862 134.908 84.1747 134.69 83.9561C134.69 83.9561 127.291 76.0774 119.021 76.0774C110.788 76.0774 103.353 83.9561 103.353 83.9561C103.136 84.1747 102.592 84.3205 102.156 84.2133L87.5036 80.6426C87.2136 80.5697 86.996 80.3468 86.9595 80.1625V80.1282C86.9595 80.1282 86.9595 80.1282 86.9595 80.0896V69.1589C86.5607 68.6831 86.053 68.2759 85.4002 67.9115C85.4002 67.9115 85.4002 67.9115 85.3637 67.9115C85.3637 67.9115 85.3273 67.9115 85.3273 67.8729C79.4882 64.4522 64.763 66.917 64.763 66.917C64.3277 66.9899 63.7837 66.8442 63.6024 66.6213L57.5452 58.0096C57.4728 57.9024 57.5092 57.8253 57.5452 57.7181H57.5092V46.8988L61.6438 47.6704L68.0634 43.6967C64.1101 40.9362 58.0893 38.9858 58.0893 38.9858C57.9081 38.9129 57.7628 38.8015 57.6904 38.6558ZM100.271 49.7665C110.68 55.8748 127.545 55.8748 137.954 49.7665C141.4 47.7432 143.685 45.3171 144.845 42.7751C143.685 40.1989 141.364 37.7727 137.954 35.7838C127.545 29.6754 110.68 29.6754 100.271 35.7838C96.8249 37.807 94.5398 40.2375 93.3792 42.7751C94.5038 45.3171 96.8249 47.7432 100.271 49.7665Z" fill="#8B0834"/>
<path d="M151.293 68.2018C151.293 68.1269 151.293 68.0916 151.257 68.0123C151.257 68.0123 147.038 59.1241 152.843 55.6429C155.187 54.2063 159.009 53.7876 162.723 53.7876C168.131 53.7876 173.287 54.6998 173.287 54.6998C173.359 54.6998 173.467 54.7351 173.539 54.7351C173.9 54.7351 174.297 54.6205 174.441 54.3958L180.498 45.5825C180.534 45.5428 180.534 45.5031 180.534 45.4679V47.7373L175.45 55.189C175.414 55.2287 175.414 55.2639 175.378 55.2639C174.982 55.7574 174.297 56.0615 173.539 56.0615C173.395 56.0615 173.251 56.0615 173.071 56.0218C173.035 56.0218 167.951 55.1537 162.723 55.1537C158.468 55.1537 155.259 55.7177 153.456 56.815C149.13 59.4281 151.762 66.1615 152.267 67.3337C151.906 67.5584 151.581 67.8625 151.293 68.2018Z" fill="#9D4B4B"/>
<path d="M57.5036 45.4679C57.5036 45.5419 57.5036 45.5811 57.5406 45.6552L63.7078 54.4064C63.8923 54.5937 64.2618 54.7418 64.6313 54.7418C64.705 54.7418 64.8158 54.7418 64.8895 54.7026C64.8895 54.7026 70.1337 53.8445 75.6365 53.8445C79.4403 53.8445 83.3915 54.2539 85.8291 55.674C85.8291 55.674 85.8662 55.6784 85.8662 55.7132C85.8662 55.7132 85.8662 55.7132 85.9028 55.7132C91.8488 59.1893 87.5277 67.9404 87.5277 67.9404C87.4169 68.2018 87.6385 68.5024 88.045 68.6505L102.965 72.279C103.076 72.279 103.149 72.3182 103.26 72.3182C103.629 72.3182 103.999 72.205 104.183 72.0177C104.183 72.0177 111.717 64.0157 120.137 64.0157C128.52 64.0157 136.091 72.0177 136.091 72.0177C136.276 72.205 136.645 72.3182 137.014 72.3182C137.125 72.3182 137.199 72.3182 137.31 72.279L152.23 68.6505C152.303 68.6157 152.377 68.6157 152.451 68.5765C152.119 69.0643 151.86 69.587 151.676 70.1097L137.605 73.5118H137.568C137.384 73.551 137.236 73.551 137.051 73.551C136.312 73.551 135.648 73.2896 135.242 72.8409C135.168 72.7669 127.966 65.2484 120.211 65.2484C112.456 65.2484 105.255 72.7669 105.18 72.8409C104.774 73.2896 104.072 73.551 103.371 73.551C103.186 73.551 103.001 73.551 102.854 73.5118H102.817L87.8972 69.8876H87.8601C87.7864 69.8484 87.7126 69.8484 87.6385 69.8135V68.1278C87.3432 67.7924 87.0108 67.4918 86.6413 67.2304C87.1587 66.0717 89.8545 59.4158 85.4596 56.837H85.423L85.3859 56.7978C83.5023 55.7132 80.2159 55.1164 75.821 55.1164C70.4661 55.1164 65.3327 55.9746 65.259 55.9746C65.1111 56.0138 64.9637 56.0138 64.8158 56.0138C64.0402 56.0138 63.3383 55.7132 62.9322 55.2253C62.8956 55.1905 62.8952 55.1513 62.8585 55.1513L57.6881 47.8245V45.4679H57.5036Z" fill="#9D4B4B"/>
<path d="M57.5733 26.7458C57.5733 26.9714 57.7469 27.1579 58.0595 27.2663C58.0595 27.2663 70.9109 31.6598 70.8764 36.5782C70.8764 38.9593 69.4868 41.1192 67.1597 42.7933C66.8122 42.5331 66.4303 42.3119 66.0483 42.0517C68.4102 40.525 69.6952 38.5516 69.6952 36.5782C69.6952 35.9059 69.1397 34.0063 63.9297 31.2131C60.8383 29.578 57.712 28.498 57.6775 28.459C57.6078 28.4243 57.5733 28.4243 57.5036 28.3853V26.7458H57.5733Z" fill="#9D4B4B"/>
<path d="M180.534 26.7458V28.5334C180.503 28.5334 180.472 28.5696 180.409 28.5696C180.378 28.5696 177.533 29.6965 174.751 31.4479C170.093 34.3216 169.561 36.3038 169.561 37.0007C169.561 37.6614 169.999 39.449 173.907 42.0511C173.532 42.2865 173.157 42.558 172.781 42.7933C170.468 41.1596 168.499 39.1413 168.499 37.0007C168.499 31.914 180.065 27.3296 180.065 27.3296C180.378 27.212 180.534 26.9767 180.534 26.7458Z" fill="#9D4B4B"/>
<path d="M86.9882 5.4965C86.9882 5.4965 92.9038 12.2177 86.9238 16.0475V13.4802C87.696 12.1082 87.4384 10.5553 86.9238 9.21692V5.34918C86.9882 5.42494 86.9882 5.45862 86.9882 5.4965Z" fill="#9D4B4B"/>
<path d="M151.847 13.0819V15.484L152.451 16.0475C147.012 12.5184 151.494 5.84276 151.847 5.34918V9.1292C151.494 10.3632 151.343 11.774 151.847 13.0819Z" fill="#9D4B4B"/>
<path d="M102.195 25.7496C107.038 22.8462 113.346 21.3966 119.687 21.3966C126.029 21.3966 132.336 22.8462 137.18 25.7496C143.661 29.6335 145.787 35.1487 143.591 40.1187C143.347 39.7172 143.069 39.358 142.755 38.9565C143.069 38.0859 143.243 37.1773 143.243 36.2729C143.243 32.7524 140.873 29.4137 136.588 26.8399C132.092 24.1563 126.099 22.6687 119.687 22.6687C113.276 22.6687 107.282 24.1563 102.788 26.8399C98.5013 29.4137 96.1318 32.7524 96.1318 36.2729C96.1318 37.1773 96.3063 38.0859 96.6199 38.9565C96.3063 39.3199 96.0622 39.7172 95.7835 40.1187C93.5881 35.1487 95.7136 29.6335 102.195 25.7496Z" fill="#9D4B4B"/>
<path d="M87.0193 66.6743C87.0193 66.6743 91.2661 58.1677 85.4221 54.836C85.4221 54.836 85.4221 54.836 85.3857 54.836C85.3857 54.836 85.3497 54.836 85.3497 54.798C79.5053 51.4325 64.7681 53.8575 64.7681 53.8575C64.3325 53.9292 63.7879 53.7858 63.6066 53.5707L57.5444 45.0979C57.3995 44.8449 57.6533 44.5919 58.0889 44.5159C58.0889 44.5159 64.26 43.4321 66.7284 41.9813C69.6683 40.2817 71.4833 37.9663 71.4833 35.3937C71.4833 30.6491 58.0889 26.3432 58.0889 26.3432C57.6897 26.1956 57.4719 25.9087 57.6173 25.6557L63.7155 17.2167C63.9333 16.9636 64.4414 16.8582 64.877 16.9299C64.877 16.9299 79.6142 19.3928 85.4586 16.0231C91.3026 12.6576 87.0557 4.1849 87.0557 4.1849C86.9468 3.93186 87.1646 3.64082 87.5638 3.49742L102.265 0.0223211C102.701 -0.0493749 103.245 0.05605 103.463 0.275355C103.463 0.275355 110.868 8.0227 119.107 8.0227C123.572 8.0227 127.638 6.97257 130.578 5.3067C133.046 3.89386 134.934 0.347044 134.934 0.347044C135.079 0.0939995 135.551 -0.0493934 135.95 0.0560418L150.615 3.56911C151.014 3.67876 151.268 4.00355 151.123 4.25659C151.123 4.25659 146.84 12.7293 152.684 16.0948C158.528 19.4645 173.266 17.0395 173.266 17.0395C173.701 16.9636 174.246 17.1112 174.427 17.3263L180.489 25.7612C180.634 26.0184 180.416 26.3052 180.017 26.4528C180.017 26.4528 166.587 30.725 166.587 35.4654C166.587 40.21 180.017 44.4822 180.017 44.4822C180.416 44.6256 180.634 44.9166 180.489 45.1696L174.391 53.6045C174.173 53.8575 173.665 53.9671 173.229 53.8955C173.229 53.8955 158.492 51.4325 152.648 54.798C146.804 58.1677 151.051 66.6405 151.051 66.6405C151.16 66.8935 150.942 67.1803 150.542 67.3279L135.878 70.841C135.442 70.9127 134.898 70.803 134.68 70.5837C134.68 70.5837 127.275 62.8364 118.999 62.8364C110.759 62.8364 103.318 70.5837 103.318 70.5837C103.1 70.803 102.555 70.9465 102.12 70.841L87.4549 67.3279C87.1282 67.2563 86.9104 66.9273 87.0193 66.6743ZM137.33 45.9288C147.384 40.1383 147.384 30.7588 137.33 24.9683C127.275 19.1735 110.976 19.1735 100.922 24.9683C90.8669 30.7588 90.8669 40.1383 100.922 45.9288C110.94 51.7235 127.238 51.7235 137.33 45.9288Z" fill="#B80036"/>
<defs>
<linearGradient id="paint0_linear" x1="146.844" y1="38.0982" x2="5.10544" y2="78.4084" gradientUnits="userSpaceOnUse">
<stop stop-color="#B80036"/>
<stop offset="0.0962785" stop-color="#B80036" stop-opacity="0.7"/>
<stop offset="0.2236" stop-color="#B80036" stop-opacity="0.6"/>
<stop offset="0.357" stop-color="#B80036" stop-opacity="0.4"/>
<stop offset="0.4958" stop-color="#B80036" stop-opacity="0.1"/>
<stop offset="0.6425" stop-color="#B80036" stop-opacity="0.05"/>
<stop offset="0.8024" stop-color="#FCFCFD" stop-opacity="0"/>
<stop offset="1" stop-color="white" stop-opacity="0"/>
</linearGradient>
</defs>
</svg>
