<svg width="74" height="122" viewBox="0 0 74 122" fill="none" xmlns="http://www.w3.org/2000/svg">
<path d="M40.8136 4.74447C31.1865 -0.813306 22.6441 -0.94887 16.678 3.25335L9.76277 6.50668L10.5763 10.98C9.08477 14.3689 8.27124 18.5711 8.27124 23.4511C8.27124 37.5489 15.8645 59.78 23.5933 79.0289L31.7289 121.458L40.678 116.984C40.678 116.984 73.0848 90.1445 73.0848 60.8645C73.2204 40.1245 58.7119 15.0467 40.8136 4.74447Z" fill="#8B0834"/>
<path d="M64.2712 65.2022C64.2712 94.4822 31.8644 121.322 31.8644 121.322C31.8644 121.322 -0.542358 57.0689 -0.542358 27.7889C-0.542358 7.18445 13.9661 -1.08445 31.8644 9.35333C49.7627 19.52 64.2712 44.5978 64.2712 65.2022Z" fill="#B80036"/>
<path opacity="0.7" d="M33.8982 8.13332C24.5423 2.7111 16.1355 2.44 10.1694 6.37111C15.8643 3.79556 23.4576 4.47331 31.8643 9.35331C49.7626 19.6555 64.2712 44.7333 64.2712 65.3378C64.2712 90.4156 40.4067 113.596 33.627 119.831C33.7626 120.102 32.5423 120.78 32.5423 120.78C32.5423 120.78 66.3051 93.3978 66.3051 64.1177C66.3051 43.5133 51.7966 18.4355 33.8982 8.13332Z" fill="#D62D69"/>
<path d="M40.3035 60.8398C44.8936 58.1571 44.846 49.5379 40.1972 41.5883C35.5484 33.6386 28.0589 29.3689 23.4688 32.0516C18.8787 34.7343 18.9263 43.3535 23.5751 51.3031C28.2239 59.2528 35.7134 63.5225 40.3035 60.8398Z" fill="white"/>
<path d="M35.3899 58.2889C28.8814 54.4933 23.5933 45.4111 23.5933 37.9556C23.5933 34.9733 24.4068 32.8045 25.8984 31.3134C22.3729 31.5845 20.0679 34.5667 20.0679 39.5823C20.0679 47.0378 25.356 56.12 31.8645 59.9156C35.7967 62.22 39.3221 61.9489 41.4916 59.78C39.5933 60.0511 37.5594 59.5089 35.3899 58.2889Z" fill="#D62D69"/>
</svg>
