<svg width="265" height="53" fill="none" xmlns="http://www.w3.org/2000/svg"><g clip-path="url(#clip0)"><path fill-rule="evenodd" clip-rule="evenodd" d="M144.182 36.952c-2.442 0 2.218-4.786 2.216-2.302 0 .492-1.657 2.302-2.216 2.302zM131.215 22.97v-.82c.263-1.213 1.637-2.415 3.287-4.306.242-.277.514-.546.782-.801 1.318-1.253 2.609-1.018 4.106-.33 3.115 1.43 4.718-.768 6.194-.768 1.489 0 1.842.707 2.747.944.789.207.666-.56 2.457-.823 2.389-.351 3.963 1.82 4.958 1.82.903 0 1.899-.832 2.455-1.234 2.983-2.158 4.091-.826 5.957 1.587 1.122 1.45 2.102 2.312 2.102 4.061 0 1.379-4.181 5.354-5.082 6.708.204.881.833 1.317.619 2.372-.099.487-.242.773-.5 1.102-.339.432-.432.454-.995.586 0 2.74-1.008 3.354-3.329 3.354-.2.864-1.084 1.766-2.103 1.766-1.61 0-1.05-.052-2.278-.706-.601.443-.842 1.412-2.102 1.412-2.269 0-2.174-1.044-3.505-1.942-.751.507-1.062 1.765-2.453 1.765-1.37 0-2.322-.442-2.628-1.765-1.578.37-2.56 1.387-4.03-1.412-1.563 0-2.025.017-2.765-.922-.626-.796-.634-1.727-.214-2.609-3.855-2.055-.364-4.748 0-5.296-2.379-1.605-3.456-2.729-3.68-3.743zm8.411 12.04c0-.788.465-.846.902-1.386.403-.5.504-.657.981-1.13.259-.256.834-.956 1.022-1.11.535-.44 1.217-.165 1.256.459.033.51-2.9 3.573-2.901 3.574-.489.362-1.26.341-1.26-.407zm-2.453-1.235c-.532 0-.798-.137-.788-.673.01-.625 2.798-3.285 3.486-4.201.781-1.041 1.682-1.002 1.682.107 0 .371-3.782 4.767-4.38 4.767zm-1.577-3.355c-1.108-.97-1.149-.773 1.965-4.027.337-.352.742-.857 1.284-.31.807.813-.763 1.866-1.189 2.353-.781.893-.951 1.393-2.06 1.984zm12.09-8.473c-.741 0-2.128-.989-.413-2.005.983-.582 2.696-1.89 3.386-2.075 1.964-.53 3.167 1.785 5.263 1.785 2.119 0 3.449-2.295 4.906-2.295.651 0 3.68 4.027 3.68 4.767 0 .583-3.904 4.667-4.556 5.649-.34-.23-.709-.567-1.075-.86-.361-.29-.716-.558-1.067-.866-1.461-1.287-2.913-2.385-4.295-3.794-2.864-2.92-4.638-.306-5.829-.306zm-2.979-1.236c0 2.286 1.546 3.001 3.505 3.001 2.093 0 1.581-2.244 3.91-.232l7.208 6.508c.745.569.84.55.622 1.492-1.237 0-.89-.186-1.63-.83l-2.699-2.4c-.952-.804-1.711-2.145-2.68-.301.902 1.717 5.607 4.914 5.607 5.826 0 .43-.406.882-1.051.882-.372 0-3.847-3.26-4.507-3.934-1.356-1.387-2.962-.037-1.078 1.44.557.436.874.914 1.431 1.383.613.516.931.743 1.492 1.327.464.482.897 1.55-.142 1.55-.944 0-1.837-1.282-2.554-1.84-.858-.668-1.738-2.044-2.703-2.044-.41 0-.7.293-.7.706 0 1.218 2.277 2.185 2.277 2.824 0 2.68-2.907-.481-2.978-.53.48-2.021-.492-3.353-2.629-3.353 0-1.386-.538-2.517-2.102-2.648 0-1.424-.144-2.984-2.453-3.178-.171-2.066-2.984-3.512-4.731-.882l-1.679-1.31c-.346-.272-.469-.39-.781-.626-1.399-1.057-.554-1.65.664-2.875.707-.712 1.03-1.05 1.669-1.848 1.887-2.355 4.075 1.687 8.424-.517 1.468-.745.91-.627 2.566-.238-.127.111-.032.053-.285.242-.538.4-1.993.946-1.993 2.405z" fill="#8B0834"/><path fill-rule="evenodd" clip-rule="evenodd" d="M64.333 38.88v-8.165H75.05a6.22 6.22 0 001.927-.296 4.854 4.854 0 001.569-.823 4.042 4.042 0 001.078-1.35c.261-.526.457-1.08.588-1.662a12.08 12.08 0 00.262-1.745 21.18 21.18 0 00.065-1.563c0-.483-.016-1-.049-1.548a10.697 10.697 0 00-.229-1.646 7.528 7.528 0 00-.523-1.563 4.235 4.235 0 00-.93-1.3 3.896 3.896 0 00-1.128-.807A5.834 5.834 0 0076.47 16a6.388 6.388 0 00-1.175-.148 36.013 36.013 0 00-1.03-.016h-10.88c-.393 0-.829.055-1.308.164-.479.11-.904.351-1.274.724-.392.396-.621.813-.686 1.252a8.924 8.924 0 00-.098 1.316V38.88h4.313zm0-11.621v-6.584c0-.198.01-.39.032-.576a.858.858 0 01.262-.51c.174-.176.348-.27.523-.28a7.8 7.8 0 01.49-.017h6.96c.37 0 .817.039 1.34.115a2.32 2.32 0 011.34.675c.37.373.598.867.685 1.482A12.05 12.05 0 0176.08 24a5.722 5.722 0 01-.327 1.695 2.15 2.15 0 01-.408.708c-.37.439-.812.691-1.324.757-.512.066-1.007.099-1.487.099h-8.201zm32.25 11.62c.894 0 1.689-.088 2.386-.263a7.78 7.78 0 001.83-.691 6.269 6.269 0 001.307-.922c.348-.33.643-.648.882-.955a7.74 7.74 0 001.095-2.09c.272-.78.479-1.575.621-2.387.141-.812.228-1.602.261-2.37s.049-1.47.049-2.107c0-.68-.016-1.393-.049-2.14a14.263 14.263 0 00-.278-2.238 10.281 10.281 0 00-.702-2.173 7.783 7.783 0 00-1.291-1.975c-.697-.768-1.59-1.415-2.679-1.942-1.09-.527-2.43-.79-4.02-.79h-8.953c-.697 0-1.236.12-1.617.362-.381.241-.659.45-.833.625-.37.44-.594.89-.67 1.35-.076.46-.114.91-.114 1.35v16.426c0 .637.103 1.136.31 1.498.207.362.42.631.637.807.087.066.321.186.703.362.38.175.996.263 1.846.263h9.28zm-8.462-18.204c0-.242.043-.466.13-.675a1.22 1.22 0 01.327-.477c.153-.11.327-.176.523-.198.196-.022.36-.033.49-.033h4.477c.392 0 .806.022 1.241.066a7.84 7.84 0 011.307.247c.436.12.855.29 1.258.51.404.22.768.505 1.095.856.349.373.632.796.85 1.268.217.471.381.96.49 1.464a10.4 10.4 0 01.212 1.548c.033.526.049 1.031.049 1.514 0 1.953-.12 3.418-.359 4.395-.24.976-.501 1.684-.784 2.123-.502.812-1.15 1.372-1.945 1.679-.795.307-1.791.46-2.99.46h-4.966a5.27 5.27 0 01-.588-.032.804.804 0 01-.523-.296c-.175-.176-.267-.368-.278-.577-.01-.208-.016-.433-.016-.674V20.675zm20.161 18.204h4.313V20.94c0-.242.016-.467.049-.676.033-.208.169-.411.408-.609.175-.175.349-.28.523-.312a3.39 3.39 0 01.621-.05h6.993c.348 0 .751.028 1.209.082.457.055.86.258 1.209.61.239.24.435.603.588 1.086.152.483.228 1.185.228 2.107 0 .197-.005.439-.016.724s-.033.576-.065.872a5.811 5.811 0 01-.164.873 2.58 2.58 0 01-.277.691c-.305.46-.681.746-1.128.856-.446.11-.855.165-1.225.165h-4.313c-.632 0-1.111.148-1.438.444-.327.296-.49.675-.49 1.136v.526c0 .33.12.675.359 1.037.24.362.48.664.719.905l7.516 7.473h5.424l-8.692-8.13v-.165h2.941c.653 0 1.22-.072 1.699-.214.479-.143.888-.33 1.225-.56a3.75 3.75 0 00.834-.757c.217-.274.403-.554.555-.84a7.185 7.185 0 00.833-2.617c.098-.889.147-1.75.147-2.584 0-.834-.054-1.69-.163-2.568-.109-.877-.436-1.711-.98-2.501-.327-.505-.692-.9-1.095-1.186a4.349 4.349 0 00-1.258-.625 6.086 6.086 0 00-1.307-.247c-.436-.033-.85-.05-1.242-.05h-10.848c-.436 0-.899.056-1.389.165-.49.11-.942.363-1.356.758-.457.438-.729.927-.817 1.464a9.595 9.595 0 00-.13 1.531V38.88zm73.553.061V19.351h8.953v-3.457h-22.187v3.457h8.92V38.94h4.314zm28.918 0v-3.457h-12.221c-.349 0-.648-.017-.899-.05-.25-.033-.441-.115-.571-.247-.218-.175-.327-.472-.327-.889V28.9h13.56v-3.457h-13.56V20.8a3.4 3.4 0 01.049-.56c.032-.197.136-.383.31-.559.174-.153.365-.247.572-.28.207-.032.408-.049.605-.049h12.351v-3.457h-14.671c-.436 0-.91.045-1.422.132-.512.088-.953.34-1.323.757a3.22 3.22 0 00-.572 1.07 4.204 4.204 0 00-.212 1.334v16.328c0 .438.043.905.13 1.398.087.494.327.928.719 1.3.37.374.773.588 1.209.643.436.055.904.082 1.405.082h19.41l2.32-5.827h11.011l2.353 5.827h4.542l-8.627-20.706c-.413-.966-.898-1.64-1.454-2.025-.555-.384-1.323-.576-2.303-.576-1.024 0-1.803.192-2.337.576-.533.384-1.007 1.06-1.421 2.025l-8.626 20.706zm11.73-18.304c.066-.176.153-.379.262-.61.109-.23.239-.345.392-.345.152 0 .283.116.392.346.109.23.196.433.261.609l3.725 9.382h-8.79l3.758-9.382zm37.381.428c.044-.132.12-.29.229-.477.109-.187.218-.28.327-.28.065 0 .147.038.245.115.098.077.147.269.147.576l-.131 17.941h4.313V18.661c0-1.054-.348-1.822-1.045-2.305-.697-.482-1.58-.724-2.647-.724-.414 0-.806.033-1.176.099-.371.066-.73.203-1.079.411a3.497 3.497 0 00-.964.89c-.294.383-.56.905-.8 1.563l-5.914 15.373a6.166 6.166 0 01-.311.61c-.098.164-.201.246-.31.246-.109 0-.213-.082-.311-.247a6.182 6.182 0 01-.31-.609l-5.914-15.373a9.883 9.883 0 00-.523-1.136 3.712 3.712 0 00-.735-.954 3.075 3.075 0 00-1.111-.642c-.447-.154-.997-.23-1.65-.23-.175 0-.463.016-.866.049a3.505 3.505 0 00-1.226.345c-.414.198-.784.5-1.111.905-.326.407-.49.983-.49 1.729v20.278h4.313L240.716 21c0-.045.017-.171.049-.38.033-.208.136-.312.311-.312.109 0 .218.093.326.28.109.186.186.345.229.477l5.849 15.373c.131.373.272.724.425 1.054.152.329.348.62.588.872s.539.455.899.609c.359.154.811.23 1.356.23.501 0 .926-.06 1.274-.18a2.26 2.26 0 00.882-.544c.24-.241.441-.532.605-.872.163-.34.332-.73.506-1.169l5.849-15.373z" fill="#222454"/><path fill-rule="evenodd" clip-rule="evenodd" d="M6.23 8.49s-.551 1.771-.757 2.148c-.207.376-1.048 1.488-1.215 1.683a7.746 7.746 0 00-.258.311l1.121.494s.655-.948 1.036-1.541l7.343 4.398 1.16-.91-8.068-4.363c.24-.64.605-1.675.605-1.675L6.23 8.49z" fill="#FFEC00" stroke="#222454" stroke-width=".567"/><path fill-rule="evenodd" clip-rule="evenodd" d="M25.984-.144c14.579 0 26.707 4.738 26.707 19.426 0 14.688-12.953 33.763-26.707 33.763-13.755 0-26.089-19.075-26.089-33.763 0-14.688 11.51-19.426 26.089-19.426z" fill="#8B0834"/><path d="M24.887.167c13.81 0 25.3 4.49 25.3 18.403 0 13.914-12.27 31.984-25.3 31.984-13.03 0-24.714-18.07-24.714-31.984C.173 4.656 11.076.167 24.887.167z" fill="url(#paint0_linear)"/><path fill-rule="evenodd" clip-rule="evenodd" d="M28.876 52.766l-.017.003-.018.003-.017.004a16.52 16.52 0 01-1.05.16c-.595.072-1.192.11-1.79.11-13.755 0-26.089-19.076-26.089-33.763 0-1.491.12-2.878.349-4.17l.006-.035c.031-.174.065-.346.1-.517l.017-.082a19.261 19.261 0 01.4-1.57v-.003c6.848 2.172 11.785 4.907 17.14 10.046 1.613 1.55 2.993 3.086 4.173 4.642 4.664 6.15 6.201 12.606 6.682 21.32.079 1.434.11 2.736.114 3.852z" fill="#8B0834"/><path fill-rule="evenodd" clip-rule="evenodd" d="M-.056 17.742c4.947 1.411 8.548 2.951 13.16 6.076 2.49 1.688 6.444 5.195 8.03 7.792 1.879 3.077 2.935 5.27 3.528 8.286 0 0-.289-.362-.95-1.475-.255-.428-.623-.964-1.105-1.628-4.095-5.637-10.533-9.838-17.006-12.117-1.349-.475-3.59-1.017-5.467-1.436a29.178 29.178 0 01-.25-3.732c0-.606.021-1.194.06-1.766z" fill="#B80036"/><path fill-rule="evenodd" clip-rule="evenodd" d="M.766 12.906c6.848 2.172 11.785 4.907 17.14 10.046 1.613 1.549 2.993 3.086 4.173 4.642 4.664 6.15 6.201 12.606 6.682 21.32.079 1.434.11 2.736.114 3.852-.575.108-1.152.186-1.732.232-.169-2.383-.431-5.238-.786-6.613-2.143-8.302-8.366-14.359-15.966-17.564-3.066-1.293-6.324-2.2-9.651-2.496a34.2 34.2 0 01-.676-3.991c1.964.43 4.49 1.026 5.96 1.544 6.473 2.28 12.91 6.48 17.005 12.117.482.664.85 1.2 1.105 1.628.662 1.114.95 1.475.95 1.475-.593-3.016-1.649-5.209-3.528-8.286-1.586-2.596-5.54-6.103-8.03-7.792-4.722-3.2-8.384-4.738-13.517-6.177.136-1.415.391-2.726.757-3.937z" fill="#fff"/><path d="M36.393 14.89c.187-.983.263-1.855-.59-2.905-.573-.705-2.103-1.03-2.885-.929-.952.125-2.345 1.07-2.662 2.72-.25 1.3-.276 2.03-.105 2.67.302 1.135 1.046 1.656 1.976 1.435.165-.04.213-.023.137.061-.32.35-1.212.137-1.766.042-1.508-.246-2.385-.462-3.275-.663-1.44-.326-2.786-.413-4.283-.88-2.99-.936-3.897-1.683-5.072-2.15-1.175-.467-2.83-.89-3.964-.526-.225.072-.45.146-.665.217l-6.704-3.626c.25-.538.395-1.147.656-1.704-.324-.198-.222-.141-.549-.268-.345.649-.92 1.2-1.25 1.836-.33.637-.581 1.14-.852 1.714-.055.117-.28.474-.142.571.068.048.705.364.787.38.078.016.13-.052.17-.124.11-.192.208-.41.307-.61l.004-.008c.111-.224.21-.422.311-.617.053-.103.101-.21.163-.31l5.51 3.325c.019.185.18 1.438 1.254 1.75 1.16.338 1.426.565 1.735.487.31-.078.556-.701 1.34-.572.785.13 5.492 2.883 6.574 3.273 1.083.39 2.087.979 3.223 1.207 3.314.669 2.476.595 5.104 4.273.797 1.114 1.463 1.376 1.792 1.818.328.441-.877 1.013-1.496 1.35-.618.338-6.909 1.3-7.501 1.455-.593.156-2.037.26-2.836.286-.8.026-.786.26-.76.649.025.39.367 1.247 1.14 1.74.774.493 1.167.52 1.592.545.425.026 1.586-1 1.947-1.13.36-.13 6.599.117 7.475-.22.76-.293 2.022-1.12 2.597-1.506l.002-.001c.076-.052.155-.108.233-.157 1.11-.705 1.913-1.833 2.604-2.942.03-.049.067-.023.058.038-.031.21-.68 1.729-1.951 3.172-.144.162.094.387.2.526.501.657.965 1.544.936 1.779-.051.415-1.972 2.467-3.003 4.09-1.031 1.624-2.797 4.584-2.926 5.104-.129.52-.251.883-.251 1.688 0 3 .118 5.993.235 8.988a18.933 18.933 0 003.594-1.565c.112-1.623.443-3.977.431-5.099-.009-.831-.103-1.454.077-1.947.18-.494.722-1.091.89-1.312.167-.22 3.312-3.941 3.831-4.659.174-.24.5-.5.299-.827-.338-.549-.621-1.01-.606-1.05.016-.04.067-.038.175.04.376.275.953.786 1.234 1.182.71.791 2.29 4.083 3.203 4.967a.185.185 0 00.138.052 43.03 43.03 0 003.248-4.903c-.33-.607-.977-1.805-1.204-2.308-.31-.688-.85-2.74-1.624-3.779-1.045-1.404-1.97-2.954-2.62-4.536-1.004-2.45-1.663-4.916-3.532-6.581-.89-.792-1.847-1.167-2.187-1.499-.957-.933-.175-2.182.08-3.518z" fill="url(#paint1_radial)"/><path d="M32.3 17.886c-.096.134-.196.165-.255.184-.413.131-1.1-.01-1.547-.086-1.508-.246-2.385-.461-3.275-.663-1.44-.326-2.786-.413-4.283-.88-2.99-.936-3.897-1.682-5.072-2.15a11.205 11.205 0 00-.754-.269.1.1 0 01-.021.005c-.154.01 4.37 3.011 5.1 3.653.85.745 2.143.964 3.249.916 1.744-.075 3.457 1.214 5.306.763.392-.095 1.422-.702 1.533-1.215.01-.047.038-.23.018-.258z" fill="url(#paint2_linear)"/><path fill-rule="evenodd" clip-rule="evenodd" d="M9.757 35.814c2.873-1.284 7.567 2.601 10.485 8.678 1.385 2.884 2.03 5.234 2.503 8.205a17.986 17.986 0 01-3.575-1.18c.02-1.74-.738-4.232-1.887-6.788-1.86-4.137-4.568-6.938-6.398-6.063-1.292.617-1.66 2.822-1.111 5.521a38.82 38.82 0 01-2.115-2.686c-.194-2.817.504-4.973 2.098-5.687z" fill="#fff"/><path fill-rule="evenodd" clip-rule="evenodd" d="M19.17 51.515c-3.427-1.53-6.627-4.117-9.396-7.326-1.728-2.003-1.133-1.315 0-.001-.549-2.7-.181-4.905 1.11-5.522 1.831-.874 4.54 1.926 6.4 6.064 1.148 2.555 1.906 5.047 1.887 6.785z" fill="#8B0834"/><path fill-rule="evenodd" clip-rule="evenodd" d="M17.348 50.591c-2.74-1.555-5.302-3.769-7.574-6.402-1.728-2.003-1.133-1.315 0-.001-.549-2.7-.181-4.905 1.11-5.522.148-.07.301-.117.46-.14 1.422.95 2.944 3.038 4.125 5.663 1.066 2.373 1.796 4.691 1.88 6.402z" fill="#A80337"/><path fill-rule="evenodd" clip-rule="evenodd" d="M36.696 21.462c-2.708-.189-2.827 3.335-3.986 5.56-.312.598-1.04.944-2.014 1.266-.865.286-2.9.567-3.593.689-1.915.335-3.116.605-5.304.874-1.19.146-1.886-.31-1.668.955.058.338.621 1.429 1.197 1.328.49-.086 1.777-1.676 3.008-2 1.244-.328 6.177 1.274 8.792-.378 2.284-1.443 3.71-1.992 4.494-4.47.209-.68.42-1.133.721-1.506.181-.225.387-.034.413.13.125 1.012-.073 1.16-.303 2.062-.422 1.66-.02 4.595 1.474 5.573 1.01.66 1.639.634 2.234.32 1.1-.581 2.318-1.597 3.11 1.345.18.674.047 2.387.042 3.485-.006 1.556.342 2.06.617 2.933.543-.82 1.06-1.66 1.547-2.518-.33-.607-.977-1.805-1.204-2.308-.309-.688-.85-2.74-1.624-3.779-.326-.438-.64-.89-.938-1.354l-.019-.029-.024-.038-.019-.029-.006-.01-.024-.038-.025-.038-.024-.04-.012-.018-.012-.02-.018-.028-.006-.01a27.983 27.983 0 01-.072-.117l-.012-.018-.012-.02a27.958 27.958 0 01-.071-.117l-.005-.01-.018-.03-.047-.078-.023-.038v-.001l-.023-.04-.023-.039-.011-.018-.012-.02-.017-.029-.006-.011a18.744 18.744 0 01-1.14-2.298c-1.005-2.45-1.663-4.916-3.533-6.581-.467-.416-2.043-1.335-2.187-1.499-.186-.212-.31-.28-.39-.628a2.466 2.466 0 01.046-1.288c.16-.446.339-1.236.51-2.138.172-.903.015-1.512-.402-2.063-.871-.074-1.624-.258-2.41.383-.401.327.208.835.208 1.553 0 1.086-2.663 1.652-2.263 2.454.244.487.654.586 1.205.582 1.212-.008 1.507-.747 1.43.884-.167 3.494 1.807 2.458 2.723 2.914.135.067.629.343.584.633-.006.037-.075.159-.19.073a1.062 1.062 0 00-.081-.074 1.076 1.076 0 00-.583-.23z" fill="#F2BDBC"/><path d="M36.846 33.166c-.268.4-1.642 2.015-2.673 3.639-1.031 1.623-2.836 4.584-2.965 5.103-.129.52-.251.883-.251 1.688 0 1.289.025 2.575.056 3.861.016.678.166 1.233.42.335.592-2.09.277-3.907 2.344-5.484 2.58-1.968 5.91-5.172 4.03-8.7-.225-.42-.693-.842-.961-.442z" fill="url(#paint3_linear)"/></g><defs><linearGradient id="paint0_linear" x1="43.495" y1="-135.608" x2="78.505" y2="-171.594" gradientUnits="userSpaceOnUse"><stop stop-color="#8B0834"/><stop offset="1" stop-color="#fff"/></linearGradient><linearGradient id="paint2_linear" x1="80.544" y1="-41.63" x2="84.93" y2="-38.468" gradientUnits="userSpaceOnUse"><stop stop-color="#FAD9DE"/><stop offset="1" stop-color="#fff"/></linearGradient><linearGradient id="paint3_linear" x1="103.939" y1="-41.776" x2="116.252" y2="-32.896" gradientUnits="userSpaceOnUse"><stop stop-color="#FAD4DA"/><stop offset="1" stop-color="#fff"/></linearGradient><radialGradient id="paint1_radial" cx="0" cy="0" r="1" gradientUnits="userSpaceOnUse" gradientTransform="matrix(25.8765 0 0 26.3085 25.918 30.308)"><stop stop-color="#fff"/><stop offset="1" stop-color="#F2EBE5"/></radialGradient><clipPath id="clip0"><path fill="#fff" d="M0 0h265v53H0z"/></clipPath></defs></svg>