<svg width="265" height="53" viewBox="0 0 265 53" fill="none" xmlns="http://www.w3.org/2000/svg">
<g clip-path="url(#clip0)">
<path fill-rule="evenodd" clip-rule="evenodd" d="M144.182 36.952C141.74 36.952 146.4 32.1664 146.398 34.6495C146.398 35.142 144.741 36.952 144.182 36.952ZM131.215 22.9696V22.1495C131.478 20.937 132.852 19.7347 134.502 17.8441C134.744 17.5665 135.016 17.2977 135.284 17.043C136.602 15.7898 137.893 16.0252 139.39 16.7126C142.505 18.1433 144.108 15.9451 145.584 15.9451C147.073 15.9451 147.426 16.6525 148.331 16.8893C149.12 17.0959 148.997 16.3299 150.788 16.0664C153.177 15.715 154.751 17.8869 155.746 17.8869C156.649 17.8869 157.645 17.0543 158.201 16.6524C161.184 14.4936 162.292 15.8258 164.158 18.2388C165.28 19.6882 166.26 20.5506 166.26 22.3001C166.26 23.6786 162.079 27.6536 161.178 29.0082C161.382 29.8893 162.011 30.3249 161.797 31.3801C161.698 31.8671 161.555 32.1529 161.297 32.4816C160.958 32.9136 160.865 32.9364 160.302 33.0683C160.302 35.8086 159.294 36.4224 156.973 36.4224C156.773 37.2858 155.889 38.1876 154.87 38.1876C153.26 38.1876 153.82 38.1362 152.592 37.4816C151.991 37.9254 151.75 38.8938 150.49 38.8938C148.221 38.8938 148.316 37.85 146.985 36.952C146.234 37.4586 145.923 38.7173 144.532 38.7173C143.162 38.7173 142.21 38.2753 141.904 36.952C140.326 37.3222 139.344 38.3387 137.874 35.5398C136.311 35.5398 135.849 35.5572 135.109 34.6177C134.483 33.8221 134.475 32.8915 134.895 32.0092C131.04 29.954 134.531 27.2609 134.895 26.7133C132.516 25.1081 131.439 23.9844 131.215 22.9696ZM139.626 35.0102C139.626 34.2222 140.091 34.1645 140.528 33.6236C140.931 33.1236 141.032 32.9666 141.509 32.4941C141.768 32.2381 142.343 31.5382 142.531 31.3837C143.066 30.9447 143.748 31.2195 143.787 31.8425C143.82 32.3539 140.887 35.4158 140.886 35.4171C140.397 35.7787 139.626 35.7581 139.626 35.0102ZM137.173 33.7745C136.641 33.7745 136.375 33.6383 136.385 33.1021C136.395 32.4772 139.183 29.8174 139.871 28.901C140.652 27.8599 141.553 27.8987 141.553 29.0082C141.553 29.3794 137.771 33.7745 137.173 33.7745ZM135.596 30.4204C134.488 29.4501 134.447 29.6474 137.561 26.3928C137.898 26.0408 138.303 25.5364 138.845 26.0826C139.652 26.8958 138.082 27.949 137.656 28.4358C136.875 29.3286 136.705 29.8291 135.596 30.4204ZM147.686 21.9471C146.945 21.9471 145.558 20.9582 147.273 19.9423C148.256 19.3601 149.969 18.0528 150.659 17.8667C152.623 17.3372 153.826 19.6522 155.922 19.6522C158.041 19.6522 159.371 17.3573 160.828 17.3573C161.479 17.3573 164.508 21.3838 164.508 22.1235C164.508 22.707 160.604 26.7907 159.952 27.7725C159.612 27.5435 159.243 27.206 158.877 26.913C158.516 26.6229 158.161 26.3554 157.81 26.0466C156.349 24.7603 154.897 23.6624 153.515 22.2534C150.651 19.333 148.877 21.9471 147.686 21.9471ZM144.707 20.7114C144.707 22.9965 146.253 23.7123 148.212 23.7123C150.305 23.7123 149.793 21.4685 152.122 23.4805L159.33 29.9885C160.075 30.5565 160.17 30.5373 159.952 31.4796C158.715 31.4796 159.062 31.2943 158.322 30.6504L155.623 28.25C154.671 27.4457 153.912 26.1048 152.943 27.949C153.845 29.6659 158.55 32.8629 158.55 33.7745C158.55 34.2051 158.144 34.6571 157.499 34.6571C157.127 34.6571 153.652 31.3969 152.992 30.7226C151.636 29.3358 150.03 30.6862 151.914 32.1626C152.471 32.5987 152.788 33.0771 153.345 33.5459C153.958 34.0624 154.276 34.2894 154.837 34.8725C155.301 35.355 155.734 36.4224 154.695 36.4224C153.751 36.4224 152.858 35.1406 152.141 34.5826C151.283 33.9154 150.403 32.5388 149.438 32.5388C149.028 32.5388 148.738 32.8317 148.738 33.2449C148.738 34.4629 151.015 35.4303 151.015 36.0694C151.015 38.7483 148.108 35.5877 148.037 35.5398C148.517 33.5178 147.545 32.1857 145.408 32.1857C145.408 30.7996 144.87 29.6689 143.306 29.5378C143.306 28.1145 143.162 26.5539 140.853 26.3603C140.682 24.2935 137.869 22.848 136.122 25.4777L134.443 24.1674C134.097 23.8957 133.974 23.7782 133.662 23.5423C132.263 22.4846 133.108 21.8913 134.326 20.6672C135.033 19.9553 135.356 19.6163 135.995 18.8188C137.882 16.4637 140.07 20.5055 144.419 18.3015C145.887 17.5574 145.329 17.6747 146.985 18.0635C146.858 18.1752 146.953 18.1172 146.7 18.3056C146.162 18.7056 144.707 19.2517 144.707 20.7114Z" fill="#8B0834"/>
<path fill-rule="evenodd" clip-rule="evenodd" d="M64.3328 38.8792V30.7153H75.0505C75.7257 30.7153 76.3684 30.6165 76.9783 30.419C77.5883 30.2214 78.1111 29.9472 78.5468 29.596C79.0042 29.2229 79.3636 28.773 79.625 28.2463C79.8865 27.7196 80.0825 27.1655 80.2132 26.5838C80.344 26.0023 80.431 25.4208 80.4747 24.8391C80.5182 24.2576 80.54 23.7363 80.54 23.2755C80.54 22.7926 80.5237 22.2769 80.491 21.7283C80.4583 21.1796 80.382 20.6309 80.2623 20.0823C80.1424 19.5336 79.9682 19.0124 79.7394 18.5187C79.5107 18.0249 79.2003 17.5914 78.8081 17.2183C78.4596 16.8672 78.0839 16.5984 77.6808 16.4118C77.2778 16.2253 76.8748 16.0881 76.4718 16.0003C76.0688 15.9126 75.6767 15.8631 75.2955 15.8522C74.9144 15.8412 74.5712 15.8357 74.2663 15.8357H63.3853C62.9931 15.8357 62.5575 15.8906 62.0782 16.0003C61.599 16.11 61.1742 16.3514 60.8038 16.7245C60.4117 17.1196 60.183 17.5365 60.1177 17.9755C60.0523 18.4145 60.0197 18.8534 60.0197 19.2922V38.8792H64.3328ZM64.3328 27.2587V20.6749C64.3328 20.4773 64.3437 20.2853 64.3655 20.0988C64.3873 19.9123 64.4744 19.7421 64.6269 19.5885C64.8012 19.413 64.9754 19.3197 65.1497 19.3087C65.324 19.2977 65.4873 19.2922 65.6398 19.2922H72.5998C72.9701 19.2922 73.4167 19.3307 73.9395 19.4075C74.4623 19.4843 74.9089 19.7093 75.2792 20.0823C75.6495 20.4554 75.8783 20.9492 75.9654 21.5637C76.0525 22.1782 76.096 22.7378 76.096 23.2425C76.096 23.462 76.0907 23.7144 76.0797 23.9997C76.0688 24.285 76.0362 24.5703 75.9817 24.8557C75.9273 25.1409 75.8511 25.4208 75.753 25.695C75.655 25.9694 75.5188 26.2053 75.3446 26.4028C74.9742 26.8418 74.5331 27.0941 74.0212 27.16C73.5092 27.2259 73.0137 27.2587 72.5344 27.2587H64.3328ZM96.5837 38.8792C97.4768 38.8792 98.272 38.7914 98.9691 38.6159C99.6662 38.4403 100.276 38.2099 100.799 37.9245C101.322 37.6393 101.757 37.332 102.106 37.0029C102.454 36.6736 102.749 36.3555 102.988 36.0482C103.446 35.4337 103.811 34.7369 104.083 33.9578C104.355 33.1787 104.562 32.3831 104.704 31.5711C104.845 30.7591 104.932 29.9691 104.965 29.2009C104.998 28.4329 105.014 27.7306 105.014 27.0941C105.014 26.4138 104.998 25.7005 104.965 24.9544C104.932 24.2082 104.84 23.462 104.687 22.7159C104.535 21.9697 104.301 21.2455 103.985 20.5432C103.669 19.8409 103.239 19.1825 102.694 18.5681C101.997 17.7999 101.104 17.1526 100.015 16.6258C98.9255 16.0991 97.5857 15.8357 95.9956 15.8357H87.0424C86.3454 15.8357 85.8062 15.9564 85.4249 16.1979C85.0437 16.4393 84.766 16.6477 84.5917 16.8233C84.2214 17.2622 83.9982 17.7122 83.9218 18.173C83.8456 18.6339 83.8075 19.0838 83.8075 19.5227V35.9494C83.8075 36.5858 83.911 37.0852 84.1179 37.4472C84.3249 37.8094 84.5373 38.0782 84.7551 38.2537C84.8422 38.3196 85.0764 38.4403 85.4577 38.6159C85.8389 38.7914 86.4543 38.8792 87.3038 38.8792H96.5837ZM88.1207 20.6749C88.1207 20.4335 88.1643 20.2085 88.2514 20C88.3385 19.7916 88.4474 19.6324 88.5782 19.5227C88.7307 19.413 88.9049 19.3471 89.101 19.3252C89.297 19.3033 89.4604 19.2922 89.5911 19.2922H94.0677C94.4598 19.2922 94.8737 19.3142 95.3094 19.3581C95.745 19.402 96.1807 19.4843 96.6164 19.6049C97.052 19.7257 97.4714 19.8958 97.8745 20.1153C98.2775 20.3347 98.6423 20.62 98.9691 20.9712C99.3176 21.3442 99.6008 21.7667 99.8186 22.2386C100.036 22.7104 100.2 23.1987 100.309 23.7034C100.418 24.2082 100.488 24.7239 100.521 25.2507C100.554 25.7773 100.57 26.2822 100.57 26.7649C100.57 28.7181 100.45 30.1831 100.211 31.1597C99.9711 32.1362 99.7097 32.844 99.4266 33.283C98.9255 34.095 98.2774 34.6546 97.4823 34.9618C96.6872 35.2691 95.6906 35.4227 94.4925 35.4227H89.5258C89.3297 35.4227 89.1336 35.4118 88.9376 35.3898C88.7415 35.3678 88.5673 35.2691 88.4148 35.0936C88.2405 34.9179 88.1479 34.7259 88.1371 34.5174C88.1262 34.309 88.1207 34.084 88.1207 33.8426V20.6749ZM108.282 38.8792H112.595V20.9382C112.595 20.6968 112.611 20.4718 112.644 20.2634C112.677 20.0549 112.813 19.8519 113.052 19.6544C113.227 19.4788 113.401 19.3745 113.575 19.3416C113.749 19.3087 113.956 19.2922 114.196 19.2922H121.189C121.537 19.2922 121.94 19.3197 122.398 19.3745C122.855 19.4294 123.258 19.6324 123.607 19.9835C123.846 20.2249 124.042 20.5871 124.195 21.0699C124.347 21.5527 124.423 22.255 124.423 23.1768C124.423 23.3743 124.418 23.6157 124.407 23.901C124.396 24.1862 124.374 24.4771 124.342 24.7734C124.309 25.0696 124.255 25.3604 124.178 25.6457C124.102 25.931 124.01 26.1614 123.901 26.337C123.596 26.7978 123.22 27.0832 122.773 27.1929C122.327 27.3026 121.918 27.3575 121.548 27.3575H117.235C116.603 27.3575 116.124 27.5056 115.797 27.8019C115.47 28.0981 115.307 28.4767 115.307 28.9376V29.4643C115.307 29.7935 115.427 30.1391 115.666 30.5013C115.906 30.8634 116.146 31.1651 116.385 31.4065L123.901 38.8792H129.325L120.633 30.7482V30.5836H123.574C124.227 30.5836 124.794 30.5123 125.273 30.3696C125.752 30.2269 126.161 30.0404 126.498 29.81C126.836 29.5795 127.114 29.3272 127.332 29.0528C127.549 28.7785 127.735 28.4986 127.887 28.2134C128.345 27.3575 128.622 26.4851 128.72 25.5963C128.818 24.7075 128.867 23.8461 128.867 23.0122C128.867 22.1782 128.813 21.3223 128.704 20.4444C128.595 19.5666 128.268 18.7326 127.724 17.9426C127.397 17.4378 127.032 17.0428 126.629 16.7575C126.226 16.4722 125.807 16.2637 125.371 16.132C124.935 16.0003 124.5 15.918 124.064 15.8852C123.628 15.8522 123.214 15.8357 122.822 15.8357H111.974C111.538 15.8357 111.075 15.8906 110.585 16.0003C110.095 16.11 109.643 16.3625 109.229 16.7575C108.772 17.1964 108.5 17.6847 108.412 18.2224C108.325 18.7601 108.282 19.2703 108.282 19.7532V38.8792Z" fill="#222454"/>
<path fill-rule="evenodd" clip-rule="evenodd" d="M181.835 38.9391V19.3521H190.788V15.8955H168.601V19.3521H177.521V38.9391H181.835ZM210.753 38.9391V35.4825H198.532C198.183 35.4825 197.884 35.4661 197.633 35.4331C197.383 35.4002 197.192 35.3179 197.062 35.1862C196.844 35.0107 196.735 34.7144 196.735 34.2974V28.8987H210.295V25.4422H196.735V20.8005C196.735 20.625 196.751 20.4384 196.784 20.2409C196.816 20.0434 196.92 19.8568 197.094 19.6813C197.268 19.5277 197.459 19.4344 197.666 19.4015C197.873 19.3685 198.074 19.3521 198.271 19.3521H210.622V15.8955H195.951C195.515 15.8955 195.041 15.9395 194.529 16.0273C194.017 16.115 193.576 16.3674 193.206 16.7843C192.966 17.0697 192.776 17.4264 192.634 17.8543C192.492 18.2822 192.422 18.7266 192.422 19.1875V35.5155C192.422 35.9544 192.465 36.4207 192.552 36.9145C192.639 37.4083 192.879 37.8418 193.271 38.2149C193.641 38.5879 194.044 38.8019 194.48 38.8568C194.916 38.9116 195.384 38.9391 195.885 38.9391H210.753H215.295L217.615 33.1123H228.626L230.979 38.9391H235.521L226.894 18.2329C226.481 17.2672 225.996 16.5924 225.44 16.2083C224.885 15.8243 224.117 15.6322 223.137 15.6322C222.113 15.6322 221.334 15.8243 220.8 16.2083C220.267 16.5924 219.793 17.2672 219.379 18.2329L210.753 38.9391ZM222.483 20.6359C222.549 20.4604 222.636 20.2573 222.745 20.0269C222.854 19.7965 222.984 19.6813 223.137 19.6813C223.289 19.6813 223.42 19.7965 223.529 20.0269C223.638 20.2573 223.725 20.4604 223.79 20.6359L227.515 30.0179H218.725L222.483 20.6359ZM259.864 21.0639C259.908 20.9322 259.984 20.7731 260.093 20.5865C260.202 20.4 260.311 20.3068 260.42 20.3068C260.485 20.3068 260.567 20.3451 260.665 20.4219C260.763 20.4988 260.812 20.6908 260.812 20.9981L260.681 38.9391H264.994V18.6608C264.994 17.6074 264.646 16.8392 263.949 16.3564C263.252 15.8736 262.369 15.6322 261.302 15.6322C260.888 15.6322 260.496 15.6652 260.126 15.731C259.755 15.7968 259.396 15.934 259.047 16.1424C258.699 16.3509 258.378 16.6472 258.083 17.0313C257.789 17.4153 257.523 17.9366 257.283 18.5949L251.369 33.9683C251.26 34.2097 251.156 34.4127 251.058 34.5773C250.96 34.7419 250.857 34.8242 250.748 34.8242C250.639 34.8242 250.535 34.7419 250.437 34.5773C250.339 34.4127 250.236 34.2097 250.127 33.9683L244.213 18.5949C244.06 18.1999 243.886 17.8214 243.69 17.4592C243.494 17.0971 243.249 16.7789 242.955 16.5046C242.66 16.2302 242.29 16.0163 241.844 15.8627C241.397 15.709 240.847 15.6322 240.194 15.6322C240.019 15.6322 239.731 15.6487 239.328 15.6815C238.925 15.7145 238.516 15.8297 238.102 16.0273C237.688 16.2247 237.318 16.5265 236.991 16.9325C236.665 17.3385 236.501 17.9146 236.501 18.6608V38.9391H240.814L240.716 20.9981C240.716 20.9542 240.733 20.8279 240.765 20.6195C240.798 20.411 240.901 20.3068 241.076 20.3068C241.185 20.3068 241.294 20.4 241.402 20.5865C241.511 20.7731 241.588 20.9322 241.631 21.0639L247.48 36.4372C247.611 36.8103 247.752 37.1614 247.905 37.4906C248.057 37.8198 248.253 38.1106 248.493 38.363C248.733 38.6153 249.032 38.8183 249.392 38.972C249.751 39.1256 250.203 39.2024 250.748 39.2024C251.249 39.2024 251.674 39.142 252.022 39.0214C252.371 38.9006 252.665 38.7196 252.904 38.4782C253.144 38.2368 253.345 37.946 253.509 37.6058C253.672 37.2656 253.841 36.8762 254.015 36.4372L259.864 21.0639Z" fill="#222454"/>
<path fill-rule="evenodd" clip-rule="evenodd" d="M6.22989 8.48993C6.22989 8.48993 5.67898 10.261 5.47273 10.6376C5.26648 11.0142 4.42531 12.1259 4.25778 12.3207C4.09022 12.5155 4 12.6324 4 12.6324L5.12137 13.1258C5.12137 13.1258 5.7757 12.1778 6.15709 11.585L13.4996 15.9827L14.6597 15.0737L6.59171 10.7097C6.83282 10.0691 7.19663 9.03534 7.19663 9.03534L6.22989 8.48993Z" fill="#FFEC00" stroke="#222454" stroke-width="0.5669"/>
<path fill-rule="evenodd" clip-rule="evenodd" d="M25.9836 -0.144226C40.5627 -0.144226 52.6908 4.59449 52.6908 19.2823C52.6908 33.9701 39.7378 53.045 25.9836 53.045C12.2294 53.045 -0.104858 33.9701 -0.104858 19.2823C-0.104858 4.59449 11.4045 -0.144226 25.9836 -0.144226Z" fill="#8B0834"/>
<path d="M24.8866 0.16748C38.6976 0.16748 50.1866 4.65644 50.1866 18.5704C50.1866 32.4843 37.9161 50.5542 24.8866 50.5542C11.8571 50.5542 0.172852 32.4843 0.172852 18.5704C0.172852 4.65644 11.0758 0.16748 24.8866 0.16748Z" fill="url(#paint0_linear)"/>
<path fill-rule="evenodd" clip-rule="evenodd" d="M28.8758 52.7657L28.8586 52.769L28.8414 52.7723L28.8243 52.7756C28.65 52.808 28.4756 52.8376 28.3009 52.8643C28.2516 52.8718 28.2024 52.879 28.1531 52.8861C28.0266 52.9042 27.8999 52.9209 27.7731 52.936L27.7732 52.9366C27.1788 53.008 26.582 53.0453 25.9836 53.0453C12.2294 53.0453 -0.104858 33.9704 -0.104858 19.2826C-0.104858 17.7917 0.0156824 16.4051 0.243988 15.1138L0.250392 15.0777C0.281467 14.9038 0.314535 14.7316 0.349563 14.5611L0.366619 14.4791C0.400112 14.3194 0.435369 14.1614 0.472358 14.0048C0.482422 13.962 0.49265 13.9193 0.502975 13.8768C0.537187 13.7362 0.572869 13.5969 0.60989 13.4588C0.623745 13.4071 0.63773 13.3555 0.65201 13.3041C0.688802 13.1716 0.726902 13.0401 0.766244 12.9099L0.767322 12.9063C7.61537 15.0782 12.5519 17.8128 17.9065 22.9524C19.52 24.5012 20.9 26.0378 22.0798 27.5939C26.7436 33.7448 28.2813 40.2002 28.7618 48.9144C28.8409 50.3483 28.8714 51.6499 28.8758 52.7659V52.7657Z" fill="#8B0834"/>
<path fill-rule="evenodd" clip-rule="evenodd" d="M-0.0562421 17.7417C4.89066 19.153 8.49231 20.6932 13.1032 23.8182C15.5941 25.5064 19.5476 29.0135 21.1333 31.6098C23.0127 34.6869 24.0689 36.88 24.6621 39.8961C24.6621 39.8961 24.3732 39.5344 23.7111 38.421C23.4569 37.9933 23.0889 37.4566 22.6071 36.7933C18.5124 31.1559 12.0742 26.9549 5.60126 24.6756C4.25218 24.2006 2.01187 23.6586 0.1338 23.2403C-0.0297094 21.975 -0.116333 20.7262 -0.116333 19.508C-0.116333 18.9018 -0.0948321 18.3143 -0.0562421 17.7417Z" fill="#B80036"/>
<path fill-rule="evenodd" clip-rule="evenodd" d="M0.766423 12.9061C7.61447 15.0779 12.5511 17.8126 17.9056 22.9522C19.5191 24.501 20.8991 26.0376 22.0789 27.5937C26.7427 33.7446 28.2804 40.1999 28.7609 48.9142C28.84 50.348 28.8705 51.6497 28.8749 52.7657C28.3003 52.8745 27.7228 52.9523 27.1432 52.9979C26.9745 50.6151 26.7118 47.7601 26.357 46.3852C24.2144 38.083 17.9915 32.0262 10.3905 28.8209C7.32539 27.5284 4.0669 26.6209 0.739695 26.3252C0.431824 24.9838 0.205218 23.6485 0.0639936 22.3338C2.0282 22.7638 4.55455 23.3605 6.02372 23.8779C12.4966 26.1571 18.9349 30.3581 23.0295 35.9955C23.5114 36.6589 23.8793 37.1955 24.1336 37.6232C24.7957 38.7366 25.0845 39.0983 25.0845 39.0983C24.4913 36.0822 23.4352 33.8891 21.5558 30.812C19.9701 28.2157 16.0166 24.7086 13.5257 23.0204C8.80445 19.8207 5.1416 18.2824 0.0090332 16.8428C0.145095 15.4278 0.400227 14.1171 0.766423 12.9061Z" fill="white"/>
<path d="M36.3933 14.8896C36.5803 13.9069 36.656 13.0353 35.8032 11.9855C35.2301 11.2801 33.7002 10.9542 32.9178 11.0564C31.9661 11.1806 30.5733 12.1259 30.2564 13.7753C30.0064 15.0763 29.9801 15.8069 30.1505 16.4469C30.4527 17.581 31.1973 18.1016 32.1269 17.8807C32.2923 17.8414 32.3405 17.858 32.2638 17.942C31.944 18.2922 31.0521 18.0789 30.4983 17.9836C28.9896 17.7376 28.1126 17.5225 27.2231 17.321C25.7834 16.9949 24.4369 16.9083 22.94 16.4402C19.9496 15.5053 19.0426 14.7584 17.8679 14.2911C16.6932 13.8236 15.0386 13.4016 13.9043 13.7651C13.6791 13.8374 13.4543 13.9106 13.2389 13.9816L6.53504 10.3559C6.7854 9.81761 6.93038 9.20883 7.19058 8.65216C6.8665 8.45383 6.96894 8.51072 6.64231 8.38391C6.29693 9.03268 5.72109 9.58388 5.39122 10.2203C5.06133 10.8568 4.81084 11.3594 4.54042 11.9342C4.48532 12.0513 4.25986 12.408 4.39772 12.505C4.46614 12.5531 5.10329 12.8686 5.18494 12.8852C5.2632 12.901 5.31467 12.833 5.35522 12.7612C5.46419 12.5685 5.56317 12.3501 5.66221 12.1507L5.66619 12.1427C5.77729 11.9187 5.87672 11.7213 5.97713 11.5263C6.0302 11.423 6.07817 11.3151 6.14032 11.2152L11.6506 14.5413C11.6687 14.7265 11.83 15.979 12.9036 16.2915C14.0635 16.6291 14.3296 16.8557 14.639 16.7779C14.9484 16.6999 15.1949 16.0766 15.9795 16.2065C16.764 16.3363 21.4706 19.0892 22.5533 19.4788C23.6359 19.8684 24.6401 20.4575 25.7757 20.6864C29.0903 21.3549 28.2517 21.281 30.88 24.9588C31.6765 26.0734 32.3429 26.3354 32.6716 26.7769C33.0003 27.2184 31.7951 27.7899 31.1764 28.1275C30.5578 28.4652 24.2675 29.4261 23.6748 29.5818C23.0818 29.7378 21.6381 29.8417 20.839 29.8676C20.0399 29.8935 20.0527 30.1273 20.0785 30.5168C20.1042 30.9065 20.4459 31.7635 21.2192 32.2569C21.9926 32.7504 22.3857 32.7764 22.8111 32.8024C23.2365 32.8283 24.3966 31.8025 24.7575 31.6726C25.1183 31.5428 31.357 31.7894 32.2333 31.4518C32.9926 31.1595 34.2545 30.3312 34.83 29.946L34.8317 29.9447L34.832 29.9444C34.9081 29.8934 34.9872 29.8371 35.065 29.7878C36.1752 29.0831 36.978 27.9551 37.6686 26.8456C37.6985 26.7975 37.7357 26.8232 37.7267 26.8844C37.6958 27.0945 37.0476 28.6126 35.7756 30.0559C35.6323 30.2184 35.8703 30.4428 35.9764 30.582C36.4773 31.2392 36.9414 32.1255 36.9123 32.3608C36.8608 32.7764 34.9404 34.828 33.9092 36.4514C32.878 38.0747 31.1121 41.0352 30.9832 41.5547C30.8544 42.0742 30.732 42.4378 30.732 43.243C30.732 46.2435 30.8504 49.2362 30.9667 52.2314C32.2397 51.8211 33.3402 51.3501 34.5613 50.6665C34.6733 49.0429 35.0035 46.6893 34.992 45.5673C34.9834 44.736 34.8889 44.113 35.0693 43.6196C35.2498 43.126 35.7911 42.5287 35.9587 42.3079C36.1262 42.0872 39.2706 38.3669 39.7902 37.6492C39.9639 37.4093 40.2897 37.1491 40.0885 36.822C39.7509 36.2734 39.4679 35.8115 39.4831 35.7719C39.4985 35.7321 39.55 35.7339 39.6581 35.8128C40.0342 36.0874 40.6115 36.5982 40.8918 36.9938C41.6012 37.7852 43.1819 41.0769 44.0955 41.9605C44.1335 41.9973 44.18 42.0135 44.2331 42.0125C45.4162 40.4702 46.5062 38.8241 47.4812 37.1103C47.1501 36.5031 46.5035 35.3053 46.2772 34.802C45.9678 34.1138 45.4265 32.062 44.6533 31.0231C43.608 29.6192 42.6826 28.0686 42.0338 26.4867C41.0292 24.0373 40.3703 21.5708 38.501 19.9058C37.6116 19.1137 36.6541 18.7389 36.3141 18.4073C35.3566 17.4737 36.1389 16.2252 36.3931 14.8895L36.3933 14.8896Z" fill="url(#paint1_radial)"/>
<path d="M32.2992 17.8856C32.2035 18.0201 32.1039 18.0514 32.0451 18.07C31.6316 18.2011 30.9454 18.0604 30.4983 17.9836C28.9897 17.7376 28.1126 17.5226 27.2231 17.3211C25.7834 16.9949 24.4369 16.9082 22.94 16.4402C19.9496 15.5053 19.0426 14.7585 17.8679 14.291C17.6332 14.1977 17.3794 14.1061 17.1144 14.0222C17.1071 14.0245 17.0999 14.026 17.0928 14.0266C16.9389 14.0372 21.4627 17.0381 22.1938 17.6798C23.0425 18.4246 24.3361 18.6437 25.442 18.596C27.1863 18.5208 28.8994 19.8103 30.7481 19.3593C31.1399 19.2637 32.1704 18.6568 32.2809 18.1436C32.2909 18.0969 32.3189 17.9139 32.2992 17.8856Z" fill="url(#paint2_linear)"/>
<path fill-rule="evenodd" clip-rule="evenodd" d="M9.75721 35.8144C12.6295 34.5298 17.3239 38.4151 20.2424 44.4925C21.6273 47.3764 22.2718 49.7263 22.7455 52.6965C21.5325 52.4374 20.3383 52.0378 19.1704 51.5162C19.1903 49.7778 18.4324 47.2852 17.2833 44.7292C15.4233 40.5919 12.7151 37.7911 10.8847 38.6656C9.59272 39.2828 9.22469 41.4884 9.77377 44.1872C9.0372 43.3333 8.33127 42.4353 7.65946 41.5014C7.4655 38.6843 8.16276 36.5276 9.75721 35.8144Z" fill="white"/>
<path fill-rule="evenodd" clip-rule="evenodd" d="M19.1707 51.5152C15.7427 49.9844 12.5431 47.3985 9.77432 44.1894C8.04604 42.1862 8.64132 42.8743 9.77402 44.1877C9.22498 41.4888 9.593 39.2833 10.8849 38.6661C12.7154 37.7916 15.4236 40.5924 17.2836 44.7297C18.4324 47.285 19.1902 49.7769 19.1707 51.5153V51.5152Z" fill="#8B0834"/>
<path fill-rule="evenodd" clip-rule="evenodd" d="M17.3481 50.5913C14.608 49.0359 12.0461 46.8225 9.77432 44.1893C8.04604 42.1862 8.64132 42.8743 9.77402 44.1877C9.22498 41.4888 9.593 39.2833 10.8849 38.6661C11.0324 38.5956 11.1855 38.5494 11.3435 38.5254C12.7661 39.4766 14.2883 41.5636 15.4687 44.1895C16.5355 46.5624 17.265 48.8804 17.3481 50.5914V50.5913Z" fill="#A80337"/>
<path fill-rule="evenodd" clip-rule="evenodd" d="M36.6961 21.4621C33.9878 21.2732 33.8689 24.7971 32.7098 27.0213C32.3977 27.6204 31.6699 27.9659 30.6961 28.2879C29.8313 28.5738 27.7966 28.8552 27.1034 28.9767C25.1883 29.3124 23.9871 29.5819 21.7993 29.8508C20.6096 29.997 19.9128 29.5409 20.1306 30.806C20.1888 31.1441 20.7522 32.2348 21.3279 32.1342C21.8184 32.0484 23.1046 30.458 24.336 30.1337C25.5797 29.8062 30.5134 31.4078 33.1283 29.7557C35.4118 28.3129 36.8374 27.7641 37.6223 25.2869C37.8308 24.6052 38.0429 24.153 38.3434 23.7797C38.5243 23.5548 38.7296 23.7459 38.756 23.9102C38.881 24.9222 38.6828 25.0699 38.4534 25.9718C38.0312 27.6315 38.4336 30.5671 39.9273 31.5446C40.9367 32.2052 41.5657 32.1794 42.1612 31.8649C43.2615 31.2837 44.4791 30.2679 45.2706 33.2098C45.4519 33.8839 45.3178 35.5968 45.3135 36.6952C45.3073 38.2511 45.6551 38.7541 45.9298 39.6281C46.4727 38.8089 46.9894 37.9681 47.4774 37.1104C47.1462 36.5031 46.4997 35.3054 46.2734 34.8021C45.9641 34.1138 45.4228 32.0621 44.6494 31.0232C44.3232 30.585 44.0087 30.1326 43.7106 29.6693L43.692 29.6404L43.6676 29.6022L43.6674 29.602L43.6492 29.5734L43.6429 29.5635L43.6187 29.5254L43.6185 29.5251L43.5941 29.4865L43.5699 29.4479L43.5581 29.4291L43.5456 29.4093L43.5279 29.3808L43.5216 29.3706C43.4975 29.3319 43.4736 29.2931 43.4497 29.2543L43.4382 29.2356L43.4259 29.2154C43.4022 29.1765 43.3785 29.1375 43.355 29.0985L43.3498 29.0897L43.3316 29.0595L43.2849 28.9813L43.2624 28.9433L43.2618 28.942L43.2387 28.9028L43.2156 28.8635L43.2049 28.8453L43.1926 28.8243L43.1763 28.7962L43.1698 28.7849C43.1318 28.7194 43.0942 28.6536 43.0569 28.5877C42.6684 27.9007 42.3214 27.1968 42.03 26.4868C41.0255 24.0374 40.3666 21.5707 38.4972 19.9058C38.0303 19.49 36.4537 18.5708 36.3104 18.4074C36.1241 18.195 36.0002 18.1274 35.9201 17.7787C35.7777 17.1594 35.9134 16.6392 35.9662 16.4912C36.1251 16.0453 36.3048 15.2554 36.4766 14.3526C36.6485 13.4497 36.4914 12.8406 36.0736 12.2903C35.2028 12.2164 34.4497 12.0316 33.6639 12.6725C33.2625 13 33.8719 13.508 33.8719 14.2255C33.8719 15.312 31.2089 15.8778 31.6094 16.6796C31.8529 17.1669 32.2632 17.2657 32.8144 17.2619C34.0263 17.2538 34.3207 16.5146 34.2431 18.1456C34.0769 21.6396 36.0507 20.6042 36.9667 21.0602C37.1016 21.1273 37.5959 21.403 37.551 21.6932C37.5453 21.7297 37.4764 21.8516 37.3613 21.7662C37.3356 21.7403 37.3084 21.7157 37.2798 21.6923L37.2791 21.6917C37.2665 21.6785 37.2525 21.6678 37.2373 21.6595C37.0945 21.5553 36.9177 21.484 36.6963 21.4621L36.6961 21.4621Z" fill="#F2BDBC"/>
<path d="M36.846 33.1656C36.578 33.5654 35.2041 35.1814 34.173 36.8046C33.1418 38.4279 31.337 41.3886 31.208 41.908C31.0791 42.4275 30.9568 42.7911 30.9568 43.5963C30.9568 44.8845 30.9817 46.1714 31.0127 47.4574C31.029 48.1354 31.1788 48.6904 31.4331 47.7916C32.0247 45.7015 31.7097 43.8854 33.7767 42.3084C36.3565 40.3401 39.6879 37.136 37.8063 33.608C37.582 33.1874 37.1141 32.7658 36.846 33.1656Z" fill="url(#paint3_linear)"/>
</g>
<defs>
<linearGradient id="paint0_linear" x1="43.4952" y1="-135.608" x2="78.5049" y2="-171.594" gradientUnits="userSpaceOnUse">
<stop stop-color="#8B0834"/>
<stop offset="1" stop-color="white"/>
</linearGradient>
<radialGradient id="paint1_radial" cx="0" cy="0" r="1" gradientUnits="userSpaceOnUse" gradientTransform="translate(25.9175 30.3077) scale(25.8765 26.3085)">
<stop stop-color="white"/>
<stop offset="1" stop-color="#F2EBE5"/>
</radialGradient>
<linearGradient id="paint2_linear" x1="80.5443" y1="-41.6305" x2="84.9296" y2="-38.468" gradientUnits="userSpaceOnUse">
<stop stop-color="#FAD9DE"/>
<stop offset="1" stop-color="white"/>
</linearGradient>
<linearGradient id="paint3_linear" x1="103.939" y1="-41.7756" x2="116.252" y2="-32.896" gradientUnits="userSpaceOnUse">
<stop stop-color="#FAD4DA"/>
<stop offset="1" stop-color="white"/>
</linearGradient>
<clipPath id="clip0">
<rect width="265" height="53" fill="white"/>
</clipPath>
</defs>
</svg>
