<svg width="14" height="23" viewBox="0 0 14 23" fill="none" xmlns="http://www.w3.org/2000/svg">
<path d="M8.64158 10.4445C7.97659 10.253 7.31159 10.1559 6.66472 10.1559C5.66581 10.1559 4.8323 10.3841 4.186 10.6637C4.80908 8.38263 6.30589 4.44671 9.2876 4.00347C9.56374 3.9624 9.79003 3.76273 9.86537 3.49395L10.5171 1.16305C10.572 0.965925 10.5394 0.754926 10.427 0.58386C10.3146 0.412795 10.1339 0.298657 9.93136 0.270901C9.7113 0.24088 9.48699 0.225586 9.26466 0.225586C5.68564 0.225586 2.14117 3.96127 0.645496 9.31017C-0.232479 12.4483 -0.489924 17.1662 1.67273 20.1357C2.88292 21.7974 4.6485 22.6847 6.92047 22.7734C6.92982 22.7736 6.93888 22.7739 6.94823 22.7739C9.75151 22.7739 12.2373 20.886 12.9935 18.1832C13.4452 16.5674 13.241 14.8729 12.418 13.4106C11.6038 11.9648 10.2627 10.9109 8.64158 10.4445Z" fill="#D9DFEA"/>
</svg>
