<svg width="30" height="37" viewBox="0 0 30 37" fill="none" xmlns="http://www.w3.org/2000/svg">
<path d="M20.5545 0.5H6.09544C3.98311 0.5 2.2639 2.2204 2.2639 4.33154V18.4999H1.88967C1.03712 18.4999 0.345703 19.1907 0.345703 20.044V29.4075C0.345703 30.2607 1.03705 30.9514 1.88967 30.9514H2.2639V32.6684C2.2639 34.7818 3.98311 36.4999 6.09544 36.4999H25.8242C27.9352 36.4999 29.6546 34.7818 29.6546 32.6684V9.56824L20.5545 0.5ZM4.39617 21.7338C4.84865 21.6573 5.48467 21.5997 6.38075 21.5997C7.28631 21.5997 7.93173 21.7725 8.3654 22.1197C8.77965 22.4469 9.05921 22.987 9.05921 23.6225C9.05921 24.258 8.84737 24.7982 8.46194 25.1641C7.96063 25.636 7.21926 25.8478 6.352 25.8478C6.15899 25.8478 5.98598 25.8383 5.85068 25.8195V28.1414H4.39617V21.7338ZM25.8242 34.1534H6.09544C5.27754 34.1534 4.61151 33.4874 4.61151 32.6684V30.9514H23.0028C23.8555 30.9514 24.5468 30.2607 24.5468 29.4075V20.044C24.5468 19.1907 23.8555 18.4999 23.0028 18.4999H4.61151V4.33154C4.61151 3.51483 5.27761 2.8488 6.09544 2.8488L19.6766 2.83462V7.85471C19.6766 9.32102 20.8664 10.5119 22.3338 10.5119L27.2515 10.4978L27.3069 32.6683C27.3069 33.4874 26.642 34.1534 25.8242 34.1534ZM9.9971 28.112V21.7338C10.5366 21.6479 11.2397 21.5997 11.9818 21.5997C13.215 21.5997 14.0146 21.8209 14.6412 22.2927C15.3156 22.794 15.7391 23.5931 15.7391 24.7404C15.7391 25.9831 15.2867 26.841 14.66 27.3705C13.9763 27.9388 12.9355 28.2084 11.664 28.2084C10.9025 28.2084 10.363 28.1601 9.9971 28.112ZM20.5122 24.3357V25.5301H18.1804V28.1414H16.7065V21.6479H20.6758V22.8517H18.1804V24.3357H20.5122Z" fill="#B80036"/>
</svg>
