<svg width="30" height="37" fill="none" xmlns="http://www.w3.org/2000/svg"><path d="M20.555.5H6.095a3.837 3.837 0 00-3.831 3.832V18.5H1.89c-.853 0-1.544.69-1.544 1.544v9.363c0 .854.691 1.544 1.544 1.544h.374v1.717A3.836 3.836 0 006.095 36.5h19.73a3.836 3.836 0 003.83-3.832v-23.1L20.555.5zM4.396 21.734c.453-.077 1.089-.134 1.985-.134.905 0 1.55.172 1.984.52.415.327.694.867.694 1.502 0 .636-.212 1.176-.597 1.542-.501.472-1.243.684-2.11.684-.193 0-.366-.01-.501-.028v2.321H4.396v-6.407zm21.428 12.42H6.095a1.486 1.486 0 01-1.483-1.486v-1.717h18.39c.854 0 1.545-.69 1.545-1.544v-9.363c0-.853-.692-1.544-1.544-1.544H4.612V4.332c0-.817.666-1.483 1.483-1.483l13.582-.014v5.02a2.658 2.658 0 002.657 2.657l4.918-.014.055 22.17c0 .82-.665 1.485-1.483 1.485zM9.997 28.111v-6.378a13.22 13.22 0 011.985-.134c1.233 0 2.033.22 2.66.693.674.501 1.097 1.3 1.097 2.447 0 1.243-.452 2.101-1.079 2.63-.684.569-1.725.838-2.996.838-.761 0-1.301-.048-1.667-.096zm10.515-3.776v1.194H18.18v2.611h-1.474v-6.493h3.97v1.204H18.18v1.484h2.332z" fill="#B80036"/></svg>