<svg width="13" height="8" fill="none" xmlns="http://www.w3.org/2000/svg"><path fill-rule="evenodd" clip-rule="evenodd" d="M9.078.142a.665.665 0 00-.936.114L3.44 6.26 1.186 3.463a.667.667 0 00-1.04.836l2.78 3.452a.669.669 0 00.52.249h.005a.665.665 0 00.52-.256l5.22-6.667a.665.665 0 00-.113-.935zm3.333 0a.665.665 0 00-.935.114L6.772 6.26l-.402-.5-.844 1.079.734.911a.669.669 0 00.52.25h.004a.665.665 0 00.52-.256l5.22-6.667a.665.665 0 00-.113-.935zM4.653 3.63L3.81 4.707 3.48 4.3a.667.667 0 011.038-.836l.134.166z" fill="#231F20"/></svg>