<svg width="13" height="8" viewBox="0 0 13 8" fill="none" xmlns="http://www.w3.org/2000/svg">
<path fill-rule="evenodd" clip-rule="evenodd" d="M9.07755 0.141914C8.78822 -0.0860855 8.36955 -0.0340855 8.14222 0.255914L3.43889 6.26125L1.18622 3.46325C0.95422 3.17725 0.535554 3.13058 0.248887 3.36191C-0.0384464 3.59325 -0.0831131 4.01325 0.146887 4.29925L2.92622 7.75125C3.05355 7.90858 3.24422 7.99991 3.44622 7.99991H3.45089C3.65355 7.99858 3.84555 7.90458 3.97089 7.74391L9.19155 1.07725C9.41889 0.787914 9.36822 0.368581 9.07755 0.141914ZM12.4109 0.141914C12.1209 -0.0860855 11.7029 -0.0340855 11.4756 0.255914L6.77222 6.26125L6.36955 5.76191L5.52622 6.83991L6.25955 7.75125C6.38688 7.90858 6.57755 7.99991 6.77955 7.99991H6.78422C6.98688 7.99858 7.17888 7.90458 7.30422 7.74391L12.5249 1.07725C12.7522 0.787914 12.7015 0.368581 12.4109 0.141914ZM4.65336 3.62964L3.80869 4.70697L3.48069 4.29964C3.25002 4.01297 3.29469 3.59297 3.58202 3.36164C3.86936 3.13097 4.28869 3.17697 4.51936 3.46364L4.65336 3.62964Z" fill="#231F20"/>
</svg>
