<svg width="24" height="16" viewBox="0 0 24 16" fill="none" xmlns="http://www.w3.org/2000/svg">
<path d="M23.9174 11.0749C23.6247 10.0487 21.7304 3.39968 21.3871 2.19871C21.1205 1.26572 20.2894 0.638794 19.319 0.638794H12.7034V2.37558H13.8265C14.215 2.37558 14.5299 2.6905 14.5299 3.07895C14.5299 3.46739 14.215 3.78231 13.8265 3.78231H10.1735C9.78507 3.78231 9.47015 3.46739 9.47015 3.07895C9.47015 2.6905 9.78507 2.37558 10.1735 2.37558H11.2967V0.638794H4.67978C3.70867 0.638794 2.87734 1.26629 2.61119 2.20026C2.61119 2.20026 0.380312 10.0315 0.082602 11.0752C-0.242117 12.2138 0.419607 13.406 1.55769 13.7326C2.55961 14.0201 3.53325 14.2686 4.4826 14.4792L9.87529 9.08646C10.1499 8.81182 10.5953 8.81182 10.87 9.08646C11.1447 9.3611 11.1447 9.80647 10.87 10.0812L6.13874 14.8124C8.07036 15.1599 9.90337 15.3413 11.6698 15.3613L17.5055 9.52564C17.7802 9.25095 18.2255 9.25095 18.5002 9.52564C18.7749 9.80028 18.7749 10.2456 18.5002 10.5203L13.7072 15.3133C16.4133 15.1579 19.2883 14.6369 22.4419 13.7325C23.5804 13.4059 24.2422 12.2137 23.9174 11.0749Z" fill="#A9B0BE"/>
</svg>
