<svg width="26" height="14" fill="none" xmlns="http://www.w3.org/2000/svg"><path d="M22.178 7.448a1.56 1.56 0 01-1.423-2.19l1.522-3.423c-.993-.44-4.032-1.56-9.277-1.56-5.244 0-8.283 1.12-9.276 1.56l1.522 3.424a1.56 1.56 0 01-1.424 2.19H0v.896h4.034v.449a3.14 3.14 0 01-2.695 3.102 3.126 3.126 0 002.845 1.829h17.632a3.126 3.126 0 002.845-1.829 3.14 3.14 0 01-2.696-3.103v-.448H26v-.897h-3.822zM9.152 2.966h2.056c0-.99.804-1.794 1.793-1.794.989 0 1.793.805 1.793 1.794h2.056a1.98 1.98 0 011.979 1.978c0 .913-.62 1.703-1.508 1.922-1.073.266-2.692.582-4.32.582-1.628 0-3.247-.316-4.32-.582a1.977 1.977 0 01-1.508-1.922c0-1.09.888-1.978 1.98-1.978zM21.07 9.333l-.682 1.592a3.134 3.134 0 01-2.884 1.903H8.498a3.134 3.134 0 01-2.885-1.902l-.682-1.593v-.988h16.138v.988z" fill="#A9B0BE"/></svg>