<svg width="20" height="12" fill="none" xmlns="http://www.w3.org/2000/svg"><path d="M19.655.823h-8.197a2.95 2.95 0 00-1.307.308 3.63 3.63 0 01-1.616.382h-.608c-.444 0-.824-.281-.97-.675L4.61 2.178A9.187 9.187 0 000 9.791h5.685l.595.793c.452-2.982 3.025-5.277 6.131-5.277 3.307 0 6.011 2.601 6.192 5.864h1.052c.19 0 .345-.155.345-.345V1.168a.345.345 0 00-.345-.345zM5.295 3.376a7.808 7.808 0 00-3.744 5.11l-.673-.148a8.497 8.497 0 014.076-5.56l1.422-.813.342.599-1.422.812zm14.015.206h-4.14v-2.07h4.14v2.07z" fill="#A9B0BE"/></svg>