<svg width="18" height="20" viewBox="0 0 18 20" fill="none" xmlns="http://www.w3.org/2000/svg">
<path d="M1.4187 14.07C1.77953 13.7308 2.19371 13.5658 2.55789 13.4758C2.48956 13.1833 2.43038 12.8716 2.38371 12.5416C2.30202 11.9741 2.32288 11.3958 2.44621 10.8208L3.49953 5.88832C3.67953 5.25164 4.05871 4.7775 4.53203 4.41664C4.51285 4.39246 4.48785 4.37332 4.46953 4.34746C4.20035 3.96078 4.12453 3.47164 4.26035 3.02328L4.57367 1.14828C4.58199 1.0966 4.59535 1.04578 4.61367 0.996602C4.83453 0.4 5.40789 0 6.04121 0H11.9595C12.5928 0 13.1662 0.4 13.4103 1.07082L13.9037 2.93332C14.0787 3.40582 14.012 3.93332 13.7245 4.34664C13.6795 4.41082 13.6237 4.46332 13.5703 4.51832C14.002 4.87664 14.347 5.33664 14.517 5.94164L15.5579 10.8208C15.6804 11.3925 15.7012 11.9708 15.6204 12.5425C15.5729 12.8725 15.5146 13.1833 15.4454 13.4758C15.8087 13.5666 16.2221 13.7316 16.5821 14.07C16.9254 14.3917 17.3337 14.985 17.3329 16.0192C17.2654 17.3967 16.2204 20 12.7504 20H5.25038C1.78038 20 0.735386 17.3967 0.667065 15.9792C0.667027 14.985 1.07539 14.3917 1.4187 14.07ZM13.5837 18.2533C15.4837 17.8625 15.6537 16.1541 15.667 15.9791C15.667 15.5016 15.5003 15.3416 15.4453 15.2891C15.3262 15.175 15.1587 15.11 15.0062 15.0758C14.7778 15.4366 14.5145 15.7308 14.2212 15.9541C14.2095 15.965 14.197 15.9725 14.1862 15.9833C14.1228 16.0433 14.0578 16.0958 13.992 16.1483C13.9253 16.2 13.857 16.2466 13.787 16.2908C13.7195 16.3341 13.6545 16.3808 13.5837 16.4166V18.2533H13.5837ZM6.0837 18.3333H11.917V16.5016C11.8445 16.4775 11.7628 16.4516 11.6678 16.4241C11.6478 16.4183 11.6245 16.4116 11.6037 16.4058C11.5162 16.3808 11.4195 16.3541 11.317 16.3283C11.2795 16.3183 11.2412 16.3083 11.2012 16.2991C11.0862 16.2708 10.9637 16.2433 10.8337 16.2166C10.8095 16.2116 10.787 16.2058 10.762 16.2008C10.6095 16.1708 10.4478 16.1433 10.2803 16.1183C10.2353 16.1116 10.1895 16.1058 10.1436 16.1C10.0119 16.0825 9.87531 16.0675 9.73695 16.055C9.68277 16.05 9.62945 16.045 9.57527 16.0417C9.38777 16.0284 9.19695 16.0184 9.00195 16.0184C8.80863 16.0184 8.61863 16.0284 8.43277 16.0417C8.37777 16.045 8.32445 16.05 8.27027 16.055C8.13195 16.0675 7.99695 16.0825 7.86527 16.1C7.81945 16.1058 7.77277 16.1117 7.72859 16.1183C7.56109 16.1433 7.39859 16.1708 7.24609 16.2016C7.22277 16.2058 7.20191 16.2108 7.17941 16.2158C7.04859 16.2425 6.92359 16.2708 6.80691 16.2991C6.76691 16.3091 6.72773 16.3191 6.68859 16.3291C6.58859 16.3541 6.49441 16.38 6.40859 16.4041C6.38527 16.4116 6.35777 16.4183 6.33527 16.425C6.23945 16.4533 6.15609 16.48 6.08359 16.5033V18.3333H6.0837ZM8.4487 3.33332C8.5762 3.33082 8.68288 3.33164 8.76788 3.33332H9.22456C9.27706 3.3325 9.33374 3.3325 9.39706 3.33332H12.2887L11.8479 1.66664H6.17624L5.89792 3.33332H8.4487ZM4.41703 18.2533V16.4158C4.3462 16.38 4.28035 16.3316 4.21285 16.2891C4.14703 16.2466 4.08285 16.2025 4.01953 16.1541C3.95203 16.1008 3.88453 16.0483 3.82035 15.9866C3.81367 15.9808 3.80617 15.9758 3.79952 15.97C3.49702 15.745 3.22785 15.4458 2.99452 15.0758C2.84785 15.1091 2.68202 15.17 2.55953 15.285C2.50371 15.3375 2.3337 15.4975 2.33203 15.9316C2.34702 16.1492 2.51702 17.8617 4.41703 18.2533Z" fill="#A9B0BE"/>
</svg>
