<svg width="16" height="16" fill="none" xmlns="http://www.w3.org/2000/svg"><path d="M8 15.333C3.956 15.333.667 12.043.667 8 .667 3.956 3.957.667 8 .667S15.333 3.957 15.333 8c0 4.044-3.29 7.333-7.333 7.333zm3.752-2.739a.457.457 0 00.655.026 6.382 6.382 0 001.867-3.313.459.459 0 00-.238-.504 3.301 3.301 0 00-1.491-.344c-.665 0-1.296.191-1.66.556-.778.777-.454 2.115.867 3.58zm-7.504-9.26a.458.458 0 00-.322-.15l-.018-.001a.458.458 0 00-.315.125 6.382 6.382 0 00-1.867 3.314.459.459 0 00.238.503c1.033.533 2.506.434 3.152-.212.776-.776.452-2.114-.868-3.579zm.868 5.681c-.366-.365-.996-.556-1.66-.556-.511 0-1.043.113-1.492.344a.459.459 0 00-.238.503 6.382 6.382 0 001.867 3.314c.09.085.221.138.333.125a.457.457 0 00.322-.15c1.32-1.465 1.645-2.803.868-3.58zm4.837-7.127a6.424 6.424 0 00-3.906 0 .46.46 0 00-.319.469C5.843 4.007 6.819 5.25 8 5.25c1.18 0 2.157-1.244 2.272-2.893a.46.46 0 00-.319-.469zM6.167 8c0 1.011.822 1.833 1.833 1.833 1.01 0 1.833-.822 1.833-1.833A1.835 1.835 0 008 6.167c-1.01 0-1.833.822-1.833 1.833zm4.105 5.607C10.157 11.958 9.18 10.714 8 10.714c-1.18 0-2.157 1.244-2.272 2.893a.458.458 0 00.318.468 6.43 6.43 0 003.908 0 .458.458 0 00.318-.468zm4.002-6.912a6.381 6.381 0 00-1.867-3.314.458.458 0 00-.315-.125h-.018a.457.457 0 00-.322.15c-1.32 1.465-1.645 2.804-.868 3.58.646.646 2.118.744 3.152.212a.459.459 0 00.238-.503z" fill="#A9B0BE"/></svg>