<svg width="13" height="20" fill="none" xmlns="http://www.w3.org/2000/svg"><path d="M8.728 5.517a2.935 2.935 0 00-.373-3.688L6.698.172a.586.586 0 00-.829 0L2.554 3.487a.586.586 0 000 .828l1.658 1.658c1 1 2.55 1.124 3.687.372L9.414 7.86v.344H2.97a.586.586 0 00-.586.586v.585H1.172V8.79A.586.586 0 000 8.79v2.343a.586.586 0 001.172 0v-.586h1.21v8.867c0 .324.263.586.587.586h4.687a.586.586 0 000-1.171H7.07v-3.594h.586a1.76 1.76 0 001.758-1.758v-.586h3.516v-5.86h-2.687L8.728 5.518zm-.486 7.96a.587.587 0 01-.586.586H7.07v-1.172h1.172v.586z" fill="#A9B0BE"/></svg>