<svg width="26" height="18" viewBox="0 0 26 18" fill="none" xmlns="http://www.w3.org/2000/svg">
<path d="M15.8389 3.0352L13.7018 5.83505L15.0699 2.56785C15.1039 2.39791 15.2398 2.30019 15.3376 2.30019C15.3715 2.30019 15.4013 2.33418 15.4693 2.36392L15.6689 2.46164L15.8686 2.55935C16.0428 2.66982 16.0088 2.83127 15.8389 3.0352ZM12.9413 6.10271L13.5404 1.39948C13.6041 1.06809 13.5064 0.834412 13.2727 0.834412H12.9711C12.9073 0.834412 12.6057 0.834412 12.6057 0.834412C12.372 0.834412 12.2743 1.0341 12.338 1.39948L12.9413 6.10271ZM13.7741 11.2011C13.9737 11.6684 14.0417 11.9701 14.0417 12.3992V16.2994V16.8348C14.0417 17.0047 13.91 17.1662 13.7103 17.1662H11.9769C11.7772 17.1662 11.6455 17.0344 11.6455 16.8348V16.2994V15.7343H2.40472V16.2994V16.8348C2.40472 17.0047 2.27302 17.1662 2.07333 17.1662H0.331393C0.131708 17.1662 0 17.0344 0 16.8348V16.2994V12.3992C0 11.9616 0.0637295 11.6302 0.267664 11.2011L2.43446 6.66778C2.66814 6.13245 3.33517 5.70334 3.93423 5.70334H10.0693C10.6683 5.70334 11.3396 6.14095 11.6073 6.66778L13.7741 11.2011ZM1.93313 11.0056H12.0661L10.6003 7.87439C10.2987 7.27533 10.0353 7.13938 9.40222 7.13938H4.60127C4.50355 7.13938 4.43132 7.13938 4.36759 7.13938C3.90024 7.2031 3.66657 7.37305 3.43714 7.87439L1.93313 11.0056ZM3.33517 13.2701C3.33517 12.6711 2.83384 12.2037 2.23478 12.2037C1.63572 12.2037 1.16837 12.6711 1.16837 13.2701C1.16837 13.8692 1.63572 14.3705 2.23478 14.3705C2.83384 14.3705 3.33517 13.8735 3.33517 13.2701ZM12.8691 13.2701C12.8691 12.6711 12.3678 12.2037 11.7687 12.2037C11.1696 12.2037 10.7023 12.6711 10.7023 13.2701C10.7023 13.8692 11.1696 14.3705 11.7687 14.3705C12.3678 14.3748 12.8691 13.8735 12.8691 13.2701ZM12.2063 6.13245L10.8383 2.86526C10.7745 2.69531 10.6683 2.59759 10.5706 2.59759C10.5366 2.59759 10.5069 2.59759 10.4729 2.59759C10.4389 2.59759 10.4389 2.63158 10.4091 2.63158L10.2095 2.7293L10.0395 2.86101C9.86957 2.95873 9.90781 3.12867 10.0735 3.32836L12.2063 6.13245ZM25.9039 12.5351L24.9012 16.3037L24.7695 16.805C24.7355 16.9749 24.5358 17.0727 24.3701 17.0387L22.7047 16.6011C22.5347 16.567 22.437 16.3674 22.471 16.2017L22.6027 15.7004L22.7727 15.165L14.5346 12.9642V12.3312C14.5346 12.0635 14.5006 11.7661 14.4368 11.4984C14.8745 11.4644 15.2696 11.167 15.4013 10.6955C15.5712 10.1304 15.2016 9.53135 14.6323 9.36141C14.2669 9.29768 13.8972 9.3954 13.6296 9.62907L12.8606 8.02734C12.8945 7.99335 12.9243 7.92962 12.9583 7.89563L16.2255 4.09311C16.5271 3.72773 17.0284 3.52804 17.4958 3.49405C17.6657 3.49405 17.7975 3.49405 17.9334 3.52804L23.771 5.02781C24.3701 5.19775 24.9054 5.79681 25.0031 6.36188L25.9336 11.2988C26.0399 11.8001 26.0101 12.14 25.9039 12.5351ZM24.4721 10.8059L23.8391 7.40704C23.7074 6.74425 23.4737 6.54032 22.8747 6.37037L18.2394 5.10003C18.0057 5.0363 17.84 5.0363 17.6743 5.0363C17.4066 5.07029 17.173 5.23599 16.9053 5.53764L14.6365 8.16754L24.4721 10.8059ZM23.8391 11.8723C23.7753 11.8384 23.7074 11.8384 23.6394 11.8384C23.5714 11.8384 23.5077 11.8384 23.4397 11.8384C23.0021 11.8723 22.6367 12.1698 22.539 12.6413C22.3691 13.2064 22.709 13.8054 23.274 13.9754C23.8391 14.1453 24.4382 13.7757 24.6081 13.2064C24.7695 12.6329 24.4084 12.0338 23.8391 11.8723Z" fill="#A9B0BE"/>
</svg>
