<svg width="26" height="18" fill="none" xmlns="http://www.w3.org/2000/svg"><path d="M15.839 3.035l-2.137 2.8 1.368-3.267c.034-.17.17-.268.268-.268.034 0 .063.034.131.064l.2.098.2.097c.174.11.14.272-.03.476zM12.94 6.103l.6-4.704c.063-.33-.035-.565-.268-.565h-.667c-.234 0-.332.2-.268.565l.603 4.704zm.833 5.098c.2.467.268.77.268 1.198v4.436c0 .17-.132.331-.332.331h-1.733c-.2 0-.332-.132-.332-.331v-1.101h-9.24v1.101c0 .17-.132.331-.332.331H.331c-.2 0-.331-.132-.331-.331v-4.436c0-.437.064-.769.268-1.198l2.166-4.533c.234-.536.901-.965 1.5-.965h6.135c.6 0 1.27.438 1.538.965l2.167 4.533zm-11.84-.195h10.132L10.6 7.874c-.301-.599-.565-.735-1.198-.735H4.368c-.468.064-.701.234-.93.735l-1.505 3.132zm1.401 2.264c0-.599-.501-1.066-1.1-1.066-.6 0-1.067.467-1.067 1.066 0 .6.468 1.1 1.067 1.1s1.1-.496 1.1-1.1zm9.534 0c0-.599-.501-1.066-1.1-1.066-.6 0-1.067.467-1.067 1.066 0 .6.468 1.1 1.067 1.1.599.005 1.1-.496 1.1-1.1zm-.663-7.138l-1.368-3.267c-.063-.17-.17-.267-.267-.267h-.098c-.034 0-.034.034-.064.034l-.2.097-.17.132c-.17.098-.131.268.034.467l2.133 2.804zm13.698 6.403L24.9 16.304l-.131.501c-.035.17-.234.268-.4.234l-1.665-.438c-.17-.034-.268-.234-.234-.4l.132-.5.17-.536-8.238-2.2v-.634a3.71 3.71 0 00-.098-.833c.438-.034.833-.331.964-.803.17-.565-.2-1.164-.769-1.334a1.207 1.207 0 00-1.002.268l-.77-1.602c.035-.034.064-.097.098-.131l3.268-3.803c.301-.365.802-.565 1.27-.599.17 0 .302 0 .437.034l5.838 1.5c.6.17 1.134.769 1.232 1.334l.93 4.937c.107.501.077.841-.03 1.236zm-1.432-1.73l-.633-3.398c-.132-.663-.365-.867-.964-1.037L18.239 5.1c-.233-.064-.399-.064-.565-.064-.267.034-.501.2-.769.502l-2.269 2.63 9.836 2.638zm-.633 1.067c-.064-.034-.132-.034-.2-.034h-.2a.981.981 0 00-.9.803c-.17.565.17 1.164.735 1.334.565.17 1.164-.2 1.334-.769.162-.573-.2-1.172-.769-1.334z" fill="#A9B0BE"/></svg>