<svg width="24" height="16" fill="none" xmlns="http://www.w3.org/2000/svg"><path d="M23.917 11.075l-2.53-8.876A2.133 2.133 0 0019.32.639h-6.616v1.737h1.123a.703.703 0 110 1.406h-3.652a.703.703 0 010-1.406h1.123V.639H4.68c-.971 0-1.803.627-2.069 1.561L.083 11.075a2.154 2.154 0 001.475 2.658 49.38 49.38 0 002.925.746l5.392-5.393a.703.703 0 01.995.995l-4.731 4.731c1.931.348 3.764.53 5.53.55l5.837-5.836a.703.703 0 11.994.994l-4.793 4.793c2.706-.155 5.581-.676 8.735-1.58a2.154 2.154 0 001.475-2.658z" fill="#A9B0BE"/></svg>