<svg width="13" height="20" viewBox="0 0 13 20" fill="none" xmlns="http://www.w3.org/2000/svg">
<path d="M8.72754 5.51656C9.47949 4.37969 9.35535 2.8298 8.35492 1.82938L6.69766 0.172109C6.46887 -0.0567187 6.09785 -0.0567187 5.86902 0.172109L2.55445 3.48668C2.32562 3.71551 2.32562 4.08648 2.55445 4.31531L4.21172 5.97258C5.21227 6.97316 6.76215 7.09703 7.89891 6.3452L9.41406 7.86035V8.20359H2.96875C2.64531 8.20359 2.38281 8.46609 2.38281 8.78953V9.37547H1.17188V8.78953C1.17188 8.46594 0.909531 8.20359 0.585938 8.20359C0.262344 8.20359 0 8.46594 0 8.78953V11.1333C0 11.4569 0.262344 11.7192 0.585938 11.7192C0.909531 11.7192 1.17188 11.4569 1.17188 11.1333V10.5473H2.38281V19.4145C2.38281 19.738 2.64531 20.0005 2.96875 20.0005H7.65625C7.97984 20.0005 8.24219 19.7381 8.24219 19.4145C8.24219 19.0909 7.97984 18.8286 7.65625 18.8286H7.07031V15.2348H7.65625C8.62551 15.2348 9.41406 14.4463 9.41406 13.477V12.8911H12.9297V7.03172H10.2427L8.72754 5.51656ZM8.24219 13.477C8.24219 13.8001 7.97934 14.063 7.65625 14.063H7.07031V12.8911H8.24219V13.477Z" fill="#A9B0BE"/>
</svg>
