<svg width="26" height="14" viewBox="0 0 26 14" fill="none" xmlns="http://www.w3.org/2000/svg">
<path d="M22.1785 7.44829C21.3196 7.44829 20.6207 6.74939 20.6207 5.89049C20.6207 5.67095 20.666 5.45797 20.7546 5.25791L22.2766 1.83456C21.2837 1.39438 18.2449 0.275879 13 0.275879C7.75552 0.275879 4.71718 1.39438 3.72389 1.83499L5.24579 5.25857C5.334 5.45841 5.37931 5.67095 5.37931 5.89093C5.37931 6.74983 4.68041 7.44873 3.82151 7.44873H0V8.34528H4.03448V8.79356C4.03448 10.3728 2.85995 11.6804 1.33892 11.8965C1.85089 13.0086 2.95188 13.7246 4.18376 13.7246H21.8162C23.0481 13.7246 24.1487 13.0086 24.6611 11.8965C23.1401 11.68 21.9655 10.3728 21.9655 8.79312V8.34484H26V7.44829H22.1785ZM9.15113 2.96553H11.2069C11.2069 1.97661 12.0111 1.17243 13 1.17243C13.9889 1.17243 14.7931 1.97661 14.7931 2.96553H16.8489C17.94 2.96553 18.8276 3.85311 18.8276 4.94425C18.8276 5.85656 18.2077 6.64674 17.3201 6.86606C16.2474 7.13179 14.6276 7.44829 13 7.44829C11.3724 7.44829 9.75263 7.13179 8.67987 6.86606C7.7923 6.64674 7.17241 5.857 7.17241 4.94425C7.17241 3.85355 8.05999 2.96553 9.15113 2.96553ZM21.069 9.33333L20.3867 10.9255C19.8918 12.0812 18.7595 12.8276 17.5025 12.8276H8.49754C7.24049 12.8276 6.10863 12.0812 5.6133 10.9255L4.93103 9.33333V8.34484H21.069V9.33333Z" fill="#A9B0BE"/>
</svg>
