<svg width="18" height="20" fill="none" xmlns="http://www.w3.org/2000/svg"><path d="M1.419 14.07c.36-.34.775-.504 1.139-.594a10.685 10.685 0 01-.174-.934 4.869 4.869 0 01.062-1.721L3.5 5.888c.18-.636.559-1.11 1.032-1.471-.02-.025-.044-.044-.062-.07a1.54 1.54 0 01-.21-1.324l.314-1.875a.798.798 0 01.04-.151C4.834.4 5.408 0 6.04 0h5.918c.634 0 1.207.4 1.451 1.07l.494 1.863c.175.473.108 1-.18 1.414-.044.064-.1.116-.154.171.432.359.777.819.947 1.424l1.04 4.879c.123.572.144 1.15.063 1.722-.047.33-.105.64-.175.933.364.09.777.256 1.137.594.343.322.752.915.75 1.95C17.266 17.396 16.22 20 12.75 20h-7.5C1.78 20 .735 17.397.667 15.98c0-.995.408-1.588.752-1.91zm12.165 4.183c1.9-.39 2.07-2.099 2.083-2.274 0-.477-.167-.637-.222-.69a.935.935 0 00-.439-.213 3.33 3.33 0 01-.785.878c-.011.011-.024.018-.035.03a2.585 2.585 0 01-.4.308c-.067.042-.132.089-.202.125v1.836zm-7.5.08h5.833v-1.831a6.582 6.582 0 00-.313-.096 9.345 9.345 0 00-.403-.107 9.75 9.75 0 00-.367-.082l-.072-.016a10.668 10.668 0 00-.618-.101 9.785 9.785 0 00-.407-.045c-.054-.005-.108-.01-.162-.013a8.075 8.075 0 00-.573-.024c-.193 0-.383.01-.57.024-.054.003-.108.008-.162.013a9.706 9.706 0 00-.405.045l-.136.018c-.168.025-.33.053-.483.084l-.067.014a10.444 10.444 0 00-.77.188c-.024.008-.051.014-.074.021-.096.028-.179.055-.251.078v1.83zm2.365-15c.127-.002.234-.001.319 0h3.521l-.441-1.666H6.176l-.278 1.666h2.55zm-4.032 14.92v-1.837c-.07-.036-.137-.084-.204-.127a2.958 2.958 0 01-.193-.135 2.808 2.808 0 01-.2-.167l-.02-.017a3.274 3.274 0 01-.805-.894.939.939 0 00-.435.209c-.056.053-.226.213-.228.647.015.217.185 1.93 2.085 2.321z" fill="#A9B0BE"/></svg>