<svg width="30" height="30" viewBox="0 0 30 30" fill="none" xmlns="http://www.w3.org/2000/svg">
<path d="M14.9998 0C6.71571 0 0 6.71591 0 14.9998C0 23.2836 6.71571 30 14.9998 30C23.2838 30 30 23.2836 30 14.9998C30 6.71591 23.2838 0 14.9998 0ZM21.4846 17.8527H15.1253C15.1038 17.8527 15.0838 17.8475 15.0625 17.8467C15.0412 17.8477 15.0213 17.8527 14.9997 17.8527C14.4267 17.8527 13.9622 17.3882 13.9622 16.8153V6.225C13.9622 5.65209 14.4267 5.18759 14.9997 5.18759C15.5726 5.18759 16.0371 5.65209 16.0371 6.225V15.7779H21.4842C22.0571 15.7779 22.5216 16.2424 22.5216 16.8153C22.5216 17.3882 22.0575 17.8527 21.4846 17.8527Z" fill="#222454"/>
</svg>
