<svg width="28" height="30" fill="none" xmlns="http://www.w3.org/2000/svg"><path d="M22.467 19.386a6.524 6.524 0 01-5.28 2.695h-3.043a2.431 2.431 0 01-2.285-1.601 7.72 7.72 0 01-1.229-.486 8.276 8.276 0 01-2.295-1.699c-4.396.966-7.686 4.882-7.686 9.568v.613c0 .841.683 1.524 1.525 1.524h23.652c.842 0 1.524-.683 1.524-1.524v-.613c0-3.62-1.963-6.78-4.883-8.477z" fill="#222454"/><path d="M6.715 15.153c.655 0 1.225-.363 1.52-.899a6.137 6.137 0 00.031.082c.693 1.825 2.042 3.354 3.82 4.022a2.428 2.428 0 012.058-1.137h3.042c.304 0 .587-.086.834-.225.416-.232.79-.822.983-1.135.31-.5.549-1.03.76-1.608.12.217.284.405.48.553v.746a3.06 3.06 0 01-3.056 3.057h-3.043a1.041 1.041 0 100 2.083h3.042a5.146 5.146 0 005.14-5.14v-.746c.422-.317.695-.82.695-1.389V9.072c0-.58-.284-1.092-.72-1.407C21.962 3.382 18.369 0 14 0S6.038 3.382 5.7 7.665a1.731 1.731 0 00-.721 1.407v4.345c0 .962.78 1.736 1.736 1.736zM14 2.083a6.252 6.252 0 016.213 5.625 1.742 1.742 0 00-.488.603C18.742 5.747 16.55 3.96 14 3.96c-2.604 0-4.763 1.847-5.722 4.34l-.004.01a1.742 1.742 0 00-.487-.603A6.253 6.253 0 0114 2.083z" fill="#222454"/></svg>