<svg width="30" height="30" fill="none" xmlns="http://www.w3.org/2000/svg"><path d="M28.848 23.026l-.001-.001-7.503-6.638a.879.879 0 00-1.204.037l-1.236 1.236-1.534-1.533 2.733-3.326a6.783 6.783 0 009.752-7.422.822.822 0 00-1.387-.412L25.59 7.845a1.338 1.338 0 01-1.893 0l-1.542-1.542a1.338 1.338 0 010-1.892l2.878-2.879a.822.822 0 00-.412-1.386A6.782 6.782 0 0017.2 9.897l-3.327 2.733L7.09 5.847l.751-.751a.729.729 0 00-.063-1.087L3.891.81a.728.728 0 00-.967.056L.865 2.925a.728.728 0 00-.056.966l3.2 3.887a.728.728 0 001.086.063l.752-.751 6.661 6.66L.891 23.295a2.33 2.33 0 00-.208 3.48l2.543 2.543a2.33 2.33 0 003.48-.209l9.543-11.616 1.412 1.411-1.285 1.285a.88.88 0 00-.033 1.209l6.698 7.467a3.434 3.434 0 004.982.129l.97-.97a3.439 3.439 0 00-.145-4.997zM5.051 25.827a.879.879 0 110-1.757.879.879 0 010 1.757z" fill="#222454"/></svg>