<svg width="20" height="29" viewBox="0 0 20 29" fill="none" xmlns="http://www.w3.org/2000/svg">
<path d="M20 17.8125C20 17.0613 19.7025 16.3613 19.1862 15.845C19.77 15.2063 20.0675 14.35 19.9862 13.4588C19.84 11.87 18.4087 10.625 16.7262 10.625H9.00498C9.38748 9.46375 9.99996 7.33504 9.99996 5.62504C9.99996 2.91379 7.69623 0.625061 6.24996 0.625061C4.95123 0.625061 4.02369 1.35631 3.98373 1.38631C3.83625 1.50508 3.75 1.68508 3.75 1.87504V6.11377L0.15 13.9125L0 13.9888V27.3863C1.01748 27.8663 2.30496 28.125 3.12498 28.125H14.5987C15.96 28.125 17.1513 27.2075 17.4312 25.9413C17.575 25.29 17.4912 24.6338 17.205 24.0638C18.1287 23.5988 18.75 22.6475 18.75 21.5625C18.75 21.12 18.6488 20.6963 18.4563 20.3126C19.38 19.8476 20 18.8963 20 17.8125Z" fill="#222454"/>
</svg>
