<svg width="28" height="30" viewBox="0 0 28 30" fill="none" xmlns="http://www.w3.org/2000/svg">
<path d="M22.4673 19.3864C21.2793 21.0181 19.3547 22.0809 17.1864 22.0809H14.1439C13.0929 22.0809 12.1978 21.4136 11.8589 20.4797C11.4406 20.3549 11.0303 20.1929 10.63 19.994C9.7822 19.5728 9.01241 19.0021 8.33477 18.2952C3.9392 19.2608 0.649414 23.1775 0.649414 27.8631V28.4756C0.649414 29.3175 1.33195 30 2.17386 30H25.8259C26.6678 30 27.3504 29.3175 27.3504 28.4756V27.8631C27.3503 24.2434 25.3869 21.0825 22.4673 19.3864Z" fill="#222454"/>
<path d="M6.7146 15.153C7.36979 15.153 7.94007 14.7898 8.23552 14.254C8.24329 14.2752 8.25119 14.2963 8.25915 14.3173C8.2615 14.3237 8.26385 14.33 8.2662 14.3363C8.95931 16.1607 10.3079 17.6901 12.0863 18.3584C12.5164 17.675 13.2769 17.2205 14.144 17.2205H17.1865C17.49 17.2205 17.7725 17.1349 18.0201 16.9964C18.436 16.7639 18.8099 16.174 19.0031 15.8613C19.3121 15.3609 19.5515 14.8309 19.7638 14.253C19.8831 14.4697 20.0472 14.6582 20.2438 14.8059V15.5519C20.2438 17.2377 18.8723 18.6093 17.1865 18.6093H14.144C13.5688 18.6093 13.1025 19.0756 13.1025 19.6507C13.1025 20.226 13.5688 20.6922 14.144 20.6922H17.1865C20.0209 20.6922 22.3268 18.3863 22.3268 15.5519V14.8059C22.7484 14.4892 23.0211 13.9851 23.0211 13.4172V10.2767V9.07248C23.0211 8.49294 22.7369 7.98015 22.3005 7.66486C21.962 3.38175 18.3686 0 13.9999 0C9.63127 0 6.03787 3.38175 5.69941 7.66479C5.26299 7.98009 4.97876 8.49293 4.97876 9.07242V13.4171C4.97876 14.3785 5.75978 15.153 6.7146 15.153ZM13.9999 2.08305C17.2339 2.08305 19.9014 4.55448 20.2131 7.70787C20.0085 7.86888 19.8408 8.07465 19.7253 8.31078C18.7425 5.7468 16.5487 3.96169 13.9999 3.96169C11.3961 3.96169 9.23746 5.80815 8.27834 8.30054C8.27703 8.30393 8.27579 8.30739 8.27449 8.31085C8.15897 8.07472 7.9913 7.86894 7.78663 7.70793C8.0986 4.55448 10.766 2.08305 13.9999 2.08305Z" fill="#222454"/>
</svg>
