<svg width="34" height="40" fill="none" xmlns="http://www.w3.org/2000/svg"><path d="M33.79 10.296c-.048-1.052-.048-2.057-.048-3.061A1.41 1.41 0 0032.307 5.8c-5.979 0-10.523-1.722-14.302-5.405a1.476 1.476 0 00-2.008 0C12.216 4.078 7.673 5.8 1.694 5.8A1.41 1.41 0 00.26 7.235c0 1.004 0 2.009-.048 3.061-.192 10.045-.479 23.82 16.31 29.608l.479.096.478-.096C34.221 34.117 33.981 20.39 33.79 10.296zm-17.937 13.92a1.55 1.55 0 01-1.005.382h-.047c-.383 0-.766-.191-1.005-.478l-4.448-4.927 2.152-1.914 3.492 3.875 7.749-7.366 1.961 2.104-8.849 8.323z" fill="#B80036"/></svg>