<svg width="34" height="40" viewBox="0 0 34 40" fill="none" xmlns="http://www.w3.org/2000/svg">
<path d="M33.7902 10.296C33.7424 9.24365 33.7424 8.23916 33.7424 7.23468C33.7424 6.42152 33.1206 5.7997 32.3074 5.7997C26.3283 5.7997 21.7842 4.07773 18.0055 0.394619C17.4315 -0.13154 16.5705 -0.13154 15.9965 0.394619C12.2177 4.07773 7.67362 5.7997 1.69454 5.7997C0.88139 5.7997 0.259566 6.42152 0.259566 7.23468C0.259566 8.23916 0.259566 9.24365 0.211733 10.296C0.0204031 20.3408 -0.266593 34.1166 16.5226 39.9043L17.001 40L17.4793 39.9043C34.2207 34.1166 33.9815 20.3886 33.7902 10.296ZM15.853 24.2152C15.566 24.4544 15.2312 24.5979 14.8485 24.5979H14.8007C14.418 24.5979 14.0353 24.4066 13.7962 24.1196L9.34776 19.1928L11.5002 17.2795L14.992 21.154L22.7409 13.7877L24.702 15.8924L15.853 24.2152Z" fill="#B80036"/>
</svg>
