<svg width="75" height="75" viewBox="0 0 75 75" fill="none" xmlns="http://www.w3.org/2000/svg">
<path d="M73.3383 41.8759L71.9282 39.9447C70.7634 38.3506 70.748 36.1895 71.8822 34.5648L73.2617 32.6183C74.8557 30.3499 74.12 27.2078 71.6677 25.8896L69.5678 24.7554C67.8205 23.8205 66.8703 21.8739 67.1921 19.9274L67.5906 17.567C68.0504 14.8388 66.0119 12.3098 63.2377 12.2025L60.8467 12.0952C58.8695 12.0186 57.1682 10.6698 56.6164 8.76919L55.9573 6.47012C55.191 3.80319 52.2635 2.42374 49.7038 3.5273L47.512 4.47758C45.6881 5.25927 43.5883 4.79945 42.2548 3.31272L40.6608 1.53477C38.8062 -0.534403 35.5722 -0.503748 33.7482 1.58075L32.1849 3.38935C30.882 4.87609 28.7822 5.38189 26.9583 4.63086L24.7512 3.72655C22.1915 2.66898 19.2794 4.0944 18.5437 6.77666L17.9153 9.07574C17.4095 11.007 15.7388 12.3711 13.7616 12.4784L11.3706 12.6163C8.59633 12.7696 6.6038 15.3292 7.1096 18.0421L7.53876 20.3872C7.89128 22.3337 6.97165 24.2956 5.23968 25.2459L3.15519 26.4108C0.733494 27.7596 0.0284443 30.917 1.66845 33.1547L3.07855 35.086C4.24342 36.68 4.25874 38.8411 3.12453 40.4658L1.74509 42.4123C0.151062 44.6808 0.886766 47.8228 3.33911 49.141L5.43894 50.2752C7.18623 51.2101 8.13652 53.1567 7.81465 55.1032L7.40082 57.4483C6.941 60.1765 8.97951 62.7055 11.7537 62.8128L14.1448 62.9201C16.122 62.9967 17.8233 64.3455 18.3751 66.2461L19.0341 68.5452C19.8005 71.2121 22.728 72.5915 25.2876 71.488L27.4794 70.5377C29.3033 69.756 31.4032 70.2158 32.7366 71.6872L34.3307 73.4652C36.1852 75.5344 39.4193 75.5037 41.2432 73.4192L42.8066 71.6106C44.1094 70.1239 46.2092 69.6181 48.0332 70.3691L50.2403 71.2734C52.7999 72.331 55.7121 70.9056 56.4478 68.2233L57.0762 65.9242C57.5973 64.0237 59.2833 62.6595 61.2605 62.5369L63.6515 62.399C66.4258 62.2457 68.4183 59.6861 67.9125 56.9732L67.4833 54.6281C67.1308 52.6815 68.0504 50.7197 69.7824 49.7694L71.8669 48.6045C74.2733 47.2864 74.963 44.1137 73.3383 41.8759ZM37.5034 61.7246C24.1381 61.7246 13.3018 50.8883 13.3018 37.523C13.3018 24.1577 24.1381 13.3214 37.5034 13.3214C50.8687 13.3214 61.705 24.1577 61.705 37.523C61.705 50.8883 50.8687 61.7246 37.5034 61.7246Z" fill="#54C442"/>
</svg>
