<svg width="75" height="75" fill="none" xmlns="http://www.w3.org/2000/svg"><path d="M73.338 41.876l-1.41-1.931a4.628 4.628 0 01-.046-5.38l1.38-1.947a4.614 4.614 0 00-1.594-6.728l-2.1-1.135a4.622 4.622 0 01-2.376-4.828l.399-2.36c.46-2.728-1.58-5.257-4.353-5.364l-2.391-.108a4.604 4.604 0 01-4.23-3.326l-.66-2.299c-.766-2.667-3.694-4.046-6.253-2.943l-2.192.95a4.6 4.6 0 01-5.257-1.164L40.66 1.535a4.614 4.614 0 00-6.913.046l-1.563 1.808a4.618 4.618 0 01-5.227 1.242l-2.207-.904a4.61 4.61 0 00-6.207 3.05l-.629 2.299a4.54 4.54 0 01-4.153 3.402l-2.391.138a4.593 4.593 0 00-4.261 5.426l.429 2.345a4.602 4.602 0 01-2.3 4.859L3.156 26.41C.733 27.76.028 30.917 1.668 33.155l1.41 1.931a4.627 4.627 0 01.047 5.38l-1.38 1.946a4.614 4.614 0 001.594 6.729l2.1 1.134a4.622 4.622 0 012.376 4.828L7.4 57.448c-.46 2.728 1.579 5.258 4.353 5.365l2.39.107a4.604 4.604 0 014.231 3.326l.66 2.3c.765 2.666 3.693 4.045 6.253 2.942l2.191-.95a4.619 4.619 0 015.258 1.15l1.594 1.777a4.613 4.613 0 006.912-.046l1.564-1.808a4.618 4.618 0 015.226-1.242l2.207.904c2.56 1.058 5.472-.367 6.208-3.05l.628-2.299a4.635 4.635 0 014.184-3.387l2.392-.138a4.593 4.593 0 004.26-5.426l-.429-2.345a4.602 4.602 0 012.3-4.859l2.084-1.164c2.406-1.319 3.096-4.491 1.471-6.73zM37.503 61.725c-13.365 0-24.201-10.837-24.201-24.202 0-13.365 10.836-24.202 24.201-24.202 13.366 0 24.202 10.837 24.202 24.202 0 13.365-10.836 24.202-24.202 24.202z" fill="#54C442"/></svg>