<svg width="40" height="40" viewBox="0 0 40 40" fill="none" xmlns="http://www.w3.org/2000/svg">
<path d="M38.8281 2.88696H33.6951C33.7137 2.31842 33.7241 1.74652 33.7241 1.17188C33.7241 0.524597 33.1992 0 32.5522 0H7.44781C6.80084 0 6.27594 0.524597 6.27594 1.17188C6.27594 1.74652 6.28632 2.31842 6.30493 2.88696H1.17188C0.524597 2.88696 0 3.41156 0 4.05884C0 9.30969 1.37238 14.2636 3.86414 18.0084C6.32721 21.7105 9.60815 23.8339 13.1525 24.0405C13.956 24.9149 14.8053 25.6277 15.69 26.1716V31.38H13.7241C11.3474 31.38 9.41406 33.3136 9.41406 35.69V37.6559H9.33075C8.68347 37.6559 8.15887 38.1808 8.15887 38.8278C8.15887 39.4751 8.68347 39.9997 9.33075 39.9997H30.6693C31.3165 39.9997 31.8411 39.4751 31.8411 38.8278C31.8411 38.1808 31.3165 37.6559 30.6693 37.6559H30.5859V35.69C30.5859 33.3136 28.6526 31.38 26.2759 31.38H24.31V26.1716C25.1947 25.6281 26.0443 24.9149 26.8478 24.0405C30.3918 23.8339 33.6728 21.7105 36.1362 18.0084C38.6279 14.2636 40 9.30969 40 4.05884C40 3.41156 39.4754 2.88696 38.8281 2.88696ZM5.81543 16.7102C3.76007 13.6215 2.55249 9.5816 2.36847 5.23071H6.43585C6.85852 10.5792 8.11401 15.5231 10.0763 19.4473C10.3888 20.0723 10.7156 20.6628 11.0547 21.2189C9.10553 20.4828 7.30164 18.9441 5.81543 16.7102ZM28.2422 35.69V37.6562H11.7578V35.69C11.7578 34.606 12.6398 33.7238 13.7241 33.7238H26.2759C27.3602 33.7238 28.2422 34.606 28.2422 35.69ZM21.9662 31.38H18.0338V27.1899C18.678 27.3596 19.3344 27.4478 20 27.4478C20.6656 27.4478 21.322 27.3596 21.9662 27.1899V31.38ZM22.692 24.4019C22.6392 24.4235 22.5885 24.4498 22.54 24.4788C21.7117 24.8907 20.8606 25.1041 20 25.1041C19.1397 25.1041 18.2889 24.8907 17.4609 24.4794C17.4118 24.4498 17.3608 24.4235 17.3074 24.4012C16.3885 23.9154 15.4996 23.1818 14.6588 22.2177C14.6146 22.1545 14.5648 22.0963 14.5096 22.0432C13.6749 21.0522 12.8897 19.8334 12.1725 18.399C10.0189 14.0921 8.77502 8.42896 8.63342 2.34375H31.3666C31.2247 8.42896 29.9808 14.0924 27.8275 18.399C27.1103 19.8334 26.3251 21.0522 25.4907 22.0432C25.4352 22.0963 25.3848 22.1548 25.3409 22.218C24.5001 23.1824 23.6108 23.9157 22.692 24.4019ZM34.1846 16.7102C32.6984 18.9441 30.8945 20.4828 28.9453 21.2189C29.2844 20.6628 29.6112 20.0723 29.9237 19.4473C31.886 15.5231 33.1412 10.5792 33.5641 5.23071H37.6315C37.4475 9.5816 36.2399 13.6215 34.1846 16.7102Z" fill="white"/>
</svg>
