<svg width="40" height="40" fill="none" xmlns="http://www.w3.org/2000/svg"><path d="M38.828 2.887h-5.133c.019-.569.03-1.14.03-1.715A1.175 1.175 0 0032.551 0H7.448C6.8 0 6.276.525 6.276 1.172c0 .575.01 1.146.029 1.715H1.172C.525 2.887 0 3.412 0 4.059c0 5.25 1.372 10.205 3.864 13.95 2.463 3.701 5.744 5.825 9.289 6.032.803.874 1.652 1.587 2.537 2.13v5.209h-1.966a4.315 4.315 0 00-4.31 4.31v1.966h-.083a1.172 1.172 0 000 2.344h21.338a1.172 1.172 0 100-2.344h-.083V35.69a4.315 4.315 0 00-4.31-4.31H24.31v-5.208c.885-.544 1.734-1.257 2.538-2.131 3.544-.207 6.825-2.33 9.288-6.033C38.628 14.264 40 9.31 40 4.058c0-.646-.525-1.171-1.172-1.171zM5.815 16.71C3.76 13.621 2.552 9.582 2.368 5.23h4.068c.423 5.35 1.678 10.293 3.64 14.217.313.625.64 1.216.979 1.772-1.95-.736-3.753-2.275-5.24-4.509zm22.427 18.98v1.966H11.758V35.69c0-1.084.882-1.966 1.966-1.966h12.552c1.084 0 1.966.882 1.966 1.966zm-6.276-4.31h-3.932v-4.19c.644.17 1.3.258 1.966.258.666 0 1.322-.088 1.966-.258v4.19zm.726-6.978a1.134 1.134 0 00-.152.077c-.828.412-1.68.625-2.54.625-.86 0-1.711-.213-2.54-.625-.048-.03-.1-.055-.153-.078-.918-.486-1.807-1.22-2.648-2.183a1.18 1.18 0 00-.15-.175c-.834-.99-1.62-2.21-2.337-3.644-2.153-4.307-3.397-9.97-3.539-16.055h22.734c-.142 6.085-1.386 11.748-3.54 16.055-.717 1.434-1.502 2.653-2.336 3.644a1.151 1.151 0 00-.15.175c-.84.964-1.73 1.698-2.649 2.184zm11.493-7.692c-1.487 2.234-3.29 3.773-5.24 4.509.34-.556.666-1.147.979-1.772 1.962-3.924 3.217-8.868 3.64-14.216h4.068c-.184 4.35-1.392 8.39-3.447 11.48z" fill="#fff"/></svg>