<svg width="27" height="23" fill="none" xmlns="http://www.w3.org/2000/svg"><path d="M8.642 10.444a7.152 7.152 0 00-1.977-.288 6.2 6.2 0 00-2.479.508c.623-2.281 2.12-6.217 5.102-6.66a.708.708 0 00.577-.51l.652-2.331a.708.708 0 00-.586-.892 4.95 4.95 0 00-.666-.045C5.685.226 2.14 3.96.645 9.31c-.877 3.138-1.135 7.856 1.028 10.826 1.21 1.661 2.976 2.549 5.247 2.637h.028a6.3 6.3 0 006.045-4.59 6.24 6.24 0 00-.575-4.772 6.296 6.296 0 00-3.776-2.966zM26.19 13.41a6.296 6.296 0 00-3.777-2.966 7.152 7.152 0 00-1.977-.288c-.998 0-1.832.228-2.479.508.624-2.281 2.12-6.217 5.102-6.66a.709.709 0 00.578-.51l.652-2.331a.707.707 0 00-.586-.892 4.944 4.944 0 00-.667-.045c-3.579 0-7.123 3.735-8.619 9.084-.878 3.138-1.135 7.856 1.028 10.826 1.21 1.662 2.976 2.55 5.247 2.638h.028a6.3 6.3 0 006.046-4.59 6.244 6.244 0 00-.576-4.773z" fill="#D9DFEA"/></svg>