<svg width="187" height="50" viewBox="0 0 187 50" fill="none" xmlns="http://www.w3.org/2000/svg">
<g filter="url(#filter0_d)">
<g opacity="0.7">
<g opacity="0.7">
<path opacity="0.7" d="M115.4 36.4C116.2 35.8 117.1 35.5 118.1 35.5C118.9 35.5 119.5 35.7 119.9 36.1C120.3 36.5 120.5 37 120.5 37.6C120.5 38.1 120.3 38.7 120 39.3C119.7 39.9 119.2 40.4 118.5 40.9C118.1 41.2 117.7 41.4 117.2 41.5C116.7 41.7 116.3 41.7 115.8 41.7C115 41.7 114.4 41.5 114 41.1C113.6 40.7 113.4 40.2 113.4 39.6C113.4 39.2 113.5 38.8 113.6 38.6C114 37.7 114.6 37 115.4 36.4Z" fill="white"/>
<path opacity="0.7" d="M126.7 28.1L130.2 18.3H138.5C137.5 21.3 136.7 23.6 136.1 25.3C135.5 27 135.1 28.2 134.9 29C134.7 29.8 134.5 30.3 134.4 30.6C134.3 30.8 134.3 31 134.3 31.1C134.2 31.7001 134.1 32.2 134.1 32.5C134.1 33.5 134.3 34.3001 134.8 34.9001C135.3 35.5001 136 35.8 136.8 35.8H139C139.7 35.8 140.4 35.7001 141 35.4001C141.6 35.1001 142.1 34.7 142.6 34.3C143.1 33.9 143.5 33.4001 143.8 32.9001C144.1 32.4001 144.4 31.9 144.6 31.5L149.4 18.4H157.8L153.8 29.3C153.1 31.3 152.3 33.1 151.6 34.6C150.9 36.1 150 37.4 149 38.5C148 39.6 146.9 40.4001 145.7 40.9001C144.4 41.4001 142.9 41.7001 141.2 41.7001H136.1C134 41.7001 132.3 41.6 131 41.3C129.6 41.1 128.5 40.7001 127.7 40.2001C126.9 39.7001 126.3 39 125.9 38.2001C125.5 37.4001 125.4 36.4001 125.4 35.2001C125.4 34.9001 125.4 34.5 125.5 34.2001C125.5 33.8001 125.6 33.5 125.7 33.1C125.8 32.3 126 31.6 126.2 30.8C126.2 30 126.4 29.1 126.7 28.1Z" fill="white"/>
<path opacity="0.7" d="M175.1 41.7L174.2 36.7C174.1 36.9 173.9 37.2 173.6 37.7C173.2 38.2 172.8 38.7 172.4 39.3C171.9 39.9 171.5 40.4 171.1 40.8C170.7 41.3 170.3 41.5 170.1 41.6H151.5C151.6 41.4 151.6 41.3 151.6 41.3V41.2L167.3 21C167.4 20.8 167.6 20.6 167.8 20.3C168 20 168.3 19.7 168.7 19.4C169 19.1 169.3 18.9 169.6 18.7C169.9 18.5 170.2 18.4 170.4 18.4H177.8C178.1 18.4 178.4 18.6 178.6 18.9C178.8 19.2 179.1 19.6 179.2 20.1C179.4 20.6 179.5 21.1 179.7 21.6C179.8 22.1 179.9 22.5 180 22.9L182.9 41.8H175.1V41.7ZM165.2 35.8H174.1L172.6 25.5L165.2 35.4V35.8Z" fill="white"/>
</g>
<g opacity="0.7">
<path opacity="0.7" d="M30.8004 34.3V34C30.8004 33.8 30.8004 33.5 30.7004 33.3C30.6004 33.1 30.5004 32.9 30.2004 32.9H21.4004C20.5004 32.9 19.7004 32.7 19.0004 32.3C18.3004 31.9 17.7004 31.3 17.2004 30.7C16.7004 30 16.3004 29.3 16.0004 28.5C15.7004 27.7 15.6004 26.9 15.6004 26.2C15.6004 25.5 15.8004 24.7 16.2004 23.8C16.6004 22.9 17.1004 22.1 17.8004 21.2C18.4004 20.4 19.2004 19.7 20.0004 19.2C20.8004 18.7 21.6004 18.4 22.5004 18.4H45.0004C44.3004 19.4 43.6004 20.4 42.7004 21.4C41.8004 22.4 40.9004 23.4 39.8004 24.4H25.2004C24.9004 24.4 24.6004 24.6 24.4004 25.1C24.2004 25.5 24.0004 25.9 24.0004 26.2V26.4C24.0004 26.4 24.1004 26.5 24.2004 26.6C24.3004 26.7 24.4004 26.8 24.5004 26.8C24.6004 26.9 24.8004 27 25.0004 27.1C25.2004 27.2 25.3004 27.3 25.4004 27.3H33.8004C34.7004 27.3 35.5004 27.5 36.2004 28C36.9004 28.5 37.4004 29 37.8004 29.7C38.2004 30.4 38.5004 31.1 38.7004 31.9C38.9004 32.7 39.0004 33.4 39.0004 34.1V34.4C39.0004 35.2 38.8004 36 38.5004 36.8C38.1004 37.7 37.7004 38.5 37.1004 39.2C36.5004 39.9 35.9004 40.5 35.1004 41C34.4004 41.5 33.6004 41.7 32.8004 41.7H10.4004C10.5004 41.4 10.8004 40.9 11.3004 40.3C11.8004 39.7 12.2004 39 12.8004 38.3C13.4004 37.6 13.8004 37.1 14.2004 36.5C14.6004 36 14.9004 35.7 15.0004 35.7H30.0004C30.4004 35.7 30.7004 35.6 30.8004 35.3C30.9004 35 30.9004 34.8 30.9004 34.5V34.3H30.8004Z" fill="#00D300"/>
<path opacity="0.7" d="M64.8 41.7001L69.6 28.6L57.6 41.7001H54.6L52.2 28.6L47.4 41.7001H39L47.5 18.4H58.1L60.4 30L71.2 18.3H81.8L73.3 41.6H64.8V41.7001Z" fill="#00D300"/>
<path opacity="0.7" d="M101.601 41.7001L106.401 28.6L94.4008 41.7001H91.4008L89.0008 28.5L84.2008 41.6H75.8008L84.3008 18.3H94.9008L97.1008 30L107.901 18.3H118.501L110.001 41.6H101.601V41.7001Z" fill="#00D300"/>
</g>
</g>
<path d="M115.4 35.4C116.2 34.8 117.1 34.5 118.1 34.5C118.9 34.5 119.5 34.7 119.9 35.1C120.3 35.5 120.5 36 120.5 36.6C120.5 37.1 120.3 37.7 120 38.3C119.7 38.9 119.2 39.4 118.5 39.9C118.1 40.2 117.7 40.4 117.2 40.5C116.7 40.7 116.3 40.7 115.8 40.7C115 40.7 114.4 40.5 114 40.1C113.6 39.7 113.4 39.2 113.4 38.6C113.4 38.2 113.5 37.8 113.6 37.6C114 36.7 114.6 36 115.4 35.4Z" fill="white"/>
<path d="M126.7 27.1L130.2 17.3H138.5C137.5 20.3 136.7 22.6 136.1 24.3C135.5 26 135.1 27.2 134.9 28C134.7 28.8 134.5 29.3 134.4 29.6C134.3 29.8 134.3 30 134.3 30.1C134.2 30.7001 134.1 31.2 134.1 31.5C134.1 32.5 134.3 33.3001 134.8 33.9001C135.3 34.5001 136 34.8 136.8 34.8H139C139.7 34.8 140.4 34.7001 141 34.4001C141.6 34.1001 142.1 33.7 142.6 33.3C143.1 32.9 143.5 32.4 143.8 31.9C144.1 31.4 144.4 30.9 144.6 30.5L149.4 17.4H157.8L153.8 28.3C153.1 30.3 152.3 32.1 151.6 33.6C150.9 35.1 150 36.4 149 37.5C148 38.6 146.9 39.4001 145.7 39.9001C144.4 40.4001 142.9 40.7001 141.2 40.7001H136.1C134 40.7001 132.3 40.6 131 40.3C129.6 40.1 128.5 39.7001 127.7 39.2001C126.9 38.7001 126.3 38 125.9 37.2001C125.5 36.4001 125.4 35.4001 125.4 34.2001C125.4 33.9001 125.4 33.5 125.5 33.2001C125.5 32.8001 125.6 32.5 125.7 32.1C125.8 31.3 126 30.6 126.2 29.8C126.2 29 126.4 28.1 126.7 27.1Z" fill="white"/>
<path d="M175.1 40.7L174.2 35.7C174.1 35.9 173.9 36.2 173.6 36.7C173.2 37.2 172.8 37.7 172.4 38.3C171.9 38.9 171.5 39.4 171.1 39.8C170.7 40.3 170.3 40.5 170.1 40.6H151.5C151.6 40.4 151.6 40.3 151.6 40.3V40.2L167.3 20C167.4 19.8 167.6 19.6 167.8 19.3C168 19 168.3 18.7 168.7 18.4C169 18.1 169.3 17.9 169.6 17.7C169.9 17.5 170.2 17.4 170.4 17.4H177.8C178.1 17.4 178.4 17.6 178.6 17.9C178.8 18.2 179.1 18.6 179.2 19.1C179.4 19.6 179.5 20.1 179.7 20.6C179.8 21.1 179.9 21.5 180 21.9L182.9 40.8H175.1V40.7ZM165.2 34.8H174.1L172.6 24.5L165.2 34.4V34.8Z" fill="white"/>
<path d="M30.8004 33.3V33C30.8004 32.8 30.8004 32.5 30.7004 32.3C30.6004 32.1 30.5004 31.9 30.2004 31.9H21.4004C20.5004 31.9 19.7004 31.7 19.0004 31.3C18.3004 30.9 17.7004 30.3 17.2004 29.7C16.7004 29 16.3004 28.3 16.0004 27.5C15.7004 26.7 15.6004 25.9 15.6004 25.2C15.6004 24.5 15.8004 23.7 16.2004 22.8C16.6004 21.9 17.1004 21.1 17.8004 20.2C18.4004 19.4 19.2004 18.7 20.0004 18.2C20.8004 17.7 21.6004 17.4 22.5004 17.4H45.0004C44.3004 18.4 43.6004 19.4 42.7004 20.4C41.8004 21.4 40.9004 22.4 39.8004 23.4H25.2004C24.9004 23.4 24.6004 23.6 24.4004 24.1C24.2004 24.5 24.0004 24.9 24.0004 25.2V25.4C24.0004 25.4 24.1004 25.5 24.2004 25.6C24.3004 25.7 24.4004 25.8 24.5004 25.8C24.6004 25.9 24.8004 26 25.0004 26.1C25.2004 26.2 25.3004 26.3 25.4004 26.3H33.8004C34.7004 26.3 35.5004 26.5 36.2004 27C36.9004 27.5 37.4004 28 37.8004 28.7C38.2004 29.4 38.5004 30.1 38.7004 30.9C38.9004 31.7 39.0004 32.4 39.0004 33.1V33.4C39.0004 34.2 38.8004 35 38.5004 35.8C38.1004 36.7 37.7004 37.5 37.1004 38.2C36.5004 38.9 35.9004 39.5 35.1004 40C34.4004 40.5 33.6004 40.7 32.8004 40.7H10.4004C10.5004 40.4 10.8004 39.9 11.3004 39.3C11.8004 38.7 12.2004 38 12.8004 37.3C13.4004 36.6 13.8004 36.1 14.2004 35.5C14.6004 35 14.9004 34.7 15.0004 34.7H30.0004C30.4004 34.7 30.7004 34.6 30.8004 34.3C30.9004 34 30.9004 33.8 30.9004 33.5V33.3H30.8004Z" fill="url(#paint0_linear)"/>
<path d="M64.8 40.7001L69.6 27.6L57.6 40.7001H54.6L52.2 27.6L47.4 40.7001H39L47.5 17.4H58.1L60.4 29L71.2 17.3H81.8L73.3 40.6H64.8V40.7001Z" fill="url(#paint1_linear)"/>
<path d="M101.601 40.7001L106.401 27.6L94.4008 40.7001H91.4008L89.0008 27.5L84.2008 40.6H75.8008L84.3008 17.3H94.9008L97.1008 29L107.901 17.3H118.501L110.001 40.6H101.601V40.7001Z" fill="url(#paint2_linear)"/>
</g>
<defs>
<filter id="filter0_d" x="-4" y="0" width="191.7" height="55.9" filterUnits="userSpaceOnUse" color-interpolation-filters="sRGB">
<feFlood flood-opacity="0" result="BackgroundImageFix"/>
<feColorMatrix in="SourceAlpha" type="matrix" values="0 0 0 0 0 0 0 0 0 0 0 0 0 0 0 0 0 0 127 0"/>
<feOffset dy="4"/>
<feGaussianBlur stdDeviation="2"/>
<feColorMatrix type="matrix" values="0 0 0 0 0 0 0 0 0 0 0 0 0 0 0 0 0 0 0.25 0"/>
<feBlend mode="normal" in2="BackgroundImageFix" result="effect1_dropShadow"/>
<feBlend mode="normal" in="SourceGraphic" in2="effect1_dropShadow" result="shape"/>
</filter>
<linearGradient id="paint0_linear" x1="27.7004" y1="17.4" x2="27.7004" y2="40.7" gradientUnits="userSpaceOnUse">
<stop offset="0.390625" stop-color="#00D300"/>
<stop offset="1" stop-color="#2EA62E"/>
</linearGradient>
<linearGradient id="paint1_linear" x1="60.4" y1="17.3" x2="60.4" y2="40.7001" gradientUnits="userSpaceOnUse">
<stop offset="0.390625" stop-color="#00D300"/>
<stop offset="1" stop-color="#2EA62E"/>
</linearGradient>
<linearGradient id="paint2_linear" x1="97.1508" y1="17.3" x2="97.1508" y2="40.7001" gradientUnits="userSpaceOnUse">
<stop offset="0.390625" stop-color="#00D300"/>
<stop offset="1" stop-color="#2EA62E"/>
</linearGradient>
</defs>
</svg>
