<svg width="47" height="56" viewBox="0 0 47 56" fill="none" xmlns="http://www.w3.org/2000/svg">
<path d="M23.7343 23.9045C19.388 23.9045 15.794 20.3941 15.794 15.9642C15.794 11.618 19.3045 8.02393 23.7343 8.02393C28.0806 8.02393 31.6746 11.5344 31.6746 15.9642C31.591 20.3941 28.0806 23.9045 23.7343 23.9045ZM23.7343 10.4478C20.6418 10.4478 18.2179 12.9553 18.2179 15.9642C18.2179 19.0568 20.7253 21.4806 23.7343 21.4806C26.8268 21.4806 29.2507 18.9732 29.2507 15.9642C29.2507 12.9553 26.7433 10.4478 23.7343 10.4478Z" fill="#7681A0" stroke="white"/>
<path d="M23.7343 45.0508C23.4 45.0508 23.0657 44.8836 22.8985 44.7165C22.2299 44.0478 8.35522 29.1702 8.35522 15.7971C8.35522 7.35528 15.209 0.417969 23.7343 0.417969C32.2597 0.417969 39.1134 7.35528 39.1134 15.7971C39.1134 29.0866 25.1552 44.0478 24.5702 44.6329C24.3194 44.8836 24.0687 45.0508 23.7343 45.0508ZM23.7343 2.75827C16.5463 2.75827 10.6955 8.60901 10.6955 15.7971C10.6955 25.7433 19.4716 37.1105 23.2328 41.5404C23.3164 41.7075 23.4836 41.7075 23.6507 41.7075C23.8179 41.7075 23.9851 41.6239 24.0687 41.5404C27.8299 37.1105 36.606 25.7433 36.606 15.7971C36.7731 8.60901 30.9224 2.75827 23.7343 2.75827Z" fill="#7681A0" stroke="white"/>
<path d="M23.7343 50.3165C17.2149 50.3165 10.194 48.0598 10.194 43.8807C10.194 42.7942 10.7791 40.7046 14.4567 39.1165C14.6239 39.033 14.791 39.033 14.9582 39.033C15.4597 39.033 15.8776 39.2837 16.0448 39.7016C16.2119 39.9524 16.2119 40.2867 16.0448 40.621C15.9612 40.9553 15.7104 41.1225 15.4597 41.2897C13.7045 42.0419 12.6179 43.0449 12.6179 43.8807C12.6179 45.8031 17.3821 47.9762 23.7343 47.9762C30.0866 47.9762 34.8507 45.8031 34.8507 43.8807C34.8507 43.0449 33.7642 42.0419 32.009 41.2897C31.7582 41.1225 31.5075 40.9553 31.3403 40.621C31.2567 40.2867 31.2567 40.0359 31.3403 39.7016C31.5075 39.2837 31.9254 39.033 32.4269 39.033C32.594 39.033 32.7612 39.033 32.9284 39.1165C36.606 40.7046 37.191 42.7942 37.191 43.8807C37.191 48.0598 30.2537 50.3165 23.7343 50.3165Z" fill="#7681A0" stroke="white"/>
<path d="M23.7343 55.5821C11.0298 55.5821 1.41791 50.9015 1.41791 44.7164C1.41791 40.9552 5.01194 37.6955 11.197 35.6895C11.2806 35.6895 11.4478 35.606 11.5313 35.606C12.0328 35.606 12.5343 35.9403 12.6179 36.4418C12.7851 37.0269 12.4507 37.6955 11.8657 37.9463C6.76716 39.6179 3.67462 42.1254 3.67462 44.7164C3.67462 48.8119 11.6985 53.2418 23.6507 53.2418C35.603 53.2418 43.6269 48.8119 43.6269 44.7164C43.6269 42.1254 40.6179 39.6179 35.603 37.9463C35.2687 37.8627 35.1015 37.6119 34.9343 37.3612C34.7672 37.1104 34.7672 36.7761 34.8507 36.4418C35.0179 35.9403 35.4358 35.606 35.9373 35.606C36.1045 35.606 36.1881 35.606 36.3552 35.6895C42.4567 37.6955 45.9672 40.9552 45.9672 44.7164C46.0507 50.9015 36.4388 55.5821 23.7343 55.5821Z" fill="#7681A0" stroke="white"/>
</svg>
