<svg width="49" height="50" viewBox="0 0 49 50" fill="none" xmlns="http://www.w3.org/2000/svg">
<path d="M29.1774 16.1671C27.435 16.1612 25.7551 16.816 24.4761 17.9994C21.6991 15.4822 17.4239 15.6297 14.8269 18.3322C12.2299 21.0347 12.2528 25.3125 14.8785 27.9871L23.2752 36.3837C23.5949 36.7086 24.0306 36.8932 24.4864 36.8969C24.9427 36.8955 25.3792 36.7105 25.6977 36.3837L34.0686 28.0025C36.055 26.0219 36.6513 23.0391 35.579 20.4471C34.5067 17.8552 31.9774 16.1654 29.1723 16.1671H29.1774ZM32.9806 26.9144L24.6045 35.2956C24.537 35.3601 24.4307 35.3601 24.3632 35.2956L15.9717 26.9041C14.5555 25.5549 13.9815 23.5443 14.4721 21.6508C14.9626 19.7572 16.4407 18.2782 18.3339 17.7864C20.227 17.2946 22.2381 17.8672 23.5882 19.2825L23.9321 19.6264C24.2381 19.9132 24.7142 19.9132 25.0202 19.6264L25.3589 19.2876C26.7213 17.9262 28.7065 17.3949 30.5668 17.894C32.4271 18.3932 33.8798 19.8468 34.3776 21.7074C34.8755 23.568 34.343 25.5529 32.9806 26.9144ZM48.2238 22.6596C48.8838 21.747 49.12 20.595 48.8726 19.4963C48.6252 18.3976 47.9179 17.4581 46.9305 16.9164L45.8424 16.3211C44.9434 15.8279 44.4599 14.8155 44.6414 13.8062L44.8621 12.5847C44.903 12.3543 44.9237 12.1207 44.9237 11.8867C44.9237 9.79889 43.2878 8.07722 41.2027 7.97064L39.9606 7.90393C38.9368 7.85024 38.0622 7.14727 37.7896 6.15891L37.456 4.98358C37.1526 3.90321 36.4013 3.0043 35.392 2.51385C34.3826 2.02341 33.2117 1.98828 32.1748 2.41736L31.0302 2.89468C30.0847 3.29076 28.9918 3.03871 28.3152 2.26852L27.494 1.33444C26.7505 0.488406 25.6794 0.002403 24.5531 1.31371e-09C23.431 -2.89987e-05 22.3625 0.480048 21.6174 1.31903L20.7705 2.23773C20.091 3.00394 18.9977 3.24987 18.0555 2.84848L16.911 2.36606C15.8741 1.92556 14.698 1.95163 13.6817 2.43768C12.6654 2.92374 11.9068 3.82293 11.5989 4.90659L11.2602 6.10245C10.979 7.08615 10.1009 7.78034 9.07889 7.82693L7.83685 7.88852C5.74252 7.98194 4.09324 9.70815 4.09532 11.8046C4.09472 12.0316 4.11361 12.2582 4.15178 12.482L4.36734 13.7087C4.54137 14.7181 4.05188 15.726 3.15095 16.2133L2.06288 16.7881C1.06884 17.3241 0.353737 18.2622 0.100226 19.3627C-0.153284 20.4632 0.079359 21.6196 0.738723 22.5364L1.46239 23.5629C2.06112 24.3954 2.06112 25.5173 1.46239 26.3498L0.733588 27.3763C0.0877591 28.2857 -0.140791 29.4269 0.10501 30.5149C0.350811 31.6029 1.04776 32.535 2.02183 33.0784L3.1099 33.6738C4.01016 34.1659 4.49408 35.1792 4.31088 36.1887L4.09019 37.4102C4.04924 37.6406 4.02864 37.8742 4.0286 38.1082C4.02861 40.196 5.66453 41.9177 7.7496 42.0242L8.99164 42.0909C10.0141 42.1439 10.8882 42.8445 11.1627 43.8308L11.4963 45.0164C11.7997 46.0968 12.551 46.9957 13.5603 47.4861C14.5696 47.9766 15.7406 48.0117 16.7775 47.5826L17.922 47.1053C18.8676 46.7092 19.9605 46.9613 20.6371 47.7315L21.4583 48.6656C22.2018 49.5116 23.2728 49.9976 24.3992 50C25.5213 50 26.5898 49.52 27.3349 48.681L28.1612 47.752C28.8408 46.9858 29.9341 46.7398 30.8763 47.1412L32.0208 47.6237C33.0577 48.0642 34.2338 48.0381 35.2501 47.552C36.2664 47.066 37.0249 46.1668 37.3328 45.0831L37.6716 43.8873C37.9602 42.9016 38.8471 42.2112 39.8734 42.1731L41.1154 42.1166C43.2086 42.0206 44.8564 40.2959 44.857 38.2006C44.8575 37.9735 44.8386 37.7469 44.8005 37.5231L44.5798 36.2913C44.4058 35.2819 44.8953 34.274 45.7962 33.7867L46.8894 33.2119C47.8834 32.6759 48.5986 31.7378 48.8521 30.6373C49.1056 29.5368 48.8729 28.3804 48.2136 27.4636L47.4899 26.4371C46.8912 25.6046 46.8912 24.4827 47.4899 23.6502L48.2238 22.6596ZM46.9767 21.7563L46.2479 22.7828C45.2637 24.152 45.2637 25.9968 46.2479 27.3661L46.9715 28.3925C47.2613 28.7946 47.4175 29.2775 47.418 29.7731C47.4197 30.6516 46.9386 31.4599 46.1657 31.8774L45.0725 32.4677C43.5947 33.2663 42.7898 34.9175 43.0709 36.5736L43.2813 37.7951C43.3052 37.9324 43.3172 38.0715 43.3172 38.2108C43.3158 39.4831 42.3146 40.5296 41.0436 40.5872L39.8015 40.6436C38.1164 40.7227 36.6701 41.8694 36.2088 43.4921L35.8701 44.688C35.6819 45.3457 35.2205 45.891 34.603 46.1855C33.9856 46.48 33.2714 46.4953 32.6418 46.2277L31.4973 45.7452C29.9416 45.0893 28.1407 45.5028 27.027 46.7717L26.2006 47.7007C25.7471 48.2107 25.097 48.5021 24.4146 48.5013C23.7305 48.4995 23.0801 48.2042 22.6285 47.6904L21.8073 46.7563C20.6935 45.4912 18.8965 45.0781 17.3421 45.7298L16.1976 46.2072C15.5691 46.4713 14.8577 46.454 14.2428 46.1598C13.6279 45.8656 13.1682 45.3225 12.9795 44.6674L12.6459 43.4716C12.1916 41.8418 10.7432 40.6873 9.05324 40.6077L7.81119 40.541C6.54425 40.4781 5.54897 39.4331 5.5478 38.1646C5.54738 38.0219 5.5594 37.8793 5.58372 37.7386L5.80441 36.5172C6.10201 34.8584 5.30649 33.1951 3.82844 32.3856L2.76089 31.7286C2.16112 31.3992 1.73159 30.8282 1.58138 30.1606C1.43118 29.493 1.57475 28.7931 1.97563 28.2386L2.70444 27.2121C3.68864 25.8428 3.68864 23.9981 2.70444 22.6288L1.98077 21.6023C1.58331 21.0455 1.44396 20.3448 1.59808 19.6783C1.75221 19.0117 2.18499 18.4433 2.78655 18.1174L3.87976 17.5272C5.35638 16.7274 6.1609 15.0771 5.8814 13.4213L5.67097 12.1998C5.64709 12.0625 5.63507 11.9234 5.63505 11.784C5.63649 10.5117 6.63773 9.4653 7.90871 9.40771L9.15075 9.34613C10.8365 9.26863 12.2836 8.12131 12.7434 6.49765L13.0822 5.30179C13.2704 4.64408 13.7318 4.09876 14.3493 3.80426C14.9667 3.50976 15.6809 3.49438 16.3105 3.76205L17.455 4.24451C19.0107 4.90042 20.8116 4.48689 21.9253 3.21802L22.7517 2.28906C23.2043 1.77497 23.8579 1.48281 24.5429 1.4884C25.2317 1.50203 25.881 1.81266 26.3238 2.34039L27.145 3.27448C28.2579 4.54104 30.0559 4.95438 31.6102 4.30096L32.7547 3.82364C33.3832 3.55953 34.0945 3.57675 34.7095 3.87097C35.3244 4.16519 35.7841 4.70832 35.9728 5.36337L36.3064 6.55923C36.7588 8.19099 38.2076 9.34797 39.8991 9.42825L41.1411 9.49496C42.408 9.55784 43.4033 10.6028 43.4045 11.8713C43.4049 12.014 43.3929 12.1566 43.3686 12.2973L43.1479 13.5188C42.8512 15.1788 43.6462 16.8431 45.1239 17.6555L46.2119 18.2509C46.9803 18.6817 47.4496 19.5001 47.4334 20.3808C47.4299 20.8776 47.2701 21.3606 46.9767 21.7614V21.7563Z" fill="#7681A0"/>
</svg>
