<svg width="54" height="46" viewBox="0 0 54 46" fill="none" xmlns="http://www.w3.org/2000/svg">
<path d="M43.7318 22.3401C43.7318 31.3353 38.2565 39.0278 30.5177 42.1916C28.1012 43.1532 25.5012 43.7115 22.7482 43.7115C18.4965 43.7115 14.5506 42.4397 11.2471 40.2064L1 44.2388L4.97647 33.7237C2.95765 30.4048 1.76471 26.5275 1.76471 22.3401C1.76471 10.5533 11.1553 0.999756 22.7482 0.999756C31.6188 0.999756 39.2047 6.614 42.2635 14.5236C43.2118 16.943 43.7318 19.5795 43.7318 22.3401Z" stroke="#7681A0" stroke-width="1.6" stroke-miterlimit="10" stroke-linecap="round" stroke-linejoin="round"/>
<path d="M12.4094 25.2867C14.0143 25.2867 15.3153 23.9674 15.3153 22.34C15.3153 20.7126 14.0143 19.3933 12.4094 19.3933C10.8045 19.3933 9.50354 20.7126 9.50354 22.34C9.50354 23.9674 10.8045 25.2867 12.4094 25.2867Z" stroke="#7681A0" stroke-width="1.6" stroke-miterlimit="10" stroke-linecap="round" stroke-linejoin="round"/>
<path d="M22.7483 25.2867C24.3532 25.2867 25.6542 23.9674 25.6542 22.34C25.6542 20.7126 24.3532 19.3933 22.7483 19.3933C21.1434 19.3933 19.8424 20.7126 19.8424 22.34C19.8424 23.9674 21.1434 25.2867 22.7483 25.2867Z" stroke="#7681A0" stroke-width="1.6" stroke-miterlimit="10" stroke-linecap="round" stroke-linejoin="round"/>
<path d="M33.0871 25.2867C34.692 25.2867 35.993 23.9674 35.993 22.34C35.993 20.7126 34.692 19.3933 33.0871 19.3933C31.4822 19.3933 30.1812 20.7126 30.1812 22.34C30.1812 23.9674 31.4822 25.2867 33.0871 25.2867Z" stroke="#7681A0" stroke-width="1.6" stroke-miterlimit="10" stroke-linecap="round" stroke-linejoin="round"/>
<path d="M53 44.2386L45.6589 41.416C43.3036 42.9669 40.4589 43.8664 37.4306 43.8664C34.953 43.8664 32.5977 43.2771 30.5483 42.1915C38.2871 39.0586 43.7624 31.3352 43.7624 22.34C43.7624 19.5794 43.2424 16.9428 42.2942 14.5234C48.2283 16.5396 52.48 22.1849 52.48 28.7917C52.48 31.7384 51.6236 34.468 50.1859 36.7943L53 44.2386Z" stroke="#7681A0" stroke-width="1.6" stroke-miterlimit="10" stroke-linecap="round" stroke-linejoin="round"/>
</svg>
