<svg width="50" height="50" viewBox="0 0 50 50" fill="none" xmlns="http://www.w3.org/2000/svg">
<path d="M7.33952 39.0116C7.40028 39.0724 7.5218 39.0724 7.58256 39.0724C7.8256 39.0724 8.06864 38.9508 8.1294 38.7078L11.1674 31.6596C11.2889 31.6596 11.3497 31.6596 11.4712 31.6596C12.7472 31.6596 13.9624 30.9912 14.6307 29.8976L17.2434 25.6443C17.5472 25.7659 17.851 25.8266 18.1548 25.8266C18.8232 25.8266 19.4916 25.5836 20.0384 25.0367L24.96 20.1152C25.6891 19.386 25.9321 18.2924 25.5676 17.3202L29.8208 14.7075C31.036 13.9784 31.7043 12.5809 31.5828 11.2442L38.631 8.20617C38.9348 8.08465 39.0563 7.72009 38.9348 7.41629C37.7196 4.43904 35.8968 2.677 33.7702 2.43396C33.2234 2.3732 32.6158 2.43396 32.0082 2.61624L28.5448 3.64916L27.8765 2.13016C27.5727 1.40103 26.9651 0.854192 26.1144 0.42887C24.5954 -0.239492 22.8334 -0.117971 21.3144 0.732671L16.089 3.77068C15.7852 3.46688 15.4206 3.16308 14.8738 2.9808C13.2333 2.31244 11.4105 2.43396 9.83069 3.2846L9.76993 3.34536C9.58764 3.46688 9.3446 3.5884 9.16232 3.70992C9.0408 3.77068 8.98004 3.8922 8.85852 3.95296C8.737 4.07448 8.61548 4.13524 8.55472 4.196L4.30151 8.44922C4.17999 8.57074 4.11923 8.69226 3.99771 8.81378C3.93695 8.87454 3.81543 8.99606 3.75467 9.05682C3.63315 9.2391 3.51163 9.42138 3.39011 9.66442C3.39011 9.66442 3.39011 9.72518 3.32935 9.72518C2.4787 11.2442 2.29642 13.1277 3.02555 14.7683C3.26859 15.2544 3.51163 15.6797 3.81543 15.9835L0.777418 21.2089C-0.133984 22.7279 -0.255505 24.5507 0.473618 26.0089C0.898939 26.9203 1.44578 27.4672 2.1749 27.8317L3.69391 28.5001L2.66098 31.9634C2.4787 32.571 2.41794 33.1786 2.4787 33.7255C2.60022 35.9736 4.36227 37.7964 7.33952 39.0116ZM4.78759 9.90746C4.90911 9.78594 5.03063 9.66442 5.15215 9.5429L9.40536 5.28969C10.3168 4.37828 11.4712 3.95296 12.6257 3.95296C13.1117 3.95296 13.5978 4.01372 14.0231 4.196C14.6307 4.37828 14.9953 4.62132 15.2383 4.92512L15.2991 5.04664C15.2991 5.1074 15.2991 5.10741 15.3599 5.16817L20.646 12.5201L24.2309 17.5632C24.6562 18.1101 24.5954 18.9 24.0486 19.4468L19.1878 24.3076C18.7017 24.7937 17.9118 24.8545 17.3042 24.4899L12.3219 20.9658L4.90911 15.6189C4.90911 15.6189 4.84835 15.6189 4.78759 15.5582L4.66607 15.4974C4.36227 15.2544 4.11923 14.8898 3.93695 14.2822C3.45087 12.8239 3.75467 11.3049 4.66607 10.1505C4.72683 9.96822 4.78759 9.90746 4.78759 9.90746ZM32.3727 3.8922C32.8588 3.77068 33.2841 3.70992 33.6487 3.77068C35.593 3.95296 36.869 5.95805 37.5981 7.41629L31.279 10.0897L29.0309 4.86436L32.3727 3.8922ZM21.8612 1.88711C23.0156 1.21875 24.4131 1.09723 25.5676 1.64407C26.1752 1.94788 26.5397 2.25168 26.722 2.73776L30.1246 10.6366C30.6107 11.791 30.1853 13.1278 29.1524 13.7354L24.8992 16.348L16.7573 4.86436L21.8612 1.88711ZM1.50654 25.7051C0.959699 24.5507 1.08122 23.1532 1.74958 21.9987L4.72683 16.8949L16.1497 25.0367L13.5371 29.29C12.8687 30.3229 11.532 30.7482 10.4383 30.2621L2.53946 26.8596C2.1749 26.6773 1.81034 26.3127 1.50654 25.7051ZM3.75467 32.4495L4.78759 29.1077L10.013 31.3558L7.33952 37.6141C5.88127 36.9457 3.87619 35.6698 3.69391 33.6647C3.57239 33.3609 3.63315 32.9356 3.75467 32.4495ZM47.9311 22.1089L46.4121 21.4405L47.445 17.9769C47.6273 17.3692 47.6881 16.7616 47.6273 16.2147C47.3843 14.0879 45.6222 12.265 42.645 11.0497C42.3412 10.9282 41.9766 11.0497 41.8551 11.3535L38.8171 18.4022C37.4804 18.2807 36.0829 18.9491 35.3538 20.1644L32.7411 24.418C31.7689 24.0534 30.6752 24.2964 29.9461 25.0256L25.0245 29.9476C24.2954 30.6768 24.0524 31.7705 24.4169 32.7428L20.1637 35.3557C18.9485 36.0848 18.2801 37.4824 18.4017 38.8193L11.3535 41.8575C11.0497 41.979 10.9282 42.3436 11.0497 42.6474C12.2649 45.6249 14.0877 47.3871 16.2143 47.6302C16.3358 47.6302 16.4573 47.6302 16.5789 47.6302C17.0042 47.6302 17.4903 47.5694 17.9156 47.3871L21.3789 46.3541L22.0473 47.8732C22.3511 48.6024 22.9587 49.1493 23.8701 49.5746C24.5384 49.8785 25.2068 50 25.9359 50C26.8473 50 27.8195 49.7569 28.6701 49.2101L33.8955 46.1718C34.1993 46.4756 34.5639 46.7795 35.1107 46.9618C35.7791 47.2656 36.5082 47.3871 37.2373 47.3871C38.7563 47.3871 40.2753 46.7795 41.369 45.6857L45.6222 41.4321C45.7437 41.3106 45.8045 41.1891 45.926 41.1283C45.9868 41.0676 46.1083 40.946 46.1691 40.8853C46.2906 40.703 46.4121 40.5207 46.5336 40.2776C46.5336 40.2776 46.5336 40.2168 46.5944 40.2168C47.445 38.6977 47.6273 36.814 46.8982 35.1734C46.6552 34.6872 46.4121 34.2619 46.1083 33.9581L49.1463 28.7323C50.0577 27.2132 50.1792 25.3902 49.4501 23.9319C49.2071 23.0204 48.6602 22.4127 47.9311 22.1089ZM42.7665 12.4473C44.2247 13.1157 46.2298 14.3918 46.4121 16.397C46.4729 16.7616 46.4121 17.1869 46.2906 17.6731L45.2577 21.0151L40.0323 18.7668L42.7665 12.4473ZM17.6725 46.2326C17.1865 46.3541 16.7611 46.4149 16.3966 46.3541C14.4523 46.1718 13.1763 44.1666 12.4472 42.7082L18.7662 40.0346L21.0144 45.2603L17.6725 46.2326ZM28.1233 48.2378C26.9689 48.9062 25.5714 49.0278 24.4169 48.4809C23.8093 48.1771 23.4448 47.8732 23.2625 47.3871L19.8599 39.4877C19.3738 38.3331 19.7992 36.9963 20.8321 36.3887L25.0853 33.7758L33.2271 45.1996L28.1233 48.2378ZM40.6399 44.835C40.5184 44.9565 40.3969 45.078 40.2753 45.1996C40.2146 45.1996 40.2146 45.2603 40.1538 45.3211C38.9386 46.2326 37.4196 46.4756 36.0221 46.0503C35.4145 45.868 35.05 45.6249 34.8069 45.3211L34.7462 45.1996C34.7462 45.1388 34.7462 45.1388 34.6854 45.078L29.3993 37.6647L25.8144 32.6212C25.3891 32.0744 25.4498 31.2844 25.9967 30.7375L30.8575 25.8763C31.1613 25.5725 31.5259 25.451 31.8904 25.451C32.1942 25.451 32.498 25.5117 32.7411 25.694L37.6626 29.2184L45.1361 34.5657C45.1969 34.5657 45.1969 34.6265 45.2577 34.6265L45.3184 34.6872C45.6222 34.9303 45.8653 35.2949 46.0475 35.9025C46.5336 37.3609 46.2298 38.88 45.3184 40.0346C45.3184 40.0953 45.2577 40.0953 45.2577 40.1561C45.1361 40.2776 45.0146 40.3991 44.8931 40.5207L40.6399 44.835ZM48.2349 28.1246L45.2577 33.2289L33.8348 25.0256L36.4474 20.7721C37.1158 19.7391 38.4525 19.3137 39.5462 19.7998L47.445 23.2027C47.9311 23.385 48.2349 23.7496 48.5387 24.3572C49.0248 25.5117 48.964 26.9093 48.2349 28.1246Z" fill="#7681A0"/>
</svg>
