<svg width="109" height="92" viewBox="0 0 109 92" fill="none" xmlns="http://www.w3.org/2000/svg">
<path d="M64.5041 27.6375L64.4895 26.6376L64.4624 26.638L64.4354 26.6399L64.5041 27.6375ZM65.8269 27.6532L65.7875 28.6525L65.7887 28.6525L65.8269 27.6532ZM33.4116 56.8239L33.2803 57.8152L34.5152 57.9787L34.4079 56.7377L33.4116 56.8239ZM31.5641 56.8578L31.3979 55.8717L31.3978 55.8717L31.5641 56.8578ZM26.4925 63.9781L27.4785 63.8118L27.4784 63.8112L26.4925 63.9781ZM33.6272 69.0431L33.7931 70.0292L33.7935 70.0291L33.6272 69.0431ZM35.362 68.48L36.3466 68.3054L36.1131 66.9887L34.9161 67.5849L35.362 68.48ZM87.7255 58.4064L88.7116 58.2396L88.7101 58.2312L87.7255 58.4064ZM86.7313 52.8184L85.7462 52.9903L86.7313 52.8184ZM85.4428 45.2959L84.4572 45.4649L84.4572 45.4649L85.4428 45.2959ZM64.5187 28.6374C64.9511 28.6311 65.3735 28.6361 65.7875 28.6525L65.8663 26.654C65.415 26.6362 64.9565 26.6308 64.4895 26.6376L64.5187 28.6374ZM34.4079 56.7377C33.9028 50.8961 34.4732 44.4009 38.543 39.1297C42.5988 33.8768 50.305 29.618 64.5728 28.6351L64.4354 26.6399C49.8475 27.6448 41.4935 32.0358 36.96 37.9074C32.4406 43.7607 31.8926 50.8647 32.4153 56.91L34.4079 56.7377ZM31.7303 57.8439C32.2581 57.755 32.7789 57.7488 33.2803 57.8152L33.5428 55.8325C32.846 55.7402 32.1247 55.7493 31.3979 55.8717L31.7303 57.8439ZM27.4784 63.8112C27.0016 60.9937 28.9034 58.3206 31.7304 57.8439L31.3978 55.8717C27.4845 56.5317 24.8446 60.2346 25.5065 64.145L27.4784 63.8112ZM33.4614 68.0569C30.6318 68.5328 27.9543 66.6314 27.4785 63.8118L25.5064 64.1445C26.1667 68.058 29.8797 70.6874 33.7931 70.0292L33.4614 68.0569ZM34.9161 67.5849C34.4693 67.8074 33.9816 67.9692 33.4609 68.057L33.7935 70.0291C34.5106 69.9082 35.1865 69.6845 35.8078 69.3751L34.9161 67.5849ZM86.7395 58.5732C88.2247 67.352 86.1507 74.3454 82.1872 79.4153C78.2096 84.5031 72.274 87.7227 65.9373 88.8215C59.5996 89.9205 52.9221 88.8872 47.4822 85.5484C42.0627 82.2222 37.8126 76.5736 36.3466 68.3054L34.3773 68.6546C35.94 77.4679 40.514 83.6183 46.436 87.253C52.3374 90.875 59.5186 91.9644 66.279 90.7921C73.0403 89.6197 79.4419 86.1741 83.7628 80.6471C88.0978 75.102 90.2834 67.5309 88.7115 58.2396L86.7395 58.5732ZM85.7462 52.9903C85.9121 53.9414 86.0845 54.8937 86.741 58.5817L88.7101 58.2312C88.0524 54.5367 87.8816 53.5933 87.7164 52.6466L85.7462 52.9903ZM84.4572 45.4649C85.3706 50.7896 85.5547 51.8926 85.7462 52.9903L87.7164 52.6466C87.5255 51.552 87.3433 50.46 86.4284 45.1268L84.4572 45.4649ZM65.7887 28.6525C75.1365 29.01 82.8683 36.1986 84.4572 45.4649L86.4285 45.1269C84.6906 34.9918 76.2201 27.0499 65.8651 26.654L65.7887 28.6525Z" fill="#024FEB"/>
<path fill-rule="evenodd" clip-rule="evenodd" d="M71.8059 75.9756C65.2826 77.616 58.9066 74.6695 57.5627 69.3978C56.2202 64.1249 60.4187 58.5227 66.942 56.8835C73.4654 55.2431 79.8427 58.1871 81.1852 63.46C82.5278 68.733 78.3292 74.3365 71.8059 75.9756Z" fill="#024FEB" stroke="#024FEB" stroke-width="2"/>
<path fill-rule="evenodd" clip-rule="evenodd" d="M71.502 69.6677C69.0066 70.2952 66.5675 69.1681 66.0534 67.1514C65.5398 65.1343 67.1459 62.9912 69.6414 62.3641C72.1368 61.7366 74.5765 62.8628 75.09 64.8799C75.6036 66.8971 73.9975 69.0406 71.502 69.6677Z" fill="white"/>
<path fill-rule="evenodd" clip-rule="evenodd" d="M72.2324 77.4968C68.6252 78.5067 65.0995 76.6928 64.3564 73.4472C63.614 70.201 65.9357 66.7519 69.5428 65.7428C73.15 64.7329 76.6764 66.5454 77.4188 69.7916C78.1612 73.0379 75.8395 76.4877 72.2324 77.4968Z" stroke="white" stroke-width="2"/>
<path d="M91.8241 22.3566L85.3589 16.9896L93.3639 14.4353" stroke="#024FEB" stroke-width="2" stroke-linecap="round" stroke-linejoin="round"/>
<path d="M98.4679 23.648L106.473 21.0937L100.008 15.7267" stroke="#024FEB" stroke-width="2" stroke-linecap="round" stroke-linejoin="round"/>
<path d="M98.1 12.175L93.7316 25.9086" stroke="#024FEB" stroke-width="2" stroke-linecap="round" stroke-linejoin="round"/>
<path d="M10.4884 47.9264L2.2318 46.3667L7.99474 40.2518" stroke="#024FEB" stroke-width="2" stroke-linecap="round" stroke-linejoin="round"/>
<path d="M16.9253 45.835L22.6882 39.7201L14.4316 38.1604" stroke="#024FEB" stroke-width="2" stroke-linecap="round" stroke-linejoin="round"/>
<path d="M11.0414 35.9788L13.8788 50.1083" stroke="#024FEB" stroke-width="2" stroke-linecap="round" stroke-linejoin="round"/>
<path d="M39.33 11.7906L33.6747 5.57607L41.9572 4.16071" stroke="#024FEB" stroke-width="2" stroke-linecap="round" stroke-linejoin="round"/>
<path d="M45.7295 13.9942L54.012 12.5788L48.3567 6.36426" stroke="#024FEB" stroke-width="2" stroke-linecap="round" stroke-linejoin="round"/>
<path d="M46.9619 2.58164L40.7247 15.5736" stroke="#024FEB" stroke-width="2" stroke-linecap="round" stroke-linejoin="round"/>
<path d="M35.0682 16.2608L35.3552 16.6702L34.8779 15.7984L35.0682 16.2608ZM13.4582 31.4066L13.0235 31.1596L13.7452 31.8161L13.4582 31.4066ZM90.82 10.9993L90.7581 11.4954L91.0404 10.5505L90.82 10.9993ZM69.1257 8.29091L69.0936 7.79194L69.0638 8.78705L69.1257 8.29091ZM25.0176 44.5955L24.8876 44.1127L24.9385 45.0892L25.0176 44.5955ZM90.5012 26.9524L90.8343 27.3254L90.3711 26.4697L90.5012 26.9524ZM34.8779 15.7984C29.4862 18.0181 24.7859 20.5255 21.0564 23.1375C17.3338 25.7447 14.5475 28.4776 13.0235 31.1596L13.893 31.6536C15.3136 29.1534 17.9666 26.5223 21.6301 23.9566C25.2867 21.3957 29.919 18.9213 35.2586 16.7231L34.8779 15.7984ZM13.7452 31.8161L35.3552 16.6702L34.7813 15.8513L13.1713 30.9972L13.7452 31.8161ZM91.0404 10.5505C86.1518 8.14937 78.3249 7.19836 69.0936 7.79194L69.1578 8.78988C78.3277 8.20025 85.9449 9.16186 90.5996 11.4481L91.0404 10.5505ZM69.0638 8.78705L90.7581 11.4954L90.8819 10.5031L69.1876 7.79476L69.0638 8.78705ZM57.8128 41.5644C45.2328 44.701 33.4746 45.4447 25.0968 44.1018L24.9385 45.0892C33.4879 46.4596 45.3877 45.6929 58.0547 42.5347L57.8128 41.5644ZM90.1681 26.5795C83.6991 32.3574 71.9244 38.046 57.8128 41.5644L58.0547 42.5347C72.2527 38.9947 84.1993 33.2515 90.8343 27.3254L90.1681 26.5795ZM25.1477 45.0783L90.6313 27.4352L90.3711 26.4697L24.8876 44.1127L25.1477 45.0783Z" fill="#A6C3FF"/>
<path d="M84.9044 14.3163L84.819 14.8089L85.0735 13.8457L84.9044 14.3163ZM56.8574 9.45164L56.8749 8.95195L56.772 9.94429L56.8574 9.45164ZM32.3138 11.4079L32.718 11.1136L32.5259 10.8497L32.207 10.9194L32.3138 11.4079ZM41.6543 39.7432L41.5735 40.2366L41.5735 40.2366L41.6543 39.7432ZM53.8775 41.0319L53.8521 41.5313L54.898 41.5844L54.2817 40.7377L53.8775 41.0319ZM61.6624 41.1701L61.5483 40.6833L61.6702 41.6701L61.6624 41.1701ZM94.9907 33.357L95.2856 33.7608L94.8766 32.8702L94.9907 33.357ZM85.0735 13.8457C77.5556 11.1443 67.6986 9.32992 56.8749 8.95195L56.84 9.95134C67.5821 10.3265 77.3335 12.1271 84.7353 14.7868L85.0735 13.8457ZM56.772 9.94429L84.819 14.8089L84.9898 13.8236L56.9428 8.959L56.772 9.94429ZM13.8364 23.7989C13.9221 21.3445 15.6755 18.9932 18.9302 16.9175C22.1718 14.8502 26.8066 13.1227 32.4205 11.8964L32.207 10.9194C26.5288 12.1598 21.7694 13.9207 18.3925 16.0743C15.0289 18.2195 12.9398 20.8216 12.837 23.764L13.8364 23.7989ZM41.7352 39.2498C33.4123 37.8859 26.3328 35.6388 21.3792 32.8926C16.3835 30.1231 13.7263 26.9517 13.8364 23.7989L12.837 23.764C12.7055 27.5305 15.8496 30.9705 20.8944 33.7672C25.9813 36.5873 33.1814 38.8614 41.5735 40.2366L41.7352 39.2498ZM53.9028 40.5326C49.6471 40.3165 45.562 39.8769 41.7352 39.2498L41.5735 40.2366C45.4383 40.87 49.5606 41.3134 53.8521 41.5313L53.9028 40.5326ZM31.9095 11.7021L53.4732 41.3262L54.2817 40.7377L32.718 11.1136L31.9095 11.7021ZM61.6702 41.6701C69.042 41.5544 75.8542 40.7344 81.6131 39.3687C87.3643 38.0048 92.0975 36.0891 95.2856 33.7608L94.6958 32.9532C91.6581 35.1717 87.0683 37.0473 81.3824 38.3957C75.7042 39.7422 68.9651 40.5555 61.6546 40.6702L61.6702 41.6701ZM94.8766 32.8702L61.5483 40.6833L61.7765 41.6569L95.1048 33.8438L94.8766 32.8702Z" fill="#A6C3FF"/>
</svg>
