<svg width="129" height="129" viewBox="0 0 129 129" fill="none" xmlns="http://www.w3.org/2000/svg">
<mask id="mask0" mask-type="alpha" maskUnits="userSpaceOnUse" x="0" y="0" width="129" height="129">
<rect x="0.716553" y="0.0328979" width="128" height="128" fill="white"/>
</mask>
<g mask="url(#mask0)">
<path fill-rule="evenodd" clip-rule="evenodd" d="M41.1026 106.02L37.5944 100.761C62.9947 107.042 98.5737 79.2455 83.6165 57.5669C92.8538 47.7455 93.0419 33.5508 79.7822 25.7388C69.756 19.8325 86.7947 36.458 53.0999 36.622C11.0384 36.8268 8.59304 68.6244 18 86.6555C20.4076 91.2703 23.5252 94.7025 27.0966 97.1201C23.3201 109.439 36.9528 114.498 41.1026 106.02Z" fill="#024FEB" stroke="#024FEB" stroke-width="2"/>
<path fill-rule="evenodd" clip-rule="evenodd" d="M60.6815 51.0415C61.1325 51.035 61.573 51.0402 62.0043 51.0586C71.8556 51.4353 79.9568 58.9992 81.6215 68.6999C82.1117 71.5577 82.3916 73.1986 82.5752 74.2751C82.734 75.206 82.8208 75.7147 82.9093 76.2232C83.0159 76.8357 83.1251 77.4478 83.3659 78.7974C83.4981 79.5386 83.67 80.5022 83.9029 81.8105C90.0171 117.952 37.5966 126.048 31.5406 91.8838C31.0065 92.1499 30.4246 92.3427 29.8058 92.4471C26.433 93.0154 23.2378 90.7487 22.671 87.3835C22.1003 84.0182 24.3725 80.8302 27.7413 80.2618C28.1595 80.1914 28.5749 80.1645 28.9828 80.1779C31.86 80.3883 33.6168 82.148 35.0113 83.5447C36.375 84.9107 37.3922 85.9295 38.7718 84.8124C40.3971 83.498 38.7896 81.329 36.7189 78.5349C32.5162 72.8642 26.4051 64.6184 41.5343 55.7136C46.1155 53.3101 52.3255 51.6172 60.6815 51.0415Z" fill="white"/>
<path d="M62.0043 51.0586L61.9617 52.0577L61.9661 52.0579L62.0043 51.0586ZM60.6815 51.0415L60.6669 50.0416L60.6398 50.042L60.6127 50.0439L60.6815 51.0415ZM81.6215 68.6999L82.6071 68.5308L82.6071 68.5308L81.6215 68.6999ZM82.5752 74.2751L83.561 74.1069V74.1069L82.5752 74.2751ZM82.9093 76.2232L83.8945 76.0516V76.0516L82.9093 76.2232ZM83.3659 78.7974L84.3503 78.6218L83.3659 78.7974ZM83.9029 81.8105L84.8889 81.6437L84.8874 81.6352L83.9029 81.8105ZM31.5406 91.8838L32.5252 91.7093L32.2918 90.3924L31.0947 90.9887L31.5406 91.8838ZM29.8058 92.4471L29.9719 93.4332L29.9721 93.4332L29.8058 92.4471ZM22.671 87.3835L23.6571 87.2174L23.6569 87.2163L22.671 87.3835ZM27.7413 80.2618L27.5753 79.2757L27.575 79.2758L27.7413 80.2618ZM28.9828 80.1779L29.0557 79.1806L29.0357 79.1791L29.0156 79.1785L28.9828 80.1779ZM35.0113 83.5447L34.3036 84.2512H34.3036L35.0113 83.5447ZM38.7718 84.8124L38.143 84.0349L38.1425 84.0352L38.7718 84.8124ZM36.7189 78.5349L37.5223 77.9395L36.7189 78.5349ZM41.5343 55.7136L41.0697 54.8281L41.0481 54.8394L41.0271 54.8518L41.5343 55.7136ZM62.0468 50.0595C61.5947 50.0402 61.1351 50.0348 60.6669 50.0416L60.696 52.0414C61.1298 52.0351 61.5512 52.0402 61.9617 52.0577L62.0468 50.0595ZM82.6071 68.5308C80.8679 58.3958 72.3974 50.4553 62.0425 50.0593L61.9661 52.0579C71.3139 52.4153 79.0458 59.6027 80.6359 68.869L82.6071 68.5308ZM83.561 74.1069C83.3773 73.0303 83.0974 71.389 82.6071 68.5308L80.6359 68.869C81.126 71.7263 81.4059 73.3669 81.5895 74.4432L83.561 74.1069ZM83.8945 76.0516C83.8063 75.5453 83.7199 75.0385 83.561 74.1069L81.5895 74.4432C81.7481 75.3736 81.8352 75.8842 81.9241 76.3947L83.8945 76.0516ZM84.3503 78.6218C84.1094 77.2714 84.0007 76.6617 83.8945 76.0516L81.9241 76.3947C82.0312 77.0098 82.1408 77.6243 82.3814 78.973L84.3503 78.6218ZM84.8874 81.6352C84.6544 80.3267 84.4825 79.363 84.3503 78.6218L82.3814 78.973C82.5136 79.7141 82.6855 80.6776 82.9184 81.9858L84.8874 81.6352ZM30.5559 92.0584C32.1183 100.872 36.692 107.023 42.6138 110.658C48.515 114.28 55.6961 115.369 62.4564 114.197C69.2177 113.025 75.6193 109.579 79.9402 104.052C84.2752 98.5066 86.4608 90.9353 84.8889 81.6437L82.9169 81.9773C84.4021 90.7563 82.328 97.7501 78.3645 102.82C74.3869 107.908 68.4514 111.128 62.1147 112.227C55.7772 113.326 49.0998 112.292 43.66 108.953C38.2408 105.627 33.9909 99.9779 32.5252 91.7093L30.5559 92.0584ZM29.9721 93.4332C30.6892 93.3122 31.3652 93.0884 31.9865 92.7789L31.0947 90.9887C30.6478 91.2114 30.16 91.3732 29.6394 91.461L29.9721 93.4332ZM21.6849 87.5495C22.3438 91.462 26.0571 94.0928 29.9719 93.4332L29.6396 91.461C26.809 91.938 24.1317 90.0355 23.6571 87.2174L21.6849 87.5495ZM27.575 79.2758C23.6632 79.9357 21.0217 83.6387 21.6851 87.5507L23.6569 87.2163C23.179 84.3978 25.0819 81.7246 27.9077 81.2479L27.575 79.2758ZM29.0156 79.1785C28.5414 79.1629 28.0595 79.1942 27.5753 79.2757L27.9074 81.248C28.2596 81.1886 28.6083 81.1662 28.95 81.1774L29.0156 79.1785ZM35.719 82.8382C34.3391 81.4561 32.3441 79.4211 29.0557 79.1806L28.9098 81.1753C31.3759 81.3556 32.8946 82.84 34.3036 84.2512L35.719 82.8382ZM38.1425 84.0352C37.9019 84.2301 37.7479 84.2753 37.6655 84.286C37.5881 84.296 37.4841 84.2875 37.3173 84.2077C36.9101 84.0128 36.4478 83.5682 35.719 82.8382L34.3036 84.2512C34.9385 84.8872 35.6667 85.635 36.4539 86.0117C36.8842 86.2177 37.3784 86.3398 37.9224 86.2694C38.4614 86.1996 38.9519 85.9533 39.4011 85.5896L38.1425 84.0352ZM35.9154 79.1303C36.979 80.5654 37.8127 81.7006 38.2138 82.6262C38.4094 83.0774 38.4534 83.3753 38.4334 83.5652C38.4181 83.7107 38.3612 83.8584 38.143 84.0349L39.4006 85.59C39.995 85.1092 40.3467 84.4929 40.4224 83.7747C40.4934 83.1009 40.3109 82.4355 40.0489 81.8309C39.5349 80.6449 38.5295 79.2985 37.5223 77.9395L35.9154 79.1303ZM41.0271 54.8518C33.3129 59.3922 30.6939 63.9652 30.878 68.3787C31.0551 72.6245 33.8585 76.3548 35.9154 79.1303L37.5223 77.9395C35.3766 75.0443 33.0231 71.8164 32.8763 68.2954C32.7364 64.9421 34.6265 60.9398 42.0415 56.5754L41.0271 54.8518ZM60.6127 50.0439C52.1623 50.626 45.8074 52.3425 41.0697 54.8281L41.9989 56.5992C46.4237 54.2777 52.4888 52.6083 60.7502 52.0392L60.6127 50.0439Z" fill="#024FEB"/>
<path d="M27.3959 28.8782L33.5713 23.1802L25.4437 21.0483" stroke="#024FEB" stroke-width="2" stroke-linecap="round" stroke-linejoin="round"/>
<path d="M20.8289 30.5155L12.7013 28.3837L18.8767 22.6857" stroke="#024FEB" stroke-width="2" stroke-linecap="round" stroke-linejoin="round"/>
<path d="M20.5957 19.0391L25.6769 32.5252" stroke="#024FEB" stroke-width="2" stroke-linecap="round" stroke-linejoin="round"/>
<path d="M109.958 50.1561L118.122 48.1665L112.047 42.3615" stroke="#024FEB" stroke-width="2" stroke-linecap="round" stroke-linejoin="round"/>
<path d="M103.421 48.4045L97.3459 42.5995L105.51 40.6099" stroke="#024FEB" stroke-width="2" stroke-linecap="round" stroke-linejoin="round"/>
<path d="M108.781 38.2539L106.687 52.5126" stroke="#024FEB" stroke-width="2" stroke-linecap="round" stroke-linejoin="round"/>
<path d="M79.265 15.5794L84.5874 9.07741L76.2421 8.09746" stroke="#024FEB" stroke-width="2" stroke-linecap="round" stroke-linejoin="round"/>
<path d="M72.9897 18.1148L64.6445 17.1348L69.9668 10.6328" stroke="#024FEB" stroke-width="2" stroke-linecap="round" stroke-linejoin="round"/>
<path d="M71.1618 6.78243L78.0704 19.4301" stroke="#024FEB" stroke-width="2" stroke-linecap="round" stroke-linejoin="round"/>
<path d="M83.755 19.8203L83.4898 20.2443L83.9208 19.3487L83.755 19.8203ZM106.128 33.8145L106.549 33.545L105.863 34.2384L106.128 33.8145ZM27.8042 17.4839L27.892 17.9761L27.5606 17.0472L27.8042 17.4839ZM49.327 13.6438L49.333 13.1439L49.4149 14.136L49.327 13.6438ZM95.2747 47.5902L95.3793 47.1013L95.3796 48.0791L95.2747 47.5902ZM28.9575 33.3985L28.6444 33.7883L29.0621 32.9096L28.9575 33.3985ZM83.9208 19.3487C89.4213 21.2831 94.2464 23.5411 98.1075 25.9543C101.961 28.3631 104.887 30.9464 106.549 33.545L105.707 34.0839C104.157 31.6615 101.37 29.1728 97.5775 26.8023C93.7918 24.4362 89.0363 22.2077 83.5891 20.292L83.9208 19.3487ZM105.863 34.2384L83.4898 20.2443L84.0201 19.3964L106.393 33.3905L105.863 34.2384ZM27.5606 17.0472C32.3168 14.3936 40.0832 13.0342 49.333 13.1439L49.3211 14.1438C40.1329 14.0349 32.5764 15.3938 28.0478 17.9205L27.5606 17.0472ZM49.4149 14.136L27.892 17.9761L27.7164 16.9916L49.2392 13.1516L49.4149 14.136ZM62.3658 46.2797C75.0928 48.7535 86.8738 48.8809 95.1698 47.1014L95.3796 48.0791C86.9136 49.8951 74.9899 49.7523 62.175 47.2613L62.3658 46.2797ZM29.2706 33.0087C36.0331 38.4401 48.0895 43.5046 62.3658 46.2797L62.175 47.2613C47.8112 44.4692 35.5804 39.3591 28.6444 33.7883L29.2706 33.0087ZM95.1701 48.0792L28.8529 33.8874L29.0621 32.9096L95.3793 47.1013L95.1701 48.0792Z" fill="#A6C3FF"/>
<path d="M33.8853 20.4867L33.9964 20.9742L33.6918 20.0257L33.8853 20.4867ZM61.6393 14.1609L61.5957 13.6628L61.7504 14.6484L61.6393 14.1609ZM86.2517 14.8299L85.8326 14.5572L86.0106 14.2836L86.3327 14.3365L86.2517 14.8299ZM78.4068 43.6152L78.5134 44.1038L78.5134 44.1038L78.4068 43.6152ZM66.2679 45.5419L66.3193 46.0393L65.2776 46.147L65.8488 45.2692L66.2679 45.5419ZM58.5009 46.0874L58.5894 45.5953L58.5192 46.587L58.5009 46.0874ZM24.8093 40.0292L24.536 40.4479L24.8978 39.5371L24.8093 40.0292ZM33.6918 20.0257C41.058 16.9345 50.8065 14.6067 61.5957 13.6628L61.6828 14.659C50.975 15.5958 41.3312 17.9043 34.0788 20.9478L33.6918 20.0257ZM61.7504 14.6484L33.9964 20.9742L33.7742 19.9992L61.5282 13.6734L61.7504 14.6484ZM105.352 26.2369C105.138 23.7904 103.264 21.5341 99.9052 19.6315C96.5599 17.7367 91.841 16.2542 86.1707 15.3233L86.3327 14.3365C92.068 15.2781 96.9131 16.7875 100.398 18.7614C103.869 20.7276 106.092 23.2168 106.348 26.1498L105.352 26.2369ZM78.3003 43.1267C86.5404 41.3291 93.4926 38.7146 98.2956 35.7129C103.14 32.6857 105.627 29.3797 105.352 26.2369L106.348 26.1498C106.677 29.9042 103.717 33.504 98.8256 36.561C93.8933 39.6434 86.822 42.2912 78.5134 44.1038L78.3003 43.1267ZM66.2164 45.0446C70.455 44.6061 74.5115 43.9533 78.3003 43.1267L78.5134 44.1038C74.687 44.9385 70.5936 45.5971 66.3193 46.0393L66.2164 45.0446ZM86.6707 15.1026L66.687 45.8146L65.8488 45.2692L85.8326 14.5572L86.6707 15.1026ZM58.5192 46.587C51.1515 46.8573 44.3057 46.395 38.4832 45.3325C32.6685 44.2715 27.8415 42.6061 24.536 40.4479L25.0827 39.6106C28.2324 41.667 32.914 43.2998 38.6627 44.3488C44.4036 45.3963 51.176 45.8557 58.4825 45.5877L58.5192 46.587ZM24.8978 39.5371L58.5894 45.5953L58.4124 46.5795L24.7208 40.5213L24.8978 39.5371Z" fill="#A6C3FF"/>
</g>
</svg>
