<svg width="110" height="107" viewBox="0 0 110 107" fill="none" xmlns="http://www.w3.org/2000/svg">
<path d="M75.1036 43.2451L75.089 42.2452L75.0619 42.2456L75.0348 42.2475L75.1036 43.2451ZM76.4264 43.2622L76.3839 44.2613L76.3881 44.2615L76.4264 43.2622ZM44.011 72.4314L43.8798 73.4228L45.1145 73.5862L45.0073 72.3453L44.011 72.4314ZM42.1634 72.4655L41.9973 71.4793L41.9971 71.4794L42.1634 72.4655ZM37.0918 79.5871L38.0778 79.4206L38.0778 79.4203L37.0918 79.5871ZM44.2279 84.6507L44.394 85.6368L44.3942 85.6368L44.2279 84.6507ZM45.9615 84.088L46.9461 83.9134L46.7127 82.5969L45.5158 83.1929L45.9615 84.088ZM98.325 74.0141L99.311 73.8473L99.3095 73.8388L98.325 74.0141ZM97.3308 68.4268L98.3159 68.2549L97.3308 68.4268ZM96.0423 60.9035L95.0567 61.0725L95.0567 61.0726L96.0423 60.9035ZM75.1181 44.245C75.5506 44.2387 75.972 44.2438 76.3839 44.2613L76.4688 42.2631C76.0155 42.2438 75.5559 42.2384 75.089 42.2452L75.1181 44.245ZM45.0073 72.3453C44.5023 66.5038 45.0728 60.0086 49.1427 54.7374C53.1986 49.4845 60.9047 45.2256 75.1723 44.2428L75.0348 42.2475C60.4472 43.2524 52.0932 47.6434 47.5597 53.5151C43.0403 59.3684 42.4921 66.4724 43.0147 72.5176L45.0073 72.3453ZM42.3295 73.4516C42.8576 73.3626 43.3785 73.3565 43.8798 73.4228L44.1422 71.4401C43.4454 71.3479 42.7241 71.3569 41.9973 71.4793L42.3295 73.4516ZM38.0778 79.4203C37.6009 76.6014 39.504 73.9282 42.3298 73.4515L41.9971 71.4794C38.0852 72.1393 35.444 75.8422 36.1058 79.7539L38.0778 79.4203ZM44.0617 83.6646C41.2311 84.1416 38.5536 82.2391 38.0778 79.4206L36.1057 79.7535C36.7661 83.6655 40.479 86.2965 44.394 85.6368L44.0617 83.6646ZM45.5158 83.1929C45.0692 83.4152 44.5817 83.5769 44.0615 83.6646L44.3942 85.6368C45.1107 85.5159 45.7863 85.2924 46.4072 84.9832L45.5158 83.1929ZM97.339 74.1809C98.8242 82.9599 96.7501 89.9536 92.7867 95.0236C88.8091 100.112 82.8735 103.331 76.5369 104.43C70.1993 105.529 63.5218 104.496 58.0818 101.157C52.6624 97.8306 48.4123 92.1818 46.9461 83.9134L44.9768 84.2626C46.5396 93.0761 51.1137 99.2267 57.0356 102.861C62.9371 106.484 70.1183 107.573 76.8786 106.401C83.6399 105.228 90.0415 101.783 94.3623 96.2554C98.6973 90.7102 100.883 83.1388 99.311 73.8473L97.339 74.1809ZM96.3457 68.5986C96.5116 69.5499 96.684 70.5022 97.3405 74.1894L99.3095 73.8388C98.6519 70.1452 98.481 69.2017 98.3159 68.2549L96.3457 68.5986ZM95.0567 61.0726C95.9701 66.3975 96.1542 67.5007 96.3457 68.5986L98.3159 68.2549C98.125 67.1601 97.9428 66.0679 97.0279 60.7344L95.0567 61.0726ZM76.3881 44.2615C85.736 44.6189 93.4678 51.8063 95.0567 61.0725L97.0279 60.7345C95.29 50.5994 86.8194 42.6589 76.4646 42.2629L76.3881 44.2615Z" fill="#024FEB"/>
<path fill-rule="evenodd" clip-rule="evenodd" d="M94.5242 55.8561C91.6879 54.2234 55.2857 56.8051 43.8525 68.636C37.7329 58.4641 42.0051 46.645 50.7571 39.5615C53.6763 37.2003 57.0898 35.3654 60.7847 34.2918C66.3166 32.6866 73.187 32.3007 79.3645 34.5438C84.1994 36.2999 88.6097 39.6665 91.6156 45.3207C93.1343 48.1767 93.847 51.7441 94.5242 55.8561Z" fill="white"/>
<path d="M94.5242 55.8561C91.6879 54.2234 55.2857 56.8051 43.8525 68.636C37.7329 58.4641 42.0051 46.645 50.7571 39.5615C53.6763 37.2003 57.0898 35.3654 60.7847 34.2918C66.3166 32.6866 73.187 32.3007 79.3645 34.5438C84.1994 36.2999 88.6097 39.6665 91.6156 45.3207C93.1343 48.1767 93.847 51.7441 94.5242 55.8561" stroke="#024FEB" stroke-width="2"/>
<path fill-rule="evenodd" clip-rule="evenodd" d="M50.3357 63.935C77.2913 35.1884 127 35.1884 95 56.1884C77.6862 56.1884 50.3357 63.935 50.3357 63.935Z" fill="#024FEB" stroke="#024FEB" stroke-width="2"/>
<path d="M58 35.1885L56.5 29.1885" stroke="#024FEB" stroke-width="2"/>
<path d="M57.0139 27.8213C75.2602 10.8163 90.1889 23.2569 58.6726 28.6507C27.1563 34.0444 38.7676 44.8263 57.0139 27.8213Z" stroke="#024FEB" stroke-width="2" stroke-linecap="round"/>
<path d="M92.8241 22.8565L86.3589 17.4895L94.3639 14.9352" stroke="#024FEB" stroke-width="2" stroke-linecap="round" stroke-linejoin="round"/>
<path d="M99.4679 24.148L107.473 21.5937L101.008 16.2267" stroke="#024FEB" stroke-width="2" stroke-linecap="round" stroke-linejoin="round"/>
<path d="M99.1 12.675L94.7316 26.4086" stroke="#024FEB" stroke-width="2" stroke-linecap="round" stroke-linejoin="round"/>
<path d="M11.4884 48.4264L3.2318 46.8667L8.99474 40.7518" stroke="#024FEB" stroke-width="2" stroke-linecap="round" stroke-linejoin="round"/>
<path d="M17.9253 46.3349L23.6882 40.22L15.4316 38.6603" stroke="#024FEB" stroke-width="2" stroke-linecap="round" stroke-linejoin="round"/>
<path d="M12.0414 36.4788L14.8788 50.6083" stroke="#024FEB" stroke-width="2" stroke-linecap="round" stroke-linejoin="round"/>
<path d="M40.33 12.2906L34.6747 6.07607L42.9572 4.66071" stroke="#024FEB" stroke-width="2" stroke-linecap="round" stroke-linejoin="round"/>
<path d="M46.7295 14.4941L55.012 13.0787L49.3567 6.86414" stroke="#024FEB" stroke-width="2" stroke-linecap="round" stroke-linejoin="round"/>
<path d="M47.9619 3.08164L41.7247 16.0736" stroke="#024FEB" stroke-width="2" stroke-linecap="round" stroke-linejoin="round"/>
<path d="M36.0682 16.7607L36.3552 17.1701L35.8779 16.2983L36.0682 16.7607ZM14.4582 31.9065L14.0235 31.6595L14.7452 32.316L14.4582 31.9065ZM91.82 11.4992L91.7581 11.9953L92.0404 11.0504L91.82 11.4992ZM70.1257 8.79078L70.0936 8.29181L70.0638 9.28693L70.1257 8.79078ZM26.0176 45.0954L25.8876 44.6126L25.9385 45.5891L26.0176 45.0954ZM91.5012 27.4523L91.8343 27.8252L91.3711 26.9695L91.5012 27.4523ZM35.8779 16.2983C30.4862 18.518 25.7859 21.0254 22.0564 23.6374C18.3338 26.2446 15.5475 28.9774 14.0235 31.6595L14.893 32.1535C16.3136 29.6533 18.9666 27.0222 22.6301 24.4565C26.2867 21.8955 30.919 19.4212 36.2586 17.223L35.8779 16.2983ZM14.7452 32.316L36.3552 17.1701L35.7813 16.3512L14.1713 31.4971L14.7452 32.316ZM92.0404 11.0504C87.1518 8.64925 79.3249 7.69824 70.0936 8.29181L70.1578 9.28975C79.3277 8.70013 86.9449 9.66174 91.5996 11.9479L92.0404 11.0504ZM70.0638 9.28693L91.7581 11.9953L91.8819 11.003L70.1876 8.29464L70.0638 9.28693ZM58.8128 42.0643C46.2328 45.2009 34.4746 45.9446 26.0968 44.6017L25.9385 45.5891C34.4879 46.9595 46.3877 46.1928 59.0547 43.0346L58.8128 42.0643ZM91.1681 27.0794C84.6991 32.8573 72.9244 38.5459 58.8128 42.0643L59.0547 43.0346C73.2527 39.4946 85.1993 33.7514 91.8343 27.8252L91.1681 27.0794ZM26.1477 45.5782L91.6313 27.9351L91.3711 26.9695L25.8876 44.6126L26.1477 45.5782Z" fill="#A6C3FF"/>
<path d="M85.9044 14.8161L85.819 15.3088L86.0735 14.3456L85.9044 14.8161ZM57.8574 9.95152L57.8749 9.45183L57.772 10.4442L57.8574 9.95152ZM33.3138 11.9078L33.718 11.6135L33.5259 11.3496L33.207 11.4193L33.3138 11.9078ZM42.6543 40.2431L42.5735 40.7365L42.5735 40.7365L42.6543 40.2431ZM54.8775 41.5318L54.8521 42.0311L55.898 42.0842L55.2817 41.2375L54.8775 41.5318ZM62.6624 41.67L62.5483 41.1832L62.6702 42.1699L62.6624 41.67ZM95.9907 33.8569L96.2856 34.2607L95.8766 33.3701L95.9907 33.8569ZM86.0735 14.3456C78.5556 11.6442 68.6986 9.8298 57.8749 9.45183L57.84 10.4512C68.5821 10.8263 78.3335 12.627 85.7353 15.2867L86.0735 14.3456ZM57.772 10.4442L85.819 15.3088L85.9898 14.3235L57.9428 9.45888L57.772 10.4442ZM14.8364 24.2988C14.9221 21.8444 16.6755 19.4931 19.9302 17.4174C23.1718 15.3501 27.8066 13.6226 33.4205 12.3962L33.207 11.4193C27.5288 12.6597 22.7694 14.4206 19.3925 16.5742C16.0289 18.7194 13.9398 21.3215 13.837 24.2639L14.8364 24.2988ZM42.7352 39.7497C34.4123 38.3858 27.3328 36.1387 22.3792 33.3925C17.3835 30.623 14.7263 27.4516 14.8364 24.2988L13.837 24.2639C13.7055 28.0304 16.8496 31.4704 21.8944 34.2671C26.9813 37.0872 34.1814 39.3613 42.5735 40.7365L42.7352 39.7497ZM54.9028 41.0324C50.6471 40.8164 46.562 40.3768 42.7352 39.7497L42.5735 40.7365C46.4383 41.3698 50.5606 41.8133 54.8521 42.0311L54.9028 41.0324ZM32.9095 12.202L54.4732 41.826L55.2817 41.2375L33.718 11.6135L32.9095 12.202ZM62.6702 42.1699C70.042 42.0543 76.8542 41.2343 82.6131 39.8686C88.3643 38.5047 93.0975 36.5889 96.2856 34.2607L95.6958 33.4531C92.6581 35.6716 88.0683 37.5472 82.3824 38.8956C76.7042 40.2421 69.9651 41.0553 62.6546 41.1701L62.6702 42.1699ZM95.8766 33.3701L62.5483 41.1832L62.7765 42.1568L96.1048 34.3437L95.8766 33.3701Z" fill="#A6C3FF"/>
</svg>
