<svg width="204" height="34" viewBox="0 0 204 34" fill="none" xmlns="http://www.w3.org/2000/svg">
<g id="Group 2">
<path id="Combined Shape" fill-rule="evenodd" clip-rule="evenodd" d="M44.1534 -6.10352e-05C40.7673 8.34172 35.4093 8.17428 29.1054 7.9773C27.2687 7.9199 25.3518 7.86 23.3799 8.00731C21.5162 8.14648 19.7454 8.42783 18.0744 8.69333C11.8328 9.68501 6.98278 10.4556 3.87984 2.7705C-14.9758 39.6341 42.3015 41.0559 18.4282 20.1678H29.4735C8.68892 32.8845 62.9698 43.535 44.1534 -6.10352e-05ZM11.1873 17.0625C11.2989 17.0625 11.4084 17.0715 11.5151 17.0887C10.8855 16.2077 9.85431 15.6333 8.68889 15.6333C6.77175 15.6333 5.21808 17.1876 5.21808 19.1044C5.21808 21.0216 6.77175 22.5756 8.68889 22.5756C9.85438 22.5756 10.8857 22.0012 11.5152 21.1202C11.4084 21.1374 11.2989 21.1463 11.1873 21.1463C10.0597 21.1463 9.14542 20.2321 9.14542 19.1044C9.14542 17.9768 10.0597 17.0625 11.1873 17.0625ZM42.071 17.0887C41.9642 17.0715 41.8546 17.0625 41.743 17.0625C40.6154 17.0625 39.7014 17.9768 39.7014 19.1044C39.7014 20.2321 40.6154 21.1463 41.743 21.1463C41.8547 21.1463 41.9643 21.1374 42.0711 21.1201C41.4415 22.0012 40.4101 22.5756 39.2446 22.5756C37.3278 22.5756 35.7738 21.0216 35.7738 19.1044C35.7738 17.1876 37.3278 15.6333 39.2446 15.6333C40.41 15.6333 41.4414 16.2077 42.071 17.0887Z" fill="#024FEB"/>
<path id="Combined Shape_2" fill-rule="evenodd" clip-rule="evenodd" d="M65.0135 19.0546C64.9925 17.6486 64.0827 16.8216 62.9043 16.8216C61.5599 16.8216 60.6088 17.7105 60.3606 19.0546H65.0135ZM62.9662 14.8362C65.9853 14.8362 67.6397 17.0488 67.6397 19.8403C67.6397 20.1714 67.5984 20.5227 67.5565 20.8537H60.2987C60.4641 22.6941 61.87 23.6452 63.4625 23.6452C64.5378 23.6452 65.6336 23.1695 66.4816 22.4872L67.5153 24.3691C66.4404 25.3203 64.7859 25.8785 63.2762 25.8785C59.7814 25.8785 57.5897 23.3558 57.5897 20.3573C57.5897 17.1107 59.8024 14.8362 62.9662 14.8362ZM74.5056 23.6659C75.8703 23.6659 77.1524 22.6732 77.1524 20.3368C77.1524 18.703 76.3044 17.0901 74.5262 17.0901C73.0994 17.0901 71.8791 18.2688 71.8791 20.3574C71.8791 22.3631 72.9547 23.6659 74.5056 23.6659ZM74.0093 14.8362C75.188 14.8362 76.4079 15.2704 77.0906 16.2215H77.1318C77.1318 16.2215 77.0906 15.9527 77.0906 15.6014V10.9485H79.6961V25.6304H77.2349V24.7205C77.2349 24.3276 77.2762 24.0588 77.2762 24.0588H77.2349C76.6145 25.134 75.4152 25.8786 73.9061 25.8786C71.073 25.8786 69.2323 23.6247 69.2323 20.3574C69.2323 17.0076 71.2174 14.8362 74.0093 14.8362ZM82.4264 15.0843H85.0529V21.3294C85.0529 22.6115 85.3836 23.4798 86.6864 23.4798C88.589 23.4798 89.6436 21.8048 89.6436 19.9231V15.0843H92.2488V25.6303H89.7261V24.3897C89.7261 23.9968 89.7879 23.6658 89.7879 23.6658H89.7467C89.2507 24.7413 87.8857 25.8784 86.0865 25.8784C83.812 25.8784 82.4264 24.7413 82.4264 21.867V15.0843ZM100.169 14.8363C101.596 14.8363 103.209 15.3117 104.223 16.4075L103.044 18.2067C102.382 17.545 101.348 17.0692 100.315 17.0692C98.3707 17.0692 97.1091 18.5377 97.1091 20.3368C97.1091 22.115 98.3707 23.6454 100.397 23.6454C101.514 23.6454 102.713 23.0662 103.499 22.3013L104.512 24.1623C103.52 25.2169 101.865 25.8786 100.169 25.8786C96.675 25.8786 94.4417 23.4178 94.4417 20.3575C94.4417 17.359 96.675 14.8363 100.169 14.8363ZM109.807 23.8728C111.275 23.8728 112.226 22.384 112.226 21.1019V20.8124H111.771C110.448 20.8124 108.214 20.9984 108.214 22.4872C108.214 23.1901 108.752 23.8728 109.807 23.8728ZM111.75 19.0133H112.205V18.8686C112.205 17.4833 111.316 17.0076 110.22 17.0076C109.186 17.0076 108.132 17.4417 107.284 18.0206L106.312 16.1389C107.18 15.436 108.876 14.8362 110.448 14.8362C113.198 14.8362 114.831 16.3665 114.831 19.0339V25.6303H112.391V24.7411C112.391 24.3069 112.453 23.9762 112.453 23.9762H112.412C111.771 25.0927 110.51 25.8785 109.083 25.8785C107.18 25.8785 105.609 24.6379 105.609 22.7147C105.609 19.5509 109.414 19.0133 111.75 19.0133ZM118.037 17.3177H116.673V15.2292H118.1V12.2101H120.664V15.2292H123.062V17.3177H120.664V21.4327C120.664 23.1696 122.029 23.4178 122.752 23.4178C122.897 23.4178 123.021 23.4178 123.228 23.3765V25.6717C123.021 25.6926 122.773 25.7339 122.421 25.7339C120.953 25.7339 118.037 25.2994 118.037 21.7633V17.3177ZM125.192 25.6305H127.819V22.9837H125.192V25.6305ZM135.677 14.8363C137.104 14.8363 138.716 15.3117 139.73 16.4075L138.551 18.2067C137.889 17.545 136.855 17.0692 135.822 17.0692C133.878 17.0692 132.616 18.5377 132.616 20.3368C132.616 22.115 133.878 23.6454 135.904 23.6454C137.021 23.6454 138.22 23.0662 139.006 22.3013L140.02 24.1623C139.027 25.2169 137.373 25.8786 135.677 25.8786C132.182 25.8786 129.949 23.4178 129.949 20.3575C129.949 17.359 132.182 14.8363 135.677 14.8363ZM146.844 23.6452C148.561 23.6452 149.987 22.3218 149.987 20.3574C149.987 18.4135 148.561 17.0695 146.844 17.0695C145.128 17.0695 143.722 18.4135 143.722 20.3574C143.722 22.3218 145.128 23.6452 146.844 23.6452ZM146.823 14.8362C150.049 14.8362 152.634 17.1314 152.634 20.3574C152.634 23.604 150.049 25.8785 146.844 25.8785C143.639 25.8785 141.054 23.604 141.054 20.3574C141.054 17.1314 143.639 14.8362 146.823 14.8362ZM154.703 15.0843H157.329V21.3294C157.329 22.6115 157.66 23.4798 158.963 23.4798C160.866 23.4798 161.92 21.8048 161.92 19.9231V15.0843H164.525V25.6303H162.003V24.3897C162.003 23.9968 162.065 23.6658 162.065 23.6658H162.023C161.527 24.7413 160.162 25.8784 158.363 25.8784C156.089 25.8784 154.703 24.7413 154.703 21.867V15.0843ZM167.359 15.0843H169.882V16.9453C169.882 17.3385 169.841 17.6692 169.841 17.6692H169.882C170.357 16.1805 171.64 14.9396 173.232 14.9396C173.397 14.9396 173.563 14.9602 173.728 14.9808V17.5657C173.625 17.5451 173.314 17.5245 173.087 17.5245C170.937 17.5245 169.986 19.3855 169.986 21.3706V25.6303H167.359V15.0843ZM175.879 22.5906C176.665 23.3145 177.823 23.7487 178.878 23.7487C179.808 23.7487 180.346 23.3558 180.346 22.6941C180.346 21.0397 175.114 21.4535 175.114 18C175.114 15.9323 176.934 14.8362 179.146 14.8362C180.408 14.8362 181.731 15.1878 182.703 16.0355L181.731 17.8759C181.111 17.3383 179.994 16.966 179.064 16.966C178.154 16.966 177.595 17.3176 177.595 17.9793C177.595 19.6544 182.827 19.1786 182.827 22.6322C182.827 24.4929 181.256 25.8785 178.836 25.8785C177.368 25.8785 175.797 25.3821 174.701 24.3275L175.879 22.5906ZM191.782 19.0546C191.761 17.6486 190.851 16.8216 189.672 16.8216C188.328 16.8216 187.377 17.7105 187.129 19.0546H191.782ZM189.734 14.8362C192.753 14.8362 194.408 17.0488 194.408 19.8403C194.408 20.1714 194.367 20.5227 194.325 20.8537H187.067C187.232 22.6941 188.638 23.6452 190.231 23.6452C191.306 23.6452 192.402 23.1695 193.25 22.4872L194.283 24.3691C193.209 25.3203 191.554 25.8785 190.044 25.8785C186.55 25.8785 184.358 23.3558 184.358 20.3573C184.358 17.1107 186.571 14.8362 189.734 14.8362ZM196.931 22.5906C197.717 23.3145 198.875 23.7487 199.93 23.7487C200.86 23.7487 201.398 23.3558 201.398 22.6941C201.398 21.0397 196.166 21.4535 196.166 18C196.166 15.9323 197.986 14.8362 200.198 14.8362C201.46 14.8362 202.783 15.1878 203.755 16.0355L202.783 17.8759C202.163 17.3383 201.046 16.966 200.116 16.966C199.206 16.966 198.647 17.3176 198.647 17.9793C198.647 19.6544 203.879 19.1786 203.879 22.6322C203.879 24.4929 202.308 25.8785 199.888 25.8785C198.42 25.8785 196.849 25.3821 195.753 24.3275L196.931 22.5906Z" fill="black"/>
</g>
</svg>
