<svg width="301" height="456" viewBox="0 0 301 456" fill="none" xmlns="http://www.w3.org/2000/svg">
<g id="Group">
<mask id="mask0" mask-type="alpha" maskUnits="userSpaceOnUse" x="0" y="0" width="301" height="456">
<rect id="Mask" width="301" height="456" fill="white"/>
</mask>
<g mask="url(#mask0)">
<g id="Group_2">
<path id="Fill 1" fill-rule="evenodd" clip-rule="evenodd" d="M186.278 128.402C186.278 148.267 170.175 164.37 150.31 164.37C130.446 164.37 114.342 148.267 114.342 128.402C114.342 108.538 130.446 92.4335 150.31 92.4335C170.175 92.4335 186.278 108.538 186.278 128.402Z" fill="#024FEB"/>
<path id="Stroke 3" d="M150.302 25.6041C127.493 25.6041 45.3152 156.266 127.163 353.81" stroke="#024FEB" stroke-width="3" stroke-linecap="round"/>
<path id="Stroke 5" d="M150.302 25.6041C173.111 25.6041 255.476 155.815 173.626 353.358" stroke="#024FEB" stroke-width="3" stroke-linecap="round"/>
<path id="Stroke 7" d="M99.4615 265.096L64.0568 300.501C60.565 303.994 58.6025 308.727 58.6025 313.666V331.616C58.6025 333.395 60.419 334.597 62.0568 333.902L111.917 312.72" stroke="#024FEB" stroke-width="3" stroke-linecap="round"/>
<path id="Stroke 9" d="M62.812 326.752L110.219 306.611" stroke="#024FEB" stroke-width="2" stroke-linecap="round"/>
<path id="Stroke 11" d="M201.154 265.096L236.559 300.501C240.052 303.994 242.013 308.727 242.013 313.666V331.616C242.013 333.395 240.197 334.597 238.559 333.902L188.7 312.72" stroke="#024FEB" stroke-width="3" stroke-linecap="round"/>
<path id="Stroke 13" d="M237.643 326.752L190.413 306.687" stroke="#024FEB" stroke-width="2" stroke-linecap="round"/>
<path id="Stroke 15" fill-rule="evenodd" clip-rule="evenodd" d="M173.806 352.277C173.806 357.095 163.282 361.001 150.302 361.001C137.321 361.001 126.799 357.095 126.799 352.277C126.799 347.459 137.321 343.553 150.302 343.553C163.282 343.553 173.806 347.459 173.806 352.277Z" stroke="#024FEB" stroke-width="3" stroke-linecap="round"/>
<path id="Fill 17" fill-rule="evenodd" clip-rule="evenodd" d="M165.291 349.117C165.291 352.19 158.579 354.68 150.302 354.68C142.025 354.68 135.313 352.19 135.313 349.117C135.313 346.044 142.025 343.554 150.302 343.554C158.579 343.554 165.291 346.044 165.291 349.117Z" fill="#024FEB"/>
<path id="Stroke 19" d="M120.329 336.466C118.119 330.669 133.587 325.233 150.302 325.233C167.017 325.233 182.504 330.669 180.292 336.466" stroke="#024FEB" stroke-width="3" stroke-linecap="round"/>
<path id="Stroke 21" fill-rule="evenodd" clip-rule="evenodd" d="M157.797 274.817C157.797 295.462 154.442 312.199 150.302 312.199C146.162 312.199 142.808 295.462 142.808 274.817C142.808 254.172 146.162 237.436 150.302 237.436C154.442 237.436 157.797 254.172 157.797 274.817Z" stroke="#024FEB" stroke-width="3" stroke-linecap="round"/>
<path id="Fill 23" fill-rule="evenodd" clip-rule="evenodd" d="M165.601 362.754C165.601 370.072 158.755 431.014 150.31 431.014C141.866 431.014 135.021 370.072 135.021 362.754C135.021 355.435 141.866 349.502 150.31 349.502C158.755 349.502 165.601 355.435 165.601 362.754Z" fill="#FF0F53"/>
<path id="Fill 26" fill-rule="evenodd" clip-rule="evenodd" d="M159.256 361.194C159.256 366.134 155.251 406.544 150.31 406.544C145.37 406.544 141.365 366.134 141.365 361.194C141.365 356.252 145.37 352.249 150.31 352.249C155.251 352.249 159.256 356.252 159.256 361.194Z" fill="#FFFC42"/>
<path id="Fill 28" fill-rule="evenodd" clip-rule="evenodd" d="M174.751 109.462C169.424 122.588 160.09 118.422 149.44 119.218C138.688 120.022 130.474 124.708 125.681 112.838C102.708 157.753 172.495 159.485 143.408 134.034H156.866C131.541 149.529 197.678 162.506 174.751 109.462Z" fill="white"/>
<path id="Fill 30" fill-rule="evenodd" clip-rule="evenodd" d="M135.77 132.739C135.77 135.075 133.878 136.969 131.541 136.969C129.206 136.969 127.312 135.075 127.312 132.739C127.312 130.404 129.206 128.51 131.541 128.51C133.878 128.51 135.77 130.404 135.77 132.739Z" fill="#024FEB"/>
<path id="Fill 32" fill-rule="evenodd" clip-rule="evenodd" d="M173 132.739C173 135.075 171.107 136.969 168.77 136.969C166.436 136.969 164.541 135.075 164.541 132.739C164.541 130.404 166.436 128.51 168.77 128.51C171.107 128.51 173 130.404 173 132.739Z" fill="#024FEB"/>
<path id="Fill 34" fill-rule="evenodd" clip-rule="evenodd" d="M134.184 129.998C134.184 131.371 133.07 132.485 131.695 132.485C130.322 132.485 129.208 131.371 129.208 129.998C129.208 128.623 130.322 127.509 131.695 127.509C133.07 127.509 134.184 128.623 134.184 129.998Z" fill="white"/>
<path id="Fill 36" fill-rule="evenodd" clip-rule="evenodd" d="M171.413 129.998C171.413 131.371 170.299 132.485 168.924 132.485C167.552 132.485 166.438 131.371 166.438 129.998C166.438 128.623 167.552 127.509 168.924 127.509C170.299 127.509 171.413 128.623 171.413 129.998Z" fill="white"/>
<path id="Fill 38" fill-rule="evenodd" clip-rule="evenodd" d="M117.935 186.085C120.084 185.546 121.163 185.3 123.329 184.852C123.507 185.719 123.597 186.152 123.778 187.019C121.647 187.461 120.585 187.703 118.472 188.232L118.79 189.504C121.428 188.845 122.752 188.549 125.412 188.027C125.589 188.928 125.677 189.378 125.855 190.279C122.132 191.01 120.28 191.443 116.606 192.448C115.625 188.861 115.135 187.067 114.152 183.479C118.101 182.4 120.092 181.934 124.091 181.149L124.533 183.4C121.767 183.942 120.388 184.249 117.647 184.936C117.762 185.395 117.819 185.625 117.935 186.085Z" fill="#024FEB"/>
<path id="Fill 40" fill-rule="evenodd" clip-rule="evenodd" d="M137.941 183.815C137.941 183.804 137.94 183.798 137.939 183.789C137.941 183.807 137.943 183.816 137.944 183.836C137.944 183.827 137.943 183.822 137.941 183.815ZM133.931 182.472C133.391 182.177 132.621 182.095 131.622 182.238C130.568 182.387 130.041 182.467 128.989 182.637C129.286 184.47 129.433 185.387 129.73 187.22C130.712 187.061 131.202 186.986 132.184 186.847C134.165 186.563 135.074 185.682 134.889 184.151C134.79 183.33 134.469 182.766 133.931 182.472ZM136.942 181.334C137.51 181.973 137.846 182.807 137.941 183.815C138.083 185.284 137.678 186.481 136.78 187.392C135.883 188.305 134.474 188.872 132.534 189.149C130.417 189.45 129.362 189.623 127.256 190.012C126.58 186.355 126.244 184.526 125.566 180.868C127.862 180.444 129.015 180.256 131.324 179.929C132.575 179.751 133.687 179.785 134.648 180.019C135.608 180.253 136.375 180.696 136.942 181.334Z" fill="#024FEB"/>
<path id="Fill 42" fill-rule="evenodd" clip-rule="evenodd" d="M149.101 186.762C148.202 187.584 146.844 188.014 145.003 188.096C143.184 188.178 141.802 187.882 140.832 187.164C139.865 186.446 139.303 185.348 139.171 183.85C139.006 181.942 138.921 180.987 138.756 179.078C140.078 178.963 140.74 178.913 142.067 178.829C142.189 180.771 142.25 181.741 142.373 183.683C142.418 184.377 142.641 184.9 143.042 185.251C143.444 185.604 144.064 185.754 144.912 185.716C145.721 185.681 146.315 185.464 146.699 185.059C147.082 184.655 147.266 184.106 147.248 183.412C147.198 181.488 147.171 180.526 147.119 178.602C148.449 178.566 149.114 178.557 150.444 178.553C150.449 180.467 150.451 181.424 150.458 183.337C150.462 184.803 150.001 185.942 149.101 186.762Z" fill="#024FEB"/>
<path id="Fill 44" fill-rule="evenodd" clip-rule="evenodd" d="M151.704 183.474V183.48V183.467V183.474ZM160.172 188.074C159.361 188.158 158.532 188.179 157.684 188.133C156.505 188.071 155.473 187.872 154.579 187.526C153.686 187.178 152.983 186.671 152.47 185.994C151.957 185.317 151.698 184.479 151.704 183.474C151.712 182.447 151.976 181.557 152.509 180.81C153.042 180.063 153.813 179.496 154.816 179.118C155.821 178.741 157.011 178.582 158.374 178.656C160.008 178.745 161.518 178.982 162.892 179.353C162.461 180.372 162.248 180.883 161.832 181.905C161.323 181.665 160.771 181.478 160.18 181.345C159.589 181.212 158.93 181.126 158.208 181.087C157.11 181.027 156.261 181.2 155.664 181.592C155.068 181.984 154.763 182.58 154.74 183.374C154.718 184.108 154.997 184.666 155.567 185.053C156.136 185.439 156.935 185.654 157.971 185.71C158.629 185.745 159.276 185.703 159.914 185.584C160.551 185.463 161.089 185.307 161.523 185.113C161.801 186.138 161.937 186.649 162.2 187.674C161.658 187.856 160.982 187.988 160.172 188.074Z" fill="#024FEB"/>
<path id="Fill 46" fill-rule="evenodd" clip-rule="evenodd" d="M169.915 182.022C169.068 183.231 168.652 183.839 167.837 185.062C169.112 185.226 169.75 185.316 171.022 185.51C170.594 184.113 170.374 183.416 169.915 182.022ZM166.54 187.037C166.118 187.693 165.908 188.023 165.494 188.683C164.286 188.545 163.681 188.484 162.47 188.374C164.692 184.84 165.868 183.095 168.354 179.661C169.836 179.849 170.575 179.954 172.052 180.182C173.457 184.162 174.092 186.162 175.224 190.166C174.027 189.936 173.427 189.828 172.225 189.628C172.016 188.881 171.909 188.507 171.692 187.76C169.636 187.43 168.605 187.285 166.54 187.037Z" fill="#024FEB"/>
<path id="Fill 48" fill-rule="evenodd" clip-rule="evenodd" d="M182.877 184.683C182.223 187.396 181.897 188.753 181.241 191.466C180.079 191.186 179.496 191.052 178.33 190.799C178.923 188.072 179.217 186.708 179.81 183.981C178.187 183.628 177.373 183.465 175.744 183.164C175.913 182.25 175.998 181.794 176.166 180.881C180.737 181.727 183.008 182.247 187.513 183.479L186.9 185.719C185.295 185.279 184.49 185.073 182.877 184.683Z" fill="#024FEB"/>
</g>
</g>
</g>
</svg>
