<svg width="38" height="39" fill="none" xmlns="http://www.w3.org/2000/svg"><path d="M33.023 31.371c-15.73 7.486-25.492 1.223-31.74-2.581-.387-.24-1.044.056-.474.71 2.082 2.525 8.904 8.61 17.81 8.61 8.911 0 14.212-4.863 14.876-5.712.658-.84.193-1.305-.473-1.027zm4.417-2.44c-.422-.55-2.568-.652-3.919-.486-1.353.161-3.383.988-3.207 1.484.091.186.276.103 1.205.02.932-.094 3.542-.423 4.086.288.547.716-.832 4.126-1.084 4.676-.244.55.093.692.55.326.45-.366 1.267-1.315 1.814-2.657.544-1.349.876-3.231.555-3.65z" fill="#F90"/><path fill-rule="evenodd" clip-rule="evenodd" d="M22.447 16.096c0 1.965.05 3.603-.943 5.347-.801 1.418-2.07 2.29-3.489 2.29-1.936 0-3.063-1.474-3.063-3.651 0-4.298 3.85-5.078 7.495-5.078v1.092zm5.084 12.29c-.333.297-.815.318-1.191.12-1.674-1.39-1.971-2.035-2.893-3.361-2.766 2.822-4.723 3.666-8.31 3.666-4.241 0-7.546-2.617-7.546-7.857 0-4.092 2.22-6.878 5.375-8.24 2.738-1.205 6.56-1.418 9.481-1.751v-.653c0-1.198.092-2.616-.61-3.651-.617-.93-1.794-1.312-2.83-1.312-1.92 0-3.637.985-4.055 3.027-.085.454-.418.901-.872.922l-4.893-.524c-.411-.093-.865-.426-.752-1.057C9.563 1.787 14.916 0 19.71 0c2.453 0 5.658.652 7.594 2.51 2.454 2.29 2.22 5.347 2.22 8.672v7.857c0 2.362.978 3.397 1.9 4.673.326.454.397 1-.014 1.34a212.915 212.915 0 00-3.865 3.347l-.014-.014" fill="#fff"/><path d="M33.023 31.371c-15.73 7.486-25.492 1.223-31.74-2.581-.387-.24-1.044.056-.474.71 2.082 2.525 8.904 8.61 17.81 8.61 8.911 0 14.212-4.863 14.876-5.712.658-.84.193-1.305-.473-1.027zm4.417-2.44c-.422-.55-2.568-.652-3.919-.486-1.353.161-3.383.988-3.207 1.484.091.186.276.103 1.205.02.932-.094 3.542-.423 4.086.288.547.716-.832 4.126-1.084 4.676-.244.55.093.692.55.326.45-.366 1.267-1.315 1.814-2.657.544-1.349.876-3.231.555-3.65z" fill="#fff"/><path fill-rule="evenodd" clip-rule="evenodd" d="M22.447 16.096c0 1.965.05 3.603-.943 5.347-.801 1.418-2.07 2.29-3.489 2.29-1.936 0-3.063-1.474-3.063-3.651 0-4.298 3.85-5.078 7.495-5.078v1.092zm5.084 12.29c-.333.297-.815.318-1.191.12-1.674-1.39-1.971-2.035-2.893-3.361-2.766 2.822-4.723 3.666-8.31 3.666-4.241 0-7.546-2.617-7.546-7.857 0-4.092 2.22-6.878 5.375-8.24 2.738-1.205 6.56-1.418 9.481-1.751v-.653c0-1.198.092-2.616-.61-3.651-.617-.93-1.794-1.312-2.83-1.312-1.92 0-3.637.985-4.055 3.027-.085.454-.418.901-.872.922l-4.893-.524c-.411-.093-.865-.426-.752-1.057C9.563 1.787 14.916 0 19.71 0c2.453 0 5.658.652 7.594 2.51 2.454 2.29 2.22 5.347 2.22 8.672v7.857c0 2.362.978 3.397 1.9 4.673.326.454.397 1-.014 1.34a212.915 212.915 0 00-3.865 3.347l-.014-.014" fill="#000"/></svg>