<svg width="114" height="31" fill="none" xmlns="http://www.w3.org/2000/svg"><path d="M17.891 14.018c0-3.292 2.776-4.885 2.883-4.991-1.601-2.23-3.95-2.549-4.805-2.655-2.028-.213-4.057 1.168-5.018 1.168-1.068 0-2.67-1.168-4.378-1.168-2.242 0-4.271 1.274-5.445 3.292-2.35 4.036-.641 9.983 1.601 13.275 1.175 1.593 2.456 3.398 4.164 3.292 1.709-.106 2.35-1.062 4.378-1.062 2.029 0 2.563 1.062 4.378 1.062s2.99-1.593 4.057-3.186c1.282-1.805 1.816-3.61 1.816-3.717-.107-.106-3.63-1.38-3.63-5.31zm-3.31-9.77C15.435 3.08 16.076 1.593 15.969 0c-1.281.106-2.99.85-3.844 2.018-.854.956-1.601 2.549-1.388 4.035 1.388.106 2.883-.743 3.844-1.805zm27.655 21.77h-2.349l-1.281-4.035H34.12l-1.174 4.035h-2.243l4.485-13.7h2.776l4.271 13.7zm-4.057-5.734l-1.175-3.611c-.107-.319-.32-1.274-.747-2.549a28.75 28.75 0 01-.641 2.549l-1.175 3.61h3.738zm15.482.743c0 1.7-.427 2.974-1.388 4.036-.854.85-1.815 1.274-3.097 1.274-1.28 0-2.242-.424-2.776-1.38v5.203h-2.242V19.54c0-1.061 0-2.123-.107-3.291h1.922l.107 1.593c.747-1.169 1.815-1.806 3.31-1.806 1.175 0 2.136.425 2.883 1.38.96.85 1.388 2.018 1.388 3.611zm-2.242 0c0-.955-.214-1.805-.64-2.336-.428-.637-1.069-.956-1.923-.956-.534 0-1.068.213-1.495.531-.427.319-.747.85-.854 1.38-.107.32-.107.532-.107.638v1.7c0 .743.214 1.274.641 1.805.427.53 1.068.743 1.708.743.855 0 1.495-.319 1.922-.956.534-.637.748-1.487.748-2.549zm13.667 0c0 1.7-.427 2.974-1.388 4.036-.854.85-1.815 1.274-3.096 1.274-1.282 0-2.243-.424-2.777-1.38v5.203h-2.242V19.54c0-1.061 0-2.123-.107-3.291h1.922l.107 1.593c.747-1.169 1.815-1.806 3.31-1.806 1.175 0 2.136.425 2.883 1.38.961.85 1.388 2.018 1.388 3.611zm-2.242 0c0-.955-.214-1.805-.64-2.336-.428-.637-1.069-.956-1.923-.956-.534 0-1.067.213-1.495.531-.427.319-.747.85-.854 1.38-.107.32-.107.532-.107.638v1.7c0 .743.214 1.274.641 1.805.427.53 1.068.743 1.709.743.854 0 1.494-.319 1.922-.956.533-.637.747-1.487.747-2.549zm15.055 1.168c0 1.169-.427 2.125-1.175 2.868-.854.85-2.135 1.168-3.737 1.168-1.495 0-2.67-.319-3.523-.85l.534-1.805c.96.531 2.028.85 3.203.85.854 0 1.495-.213 1.922-.531.427-.425.64-.85.64-1.487 0-.531-.213-1.062-.534-1.38-.427-.425-1.067-.744-1.921-1.063-2.456-.85-3.63-2.23-3.63-3.929 0-1.168.426-2.018 1.28-2.761.855-.744 1.922-1.062 3.417-1.062 1.282 0 2.243.212 3.097.637l-.534 1.805c-.748-.424-1.602-.637-2.67-.637-.747 0-1.388.213-1.815.531-.32.319-.534.744-.534 1.275 0 .53.214.955.641 1.38.32.319 1.068.637 2.029 1.062a7.208 7.208 0 012.67 1.7c.32.53.64 1.274.64 2.23zm7.261-4.354h-2.456v4.78c0 1.167.427 1.805 1.281 1.805.427 0 .748 0 .961-.107l.107 1.7c-.427.212-.961.212-1.709.212-.854 0-1.601-.213-2.028-.744-.534-.53-.748-1.38-.748-2.654V17.84h-1.495v-1.699h1.495v-1.805l2.136-.637v2.442h2.456v1.7zm10.998 3.186c0 1.487-.427 2.761-1.282 3.717-.96.956-2.135 1.487-3.63 1.487s-2.67-.531-3.523-1.487c-.855-.956-1.282-2.124-1.282-3.61 0-1.487.427-2.762 1.388-3.718.855-.955 2.136-1.486 3.63-1.486 1.495 0 2.67.53 3.524 1.486.748.956 1.175 2.124 1.175 3.611zm-2.35.106c0-.955-.213-1.699-.64-2.336a2.292 2.292 0 00-2.029-1.168c-.854 0-1.601.425-2.028 1.168-.428.637-.641 1.487-.641 2.336 0 .956.213 1.7.64 2.337a2.292 2.292 0 002.03 1.168c.853 0 1.494-.425 2.028-1.168.427-.637.64-1.487.64-2.337zm9.504-3.08c-.214 0-.427-.106-.748-.106-.747 0-1.388.319-1.815.85a3.656 3.656 0 00-.534 1.911v5.204h-2.242v-6.797c0-1.168 0-2.124-.107-3.08h1.922l.107 1.912h.107c.213-.637.641-1.168 1.068-1.593.533-.318 1.067-.53 1.601-.53h.534l.107 2.23zm9.823 2.549c0 .425 0 .744-.107.956h-6.62c0 .956.321 1.7.961 2.23a3.453 3.453 0 002.136.744c.961 0 1.922-.107 2.669-.425l.321 1.487c-.961.424-2.029.637-3.31.637-1.495 0-2.777-.425-3.631-1.38-.854-.85-1.281-2.125-1.281-3.611 0-1.487.427-2.762 1.174-3.717.855-1.062 2.029-1.593 3.524-1.593 1.388 0 2.563.53 3.203 1.593.748.85.961 1.911.961 3.08zm-2.028-.53c0-.638-.107-1.169-.428-1.7-.427-.637-.961-.956-1.708-.956s-1.281.32-1.708.85c-.321.425-.534 1.062-.641 1.7h4.485v.105zM37.538 3.93c0 1.168-.32 2.123-1.068 2.76-.64.531-1.601.85-2.883.85-.64 0-1.174 0-1.601-.106V.85C32.52.743 33.16.743 33.908.743c1.174 0 2.029.213 2.67.744.533.53.96 1.38.96 2.442zm-1.174 0c0-.744-.214-1.381-.641-1.806-.427-.425-1.068-.637-1.815-.637-.32 0-.64 0-.854.106v4.991h.747c.854 0 1.495-.212 1.922-.637.427-.425.64-1.168.64-2.018zm7.153 1.061c0 .744-.213 1.381-.64 1.806-.427.53-1.068.743-1.816.743-.747 0-1.28-.212-1.708-.743-.427-.425-.64-1.062-.64-1.806 0-.743.213-1.38.64-1.805.427-.531 1.068-.743 1.815-.743.748 0 1.282.212 1.709.743.427.425.64 1.062.64 1.805zm-1.067 0c0-.424-.107-.85-.32-1.168-.214-.425-.535-.53-.962-.53-.427 0-.747.212-.96.53-.214.319-.321.744-.321 1.168 0 .425.107.85.32 1.169.214.424.534.53.961.53.427 0 .748-.212.961-.637.214-.212.32-.637.32-1.062zm9.289-2.442l-1.495 4.885h-.96l-.642-2.124c-.213-.531-.32-1.062-.427-1.593-.106.53-.213 1.062-.427 1.593l-.64 2.124h-.961l-1.602-4.885h1.068l.534 2.336.32 1.593c.107-.425.214-.956.427-1.593l.64-2.336h.855l.64 2.23c.214.53.321 1.062.428 1.593l.32-1.593.64-2.23h1.282zm5.552 4.885h-1.067V4.673c0-.85-.32-1.274-.961-1.274-.32 0-.534.106-.748.318-.213.213-.32.531-.32.85v2.867h-1.068V2.55h.961v.742c.107-.212.32-.424.534-.637.32-.212.64-.318.961-.318.427 0 .854.106 1.175.424.427.32.533.85.533 1.593v3.08zm2.99 0h-1.067V.32h1.067v7.115zm6.407-2.443c0 .744-.214 1.381-.64 1.806-.428.53-1.069.743-1.816.743-.748 0-1.281-.212-1.708-.743-.428-.425-.641-1.062-.641-1.806 0-.743.213-1.38.64-1.805a2.583 2.583 0 011.816-.743c.747 0 1.281.212 1.708.743.427.425.64 1.062.64 1.805zm-1.068 0c0-.424-.107-.85-.32-1.168-.214-.425-.534-.53-.961-.53-.427 0-.748.212-.961.53-.214.319-.32.744-.32 1.168 0 .425.106.85.32 1.169.213.424.534.53.96.53.428 0 .748-.212.962-.637.213-.212.32-.637.32-1.062zm6.3 2.443h-.961l-.107-.531c-.32.425-.854.637-1.388.637-.427 0-.854-.106-1.068-.425-.213-.318-.427-.637-.427-.955 0-.638.214-1.062.748-1.381.534-.319 1.174-.425 2.135-.425v-.106c0-.637-.32-.956-.96-.956-.535 0-.855.106-1.282.319l-.214-.744c.427-.318.961-.424 1.709-.424 1.281 0 1.922.637 1.922 2.017v1.806c-.107.53-.107.85-.107 1.168zm-1.068-1.7v-.743c-1.174 0-1.815.319-1.815.956 0 .213.107.425.214.531.106.106.32.213.533.213.214 0 .427-.107.641-.213.214-.106.32-.318.427-.53v-.213zm7.26 1.7h-.96V6.69c-.321.638-.855.85-1.602.85-.641 0-1.068-.212-1.495-.637-.427-.425-.534-1.062-.534-1.805 0-.744.213-1.381.64-1.912a2.114 2.114 0 011.495-.637c.641 0 1.068.212 1.388.637V.425h1.068v7.009zm-1.067-2.018V4.248c-.107-.212-.214-.425-.428-.637-.213-.213-.427-.213-.747-.213-.427 0-.748.213-.961.531-.214.319-.32.744-.32 1.275 0 .53.106.85.32 1.168.213.318.534.53.96.53.321 0 .642-.105.855-.424.214-.425.32-.743.32-1.062zm10.357-.425c0 .744-.214 1.381-.641 1.806-.427.53-1.068.743-1.815.743-.748 0-1.281-.212-1.709-.743-.427-.425-.64-1.062-.64-1.806 0-.743.213-1.38.64-1.805.428-.531 1.068-.743 1.816-.743.747 0 1.28.212 1.708.743.427.425.64 1.062.64 1.805zm-1.175 0c0-.424-.107-.85-.32-1.168-.214-.425-.534-.53-.961-.53-.427 0-.748.212-.961.53-.214.319-.32.744-.32 1.168 0 .425.106.85.32 1.169.213.424.534.53.96.53.428 0 .748-.212.962-.637.213-.212.32-.637.32-1.062zm7.048 2.443h-1.068V4.673c0-.85-.32-1.274-.96-1.274-.321 0-.535.106-.748.318-.214.213-.32.531-.32.85v2.867H89.11V2.55h.96v.742c.107-.212.32-.424.535-.637.32-.212.64-.318.96-.318.427 0 .855.106 1.175.424.427.32.534.85.534 1.593v3.08zm7.261-4.036h-1.175v2.337c0 .637.214.85.641.85h.534v.849c-.214.106-.534.106-.855.106-.427 0-.747-.106-.96-.425-.214-.212-.32-.743-.32-1.274V3.398h-.748v-.85h.747V1.7l1.068-.318V2.55h1.174v.85h-.106zm5.766 4.036h-1.068V4.673c0-.85-.32-1.274-.961-1.274-.534 0-.854.212-1.068.743v3.292h-1.068V.32h1.068v2.973c.32-.53.854-.85 1.495-.85.427 0 .854.107 1.068.426.32.318.534.955.534 1.593v2.973zm5.872-2.655v.53h-3.204c0 .532.214.85.428 1.063.32.212.64.318 1.067.318a4.01 4.01 0 001.282-.212l.213.743c-.427.213-.961.319-1.601.319-.748 0-1.389-.213-1.816-.637-.427-.425-.64-1.062-.64-1.806 0-.743.213-1.38.64-1.805.427-.531.961-.743 1.709-.743.747 0 1.281.212 1.601.743.214.319.321.85.321 1.487zm-.961-.319c0-.318-.107-.637-.214-.85-.213-.318-.427-.424-.854-.424-.32 0-.641.106-.854.425-.214.212-.321.53-.321.85h2.243z" fill="#1D1D1D"/></svg>