<svg width="110" height="28" fill="none" xmlns="http://www.w3.org/2000/svg"><path fill-rule="evenodd" clip-rule="evenodd" d="M0 12.348V1.892C0 1.295.5.797 1.001.797c.501 0 .701.1 1.002.298l19.324 10.556c.4.2.6.498.6.797 0 .299-.2.597-.6.796L2.003 23.8c-.2.1-.501.3-1.002.3-.5 0-1-.499-1-1.096V12.348zm61.377 14.241c-.5-.399-.901-1.096-1.101-1.494l1.602-.697c.1.199.3.498.5.797.4.398 1.001.796 1.602.796.6 0 1.302-.299 1.702-.796.3-.498.5-.996.5-1.694v-.597c-1.2 1.494-3.704 1.295-5.105-.299-1.502-1.593-1.502-4.282 0-5.875 1.501-1.494 3.704-1.693 5.006-.299v-.697h1.702v7.469c0 1.892-.701 2.987-1.602 3.684-.6.498-1.502.697-2.303.697-.901-.1-1.802-.398-2.503-.995zm41.952.398l1.702-3.983-3.004-6.872h1.703l2.102 4.88 2.103-4.88h1.702l-4.606 10.855h-1.702zm-8.11-3.784c-.5-.498-.7-1.195-.7-1.892 0-.598.2-1.195.6-1.594.7-.697 1.702-.995 2.803-.995.701 0 1.302.1 1.803.398 0-1.195-1.002-1.693-1.803-1.693-.7 0-1.401.398-1.702 1.095l-1.502-.597c.3-.697 1.102-1.992 3.104-1.992 1.001 0 2.003.299 2.603.996.601.697.801 1.494.801 2.59V23.7h-1.702v-.697c-.2.298-.6.497-.9.697-.401.199-.902.299-1.402.299-.601-.1-1.502-.3-2.003-.797zm-53.366-3.585c0-1.992 1.502-4.183 4.205-4.183 2.603 0 4.205 2.191 4.205 4.183S48.761 23.8 46.058 23.8c-2.703 0-4.205-2.19-4.205-4.182zm9.01 0c0-1.992 1.503-4.183 4.206-4.183 2.603 0 4.205 2.191 4.205 4.183S57.772 23.8 55.07 23.8c-2.603 0-4.205-2.19-4.205-4.182zm-20.324 2.19c-2.504-2.489-2.403-6.572.1-9.161 1.301-1.295 2.903-1.892 4.605-1.892 1.602 0 3.204.597 4.406 1.792l-1.202 1.295c-1.802-1.793-4.705-1.693-6.407.1a4.793 4.793 0 000 6.672c1.802 1.892 4.805 1.991 6.608.1.6-.598.8-1.395.9-2.192h-4.204V16.73h5.907c.1.398.1.896.1 1.394 0 1.494-.6 2.988-1.602 3.983-1.101 1.096-2.703 1.693-4.305 1.693-1.803-.1-3.605-.697-4.906-1.991zm42.352.698c-1.502-1.594-1.502-4.282 0-5.975 1.502-1.594 4.005-1.594 5.407 0 .5.498.801 1.195 1.101 1.892l-5.507 2.29a2.136 2.136 0 002.003 1.295c.901 0 1.502-.299 2.103-1.195l1.501.996c-.2.199-.4.398-.5.597-1.702 1.693-4.606 1.693-6.108.1zM83.304 23.7V12.647h3.605c2.102 0 3.804 1.494 3.804 3.286 0 1.793-1.501 3.287-3.404 3.287h-2.203v4.38l-1.802.1zm8.41 0V12.647h1.703v11.054h-1.702zm-22.627-.2V11.153h1.802v12.348h-1.802zm30.537-3.087c-.4-.298-1-.398-1.602-.398-1.201 0-1.902.598-1.902 1.295s.701 1.095 1.402 1.095c1.001 0 2.102-.796 2.102-1.991zm-51.263-.796c0-1.195-.801-2.49-2.303-2.49-1.502 0-2.303 1.295-2.303 2.49 0 1.195.801 2.49 2.303 2.49 1.402 0 2.303-1.295 2.303-2.49zm9.011 0c0-1.195-.801-2.49-2.303-2.49-1.502 0-2.303 1.295-2.303 2.49 0 1.195.801 2.49 2.303 2.49 1.502 0 2.303-1.295 2.303-2.49zm8.911.697c0-.1 0-.2.1-.299v-.896c0-.1-.1-.299-.1-.399-.3-.995-1.201-1.692-2.103-1.692-1.201 0-2.202 1.195-2.202 2.49 0 1.393 1 2.489 2.303 2.489.8.1 1.601-.598 2.002-1.693zm7.31-.896l3.704-1.594c-.4-.697-1.001-.896-1.502-.896-1.502.1-2.403 1.693-2.203 2.49zm15.318-3.386c0-.996-.8-1.693-1.902-1.693h-2.003v3.485h2.103a1.79 1.79 0 001.802-1.792z" fill="#1D1D1D"/><path fill-rule="evenodd" clip-rule="evenodd" d="M104.631 24.995h-.1v-.1h.1-.1v.1h.1zm.2 0c0-.1 0-.1 0 0-.1-.1-.1-.1 0 0-.1 0-.1 0 0 0zm0-.1c0 .1 0 .1 0 0 0 .1-.1.1 0 0-.1 0 0 0 0 0z" fill="#1D1D1D"/><path fill-rule="evenodd" clip-rule="evenodd" d="M104.93 24.896h-.1.1v.1-.1z" fill="#1D1D1D"/><path d="M29.137 2.888C29.137 1.095 30.438 0 32.04 0c1.102 0 1.803.498 2.303 1.195l-.8.498c-.301-.398-.802-.697-1.503-.697-1.101 0-1.902.796-1.902 1.991 0 1.196.8 1.992 1.902 1.992.601 0 1.102-.299 1.302-.498v-.896H31.74v-.896h2.703V4.78c-.5.598-1.301.996-2.303.996-1.702 0-3.003-1.195-3.003-2.888zm6.508 2.788V.099h3.805v.896h-2.904V2.39h2.804v.896h-2.804v1.593h2.904v.896l-3.805-.1zm6.607 0V.996H40.55V.098h4.406v.896h-1.702v4.68h-1.002zm6.108 0V.099h1.001v5.577h-1zm3.705 0V.996h-1.703V.098h4.406v.896h-1.702v4.68h-1.002zm5.908-2.788C57.973 1.195 59.174 0 60.876 0c1.703 0 2.904 1.195 2.904 2.888 0 1.693-1.202 2.888-2.904 2.888s-2.903-1.295-2.903-2.888zm4.706 0c0-1.195-.701-1.992-1.903-1.992-1.101 0-1.902.896-1.902 1.992 0 1.195.7 1.992 1.902 1.992s1.903-.897 1.903-1.992zm6.107 2.788l-2.904-3.984v3.984h-1V.099h1l2.904 3.884V.099h1.001v5.577h-1.001z" fill="#1D1D1D"/></svg>