<svg width="40" height="42" fill="none" xmlns="http://www.w3.org/2000/svg"><g clip-path="url(#clip0)"><path d="M39.43 21.472c0-1.398-.109-2.804-.342-4.18H20.391v7.922h10.707c-.444 2.555-1.872 4.815-3.962 6.251v5.14h6.388c3.75-3.583 5.906-8.874 5.906-15.133z" fill="#4285F4"/><path d="M20.39 41.571c5.347 0 9.855-1.821 13.14-4.966l-6.387-5.14c-1.778 1.255-4.072 1.966-6.745 1.966-5.171 0-9.556-3.621-11.129-8.49H2.677v5.3c3.365 6.946 10.22 11.33 17.714 11.33z" fill="#34A853"/><path d="M9.262 24.942a12.764 12.764 0 010-7.876v-5.3H2.677a21.286 21.286 0 000 18.475l6.585-5.3z" fill="#FBBC04"/><path d="M20.39 8.57c2.827-.046 5.558 1.058 7.605 3.083l5.659-5.873C30.07 2.288 25.314.368 20.391.43 12.896.43 6.042 4.814 2.677 11.768l6.585 5.299C10.828 12.19 15.22 8.57 20.39 8.57z" fill="#EA4335"/></g><defs><clipPath id="clip0"><path fill="#fff" transform="translate(.573 .429)" d="M0 0h38.857v41.143H0z"/></clipPath></defs></svg>