<svg width="89" height="22" fill="none" xmlns="http://www.w3.org/2000/svg"><path d="M.49.39h4.86v17.04h10.53v3.96H.49v-21zm27.924 21.36c-2.18 0-4.15-.47-5.91-1.41-1.74-.94-3.11-2.23-4.11-3.87-.98-1.66-1.47-3.52-1.47-5.58s.49-3.91 1.47-5.55c1-1.66 2.37-2.96 4.11-3.9 1.76-.94 3.73-1.41 5.91-1.41s4.14.47 5.88 1.41c1.74.94 3.11 2.24 4.11 3.9 1 1.64 1.5 3.49 1.5 5.55 0 2.06-.5 3.92-1.5 5.58-1 1.64-2.37 2.93-4.11 3.87-1.74.94-3.7 1.41-5.88 1.41zm0-4.14c1.24 0 2.36-.28 3.36-.84 1-.58 1.78-1.38 2.34-2.4.58-1.02.87-2.18.87-3.48 0-1.3-.29-2.46-.87-3.48a5.93 5.93 0 00-2.34-2.37c-1-.58-2.12-.87-3.36-.87-1.24 0-2.36.29-3.36.87-1 .56-1.79 1.35-2.37 2.37-.56 1.02-.84 2.18-.84 3.48 0 1.3.28 2.46.84 3.48a6.351 6.351 0 002.37 2.4c1 .56 2.12.84 3.36.84zm29.332-7.05h4.44v8.52c-1.14.86-2.46 1.52-3.96 1.98-1.5.46-3.01.69-4.53.69-2.18 0-4.14-.46-5.88-1.38-1.74-.94-3.11-2.23-4.11-3.87-.98-1.66-1.47-3.53-1.47-5.61 0-2.08.49-3.94 1.47-5.58 1-1.66 2.38-2.95 4.14-3.87 1.76-.94 3.74-1.41 5.94-1.41 1.84 0 3.51.31 5.01.93 1.5.62 2.76 1.52 3.78 2.7l-3.12 2.88c-1.5-1.58-3.31-2.37-5.43-2.37-1.34 0-2.53.28-3.57.84a6.026 6.026 0 00-2.43 2.37c-.58 1.02-.87 2.19-.87 3.51 0 1.3.29 2.46.87 3.48a6.288 6.288 0 002.4 2.4c1.04.56 2.22.84 3.54.84 1.4 0 2.66-.3 3.78-.9v-6.15zm19.125 11.19c-2.18 0-4.15-.47-5.91-1.41-1.74-.94-3.11-2.23-4.11-3.87-.98-1.66-1.47-3.52-1.47-5.58s.49-3.91 1.47-5.55c1-1.66 2.37-2.96 4.11-3.9C72.72.5 74.69.03 76.87.03s4.14.47 5.88 1.41c1.74.94 3.11 2.24 4.11 3.9 1 1.64 1.5 3.49 1.5 5.55 0 2.06-.5 3.92-1.5 5.58-1 1.64-2.37 2.93-4.11 3.87-1.74.94-3.7 1.41-5.88 1.41zm0-4.14c1.24 0 2.36-.28 3.36-.84 1-.58 1.78-1.38 2.34-2.4.58-1.02.87-2.18.87-3.48 0-1.3-.29-2.46-.87-3.48a5.93 5.93 0 00-2.34-2.37c-1-.58-2.12-.87-3.36-.87-1.24 0-2.36.29-3.36.87-1 .56-1.79 1.35-2.37 2.37-.56 1.02-.84 2.18-.84 3.48 0 1.3.28 2.46.84 3.48a6.351 6.351 0 002.37 2.4c1 .56 2.12.84 3.36.84z" fill="#1D1D1D"/></svg>