<svg width="38" height="44" fill="none" xmlns="http://www.w3.org/2000/svg"><path d="M36.52 33.844a23.613 23.613 0 01-2.335 4.198c-1.227 1.751-2.233 2.963-3.007 3.636-1.2 1.104-2.487 1.67-3.865 1.702-.988 0-2.181-.282-3.57-.853-1.392-.568-2.672-.85-3.842-.85-1.228 0-2.544.282-3.953.85-1.41.571-2.546.869-3.414.898-1.321.057-2.638-.525-3.952-1.747-.84-.732-1.888-1.987-3.145-3.764-1.349-1.898-2.458-4.099-3.326-6.608C1.18 28.596.714 25.97.714 23.43c0-2.91.629-5.42 1.888-7.524.99-1.69 2.307-3.022 3.955-4a10.636 10.636 0 015.346-1.51c1.049 0 2.425.325 4.135.963 1.705.64 2.8.965 3.28.965.358 0 1.575-.38 3.636-1.136 1.95-.702 3.596-.993 4.944-.878 3.652.294 6.397 1.735 8.222 4.33-3.267 1.98-4.883 4.753-4.85 8.31.029 2.771 1.034 5.077 3.009 6.908a9.89 9.89 0 003.007 1.973c-.242.7-.496 1.37-.767 2.013zM28.14.87c0 2.172-.793 4.2-2.374 6.077-1.908 2.232-4.216 3.521-6.719 3.318a6.76 6.76 0 01-.05-.823c0-2.085.907-4.317 2.518-6.141.805-.924 1.828-1.692 3.07-2.305C25.822.391 26.994.058 28.095 0c.032.29.046.581.046.87z" fill="#000"/></svg>