<svg width="36" height="34" fill="none" xmlns="http://www.w3.org/2000/svg"><path d="M18.346.847c1.349 0 5.993.364 8.181 5.292.72 1.623.536 4.563.388 6.924-.023.375-.046.738-.065 1.085l-.008.15.1.11c.04.045.414.438 1.247.47l.014.001h.014c.55-.021 1.17-.193 1.845-.51a.885.885 0 01.37-.07c.16 0 .33.03.469.09l.02.008c.354.124.604.359.608.571.002.12-.088.552-1.34 1.049-.122.049-.284.1-.47.16-.815.26-2.047.652-2.461 1.633-.233.552-.17 1.204.19 1.937.148.347 2.474 5.61 7.709 6.477a.234.234 0 01-.021.084c-.09.21-.653.935-4.163 1.48-.549.084-.683.702-.84 1.421-.056.257-.113.517-.192.785-.024.082-.028.086-.115.086h-.041a3.85 3.85 0 01-.666-.086 10.26 10.26 0 00-2.05-.218c-.486 0-.987.043-1.49.127-1.074.18-1.947.8-2.872 1.457-1.242.881-2.526 1.794-4.485 1.794-.085 0-.169-.003-.252-.008h-.022l-.023.001a1.672 1.672 0 01-.145.007c-1.959 0-3.243-.912-4.485-1.794-.925-.657-1.799-1.277-2.873-1.457a9.054 9.054 0 00-1.489-.127c-.87 0-1.552.134-2.05.232-.274.054-.51.1-.666.1-.127 0-.13-.008-.156-.1-.08-.268-.137-.534-.193-.791-.156-.72-.29-1.341-.84-1.426C1.52 27.247.955 26.52.866 26.31a.258.258 0 01-.021-.086c5.234-.866 7.56-6.13 7.709-6.478.36-.732.423-1.384.19-1.938-.415-.98-1.646-1.373-2.46-1.632a7.865 7.865 0 01-.472-.16c-1.057-.42-1.383-.843-1.334-1.099.056-.295.566-.596 1.01-.596.1 0 .188.017.253.047.723.34 1.383.513 1.961.513.91 0 1.315-.425 1.359-.474l.098-.11-.008-.15c-.018-.346-.04-.709-.065-1.083-.147-2.362-.332-5.3.388-6.923 2.18-4.91 6.802-5.288 8.166-5.288l.627-.006.08-.001zm0-.847h-.089l-.62.007c-.799 0-2.398.113-4.115.874a9.166 9.166 0 00-2.625 1.75c-.907.863-1.645 1.929-2.194 3.166-.804 1.812-.614 4.865-.46 7.317v.004l.05.804c-.118.055-.31.112-.592.112-.453 0-.993-.145-1.603-.433a1.43 1.43 0 00-.61-.126c-.364 0-.747.107-1.079.303-.418.247-.688.595-.76.981-.05.256-.047.76.512 1.273.307.282.758.542 1.34.773.153.06.334.118.526.18.667.212 1.676.534 1.939 1.156.133.315.076.73-.17 1.232l-.019.04c-.061.145-.635 1.45-1.811 2.826a10.204 10.204 0 01-2.188 1.945A8.022 8.022 0 01.707 25.39a.846.846 0 00-.706.883c.008.125.037.249.087.37l.001.001c.172.404.571.747 1.22 1.05.791.37 1.976.68 3.52.924.077.149.158.523.214.78.06.272.12.552.207.85.095.322.339.708.966.708.238 0 .511-.054.828-.116.463-.091 1.097-.216 1.888-.216.44 0 .894.04 1.351.115.882.148 1.643.688 2.523 1.313C14.094 32.965 15.55 34 17.779 34c.06 0 .121-.002.181-.006.074.003.165.006.262.006 2.227 0 3.685-1.035 4.971-1.95l.002-.001c.88-.624 1.64-1.163 2.522-1.31a8.241 8.241 0 011.35-.116c.757 0 1.355.097 1.89.202.348.069.62.102.827.102h.042c.458 0 .795-.253.924-.695.086-.292.147-.565.207-.842.052-.24.136-.626.214-.776 1.545-.244 2.729-.554 3.52-.924.648-.3 1.046-.644 1.219-1.046.052-.12.082-.246.089-.373a.846.846 0 00-.706-.883c-4.812-.797-6.98-5.764-7.07-5.975a.637.637 0 00-.02-.041c-.245-.502-.302-.916-.169-1.232.263-.622 1.271-.943 1.938-1.156a8.38 8.38 0 00.527-.18c.657-.26 1.126-.542 1.436-.863.37-.383.442-.75.437-.99-.011-.58-.453-1.096-1.156-1.349a2.06 2.06 0 00-.783-.15 1.74 1.74 0 00-.729.15c-.563.264-1.067.409-1.5.43a1.352 1.352 0 01-.497-.11l.043-.702.006-.104c.155-2.454.346-5.509-.459-7.322-.551-1.242-1.292-2.31-2.202-3.176a9.188 9.188 0 00-2.634-1.75A10.44 10.44 0 0018.346 0z" fill="#020202"/></svg>