<svg width="40" height="40" fill="none" xmlns="http://www.w3.org/2000/svg"><path d="M20.001 39.571l5.436-30.703c5.182 0 6.816.57 7.052 2.9 0 0 3.476-1.302 5.23-3.946-6.842-3.184-13.716-3.327-13.716-3.327L19.993 9.4H20l-4.01-4.907s-6.875.144-13.715 3.328c1.751 2.643 5.229 3.945 5.229 3.945.237-2.33 1.87-2.9 7.016-2.904L20 39.57z" fill="#fff"/><path d="M20 3.078c5.53-.042 11.86.86 18.34 3.696.866-1.566 1.089-2.258 1.089-2.258C32.345 1.702 25.712.74 19.999.714 14.288.74 7.655 1.702.573 4.516c0 0 .316.852 1.088 2.258C8.138 3.937 14.47 3.036 20 3.078z" fill="#fff"/></svg>