<svg width="110" height="25" fill="none" xmlns="http://www.w3.org/2000/svg"><path d="M9.136 21.605L0 20.293V12.62h9.136v8.985zm0-9.692H0V4.644l9.136-1.312v8.581zM21.62 23.321L9.846 21.605V12.62h11.775v10.7zm0-11.408H9.846V3.332l11.775-1.717v10.298zM37.354 7.37c-.406.202-1.32.404-2.335.404-1.116 0-2.131-.303-2.842-1.01-.609-.606-1.015-1.615-1.015-2.827 0-2.22 1.523-3.937 4.06-3.937.914 0 1.523.202 1.929.303l-.203.808c-.406-.202-.914-.303-1.624-.303-1.827 0-3.045 1.11-3.045 3.028 0 1.919 1.116 3.03 2.943 3.03.61 0 1.117-.102 1.32-.203v-2.22h-1.523v-.808h2.436l-.101 3.735zm2.03-2.221c0 1.312.914 1.918 1.827 1.918.71 0 1.117-.1 1.523-.303l.203.707c-.304.202-.914.303-1.827.303-1.624 0-2.64-1.11-2.64-2.726 0-1.615.914-2.928 2.538-2.928 1.726 0 2.233 1.514 2.233 2.524v.505h-3.857zm2.944-.707c0-.606-.305-1.615-1.32-1.615-1.015 0-1.42.908-1.522 1.615h2.842zm3.35-3.735V2.22h1.42v.707h-1.42v2.928c0 .706.203 1.01.71 1.01.305 0 .406 0 .61-.102v.707c-.204.101-.508.101-.914.101-.508 0-.813-.101-1.016-.404-.304-.303-.406-.808-.406-1.413V2.827h-.812V2.12h.812V.808l1.016-.101zm5.988-.001c0 .303-.203.606-.609.606-.304 0-.609-.303-.609-.606s.305-.605.61-.605c.304 0 .608.302.608.605zM50.55 7.672v-5.45h1.015v5.452H50.55zM54.306.707V2.22h1.42v.707h-1.42v2.928c0 .706.203 1.01.71 1.01.305 0 .406 0 .61-.102v.707c-.204.101-.508.101-.914.101-.508 0-.812-.101-1.015-.404-.305-.303-.406-.808-.406-1.413V2.827h-.813V2.12h.813V.808l1.015-.101zm9.744 4.24c0 2.02-1.42 2.928-2.74 2.928-1.421 0-2.639-1.11-2.639-2.827 0-1.817 1.218-2.928 2.64-2.928 1.725 0 2.74 1.11 2.74 2.827zm-4.262 0c0 1.211.71 2.12 1.624 2.12.913 0 1.624-.909 1.624-2.12 0-.909-.508-2.12-1.624-2.12-1.117 0-1.624 1.11-1.624 2.12zm5.481-1.212V2.221h.914l.101.909a2.092 2.092 0 011.827-1.01c.71 0 1.929.404 1.929 2.322v3.23h-1.015V4.544c0-.909-.305-1.615-1.218-1.615-.61 0-1.117.505-1.32 1.01 0 .1-.101.302-.101.504v3.23H65.37l-.102-3.937zM33.802 24.028l-2.74-11.005h1.522l1.32 5.553c.304 1.413.608 2.726.811 3.837a40.53 40.53 0 01.914-3.837l1.421-5.553h1.523l1.32 5.553c.304 1.313.608 2.625.811 3.735.203-1.211.508-2.422.914-3.836l1.421-5.553h1.421l-3.147 11.005h-1.522l-1.421-5.755c-.305-1.413-.61-2.524-.71-3.634a41.661 41.661 0 01-.813 3.634l-1.523 5.755-1.522.1zm13.196-10.197c0 .505-.305.909-.914.909a.907.907 0 01-.913-.909c0-.505.406-.909.913-.909.61.101.914.404.914.909zm-1.624 10.197v-7.875h1.42v7.875h-1.42zm3.248-5.755c0-.807 0-1.514-.102-2.12h1.32l.101 1.313a3.061 3.061 0 012.64-1.515c1.116 0 2.74.606 2.74 3.332v4.745h-1.42v-4.543c0-1.313-.508-2.322-1.828-2.322-.914 0-1.726.707-1.929 1.514-.101.202-.101.404-.101.707v4.745h-1.421v-5.856zm15.733-5.855v9.591c0 .707 0 1.515.101 2.02h-1.32l-.1-1.414c-.407.909-1.422 1.514-2.64 1.514-1.929 0-3.35-1.615-3.35-4.038 0-2.625 1.624-4.24 3.553-4.24 1.218 0 2.03.605 2.335 1.211v-4.745h1.42v.101zm-1.421 6.865c0-.202 0-.404-.102-.606a2.072 2.072 0 00-2.03-1.615c-1.523 0-2.335 1.313-2.335 3.029 0 1.615.813 2.928 2.335 2.928.914 0 1.827-.606 2.132-1.716 0-.202.101-.404.101-.606v-1.414h-.101zm10.456.707c0 2.928-2.031 4.24-3.96 4.24-2.131 0-3.756-1.615-3.756-4.038 0-2.625 1.726-4.24 3.96-4.24 2.233 0 3.755 1.615 3.755 4.038zm-6.193.1c0 1.717 1.015 3.03 2.436 3.03 1.32 0 2.437-1.313 2.437-3.03 0-1.312-.711-3.028-2.335-3.028-1.827-.101-2.538 1.514-2.538 3.029zm8.019-4.038l1.015 4.039c.203.909.406 1.716.61 2.524.202-.808.405-1.615.71-2.524l1.32-4.039h1.218l1.218 3.938c.304.909.507 1.817.71 2.625.102-.808.305-1.615.61-2.524l1.116-3.938h1.421l-2.538 7.875h-1.32l-1.217-3.735a19.827 19.827 0 01-.711-2.625 25.178 25.178 0 01-.71 2.625l-1.32 3.735H76.13l-2.335-7.875 1.421-.1zm11.064 6.462c.407.303 1.219.605 1.93.605 1.015 0 1.522-.504 1.522-1.211 0-.707-.406-1.11-1.421-1.413-1.421-.505-2.132-1.313-2.132-2.222 0-1.312 1.015-2.322 2.741-2.322.812 0 1.523.202 1.929.505l-.406 1.01c-.305-.202-.914-.505-1.624-.505-.813 0-1.32.505-1.32 1.11 0 .606.508.91 1.523 1.313 1.32.505 2.03 1.212 2.03 2.423 0 1.414-1.117 2.322-2.944 2.322-.914 0-1.624-.202-2.233-.505l.406-1.11zm11.47-7.774l-1.826 1.01-.305-1.111 2.335-1.211h1.218v10.6h-1.421V14.74zm11.37 3.836c0 3.635-1.32 5.553-3.654 5.553-2.031 0-3.452-1.918-3.553-5.452 0-3.533 1.522-5.552 3.654-5.552 2.335.1 3.553 2.12 3.553 5.451zm-5.786.203c0 2.725.812 4.34 2.132 4.34 1.421 0 2.131-1.716 2.131-4.442 0-2.624-.71-4.34-2.131-4.34-1.218 0-2.132 1.514-2.132 4.442z" fill="#1D1D1D"/></svg>