<svg width="27" height="27" viewBox="0 0 27 27" fill="none" xmlns="http://www.w3.org/2000/svg">
<path d="M14.1504 20.8774H13.3813V20.1084H14.1504V20.8774ZM12.8687 20.8774H12.0996V20.1084H12.8687V20.8774Z" fill="#D56359"/>
<path d="M26.25 15.3139V10.9361L22.5932 10.331C22.3966 9.66367 22.1289 9.01799 21.7952 8.40628L23.9538 5.39211L22.7683 4.20667L22.2245 4.7506L22.9486 5.47462L20.883 8.35886L21.0074 8.57387C21.4063 9.26312 21.7125 10.0022 21.9177 10.7698L21.9817 11.0093L25.481 11.5884V14.6616L21.9817 15.2405L21.9177 15.4802C21.7126 16.2478 21.4063 16.9866 21.0074 17.6761L20.8829 17.8908L22.9486 20.7754L20.7754 22.9486L17.8911 20.8829L17.6761 21.0074C16.9869 21.4063 16.2478 21.7125 15.4802 21.9176L15.2407 21.9817L14.6616 25.481H11.5884L11.0093 21.9817L10.7698 21.9177C10.002 21.7126 9.26312 21.4063 8.57387 21.0074L8.35886 20.8829L5.47462 22.9486L3.30144 20.7754L5.36712 17.8911L5.24263 17.6761C4.84369 16.9869 4.53751 16.2478 4.33228 15.4802L4.26835 15.2407L0.769043 14.6616V11.5884L4.26835 11.0095L4.33228 10.7698C4.53735 10.0022 4.84369 9.26344 5.24263 8.57387L5.36696 8.35918L3.30144 5.47462L5.47462 3.30144L8.35886 5.36712L8.57355 5.24263C9.26312 4.84369 10.002 4.53751 10.7698 4.33244L11.0093 4.26835L11.5884 0.769043H14.6616L15.2407 4.26835L15.4802 4.33228C16.2478 4.53735 16.9869 4.84369 17.6761 5.24263L17.8911 5.36712L20.7754 3.30144L21.4996 4.02546L22.0433 3.48168L20.8579 2.29623L17.8437 4.45484C17.232 4.12111 16.5863 3.85339 15.919 3.6568L15.3139 0H10.9361L10.3311 3.6568C9.66367 3.85339 9.01799 4.12111 8.40628 4.45484L5.39211 2.29623L2.29623 5.39211L4.45484 8.40628C4.12111 9.01799 3.85339 9.66367 3.6568 10.331L0 10.9361V15.3139L3.6568 15.919C3.85339 16.5863 4.12111 17.232 4.45484 17.8437L2.29623 20.8579L5.39211 23.9538L8.40628 21.7952C9.01799 22.1289 9.66367 22.3966 10.331 22.5932L10.9361 26.25H15.3139L15.9189 22.5932C16.5863 22.3966 17.2317 22.1289 17.8437 21.7952L20.8579 23.9538L23.9534 20.8579L21.7952 17.8437C22.1289 17.232 22.3966 16.5863 22.5932 15.919L26.25 15.3139Z" fill="#D56359"/>
<path d="M7.19836 13.7434C7.50983 16.7629 10.0622 19.0836 13.1248 19.0836C16.4102 19.0836 19.0831 16.4106 19.0831 13.1253C19.0831 9.84006 16.4102 7.16699 13.1248 7.16699C10.0244 7.16699 7.43132 9.55087 7.18555 12.648L7.95219 12.7089C8.16447 10.0325 10.4365 7.93604 13.1248 7.93604C15.9861 7.93604 18.3141 10.264 18.3141 13.1253C18.3141 15.9866 15.9861 18.3146 13.1248 18.3146C10.4557 18.3146 8.23673 16.3154 7.9634 13.6644L7.19836 13.7434Z" fill="#D56359"/>
<path d="M15.1344 10.3945L15.5885 9.77363C14.8004 9.19749 13.8266 8.91951 12.8464 8.99033C10.7204 9.1443 9.01172 10.9064 9.01172 13.1158C9.01172 15.4213 10.8765 17.2519 13.1482 17.2518C14.2076 17.2518 15.2674 16.8485 16.0741 16.0417C17.5547 14.5611 17.6953 12.204 16.4009 10.559L15.7966 11.0347C16.8503 12.3738 16.7358 14.2926 15.5303 15.498C14.2169 16.8117 12.0792 16.8113 10.7658 15.498C10.1307 14.8628 9.78076 14.0168 9.78076 13.1158C9.78076 12.2147 10.1307 11.3686 10.7658 10.7335C11.9291 9.57 13.8072 9.42436 15.1344 10.3945Z" fill="#D56359"/>
</svg>
