<svg width="23" height="28" viewBox="0 0 23 28" fill="none" xmlns="http://www.w3.org/2000/svg">
<path d="M11.0371 10.8555C9.39371 10.8555 8.05664 9.5184 8.05664 7.875C8.05664 6.2316 9.39371 4.89453 11.0371 4.89453C11.4065 4.89453 11.7671 4.9614 12.1091 5.0932L11.8141 5.85861C11.5665 5.76312 11.3052 5.71484 11.0371 5.71484C9.84595 5.71484 8.87695 6.68384 8.87695 7.875C8.87695 9.06616 9.84595 10.0352 11.0371 10.0352C12.2283 10.0352 13.1973 9.06616 13.1973 7.875C13.1973 7.69107 13.1742 7.50864 13.1287 7.33261L13.9229 7.12732C13.9857 7.37042 14.0176 7.62186 14.0176 7.875C14.0176 9.5184 12.6805 10.8555 11.0371 10.8555ZM12.8691 6.72998C12.7444 6.53088 12.5889 6.354 12.4069 6.20447L12.9275 5.57065C13.178 5.77658 13.3923 6.0199 13.5643 6.2944L12.8691 6.72998Z" fill="#D56359"/>
<path d="M21.8509 21.5009L21.0925 21.8139C21.2004 22.0752 21.2551 22.3428 21.2551 22.6088C21.2551 23.7542 20.2066 24.9027 18.3784 25.7595C16.4246 26.6753 13.8176 27.1797 11.0377 27.1797C8.25781 27.1797 5.65076 26.6753 3.69696 25.7595C1.86877 24.9027 0.820312 23.7542 0.820312 22.6086C0.820312 20.8099 3.30389 19.1396 7.02884 18.4122C8.87369 21.0927 10.6724 22.8748 10.7499 22.951L11.0377 23.2345L11.3254 22.951C11.4049 22.8728 13.2927 21.003 15.1852 18.2099C16.2997 16.5645 17.18 14.9427 17.8018 13.3893C18.5863 11.429 18.9599 9.5701 18.9125 7.86368C18.8183 4.46729 17.1813 2.58057 15.8246 1.59576C14.2034 0.419128 12.2889 0 11.0377 0C9.7865 0 7.87201 0.419128 6.25082 1.59576C4.8941 2.58035 3.25711 4.46707 3.1629 7.86368C3.11548 9.5701 3.48911 11.429 4.27374 13.3893C4.82788 14.7742 5.58838 16.2136 6.53644 17.6752C2.54425 18.5286 0 20.4315 0 22.6086C0 24.1074 1.18924 25.4901 3.34875 26.5023C5.40936 27.4681 8.14011 28 11.0377 28C13.9353 28 16.666 27.4681 18.7266 26.5023C20.8861 25.4901 22.0754 24.1074 22.0754 22.6086C22.0754 22.2347 21.9998 21.8622 21.8509 21.5009ZM3.98279 7.88632C4.14386 2.08966 9.13004 0.820312 11.0377 0.820312C12.1601 0.820312 13.8806 1.19843 15.3426 2.2597C17.099 3.53461 18.0242 5.42752 18.0926 7.88632V7.88654C18.1932 11.5096 16.2025 15.2429 14.5146 17.7367C13.0923 19.8385 11.6393 21.4377 11.0377 22.0707C10.4376 21.4396 8.99075 19.8477 7.56952 17.7497C5.87762 15.2525 3.88196 11.5143 3.98279 7.88632Z" fill="#D56359"/>
<path d="M20.7336 21.1967L21.3887 20.703C21.2187 20.4772 21.0155 20.2554 20.7852 20.0439L20.2305 20.6483C20.4242 20.826 20.5934 21.0106 20.7336 21.1967Z" fill="#D56359"/>
<path d="M16.0137 18.6289C17.4672 19.0002 18.7188 19.5336 19.6329 20.1717L20.1024 19.4992C19.1084 18.8051 17.7647 18.2294 16.2166 17.834L16.0137 18.6289Z" fill="#D56359"/>
</svg>
