<svg width="22" height="28" viewBox="0 0 22 28" fill="none" xmlns="http://www.w3.org/2000/svg">
<path d="M21.4869 21.8454C21.4869 20.9184 20.7327 20.1642 19.8057 20.1642C19.4595 20.1642 19.1374 20.2694 18.8697 20.4495C18.6388 19.7964 18.0151 19.3271 17.2839 19.3271C16.9385 19.3271 16.6172 19.4318 16.3498 19.611C16.1206 18.9549 15.4955 18.483 14.7621 18.483C14.4562 18.483 14.1689 18.5652 13.9215 18.7086V15.9647C13.9215 15.0377 13.1673 14.2835 12.2403 14.2835C11.3133 14.2835 10.5591 15.0377 10.5591 15.9647V21.0041L9.72118 21.0205C8.79619 21.0229 8.04436 21.7761 8.04436 22.7009L8.04099 24.3741H2.04109C1.65481 24.3741 1.3406 24.0599 1.3406 23.6736V4.62012H0.5V23.6736C0.5 24.5234 1.19131 25.2147 2.04109 25.2147H8.03931L8.03713 26.3161L8.94974 28.0004L9.68879 27.5999L8.87817 26.1039L8.88495 22.7018C8.88495 22.2383 9.26205 21.8612 9.72555 21.8612L10.5591 21.845V25.6281H11.3997V21.8286V15.9647C11.3997 15.5012 11.7768 15.1241 12.2403 15.1241C12.7038 15.1241 13.0809 15.5012 13.0809 15.9647V20.1642V23.1098H13.9215V20.1642C13.9215 19.7007 14.2986 19.3236 14.7621 19.3236C15.2256 19.3236 15.6027 19.7007 15.6027 20.1642V23.1098H16.4433V21.0083C16.4433 20.5448 16.8204 20.1677 17.2839 20.1677C17.7474 20.1677 18.1245 20.5448 18.1245 21.0083V21.8455V23.1099H18.9651V21.8455C18.9651 21.382 19.3422 21.0049 19.8057 21.0049C20.2692 21.0049 20.6463 21.382 20.6463 21.8465L20.6603 27.8012L21.5009 27.7992L21.4869 21.8454Z" fill="#D56359"/>
<path d="M1.3406 1.54109C1.3406 1.15481 1.65481 0.840597 2.04109 0.840597H4.5909V1.70921C4.5909 2.559 5.28221 3.25031 6.132 3.25031H10.7308C11.5805 3.25031 12.2719 2.559 12.2719 1.70921V0.840597H14.9303C15.3166 0.840597 15.6308 1.15481 15.6308 1.54109V18.0694H16.4714V1.54109C16.4714 0.691307 15.78 0 14.9303 0H12.2718H4.5909H2.04109C1.19131 0 0.5 0.691307 0.5 1.54109V3.78269H1.3406V1.54109ZM11.4312 0.840597V1.70921C11.4312 2.0955 11.117 2.40971 10.7307 2.40971H6.13194C5.74566 2.40971 5.43145 2.0955 5.43145 1.70921V0.840597H11.4312Z" fill="#D56359"/>
<path d="M13.7805 11.2976V10.457H13.2005C12.9991 8.1713 11.1736 6.34575 8.88784 6.1444V5.64648H8.04724V6.1444C5.76155 6.34575 3.93599 8.1713 3.73464 10.457H3.16797V11.2976H3.71497H13.2201H13.7805ZM4.57799 10.457C4.78825 8.49678 6.45241 6.96532 8.46754 6.96532C10.4827 6.96532 12.1468 8.49678 12.3571 10.457H4.57799Z" fill="#D56359"/>
<path d="M3.44922 15.9678H7.6452V16.8084H3.44922V15.9678Z" fill="#D56359"/>
<path d="M3.44922 17.6494H7.6452V18.49H3.44922V17.6494Z" fill="#D56359"/>
<path d="M3.44922 19.3301H7.6452V20.1707H3.44922V19.3301Z" fill="#D56359"/>
</svg>
