<svg width="28" height="24" viewBox="0 0 28 24" fill="none" xmlns="http://www.w3.org/2000/svg">
<path d="M14.9294 16.4325H22.3937C22.6736 16.4325 22.8602 16.2459 22.8602 15.966V11.7673C22.8602 11.4874 22.6736 11.3008 22.3937 11.3008H14.9294C14.6495 11.3008 14.4629 11.4874 14.4629 11.7673V15.966C14.4628 16.2458 14.6495 16.4325 14.9294 16.4325ZM15.3959 12.2338H21.9272V15.4994H15.3959V12.2338Z" fill="#D56359"/>
<path d="M2.33174 10.3676H6.06392C6.34383 10.3676 6.53043 10.181 6.53043 9.90107C6.53043 9.62116 6.34383 9.43457 6.06392 9.43457H2.33174C2.05182 9.43457 1.86523 9.62116 1.86523 9.90107C1.86523 10.181 2.05182 10.3676 2.33174 10.3676Z" fill="#D56359"/>
<path d="M7.93135 10.3676H11.6635C11.9434 10.3676 12.13 10.181 12.13 9.90107C12.13 9.62116 11.9434 9.43457 11.6635 9.43457H7.93135C7.65143 9.43457 7.46484 9.62116 7.46484 9.90107C7.46484 10.181 7.65143 10.3676 7.93135 10.3676Z" fill="#D56359"/>
<path d="M2.33174 12.2338H8.39649C8.6764 12.2338 8.86299 12.0472 8.86299 11.7673C8.86299 11.4874 8.6764 11.3008 8.39649 11.3008H2.33174C2.05182 11.3008 1.86523 11.4874 1.86523 11.7673C1.86523 12.0472 2.05182 12.2338 2.33174 12.2338Z" fill="#D56359"/>
<path d="M11.6629 11.2998H10.2634C9.98347 11.2998 9.79688 11.4864 9.79688 11.7663C9.79688 12.0462 9.98347 12.2328 10.2634 12.2328H11.6629C11.9429 12.2328 12.1294 12.0462 12.1294 11.7663C12.1294 11.4864 11.9429 11.2998 11.6629 11.2998Z" fill="#D56359"/>
<path d="M27.5714 5.51542C27.2448 5.09555 26.825 4.86227 26.3118 4.81563L25.1921 4.67994V3.36938V2.43638C25.1921 1.41005 24.3524 0.570313 23.3261 0.570313H1.86607C0.839737 0.570258 0 1.41 0 2.43638V3.36944V7.10162V17.3651C0 18.2077 0.566221 18.9242 1.33686 19.1538C1.31335 20.0975 2.0274 20.9168 2.98577 21.0039L24.539 23.4298C24.5857 23.4298 24.679 23.4298 24.7256 23.4298C25.6587 23.4298 26.4984 22.73 26.5917 21.8437L27.9913 6.86834C28.0379 6.40179 27.8979 5.8886 27.5714 5.51542ZM0.93306 3.83594H24.2591V5.04891V6.63507H0.93306V3.83594ZM1.86607 1.50332H23.326C23.8392 1.50332 24.2591 1.92319 24.2591 2.43638V2.90288H0.93306V2.43638C0.93306 1.92319 1.35293 1.50332 1.86607 1.50332ZM0.93306 17.365V7.56807H24.2591V17.365C24.2591 17.8782 23.8393 18.2981 23.3261 18.2981H1.91275H1.86612C1.35293 18.2981 0.93306 17.8782 0.93306 17.365ZM27.0582 6.6817L25.6586 21.657C25.612 22.1702 25.1454 22.5434 24.6323 22.4968L3.12567 20.0709C2.65917 20.0242 2.33257 19.651 2.28593 19.2311H23.326C24.3523 19.2311 25.1921 18.3914 25.1921 17.3651V7.10157V5.56205L26.2651 5.65537C26.4984 5.65537 26.7316 5.79533 26.8715 5.98192C27.0116 6.16851 27.1049 6.44842 27.0582 6.6817Z" fill="#D56359"/>
</svg>
