<svg width="23" height="27" viewBox="0 0 23 27" fill="none" xmlns="http://www.w3.org/2000/svg">
<path d="M13.957 13.9498H13.1881V13.1807H13.957V13.9498ZM12.6753 13.9498H11.9062V13.1807H12.6753V13.9498Z" fill="#D56359"/>
<path d="M-0.105469 23.9128L8.78719 26.2529V0.00292969L-0.105469 2.34312V23.9128ZM0.663465 2.93595L8.0181 1.00046V25.2554L0.663465 23.3199V2.93595Z" fill="#D56359"/>
<path d="M5.76264 11.7656C5.01136 11.7656 4.40039 12.3769 4.40039 13.128C4.40039 13.8793 5.01136 14.4904 5.76264 14.4904C6.51391 14.4904 7.12505 13.8793 7.12505 13.128C7.12505 12.3769 6.51391 11.7656 5.76264 11.7656ZM5.76264 13.7213C5.43564 13.7213 5.16948 13.4554 5.16948 13.128C5.16948 12.8009 5.43564 12.5349 5.76264 12.5349C6.08996 12.5349 6.35611 12.8009 6.35611 13.128C6.35611 13.4554 6.08996 13.7213 5.76264 13.7213Z" fill="#D56359"/>
<path d="M13.3626 10.0511H14.1315V2.53223H9.8125V3.30132H13.3626V10.0511Z" fill="#D56359"/>
<path d="M13.3626 22.9546H9.8125V23.7237H14.1315V17.1104H13.3626V22.9546Z" fill="#D56359"/>
<path d="M22.6389 13.5804L15.7794 8.36816V11.1018H9.8125V11.8709H16.5485V9.91823L21.3679 13.5804L16.5485 17.2425V15.2902H9.8125V16.0591H15.7794V18.7929L22.6389 13.5804Z" fill="#D56359"/>
<path d="M11.6998 10.0506H12.4689V4.19434H9.8125V4.96343H11.6998V10.0506Z" fill="#D56359"/>
<path d="M12.4689 17.1104H11.6998V21.292H9.8125V22.0609H12.4689V17.1104Z" fill="#D56359"/>
</svg>
