<svg width="28" height="28" viewBox="0 0 28 28" fill="none" xmlns="http://www.w3.org/2000/svg">
<path d="M14.0002 23.8C19.4126 23.8 23.8002 19.4123 23.8002 14C23.8002 8.58756 19.4126 4.19995 14.0002 4.19995C8.5878 4.19995 4.2002 8.58756 4.2002 14C4.2002 19.4123 8.5878 23.8 14.0002 23.8Z" fill="#296DBA"/>
<path d="M13.9999 24.0799C8.44164 24.0799 3.91992 19.5582 3.91992 13.9999C3.91992 8.44164 8.44164 3.91992 13.9999 3.91992C19.5582 3.91992 24.0799 8.44164 24.0799 13.9999C24.0799 19.5582 19.5582 24.0799 13.9999 24.0799ZM13.9999 4.47992C8.75048 4.47992 4.47992 8.75048 4.47992 13.9999C4.47992 19.2494 8.75048 23.5199 13.9999 23.5199C19.2494 23.5199 23.5199 19.2494 23.5199 13.9999C23.5199 8.75048 19.2494 4.47992 13.9999 4.47992Z" fill="#1F212B"/>
<path d="M18.3399 6.78357C18.3155 6.78357 18.2911 6.77741 18.2687 6.76425C18.0901 6.65897 17.9047 6.55873 17.7174 6.46577C17.6483 6.43133 17.62 6.34733 17.6541 6.27789C17.6889 6.20845 17.7734 6.18073 17.842 6.21461C18.0349 6.31065 18.2265 6.41453 18.4107 6.52317C18.4773 6.56265 18.4995 6.64833 18.4603 6.71497C18.4345 6.75893 18.3877 6.78357 18.3399 6.78357Z" fill="#1F212B"/>
<path d="M19.1798 7.34968C19.1501 7.34968 19.1202 7.34044 19.0947 7.32084C19.0043 7.25168 18.9124 7.18448 18.8195 7.11896C18.7559 7.07444 18.7408 6.98708 18.7853 6.92408C18.8298 6.86052 18.9177 6.84568 18.9802 6.88992C19.0765 6.9574 19.1717 7.02684 19.2649 7.09824C19.3265 7.14528 19.338 7.23292 19.2913 7.29452C19.2635 7.33092 19.2218 7.34968 19.1798 7.34968Z" fill="#1F212B"/>
<path d="M13.9998 22.6801C9.2135 22.6801 5.31982 18.7864 5.31982 14.0001C5.31982 9.21375 9.2135 5.32007 13.9998 5.32007C15.026 5.32007 16.0315 5.49787 16.988 5.84843C17.0608 5.87531 17.098 5.95567 17.0714 6.02819C17.0448 6.10127 16.9639 6.13795 16.8917 6.11163C15.966 5.77199 14.9933 5.60007 13.9998 5.60007C9.36806 5.60007 5.59982 9.36831 5.59982 14.0001C5.59982 18.6318 9.36806 22.4001 13.9998 22.4001C18.6316 22.4001 22.3998 18.6318 22.3998 14.0001C22.3998 11.6371 21.396 9.37027 19.6457 7.78043C19.5883 7.72835 19.5841 7.63987 19.6362 7.58275C19.6883 7.52563 19.7771 7.52115 19.8339 7.57323C21.6427 9.21599 22.6798 11.5582 22.6798 14.0001C22.6798 18.7864 18.7861 22.6801 13.9998 22.6801Z" fill="#1F212B"/>
<path d="M14.9798 10.5H16.3798V8.54004C16.3798 8.54004 14.9098 8.54004 14.4198 8.54004C13.3374 8.54004 12.4598 9.41756 12.4598 10.5V12.18H11.3398V14.14H12.4598V19.46H14.4198V14.14H16.0998L16.3798 12.18H14.4198V11.06C14.4198 10.7506 14.6707 10.5 14.9798 10.5Z" fill="#FEFDEF"/>
<path d="M14.4202 19.5999H12.4602C12.3829 19.5999 12.3202 19.5372 12.3202 19.4599V14.2799H11.3402C11.2629 14.2799 11.2002 14.2172 11.2002 14.1399V12.1799C11.2002 12.1026 11.2629 12.0399 11.3402 12.0399H12.3202V10.4999C12.3202 9.34182 13.2621 8.3999 14.4202 8.3999H16.3802C16.4575 8.3999 16.5202 8.46262 16.5202 8.5399V10.4999C16.5202 10.5772 16.4575 10.6399 16.3802 10.6399H14.9802C14.7486 10.6399 14.5602 10.8283 14.5602 11.0599V12.0399H16.3802C16.4208 12.0399 16.4594 12.0575 16.486 12.0883C16.5126 12.1189 16.5247 12.1595 16.5188 12.1995L16.2388 14.1595C16.229 14.2287 16.1699 14.2799 16.1002 14.2799H14.5602V19.4599C14.5602 19.5372 14.4975 19.5999 14.4202 19.5999ZM12.6002 19.3199H14.2802V14.1399C14.2802 14.0626 14.3429 13.9999 14.4202 13.9999H15.9787L16.2186 12.3199H14.4202C14.3429 12.3199 14.2802 12.2572 14.2802 12.1799V11.0599C14.2802 10.6738 14.5941 10.3599 14.9802 10.3599H16.2402V8.6799H14.4202C13.4167 8.6799 12.6002 9.49638 12.6002 10.4999V12.1799C12.6002 12.2572 12.5375 12.3199 12.4602 12.3199H11.4802V13.9999H12.4602C12.5375 13.9999 12.6002 14.0626 12.6002 14.1399V19.3199Z" fill="#1F212B"/>
</svg>
