<svg width="28" height="28" viewBox="0 0 28 28" fill="none" xmlns="http://www.w3.org/2000/svg">
<path d="M14.0002 4.19995C8.5878 4.19995 4.2002 8.58755 4.2002 14C4.2002 19.4124 8.5878 23.8 14.0002 23.8C19.4126 23.8 23.8002 19.4124 23.8002 14C23.8002 8.58755 19.4126 4.19995 14.0002 4.19995Z" fill="#4F97E9"/>
<path d="M13.9999 24.0799C8.44164 24.0799 3.91992 19.5582 3.91992 13.9999C3.91992 8.44164 8.44164 3.91992 13.9999 3.91992C19.5582 3.91992 24.0799 8.44164 24.0799 13.9999C24.0799 19.5582 19.5582 24.0799 13.9999 24.0799ZM13.9999 4.47992C8.75048 4.47992 4.47992 8.75048 4.47992 13.9999C4.47992 19.2494 8.75048 23.5199 13.9999 23.5199C19.2494 23.5199 23.5199 19.2494 23.5199 13.9999C23.5199 8.75048 19.2494 4.47992 13.9999 4.47992Z" fill="#1F212B"/>
<path d="M18.3398 6.78345C18.3154 6.78345 18.2908 6.77729 18.2684 6.76385C18.0898 6.65829 17.9047 6.55804 17.7176 6.46564C17.6485 6.4312 17.6199 6.34749 17.6541 6.27805C17.6885 6.20833 17.7731 6.18089 17.8417 6.21449C18.0346 6.30997 18.2264 6.41357 18.4109 6.52305C18.4773 6.56253 18.4994 6.64821 18.4602 6.71485C18.4342 6.75881 18.3877 6.78345 18.3398 6.78345ZM19.1798 7.34989C19.1501 7.34989 19.1202 7.34037 19.0947 7.32105C19.0045 7.25189 18.9127 7.18497 18.8194 7.11945C18.7562 7.07493 18.7408 6.98785 18.7853 6.92457C18.8295 6.86073 18.9169 6.84617 18.9802 6.89013C19.0768 6.95761 19.1714 7.02733 19.2649 7.09873C19.3265 7.14549 19.338 7.23341 19.2912 7.29501C19.2635 7.33085 19.2218 7.34989 19.1798 7.34989Z" fill="#1F212B"/>
<path d="M13.9998 22.6801C9.2135 22.6801 5.31982 18.7861 5.31982 14.0001C5.31982 9.21403 9.2135 5.32007 13.9998 5.32007C15.0269 5.32007 16.0323 5.49787 16.988 5.84815C17.0608 5.87475 17.098 5.95511 17.0714 6.02791C17.0448 6.10071 16.9642 6.13795 16.8917 6.11107C15.9668 5.77199 14.9941 5.60007 13.9998 5.60007C9.36806 5.60007 5.59982 9.36831 5.59982 14.0001C5.59982 18.6318 9.36806 22.4001 13.9998 22.4001C18.6316 22.4001 22.3998 18.6318 22.3998 14.0001C22.3998 11.6371 21.396 9.37027 19.6457 7.78043C19.5883 7.72835 19.5841 7.63987 19.6362 7.58247C19.6886 7.52535 19.7771 7.52115 19.8339 7.57295C21.6427 9.21599 22.6798 11.5585 22.6798 14.0001C22.6798 18.7861 18.7861 22.6801 13.9998 22.6801Z" fill="#1F212B"/>
<path d="M18.6323 11.2269C18.6521 11.1619 18.6507 11.102 18.6482 11.0483C18.6418 10.8929 18.5905 10.78 18.3388 10.78H17.2149C16.931 10.78 16.8002 10.9517 16.7238 11.1239C16.7238 11.1239 16.0232 12.5659 15.2154 13.517C14.9536 13.7923 14.8203 13.86 14.6787 13.86C14.6028 13.86 14.4107 13.6934 14.4107 13.4414V11.2154C14.4107 10.9175 14.3365 10.78 14.0965 10.78H12.1539C11.9792 10.78 11.8882 10.9175 11.8882 11.0553C11.8882 11.3417 12.1363 11.4103 12.1802 12.2128V13.7682C12.1802 14.1459 12.1984 14.14 12.0567 14.14C11.6745 14.14 10.9225 12.9268 10.4187 11.2387C10.3098 10.9063 10.2006 10.78 9.91697 10.78H8.69421C8.36661 10.78 8.31201 10.9405 8.31201 11.1124C8.31201 11.4221 8.65753 13.0953 10.0637 15.0198C11.0835 16.415 12.4266 17.22 13.6161 17.22C14.3365 17.22 14.4104 17.0366 14.4104 16.7505V15.4745C14.411 15.1307 14.4894 15.0083 14.7187 15.0083C14.8822 15.0083 15.216 15.1811 15.86 15.9323C16.6028 16.7986 16.7375 17.2203 17.1634 17.2203H18.2873C18.5483 17.2203 18.6502 17.1108 18.6561 16.8983C18.6575 16.8443 18.6496 16.7838 18.632 16.7163C18.5488 16.4691 18.2145 15.8645 17.7379 15.2883C17.4739 14.9694 17.1707 14.6533 17.0508 14.4816C16.9705 14.3696 16.9399 14.2907 16.9439 14.2151C16.9478 14.1355 16.9889 14.0599 17.0508 13.9544C17.0402 13.9541 18.4906 11.9143 18.6323 11.2269Z" fill="#FEFDEF"/>
<path d="M18.2872 17.3599H17.163C16.7979 17.3599 16.6153 17.1208 16.2838 16.6862C16.1472 16.507 15.9772 16.2844 15.7529 16.0232C15.0571 15.2112 14.785 15.1479 14.7183 15.1479C14.6173 15.1479 14.5503 15.1479 14.5501 15.4744V16.7503C14.5501 17.2003 14.3056 17.3602 13.6157 17.3602C12.3537 17.3602 10.9837 16.516 9.95051 15.1025C8.59307 13.2453 8.17139 11.5278 8.17139 11.1125C8.17139 10.7222 8.45559 10.6402 8.69359 10.6402H9.91635C10.2949 10.6402 10.4355 10.8437 10.5511 11.1949C11.0809 12.9701 11.796 13.9545 12.0399 13.9985C12.0404 13.9669 12.0401 13.9263 12.0399 13.8845V12.2127C12.0147 11.7571 11.922 11.5625 11.8472 11.4063C11.796 11.299 11.7478 11.1979 11.7478 11.0549C11.7478 10.8535 11.8901 10.6399 12.1535 10.6399H14.0962C14.5503 10.6399 14.5503 11.0579 14.5503 11.2153V13.4413C14.5503 13.6082 14.6674 13.7112 14.6973 13.7224C14.7542 13.7199 14.8505 13.6967 15.1134 13.4206C15.8943 12.5005 16.5899 11.077 16.5969 11.0627C16.7215 10.7838 16.9298 10.6399 17.2145 10.6399H18.3385C18.6252 10.6399 18.7764 10.7751 18.7879 11.0423C18.7907 11.1064 18.7918 11.182 18.7657 11.2677C18.6437 11.8627 17.6007 13.3934 17.2577 13.8966C17.2171 13.9559 17.1891 13.9968 17.177 14.0159L17.1714 14.0251C17.1213 14.1105 17.0857 14.1746 17.0835 14.2217C17.0821 14.248 17.0894 14.295 17.1644 14.4C17.2294 14.4933 17.3554 14.6355 17.5007 14.8001C17.6113 14.925 17.732 15.0619 17.8454 15.1989C18.3373 15.7939 18.6789 16.418 18.7641 16.6717C18.7876 16.7604 18.7971 16.8349 18.7954 16.9018C18.7898 17.1107 18.6969 17.3599 18.2872 17.3599ZM14.7183 14.8679C14.9964 14.8679 15.4046 15.1863 15.9657 15.8412C16.1948 16.1083 16.3678 16.3348 16.5064 16.5165C16.8329 16.9447 16.9466 17.0799 17.163 17.0799H18.2872C18.4958 17.0799 18.5129 17.0096 18.516 16.894C18.5171 16.8531 18.5104 16.8052 18.4964 16.7512C18.423 16.5345 18.094 15.9381 17.6301 15.3769C17.5186 15.2425 17.3999 15.1081 17.2913 14.9852C17.1401 14.8144 17.0093 14.6663 16.9359 14.5613C16.8379 14.4249 16.7985 14.3188 16.8041 14.2074C16.8094 14.0968 16.8595 14.0033 16.9298 13.8831L16.9315 13.884C16.9502 13.8501 16.981 13.805 17.0264 13.7384C17.9252 12.4196 18.4191 11.565 18.4947 11.1988C18.5109 11.1431 18.5101 11.1011 18.5081 11.0543C18.5042 10.9619 18.5025 10.9199 18.3385 10.9199H17.2145C17.0412 10.9199 16.9323 10.9977 16.8511 11.1809C16.8203 11.2447 16.1315 12.6542 15.3217 13.6076C15.0448 13.8988 14.8782 13.9999 14.6786 13.9999C14.5142 13.9999 14.2706 13.7653 14.2706 13.4413V11.2153C14.2706 10.9199 14.1975 10.9199 14.0965 10.9199H12.1538C12.034 10.9199 12.0281 11.0325 12.0281 11.0549C12.0281 11.1344 12.0553 11.1912 12.1003 11.2856C12.181 11.4547 12.2919 11.6865 12.3199 12.2048L12.3207 13.8823C12.3218 14.0749 12.3224 14.155 12.2566 14.2214C12.1981 14.2799 12.1236 14.2799 12.069 14.2799C11.5076 14.2799 10.7244 12.7539 10.2843 11.2783C10.1832 10.97 10.1076 10.9199 9.91691 10.9199H8.69415C8.45195 10.9199 8.45195 11.0089 8.45195 11.1123C8.45195 11.3531 8.75183 12.9871 10.1767 14.9371C11.1573 16.2788 12.4428 17.0799 13.616 17.0799C14.2703 17.0799 14.2703 16.9416 14.2703 16.7501V15.4741C14.2706 15.1742 14.3238 14.8679 14.7183 14.8679Z" fill="#1F212B"/>
</svg>
