<svg width="28" height="28" viewBox="0 0 28 28" fill="none" xmlns="http://www.w3.org/2000/svg">
<path d="M14.0002 4.19995C8.5878 4.19995 4.2002 8.58755 4.2002 14C4.2002 19.4124 8.5878 23.8 14.0002 23.8C19.4126 23.8 23.8002 19.4124 23.8002 14C23.8002 8.58755 19.4126 4.19995 14.0002 4.19995Z" fill="#DB584D"/>
<path d="M13.9999 3.91992C8.44164 3.91992 3.91992 8.44164 3.91992 13.9999C3.91992 19.5582 8.44164 24.0799 13.9999 24.0799C19.5582 24.0799 24.0799 19.5582 24.0799 13.9999C24.0799 8.44164 19.5582 3.91992 13.9999 3.91992ZM13.9999 23.5199C8.75048 23.5199 4.47992 19.2494 4.47992 13.9999C4.47992 8.75048 8.75048 4.47992 13.9999 4.47992C19.2494 4.47992 23.5199 8.75048 23.5199 13.9999C23.5199 19.2494 19.2494 23.5199 13.9999 23.5199Z" fill="#1F212B"/>
<path d="M20.1187 7.84371C20.0638 7.78939 19.9753 7.78939 19.9207 7.84427C19.8661 7.89915 19.8664 7.98791 19.9213 8.04223C21.5195 9.63095 22.3998 11.7466 22.3998 14.0001C22.3998 18.6318 18.6316 22.4001 13.9998 22.4001C9.36806 22.4001 5.59982 18.6318 5.59982 14.0001C5.59982 9.36831 9.36806 5.60007 13.9998 5.60007C14.9938 5.60007 15.9668 5.77199 16.8917 6.11107C16.9647 6.13739 17.0448 6.10071 17.0714 6.02763C17.098 5.95511 17.0608 5.87475 16.9883 5.84787C16.0323 5.49787 15.0269 5.32007 13.9998 5.32007C9.21378 5.32007 5.31982 9.21375 5.31982 14.0001C5.31982 18.7864 9.21378 22.6801 13.9998 22.6801C18.7859 22.6801 22.6798 18.7864 22.6798 14.0001C22.6798 11.6716 21.7701 9.48507 20.1187 7.84371Z" fill="#1F212B"/>
<path d="M17.7176 6.46536C17.9049 6.55832 18.0903 6.65856 18.2689 6.76384C18.3353 6.80332 18.4213 6.7812 18.4607 6.71428C18.4739 6.69188 18.4801 6.66752 18.4801 6.64344C18.4801 6.59556 18.4554 6.5488 18.4112 6.52276C18.2269 6.41412 18.0354 6.31024 17.8425 6.2142C17.7731 6.18004 17.6891 6.20832 17.6546 6.27748C17.6207 6.34608 17.6482 6.43064 17.7176 6.46536ZM19.0949 7.32076C19.1565 7.36752 19.2442 7.35604 19.2912 7.29444C19.3108 7.26924 19.3201 7.23928 19.3201 7.2096C19.3201 7.1676 19.3013 7.12588 19.2652 7.09844C19.1719 7.02704 19.0767 6.9576 18.9804 6.89012C18.9171 6.8456 18.8301 6.861 18.7855 6.92428C18.7413 6.98728 18.7564 7.07464 18.8197 7.11916C18.9127 7.1844 19.0045 7.2516 19.0949 7.32076Z" fill="#1F212B"/>
<path d="M14.6999 7.97998C10.7799 7.97998 9.37988 11.06 9.37988 12.74C9.37988 14.3452 10.2426 15.0875 10.7314 15.3795C10.8919 15.4753 11.0982 15.386 11.1436 15.2045L11.3052 14.5577C11.3262 14.474 11.3063 14.3869 11.2545 14.3181C11.0977 14.1103 10.7796 13.5842 10.7796 12.74C10.7796 11.34 11.8996 9.09998 14.4196 9.09998C18.8996 9.09998 17.7796 15.82 15.2596 15.82C14.4395 15.82 14.0615 15.3294 13.898 14.7591C14.1886 13.6262 14.4196 12.5952 14.4196 12.18C14.4196 11.06 13.5796 11.06 13.5796 11.06C13.0196 11.06 12.4596 11.62 12.4596 12.74C12.4596 12.9875 12.487 13.3448 12.557 13.7505L11.3399 18.62L11.6199 20.58L12.7399 18.9C12.7399 18.9 13.1207 17.6299 13.52 16.1789C13.9842 16.786 14.6352 17.22 15.5399 17.22C17.4999 17.22 19.1799 14.98 19.1799 12.18C19.1799 11.06 18.3399 7.97998 14.6999 7.97998Z" fill="white"/>
<path d="M11.6202 20.7201C11.6099 20.7201 11.5995 20.719 11.5894 20.7164C11.5329 20.7036 11.49 20.6574 11.4816 20.5997L11.2016 18.6397C11.1991 18.622 11.2 18.6036 11.2044 18.5862L12.4146 13.7453C12.3326 13.257 12.3202 12.907 12.3202 12.7401C12.3202 11.4896 12.9735 10.9201 13.5802 10.9201C13.59 10.9201 14.5602 10.9346 14.5602 12.1801C14.5602 12.5497 14.3866 13.4166 14.0439 14.7564C14.2332 15.378 14.6314 15.6801 15.2602 15.6801C16.478 15.6801 17.3264 13.9304 17.3264 12.3601C17.3264 11.507 17.0886 10.74 16.6572 10.2002C16.1478 9.56293 15.3952 9.24009 14.4202 9.24009C12.0327 9.24009 10.9202 11.3286 10.9202 12.7401C10.9202 13.5538 11.2327 14.0558 11.3671 14.2342C11.4452 14.338 11.4724 14.4682 11.4419 14.5917L11.2803 15.2385C11.2476 15.3698 11.1571 15.4748 11.0322 15.5266C10.9093 15.5776 10.7735 15.5675 10.6601 15.4995C10.1298 15.1834 9.24023 14.4038 9.24023 12.7401C9.24023 11.1413 10.575 7.84009 14.7002 7.84009C18.4716 7.84009 19.3202 11.0542 19.3202 12.1801C19.3202 15.0364 17.6246 17.3601 15.5402 17.3601C14.7697 17.3601 14.1125 17.0627 13.5836 16.4747C13.2157 17.8016 12.878 18.9284 12.8744 18.9404C12.8704 18.9538 12.8646 18.9664 12.857 18.9779L11.737 20.6579C11.7104 20.6971 11.6664 20.7201 11.6202 20.7201ZM11.4828 18.6274L11.707 20.1973L12.612 18.8396C12.6624 18.6716 13.018 17.4763 13.3851 16.1412C13.3994 16.09 13.4411 16.0514 13.4934 16.041C13.5469 16.0312 13.5993 16.0514 13.6315 16.0936C14.1318 16.748 14.7742 17.0801 15.5402 17.0801C17.4372 17.0801 19.0402 14.8362 19.0402 12.1801C19.0402 11.1267 18.2428 8.12009 14.7002 8.12009C10.7864 8.12009 9.52023 11.2326 9.52023 12.7401C9.52023 14.2655 10.3244 14.9734 10.8035 15.2592C10.8542 15.29 10.9015 15.2774 10.925 15.2679C10.9667 15.2506 10.9975 15.215 11.0084 15.1705L11.17 14.5237C11.1804 14.4828 11.1706 14.4383 11.1434 14.4022C10.9555 14.1535 10.6402 13.6061 10.6402 12.7401C10.6402 11.2158 11.8417 8.96009 14.4202 8.96009C15.4697 8.96009 16.3186 9.32829 16.8761 10.0255C17.3471 10.6146 17.6064 11.4434 17.6064 12.3601C17.6064 14.0986 16.6636 15.9601 15.2602 15.9601C14.4992 15.9601 13.982 15.558 13.7642 14.7978C13.7575 14.7737 13.7569 14.7485 13.7631 14.7244C14.1906 13.0573 14.2802 12.4206 14.2802 12.1801C14.2802 11.2113 13.6091 11.2001 13.5802 11.2001C13.1082 11.2001 12.6002 11.682 12.6002 12.7401C12.6002 13.0145 12.635 13.3743 12.6957 13.7268C12.6991 13.7458 12.6982 13.7657 12.6935 13.7845L11.4828 18.6274Z" fill="#1F212B"/>
</svg>
