<svg width="28" height="28" viewBox="0 0 28 28" fill="none" xmlns="http://www.w3.org/2000/svg">
<path d="M14.0002 23.7999C19.4126 23.7999 23.8002 19.4123 23.8002 14C23.8002 8.58756 19.4126 4.19995 14.0002 4.19995C8.5878 4.19995 4.2002 8.58756 4.2002 14C4.2002 19.4123 8.5878 23.7999 14.0002 23.7999Z" fill="#23C1F3"/>
<path d="M13.5903 16.9221L12.1122 18.2873C12.1122 18.2873 12.0483 18.3372 11.961 18.3394C11.9313 18.3417 11.8991 18.3372 11.8672 18.3221L12.2824 15.8169L13.5903 16.9221Z" fill="#B3B2C3"/>
<path d="M16.7 18.5158C16.7 18.5158 16.632 18.8999 16.1633 18.8999C15.9141 18.8999 15.7864 18.7806 15.7864 18.7806L12.2847 15.8171L10.57 14.9379L8.36974 14.341C8.36974 14.341 7.97998 14.2259 7.97998 13.8958C7.97998 13.62 8.38262 13.4898 8.38262 13.4898L17.584 9.76407C17.584 9.76407 17.8206 9.65991 18.025 9.65991C18.2 9.65991 18.34 9.76491 18.34 9.93991C18.34 9.97379 18.3366 10.0105 18.3319 10.0449C18.3215 10.1205 16.7 18.5158 16.7 18.5158Z" fill="white"/>
<path d="M16.615 11.4269C16.573 11.3701 16.51 11.3404 16.4456 11.3401C16.3994 11.3398 16.3527 11.3547 16.3126 11.3857L10.5698 14.9401C10.5698 14.9401 11.6655 18.0061 11.6876 18.0601C11.7917 18.3149 11.8671 18.3222 11.8671 18.3222L12.2823 15.817L16.5747 11.7352C16.631 11.6921 16.6601 11.6263 16.6598 11.5602C16.6598 11.5134 16.645 11.4664 16.615 11.4269Z" fill="#D7D6EB"/>
<path d="M13.9999 24.0799C8.44164 24.0799 3.91992 19.5582 3.91992 13.9999C3.91992 8.44164 8.44164 3.91992 13.9999 3.91992C19.5582 3.91992 24.0799 8.44164 24.0799 13.9999C24.0799 19.5582 19.5582 24.0799 13.9999 24.0799ZM13.9999 4.47992C8.75048 4.47992 4.47992 8.75048 4.47992 13.9999C4.47992 19.2494 8.75048 23.5199 13.9999 23.5199C19.2494 23.5199 23.5199 19.2494 23.5199 13.9999C23.5199 8.75048 19.2494 4.47992 13.9999 4.47992Z" fill="#1F212B"/>
<path d="M18.3398 6.78345C18.3154 6.78345 18.2908 6.77729 18.2684 6.76385C18.0898 6.65829 17.9047 6.55804 17.7176 6.46564C17.6485 6.4312 17.6199 6.34749 17.6541 6.27805C17.6885 6.20833 17.7731 6.18089 17.8417 6.21449C18.0346 6.30997 18.2264 6.41357 18.4109 6.52305C18.4773 6.56253 18.4994 6.64821 18.4602 6.71485C18.4342 6.75881 18.3877 6.78345 18.3398 6.78345Z" fill="#1F212B"/>
<path d="M19.1802 7.35003C19.1506 7.35003 19.1206 7.34051 19.0951 7.32119C19.005 7.25203 18.9131 7.18511 18.8199 7.11959C18.7566 7.07507 18.7412 6.98799 18.7857 6.92471C18.83 6.86087 18.9173 6.84631 18.9806 6.89027C19.0772 6.95775 19.1718 7.02747 19.2654 7.09887C19.327 7.14563 19.3384 7.23355 19.2917 7.29515C19.264 7.33099 19.2222 7.35003 19.1802 7.35003Z" fill="#1F212B"/>
<path d="M13.9998 22.6801C9.2135 22.6801 5.31982 18.7861 5.31982 14.0001C5.31982 9.21403 9.2135 5.32007 13.9998 5.32007C15.0269 5.32007 16.0323 5.49787 16.988 5.84815C17.0608 5.87475 17.098 5.95511 17.0714 6.02791C17.0448 6.10071 16.9642 6.13795 16.8917 6.11107C15.9668 5.77199 14.9941 5.60007 13.9998 5.60007C9.36806 5.60007 5.59982 9.36831 5.59982 14.0001C5.59982 18.6318 9.36806 22.4001 13.9998 22.4001C18.6316 22.4001 22.3998 18.6318 22.3998 14.0001C22.3998 11.6371 21.396 9.37027 19.6457 7.78043C19.5883 7.72835 19.5841 7.63987 19.6362 7.58247C19.6886 7.52535 19.7771 7.52115 19.8339 7.57295C21.6427 9.21599 22.6798 11.5585 22.6798 14.0001C22.6798 18.7861 18.7861 22.6801 13.9998 22.6801Z" fill="#1F212B"/>
<path d="M16.1631 19.04C15.8674 19.04 15.7078 18.8992 15.6905 18.8829L12.2064 15.9345L10.5192 15.0691L8.33292 14.4757C8.30996 14.469 7.83984 14.3254 7.83984 13.8956C7.83984 13.5223 8.31892 13.363 8.33908 13.3563L17.5312 9.63426C17.5382 9.63118 17.7936 9.52002 18.0248 9.52002C18.2883 9.52002 18.4798 9.6967 18.4798 9.94002C18.4798 9.98006 18.4756 10.0235 18.4703 10.0638C18.4597 10.1411 17.0045 17.677 16.8374 18.5413C16.806 18.7144 16.6257 19.04 16.1631 19.04ZM18.0248 9.80002C17.8532 9.80002 17.6421 9.8913 17.6401 9.89242L8.43484 13.6195C8.34664 13.6489 8.11984 13.7553 8.11984 13.8956C8.11984 14.1154 8.40684 14.2055 8.40964 14.2064L10.6065 14.8025C10.616 14.805 10.625 14.8084 10.634 14.8131L12.3487 15.6926C12.3579 15.6974 12.3669 15.7035 12.3753 15.7103L15.8767 18.6738C15.8837 18.6799 15.9778 18.76 16.1631 18.76C16.5103 18.76 16.5602 18.5024 16.5621 18.4912C16.5621 18.4907 16.5624 18.4898 16.5624 18.4893C17.1182 15.6111 18.1746 10.1377 18.1934 10.0237C18.1968 9.99798 18.1998 9.96802 18.1998 9.94002C18.1998 9.80674 18.054 9.80002 18.0248 9.80002Z" fill="#1F212B"/>
<path d="M11.9436 18.4799C11.8991 18.4799 11.8518 18.4693 11.8075 18.4483C11.751 18.4214 11.7193 18.3606 11.7294 18.2987L12.1446 15.7939C12.1528 15.7443 12.1869 15.7029 12.2342 15.6855C12.2818 15.6679 12.3345 15.6774 12.3728 15.7099L13.6804 16.8147C13.7112 16.8405 13.7294 16.8786 13.7303 16.9186C13.7311 16.9589 13.7146 16.9973 13.6852 17.0245L12.2074 18.3897C12.1819 18.4105 12.0917 18.4757 11.9649 18.4791C11.9579 18.4799 11.9509 18.4799 11.9436 18.4799ZM12.3807 16.0828L12.0346 18.1694L13.3792 16.9265L12.3807 16.0828Z" fill="#1F212B"/>
<path d="M11.8674 18.4621C11.863 18.4621 11.8585 18.4618 11.8537 18.4615C11.7479 18.4512 11.6488 18.3339 11.5583 18.1129C11.5362 18.0586 10.6214 15.4997 10.4383 14.987C10.4162 14.9249 10.4403 14.8554 10.4966 14.8207L16.2394 11.2664C16.2917 11.2252 16.362 11.1983 16.4468 11.2C16.5577 11.2003 16.6599 11.2527 16.7274 11.3425C16.7744 11.4047 16.8002 11.482 16.8002 11.5601C16.8002 11.6735 16.7492 11.7777 16.6608 11.846L12.4132 15.8864L12.0055 18.3451C11.9943 18.4131 11.9352 18.4621 11.8674 18.4621ZM10.7399 14.9993C11.0832 15.9592 11.656 17.5616 11.7902 17.9318L12.1446 15.794C12.1497 15.764 12.1642 15.7363 12.1861 15.7156L16.4785 11.6335C16.509 11.6094 16.5202 11.5859 16.5202 11.5601C16.5202 11.5478 16.5174 11.529 16.5037 11.5111C16.5037 11.5108 16.5034 11.5105 16.5031 11.5105C16.4886 11.4909 16.4709 11.4873 16.4449 11.48C16.4281 11.48 16.4121 11.4859 16.3981 11.4965L10.7399 14.9993Z" fill="#1F212B"/>
</svg>
