<svg width="28" height="28" viewBox="0 0 28 28" fill="none" xmlns="http://www.w3.org/2000/svg">
<path d="M13.9999 4.47998C8.43296 4.47998 3.91992 8.61698 3.91992 13.72C3.91992 16.5782 5.33616 19.1327 7.55992 20.8278V24.64L11.1957 22.5949C12.0861 22.8309 13.0264 22.96 13.9999 22.96C19.5669 22.96 24.0799 18.823 24.0799 13.72C24.0799 8.61698 19.5669 4.47998 13.9999 4.47998Z" fill="#78A2D2"/>
<path d="M7.41992 16.9401L13.0199 11.0601L15.5399 13.3001L20.5799 11.0601L14.9799 16.9401L12.7399 14.1401L7.41992 16.9401Z" fill="#FEFDEF"/>
<path d="M7.56014 24.92C7.51142 24.92 7.46242 24.9074 7.41874 24.8816C7.33278 24.8315 7.28014 24.7394 7.28014 24.64V20.965C4.96482 19.1508 3.64014 16.5177 3.64014 13.72C3.64014 8.47051 8.28758 4.19995 14.0001 4.19995C19.7127 4.19995 24.3601 8.47051 24.3601 13.72C24.3601 18.9694 19.7127 23.24 14.0001 23.24C13.0675 23.24 12.1379 23.1238 11.2349 22.8944L7.69734 24.8841C7.65478 24.9079 7.60746 24.92 7.56014 24.92ZM14.0001 4.75995C8.59642 4.75995 4.20014 8.77935 4.20014 13.72C4.20014 16.3856 5.48674 18.8952 7.72982 20.6049C7.79926 20.6581 7.84014 20.7404 7.84014 20.8278V24.1612L11.0587 22.351C11.1223 22.3151 11.1971 22.3062 11.2679 22.3244C12.1583 22.5604 13.0778 22.68 14.0001 22.68C19.4039 22.68 23.8001 18.6606 23.8001 13.72C23.8001 8.77935 19.4039 4.75995 14.0001 4.75995Z" fill="#1F212B"/>
<path d="M7.42022 17.08C7.37738 17.08 7.33566 17.0604 7.3085 17.0243C7.26734 16.9697 7.27154 16.8929 7.31886 16.8434L12.9189 10.9634C12.9712 10.9088 13.0572 10.9051 13.1132 10.9553L15.5657 13.1353L20.5234 10.932C20.5839 10.9054 20.6561 10.9247 20.6947 10.9793C20.7334 11.0339 20.7278 11.1081 20.6819 11.1566L15.0819 17.0366C15.0539 17.066 15.0161 17.0833 14.9743 17.08C14.934 17.0783 14.8962 17.0593 14.871 17.0276L12.7033 14.3178L7.48546 17.064C7.46474 17.0747 7.44234 17.08 7.42022 17.08ZM12.7402 14C12.7817 14 12.8223 14.0182 12.8497 14.0526L14.9895 16.7275L19.9922 11.4747L15.5973 13.4279C15.5472 13.4503 15.4887 13.4408 15.4475 13.4047L13.0286 11.2546L8.10986 16.4189L12.675 14.0162C12.6957 14.0053 12.7181 14 12.7402 14Z" fill="#1F212B"/>
<path d="M14 21.8401C9.05944 21.8401 5.04004 18.1976 5.04004 13.7201C5.04004 9.24262 9.05944 5.6001 14 5.6001C15.9018 5.6001 17.7196 6.13462 19.257 7.14598C19.3214 7.18854 19.3394 7.27534 19.2971 7.34002C19.2548 7.40442 19.1683 7.4229 19.103 7.38006C17.6115 6.39866 15.8469 5.8801 14 5.8801C9.214 5.8801 5.32004 9.39718 5.32004 13.7201C5.32004 18.043 9.214 21.5601 14 21.5601C18.7861 21.5601 22.68 18.043 22.68 13.7201C22.68 12.9241 22.5482 12.1389 22.2886 11.3857C22.2634 11.3127 22.302 11.2329 22.3754 11.2077C22.4488 11.1822 22.5283 11.2211 22.5535 11.2945C22.8231 12.0768 22.96 12.893 22.96 13.7201C22.96 18.1976 18.9406 21.8401 14 21.8401Z" fill="#1F212B"/>
<path d="M21.1895 9.24008C21.1481 9.24008 21.1069 9.22188 21.0792 9.1866C20.6698 8.66608 20.1905 8.19092 19.6543 7.77456C19.5932 7.72724 19.582 7.63932 19.6296 7.578C19.6769 7.51724 19.7649 7.50576 19.8262 7.55336C20.3803 7.98372 20.8762 8.47512 21.2995 9.01356C21.3474 9.07432 21.3368 9.16224 21.276 9.21012C21.2503 9.23028 21.2197 9.24008 21.1895 9.24008Z" fill="#1F212B"/>
<path d="M21.769 10.0799C21.7214 10.0799 21.6746 10.0555 21.6486 10.0113C21.5931 9.91832 21.5349 9.82732 21.4755 9.7366C21.4332 9.67192 21.4512 9.58512 21.5158 9.54284C21.5805 9.5 21.6673 9.51876 21.7096 9.58316C21.7715 9.67724 21.832 9.77188 21.8894 9.86848C21.9288 9.93484 21.907 10.0208 21.8406 10.0603C21.8177 10.0737 21.793 10.0799 21.769 10.0799Z" fill="#1F212B"/>
</svg>
