<svg width="15" height="15" viewBox="0 0 15 15" fill="none" xmlns="http://www.w3.org/2000/svg">
<path d="M15 7.50003C15 7.02882 14.9558 6.55717 14.8683 6.09926C14.8288 5.89198 14.6472 5.74219 14.4365 5.74219H7.5293C7.2864 5.74219 7.08984 5.93874 7.08984 6.18164V8.81836C7.08984 9.06126 7.2864 9.25781 7.5293 9.25781H11.0733C10.8524 9.70482 10.5481 10.0927 10.1908 10.419L12.6746 12.9028C14.1037 11.5412 15 9.6252 15 7.50003Z" fill="#767676"/>
<path d="M7.50002 3.51562C8.36219 3.51562 9.1823 3.78943 9.87151 4.30784C10.0457 4.43874 10.2917 4.42286 10.4461 4.26706L12.3215 2.39165C12.4087 2.30452 12.4554 2.18479 12.4499 2.06162C12.4443 1.93846 12.3876 1.82344 12.2932 1.74404C10.9513 0.619277 9.2488 0 7.50002 0C4.92631 0 2.65261 1.30822 1.3085 3.29449L3.88803 5.87402C4.50344 4.48781 5.88807 3.51562 7.50002 3.51562Z" fill="#767676"/>
<path d="M7.50002 15C9.17764 15 10.7225 14.4375 11.9708 13.5004L9.44038 10.97C8.862 11.2956 8.20094 11.4844 7.50002 11.4844C5.88807 11.4844 4.50344 10.5122 3.88803 9.12598L1.3085 11.7055C2.65261 13.6918 4.92631 15 7.50002 15Z" fill="#767676"/>
<path d="M3.57961 8.13296C3.54595 7.92556 3.51562 7.7167 3.51562 7.5C3.51562 7.28329 3.54595 7.07443 3.57961 6.86704L0.82207 4.1095C0.300352 5.12844 0 6.27878 0 7.5C0 8.72121 0.300352 9.87155 0.8221 10.8905L3.57961 8.13296Z" fill="#767676"/>
</svg>
