<svg id="Слой_1" data-name="Слой 1" xmlns="http://www.w3.org/2000/svg" xmlns:xlink="http://www.w3.org/1999/xlink" viewBox="0 0 2598.54 2251.91"><defs><style>.cls-1,.cls-17{fill:#5f431f;}.cls-1,.cls-21,.cls-23{stroke:#432f1f;}.cls-1,.cls-10,.cls-102,.cls-103,.cls-104,.cls-107,.cls-109,.cls-114,.cls-116,.cls-117,.cls-118,.cls-12,.cls-127,.cls-129,.cls-13,.cls-14,.cls-15,.cls-16,.cls-2,.cls-21,.cls-23,.cls-27,.cls-3,.cls-39,.cls-4,.cls-40,.cls-45,.cls-47,.cls-5,.cls-51,.cls-53,.cls-54,.cls-56,.cls-58,.cls-6,.cls-7,.cls-73,.cls-79,.cls-84,.cls-87,.cls-88,.cls-89,.cls-9,.cls-95,.cls-96{stroke-miterlimit:10;}.cls-1,.cls-23{stroke-width:10.89px;}.cls-2,.cls-24{fill:#f6d9bc;}.cls-2,.cls-27{stroke:#bb7954;}.cls-10,.cls-12,.cls-2,.cls-27,.cls-40,.cls-73,.cls-84{stroke-width:8px;}.cls-3,.cls-87,.cls-88,.cls-89{stroke:#333;}.cls-14,.cls-15,.cls-16,.cls-3,.cls-87,.cls-88{stroke-width:13px;}.cls-3,.cls-85{fill:url(#Безымянный_градиент_12);}.cls-107,.cls-13,.cls-39,.cls-4,.cls-45,.cls-54,.cls-79,.cls-9,.cls-95,.cls-96{stroke-width:9px;}.cls-4,.cls-92{fill:url(#Безымянный_градиент_13);}.cls-4,.cls-95{stroke:url(#Безымянный_градиент_19);}.cls-5,.cls-98{fill:#be865e;}.cls-102,.cls-5{stroke:#754c24;}.cls-102,.cls-5,.cls-89{stroke-width:14px;}.cls-103,.cls-104,.cls-110,.cls-6{fill:#009c10;}.cls-103,.cls-104,.cls-109,.cls-114,.cls-6{stroke-width:10px;}.cls-114,.cls-6{stroke:url(#Безымянный_градиент_52);}.cls-122,.cls-7{fill:#2f365c;}.cls-127,.cls-21,.cls-7{stroke-width:7px;}.cls-127,.cls-7{stroke:url(#Безымянный_градиент_78);}.cls-8{fill:#f5daba;}.cls-102,.cls-109,.cls-114,.cls-127,.cls-14,.cls-15,.cls-16,.cls-21,.cls-23,.cls-27,.cls-39,.cls-40,.cls-45,.cls-51,.cls-53,.cls-54,.cls-58,.cls-73,.cls-79,.cls-84,.cls-88,.cls-9,.cls-95{fill:none;}.cls-9{stroke:url(#Безымянный_градиент_7);}.cls-10,.cls-12,.cls-70{fill:#1d88d1;}.cls-10,.cls-73{stroke:url(#Безымянный_градиент_44);}.cls-11{fill:#eabf97;}.cls-12,.cls-84{stroke:#005e9f;}.cls-13{fill:#c6e3f1;stroke:#95b1cc;}.cls-107,.cls-129,.cls-14,.cls-15,.cls-16{stroke:#fff;}.cls-15{stroke-dasharray:69.92 29.97 69.92 29.97;}.cls-16{stroke-dasharray:69.92 29.97 69.92 29.97 69.92 29.97;}.cls-18{clip-path:url(#clip-path);}.cls-19{fill:#583415;}.cls-20{fill:#745230;}.cls-21,.cls-40,.cls-58{stroke-linecap:round;}.cls-22{fill:#432f1f;}.cls-25{clip-path:url(#clip-path-2);}.cls-26{fill:#fdecd4;}.cls-28{clip-path:url(#clip-path-3);}.cls-29{fill:#eaba91;}.cls-30{clip-path:url(#clip-path-4);}.cls-31{fill:#fae3c8;}.cls-32{fill:url(#Безымянный_градиент_31);}.cls-33{fill:url(#Безымянный_градиент_31-2);}.cls-34{fill:url(#Безымянный_градиент_31-3);}.cls-35{fill:url(#Безымянный_градиент_31-4);}.cls-36{fill:url(#Безымянный_градиент_7-2);}.cls-37{clip-path:url(#clip-path-5);}.cls-38{fill:url(#Безымянный_градиент_7-3);}.cls-39{stroke:url(#Безымянный_градиент_7-5);}.cls-40{stroke:#fff4e5;}.cls-41{fill:#ecc49f;}.cls-42{fill:url(#Безымянный_градиент_34);}.cls-43{fill:url(#Безымянный_градиент_34-2);}.cls-44{fill:#fff6e3;}.cls-45{stroke:url(#Безымянный_градиент_7-6);}.cls-46{fill:#faf3e3;}.cls-47{fill:#a2bf40;}.cls-47,.cls-56{stroke:#1a1a1a;}.cls-47,.cls-53,.cls-56{stroke-width:3px;}.cls-48{fill:#1a1a1a;}.cls-49{fill:url(#Безымянный_градиент_5);}.cls-50{fill:#42210b;}.cls-51,.cls-53{stroke:#42210b;}.cls-51{stroke-width:2px;}.cls-52{fill:#fee4cb;}.cls-54{stroke:url(#Безымянный_градиент_7-7);}.cls-105,.cls-129,.cls-55,.cls-56{fill:#fff;}.cls-57{fill:url(#Безымянный_градиент_5-2);}.cls-58{stroke:#bd8759;stroke-width:4px;}.cls-59{fill:#bd8759;}.cls-60{fill:#ffa59b;}.cls-61{fill:#ff958b;}.cls-62{fill:#e6665a;}.cls-63{fill:#fdc3be;}.cls-64{fill:#f9e5c9;}.cls-65{fill:#faf1dd;}.cls-66{fill:url(#Безымянный_градиент_9);}.cls-67{fill:#fee7cd;}.cls-68{clip-path:url(#clip-path-6);}.cls-69{fill:#ebc3a0;}.cls-71{clip-path:url(#clip-path-7);}.cls-72{fill:#1d5ed1;}.cls-74{clip-path:url(#clip-path-8);}.cls-75{fill:#f8d4b3;}.cls-76{fill:#f8dabd;}.cls-77{clip-path:url(#clip-path-9);}.cls-78{fill:#bd8461;}.cls-79{stroke:#bd8461;}.cls-80{fill:#fff2dd;}.cls-81{clip-path:url(#clip-path-10);}.cls-82{fill:#1dace7;}.cls-83{fill:#1d92d1;}.cls-86{clip-path:url(#clip-path-11);}.cls-87{fill:url(#Безымянный_градиент_12-3);}.cls-89,.cls-90{fill:#4d4d4d;}.cls-91{fill:#b3b3b3;}.cls-93{clip-path:url(#clip-path-12);}.cls-94{fill:url(#Безымянный_градиент_38);}.cls-96{stroke:#92a6b3;fill:url(#Безымянный_градиент_13-3);}.cls-97{fill:#9aa6b3;}.cls-99{clip-path:url(#clip-path-13);}.cls-100{fill:#d49d80;}.cls-101{fill:#915e40;}.cls-103{stroke:url(#Безымянный_градиент_42);}.cls-104{stroke:url(#Безымянный_градиент_42-2);}.cls-105{opacity:0.43;}.cls-106,.cls-107{fill:#f2f2f2;}.cls-108{fill:url(#Безымянный_градиент_49);}.cls-109{stroke:url(#Безымянный_градиент_52-2);}.cls-111{clip-path:url(#clip-path-14);}.cls-112{fill:#2ab84c;}.cls-113{fill:#00870d;}.cls-115{fill:#005a09;}.cls-116,.cls-117,.cls-118{stroke-width:6px;}.cls-116{fill:url(#Безымянный_градиент_103);stroke:url(#Безымянный_градиент_102);}.cls-117{fill:#006a0b;stroke:url(#Безымянный_градиент_59);}.cls-118{fill:#00830d;stroke:url(#Безымянный_градиент_59-2);}.cls-119{fill:#006837;}.cls-120{fill:#004c37;}.cls-121{fill:gray;}.cls-123{clip-path:url(#clip-path-15);}.cls-124{fill:#42547e;}.cls-125{fill:#121c39;}.cls-126{fill:#272a4a;}.cls-128{fill:#47bf3d;}.cls-130{fill:#a6cae4;}</style><linearGradient id="Безымянный_градиент_12" x1="1293.74" y1="2073.77" x2="1293.74" y2="1513.92" gradientUnits="userSpaceOnUse"><stop offset="0" stop-color="#4d4d4d"/><stop offset="1" stop-color="#959597"/></linearGradient><linearGradient id="Безымянный_градиент_13" x1="908.74" y1="242.2" x2="1270.39" y2="242.2" gradientUnits="userSpaceOnUse"><stop offset="0" stop-color="#fff"/><stop offset="1" stop-color="#f8f9fd"/></linearGradient><linearGradient id="Безымянный_градиент_19" x1="1200.32" y1="274.62" x2="948.32" y2="129.12" gradientUnits="userSpaceOnUse"><stop offset="0" stop-color="#bec6cf"/><stop offset="1" stop-color="#638eaf"/></linearGradient><linearGradient id="Безымянный_градиент_52" x1="2024.21" y1="2111.23" x2="2024.21" y2="1938.38" gradientUnits="userSpaceOnUse"><stop offset="0" stop-color="#00750b"/><stop offset="1" stop-color="#39ad45"/></linearGradient><linearGradient id="Безымянный_градиент_78" x1="564.47" y1="1979.34" x2="564.47" y2="2133.54" gradientUnits="userSpaceOnUse"><stop offset="0" stop-color="#5e6b9a"/><stop offset="1" stop-color="#121c39"/></linearGradient><linearGradient id="Безымянный_градиент_7" x1="1519.13" y1="773.48" x2="1576.01" y2="773.48" gradientUnits="userSpaceOnUse"><stop offset="0" stop-color="#e2a470"/><stop offset="1" stop-color="#ad744a"/></linearGradient><linearGradient id="Безымянный_градиент_44" x1="981.79" y1="1161" x2="1626.11" y2="1533" gradientUnits="userSpaceOnUse"><stop offset="0" stop-color="#94ceff"/><stop offset="1" stop-color="#00319f"/></linearGradient><clipPath id="clip-path"><path class="cls-1" d="M1409.27,396.6s-28.82-62.59-89.65-52.16-165.14,27.35-220.78,119.73a476.23,476.23,0,0,0-57.53,146.23,121.65,121.65,0,0,0,2.76,60.41c6.45,21,16.56,48.44,29.06,63.73,22.23,27.18,7,97.73,7,97.73s-63.06,86.11-85.66,169.48-40,192.9-40,192.9,665.91,45.21,667.65,40,10.44-197.93-17.14-280-66.32-130.75-66.32-130.75l5.22-119.8s43.47-78,13.91-165-93-179.08-148.58-142.57"/></clipPath><clipPath id="clip-path-2"><path class="cls-2" d="M1619.19,1153.58s105.78,45,119.69,63.91,63.46,326.7,63.46,326.7H1695.42S1575,1318,1590.87,1304,1619.19,1153.58,1619.19,1153.58Z"/></clipPath><clipPath id="clip-path-3"><path class="cls-2" d="M1239.32,1003.8s7.12,106.89-112.4,110.69v181.07l234.4,135.62,132.34-100.8,53.08-199.46-128-124.79Z"/></clipPath><clipPath id="clip-path-4"><path class="cls-8" d="M1357.91,473s-121.86,64.36-160.4,81.68c-43.89,19.73-38.59,29.94-38.59,29.94s-36.75,146.39-36,156.83c-6.89-12.65-23.31-20.92-36.83-14.57s-16,44.51-9.2,60,28.7,72.93,48,77,13.34,7.72,13.34,7.72l29.2,60.18,79.19,75.78,74.06,28.3,51.42-7.23,61.11-41.23s67.63-46.77,81-130.16c0,0,11,.34,20.24-19.37,7.72-16.41,44.42-88,38.17-123.27-4.3-24.34-42-28.31-51-21.56l-25.75-102.8-32.8-34.09-94.83-76.23Z"/></clipPath><radialGradient id="Безымянный_градиент_31" cx="1218.94" cy="807.77" r="74.05" gradientUnits="userSpaceOnUse"><stop offset="0" stop-color="#f3c7af"/><stop offset="1" stop-color="#f6d9bc"/></radialGradient><radialGradient id="Безымянный_градиент_31-2" cx="1222.31" cy="805.01" r="74.05" xlink:href="#Безымянный_градиент_31"/><radialGradient id="Безымянный_градиент_31-3" cx="1210.26" cy="805.16" r="74.05" xlink:href="#Безымянный_градиент_31"/><radialGradient id="Безымянный_градиент_31-4" cx="1449.45" cy="799.71" r="74.05" xlink:href="#Безымянный_градиент_31"/><linearGradient id="Безымянный_градиент_7-2" x1="1090.97" y1="784.66" x2="1133.51" y2="784.66" xlink:href="#Безымянный_градиент_7"/><clipPath id="clip-path-5"><path class="cls-9" d="M1521.66,693s38.5-12.93,48,13.54-19.24,139-48.85,150.86"/></clipPath><linearGradient id="Безымянный_градиент_7-3" x1="1513.19" y1="761.27" x2="1550.46" y2="761.27" xlink:href="#Безымянный_градиент_7"/><linearGradient id="Безымянный_градиент_7-5" x1="1067.26" y1="798.12" x2="1139.33" y2="798.12" xlink:href="#Безымянный_градиент_7"/><linearGradient id="Безымянный_градиент_34" x1="1126.92" y1="863.82" x2="1278.1" y2="863.82" gradientUnits="userSpaceOnUse"><stop offset="0" stop-color="#efccac"/><stop offset="1" stop-color="#f1cfb4"/></linearGradient><linearGradient id="Безымянный_градиент_34-2" x1="-7233.97" y1="876.29" x2="-7083.62" y2="876.29" gradientTransform="matrix(-1, 0, 0, 1, -5703.31, 0)" xlink:href="#Безымянный_градиент_34"/><linearGradient id="Безымянный_градиент_7-6" x1="1159.39" y1="594.76" x2="1497.92" y2="933.3" xlink:href="#Безымянный_градиент_7"/><linearGradient id="Безымянный_градиент_5" x1="1180.2" y1="696.29" x2="1297.5" y2="696.29" gradientUnits="userSpaceOnUse"><stop offset="0" stop-color="#e4c0a3"/><stop offset="1" stop-color="#cca07a"/></linearGradient><linearGradient id="Безымянный_градиент_7-7" x1="1158.01" y1="526.49" x2="1359.04" y2="526.49" xlink:href="#Безымянный_градиент_7"/><linearGradient id="Безымянный_градиент_5-2" x1="-6376.66" y1="1232.11" x2="-6259.36" y2="1232.11" gradientTransform="matrix(-0.99, 0.14, 0.14, 0.99, -5010.22, 354.96)" xlink:href="#Безымянный_градиент_5"/><linearGradient id="Безымянный_градиент_9" x1="1298.38" y1="767.9" x2="1298.38" y2="665.98" gradientUnits="userSpaceOnUse"><stop offset="0" stop-color="#f0ceb3"/><stop offset="1" stop-color="#e8bc94"/></linearGradient><clipPath id="clip-path-6"><path class="cls-2" d="M1010.38,1122.54s-95.63.9-125.18,40.89-107.8,380.76-107.8,380.76H968.65l60.86-420.74Z"/></clipPath><clipPath id="clip-path-7"><path class="cls-10" d="M1010.38,1122.54l116.54-8s-5.28,155.09,86,215.89,236.78,27.14,267.48-62.09,56.12-141.44,61.67-145.75,91.51,38,91.51,38-25.73,135-20.2,155.88,0,227.76,0,227.76l-644.74-15.64S1012.12,1151.19,1010.38,1122.54Z"/></clipPath><clipPath id="clip-path-8"><path class="cls-2" d="M1538,1410.16c4.13,8.86,47.84,125.34,47.84,125.34l153-15.65-91.25-161.55Z"/></clipPath><clipPath id="clip-path-9"><path class="cls-11" d="M1477.93,1173s16-2.47,27.17-24.77c8.48-16.84,15.52-52.4,20.42-60.25-12.77-.44-31.69-27.2-49.21-25.42-7.43.77-3.25,2.74-13.36,13.47.1,37.18-26.44,32.4-37.41,33.51s-5.82,36.11-3.88,47.77c3.86,23.09,21,21.18,28,33.92s12.77,21.73,12.77,21.73l44.75,122.14s25.74.25,32.89-9.59c-3.51-9.79-58.36-121.81-58.36-121.81S1474.73,1184.2,1477.93,1173Z"/></clipPath><clipPath id="clip-path-10"><path class="cls-12" d="M1507.2,1335.12s64.77-7.2,99.54-45.21l40.89,68.39c-8.29,20.72-66,57.43-111.38,46.83Z"/></clipPath><clipPath id="clip-path-11"><path class="cls-3" d="M778.45,1513.92H1809A21.72,21.72,0,0,1,1830.5,1539l-80.19,516.4a21.71,21.71,0,0,1-21.46,18.39h-867a21.72,21.72,0,0,1-21.45-18.26L757,1539.11A21.72,21.72,0,0,1,778.45,1513.92Z"/></clipPath><linearGradient id="Безымянный_градиент_12-3" x1="1289.46" y1="1549.74" x2="1289.46" y2="1547.14" xlink:href="#Безымянный_градиент_12"/><clipPath id="clip-path-12"><path class="cls-4" d="M910.33,205.35c50.92-7.72,319.33-56.43,357.85-63.42a1.86,1.86,0,0,1,1.84,2.94l-144,196.87a1.88,1.88,0,0,1-2.64.39l-91.71-69a1.87,1.87,0,0,0-2.93,1L1011.7,335.4a1.87,1.87,0,0,1-3.64-.17l-16.62-92a1.87,1.87,0,0,0-1.14-1.4l-80.4-32.86A1.87,1.87,0,0,1,910.33,205.35Z"/></clipPath><linearGradient id="Безымянный_градиент_38" x1="985.95" y1="303.99" x2="1161.02" y2="224.69" gradientUnits="userSpaceOnUse"><stop offset="0" stop-color="#c0d1e2"/><stop offset="1" stop-color="#d7e7f6"/></linearGradient><linearGradient id="Безымянный_градиент_13-3" x1="1008.06" y1="317" x2="1065.77" y2="317" xlink:href="#Безымянный_градиент_13"/><clipPath id="clip-path-13"><rect class="cls-5" x="364.78" y="2136.79" width="1856.9" height="97.37" rx="42.89"/></clipPath><linearGradient id="Безымянный_градиент_42" x1="1907.53" y1="722.29" x2="1907.53" y2="338.27" gradientUnits="userSpaceOnUse"><stop offset="0" stop-color="#006a0b"/><stop offset="1" stop-color="#39ad45"/></linearGradient><linearGradient id="Безымянный_градиент_42-2" x1="-6093.44" y1="1446.98" x2="-6093.44" y2="1062.97" gradientTransform="matrix(-1, 0, 0, 1, -5539.14, 0)" xlink:href="#Безымянный_градиент_42"/><linearGradient id="Безымянный_градиент_49" x1="2356.96" y1="1473.16" x2="2356.96" y2="1243.44" gradientUnits="userSpaceOnUse"><stop offset="0" stop-color="#4a91b3"/><stop offset="1" stop-color="#b9c5d0"/></linearGradient><linearGradient id="Безымянный_градиент_52-2" x1="2102.48" y1="2018.64" x2="2174.78" y2="2018.64" xlink:href="#Безымянный_градиент_52"/><clipPath id="clip-path-14"><path class="cls-6" d="M1951.14,1943.9c26.11-1.26,119.93.11,145.9.53a6.81,6.81,0,0,1,6.71,6.82v88.29a66.69,66.69,0,0,1-66.7,66.69h-25.69a66.69,66.69,0,0,1-66.7-66.69v-88.83A6.81,6.81,0,0,1,1951.14,1943.9Z"/></clipPath><linearGradient id="Безымянный_градиент_103" x1="479.4" y1="1702.11" x2="479.4" y2="1980.48" gradientUnits="userSpaceOnUse"><stop offset="0" stop-color="#dbdbdd"/><stop offset="1" stop-color="#7c7c77"/></linearGradient><linearGradient id="Безымянный_градиент_102" x1="479.41" y1="1699.11" x2="479.41" y2="1983.48" gradientUnits="userSpaceOnUse"><stop offset="0" stop-color="#babdbf"/><stop offset="1" stop-color="#474745"/></linearGradient><linearGradient id="Безымянный_градиент_59" x1="660.31" y1="1983.48" x2="660.31" y2="1775.59" gradientUnits="userSpaceOnUse"><stop offset="0.01" stop-color="#005a09"/><stop offset="1" stop-color="#00ae38"/></linearGradient><linearGradient id="Безымянный_градиент_59-2" x1="565.51" y1="1983.48" x2="565.51" y2="1586.06" xlink:href="#Безымянный_градиент_59"/><clipPath id="clip-path-15"><path class="cls-7" d="M646.77,1982.84H482.18a13.65,13.65,0,0,0-13.62,13.62v35.93A13.64,13.64,0,0,0,481.28,2046L502.17,2130H624.46l19.31-84h3a13.66,13.66,0,0,0,13.62-13.62v-35.93A13.65,13.65,0,0,0,646.77,1982.84Z"/></clipPath></defs><title>Монтажная область 1 копия</title><path class="cls-13" d="M941.7,15S667.86,63,641.78,343.27,430.53,563.44,373.16,567.43.27,515.81.27,805.71c0,238.87,263.35,222,378.1,222,51.31,0,182.56-23.86,177.35,103.26L451.4,1217.49S-12.83,1198.81.27,1677.2C39.33,2243.14,707,2157.08,707,2157.08l1123.78-20.87s284.54-1.31,336.7-258.85c15.65-166.25,23.48-228.85,151.27-283.61,100.56-28.43,242.54,5.21,277.75-211.25,8-251.58-199.51-252.78-246.46-251.58-70.41,0-292.09,38.14-307.74-74.21s106.93-116.86,148.66-115.91,346.86-63.25,405.54-391.06c30-364.32-275.14-548.65-434.23-534.72S941.7,15,941.7,15Z"/><path class="cls-2" d="M794.21,1473.16S722.34,1851,756.72,1915.83s166.52,157.94,166.52,157.94V1728.2Z"/><path class="cls-14" d="M970.38,379.65c-1.78-.35-13,7.22-27.63,21.12"/><path class="cls-15" d="M922.12,422.49c-32.89,38.26-68.76,99-59,169.27"/><path class="cls-16" d="M865.78,606.5c10.43,45.88,41,95.31,104.6,144.86,240.67,187.56,499.87,75.66,705.9,165.37s319,225.1,352.5,389.52c31.41,154.23-16.36,420.79-241.25,518.89"/><path class="cls-14" d="M1773.69,1830.88q-16,6.27-33.08,11.42"/><path class="cls-17" d="M1409.27,396.6s-28.82-62.59-89.65-52.16-165.14,27.35-220.78,119.73a476.23,476.23,0,0,0-57.53,146.23,121.65,121.65,0,0,0,2.76,60.41c6.45,21,16.56,48.44,29.06,63.73,22.23,27.18,7,97.73,7,97.73s-63.06,86.11-85.66,169.48-40,192.9-40,192.9,665.91,45.21,667.65,40,10.44-197.93-17.14-280-66.32-130.75-66.32-130.75l5.22-119.8s43.47-78,13.91-165-93-179.08-148.58-142.57"/><g class="cls-18"><path class="cls-19" d="M1134.83,835.9c1.49,7.46-86.2,178-75.77,306.66s219-11.64,219-11.64l19.4-143.53L1134.83,835.9"/><path class="cls-20" d="M1349.68,437.16c-7.26.79-14.52,1.87-21.74,3s-14.42,2.48-21.6,3.9q-21.52,4.28-42.73,9.84a656.37,656.37,0,0,0-82.92,27.61c-13.47,5.47-26.66,11.56-39.59,18.1s-25.52,13.68-37.74,21.32l-9.1,5.83-8.88,6.14c-3,2-5.84,4.19-8.71,6.33l-4.31,3.23-2.16,1.61-2.08,1.7-8.33,6.78c-1.41,1.1-2.72,2.32-4.06,3.5l-4,3.56-4,3.56c-1.33,1.18-2.57,2.47-3.86,3.7l-7.65,7.45-.32.31a9.64,9.64,0,1,1-13.45-13.82l.36-.34,8.5-7.46c1.43-1.23,2.81-2.52,4.28-3.7l4.4-3.52,4.41-3.53c1.47-1.16,2.91-2.37,4.45-3.45l9.09-6.64,2.27-1.66,2.33-1.56,4.67-3.13c3.11-2.08,6.18-4.21,9.4-6.12l9.54-5.88,9.72-5.54c13-7.24,26.31-13.95,39.92-19.89s27.33-11.51,41.3-16.36a664.83,664.83,0,0,1,85.26-23.55q21.62-4.5,43.45-7.66,10.9-1.58,21.86-2.78c7.31-.79,14.61-1.49,22-1.91a.52.52,0,0,1,.53.47.51.51,0,0,1-.45.53Z"/><path class="cls-20" d="M1354.46,411.08c-11.45-1.2-23-1.84-34.47-2.24s-23-.44-34.53-.19-23,.88-34.42,1.83-22.85,2.23-34.17,4a352.38,352.38,0,0,0-66.32,16.41c-2.7.88-5.29,2-7.94,3l-3.94,1.56c-1.32.52-2.58,1.15-3.88,1.71-2.56,1.18-5.17,2.28-7.7,3.52l-7.51,3.84a195.46,195.46,0,0,0-28,18.33l-.08.07a6.14,6.14,0,0,1-7.62-9.64l.19-.15a205.08,205.08,0,0,1,30.6-18.3l8-3.71c2.7-1.19,5.46-2.23,8.19-3.35,1.37-.53,2.72-1.12,4.11-1.61l4.16-1.46c2.78-.94,5.52-2,8.35-2.82a362.58,362.58,0,0,1,68.49-14c11.54-1.34,23.13-2.16,34.71-2.65s23.17-.63,34.74-.43,23.13.74,34.66,1.6,23,2,34.48,3.66a.5.5,0,0,1-.12,1Z"/><path class="cls-20" d="M1362.36,379.78c-16.87-.92-33.76-1.59-50.64-2.13s-33.76-.83-50.62-.93-33.69.13-50.42.79c-4.17.21-8.36.33-12.51.61l-12.44.88-12.26,1.3c-4,.55-8,1.24-11.92,1.84l-.45.07a9.92,9.92,0,1,1-3-19.62l.61-.07c17.9-1.59,34.93-1,52-.13s34,2.24,50.88,3.93,33.72,3.54,50.52,5.64,33.57,4.34,50.31,6.83a.5.5,0,0,1-.11,1Z"/><path class="cls-20" d="M1426.13,422.74a214.72,214.72,0,0,1,27.43-4.7,219.94,219.94,0,0,1,28.06-1.32,171.3,171.3,0,0,1,28.47,2.81,139.38,139.38,0,0,1,14.22,3.45,127.62,127.62,0,0,1,14,5.19,9.68,9.68,0,1,1-7.71,17.75,9.58,9.58,0,0,1-1.31-.69l-.12-.08a107,107,0,0,0-11-6.22,120.27,120.27,0,0,0-11.93-5,158.55,158.55,0,0,0-25.62-6.72,221.74,221.74,0,0,0-54.16-2.71h0a.9.9,0,0,1-1-.81A.91.91,0,0,1,1426.13,422.74Z"/><path class="cls-20" d="M1426.34,453.55c13.32.41,26.62,1.3,39.93,2.52s26.62,2.86,39.91,5.07q10,1.64,19.92,3.83c6.64,1.45,13.27,3.14,19.89,5.17a156.3,156.3,0,0,1,19.81,7.39,78.63,78.63,0,0,1,19.39,12.27l.14.13a11,11,0,1,1-14.58,16.42,10.55,10.55,0,0,1-1.1-1.12,57.6,57.6,0,0,0-13-10.71,138.71,138.71,0,0,0-16.55-8.77c-5.8-2.66-11.81-5.07-17.93-7.28s-12.33-4.28-18.62-6.18c-12.56-3.84-25.37-7.12-38.27-10.07s-25.94-5.54-39-7.67h0a.51.51,0,0,1-.41-.58A.5.5,0,0,1,1426.34,453.55Z"/><path class="cls-20" d="M1418.86,481.38a3.31,3.31,0,0,1,.94,0,6.84,6.84,0,0,1,.81.14c.53.1,1,.26,1.52.4,1,.31,2,.64,2.93,1,1.92.72,3.82,1.49,5.7,2.29,3.77,1.6,7.49,3.28,11.2,5q11.11,5.16,22.07,10.6,22,10.84,43.63,22.22t43.2,23.11c7.16,3.94,14.3,7.92,21.41,12,3.56,2,7.11,4.12,10.66,6.26s7.06,4.3,10.7,6.85a7,7,0,0,1-8,11.42l-.36-.27,0,0c-2.88-2.33-6.18-4.67-9.45-7s-6.63-4.56-10-6.8q-10.11-6.74-20.39-13.28Q1524.85,542.2,1504,529.5t-42-25c-7-4.07-14.12-8.09-21.26-12-3.57-1.94-7.15-3.86-10.78-5.69-1.81-.91-3.63-1.8-5.47-2.63-.92-.41-1.85-.8-2.78-1.16-.47-.16-.94-.35-1.41-.47a4.51,4.51,0,0,0-.68-.17,2.65,2.65,0,0,0-.59-.05l-.18,0a.47.47,0,0,1-.45-.51A.48.48,0,0,1,1418.86,481.38Z"/><path class="cls-19" d="M1489.52,587.45s57.3,48.06,55.29,95.52-58,43.88-58,43.88l2.7-139.4"/><path class="cls-19" d="M1154.69,601.84s-86.74,15.3-68.58,125,74,14.57,74,14.57l-5.45-139.58"/><path class="cls-21" d="M1105,867.31s-80.67,177.92-75.45,256.14"/><path class="cls-22" d="M1107.09,940.8c-1.67,16-3.68,31.85-5.71,47.71s-4,31.69-5.9,47.53-3.57,31.67-4.71,47.53c-.29,4-.47,7.94-.64,11.9s-.26,7.94-.22,11.9.18,7.93.56,11.87a52.07,52.07,0,0,0,2.3,11.68,36.08,36.08,0,0,1-2.51-5.51c-.65-1.92-1.23-3.87-1.7-5.84a106.2,106.2,0,0,1-2.08-12,208.47,208.47,0,0,1-1.17-24.2,425.18,425.18,0,0,1,3.22-48.16q2.85-23.94,7.47-47.57C1099.06,971.9,1102.57,956.23,1107.09,940.8Z"/><path class="cls-22" d="M1173.81,918.05a2.76,2.76,0,0,0-.39,1c-.09.35-.17.7-.24,1.06-.14.72-.26,1.44-.37,2.16-.23,1.45-.45,2.9-.64,4.35l-1.16,8.7-2.35,17.39q-2.42,17.37-5.09,34.68l-5.45,34.59-2.73,17.3c-.9,5.78-1.75,11.56-2.47,17.42-.41-2.93-.63-5.88-.77-8.83s-.19-5.9-.19-8.85c0-5.9.29-11.79.69-17.66.83-11.75,2.22-23.43,4-35s4-23.15,6.61-34.61c1.33-5.72,2.77-11.43,4.39-17.09.83-2.83,1.67-5.65,2.63-8.45.48-1.39,1-2.79,1.51-4.17.27-.69.55-1.38.86-2A5.91,5.91,0,0,1,1173.81,918.05Z"/><path class="cls-22" d="M1202.51,957.89c-.83,13.18-1.93,26.26-3,39.32s-2.08,26.11-2.9,39.14c-.2,3.26-.43,6.51-.57,9.77s-.33,6.52-.48,9.77c-.28,6.52-.43,13-.54,19.54q0,4.89.07,9.77l0,2.44.09,2.44c.07,1.63.1,3.26.23,4.88a157.62,157.62,0,0,0,2.07,19.53,93.29,93.29,0,0,1-5.48-19.11c-.35-1.63-.55-3.28-.82-4.92l-.38-2.46-.31-2.47c-.46-3.3-.67-6.61-1-9.92a294,294,0,0,1,.06-39.71c.87-13.19,2.34-26.32,4.49-39.34A322.18,322.18,0,0,1,1202.51,957.89Z"/><path class="cls-19" d="M1486,874.64c4.24,5.38,93.06,70.89,103.42,278.94s-176.18-42.81-176.18-42.81l-7.32-156.08Z"/></g><path class="cls-23" d="M1409.27,396.6s-28.82-62.59-89.65-52.16-165.14,27.35-220.78,119.73a476.23,476.23,0,0,0-57.53,146.23,121.65,121.65,0,0,0,2.76,60.41c6.45,21,16.56,48.44,29.06,63.73,22.23,27.18,7,97.73,7,97.73s-63.06,86.11-85.66,169.48-40,192.9-40,192.9,665.91,45.21,667.65,40,10.44-197.93-17.14-280-66.32-130.75-66.32-130.75l5.22-119.8s43.47-78,13.91-165-93-179.08-148.58-142.57"/><path class="cls-24" d="M1619.19,1153.58s105.78,45,119.69,63.91,63.46,326.7,63.46,326.7H1695.42S1575,1318,1590.87,1304,1619.19,1153.58,1619.19,1153.58Z"/><g class="cls-25"><path class="cls-26" d="M1598.05,1170.38s84.4,36.84,97.84,47.11,37.78,45.33,55.16,140.81,36.52,212,36.52,212l55.63-12.17L1802.34,1226,1725,1146,1605,1130.92Z"/></g><path class="cls-27" d="M1619.19,1153.58s105.78,45,119.69,63.91,63.46,326.7,63.46,326.7H1695.42S1575,1318,1590.87,1304,1619.19,1153.58,1619.19,1153.58Z"/><path class="cls-24" d="M1239.32,1003.8s7.12,106.89-112.4,110.69v181.07l234.4,135.62,132.34-100.8,53.08-199.46-128-124.79Z"/><g class="cls-28"><path class="cls-29" d="M1207.58,1044.58s35.52,116.59,65.21,154.23,71.86,92.7,76.86,140.8S1361,1407,1361,1407l153.55-52.33,18.77-328.92-104.12-78-194.85,22Z"/></g><path class="cls-27" d="M1239.32,1003.8s7.12,106.89-112.4,110.69v181.07l234.4,135.62,132.34-100.8,53.08-199.46-128-124.79Z"/><path class="cls-8" d="M1357.91,473s-121.86,64.36-160.4,81.68c-43.89,19.73-38.59,29.94-38.59,29.94s-36.75,146.39-36,156.83c-6.89-12.65-23.31-20.92-36.83-14.57s-16,44.51-9.2,60,28.7,72.93,48,77,13.34,7.72,13.34,7.72l29.2,60.18,79.19,75.78,74.06,28.3,51.42-7.23,61.11-41.23s67.63-46.77,81-130.16c0,0,11,.34,20.24-19.37,7.72-16.41,44.42-88,38.17-123.27-4.3-24.34-42-28.31-51-21.56l-25.75-102.8-32.8-34.09-94.83-76.23Z"/><g class="cls-30"><path class="cls-31" d="M1285.1,509.24s-69.15,25.11-38.44,68.58c0,0-35,4.83-37.39,29a48.38,48.38,0,0,0,13,38.5H1443.5L1457.59,588Z"/><ellipse class="cls-32" cx="1218.94" cy="807.77" rx="77.77" ry="70.13"/><ellipse class="cls-33" cx="1222.31" cy="805.01" rx="77.77" ry="70.13"/><ellipse class="cls-34" cx="1210.26" cy="805.16" rx="77.77" ry="70.13"/><ellipse class="cls-35" cx="1449.45" cy="799.71" rx="77.77" ry="70.13"/><path class="cls-36" d="M1092.77,759.68a25.81,25.81,0,0,1,8,2.41l1.89.93c.62.32,1.2.7,1.81,1.05a35.36,35.36,0,0,1,3.48,2.35,53.35,53.35,0,0,1,11.53,12l2.23,3.52c.74,1.18,1.34,2.44,2,3.67s1.26,2.47,1.72,3.78,1,2.59,1.4,3.89a32.11,32.11,0,0,1,1.1,4c.31,1.35.58,2.7.82,4s.31,2.75.4,4.13a41.2,41.2,0,0,1,.06,4.16,71.35,71.35,0,0,1-4.6-6.74c-.74-1.1-1.46-2.2-2.14-3.31-.36-.55-.68-1.11-1-1.67s-.72-1.07-1.06-1.62c-.7-1.08-1.39-2.15-2-3.25s-1.4-2.11-2.08-3.18c-1.31-2.16-2.79-4.18-4.16-6.28-2.88-4.09-5.81-8.11-9-12.05S1096.62,763.7,1092.77,759.68Z"/></g><g class="cls-37"><path class="cls-38" d="M1546.74,723.67c-2.13,6.68-4.59,12.94-7,19.2l-7.4,18.53c-2.51,6.13-4.85,12.29-7.28,18.49s-4.58,12.49-7.37,19c-.24-1.74-.41-3.48-.5-5.23-.06-.87-.11-1.75-.11-2.62l.07-2.61c.09-1.73.15-3.49.35-5.22s.46-3.45.74-5.17a97.76,97.76,0,0,1,5.75-20,110.8,110.8,0,0,1,9.48-18.41,98.22,98.22,0,0,1,6.09-8.41A59.12,59.12,0,0,1,1546.74,723.67Z"/></g><path class="cls-9" d="M1521.66,693s38.5-12.93,48,13.54-19.24,139-48.85,150.86"/><path class="cls-39" d="M1122.94,741.42s-22.51-34.86-45-6.88c-9.23,20.49-8.83,35.34,6.17,71.17s23,73.45,54.17,65.87"/><line class="cls-40" x1="1187.78" y1="567.43" x2="1187.78" y2="627.43"/><path class="cls-41" d="M1284.33,826.57s-4.09-6.7,5.83-14.13,27.25-1.64,37.39,0,22.1-.84,30.38-6.49c13.27-.54,29.23-1.38,33.52,13.06,2.39,8-16.47,20.28-41.8,15.77,0,0,.42,17.39-4.73,17.39s-17.72,1.93-19.81-2.58-3.6-17.32-3.6-17.32S1295.52,836.41,1284.33,826.57Z"/><path class="cls-42" d="M1126.92,714.58c1.93,3.65,3.87,79.59,33.81,112.62s70,43.65,84.24,68.77,33.24,101,33.13,115-70.52-45.4-70.52-45.4L1158.8,892l-23.18-95.53Z"/><path class="cls-43" d="M1525.8,735.68c-1.94,3.65,1.83,62.33-28.12,95.36s-70,43.65-84.24,68.77-33.23,101-33.13,115,70.52-45.4,70.52-45.4l48.78-73.52L1530.66,819Z"/><path class="cls-44" d="M1126.92,741.42c0,2.89,36.71,137.16,47.34,154.55s40,65.7,70.71,86,59.7,43.47,98.34,38.64,82.23-37.67,82.23-37.67l-45.68,38.32-65,13.59L1228.34,996s-66.81-71.45-68.38-74.54-25.13-85.59-25.13-85.59Z"/><path class="cls-45" d="M1370.22,487c18.35,19.12,119.3,100.44,119.3,100.44s23.18,86.94,28,96.6,3.7,113,.62,139.89c-7.72,67.62-9.08,83.1-39.31,120.2-13,15.93-22.94,25.53-45.59,43.24l-34.84,25.06s-61.52,58-159.09-8.64-92.74-120.75-110.12-194.17,24-179.59,23.56-200.28c0,0,137.68-38.63,220.83-125.82"/><path class="cls-46" d="M1283.41,718s-21.13,30.1-79.63,11.8c-21.18-2.95-12.87-15.2-12.87-15.2s27.21-28.76,54.06-25.11S1280.52,710,1283.41,718Z"/><ellipse class="cls-47" cx="1244.29" cy="706.56" rx="23.67" ry="20.29"/><ellipse class="cls-48" cx="1244.97" cy="703.72" rx="16.63" ry="14.25"/><path class="cls-49" d="M1297.44,714c1-3.34-9.66-37.15-55.06-37.15s-58,28.9-61.83,37.15,24.64-23.71,50.24-22.66c13.52-8.82,44.92,4.94,50.23,21.26C1290.63,718.66,1297.44,714,1297.44,714Z"/><path class="cls-50" d="M1147.21,682.49c2.15-3.58,22.89-24.16,33.47-34.56a20.92,20.92,0,0,1,14.69-6h61L1268,666.07l-65.39-6.47a50,50,0,0,0-32.16,7.83Z"/><path class="cls-51" d="M1272.79,641.92l10.62,20.28"/><line class="cls-51" x1="1264.09" y1="641.92" x2="1272.79" y2="662.2"/><path class="cls-52" d="M1197.82,726.94a133.75,133.75,0,0,0,20.54,8,76.58,76.58,0,0,0,10.35,2.17,49,49,0,0,0,10.25.28c1.65-.08,3.5-.35,5.29-.58s3.6-.5,5.4-.82c3.61-.55,7.2-1.28,10.82-2,7.24-1.46,14.49-3.11,22-4.8-.74.63-1.52,1.19-2.3,1.76s-1.59,1.08-2.4,1.61c-1.61,1-3.28,2-5,2.92a88.72,88.72,0,0,1-10.51,4.76,97.07,97.07,0,0,1-11.06,3.44c-.93.24-1.89.42-2.83.63s-1.9.43-2.86.57a53,53,0,0,1-5.9.76,43.67,43.67,0,0,1-12.21-.71l-3-.66c-1-.23-1.92-.58-2.88-.86a26.91,26.91,0,0,1-2.82-1c-.92-.37-1.85-.73-2.76-1.12a56,56,0,0,1-18.82-13.64Z"/><path class="cls-52" d="M1467.17,719.23a56,56,0,0,1-17.65,15.12c-.87.47-1.76.9-2.65,1.35a26.7,26.7,0,0,1-2.73,1.22c-.93.36-1.84.79-2.8,1.09l-2.89.9a43.43,43.43,0,0,1-12.11,1.71,51.61,51.61,0,0,1-5.94-.29c-1-.05-1.93-.21-2.89-.33s-1.93-.23-2.88-.39a98.36,98.36,0,0,1-11.31-2.53,88.84,88.84,0,0,1-10.86-3.89c-1.76-.77-3.5-1.59-5.19-2.5-.85-.47-1.69-.92-2.53-1.41s-1.64-1-2.43-1.56c7.61,1.06,15,2.11,22.31,3,3.67.39,7.31.82,11,1.07,1.81.17,3.63.26,5.44.38s3.68.2,5.32.15a48.55,48.55,0,0,0,10.19-1.12,77.54,77.54,0,0,0,10.14-3,134.59,134.59,0,0,0,19.82-9.68Z"/><path class="cls-48" d="M1220.62,706.56s7-9.51,23.67-9.51,23.67,9.51,23.67,9.51-1.42-20.39-23-17.09-25.74,10.21-24.35,17.09"/><path class="cls-50" d="M1283.18,714.58a54.15,54.15,0,0,0-8.92-11.17,49.91,49.91,0,0,0-11.48-8.35,41.26,41.26,0,0,0-13.37-4.32,43.59,43.59,0,0,0-14,.33,77.81,77.81,0,0,0-26.15,10.07,63.31,63.31,0,0,0-11,8.57,55.86,55.86,0,0,0-4.63,5.12c-.72.9-1.39,1.82-2,2.75a28.31,28.31,0,0,0-1.69,2.77h0l-.45-2.93a35.21,35.21,0,0,0,2.63,2.47c1,.81,1.92,1.6,2.92,2.36a69.6,69.6,0,0,0,20.13,10.48,69.48,69.48,0,0,0,15,3.12,74.92,74.92,0,0,0,15.48-.24,76.26,76.26,0,0,1-15.55,1.49,71.4,71.4,0,0,1-15.64-2,72.58,72.58,0,0,1-15-5.38,71.64,71.64,0,0,1-7-3.92c-1.13-.72-2.25-1.48-3.34-2.27s-2.13-1.6-3.26-2.61l-1.31-1.19.86-1.74h0a33.76,33.76,0,0,1,2.19-3.27c.76-1,1.55-2,2.37-2.93a61.22,61.22,0,0,1,5.24-5.32,68,68,0,0,1,12-8.59,80.67,80.67,0,0,1,27.66-9.3,45.86,45.86,0,0,1,14.65.28,43,43,0,0,1,13.66,5.07,50.93,50.93,0,0,1,11.33,9A54.41,54.41,0,0,1,1283.18,714.58Z"/><line class="cls-53" x1="1207.58" y1="682.49" x2="1212.93" y2="697.05"/><line class="cls-53" x1="1235.6" y1="675.73" x2="1233.18" y2="690.22"/><line class="cls-53" x1="1268.44" y1="682.49" x2="1264.09" y2="694.06"/><path class="cls-54" d="M1160.14,576.8s175.64-94.47,197.77-100.22"/><circle class="cls-55" cx="1257.79" cy="704.14" r="5.95"/><line class="cls-56" x1="1235.6" y1="710.09" x2="1228.34" y2="721.55"/><path class="cls-46" d="M1378.32,716.57s25.15,26.85,80.5.52c20.56-5.89,10.61-16.85,10.61-16.85s-31-24.66-57-17.29S1380.07,708.26,1378.32,716.57Z"/><ellipse class="cls-47" cx="1425.54" cy="699.78" rx="23.67" ry="20.29" transform="translate(-84.02 206.75) rotate(-8.06)"/><ellipse class="cls-48" cx="1424.47" cy="697.07" rx="16.63" ry="14.25" transform="translate(-83.65 206.58) rotate(-8.06)"/><path class="cls-57" d="M1362.6,715c-1.42-3.17,4.36-38.14,49.31-44.5s61.44,20.48,66.42,28.11-27.71-20-52.91-15.39c-14.62-6.84-43.78,11.18-46.76,28.08C1370,718.61,1362.6,715,1362.6,715Z"/><path class="cls-50" d="M1504.49,675.73c-2-3.39-20.71-22-31.68-32.8a27,27,0,0,0-19-7.77h-58.5l-11.59,24.15,60.47-6a64,64,0,0,1,41.22,10Z"/><path class="cls-51" d="M1378.91,635.16l-10.63,20.28"/><line class="cls-51" x1="1387.6" y1="635.16" x2="1378.91" y2="655.44"/><path class="cls-48" d="M1449,696.46s-8.3-8.43-24.76-6.1-22.1,12.74-22.1,12.74-1.45-20.39,20.36-20.15,26.92,6.51,26.5,13.51"/><path class="cls-50" d="M1379.41,712.41a50,50,0,0,1,6.45-12.64,46.72,46.72,0,0,1,9.83-10.37,41,41,0,0,1,12.78-6.62,45.8,45.8,0,0,1,14.34-2,79.89,79.89,0,0,1,28.3,5.44A67.32,67.32,0,0,1,1464,693a59,59,0,0,1,5.86,4.48c.93.81,1.84,1.66,2.72,2.55a31.51,31.51,0,0,1,2.59,2.9l1.1,1.6-1.14,1.36a40.12,40.12,0,0,1-2.86,3c-1,.94-2,1.85-3,2.72a71,71,0,0,1-6.38,4.85,71.85,71.85,0,0,1-14,7.43,71,71,0,0,1-15.2,4.13,75.64,75.64,0,0,1-15.61.71,75.37,75.37,0,0,0,15.37-1.94,69.3,69.3,0,0,0,27.27-13.35,67.45,67.45,0,0,0,5.63-5c.88-.89,1.74-1.81,2.56-2.74s1.63-1.94,2.26-2.82l0,3a29.3,29.3,0,0,0-2-2.48c-.75-.83-1.54-1.63-2.36-2.41a55.11,55.11,0,0,0-5.23-4.38,63.77,63.77,0,0,0-11.87-6.91,77.07,77.07,0,0,0-26.92-6.4,43.88,43.88,0,0,0-13.74,1.33,39.42,39.42,0,0,0-12.56,5.83,45.55,45.55,0,0,0-10.07,9.73A49.87,49.87,0,0,0,1379.41,712.41Z"/><circle class="cls-55" cx="1441.81" cy="695.03" r="5.95"/><line class="cls-56" x1="1416.85" y1="704.58" x2="1411.28" y2="716.94"/><line class="cls-53" x1="1395.74" y1="689.08" x2="1387.16" y2="676.59"/><line class="cls-53" x1="1424.16" y1="682.04" x2="1425.29" y2="667.87"/><path class="cls-53" d="M1455.9,688c.3-2.64,10-11.42,10-11.42"/><path class="cls-58" d="M1361.32,663.8s-22.68,35.2-9.45,72.93"/><path class="cls-59" d="M1309.38,802.17l.43.12a1.93,1.93,0,0,1,.36.14l.58.27,1,.57,2,1.14c1.34.76,2.69,1.49,4.05,2.17a59.13,59.13,0,0,0,8.34,3.49,32.72,32.72,0,0,0,17.27,1.27,26.69,26.69,0,0,0,14.66-8.52c3.79-4.39,5.86-10.12,6.89-16.09v-.07a1.07,1.07,0,0,1,2.13.25l-.15,2.4a17.46,17.46,0,0,1-.28,2.4l-.43,2.39c-.21.79-.45,1.57-.67,2.36a27.75,27.75,0,0,1-4.53,8.77,28.56,28.56,0,0,1-16.75,10.26,31.19,31.19,0,0,1-9.92.46,37.11,37.11,0,0,1-9.47-2.47,49.12,49.12,0,0,1-8.5-4.47c-1.33-.87-2.62-1.8-3.87-2.75l-1.85-1.44-.9-.71-.43-.32-.16-.1-.11-.09-.37-.35a.63.63,0,0,1,0-.9A.65.65,0,0,1,1309.38,802.17Z"/><path class="cls-58" d="M1281,799.71s-24.16,27.49,12.25,32.56"/><path class="cls-58" d="M1380.85,831.09c26.77-15.15,3.21-37.29,3.21-37.29"/><path class="cls-59" d="M1297.12,823.94a7.8,7.8,0,0,1,.83-3.48,10.26,10.26,0,0,1,.89-1.54,13.44,13.44,0,0,1,1.15-1.35,16.6,16.6,0,0,1,5.88-3.69,14.12,14.12,0,0,1,1.62-.56c.54-.16,1.09-.37,1.64-.48,1.1-.22,2.21-.53,3.32-.67s2.23-.33,3.34-.4l3.34-.2a2.57,2.57,0,0,1,.32,5.14h-.36l-.16,0-3.06-.25c-1-.09-2-.05-3-.08s-2,.11-3,.15c-.5,0-1,.15-1.48.21a11.76,11.76,0,0,0-1.46.28,13.76,13.76,0,0,0-5.3,2.32,8.69,8.69,0,0,0-1.08.93,8,8,0,0,0-.89,1.12,6.36,6.36,0,0,0-1.06,2.57l0,.11a.7.7,0,0,1-.8.59A.72.72,0,0,1,1297.12,823.94Z"/><path class="cls-59" d="M1349.43,812.06c1.89-.08,4-.2,6.08-.15a40,40,0,0,1,6.25.56,22.59,22.59,0,0,1,11.51,5.25,1.29,1.29,0,0,1-1.62,2l0,0a19.45,19.45,0,0,0-10.32-3.43,36.69,36.69,0,0,0-5.64.09c-1.91.15-3.73.45-5.79.75a2.54,2.54,0,1,1-.74-5,1.15,1.15,0,0,1,.26,0Z"/><path class="cls-60" d="M1263.81,892.54c3.13,0,20.75,27.76,48.58,33.08,19.36,3.69,23.88,4.34,42.13,1.45,25.79-4.09,44-49.18,44-49.18l-58.4-3.25-67.36,14.89Z"/><path class="cls-61" d="M1269.91,890.54c-.57.23-6.6.09-6.1-.27,12.42-8.94,19.86-10,34-18.75,17.17-10.63,24-7.42,38.21-6.45s11.39-1.19,20.79.17c8.15,1.18,24.38,15.42,41.24,10,0,0,4.18.16,1.47,2-8.83,6-28.4,10.16-37.25,9.25-10.33-1-20.08,4-35.49,0C1313.74,883.16,1283.68,885.12,1269.91,890.54Z"/><path class="cls-62" d="M1270.25,891.41l-.2.06-.12,0-.2,0-.34,0-.62,0h-1.19c-.8,0-1.59,0-2.39-.09a10.6,10.6,0,0,1-1.27-.15l-.21-.05-.15,0-.1,0a1.37,1.37,0,0,1-.18-.11,1.22,1.22,0,0,1-.26-.28,1,1,0,0,1,0-.87.9.9,0,0,1,.32-.39l0,0,.12-.08.47-.35c.64-.46,1.27-.93,1.91-1.38a87.14,87.14,0,0,1,8-5c5.51-3.06,11.2-5.55,16.51-8.65,1.34-.76,2.65-1.56,4-2.36l3.94-2.5a61.83,61.83,0,0,1,8.47-4.55,36.2,36.2,0,0,1,9.47-2.73,45.92,45.92,0,0,1,9.79-.15c3.17.22,6.23.57,9.27.77s6.11.33,9.06.25c1.48,0,2.87-.18,4.47-.36a25.77,25.77,0,0,1,5.12,0c.82.07,1.64.16,2.44.27a15.71,15.71,0,0,1,2.63.53,32.24,32.24,0,0,1,4.67,1.9c2.91,1.37,5.59,2.91,8.31,4.3a86.18,86.18,0,0,0,8.27,3.76,32.9,32.9,0,0,0,17.86,2.09h0a4.06,4.06,0,0,1,2.27.14,1,1,0,0,1,.56.67,1.21,1.21,0,0,1-.2.87,4.73,4.73,0,0,1-.86.91,7.67,7.67,0,0,1-1.79,1.27c-.63.36-1.27.7-1.91,1a62.07,62.07,0,0,1-8,3.23,91.5,91.5,0,0,1-16.77,3.79,44.1,44.1,0,0,1-8.69.35,39.32,39.32,0,0,0-8.33.11c-2.8.3-5.61.73-8.47,1a63.7,63.7,0,0,1-8.64.37,49.94,49.94,0,0,1-8.61-1.08l-2.12-.48c-.67-.16-1.34-.32-2-.44-1.36-.27-2.75-.47-4.14-.62a117.44,117.44,0,0,0-16.89-.44,156,156,0,0,0-16.86,1.55A80.31,80.31,0,0,0,1270.25,891.41Zm-.68-1.73a81.58,81.58,0,0,1,16.74-4.06,160.2,160.2,0,0,1,17.07-1.59,118.74,118.74,0,0,1,17.17.44q2.15.22,4.29.63c.71.13,1.43.3,2.14.47l2,.46a48.06,48.06,0,0,0,8.28,1,62,62,0,0,0,8.38-.35c2.8-.28,5.6-.7,8.46-1,1.43-.15,2.88-.24,4.33-.29.73,0,1.46,0,2.19,0l2.16.16a45.62,45.62,0,0,0,8.32-.3,89.29,89.29,0,0,0,16.48-3.54,59.25,59.25,0,0,0,7.82-3.06c.62-.31,1.24-.63,1.85-1a12.3,12.3,0,0,1,1.83-1,3,3,0,0,0,.74-.49c.09-.08.11-.13.13-.11s0-.06-.07-.14a5.74,5.74,0,0,0-1.85-.8h0a23.71,23.71,0,0,1-9.25,2.21,34.59,34.59,0,0,1-9.61-1.07c-6.27-1.55-12.07-4.45-17.57-6.93a28.06,28.06,0,0,0-4-1.49,31.52,31.52,0,0,0-4.14-.58,21,21,0,0,0-4.19,0c-1.49.17-3.21.35-4.83.4a86.7,86.7,0,0,1-9.59-.37c-3.16-.25-6.28-.65-9.31-1a43,43,0,0,0-8.84-.16,32.39,32.39,0,0,0-8.5,2.07,56.7,56.7,0,0,0-8.15,3.89l-4.07,2.3c-1.39.75-2.77,1.5-4.18,2.21-5.62,2.86-11.42,5.2-16.91,7.94a86.64,86.64,0,0,0-8,4.57c-.65.41-1.29.85-1.93,1.28l-.48.32-.12.08,0,0a.8.8,0,0,0,.28-.34.89.89,0,0,0-.06-.8.84.84,0,0,0-.2-.23l-.12-.07,0,0h.06a9.55,9.55,0,0,0,1,.12c.75.05,1.51.07,2.27.07h1.14l.55,0,.24,0,.09,0h0Z"/><path class="cls-63" d="M1295.89,903.14c0-3.34,4.89-6.57,15.73-6.57s14.58,5.71,25,3.28,19.44-6.72,26.17-3.28l6.73,3.43a9,9,0,0,1-3.74,11.17c-6.73,4.3-24.4,6.88-32.76,6.88S1295.73,916.49,1295.89,903.14Z"/><ellipse class="cls-64" cx="1334.44" cy="969.77" rx="44.28" ry="31.98"/><path class="cls-65" d="M1301.29,950.69a.66.66,0,0,0-.34.06s0,0,0,0,.12,0,.2,0a2.28,2.28,0,0,0,.29-.11,14.24,14.24,0,0,0,1.57-.82c1.15-.65,2.38-1.42,3.64-2.16a74.06,74.06,0,0,1,7.91-4.15,50.55,50.55,0,0,1,26.17-4.09,58.58,58.58,0,0,1,8.58,1.53,81.74,81.74,0,0,1,16.08,6,80.46,80.46,0,0,0-16.46-4,55.59,55.59,0,0,0-8.34-.51,46.8,46.8,0,0,0-8.21.79,45,45,0,0,0-15.1,5.66,65.17,65.17,0,0,0-6.72,4.61c-1.11.84-2.2,1.72-3.43,2.62a22.23,22.23,0,0,1-2.06,1.4,7,7,0,0,1-.67.36,6,6,0,0,1-.79.36,10.21,10.21,0,0,1-1,.33,9.12,9.12,0,0,1-1.39.19,4,4,0,1,1,0-8Z"/><path class="cls-66" d="M1275.24,676.12s7.57-14.66,25-8.73,21.08,24.43,21.21,42.23.24,51-19.14,57.11-23.18-13.23-13.07-20,16.77-22.53,13-34.33S1280.07,686.64,1275.24,676.12Z"/><path class="cls-67" d="M1323.53,796.33a5.84,5.84,0,0,1,.73-.11h.44l.47,0,.65.09,1.15.2,2.17.4c1.43.26,2.86.49,4.29.7a70.8,70.8,0,0,0,8.57.74,33.22,33.22,0,0,0,8.41-.8,12.05,12.05,0,0,0,7-4.13h0a.65.65,0,0,1,.9-.13.64.64,0,0,1,.19.81,11.33,11.33,0,0,1-3.07,3.64,18.54,18.54,0,0,1-4.1,2.39,36.38,36.38,0,0,1-9,2.36,74.46,74.46,0,0,1-9.17.69c-1.53,0-3,0-4.56,0l-2.25,0h-1.44a2.11,2.11,0,0,0,.45-.08,3.5,3.5,0,1,1-1.77-6.77Z"/><path class="cls-17" d="M1121.66,595.6s125.16-35.65,156.44-64c0,0,74.59-46.8,87.13-67.43l8.36,9.89s-61.57,55.41-85.07,68.61-135.16,67.85-167.27,66.66S1121.66,595.6,1121.66,595.6Z"/><path class="cls-22" d="M1393.64,447a53.63,53.63,0,0,1-4.78,11.17,93.05,93.05,0,0,1-6.5,10.19c-1.17,1.64-2.43,3.21-3.67,4.79s-2.57,3.09-3.92,4.57c-2.66,3-5.41,5.94-8.2,8.83q-8.37,8.64-17.4,16.59c-6,5.3-12.22,10.34-18.57,15.21s-12.83,9.57-19.49,14-13.41,8.69-20.27,12.77c-3.44,2-6.89,4-10.38,6s-7,3.84-10.51,5.73-7.09,3.65-10.64,5.48-7.16,3.5-10.77,5.19q-21.68,10.13-44.08,18.44t-45.25,15.2l-11.46,3.32-11.5,3.14-11.56,2.95-2.88.73c-1,.24-2,.46-3,.65-2,.41-3.91.77-5.87,1.14l-23.42,4.27-11.69,2.15c-3.87.74-7.82,1.47-11.57,2.29l-.06,0a2.25,2.25,0,0,1-1-4.4h0c4-.81,7.87-1.44,11.8-2.12l11.72-2q11.73-2,23.4-4.17,2.93-.54,5.81-1.12c1-.19,1.9-.39,2.82-.61l2.86-.76,11.46-3.07,11.4-3.26,11.35-3.45c15.08-4.72,30-9.88,44.72-15.67s29.17-12.12,43.33-19,28-14.45,41.48-22.63c6.72-4.1,13.36-8.34,19.83-12.81,3.26-2.19,6.43-4.51,9.65-6.76s6.35-4.64,9.45-7a345.51,345.51,0,0,0,35.39-31c5.53-5.56,10.66-11.47,15.9-17.27S1388.14,453,1393.64,447Z"/><path class="cls-22" d="M1092.12,594.92c12.49-2.83,25.1-6.06,37.51-9.65s24.81-7.36,37.09-11.43A752.89,752.89,0,0,0,1239,545.73c11.8-5.3,23.39-11,34.83-17.08s22.56-12.66,33.52-19.53l8.11-5.33,2-1.34,2-1.4,4-2.79,4-2.78c1.34-.92,2.6-1.94,3.9-2.9l7.74-5.88a357.77,357.77,0,0,0,29.19-25.77c-4.36,4.83-8.6,9.79-13.31,14.3-4.53,4.71-9.41,9-14.21,13.48a381.69,381.69,0,0,1-30.87,24.16c-2.67,1.88-5.41,3.67-8.11,5.51l-4.09,2.72-4.15,2.61c-2.78,1.72-5.52,3.52-8.34,5.17l-8.46,5q-17.06,9.69-34.75,18.23-17.74,8.37-35.93,15.76t-36.83,13.51a599.69,599.69,0,0,1-75.81,20.29A3.42,3.42,0,0,1,1092,595Z"/><path class="cls-22" d="M1377,461.25q-28.24,14.13-56.34,28.55t-56.08,29l-13.92,7.42c-4.64,2.48-9.24,5-13.86,7.54l-13.89,7.46-14,7.26-56.26,28.6-.37-.59c4.2-3.19,8.47-6.33,12.82-9.34s8.79-5.87,13.26-8.69,9-5.5,13.52-8.26,9.15-5.25,13.72-7.89,9.25-5.07,13.91-7.54l7-3.64,7.08-3.52L1262,513.81q28.44-13.77,57.07-27.15l28.72-13.16c9.59-4.36,19.19-8.69,28.86-12.89Z"/><path class="cls-22" d="M1368.28,479.9c14.87,10,29.25,20.63,43.41,31.56q10.65,8.16,21,16.65c3.48,2.8,6.9,5.7,10.35,8.54s6.83,5.79,10.21,8.74c13.58,11.74,26.39,24.4,38.68,37.35,6.19,6.43,12.32,12.85,18.78,19s13.12,12,19.9,17.89a228.82,228.82,0,0,1-22.05-15.43c-3.53-2.78-6.93-5.72-10.34-8.66s-6.66-6-9.94-9.06c-6.57-6.07-13-12.24-19.54-18.25s-13.14-12-19.86-17.79c-13.4-11.71-27-23.22-40.51-34.94S1381.44,492.05,1368.28,479.9Z"/><path class="cls-24" d="M1010.38,1122.54s-95.63.9-125.18,40.89-107.8,380.76-107.8,380.76H968.65l60.86-420.74Z"/><g class="cls-68"><path class="cls-69" d="M991.08,1327.92s-58.94,145-64.16,207.58,74.77,8.69,74.77,8.69l-10.61-216.27"/></g><path class="cls-27" d="M1010.38,1122.54s-95.63.9-125.18,40.89-107.8,380.76-107.8,380.76H968.65l60.86-420.74Z"/><path class="cls-70" d="M1010.38,1122.54l116.54-8s-5.28,155.09,86,215.89,236.78,27.14,267.48-62.09,56.12-141.44,61.67-145.75,91.51,38,91.51,38-25.73,135-20.2,155.88,0,227.76,0,227.76l-644.74-15.64S1012.12,1151.19,1010.38,1122.54Z"/><g class="cls-71"><path class="cls-72" d="M1341.17,1306.3s18.77,31,6.56,93.58-71.21,154.75-64.32,154.75,403.31,15.64,403.31,15.64l-39.09-439.35-113.9-47.56Z"/></g><path class="cls-73" d="M1010.38,1122.54l116.54-8s-5.28,155.09,86,215.89,236.78,27.14,267.48-62.09,56.12-141.44,61.67-145.75,91.51,38,91.51,38-25.73,135-20.2,155.88,0,227.76,0,227.76l-644.74-15.64S1012.12,1151.19,1010.38,1122.54Z"/><path class="cls-24" d="M1538,1410.16c4.13,8.86,47.84,125.34,47.84,125.34l153-15.65-91.25-161.55Z"/><g class="cls-74"><path class="cls-11" d="M1563.11,1376.24c3.46,12.17,84.52,178.39,84.52,178.39l-97.21-12-29.05-111.49Z"/><polygon class="cls-75" points="1538.04 1379.02 1605.04 1543.99 1572.33 1545.36 1529.59 1438.13 1538.04 1379.02"/><polygon class="cls-26" points="1615.28 1339.61 1726.71 1535.5 1764.96 1518.11 1695.89 1358.3 1615.28 1339.61"/></g><path class="cls-27" d="M1538,1410.16c4.13,8.86,47.84,125.34,47.84,125.34l153-15.65-91.25-161.55Z"/><path class="cls-76" d="M1606.81,1287.7c-7.9-12-48.73-81.39-46.26-91.64,0,0,8.38-76.1,33.32-132.75-1.2-9.53-18.34-33.77-18.34-33.77l-28.44-24.23,11.75-71.47-38.22-95.05s-18.57,8.38-14.87,22S1520.33,953,1520.33,953L1509,988.43l-49.64-20s-9.69,1.71-29.92,15.56c-46.49,31.83-75.12,76.91-52.74,87.39a31.46,31.46,0,0,0,25.75-21.71c3.4-10.1-17.44,52-21.92,71.4,2,6,28.13,14.87,47.41-48.34-1,13.4-4.8,43.23-6,59.06-.7,9.47-1.88,32.34,7.62,45,14.53,1.79,25.72,20.72,25.72,20.72l46.1,130.26s54.14,4.63,110.77-31.42"/><path class="cls-11" d="M1477.93,1173s16-2.47,27.17-24.77c8.48-16.84,15.52-52.4,20.42-60.25-12.77-.44-31.69-27.2-49.21-25.42-7.43.77-3.25,2.74-13.36,13.47.1,37.18-26.44,32.4-37.41,33.51s-5.82,36.11-3.88,47.77c3.86,23.09,21,21.18,28,33.92s12.77,21.73,12.77,21.73l44.75,122.14s25.74.25,32.89-9.59c-3.51-9.79-58.36-121.81-58.36-121.81S1474.73,1184.2,1477.93,1173Z"/><g class="cls-77"><path class="cls-75" d="M1435.85,1198.81c4,2.87,25.72.33,42.06,36.25,15.75,34.63,43.46,115.48,43.46,115.48l-30.77,7.76-41.6-83.6Z"/></g><path class="cls-78" d="M1409.25,1047.08a8.5,8.5,0,0,1,1.48.81.58.58,0,0,1,.29.44c0,.24-.42.33-.53.52-.16.4-.29.82-.44,1.23-.29.83-.61,1.65-.93,2.46q-1,2.46-2.16,4.83a52.72,52.72,0,0,1-5.68,9.07,40.67,40.67,0,0,1-7.81,7.69,29.49,29.49,0,0,1-10.24,5,20.64,20.64,0,0,1-6.09.66,15,15,0,0,1-6.5-1.75,11.57,11.57,0,0,1-5-5.47,12,12,0,0,1-.94-3.6,16.78,16.78,0,0,1,0-3.26,35.65,35.65,0,0,1,1.06-5.51c.46-1.73,1-3.39,1.57-5,1.15-3.26,2.46-6.4,3.84-9.49,2.78-6.17,5.85-12.14,9.19-18,1.67-2.92,3.4-5.81,5.28-8.67.47-.72,1-1.43,1.45-2.15l.76-1.07.4-.53.1-.14.15-.19.31-.38c.76-.86,1.4-1.45,2.06-2.08s1.31-1.17,2-1.74c5.19-4.41,10.44-8.41,15.69-12.46l3.93-3c1.3-1,2.63-2,3.78-3,2.44-2,4.79-4.19,7.1-6.44,4.66-4.5,9.07-9.4,14.25-14a40.31,40.31,0,0,1,9-6.28,19.8,19.8,0,0,1,5.88-1.82,16.4,16.4,0,0,1,6.43.36c.51.13,1,.28,1.51.45l.67.24.59.22,2.33.88,4.64,1.78,9.26,3.61q9.24,3.66,18.43,7.47c12.24,5.08,24.41,10.34,36.44,16,6,2.85,12,5.81,17.89,9,2.95,1.62,5.88,3.3,8.78,5.15a50.89,50.89,0,0,1,8.55,6.55h0l.39.39.28.55c.18.34.53.89.88,1.41s.75,1.09,1.16,1.64c.8,1.11,1.64,2.23,2.49,3.35l5.16,6.78c3.45,4.56,6.87,9.19,10.09,14,1.6,2.43,3.16,4.91,4.6,7.52a48.57,48.57,0,0,1,3.82,8.43,19,19,0,0,1,1,5.24,10.56,10.56,0,0,1-.42,3.28,8.07,8.07,0,0,1-.76,1.75l-.36.61-.27.44c-1.44,2.29-2.8,4.66-4,7.12a192,192,0,0,0-12.15,31.08c-3.3,10.73-6,21.69-8.3,32.72s-4.28,22.16-5.82,33.31q-.57,4.18-1,8.36c-.15,1.38-.29,2.77-.4,4.14s-.18,2.62-.17,3.94a62.17,62.17,0,0,0,2.51,15.85c3,10.55,7.64,20.77,12.85,30.66a319.44,319.44,0,0,0,17.47,28.8c1.58,2.32,3.18,4.63,4.82,6.92l2.47,3.41,1.24,1.67.17.22a3.06,3.06,0,0,1,.21.29l.41.63c.25.41.46.79.67,1.2a15.59,15.59,0,0,1,1.58,5.24,17.72,17.72,0,0,1-.2,5.31,27.49,27.49,0,0,1-3.67,9,60.42,60.42,0,0,1-11.95,13.53,112,112,0,0,1-14.17,10.4,134.75,134.75,0,0,1-31.73,14.56,87.5,87.5,0,0,1-17.38,3.5c-5.95.48-12.22.31-18.33-2a23.27,23.27,0,0,1-8.35-5.34,21,21,0,0,1-3.1-4,22.44,22.44,0,0,1-1.17-2.22l-.87-2c-2.33-5.29-4.37-10.63-6.42-16-4-10.71-7.67-21.5-11.24-32.31-7.17-21.62-13.84-43.36-20.69-65l.08.23a121.05,121.05,0,0,0-8.29-16.82,40.63,40.63,0,0,0-2.53-3.66,11.5,11.5,0,0,0-2.57-2.55,86.39,86.39,0,0,1-8.2-5.92,130.38,130.38,0,0,1-14.58-13.55,56,56,0,0,1-6.32-8.2,19.59,19.59,0,0,1-2.36-5.38l-.18-.85c0-.28-.06-.43-.1-.66l-.17-1.25c-.1-.84-.21-1.68-.28-2.52a101.51,101.51,0,0,1,.16-20,158.44,158.44,0,0,1,3.3-19.56q2.25-9.63,5.28-19c1-3.12,2.07-6.22,3.11-9.3l1.58-4.58c.26-.75.5-1.5.71-2.2.1-.35.2-.7.27-1a2.19,2.19,0,0,0,.05-.3s0-.07,0,.07a1.8,1.8,0,0,0,0,.2,2.25,2.25,0,0,0,0,.58l9-.94a8.61,8.61,0,0,1,0,.88c0,.25,0,.33-.06.5,0,.34-.09.46-.13.67s-.18.62-.26.87c-.17.5-.33.91-.49,1.33l-1,2.35-1.87,4.48c-1.24,3-2.4,5.92-3.49,8.91a175.51,175.51,0,0,0-5.7,18.14c-3.08,12.25-4.7,24.91-3.54,37.25.06.77.17,1.53.25,2.3l.16,1.15c0,.17,0,.42.08.53l.07.34a13,13,0,0,0,1.56,3.43,48.46,48.46,0,0,0,5.5,7.13,124.09,124.09,0,0,0,13.77,12.82,78.23,78.23,0,0,0,7.49,5.43,18,18,0,0,1,4.36,4.15,46.25,46.25,0,0,1,3,4.31,127.49,127.49,0,0,1,8.82,17.9l0,.1,0,.14c6.84,21.69,13.47,43.4,20.58,64.94,3.56,10.75,7.24,21.47,11.21,32,2,5.26,4,10.53,6.31,15.64l.83,1.9a14.15,14.15,0,0,0,.82,1.54,13.62,13.62,0,0,0,2.1,2.72,16.24,16.24,0,0,0,5.91,3.73c4.59,1.72,10,2,15.29,1.51a80.3,80.3,0,0,0,16-3.26,128.15,128.15,0,0,0,30-13.85,105.06,105.06,0,0,0,13.26-9.76,53.66,53.66,0,0,0,10.54-11.91,20.1,20.1,0,0,0,2.74-6.66,9.2,9.2,0,0,0-.74-6,6.75,6.75,0,0,0-.37-.66l-.17-.27a.6.6,0,0,0-.09-.13l-.16-.21-1.3-1.74-2.54-3.49q-2.51-3.51-4.92-7.07a325.48,325.48,0,0,1-17.89-29.44c-5.38-10.18-10.24-20.74-13.46-32.08a68.76,68.76,0,0,1-2.78-17.72,45.42,45.42,0,0,1,.19-4.57c.12-1.46.26-2.9.41-4.34.32-2.87.67-5.71,1.06-8.55q2.34-17,5.88-33.83c2.36-11.2,5.07-22.34,8.38-33.35a199.74,199.74,0,0,1,12.51-32.37c1.31-2.62,2.77-5.19,4.34-7.71l.29-.48.14-.23c0-.07,0,0,0-.07a.48.48,0,0,0,.08-.2,3.13,3.13,0,0,0,.09-.93,11.59,11.59,0,0,0-.63-3.1,42,42,0,0,0-3.26-7c-1.32-2.36-2.8-4.68-4.34-7-3.08-4.61-6.45-9.11-9.88-13.59l-5.19-6.75c-.87-1.14-1.75-2.28-2.62-3.46-.43-.6-.87-1.2-1.31-1.84a23.85,23.85,0,0,1-1.36-2.21l.67.94h0a44.77,44.77,0,0,0-7.18-5.43c-2.67-1.7-5.48-3.31-8.32-4.86-5.69-3.11-11.56-6-17.48-8.81-11.86-5.6-24-10.82-36.11-15.85q-9.12-3.78-18.31-7.4l-9.19-3.59-4.61-1.75-2.31-.87-.57-.22-.5-.18c-.29-.1-.57-.18-.85-.25a9.9,9.9,0,0,0-6.94.93,32.78,32.78,0,0,0-7.16,5.08c-4.67,4.17-9.13,9.1-14,13.78-2.41,2.36-4.92,4.67-7.57,6.87-1.38,1.15-2.69,2.14-4,3.16l-3.93,3c-5.21,4-10.47,8-15.33,12.19-.6.52-1.2,1-1.75,1.55s-1.1,1-1.43,1.43l-.08.1,0,.05-.08.11-.34.46-.68,1c-.44.64-.89,1.3-1.32,2-1.75,2.66-3.41,5.44-5,8.25-3.2,5.63-6.18,11.42-8.82,17.3-1.31,2.93-2.54,5.9-3.58,8.87a40.06,40.06,0,0,0-2.2,8.64,8,8,0,0,0,0,1.68,3.79,3.79,0,0,0,.3,1.18,3.53,3.53,0,0,0,1.57,1.66c1.56.88,4.19,1,6.72.33a21.73,21.73,0,0,0,7.43-3.69,32.63,32.63,0,0,0,6.25-6.18,45.91,45.91,0,0,0,4.81-7.7c.68-1.37,1.31-2.78,1.87-4.21.29-.72.57-1.45.82-2.18a10.27,10.27,0,0,0,.36-1.11c0-.2-.28-.5-.14-.66a.58.58,0,0,1,.48-.15,11.06,11.06,0,0,1,1.67.22Z"/><path class="cls-78" d="M1544.71,1027.93c-13.43-4-26.26-9.79-39-15.51l-19-8.6c-6.33-2.79-12.69-5.59-19-7.71-1.58-.53-3.15-1-4.68-1.35a19.43,19.43,0,0,0-4.11-.54c-.21,0-.51,0-.63.07l-.14.05H1458l-.23.1-.91.4-.93.49a28.15,28.15,0,0,0-3.68,2.5c-4.89,3.9-9.33,9.1-13.67,14.34-8.65,10.61-16.65,22.14-25.84,32.81-2.34,2.64-4.91,5.08-6.84,8.06-.49.75-.93,1.53-1.42,2.27l-.38.55c-.09.12-.08.12-.08.14v0l0,.15-1.11,4.66c-.83,3.38-1.76,6.74-2.68,10.1l-.7,2.52c-.12.42-.21.85-.35,1.26a10,10,0,0,1-.55,1.21,11.21,11.21,0,0,0-.83,2.49l-.68,2.52-5.43,20.2-5.27,20.23,0,.11a.17.17,0,0,0,0-.07.76.76,0,0,0,0-.15,1.12,1.12,0,0,0,0-.32,1,1,0,0,0-.34-.5,1,1,0,0,0-.59-.24h.89c1.64-.06,3.28-.21,4.9-.41a38.92,38.92,0,0,0,9.33-2.35,21.4,21.4,0,0,0,7.49-4.93c.5-.52.91-1.11,1.37-1.66s.74-1.17,1.1-1.88l1.07-2.2c.33-.75.64-1.53,1-2.3A179.13,179.13,0,0,0,1419,1085c1.87-6.63,3.56-13.37,5-20.09l.17-.8.48-.5c3.11-3.22,6.18-6.48,9.32-9.67l9.39-9.62q4.68-4.82,9.42-9.58l9.48-9.52,1.44,1.32-8.72,10.23c-2.9,3.42-5.83,6.8-8.78,10.18l-8.81,10.14c-2.93,3.39-5.92,6.72-8.87,10.08l.64-1.29c-2.52,13.87-5.33,27.58-10.56,41-.35.84-.69,1.68-1.07,2.51l-1.21,2.51c-.42.84-1,1.75-1.55,2.62s-1.25,1.64-2,2.38a27.71,27.71,0,0,1-9.85,6.46,48,48,0,0,1-10.88,2.77c-1.84.23-3.67.4-5.51.48l-.7,0h-1a5.53,5.53,0,0,1-3-1.23,5.41,5.41,0,0,1-1.75-2.65,5.5,5.5,0,0,1-.23-1.61,5.4,5.4,0,0,1,.07-.8l.07-.39,0-.21,4.92-20.32,4.76-20.37.59-2.54a11.32,11.32,0,0,0,.44-2.59,11.55,11.55,0,0,1,.09-1.32c.08-.43.19-.85.28-1.28l.59-2.55c.77-3.4,1.54-6.8,2.4-10.17l.67-2.53.33-1.26.17-.64.13-.45c.06-.2.12-.4.19-.59a8.74,8.74,0,0,1,1.17-2.17c.12-.17.24-.33.37-.48s.3-.32.35-.37l.47-.44c.64-.58,1.32-1.13,2-1.71,2.55-2.35,4.38-5.31,6.39-8.13,8.21-11.12,16.33-22.37,25.17-33.46,2.24-2.77,4.54-5.51,7-8.15a66.73,66.73,0,0,1,8.27-7.54,36.09,36.09,0,0,1,5.08-3.17l1.43-.65c.49-.21,1-.38,1.51-.57l.38-.14.56-.13c.37-.09.76-.17,1.14-.24a15,15,0,0,1,2-.1,24.94,24.94,0,0,1,6.18,1.13c1.83.56,3.58,1.19,5.27,1.88a202,202,0,0,1,19.16,9.28l9.22,5,9.13,5.12q9.11,5.13,18.31,10c6.12,3.3,12.34,6.4,18.72,9.2Z"/><path class="cls-78" d="M1516.31,1085.31a152.66,152.66,0,0,1-14.36-9.11c-4.64-3.24-9.18-6.6-13.75-9.83-2.29-1.6-4.6-3.21-6.89-4.5a13,13,0,0,0-1.64-.81,4.22,4.22,0,0,0-.62-.2H1479s0,0,0,0a.68.68,0,0,0,.15,0,2,2,0,0,0,.29,0v0l-.09.08-.27.22c-.2.17-.43.36-.66.57-.46.43-.93.89-1.4,1.37-3.75,3.89-7.38,8.27-10.86,12.56h0l1.26-3.45c.06.89,0,1.52.06,2.27s0,1.42,0,2.13c-.07,1.41-.16,2.82-.33,4.21a58.12,58.12,0,0,1-1.5,8.34,45.66,45.66,0,0,1-7.22,15.7,33.07,33.07,0,0,1-14,11.15,27.44,27.44,0,0,1-4.48,1.39,19.4,19.4,0,0,1-5.06.44l-.73-.06a5.35,5.35,0,0,1-1.12-.27,4.72,4.72,0,0,1-.59-.26l-.35-.19-.26-.16a14.37,14.37,0,0,1-1.22-.94c-.62-.54-1.14-1-1.65-1.53-1-1-1.93-2-2.88-3l-1.34-1.44.21-2,4.9-44.36h0l.19-1.3.6-.75c8-10,15.91-20,23.73-30.15l5.84-7.61,2.92-3.8.73-1,.18-.24.33-.39a6.68,6.68,0,0,1,.71-.7,8.59,8.59,0,0,1,3.1-1.62,16.71,16.71,0,0,1,5.68-.53c.45,0,.87.17,1.34-.1a5.19,5.19,0,0,1,.71-.35,1.38,1.38,0,0,1,.67,0c.88.14,1.74.31,2.59.52a33.11,33.11,0,0,1,5,1.59c.9.36,1.57.69,2.31,1l2.18,1c11.62,5.31,23.28,10.56,34.86,16s23.2,10.77,34.75,16.27l-.46,1.08q-18-6.72-35.85-13.69c-11.94-4.58-23.82-9.32-35.72-14l-2.23-.88c-.74-.29-1.53-.61-2.12-.82a28.67,28.67,0,0,0-4.15-1.08c-.71-.13-1.42-.23-2.13-.31a1,1,0,0,1-.51-.14,4.41,4.41,0,0,1-.49-.48c-.33-.34-.7-.22-1.05-.26a11.32,11.32,0,0,0-3.82.39,3.11,3.11,0,0,0-1.12.58s-.11.09-.13.14l-.06.07-.17.25-.7,1-2.78,3.91-5.56,7.81c-7.38,10.43-14.71,20.91-21.88,31.5l.8-2.05h0l-4.63,44.39-1.13-3.4c.83.89,1.73,1.82,2.58,2.65.43.42.87.83,1.24,1.14.16.15.37.31.32.27l0,0-.14-.08a3.17,3.17,0,0,0-.36-.16,4.64,4.64,0,0,0-.88-.21l.24,0a11.18,11.18,0,0,0,2.73-.28,18.31,18.31,0,0,0,3-1,24.41,24.41,0,0,0,10.17-8.28A36.72,36.72,0,0,0,1457,1087a50.91,50.91,0,0,0,1.24-7.1c.13-1.2.2-2.4.25-3.61,0-.6,0-1.19,0-1.79s0-1.23,0-1.64l-.14-2,1.4-1.44h0c4.44-3.71,8.8-7.29,13.64-10.69.61-.42,1.24-.84,1.92-1.25.33-.21.68-.41,1.08-.62l.64-.32.37-.16.49-.17a4.91,4.91,0,0,1,.8-.16,3.84,3.84,0,0,1,.68,0c.21,0,.38,0,.54.08a3.52,3.52,0,0,1,.44.11,8.37,8.37,0,0,1,1.35.55,18.22,18.22,0,0,1,2.07,1.21c2.49,1.68,4.67,3.48,6.88,5.28,4.37,3.62,8.62,7.29,13,10.85a150.59,150.59,0,0,0,13.45,10Z"/><path class="cls-79" d="M1547.09,1005.31c3.61-10.23,5.6-12.37,8.78-33.64,3.76-25.23,4.68-35,4.68-35s-34.33-94.25-38-101.56-20,8.59-13.35,31S1523,931.46,1523,931.46l-16.23,64"/><path class="cls-80" d="M1385.05,1037.32a9.58,9.58,0,0,1,.9-2.87c.42-.91.9-1.79,1.4-2.66,1-1.76,2.12-3.4,3.26-5s2.37-3.22,3.6-4.79,2.5-3.1,3.79-4.61l0,0,.14-.12c4.44-3.86,8.73-8,13.12-12s8.72-8.13,13.25-12.06,9.08-7.85,14-11.42c2.45-1.79,5-3.51,7.63-5.09a36.55,36.55,0,0,1,8.68-4l.7-.2.61.2,3,1c1,.35,2,.73,2.93,1.09,2,.72,3.87,1.5,5.79,2.26q5.74,2.29,11.44,4.68,11.37,4.85,22.64,9.83c7.51,3.36,15,6.74,22.47,10.21s14.89,7,22.29,10.6c-7.7-2.9-15.39-5.82-23-8.82l-23-9c-7.65-3-15.28-6-23-9-3.82-1.49-7.65-3-11.48-4.4-1.92-.72-3.83-1.44-5.75-2.1-1-.33-1.92-.7-2.87-1l-2.83-.89h1.3a35.16,35.16,0,0,0-7.48,3.57c-2.44,1.49-4.83,3.16-7.18,4.91-4.66,3.52-9.26,7.23-13.75,11.1l-13.46,11.69c-4.49,3.93-9,7.82-13.79,11.53l.18-.16-4.21,4.12c-1.4,1.37-2.75,2.79-4.12,4.19s-2.68,2.86-4,4.35c-.65.74-1.24,1.51-1.84,2.29A9.28,9.28,0,0,0,1385.05,1037.32Z"/><path class="cls-80" d="M1395.43,1092.79c.86-3.52,1.81-7,2.85-10.52s2.16-6.94,3.32-10.39,2.44-6.86,3.75-10.27,2.74-6.76,4.25-10.1l0-.06.08-.13c1.63-2.66,3.35-5.22,5.1-7.77s3.58-5,5.42-7.48c3.69-4.93,7.49-9.77,11.47-14.47s8-9.39,12.24-13.85,8.55-8.87,13-13.1l.7-.66h.89a26.71,26.71,0,0,1,5.51.72c1.72.39,3.39.85,5,1.35,3.29,1,6.49,2.14,9.66,3.35q9.46,3.72,18.63,8c6.11,2.84,12.18,5.76,18.16,8.84s11.94,6.23,17.79,9.54l-18.6-7.78c-6.21-2.56-12.4-5.14-18.64-7.59s-12.47-4.9-18.78-7c-3.14-1.08-6.3-2.13-9.46-3-1.58-.43-3.17-.83-4.73-1.13a21.58,21.58,0,0,0-4.48-.49l1.59-.66c-4.33,4.25-8.58,8.59-12.7,13.06s-8.21,9-12.15,13.61-7.84,9.3-11.64,14.06-7.51,9.59-10.94,14.53l.11-.19q-2.45,4.8-4.76,9.69c-1.54,3.26-3,6.56-4.45,9.87s-2.83,6.66-4.24,10S1396.75,1089.41,1395.43,1092.79Z"/><path class="cls-80" d="M1438,1086.48a13.93,13.93,0,0,1-1-4.91,34.06,34.06,0,0,1,0-5c.1-1.68.37-3.33.63-5,.16-.82.29-1.65.46-2.47l.57-2.45.06-.25.26-.35,14.57-20.07c2.45-3.33,4.89-6.69,7.43-10s5.13-6.56,7.77-9.77l.78-1,1.13.06a33.69,33.69,0,0,1,9.45,2.16c2.93,1,5.75,2.26,8.51,3.56,5.51,2.65,10.83,5.55,16,8.63s10.3,6.32,15.29,9.71c2.51,1.68,5,3.42,7.42,5.19,1.22.89,2.44,1.77,3.64,2.7l1.78,1.39.88.71.43.37.21.2.09.1s0,0,0,.07l-.07,0a.09.09,0,0,0,.07,0s0,0,0,0l-.11-.09-.23-.17-.47-.3-1-.6-1.93-1.16-3.9-2.27L1519,1051c-5.26-2.9-10.53-5.78-15.87-8.49s-10.69-5.38-16.16-7.67c-2.73-1.15-5.48-2.24-8.25-3.12a29.9,29.9,0,0,0-8.12-1.69l1.91-.89q-3.78,4.89-7.51,9.83l-7.46,9.9c-2.5,3.3-5,6.59-7.64,9.83s-5.26,6.43-7.94,9.6l.31-.61-1.59,4.57-.72,2.31-.64,2.33c-.44,1.55-.74,3.13-1,4.72A17.57,17.57,0,0,0,1438,1086.48Z"/><path class="cls-80" d="M1517.05,840.75a2.37,2.37,0,0,1,1,.81,10.05,10.05,0,0,1,.79,1.06c.5.72,1,1.48,1.39,2.24.87,1.52,1.65,3.08,2.43,4.65,1.55,3.13,2.94,6.33,4.33,9.53q4.1,9.63,7.74,19.44c1.21,3.26,2.43,6.53,3.59,9.81l3.41,9.88c2.27,6.59,4.34,13.24,6.38,19.92,1,3.34,2,6.69,2.88,10.09.45,1.7.88,3.4,1.27,5.17a25.57,25.57,0,0,1,.48,2.85,26.13,26.13,0,0,1,.06,2.9,103.87,103.87,0,0,1-1,10.59c-.45,3.48-.93,6.94-1.49,10.38s-1.17,6.88-1.79,10.31-1.32,6.84-2,10.25c-1.42,6.83-2.91,13.63-4.68,20.38,1.21-13.89,2.89-27.7,4.38-41.49.74-6.86,1.51-13.84,1.71-20.52a21.41,21.41,0,0,0-.06-2.31,22.07,22.07,0,0,0-.42-2.28c-.38-1.63-.82-3.29-1.27-4.95l-2.84-10c-3.91-13.3-8.06-26.55-12.18-39.81-2.11-6.61-4.16-13.24-6.36-19.83-1.07-3.3-2.21-6.57-3.37-9.84-.59-1.64-1.2-3.26-1.86-4.86-.33-.8-.67-1.59-1.06-2.36a11.27,11.27,0,0,0-.63-1.13A2.23,2.23,0,0,0,1517.05,840.75Z"/><path class="cls-78" d="M1381,1048.81a2.6,2.6,0,0,1,1.69-.48,3.26,3.26,0,0,1,1.8.7,6.55,6.55,0,0,1,2,3.13,9.49,9.49,0,0,1,.36,3.65,17.07,17.07,0,0,1-.68,3.4,27.94,27.94,0,0,1-2.74,6.06,42.81,42.81,0,0,1-3.81,5.36,35,35,0,0,1,1.66-6.35c.7-2,1.43-4,2-5.94a15.42,15.42,0,0,0,.9-5.66,6.31,6.31,0,0,0-.75-2.63A2.56,2.56,0,0,0,1381,1048.81Z"/><path class="cls-78" d="M1395.53,1097.12a2.77,2.77,0,0,1,1.91-.92,3.62,3.62,0,0,1,2.2.67,7.2,7.2,0,0,1,1.61,1.55,5.62,5.62,0,0,1,.63,1,2.69,2.69,0,0,1,.25.62,3,3,0,0,1,.16.62,7.35,7.35,0,0,1,0,2.34,12.94,12.94,0,0,1-.45,2.11,28.18,28.18,0,0,1-1.49,3.85,60.2,60.2,0,0,1-4,6.93l-2.17,3.27a22.08,22.08,0,0,0-2,3.41,11,11,0,0,1,.64-4c.42-1.29.89-2.55,1.42-3.76,1-2.44,2.24-4.78,3.33-7.1.55-1.16,1.07-2.31,1.51-3.46a9.85,9.85,0,0,0,.8-3.29,1.32,1.32,0,0,0,0-.35,1,1,0,0,0,0-.32,5,5,0,0,0-.3-.77,5.88,5.88,0,0,0-.89-1.48,2.85,2.85,0,0,0-1.33-1A2.78,2.78,0,0,0,1395.53,1097.12Z"/><path class="cls-78" d="M1438,1086.48a7.45,7.45,0,0,1,5.33,3.79,12.47,12.47,0,0,1,1.26,3.2,11.62,11.62,0,0,1,.39,3.44,11.76,11.76,0,0,1-.7,3.44,14,14,0,0,1-1.59,3c-1.25,1.82-2.63,3.22-3.94,5,0-2.24,1-4.34,1.74-6.18a28.63,28.63,0,0,0,1-2.73,14.69,14.69,0,0,0,.52-2.69,16.45,16.45,0,0,0,0-2.81,11.18,11.18,0,0,0-.51-2.8A8.64,8.64,0,0,0,1438,1086.48Z"/><path class="cls-78" d="M1513.16,837.85c1.11,2.41,2.06,4.8,3.06,7.15s2,4.66,3.1,6.88a27.58,27.58,0,0,0,4,6.07,8.76,8.76,0,0,0,6.32,3.15,6.68,6.68,0,0,1-4.07.43,9.45,9.45,0,0,1-3.83-1.83,18.72,18.72,0,0,1-5-6.47,33.32,33.32,0,0,1-2.67-7.51A30.18,30.18,0,0,1,1513.16,837.85Z"/><path class="cls-78" d="M1501.45,1079.79c2.35,3.49,4.6,6.84,6.93,10.08s4.77,6.34,7.34,9.29a78,78,0,0,0,8.34,8.22c.77.61,1.53,1.24,2.29,1.89s1.61,1.14,2.42,1.75l1.21.91,1.29.81c.86.55,1.73,1.12,2.59,1.75-1-.1-2.07-.28-3.12-.47-.53-.08-1-.19-1.57-.31l-1.5-.5c-1-.35-2-.69-3-1.12s-1.9-1-2.85-1.48a39.05,39.05,0,0,1-9.85-8.15,47,47,0,0,1-7-10.6A37,37,0,0,1,1501.45,1079.79Z"/><path class="cls-78" d="M1471.8,1076.05a53.73,53.73,0,0,1,5.55,13,51.27,51.27,0,0,1,2.05,14.14c-.07,2.44-.27,4.74-.51,7.09s-.55,4.66-1,7a87.94,87.94,0,0,1-3.3,13.68c.28-4.69.63-9.32,1-14l.47-6.94c.15-2.3.33-4.65.34-6.87,0-1.13,0-2.26-.06-3.39s-.15-2.26-.28-3.39c-.19-2.27-.61-4.52-1-6.79C1474.22,1085.06,1473.11,1080.57,1471.8,1076.05Z"/><path class="cls-70" d="M1507.2,1335.12s64.77-7.2,99.54-45.21l40.89,68.39c-8.29,20.72-66,57.43-111.38,46.83Z"/><g class="cls-81"><path class="cls-72" d="M1521.37,1297.3c14.92,6.09,64,133.88,64,133.88l-72.2,8.69-38.3-110.53Z"/><polygon class="cls-82" points="1589.43 1269.48 1638.46 1380.37 1667.27 1351.67 1618.93 1246.88 1589.43 1269.48"/><path class="cls-83" d="M1506.81,1309.28c-.56-1.56,47.77,108,47.77,108l-36.92,10.43-30.84-63.82-.81-30.52Z"/></g><path class="cls-84" d="M1507.2,1335.12s64.77-7.2,99.54-45.21l40.89,68.39c-8.29,20.72-66,57.43-111.38,46.83Z"/><path class="cls-20" d="M1405.93,423.62c-4.49,7.2-9.49,14.08-14.65,20.82s-10.62,13.27-16.2,19.7a423.51,423.51,0,0,1-36,36.26,389,389,0,0,1-40.35,31.68c-7,4.88-14.37,9.38-21.74,13.77-3.74,2.11-7.45,4.3-11.26,6.27-1.89,1-3.77,2-5.68,3l-5.73,2.9c-30.71,15.2-62.82,27-95.44,36.68-8.16,2.4-16.33,4.74-24.56,6.87s-16.49,4.14-24.76,6c-16.6,3.66-33.23,7-50.11,9.35a2,2,0,0,1-.77-3.83h0c16.28-4.34,32.57-8.83,48.71-13.66q12.13-3.53,24.17-7.36c8-2.51,16.05-5.06,24-7.75,31.86-10.74,63.33-22.57,93.45-37.05,30.15-14.29,58.2-32.61,84.43-53.5,13-10.52,25.71-21.58,37.78-33.31,6.09-5.82,12-11.86,17.78-18q4.35-4.59,8.58-9.32T1405.93,423.62Z"/><path class="cls-85" d="M778.45,1513.92H1809A21.72,21.72,0,0,1,1830.5,1539l-80.19,516.4a21.71,21.71,0,0,1-21.46,18.39h-867a21.72,21.72,0,0,1-21.45-18.26L757,1539.11A21.72,21.72,0,0,1,778.45,1513.92Z"/><g class="cls-86"><path class="cls-87" d="M723.53,1547.14c7.82,0,1131.87,2.6,1131.87,2.6"/></g><path class="cls-88" d="M778.45,1513.92H1809A21.72,21.72,0,0,1,1830.5,1539l-80.19,516.4a21.71,21.71,0,0,1-21.46,18.39h-867a21.72,21.72,0,0,1-21.45-18.26L757,1539.11A21.72,21.72,0,0,1,778.45,1513.92Z"/><rect class="cls-89" x="781.27" y="2073.77" width="1024.95" height="49.4" rx="12"/><ellipse class="cls-90" cx="1293.74" cy="1837.59" rx="115.87" ry="84.76"/><path class="cls-91" d="M1241,1890.6l127.45-93.07c-16.59-16.06-42.91-26.44-72.56-26.44-50.21,0-90.91,29.78-90.91,66.5C1205,1859.23,1219.12,1878.45,1241,1890.6Z"/><path class="cls-91" d="M1336.72,1850.63l-71.3,49.63a121.1,121.1,0,0,0,30.47,3.84c33.39,0,62.55-13.17,78.36-32.79Z"/><path class="cls-92" d="M910.33,205.35c50.92-7.72,319.33-56.43,357.85-63.42a1.86,1.86,0,0,1,1.84,2.94l-144,196.87a1.88,1.88,0,0,1-2.64.39l-91.71-69a1.87,1.87,0,0,0-2.93,1L1011.7,335.4a1.87,1.87,0,0,1-3.64-.17l-16.62-92a1.87,1.87,0,0,0-1.14-1.4l-80.4-32.86A1.87,1.87,0,0,1,910.33,205.35Z"/><g class="cls-93"><polygon class="cls-94" points="1169.47 193.25 973 246.28 1008.06 357.55 1073.27 304.41 1027.62 278.26 1169.47 193.25"/></g><path class="cls-95" d="M910.33,205.35c50.92-7.72,319.33-56.43,357.85-63.42a1.86,1.86,0,0,1,1.84,2.94l-144,196.87a1.88,1.88,0,0,1-2.64.39l-91.71-69a1.87,1.87,0,0,0-2.93,1L1011.7,335.4a1.87,1.87,0,0,1-3.64-.17l-16.62-92a1.87,1.87,0,0,0-1.14-1.4l-80.4-32.86A1.87,1.87,0,0,1,910.33,205.35Z"/><line class="cls-96" x1="1008.06" y1="335.23" x2="1065.77" y2="298.77"/><polygon class="cls-97" points="1029.69 269.68 1169.28 192.92 1169.66 193.58 1033.7 276.6 1029.69 269.68"/><rect class="cls-98" x="364.78" y="2136.79" width="1856.9" height="97.37" rx="42.89"/><g class="cls-99"><polygon class="cls-100" points="316.76 2162.26 2264.07 2162.26 2236.25 2061.41 288.94 2098.14 316.76 2162.26"/><polygon class="cls-101" points="316.76 2162.26 2284.93 2162.26 2277.98 2207.46 299.37 2207.46 316.76 2162.26"/></g><rect class="cls-102" x="364.78" y="2136.79" width="1856.9" height="97.37" rx="42.89"/><path class="cls-103" d="M1718,704.58V400.4a57.13,57.13,0,0,1,57.13-57.13h256.08a65.82,65.82,0,0,1,65.82,65.82V561.16a58.43,58.43,0,0,1-58.43,58.43H1770.18Z"/><path class="cls-104" d="M743.81,1429.28V1125.09A57.12,57.12,0,0,0,686.68,1068H430.6a65.82,65.82,0,0,0-65.82,65.82v152.07a58.43,58.43,0,0,0,58.43,58.42H691.65Z"/><circle class="cls-55" cx="1916.07" cy="426.08" r="38.1"/><path class="cls-55" d="M1916.07,474.84a48.57,48.57,0,0,0-48.56,48.57v61h97.12v-61A48.57,48.57,0,0,0,1916.07,474.84Z"/><circle class="cls-105" cx="1997.37" cy="461.07" r="29.68"/><path class="cls-105" d="M1997.37,499.06a37.83,37.83,0,0,0-37.83,37.83v47.56h75.66V536.89A37.83,37.83,0,0,0,1997.37,499.06Z"/><circle class="cls-105" cx="1829.68" cy="461.07" r="29.68"/><path class="cls-105" d="M1829.68,499.06a37.83,37.83,0,0,0-37.83,37.83v47.56h75.66V536.89A37.83,37.83,0,0,0,1829.68,499.06Z"/><path class="cls-106" d="M513.36,1112l86,46.6a8.74,8.74,0,0,0,5.72.92c15.25-2.7,83.93-12.31,83.73,34.15-.14,31.51-33.15,42.16-73.72,38.51a8.88,8.88,0,0,0-4.83.92l-97.08,49.67A8.78,8.78,0,0,1,500.4,1275V1119.76A8.78,8.78,0,0,1,513.36,1112Z"/><rect class="cls-106" x="625.65" y="1214.39" width="34.77" height="82.95" rx="12"/><line class="cls-107" x1="409.44" y1="1164.61" x2="468.56" y2="1176.47"/><path class="cls-107" d="M412.85,1225.43C418.06,1225.08,472,1211,472,1211"/><line class="cls-107" x1="427.89" y1="1276.88" x2="473.1" y2="1254.71"/><line class="cls-107" x1="437.59" y1="1116.34" x2="477.79" y2="1138.94"/><circle class="cls-106" cx="2351.83" cy="1358.36" r="109.74"/><path class="cls-108" d="M2357,1243.44a114.86,114.86,0,1,0,114.86,114.86A115,115,0,0,0,2357,1243.44Zm-104.35,122.81h56.15a184.21,184.21,0,0,0,4.65,45.46c-5.08,1.19-10,2.5-14.78,3.93q-15.35,4.59-22.67,8.84A104.14,104.14,0,0,1,2252.61,1366.25Zm111.12-43.39-1.48-66a161.22,161.22,0,0,1,28.46,52.27q1.38,4.24,2.53,8.52A146.11,146.11,0,0,1,2363.73,1322.86Zm31.83,4.62a161.38,161.38,0,0,1,3.21,28.56h-34.3L2364,1333A159.16,159.16,0,0,0,2395.56,1327.48Zm-42-4.25A156.84,156.84,0,0,1,2327,1321l-2.32-.42a292.42,292.42,0,0,1,23.93-66.58c1.11-.09,2.23-.16,3.34-.21Zm-28.21,7.83a163.81,163.81,0,0,0,27.36,2.32h1.07l.51,22.67h-34.9a232.9,232.9,0,0,1,3.3-25.46C2323.53,1330.75,2324.41,1330.91,2325.31,1331.06Zm-16.12,25h-56.85a104,104,0,0,1,12.46-47.29c9.93,6.2,26.77,14.46,47.86,19.67A238.77,238.77,0,0,0,2309.19,1356Zm9.67,10.21h35.62l.88,39.45a236.53,236.53,0,0,0-32.15,3.94A170.61,170.61,0,0,1,2318.86,1366.25Zm22.51,50.94c4.49-.54,9.26-1,14.22-1.25l1,47q-4.42,0-8.74-.39a141.86,141.86,0,0,1-22-43C2330.84,1418.64,2336,1417.83,2341.37,1417.19Zm24.43-1.56a165.5,165.5,0,0,1,23.31,1.45,242.61,242.61,0,0,1-20,44l1.73,1q-2,.26-4,.45Zm-.23-10.21-.88-39.17h34a177.91,177.91,0,0,1-6.57,41A176.9,176.9,0,0,0,2365.57,1405.42Zm43.13-39.17h52.6a104.11,104.11,0,0,1-22.85,57.61A110,110,0,0,0,2402,1409.1,191.54,191.54,0,0,0,2408.7,1366.25Zm.1-10.21a173.6,173.6,0,0,0-3.5-31.61,177.37,177.37,0,0,0,40.94-20.66,103.91,103.91,0,0,1,15.33,52.27Zm31.68-60.71a168.41,168.41,0,0,1-37.51,19.25c-.8-3-1.66-5.85-2.55-8.58a173.22,173.22,0,0,0-26.57-51A104.75,104.75,0,0,1,2440.48,1295.33Zm-104.13-39.64a303.11,303.11,0,0,0-21.64,62.71A161,161,0,0,1,2270.1,1300,104.91,104.91,0,0,1,2336.35,1255.69ZM2283,1432.24c6.16-3,18-7.19,33.09-10.64a152.26,152.26,0,0,0,17.9,38.79A104.61,104.61,0,0,1,2283,1432.24Zm98.34,27.84a242.57,242.57,0,0,0,17.84-41.25,100.26,100.26,0,0,1,32.44,12.74A104.59,104.59,0,0,1,2381.31,1460.08Z"/><rect class="cls-55" x="1916.07" y="1793.85" width="254.77" height="48.45" rx="18.38"/><rect class="cls-55" x="1937.96" y="1862.37" width="179.95" height="41.73" rx="18.38"/><rect class="cls-55" x="1997.37" y="1883.23" width="29.68" height="65.2" rx="12"/><path class="cls-109" d="M2105,1978.44c10.85,0,64.8-6.08,64.76,39.57-3.49,55.19-66,38.83-66,38.83"/><path class="cls-110" d="M1951.14,1943.9c26.11-1.26,119.93.11,145.9.53a6.81,6.81,0,0,1,6.71,6.82v88.29a66.69,66.69,0,0,1-66.7,66.69h-25.69a66.69,66.69,0,0,1-66.7-66.69v-88.83A6.81,6.81,0,0,1,1951.14,1943.9Z"/><g class="cls-111"><path class="cls-112" d="M2030.18,1887.16c11.43-5.22,40.4,18.26,40.4,18.26l.51,127.79s3.19,61.67-29.86,83.79c-43.31,29,154,27.82,154,27.82l33.31-271.16Z"/><path class="cls-113" d="M1972.43,1887.16c0,20.86-27.77,205.16,20.31,227.88,31.93,15.09,18.62-8.81,18.62-8.81l-7.64-232.57Z"/></g><path class="cls-114" d="M1951.14,1943.9c26.11-1.26,119.93.11,145.9.53a6.81,6.81,0,0,1,6.71,6.82v88.29a66.69,66.69,0,0,1-66.7,66.69h-25.69a66.69,66.69,0,0,1-66.7-66.69v-88.83A6.81,6.81,0,0,1,1951.14,1943.9Z"/><rect class="cls-115" x="1942.5" y="2103.96" width="163.41" height="26.08" rx="11.49"/><path class="cls-116" d="M503.69,1980.48s-138.76-214.91-89.78-267.07,140,83,141.45,267.07Z"/><path class="cls-55" d="M407.06,1744.14a44.25,44.25,0,0,1,.85-8.08,46.78,46.78,0,0,1,2.21-7.93,35.06,35.06,0,0,1,9.31-14.2,27.42,27.42,0,0,1,7.57-4.8,29.32,29.32,0,0,1,8.76-2.17,37,37,0,0,1,8.87.27,50.23,50.23,0,0,1,8.43,2l.25.08.37.19a76.57,76.57,0,0,1,15.61,11c2.35,2.1,4.57,4.32,6.71,6.59s4.21,4.6,6.16,7a206.74,206.74,0,0,1,20.51,30.64,306.4,306.4,0,0,1,15.76,33,284.35,284.35,0,0,1,11.7,34.48c-5.36-10.88-10.81-21.63-16.51-32.22s-11.57-21-17.87-31.17a267.15,267.15,0,0,0-20.5-29,132.59,132.59,0,0,0-11.95-12.74,74.23,74.23,0,0,0-13.6-10.22l.61.27a40,40,0,0,0-14.13-2.84,24.42,24.42,0,0,0-6.87,1,23.22,23.22,0,0,0-6.31,3.08,34.76,34.76,0,0,0-9.84,11.14A64.5,64.5,0,0,0,407.06,1744.14Z"/><path class="cls-117" d="M627.32,1980.48c10.31-6.27,132.89-150.44,88.55-195.71,0,0-76.1-60.28-120.2,195.71Z"/><path class="cls-118" d="M555.36,1980.48c11.86-3.66-87.25-314-37.69-368.78s103.35-2.61,109.05,75.63-31.05,293.15-31.05,293.15Z"/><path class="cls-119" d="M556,1681a42.3,42.3,0,0,1,1.2,4.64c.31,1.53.63,3.06.9,4.59.59,3.06,1.11,6.13,1.62,9.2,1,6.14,2,12.29,2.89,18.44q2.75,18.47,5.11,37,4.79,37,8.46,74.18c2.44,24.78,4.49,49.61,5.94,74.51q1.07,18.68,1.56,37.42c.3,12.51.36,25-.07,37.62l-12-.63c.85-12.23,1.23-24.57,1.37-36.92s0-24.73-.23-37.12c-.56-24.77-1.73-49.56-3.29-74.34S566,1780,563.7,1755.25q-1.74-18.55-3.79-37.07c-.71-6.17-1.42-12.34-2.24-18.49-.4-3.07-.81-6.15-1.28-9.21-.22-1.54-.48-3.06-.74-4.58a41.16,41.16,0,0,0-1-4.43Z"/><path class="cls-120" d="M604.8,1977c.12-.43.25-.86.4-1.28l0-.15,0-.07.06-.15.12-.29.48-1.15.93-2.17,1.87-4.27,3.77-8.47,7.63-16.87q7.67-16.83,15.47-33.6t15.83-33.45q4-8.32,8.17-16.61c1.4-2.75,2.81-5.5,4.27-8.23.73-1.36,1.47-2.72,2.25-4.06a37.8,37.8,0,0,1,2.55-4l1.08.83a37.21,37.21,0,0,0-2.14,4c-.67,1.37-1.29,2.77-1.92,4.17q-1.87,4.2-3.64,8.46-3.55,8.51-6.94,17.1-6.81,17.16-13.35,34.43t-13,34.57L622.4,1963l-3.13,8.66-1.54,4.32-.74,2.14-.33,1-.08.25,0,.12,0,.06h0a.41.41,0,0,0,.05-.19Z"/><path class="cls-121" d="M529.55,1977.07a11.19,11.19,0,0,0-2.43-.25,4.27,4.27,0,0,1-.89-.17c-.26-.07-.56-.12-.76-.2a2.82,2.82,0,0,1-1.68-1.06,2.16,2.16,0,0,1-.23-.69l-.15-.7-.32-1.42-1.36-5.73c-.93-3.84-1.9-7.68-2.88-11.51q-2.91-11.53-6-23-6.06-23-12.63-45.89c-4.41-15.23-8.87-30.45-13.92-45.46q-3.71-11.29-8-22.34c-.71-1.85-1.44-3.69-2.23-5.5l-1.16-2.73-1.23-2.69a104.57,104.57,0,0,0-5.45-10.51l.94-.68c5.14,6.23,9.18,13.26,12.95,20.35s7.08,14.42,10.32,21.76,6.09,14.82,9,22.29c1.44,3.74,2.8,7.5,4.16,11.26s2.68,7.54,4,11.32c5.21,15.13,9.94,30.4,14.41,45.74q3.31,11.52,6.42,23.11,1.51,5.81,3,11.65l1.42,5.87.35,1.49.17.76a2.2,2.2,0,0,1,.09.77,3.21,3.21,0,0,1-1.07,1.86,4.87,4.87,0,0,1-.62.53,8.12,8.12,0,0,1-.75.56,5.35,5.35,0,0,1-2.22,1.23Z"/><path class="cls-122" d="M646.77,1982.84H482.18a13.65,13.65,0,0,0-13.62,13.62v35.93A13.64,13.64,0,0,0,481.28,2046L502.17,2130H624.46l19.31-84h3a13.66,13.66,0,0,0,13.62-13.62v-35.93A13.65,13.65,0,0,0,646.77,1982.84Z"/><g class="cls-123"><polygon class="cls-124" points="630.25 1968.07 630.25 1971.55 630.25 2044.64 660.39 2045.15 670.24 1964.59 630.25 1968.07"/><polygon class="cls-124" points="605.91 2084.56 637.79 2084.56 624.46 2140.78 598.96 2130.04 605.91 2084.56"/><path class="cls-125" d="M492.9,1970.39c0,1.74-.58,74.66-.58,74.66L519,2130l24.34,2.62-15.39-87.72.9-73.39Z"/><path class="cls-126" d="M458.7,2045.15l194.14-.58-8.68,11.87h-171Z"/></g><path class="cls-127" d="M646.77,1982.84H482.18a13.65,13.65,0,0,0-13.62,13.62v35.93A13.64,13.64,0,0,0,481.28,2046L502.17,2130H624.46l19.31-84h3a13.66,13.66,0,0,0,13.62-13.62v-35.93A13.65,13.65,0,0,0,646.77,1982.84Z"/><path class="cls-128" d="M513.53,1623.59a69.7,69.7,0,0,1,9.34-13,65.31,65.31,0,0,1,12.3-10.79,47.92,47.92,0,0,1,15.48-6.89,40.12,40.12,0,0,1,17.52-.28,46.36,46.36,0,0,1,8.44,2.61,56.11,56.11,0,0,1,7.72,4.06,58.44,58.44,0,0,1,6.94,5.06c.55.44,1.11.93,1.66,1.43a21.25,21.25,0,0,1,1.64,1.51c1,1.09,2.07,2.18,3,3.26a85,85,0,0,1,9.6,13.93,122.41,122.41,0,0,1,6.9,15.14,164,164,0,0,1,4.84,15.69c1.29,5.29,2.38,10.6,3.22,15.94s1.51,10.68,1.95,16,.75,10.7.87,16a291.06,291.06,0,0,1-1,32c-.47,5.31-1,10.59-1.84,15.85-.4,2.63-.81,5.26-1.26,7.87s-1,5.23-1.61,7.81c-.06-2.66-.09-5.3-.2-7.94s-.13-5.28-.24-7.92c-.22-5.27-.42-10.52-.72-15.76-.58-10.48-1.34-20.92-2.49-31.26s-2.58-20.62-4.61-30.71a191.52,191.52,0,0,0-8.12-29.44,112.79,112.79,0,0,0-6.08-13.68,77.71,77.71,0,0,0-8-12.32c-.75-1-1.49-1.83-2.23-2.7a15.47,15.47,0,0,0-1.21-1.22c-.41-.4-.82-.81-1.29-1.22a60.29,60.29,0,0,0-5.59-4.57,41.91,41.91,0,0,0-12.5-6.3,35.7,35.7,0,0,0-6.82-1.29,36.1,36.1,0,0,0-7,.16,45,45,0,0,0-14,4.25C529.05,1609.26,520.78,1615.89,513.53,1623.59Z"/><path class="cls-128" d="M669.88,1792.66a52.73,52.73,0,0,1,6.49-4.89,55.26,55.26,0,0,1,7.19-4c5-2.29,10.55-4,16.58-3.63a20.39,20.39,0,0,1,8.81,2.57,19.88,19.88,0,0,1,3.8,2.77,24.6,24.6,0,0,1,3.08,3.47,32.13,32.13,0,0,1,4.14,7.93,50.33,50.33,0,0,1,2.24,8.35l0,.15,0,.29a69.59,69.59,0,0,1-1.24,16.46,127.44,127.44,0,0,1-4,15.6,216.68,216.68,0,0,1-12.11,29.34,304.36,304.36,0,0,1-15.4,27.52c-2.74,4.46-5.66,8.83-8.63,13.15s-6.07,8.55-9.36,12.63q7.05-14,13.91-28c4.49-9.38,8.91-18.76,13-28.25s7.88-19.06,11-28.78a140.11,140.11,0,0,0,3.86-14.66A67.63,67.63,0,0,0,714.8,1806l.05.45c-.73-5-2-9.86-4.43-13.8a15.52,15.52,0,0,0-10.88-7.46,24.7,24.7,0,0,0-7.35-.15,45.1,45.1,0,0,0-7.58,1.54A80.06,80.06,0,0,0,669.88,1792.66Z"/><path class="cls-129" d="M743.81,812.44s37.5-28,64.88-6.73,31.93,75-64.88,142c0,0-124.2-87.27-72-135.31C700.46,780.05,743.81,812.44,743.81,812.44Z"/><path class="cls-55" d="M240.15,759.68c1.3-.49,7.82-17.19,22.17-25.14s1.3-36.5,7.82-40.48,30-10.15,26.08,27.49-5.21,27.2-5.21,27.2,37.81-5.52,49.55,10.93,0,66.13-18.26,79.11-83.45,1.37-82.15-6.52S240.15,759.68,240.15,759.68Z"/><rect class="cls-55" x="197.12" y="748.75" width="43.01" height="92" rx="18.95"/><circle class="cls-129" cx="676.6" cy="637.21" r="17.62"/><circle class="cls-129" cx="638.64" cy="1561.82" r="17.62"/><circle class="cls-129" cx="1718.02" cy="193.25" r="17.62"/><circle class="cls-129" cx="2103.75" cy="273.14" r="17.62"/><circle class="cls-129" cx="1967.69" cy="273.14" r="17.62"/><circle class="cls-129" cx="2221.68" cy="273.14" r="17.62"/><circle class="cls-129" cx="2365.8" cy="598.29" r="17.62"/><circle class="cls-129" cx="1859.36" cy="793.8" r="17.62"/><circle class="cls-129" cx="2170.84" cy="1473.16" r="17.62"/><circle class="cls-129" cx="2221.68" cy="343.27" r="17.62"/><circle class="cls-130" cx="2221.68" cy="205.2" r="17.62"/><circle class="cls-130" cx="2283.01" cy="343.27" r="17.62"/><circle class="cls-130" cx="1474.86" cy="242.2" r="17.62"/><circle class="cls-130" cx="2117.91" cy="741.75" r="17.62"/><circle class="cls-130" cx="1738.88" cy="1164.61" r="17.62"/><circle class="cls-130" cx="197.12" cy="1710.58" r="17.62"/><circle class="cls-130" cx="2162.71" cy="273.14" r="17.62"/><circle class="cls-130" cx="2035.2" cy="273.14" r="17.62"/><circle class="cls-129" cx="2283.01" cy="273.14" r="17.62"/><circle class="cls-129" cx="2351.83" cy="273.14" r="17.62"/><circle class="cls-129" cx="2283.01" cy="205.2" r="17.62"/><circle class="cls-129" cx="2169.78" cy="205.2" r="17.62"/></svg>