<svg width="44" height="44" viewBox="0 0 44 44" fill="none" xmlns="http://www.w3.org/2000/svg">
<g clip-path="url(#clip0)">
<path d="M36.2043 10.0115C33.4817 5.56463 29.6843 4.60755 26.9781 4.58769C24.677 4.56982 22.3929 5.23145 20.3859 6.49739L18.9467 7.39922L17.5108 6.49954C15.5005 5.23154 13.218 4.57154 10.9155 4.58778C8.20913 4.60763 4.41173 5.5648 1.68898 10.0116C-0.505256 13.5962 -0.564037 17.8462 1.52785 21.6718C3.13471 24.6099 5.61529 26.944 8.01423 29.2013C8.43506 29.5973 8.8327 29.9714 9.22783 30.3509C10.7108 31.7746 12.2118 33.1469 13.6633 34.474C15.1039 35.7911 16.5935 37.1529 18.0541 38.5554L18.9469 39.4126L19.8396 38.5553C21.0916 37.3529 22.3633 36.1823 23.6091 35.0422C23.6089 35.042 23.6088 35.042 23.6088 35.0418C23.4051 34.8485 23.1981 34.6535 22.9815 34.4498C22.8784 34.3527 22.7735 34.2547 22.6687 34.1559C22.361 33.8654 22.0492 33.5682 21.7355 33.2622C20.4174 31.9733 19.0933 30.5246 18.1489 28.7984C17.3128 27.2689 16.8755 25.5856 16.8849 23.9289C16.8944 22.2095 17.3841 20.5082 18.3019 19.0087C19.2944 17.3873 20.5678 16.1732 22.0852 15.3981C23.3165 14.77 24.6793 14.446 26.1366 14.4348H26.2097C28.1069 14.4348 29.9784 14.9822 31.6247 16.0193L31.7313 16.0864L31.8353 16.0211C32.8878 15.3577 34.0324 14.8946 35.2174 14.6471C35.6384 14.5586 36.0637 14.4976 36.4925 14.4649C36.7451 14.4443 36.9986 14.4348 37.2521 14.4348C37.2521 14.4348 37.2521 14.4348 37.2529 14.4348H37.326C37.4827 14.4357 37.6385 14.4408 37.7934 14.4493C37.5895 12.9032 37.0576 11.4054 36.2043 10.0115Z" fill="#92A2BB"/>
<path d="M42.9618 20.3544C41.4916 17.9536 39.5334 17.1717 37.8303 17.0351C37.6524 17.0214 37.4771 17.0145 37.3061 17.0128H37.252C37.0114 17.0128 36.7708 17.0248 36.5328 17.0488H36.5319C36.0782 17.0935 35.6314 17.1812 35.1949 17.3075C35.1786 17.3118 35.1631 17.317 35.1468 17.3213C35.0617 17.3462 34.9775 17.3728 34.8941 17.4012C34.8511 17.4158 34.809 17.4304 34.7669 17.445C34.6415 17.4888 34.5177 17.537 34.3949 17.5885C34.3537 17.6049 34.3124 17.6229 34.2712 17.6401C34.1895 17.6753 34.1087 17.7123 34.0288 17.751C33.7469 17.885 33.4729 18.0354 33.2073 18.2029L31.7311 19.1284L30.2549 18.2029C29.9893 18.0353 29.7153 17.8849 29.4334 17.751C29.3535 17.7123 29.2718 17.6753 29.1902 17.6401C29.1498 17.6229 29.1086 17.6049 29.0673 17.5885C28.9857 17.5542 28.9023 17.5215 28.8198 17.4906C28.7364 17.4596 28.6531 17.4296 28.568 17.4012C28.4846 17.3728 28.3996 17.3462 28.3145 17.3213C27.634 17.1193 26.9259 17.0128 26.2093 17.0128H26.1551C24.343 17.0265 22.1235 17.7027 20.5003 20.3544C19.1126 22.6212 19.1495 25.2557 20.4101 27.5611C21.3965 29.3646 22.9466 30.8752 24.4615 32.3025C24.8455 32.665 25.2271 33.0217 25.5965 33.3765C27.6425 35.3408 29.6849 37.1144 31.7308 39.0786C33.7768 37.1144 35.8192 35.3408 37.8651 33.3765C39.6919 31.6219 41.8143 29.8217 43.0508 27.561C44.3126 25.2557 44.3496 22.6212 42.9618 20.3544Z" fill="#92A2BB"/>
</g>
<defs>
<clipPath id="clip0">
<rect width="44" height="44" fill="white"/>
</clipPath>
</defs>
</svg>
