<svg width="44" height="44" viewBox="0 0 44 44" fill="none" xmlns="http://www.w3.org/2000/svg">
<path d="M18.1328 23.2891H25.8672V25.8672H18.1328V23.2891Z" fill="#92A2BB"/>
<path d="M35.6966 25.8672H28.4453V27.1563C28.4453 27.8686 27.8686 28.4453 27.1562 28.4453H16.8438C16.1314 28.4453 15.5547 27.8686 15.5547 27.1563V25.8672H8.30338C6.63666 25.8672 5.16263 24.8047 4.63492 23.2236L0 9.31653V37.4688C0 39.6011 1.73486 41.336 3.86719 41.336H40.1328C42.2651 41.336 44 39.6011 44 37.4688V9.31754L39.3647 23.2236C38.8374 24.8047 37.3633 25.8672 35.6966 25.8672Z" fill="#92A2BB"/>
<path d="M27.1562 2.66406H16.8437C14.7114 2.66406 12.9765 4.39893 12.9765 6.53125V7.82031H2.21786L7.07971 22.4079C7.25595 22.9352 7.74808 23.2891 8.30331 23.2891H15.5546V22C15.5546 21.2877 16.1313 20.7109 16.8437 20.7109H27.1562C27.8685 20.7109 28.4453 21.2877 28.4453 22V23.2891H35.6966C36.2518 23.2891 36.7439 22.9352 36.9202 22.4079L41.7823 7.82031H31.0234V6.53125C31.0234 4.39893 29.2885 2.66406 27.1562 2.66406ZM15.5546 7.82031V6.53125C15.5546 5.81992 16.1324 5.24219 16.8437 5.24219H27.1562C27.8675 5.24219 28.4453 5.81992 28.4453 6.53125V7.82031H15.5546Z" fill="#92A2BB"/>
</svg>
