<svg width="44" height="44" viewBox="0 0 44 44" fill="none" xmlns="http://www.w3.org/2000/svg">
<path d="M16.4862 23.8493C21.5534 23.8493 25.6612 19.7416 25.6612 14.6744C25.6612 9.60717 21.5534 5.49939 16.4862 5.49939C11.419 5.49939 7.31122 9.60717 7.31122 14.6744C7.31122 19.7416 11.419 23.8493 16.4862 23.8493Z" fill="#92A2BB"/>
<path d="M32.9581 36.6942C32.9581 31.8522 30.8867 27.4842 27.5288 24.4659C26.7559 23.771 25.5905 23.7444 24.8004 24.4196C20.0083 28.5145 12.9653 28.5155 8.17204 24.4198C7.38302 23.7457 6.21666 23.7666 5.44639 24.4622C2.10608 27.4791 0.0025807 31.8408 2.46927e-07 36.6853C-0.000515844 37.6836 0.808026 38.5005 1.80632 38.5005H31.1518C32.1465 38.5005 32.9581 37.6946 32.9581 36.6942Z" fill="#92A2BB"/>
<path d="M40.5583 27.2171C39.5585 28.0314 38.3826 28.6374 37.0974 28.9681C36.1139 29.2212 35.532 30.2328 35.8087 31.2102C36.6649 34.2338 36.5707 36.778 36.5707 36.6942C36.5707 37.6918 37.3794 38.5005 38.377 38.5005H42.1763C43.1739 38.5005 43.9826 37.6918 43.9826 36.6942C43.9826 31.0668 44.1586 29.9714 43.3892 27.949C42.9513 26.7979 41.5131 26.4393 40.5583 27.2171Z" fill="#92A2BB"/>
<path d="M34.836 25.6843C37.8763 25.6843 40.3409 23.2197 40.3409 20.1793C40.3409 17.139 37.8763 14.6744 34.836 14.6744C31.7957 14.6744 29.331 17.139 29.331 20.1793C29.331 23.2197 31.7957 25.6843 34.836 25.6843Z" fill="#92A2BB"/>
</svg>
