<svg id="Слой_1" data-name="Слой 1" xmlns="http://www.w3.org/2000/svg" xmlns:xlink="http://www.w3.org/1999/xlink" viewBox="0 0 2934.38 2193.48"><defs><style>.cls-1,.cls-16{fill:#dba1b3;}.cls-1,.cls-20{stroke:#ae7883;}.cls-1,.cls-10,.cls-100,.cls-102,.cls-103,.cls-104,.cls-107,.cls-109,.cls-115,.cls-116,.cls-117,.cls-118,.cls-119,.cls-120,.cls-121,.cls-122,.cls-123,.cls-124,.cls-125,.cls-127,.cls-128,.cls-129,.cls-130,.cls-131,.cls-133,.cls-2,.cls-20,.cls-23,.cls-24,.cls-26,.cls-28,.cls-29,.cls-3,.cls-30,.cls-35,.cls-39,.cls-4,.cls-42,.cls-50,.cls-52,.cls-54,.cls-59,.cls-61,.cls-65,.cls-68,.cls-70,.cls-8,.cls-82,.cls-84,.cls-87,.cls-88,.cls-9,.cls-98,.cls-99{stroke-miterlimit:10;}.cls-1,.cls-10,.cls-102,.cls-107,.cls-121,.cls-122,.cls-130,.cls-131,.cls-133,.cls-20,.cls-52,.cls-54,.cls-59,.cls-82,.cls-84,.cls-9{stroke-width:9px;}.cls-111,.cls-2{fill:#778be6;}.cls-116,.cls-2{stroke:#6a65ff;stroke-width:10px;}.cls-3,.cls-32{fill:#f6d9bc;}.cls-3,.cls-35{stroke:#bb7954;}.cls-100,.cls-103,.cls-104,.cls-109,.cls-127,.cls-128,.cls-129,.cls-3,.cls-35,.cls-50,.cls-8{stroke-width:8px;}.cls-36,.cls-4{fill:#5f431f;}.cls-39,.cls-4,.cls-42{stroke:#432f1f;}.cls-4,.cls-42{stroke-width:10.89px;}.cls-5,.cls-6{fill:#f5daba;}.cls-6{clip-path:url(#clip-path);}.cls-7{fill:#f8dabd;}.cls-8,.cls-92{fill:#7889c2;}.cls-100,.cls-8{stroke:#2e3170;}.cls-101,.cls-9{fill:#ffd3ae;}.cls-102,.cls-107,.cls-9{stroke:#bd8461;}.cls-10{fill:#c6e3f1;stroke:#95b1cc;}.cls-11{fill:#408cd9;}.cls-12{fill:#9c9ecc;}.cls-13,.cls-29{fill:#494e9b;}.cls-14,.cls-24{fill:#6774e6;}.cls-15,.cls-26,.cls-28,.cls-30{fill:#fbfbfc;}.cls-17{clip-path:url(#clip-path-2);}.cls-18{fill:#e8bfcc;}.cls-19{fill:#d081a1;}.cls-100,.cls-107,.cls-116,.cls-127,.cls-128,.cls-129,.cls-130,.cls-131,.cls-133,.cls-20,.cls-35,.cls-39,.cls-42,.cls-50,.cls-52,.cls-54,.cls-59,.cls-65,.cls-70,.cls-87,.cls-88,.cls-98,.cls-99{fill:none;}.cls-21{clip-path:url(#clip-path-3);}.cls-22{fill:#ed7672;}.cls-23{fill:#de6263;stroke:#954a63;}.cls-23,.cls-24,.cls-26,.cls-29{stroke-width:6px;}.cls-24,.cls-26,.cls-29{stroke:#494e9b;}.cls-25{fill:#100843;}.cls-27{fill:#1e145c;}.cls-28{stroke:#55f;}.cls-28,.cls-61,.cls-68{stroke-width:3px;}.cls-30{stroke:#ff356d;}.cls-115,.cls-30{stroke-width:5px;}.cls-31{fill:#f2ab84;}.cls-33{clip-path:url(#clip-path-4);}.cls-34{fill:#eaba91;}.cls-37{clip-path:url(#clip-path-5);}.cls-38{fill:#583415;}.cls-123,.cls-124,.cls-127,.cls-128,.cls-129,.cls-133,.cls-39,.cls-50,.cls-70,.cls-87{stroke-linecap:round;}.cls-39{stroke-width:7px;}.cls-40{fill:#432f1f;}.cls-41{fill:#745230;}.cls-43{clip-path:url(#clip-path-6);}.cls-44{fill:#fae3c8;}.cls-45{fill:url(#Безымянный_градиент_31);}.cls-46{fill:url(#Безымянный_градиент_31-2);}.cls-47{fill:url(#Безымянный_градиент_31-3);}.cls-48{fill:url(#Безымянный_градиент_31-4);}.cls-49{fill:url(#Безымянный_градиент_7);}.cls-50{stroke:#fff4e5;}.cls-51{fill:url(#Безымянный_градиент_7-2);}.cls-52{stroke:url(#Безымянный_градиент_7-3);}.cls-53{fill:url(#Безымянный_градиент_7-4);}.cls-54{stroke:url(#Безымянный_градиент_7-5);}.cls-55{fill:#ecc49f;}.cls-56{fill:url(#Безымянный_градиент_34);}.cls-57{fill:url(#Безымянный_градиент_34-2);}.cls-58{fill:#fff6e3;}.cls-59{stroke:url(#Безымянный_градиент_7-6);}.cls-60{fill:#faf3e3;}.cls-61{fill:#8c6239;}.cls-61,.cls-68{stroke:#1a1a1a;}.cls-62{fill:#1a1a1a;}.cls-63{fill:url(#Безымянный_градиент_5);}.cls-64{fill:#42210b;}.cls-65{stroke:#42210b;stroke-width:2px;}.cls-66{fill:#fee4cb;}.cls-103,.cls-104,.cls-109,.cls-67,.cls-68{fill:#fff;}.cls-69{fill:url(#Безымянный_градиент_5-2);}.cls-70{stroke:#bd8759;stroke-width:4px;}.cls-71{fill:#bd8759;}.cls-72{fill:#ffa083;}.cls-73{fill:#ffb19d;}.cls-74{fill:#f07e5b;}.cls-75{fill:#fdd3cc;}.cls-76{fill:#f9e5c9;}.cls-77{fill:#faf1dd;}.cls-78{fill:url(#Безымянный_градиент_9);}.cls-79{fill:#fee7cd;}.cls-80{clip-path:url(#clip-path-7);}.cls-81{fill:#ebc3a0;}.cls-82{fill:url(#Безымянный_градиент_109);stroke:url(#Безымянный_градиент_113);}.cls-83{fill:#3d8bd9;}.cls-84{fill:url(#Безымянный_градиент_13);stroke:url(#Безымянный_градиент_112);}.cls-85{fill:#edbd54;}.cls-86{fill:#3e8cd9;}.cls-87{stroke:#908ec4;}.cls-117,.cls-118,.cls-119,.cls-120,.cls-123,.cls-124,.cls-87{stroke-width:12px;}.cls-131,.cls-133,.cls-88{stroke:#fff;}.cls-88{stroke-width:13px;}.cls-89{clip-path:url(#clip-path-8);}.cls-102,.cls-90{fill:#ffb88b;}.cls-91{fill:#bd8461;}.cls-93{clip-path:url(#clip-path-9);}.cls-94{fill:#6e77b6;}.cls-95{fill:#8f97e6;}.cls-96{fill:#565e9c;}.cls-97{fill:#7e81e6;}.cls-98{stroke:#b6b4ff;}.cls-98,.cls-99{stroke-width:32px;}.cls-99{stroke:#9595c9;}.cls-103{stroke:url(#Безымянный_градиент_6);}.cls-104{stroke:url(#Безымянный_градиент_6-2);}.cls-105{clip-path:url(#clip-path-10);}.cls-106{fill:#fff2dd;}.cls-108{fill:#d6d6f9;}.cls-109{stroke:url(#Безымянный_градиент_6-3);}.cls-110{fill:#2e3170;}.cls-112{clip-path:url(#clip-path-11);}.cls-113{fill:#9aa2c5;}.cls-114,.cls-115{fill:#90a6e6;}.cls-115{stroke:#333;}.cls-117,.cls-118,.cls-119,.cls-120{stroke:#837f95;}.cls-117{fill:url(#Безымянный_градиент_25);}.cls-118{fill:url(#Безымянный_градиент_20);}.cls-119{fill:url(#Безымянный_градиент_32);}.cls-120{fill:#ccc;}.cls-121{fill:url(#Безымянный_градиент_109-2);stroke:url(#Безымянный_градиент_113-2);}.cls-122{fill:url(#Безымянный_градиент_109-3);stroke:url(#Безымянный_градиент_113-3);}.cls-123{stroke:#ffca6a;fill:url(#Безымянный_градиент_109-4);}.cls-124{stroke:#ff886a;fill:url(#Безымянный_градиент_109-5);}.cls-125{stroke:#5c5ee9;stroke-width:11px;fill:url(#Безымянный_градиент_107);}.cls-126{fill:#ebedff;}.cls-127{stroke:#2e3192;}.cls-128{stroke:#c1272d;}.cls-129{stroke:gray;}.cls-130{stroke:#3d8bd9;}.cls-132{fill:#0857a5;}.cls-134{fill:#364077;}</style><clipPath id="clip-path"><path class="cls-5" d="M1083.84,700.13c-6.89-12.65-23.31-20.92-36.84-14.57s-16,44.51-9.19,60,8.78,85.36,28.1,89.47a47.75,47.75,0,0,0,33.26-4.71l29.1,62.57L1168.48,936c3.55,2.47,37.57,34.7,41.75,35.8l61.12,24.77,63.14-4.37,62.26-39.27s67.32-50.33,69.9-140.86c0,0,24,11.53,33.29-8.17,7.73-16.42,32.81-94.12,26.56-129.44-4.3-24.34-42.25-30.2-54.87-4l-2.93-96.06-29.89-8.55c-6-2.39-46.8-8-51.62-12.33l-7.83-6s-6.76-4.6-15.1,6c-9.78,12.37-79.82,3.88-113.56-30.64l-3.17-7.27,13,37.91s-32.6-17.72-57.75-37.9c-15.09-12.11-13.35-16-13.35-16s-19.24,66-62.75,103.28l-4.37-9.15s3.29,17.79-15.76,53.33"/></clipPath><clipPath id="clip-path-2"><path class="cls-1" d="M2130.1,1995.32c-18.66-40.44,13.55-93.48,61.3-96.32a1117.42,1117.42,0,0,1,133.61-.07c49.22,3,79.62,54.43,59.66,96.2C2299.83,1998.36,2215,1997.93,2130.1,1995.32Z"/></clipPath><clipPath id="clip-path-3"><path class="cls-1" d="M2384.9,2063.36c-40.85,6.67-82,2.59-123,2.58-42.61,0-85.38,4-127.87-2.56-7.45-13.55-6.36-23.59,11-26.94l226.39.12C2388.09,2039.42,2387.52,2050.88,2384.9,2063.36Z"/></clipPath><clipPath id="clip-path-4"><path class="cls-3" d="M1200.22,962.51s7.12,106.88-112.4,110.69v181.07l234.4,135.62,132.34-100.8,53.08-199.46-17.72-29.13c-39.74-5.89-97.43-14.31-103.7-54l-6.57-41.66Z"/></clipPath><clipPath id="clip-path-5"><path class="cls-4" d="M1108.1,370.45c-40.39,32.2-75.44,86.36-50.93,119.76-7.77,25.38-23,40.86-23,74.66,0,32.83.06,52.91,5.59,76.81,6.82,29.44,13.65,39.71,26.15,55l330.84,35.67,102.87,50.3-20.07-120.84s18.27-25.54,27.51-116.38c13.59-133.67-68.44-200.11-163.85-215.56C1343.21,329.87,1168.48,322.34,1108.1,370.45Z"/></clipPath><clipPath id="clip-path-6"><path class="cls-6" d="M1250.7,522.82c-4.45-6.5-3.17-7.27-3.17-7.27l13,37.91"/></clipPath><radialGradient id="Безымянный_градиент_31" cx="1179.83" cy="766.47" r="74.05" gradientUnits="userSpaceOnUse"><stop offset="0" stop-color="#f3c7af"/><stop offset="1" stop-color="#f6d9bc"/></radialGradient><radialGradient id="Безымянный_градиент_31-2" cx="1183.21" cy="763.72" r="74.05" xlink:href="#Безымянный_градиент_31"/><radialGradient id="Безымянный_градиент_31-3" cx="1171.15" cy="763.87" r="74.05" xlink:href="#Безымянный_градиент_31"/><radialGradient id="Безымянный_градиент_31-4" cx="1410.35" cy="758.42" r="74.05" xlink:href="#Безымянный_градиент_31"/><linearGradient id="Безымянный_градиент_7" x1="1051.87" y1="743.37" x2="1094.41" y2="743.37" gradientUnits="userSpaceOnUse"><stop offset="0" stop-color="#e2a470"/><stop offset="1" stop-color="#ad744a"/></linearGradient><linearGradient id="Безымянный_градиент_7-2" x1="1473.48" y1="715.17" x2="1511.23" y2="715.17" xlink:href="#Безымянный_градиент_7"/><linearGradient id="Безымянный_градиент_7-3" x1="1464.36" y1="736.31" x2="1531" y2="736.31" xlink:href="#Безымянный_градиент_7"/><linearGradient id="Безымянный_градиент_7-4" x1="1088.42" y1="744.32" x2="1051.14" y2="744.32" xlink:href="#Безымянный_градиент_7"/><linearGradient id="Безымянный_градиент_7-5" x1="1029.31" y1="759.11" x2="1101.24" y2="759.11" xlink:href="#Безымянный_градиент_7"/><linearGradient id="Безымянный_градиент_34" x1="1087.82" y1="825.46" x2="1224.64" y2="825.46" gradientUnits="userSpaceOnUse"><stop offset="0" stop-color="#efccac"/><stop offset="1" stop-color="#f1cfb4"/></linearGradient><linearGradient id="Безымянный_градиент_34-2" x1="-359.71" y1="855.45" x2="-228.24" y2="855.45" gradientTransform="matrix(-1, 0, 0, 1, 1111.92, 0)" xlink:href="#Безымянный_градиент_34"/><linearGradient id="Безымянный_градиент_7-6" x1="1170" y1="610.46" x2="1456.85" y2="897.32" xlink:href="#Безымянный_градиент_7"/><linearGradient id="Безымянный_градиент_5" x1="1141.1" y1="655" x2="1258.4" y2="655" gradientUnits="userSpaceOnUse"><stop offset="0" stop-color="#e4c0a3"/><stop offset="1" stop-color="#cca07a"/></linearGradient><linearGradient id="Безымянный_градиент_5-2" x1="421.06" y1="709.22" x2="538.36" y2="709.22" gradientTransform="matrix(-0.99, 0.14, 0.14, 0.99, 1754.58, -121.56)" xlink:href="#Безымянный_градиент_5"/><linearGradient id="Безымянный_градиент_9" x1="1257.26" y1="739.9" x2="1257.26" y2="624.69" gradientUnits="userSpaceOnUse"><stop offset="0" stop-color="#f0ceb3"/><stop offset="1" stop-color="#e8bc94"/></linearGradient><clipPath id="clip-path-7"><path class="cls-3" d="M971.28,1081.24s-95.63.91-125.19,40.89S738.3,1502.9,738.3,1502.9H929.55l60.85-420.74Z"/></clipPath><linearGradient id="Безымянный_градиент_109" x1="652.46" y1="498.42" x2="967.36" y2="287.47" gradientUnits="userSpaceOnUse"><stop offset="0.01" stop-color="#f8f9fd"/><stop offset="1" stop-color="#fff"/></linearGradient><linearGradient id="Безымянный_градиент_113" x1="568.59" y1="548.55" x2="370.82" y2="206" gradientTransform="matrix(-1, 0, 0, 1, 1276.09, 0)" gradientUnits="userSpaceOnUse"><stop offset="0" stop-color="#9c9dcc"/><stop offset="1" stop-color="#bec6cf"/></linearGradient><linearGradient id="Безымянный_градиент_13" x1="1410.65" y1="233.25" x2="1978.08" y2="233.25" gradientUnits="userSpaceOnUse"><stop offset="0" stop-color="#fff"/><stop offset="1" stop-color="#f8f9fd"/></linearGradient><linearGradient id="Безымянный_градиент_112" x1="-330.65" y1="399.76" x2="-537.56" y2="41.38" xlink:href="#Безымянный_градиент_113"/><clipPath id="clip-path-8"><path class="cls-7" d="M2068.74,668.27c0-5.57,4.51-143.49,30.37-181.38L2141.45,473s67.34-125.31,93.22-131.53,6.52,36.44,0,45.56-48.78,76-48.78,76,24.1-17.29,39.05-6.11,9.52,32.66,9.52,32.66,22.3,6,24.77,34.38c0,0,20.61-12.76,6.33,42.4-8.19,31.61-5,45.37-5,45.37l-111.09,78.71Z"/></clipPath><clipPath id="clip-path-9"><path class="cls-8" d="M835.93,1915l-6.44,79.6,894.64,30.64-91.83-696.08,192.39-80.71c136.34-4.91,338.91-548.93,338.91-548.93v-13.6c-64.11,5.76-105.81-48-105.81-48l-286.13,381.93L1541,1030.14c-32.18,1.16-131-4.54-131-4.54-2.66,46.91-41.26,98.82-139.28,101.88s-90.38-98.29-90.38-98.29-84.48,9.64-175.63,26.66c-100.07,18.69-155.38,50.22-216.65,91.43s-145.45,672.63-145.45,672.63-5.36,107.58,61.18,132.38C791.68,1985.05,847,1911.4,879.6,1881s208.22-355.2,208.22-355.2l-97.42-61.27L771.28,1718.8"/></clipPath><linearGradient id="Безымянный_градиент_6" x1="1222.05" y1="1369.14" x2="1222.05" y2="1051.69" gradientUnits="userSpaceOnUse"><stop offset="0" stop-color="#9c9dcc"/><stop offset="1" stop-color="#d6d6f9"/></linearGradient><linearGradient id="Безымянный_градиент_6-2" x1="1145.07" y1="1324.98" x2="1295.56" y2="1324.98" xlink:href="#Безымянный_градиент_6"/><clipPath id="clip-path-10"><path class="cls-9" d="M1004.18,1467.79c-3.53-3.1,21.8-70.63,20.93-93.31s71.51-164.81,71.51-164.81l63.66-30.53h68.89s20.16,25.16-59,26.69c-9.51,2-46.73,27.58-46.73,27.58l-17.19,40.79,40.11-16.57,52.33,1.74,62.78,36.63s-12.1,26.64-47.09.87L1159.4,1289,1132.48,1306a1,1,0,0,0,.63,1.84l40.25-3.94,40.11,9.59,40.12,17.44s-13.08,19.19-46.22,4.36l-41.37-3.69-42,25.94s4.84,47.52-14.34,95.48-37.5,60.17-37.5,60.17S1033.15,1493.25,1004.18,1467.79Z"/></clipPath><linearGradient id="Безымянный_градиент_6-3" x1="1145.07" y1="1097.84" x2="1296.5" y2="1097.84" xlink:href="#Безымянный_градиент_6"/><clipPath id="clip-path-11"><rect class="cls-2" x="758.87" y="1982.07" width="1274.74" height="86.06" rx="43.03"/></clipPath><linearGradient id="Безымянный_градиент_25" x1="1706.57" y1="1424.46" x2="1706.57" y2="1907.01" gradientUnits="userSpaceOnUse"><stop offset="0" stop-color="#f0f5fa"/><stop offset="1" stop-color="#9c9da6"/></linearGradient><linearGradient id="Безымянный_градиент_20" x1="1333.59" y1="1424.46" x2="1333.59" y2="1905.66" gradientUnits="userSpaceOnUse"><stop offset="0" stop-color="#e6e6e6"/><stop offset="1" stop-color="#9c9da6"/></linearGradient><linearGradient id="Безымянный_градиент_32" x1="1734.03" y1="1717.63" x2="1734.03" y2="2007.16" gradientUnits="userSpaceOnUse"><stop offset="0" stop-color="#e6e6e6"/><stop offset="1" stop-color="#d1cccc"/></linearGradient><linearGradient id="Безымянный_градиент_109-2" x1="668.82" y1="801.28" x2="807.77" y2="801.28" xlink:href="#Безымянный_градиент_109"/><linearGradient id="Безымянный_градиент_113-2" x1="664.32" y1="801.28" x2="812.27" y2="801.28" gradientTransform="matrix(1, 0, 0, 1, 0, 0)" xlink:href="#Безымянный_градиент_113"/><linearGradient id="Безымянный_градиент_109-3" x1="668.82" y1="992.27" x2="807.77" y2="992.27" xlink:href="#Безымянный_градиент_109"/><linearGradient id="Безымянный_градиент_113-3" x1="664.32" y1="992.27" x2="812.27" y2="992.27" gradientTransform="matrix(1, 0, 0, 1, 0, 0)" xlink:href="#Безымянный_градиент_113"/><linearGradient id="Безымянный_градиент_109-4" x1="701.96" y1="801.28" x2="774.63" y2="801.28" xlink:href="#Безымянный_градиент_109"/><linearGradient id="Безымянный_градиент_109-5" x1="701.96" y1="992.27" x2="774.63" y2="992.27" xlink:href="#Безымянный_градиент_109"/><linearGradient id="Безымянный_градиент_107" x1="2553.64" y1="1386.76" x2="2553.64" y2="1804.97" gradientUnits="userSpaceOnUse"><stop offset="0" stop-color="#abbaff"/><stop offset="1" stop-color="#485e95"/></linearGradient></defs><title>Монтажная область 1</title><path class="cls-10" d="M2924.86,805.48c6.67-164.72-131.74-198.74-165.44-201.65l-1.61-.15c-59.85-5.57-105.18-56.53-104.16-116.63,2.36-138.18,7.16-107.67.52-242.54C2640.45,56.69,2497.28,15.27,2228.76,15.27H497.83S48.74-9,48.74,459.36c0,418.77,266,413.53,370.41,422,31.47,2.56,73.86,14.51,73.86,83.45s-54.38,80.67-54.38,80.67H184.33s-171.6,17.68-171.59,186,147.08,201,183.85,204.58,156.25,31.56,171.57,146.26,63.58,459.61,78.9,460S767.55,2055,767.55,2055l1779.2,16.9s355.85-58.29,350-464.4c-4.31-297.93-46.06-401.35-211.05-438.91-59.75-13.6-177.7,16.19-174.64-81.05s125.62-80.61,156.26-79.73C2667.28,1007.85,2915.35,1040.87,2924.86,805.48Z"/><path class="cls-11" d="M617.88,1163.06c30.31-1.72,57.15-6.7,61.57,12.74,2.25,9.92-3.66,28.3-7.13,36.08q-36.2,81.13-72.39,162.27c-8.44,18.83-24.45,26.22-43.87,26.24-74.1.06-148.2-.45-222.3-.48-9.65,0-17.86-1.86-23.7-10.09,23.25-66.08,53.35-129.18,83.72-192.17,14.45-18.37,35.05-13.07,54.25-15,39-3.82,81.59,14.18,116.08-18.71"/><path class="cls-12" d="M2606.68,713.63c13.58,9.66,27.29,9.44,43.24-1.54,12.12-8.34,22.88-13.7,21.6-31.33-1.1-15.13,12.21-12.61,21.63-12.53s19.53-2.81,22.8,12c6.71,30.4,30.33,44,59.61,35,14.64-4.53,19.13,5.19,24.5,14.42s7.11,17.21-3.91,25.42c-24,17.87-23.33,51.78,1.77,68.06,12.57,8.14,9.87,15.31,3.24,23.87S2792.63,872,2774,861.89c-21.05-11.37-56.69,8.5-58.06,32.42-.86,15-7.73,17.9-20.33,17.35-11.8-.52-25.59.78-24.23-16.35,1.49-18.59-12.8-21.83-23.29-30.56-13-10.79-23.29-12.56-36.56-1.77-9.44,7.67-15.58.66-18.71-7.69-3.59-9.55-18.47-17.14-5.65-30.11,26.81-27.12,27-42.88.08-73.43-6.58-7.47-3.68-13.17-.4-20C2593.4,718.05,2597.47,713.76,2606.68,713.63Zm87.49,123.59c27.44-.38,50-21.42,50.42-47.12.48-26.5-23.34-51.73-49.06-52-30-.3-50.75,21.07-50,51.54C2646.18,817.8,2666.44,837.6,2694.17,837.22Z"/><path class="cls-13" d="M2147.35,401.17c-44.2-68.8-33.86-140.58,26.09-181.07,47.65-32.19,109.54-27.9,150.91,10.46,44.34,41.12,54.74,101.41,23.32,153.12-13,21.37-7,31.12,13.21,37.66,7.62,2.47,12.79,7.29,18,12.47Q2438.55,493.29,2498,553c8.95,9,19.26,18.71,6.64,31.35s-22.32,2.55-31.37-6.49c-39.73-39.7-128.7-111.29-136.36-131-13-34.47-21.59-22-59-7.45-5.66,2.19-12.78,2.72-19.27,3.92q-4.77-8.12-9.52-16.24c8.78-2.11,17.8-3.54,26.31-6.44,44.36-15.12,74.22-58.71,71.85-104.27-2.38-45.83-37.14-87.44-81.28-97.28-45.84-10.22-92.28,10.76-115.32,52.1-22.34,40.1-15.32,88.44,17.75,122.31-1.27,2.75-8.55,1.57-9.81,4.33C2152.86,397.58,2153.11,401.34,2147.35,401.17Z"/><path class="cls-14" d="M573.64,1163.09c-4.09.22-9.77-1.24-12,.9-34.49,32.89-77.11,14.89-116.08,18.71-19.2,1.88-39.8-3.42-54.25,15-22.29-8.59-45.46-1.81-68.13-3.82-20.1-1.79-28.21,8-28,27.83.52,50.26.21,100.52.16,150.78,0,8.41.9,16.45,6.85,23-21.32,8.65-28.42-6.89-28.75-21.46-1.41-64.28-1.16-128.62-.34-192.92.25-19.16,13.68-26.69,32-26.64q61.86.16,123.7-.06c11.15-.05,23.28,2.86,30.16-10.78,3-5.87,10.05-4.48,15.73-4.76C510,1137.12,545.46,1135.31,573.64,1163.09Z"/><path class="cls-15" d="M302.16,1395.49c-6-6.59-6.85-14.63-6.85-23,.05-50.26.36-100.52-.16-150.78-.2-19.81,7.91-29.62,28-27.83,22.67,2,44.89-.58,68.13,3.82-30.37,63-60.47,126.08-83.72,192.16Z"/><path class="cls-16" d="M2130.1,1995.32c-18.66-40.44,13.55-93.48,61.3-96.32a1117.42,1117.42,0,0,1,133.61-.07c49.22,3,79.62,54.43,59.66,96.2C2299.83,1998.36,2215,1997.93,2130.1,1995.32Z"/><g class="cls-17"><path class="cls-18" d="M2277.18,1887.53c1.54-1.53,42.57,13.79,59.59,33.71s7.76,85.92,7.76,85.92h58.83l-11.49-118.1Z"/><path class="cls-19" d="M2202.56,1886s-28.36,21.45-38.91,52.09-.58,64.32-.58,64.32l181.46,4.75s29.14-101.24-67.35-124.22S2202.56,1886,2202.56,1886Z"/></g><path class="cls-20" d="M2130.1,1995.32c-18.66-40.44,13.55-93.48,61.3-96.32a1117.42,1117.42,0,0,1,133.61-.07c49.22,3,79.62,54.43,59.66,96.2C2299.83,1998.36,2215,1997.93,2130.1,1995.32Z"/><path class="cls-16" d="M2384.9,2063.36c-40.85,6.67-82,2.59-123,2.58-42.61,0-85.38,4-127.87-2.56-7.45-13.55-6.36-23.59,11-26.94l226.39.12C2388.09,2039.42,2387.52,2050.88,2384.9,2063.36Z"/><g class="cls-21"><polyline class="cls-18" points="2346.82 2025.95 2344.53 2082.09 2398.21 2071.94 2403.36 2036.44 2346.82 2025.95"/><polyline class="cls-19" points="2168.02 2021.51 2163.65 2083.62 2344.53 2082.09 2344.53 2017.4 2168.02 2021.51"/></g><path class="cls-20" d="M2384.9,2063.36c-40.85,6.67-82,2.59-123,2.58-42.61,0-85.38,4-127.87-2.56-7.45-13.55-6.36-23.59,11-26.94l226.39.12C2388.09,2039.42,2387.52,2050.88,2384.9,2063.36Z"/><path class="cls-13" d="M2371.49,2036.56l-226.39-.12q-.21-7.39-.44-14.79l23.36-.14q12.43,12.91,24.85,0l14.78.32c8.41,9.36,16.69,7.74,24.88-.32l14.78.32c8.42,9.61,16.7,7.49,24.9-.31,10.25-1.8,19.82,4.41,28.27,1.86,23.67-7.14,48.23-2,70.84-1.47Q2371.41,2029.23,2371.49,2036.56Z"/><path class="cls-14" d="M2130.1,1995.32c84.87,2.61,169.73,3,254.57-.19,10.8,10,1.93,11.85-5.89,14.15l-101.6-.42H2163.07l-25.13.82C2130.9,2007.32,2125.8,2003.88,2130.1,1995.32Z"/><path class="cls-22" d="M2144.66,2008.86c33.87.14,200.24.27,234.12.42q-3.71,6.3-7.46,12.61c-23.36,6.54-48.17,3.22-74.72,3.22-8.45,2.55-141.69-5.26-151.94-3.46C2146.32,2017.43,2143,2013.07,2144.66,2008.86Z"/><path class="cls-23" d="M162.92,2008.26c-.66-6.32.73-11.7,6.8-15q79.23.06,158.47.11c25.58,0,51.17-.1,76.76,0,9.55,0,17.07-4.31,17.63-13.57.66-10.92-7.08-15.76-17.82-15.59-4.12.07-8.25-.3-12.38-.3q-111.42.09-222.84.24c-13.17-14.51-4.15-17.88,9.42-18.12,34.35-.61,68.7-.87,103-1.27l8.07.7c38.13.11,76-4.09,112.43-.26l12.54.37c53.11,2.26,106.21,3.52,159.24-1.53,14,.3,28,.76,42,.87,16.36.13,32,2.66,39.71,19.19,8.17,17.58.5,31.76-12.72,43.75l-256.45,2.19Z"/><path class="cls-24" d="M386.78,2010.05l256.45-2.19c16.93.26,33.89.07,50.8.92,15.53.78,15.36,6.57,3.7,14.73q-144.15-.23-288.28-.41c-4.1,0-8.47-.4-12.25.82-14.26,4.59-17.66,11.37-3.17,20.62l6.17,1.61,297,.7c6.41,2.14,10.49,6,9.56,13.36-11.88,5.31-24.42,2.46-36.58,2.44q-134.82-.2-269.63-1.34c-8.06-.07-16.1-3-24.15-4.59C356.68,2046.85,359.62,2015.19,386.78,2010.05Z"/><path class="cls-25" d="M415.05,1945.58l-12.55-.37c-37.48-1.7-74.95-2.19-112.42.26l-8.07-.7c-15.61-13.87-18.48-31.45-14.8-50.93,15.2-11.57,32.32-14.27,51.16-13.46,30.48,1.32,61.05.88,91.58,1.18C398.12,1904,394.67,1925.73,415.05,1945.58Z"/><path class="cls-26" d="M394,2044.54c-14.49-9.25-11.09-16,3.17-20.62,3.78-1.22,8.15-.82,12.25-.82q144.14.17,288.28.41l-.54,23.34-297-.7Z"/><path class="cls-27" d="M415.05,1945.58c-20.38-19.85-16.93-41.6-5.1-64,50.76-.22,101.52-.63,152.28-.55,16.93,0,15.32,8,6.57,18.06q-65.62,0-131.26-.1c-10.37,0-21.38.31-22,13.69-.64,14.2,9.57,17.09,21.77,17,43.75-.43,87.5-.51,131.24-.72,6,3.5,7.85,8.57,5.72,15.14C521.26,1949.1,468.16,1947.84,415.05,1945.58Z"/><path class="cls-28" d="M568.57,1928.91c-43.74.21-87.49.29-131.24.72-12.2.12-22.41-2.77-21.77-17,.6-13.38,11.61-13.71,22-13.69q65.64.15,131.26.1Q568.68,1914,568.57,1928.91Z"/><path class="cls-29" d="M386.78,2010.05c-27.55,2.84-23.13,50.23,5,50.26-80.43,0-170.7-.5-248.35-3.11-18.68-27.47-12.69-42.54,19.48-48.94Z"/><path class="cls-30" d="M169.54,1964.16q111.42-.14,222.84-.24c4.13,0,8.26.37,12.38.3,10.74-.17,18.48,4.67,17.82,15.59-.56,9.26-8.08,13.6-17.63,13.57-25.59-.07-51.18,0-76.76,0q-79.24,0-158.47-.11Z"/><path class="cls-31" d="M2168,2021.51l-4.95-12.64h114.11q-2.49,6.32-5,12.64c-8.2,7.8-16.48,9.92-24.9.31-4.74-8.84-9.66-9.13-14.78-.32-8.19,8.06-16.47,9.68-24.88.32-4.74-8.84-9.66-9.13-14.78-.32Q2180.45,2034.47,2168,2021.51Z"/><path class="cls-31" d="M2248.38,2021.51l-5-12.64h114.1q-2.47,6.32-5,12.64c-8.2,7.8-16.48,9.92-24.9.31-4.74-8.84-9.66-9.13-14.78-.32-8.19,8.06-16.47,9.68-24.88.32-4.74-8.84-9.66-9.13-14.78-.32Q2260.81,2034.47,2248.38,2021.51Z"/><path class="cls-32" d="M1200.22,962.51s7.12,106.88-112.4,110.69v181.07l234.4,135.62,132.34-100.8,53.08-199.46-17.72-29.13c-39.74-5.89-97.43-14.31-103.7-54l-6.57-41.66Z"/><g class="cls-33"><path class="cls-34" d="M1168.48,1003.28s35.52,116.6,65.21,154.24,71.86,92.7,76.85,140.8,11.4,67.4,11.4,67.4l153.55-52.33,18.77-328.92-104.12-78-194.85,22Z"/></g><path class="cls-35" d="M1200.22,962.51s7.12,106.88-112.4,110.69v181.07l234.4,135.62,132.34-100.8,53.08-199.46-17.72-29.13c-39.74-5.89-97.43-14.31-103.7-54l-6.57-41.66Z"/><path class="cls-36" d="M1108.1,370.45c-40.39,32.2-75.44,86.36-50.93,119.76-7.77,25.38-23,40.86-23,74.66,0,32.83.06,52.91,5.59,76.81,6.82,29.44,13.65,39.71,26.15,55l330.84,35.67,102.87,50.3-20.07-120.84s18.27-25.54,27.51-116.38c13.59-133.67-68.44-200.11-163.85-215.56C1343.21,329.87,1168.48,322.34,1108.1,370.45Z"/><g class="cls-37"><path class="cls-38" d="M1095.73,794.61c1.48,7.46-86.2,178-75.77,306.66s219-11.64,219-11.64l19.4-143.53L1095.73,794.61"/><path class="cls-38" d="M1472.36,569.65s35.36,24.57,33.34,72-58,43.88-58,43.88l24.64-115.91"/><path class="cls-38" d="M1116.74,590.1s-77,10.53-69.74,95.46c9.45,110.8,74,14.57,74,14.57l-5.45-139.59"/><path class="cls-39" d="M1065.86,826s-80.67,177.91-75.46,256.14"/><path class="cls-40" d="M1068,899.51c-1.66,16-3.68,31.85-5.71,47.71s-4,31.69-5.89,47.53-3.57,31.67-4.71,47.53c-.3,4-.47,7.93-.65,11.9s-.25,7.93-.21,11.9.18,7.92.56,11.87a51.52,51.52,0,0,0,2.3,11.68,36.08,36.08,0,0,1-2.51-5.51c-.66-1.92-1.24-3.87-1.71-5.84a108.46,108.46,0,0,1-2.07-12,206.28,206.28,0,0,1-1.17-24.2,422.88,422.88,0,0,1,3.22-48.16q2.85-23.94,7.47-47.57C1060,930.61,1063.47,914.94,1068,899.51Z"/><path class="cls-40" d="M1134.7,876.76a2.78,2.78,0,0,0-.39,1c-.09.36-.17.71-.23,1.07-.15.72-.26,1.44-.37,2.16-.24,1.45-.45,2.89-.64,4.35l-1.16,8.7-2.35,17.39q-2.41,17.37-5.09,34.68L1119,980.7l-2.74,17.3c-.89,5.78-1.74,11.56-2.46,17.42-.41-2.93-.63-5.88-.78-8.83s-.19-5.9-.19-8.85c0-5.9.29-11.79.7-17.67.83-11.74,2.22-23.42,4-35s4-23.15,6.62-34.61c1.33-5.72,2.76-11.43,4.39-17.09.83-2.83,1.67-5.65,2.63-8.45.48-1.39,1-2.79,1.5-4.17.28-.69.56-1.38.87-2.06A5.94,5.94,0,0,1,1134.7,876.76Z"/><path class="cls-40" d="M1163.41,916.6c-.83,13.18-1.93,26.26-3,39.32s-2.07,26.1-2.9,39.14c-.2,3.25-.42,6.51-.57,9.77s-.32,6.51-.48,9.77c-.27,6.52-.43,13-.54,19.54,0,3.26,0,6.51.08,9.77l0,2.44.1,2.44c.07,1.63.1,3.26.22,4.88a161.55,161.55,0,0,0,2.07,19.53,94.75,94.75,0,0,1-5.48-19.11c-.34-1.63-.55-3.28-.81-4.92l-.38-2.46-.32-2.48c-.45-3.29-.66-6.6-1-9.91a295.62,295.62,0,0,1,.07-39.71q1.29-19.79,4.48-39.34A324.16,324.16,0,0,1,1163.41,916.6Z"/><path class="cls-38" d="M1446.91,833.35c4.24,5.38,93.06,70.89,103.42,278.94s-176.18-42.82-176.18-42.82l-7.33-156.07Z"/><path class="cls-41" d="M1166.05,300.69a.2.2,0,0,0,0-.11l0,0,.21.08.94.36,1.95.79c1.32.53,2.62,1.13,3.92,1.72s2.57,1.24,3.83,1.89l3.75,2a124,124,0,0,1,14.12,9.55,132,132,0,0,1,23.68,24.25c1.64,2.29,3.33,4.55,4.92,6.88l4.48,7.15c.38.59.73,1.2,1,1.82l1,1.86,2,3.7c1.37,2.48,2.54,4.92,3.72,7.38q3.54,7.39,6.6,15a146.45,146.45,0,0,1,5.36,15.7.19.19,0,0,1-.12.23.22.22,0,0,1-.19-.06,144.9,144.9,0,0,1-10.2-13.09q-4.74-6.75-9-13.76c-1.41-2.34-2.79-4.72-4.19-6.95l-2.09-3.39c-.72-1.11-1.34-2.29-2.14-3.35l-4.52-6.52-4.84-6.25a152.68,152.68,0,0,0-22.17-22.29c-2.07-1.6-4.09-3.28-6.25-4.74s-4.29-3-6.47-4.44c-1.11-.68-2.23-1.34-3.34-2s-2.25-1.3-3.38-2-2.29-1.24-3.46-1.84l-1.77-.91-.93-.46-.75-.39c-.32-.18-.64-.37-.94-.57a4.5,4.5,0,1,1,5.28-7.29Z"/><path class="cls-41" d="M1192.65,273.46c6.27,3.32,12.2,7.17,18.1,11.08s11.57,8.14,17.13,12.51a256.65,256.65,0,0,1,31.33,28.88,154.44,154.44,0,0,1,13.39,16.93c1,1.5,2,3.07,2.93,4.59l2.68,4.61q1.35,2.29,2.6,4.67c.83,1.57,1.7,3.12,2.49,4.72a152.64,152.64,0,0,1,8.42,19.68,92.84,92.84,0,0,1,2.85,10.36,36.78,36.78,0,0,1,.93,10.65,29.78,29.78,0,0,0-1.39-5.06c-.57-1.65-1.19-3.27-1.9-4.86s-1.42-3.17-2.15-4.74-1.55-3.1-2.37-4.63c-3.26-6.12-6.78-12.08-10.51-17.93-.9-1.47-1.88-2.91-2.82-4.36s-1.87-2.92-2.86-4.35l-2.9-4.32c-1-1.4-1.93-2.78-2.95-4.14-2-2.71-4.12-5.41-6.34-8s-4.45-5.22-6.77-7.76c-9.28-10.19-19.19-20-29.29-29.57S1202.86,283.26,1192.65,273.46Z"/><path class="cls-41" d="M1061,345.48c.3,1.11.45,2.25.65,3.37l.55,3.37,1.06,6.7c.71,4.45,1.5,8.86,2.33,13.25,1.68,8.77,3.67,17.41,6.07,25.9a195.34,195.34,0,0,0,8.76,24.79l1.32,3,1.41,3c.45,1,1,2,1.46,2.93s1,2,1.51,2.9l1.57,2.88c.53,1,1.11,1.88,1.67,2.82,1.07,1.91,2.31,3.7,3.47,5.57l.17.24c1.34,2.49,2.7,5,4,7.48s2.61,5,3.88,7.57c2.53,5.07,5,10.19,7.2,15.47-3.79-4.28-7.33-8.73-10.8-13.21-1.73-2.25-3.45-4.5-5.13-6.78s-3.33-4.57-5-6.86l.16.24a108.8,108.8,0,0,1-8.27-11.28,113.15,113.15,0,0,1-6.7-12.28,133.79,133.79,0,0,1-9-26.31,149.11,149.11,0,0,1-3.68-27.35c-.2-4.58-.18-9.17,0-13.74q.16-3.42.5-6.83C1060.44,350,1060.8,347.74,1061,345.48Z"/><path class="cls-41" d="M1343.21,314.68a60.75,60.75,0,0,1,10.19,4.56c1.68.83,3.24,1.85,4.85,2.79s3.17,2,4.74,3c3.16,2,6.1,4.31,9.11,6.55,1.47,1.16,2.89,2.37,4.34,3.57s2.9,2.39,4.24,3.69a176,176,0,0,1,29,34.3l3,4.77c.5.8,1,1.58,1.49,2.39l1.35,2.47,2.67,5,1.33,2.48c.45.82.89,1.65,1.26,2.52,1.53,3.43,3.09,6.84,4.57,10.28s2.61,7.07,3.89,10.6c.6,1.77,1.29,3.54,1.77,5.32l1.4,5.37q1.36,5.37,2.65,10.77c1.66,7.21,3.34,14.41,4.63,21.73-3.2-6.71-6-13.53-8.82-20.34q-2.07-5.12-4.07-10.27l-2-5.15c-.3-.87-.72-1.67-1.09-2.49l-1.13-2.47-2.24-4.92-1.09-2.47-.55-1.23-.62-1.21c-1.69-3.2-3.3-6.43-4.94-9.64-3.53-6.29-7-12.6-11-18.59a257.81,257.81,0,0,0-26.46-34.17c-1.2-1.37-2.46-2.66-3.73-3.95l-3.78-3.92c-2.64-2.48-5.18-5.1-7.92-7.49s-5.46-4.85-8.27-7.2c-1.41-1.16-2.83-2.33-4.31-3.41-.72-.57-1.45-1.14-2.21-1.66l-1.13-.81Z"/></g><path class="cls-42" d="M1108.1,370.45c-40.39,32.2-75.44,86.36-50.93,119.76-7.77,25.38-23,40.86-23,74.66,0,32.83.06,52.91,5.59,76.81,6.82,29.44,13.65,39.71,26.15,55l330.84,35.67,102.87,50.3-20.07-120.84s18.27-25.54,27.51-116.38c13.59-133.67-68.44-200.11-163.85-215.56C1343.21,329.87,1168.48,322.34,1108.1,370.45Z"/><path class="cls-5" d="M1083.84,700.13c-6.89-12.65-23.31-20.92-36.84-14.57s-16,44.51-9.19,60,8.78,85.36,28.1,89.47a47.75,47.75,0,0,0,33.26-4.71l29.1,62.57L1168.48,936c3.55,2.47,37.57,34.7,41.75,35.8l61.12,24.77,63.14-4.37,62.26-39.27s67.32-50.33,69.9-140.86c0,0,24,11.53,33.29-8.17,7.73-16.42,32.81-94.12,26.56-129.44-4.3-24.34-42.25-30.2-54.87-4l-2.93-96.06-29.89-8.55c-6-2.39-46.8-8-51.62-12.33l-7.83-6s-6.76-4.6-15.1,6c-9.78,12.37-79.82,3.88-113.56-30.64l-3.17-7.27,13,37.91s-32.6-17.72-57.75-37.9c-15.09-12.11-13.35-16-13.35-16s-19.24,66-62.75,103.28l-4.37-9.15s3.29,17.79-15.76,53.33"/><path class="cls-5" d="M1250.7,522.82c-4.45-6.5-3.17-7.27-3.17-7.27l13,37.91"/><g class="cls-43"><path class="cls-44" d="M1246,468s-69.15,25.11-38.44,68.58c0,0-35,4.83-37.39,29a48.38,48.38,0,0,0,13,38.5h221.18l14.1-57.32Z"/><ellipse class="cls-45" cx="1179.83" cy="766.47" rx="77.77" ry="70.13"/><ellipse class="cls-46" cx="1183.21" cy="763.72" rx="77.77" ry="70.13"/><ellipse class="cls-47" cx="1171.15" cy="763.87" rx="77.77" ry="70.13"/><ellipse class="cls-48" cx="1410.35" cy="758.42" rx="77.77" ry="70.13"/><path class="cls-49" d="M1053.67,718.39a25.55,25.55,0,0,1,8,2.41l1.88.93c.63.32,1.21.7,1.81,1a34.66,34.66,0,0,1,3.48,2.34,53.65,53.65,0,0,1,11.54,12l2.23,3.52c.74,1.18,1.33,2.43,1.95,3.67a40.18,40.18,0,0,1,1.72,3.78c.5,1.28,1,2.59,1.4,3.89a29,29,0,0,1,1.1,4c.31,1.34.58,2.69.83,4s.31,2.75.4,4.13a38.46,38.46,0,0,1,0,4.16,73.14,73.14,0,0,1-4.59-6.74c-.75-1.11-1.47-2.21-2.15-3.31-.35-.55-.67-1.11-1-1.67s-.73-1.07-1.06-1.62c-.7-1.08-1.39-2.15-2-3.25s-1.4-2.12-2.08-3.18c-1.32-2.16-2.8-4.18-4.16-6.28-2.88-4.09-5.82-8.11-9-12S1057.52,722.41,1053.67,718.39Z"/></g><line class="cls-50" x1="1148.68" y1="569.65" x2="1148.68" y2="593.65"/><path class="cls-51" d="M1507.05,677.57a48,48,0,0,1-1.49,5c-.54,1.64-1.14,3.24-1.71,4.85l-1.8,4.76-1.85,4.7c-2.5,6.23-5.07,12.36-7.61,18.47l-7.45,18.4c-2.39,6.2-4.61,12.43-7.17,19a62.35,62.35,0,0,1,.36-20.89,101.07,101.07,0,0,1,6-19.94,115,115,0,0,1,9.67-18.3A93,93,0,0,1,1507.05,677.57Z"/><path class="cls-52" d="M1471.63,665.27s44.38-23.63,51.71,3.53c14.11,52.35-21.51,165.6-56.77,145.77"/><path class="cls-53" d="M1054.86,706.72a59.17,59.17,0,0,1,7.21,7.57,97.48,97.48,0,0,1,6.09,8.4,111.29,111.29,0,0,1,9.48,18.42,97.76,97.76,0,0,1,5.75,20c.28,1.72.53,3.44.74,5.17s.26,3.48.35,5.22l.08,2.61c0,.87-.06,1.75-.11,2.62q-.15,2.63-.51,5.22c-2.78-6.48-4.89-12.77-7.37-19s-4.77-12.36-7.28-18.49l-7.4-18.54C1059.45,719.67,1057,713.41,1054.86,706.72Z"/><path class="cls-54" d="M1083.84,700.13s-22.51-34.86-45-6.88c-9.23,20.49-3.79,31.7.93,71.17,5.58,46.59,19.59,86.46,59.41,65.87"/><path class="cls-55" d="M1255.33,802.5s-3.33-6.7,4.75-14.13,22.17-1.64,30.43,0a30.72,30.72,0,0,0,24.74-6.49c10.8-.54,23.79-1.38,27.28,13.06,2,8-13.4,20.28-34,15.77,0,0,1.48,9.16-2.71,9.16s-14.42,1.93-16.12-2.58-4.08-9.09-4.08-9.09S1264.44,812.34,1255.33,802.5Z"/><path class="cls-56" d="M1087.82,673.29c1.93,3.65-2.68,82.49,37.5,101.82,24.94,12,34.22,14.62,48.51,39.74s50.92,146.84,50.81,160.83-56.16-51.44-56.16-51.44l-48.78-73.52-23.19-95.53Z"/><path class="cls-57" d="M1470.23,726.61c-1.93,3.65,11.56,9.62-18.38,42.65s-35.43,48.87-42.1,77c-21.18,89.3-53.11,125.52-68.54,137.15-11.17,8.42,70.52-45.4,70.52-45.4l41.77-56.79,11.06-75.82Z"/><path class="cls-58" d="M1087.82,700.13c0,2.89,36.71,137.16,47.33,154.55s19.12,34,46.37,58.72c29.45,26.74,54.62,58.37,94.43,66.22,38.21,7.52,95.5-7.85,95.5-7.85l-50.08,27.34L1254,995.65l-72.76-49.44s-38.64-31.08-58.88-64.29c-1.8-3-26.67-87.31-26.67-87.31Z"/><path class="cls-59" d="M1083.84,700.13c21.46,105.27,20.86,188.13,79.57,233.51,43.65,42,80.86,63.25,134.32,66.57,11.34-.34,31.77-5.83,46.22-11.39,0,0,58.75-34.57,83.77-72.56,17.9-27.19,29.73-63.22,40.38-136.23,3.91-26.78,2.12-196-2.71-205.69"/><path class="cls-60" d="M1244.31,676.69s-21.14,30.1-79.64,11.8c-21.18-3-12.86-15.2-12.86-15.2s28.85-35,54.06-25.11C1232.08,658.49,1241.41,668.7,1244.31,676.69Z"/><ellipse class="cls-61" cx="1200.19" cy="665.27" rx="23.67" ry="20.29"/><ellipse class="cls-62" cx="1200.87" cy="662.43" rx="16.63" ry="14.25"/><path class="cls-63" d="M1258.34,672.72c1-3.34-9.66-37.15-55.06-37.15s-58,28.89-61.83,37.15,24.63-23.71,50.23-22.66c13.06.4,33.31,2.71,50.24,21.25C1251.53,677.37,1258.34,672.72,1258.34,672.72Z"/><path class="cls-64" d="M1118.47,634.44c2.36-3.45,11.44-24.07,22.63-33.81,4.14-3.62,9.64-7.31,15.13-7l82.19,8.75,3.75,25.8c-21.63-3.47-56.91-6.72-78.53-10.19a50.12,50.12,0,0,0-32.58,5.87C1123,628.43,1126.5,629.89,1118.47,634.44Z"/><path class="cls-65" d="M1244.78,607.17q5.31,10.16,10.63,20.29"/><line class="cls-65" x1="1238.42" y1="607.17" x2="1247.11" y2="627.46"/><path class="cls-66" d="M1158.72,685.65a133.75,133.75,0,0,0,20.54,8,76.26,76.26,0,0,0,10.35,2.17,49,49,0,0,0,10.25.28c1.64-.08,3.49-.35,5.29-.58s3.6-.5,5.39-.82c3.61-.55,7.2-1.28,10.83-2,7.24-1.47,14.49-3.11,22-4.8-.74.63-1.52,1.19-2.3,1.76s-1.59,1.08-2.4,1.61q-2.43,1.56-5,2.92a88.58,88.58,0,0,1-10.5,4.76,98.34,98.34,0,0,1-11.06,3.44c-.94.24-1.89.42-2.84.63s-1.89.43-2.85.56a50.89,50.89,0,0,1-5.91.77,43.72,43.72,0,0,1-12.21-.71l-3-.66c-1-.23-1.92-.58-2.88-.87a25.3,25.3,0,0,1-2.81-1c-.92-.37-1.85-.73-2.76-1.12a56,56,0,0,1-18.82-13.64Z"/><path class="cls-66" d="M1428.07,677.94a56,56,0,0,1-17.65,15.12c-.87.47-1.77.9-2.65,1.35a29.08,29.08,0,0,1-2.73,1.22c-.94.36-1.84.79-2.8,1.09l-2.89.9a43.48,43.48,0,0,1-12.11,1.71,51.9,51.9,0,0,1-6-.29c-1-.06-1.92-.22-2.89-.33s-1.92-.23-2.88-.4a96.11,96.11,0,0,1-11.3-2.52,90.55,90.55,0,0,1-10.86-3.89c-1.76-.77-3.5-1.59-5.2-2.5-.84-.47-1.69-.92-2.52-1.41s-1.65-1-2.43-1.57c7.61,1.07,15,2.12,22.3,3,3.67.38,7.31.82,11,1.07,1.82.17,3.64.26,5.45.38s3.67.2,5.31.15a48.58,48.58,0,0,0,10.2-1.12,77.54,77.54,0,0,0,10.14-3,133.09,133.09,0,0,0,19.81-9.69Z"/><path class="cls-62" d="M1176.52,665.27s7-9.51,23.67-9.51,23.67,9.51,23.67,9.51,3.17-11.75-20.95-16.34c-21.43-4.08-27.79,9.46-26.39,16.34"/><path class="cls-64" d="M1244.07,673.29a81.56,81.56,0,0,0-10.59-9.5,78.59,78.59,0,0,0-12-7.55c-8.37-4.26-17.72-6.77-27-6.07a41.13,41.13,0,0,0-6.8,1.07c-1.11.26-2.21.58-3.33,1s-2.22.73-3.31,1.13a68.72,68.72,0,0,0-12.52,5.93,47,47,0,0,0-10.46,8.54,33.72,33.72,0,0,0-3.93,5.29,25.8,25.8,0,0,0-1.49,2.85c-.21.48-.4,1-.58,1.44-.08.24-.16.47-.23.7l-.09.33c0,.09-.06.25,0,.23h0l-.85-3c.31.34.78.81,1.21,1.22s.88.83,1.34,1.23c.93.82,1.89,1.61,2.87,2.37a67.6,67.6,0,0,0,6.18,4.25,69.07,69.07,0,0,0,28.65,9.66,74.87,74.87,0,0,0,15.48-.07,75.71,75.71,0,0,1-15.56,1.65,71.52,71.52,0,0,1-15.72-1.8,72.74,72.74,0,0,1-15.1-5.27,71.77,71.77,0,0,1-7.09-3.87c-1.14-.72-2.27-1.47-3.39-2.27-.55-.4-1.11-.8-1.65-1.23s-1.07-.84-1.69-1.4L1145.2,679l.4-1.84h0c.08-.31.13-.44.19-.64l.18-.51c.13-.33.26-.66.39-1,.27-.63.56-1.23.87-1.82a32.14,32.14,0,0,1,2-3.35,39.42,39.42,0,0,1,5-5.85,51.71,51.71,0,0,1,12.15-8.7,72.27,72.27,0,0,1,13.62-5.42c1.17-.34,2.33-.67,3.51-.95s2.37-.58,3.58-.81a45.27,45.27,0,0,1,7.33-.79,48.21,48.21,0,0,1,14.46,1.94,61.05,61.05,0,0,1,13.28,5.69,80.46,80.46,0,0,1,11.76,8.23A82.37,82.37,0,0,1,1244.07,673.29Z"/><circle class="cls-67" cx="1213.69" cy="662.85" r="5.95"/><line class="cls-68" x1="1191.49" y1="668.8" x2="1184.24" y2="680.26"/><path class="cls-60" d="M1339.11,673.29s25.25,28.84,80.61,2.51c20.56-5.89,10.61-16.85,10.61-16.85s-31-24.67-57-17.29S1340.86,665,1339.11,673.29Z"/><ellipse class="cls-61" cx="1386.44" cy="658.49" rx="23.67" ry="20.29" transform="matrix(0.99, -0.14, 0.14, 0.99, -78.62, 200.86)"/><ellipse class="cls-62" cx="1385.37" cy="655.78" rx="16.63" ry="14.25" transform="matrix(0.99, -0.14, 0.14, 0.99, -78.25, 200.69)"/><path class="cls-69" d="M1323.5,673.66c-1.43-3.16,4.36-38.13,49.31-44.49s61.44,20.48,66.42,28.11-27.71-20-52.91-15.39c-11.36-4-42,16.6-46.76,28.08C1330.89,677.32,1323.5,673.66,1323.5,673.66Z"/><path class="cls-64" d="M1455.55,624.69c-2.23-3.27-7.6-18.31-19.17-28.46-5.34-4.68-17.27-9.28-24.36-8.87l-71.86,8.87-1.05,26.28c20-3.16,43.59-5.32,63.59-8.48,14.38-2.27,30,.43,44,5.63C1453.82,622.29,1449,620.94,1455.55,624.69Z"/><path class="cls-65" d="M1336.08,602.4q-5.31,10.14-10.63,20.29"/><line class="cls-65" x1="1340.77" y1="602.4" x2="1332.08" y2="622.69"/><path class="cls-62" d="M1409.87,655.17s-8.3-8.43-24.76-6.1-22.1,12.74-22.1,12.74-1.93-21.53,25.74-20.15c21.79,1.08,21.54,6.51,21.12,13.51"/><path class="cls-64" d="M1340.31,671.12a50.68,50.68,0,0,1,7.8-12,57.57,57.57,0,0,1,10.68-9.69,61.37,61.37,0,0,1,27-10.42,48.73,48.73,0,0,1,14.81.14,44.82,44.82,0,0,1,7.27,1.86,47.22,47.22,0,0,1,6.88,3.11,50.06,50.06,0,0,1,11.83,9.3,57.08,57.08,0,0,1,4.79,5.83c.73,1,1.43,2.07,2.09,3.16.34.54.66,1.09,1,1.66s.6,1.09.94,1.81l.8,1.71-1.27,1.58h0c-.57.62-1,1-1.51,1.49s-1,.89-1.48,1.31c-1,.85-2,1.64-3.06,2.4a64.75,64.75,0,0,1-6.46,4.13,71.24,71.24,0,0,1-13.94,5.91,75.47,75.47,0,0,1-14.66,2.89,85.89,85.89,0,0,1-14.78.17,86.08,86.08,0,0,0,14.54-1.75,73.6,73.6,0,0,0,13.81-4.33,67.39,67.39,0,0,0,12.46-7,58.94,58.94,0,0,0,5.49-4.42c.86-.79,1.7-1.59,2.49-2.43.39-.42.78-.84,1.15-1.26s.75-.9,1-1.21l-.47,3.29c-.15-.38-.4-.93-.63-1.4s-.49-1-.76-1.48c-.53-1-1.1-1.95-1.7-2.89a49.39,49.39,0,0,0-4-5.44,44.1,44.1,0,0,0-10.11-8.87,41.86,41.86,0,0,0-6-3.11,40.47,40.47,0,0,0-6.47-2,45.25,45.25,0,0,0-13.66-.86,59,59,0,0,0-26.42,8.5,56.69,56.69,0,0,0-11,8.87A50.35,50.35,0,0,0,1340.31,671.12Z"/><circle class="cls-67" cx="1402.7" cy="653.74" r="5.95"/><line class="cls-68" x1="1377.75" y1="663.29" x2="1372.17" y2="675.65"/><path class="cls-70" d="M1322.22,622.51s-13.72,34-9.45,72.93"/><path class="cls-71" d="M1275.76,778.1a3.52,3.52,0,0,1,.42.15l.21.09.12.07.5.29.88.58,1.7,1.16c1.12.76,2.24,1.51,3.39,2.2a43.38,43.38,0,0,0,7,3.56c4.82,1.89,10,2.36,14.62.69a21.45,21.45,0,0,0,11.25-9.37,41.32,41.32,0,0,0,5-14.84v0a1.08,1.08,0,0,1,1.24-.89,1.07,1.07,0,0,1,.9,1.06,35.16,35.16,0,0,1-3.77,16.59A23.79,23.79,0,0,1,1306,790.91a21,21,0,0,1-8.94,1.05,25.85,25.85,0,0,1-8.47-2.43,37.07,37.07,0,0,1-7.22-4.6c-1.1-.88-2.15-1.82-3.16-2.77l-2.7-2.64-.36-.35a.64.64,0,0,1,.62-1.07Z"/><path class="cls-70" d="M1252.6,775.64s-19.67,27.49,10,32.56"/><path class="cls-70" d="M1333.9,807c21.8-15.15,2.62-37.29,2.62-37.29"/><path class="cls-71" d="M1265.61,799.87a9.94,9.94,0,0,1,1.8-5.78,12.66,12.66,0,0,1,4.67-4,18.69,18.69,0,0,1,2.81-1.2c1-.3,1.94-.54,2.92-.76s2-.34,3-.44l2.94-.2a2.58,2.58,0,0,1,.36,5.15,1.93,1.93,0,0,1-.42,0l-.19,0-2.58-.26c-.85-.05-1.7,0-2.56-.05s-1.68.11-2.51.21a15.69,15.69,0,0,0-2.41.58,9.72,9.72,0,0,0-4.15,2.45,8.29,8.29,0,0,0-2.22,4.32l0,.1a.7.7,0,0,1-1.39-.1Z"/><path class="cls-71" d="M1308.24,788c1.52-.07,3.36-.21,5.1-.16a27.55,27.55,0,0,1,5.32.61,18.69,18.69,0,0,1,5.1,1.89,16.65,16.65,0,0,1,4.23,3.41,1.3,1.3,0,0,1-1.82,1.84l0,0a13.51,13.51,0,0,0-3.77-2.32,15,15,0,0,0-4.32-1,23.79,23.79,0,0,0-4.54.06c-1.55.16-3,.45-4.74.76a2.54,2.54,0,1,1-.89-5l.3,0Z"/><path class="cls-72" d="M1227.69,849.68c2.43,2.89,18.52,25.15,35.44,32,18.27,7.36,50.44,7,63.38.1,16.7-8.92,32.67-30.79,32.67-30.79h-11.86s-11.18,8.16-20.26,8.45c-19.26.62-43.48-1.1-64.6-.77-14.85.24-28.36-6.27-28.36-6.27Z"/><path class="cls-73" d="M1230.73,851c-.55-.29-3.66-6.2-3-6.2,12.29,0,17.15,4,34.77-1.22,15.29-4.53,21.67,1.13,35.93,2.1s17.66-5.2,27.06-3.84c8.15,1.18,22.6,5.24,37.53,1.93,0,0-4.41,7.23-6.47,7.23-9.5,0-28.28,10.21-37.13,9.3-10.34-1-31.56-2.88-45.76-1.44C1260.21,860.17,1239.18,855.43,1230.73,851Z"/><path class="cls-74" d="M1230.29,851.77a1.19,1.19,0,0,1-.23-.16l-.11-.11a1.77,1.77,0,0,1-.14-.17l-.21-.27-.33-.52-.58-1c-.37-.67-.72-1.36-1-2-.17-.35-.33-.7-.49-1.07a6.6,6.6,0,0,1-.42-1.26l0-.15a1.38,1.38,0,0,1,0-.21,1,1,0,0,1,.78-.92l.22,0h2c3,0,6.09.35,9.06.66a54.33,54.33,0,0,0,8.8.34,47.92,47.92,0,0,0,8.63-1.33c2.87-.7,5.55-1.64,8.62-2.5a38.22,38.22,0,0,1,9.38-1.27,46.41,46.41,0,0,1,9.35,1c3,.6,5.88,1.25,8.75,1.69a58.16,58.16,0,0,0,8.57.81,33.38,33.38,0,0,0,8.29-1c2.72-.63,5.41-1.76,8.63-2.57a21,21,0,0,1,5-.62,19.51,19.51,0,0,1,2.55.16c.85.11,1.56.26,2.33.39,3,.6,5.92,1.17,8.82,1.79s5.79,1.09,8.7,1.52a85.42,85.42,0,0,0,17.78.76h0a34.37,34.37,0,0,1-2.15,3.78,15.62,15.62,0,0,1-2.86,3.43,2.83,2.83,0,0,1-1.2.61,4.53,4.53,0,0,0-.62.12,4.5,4.5,0,0,1-.51.08c-.69.07-1.38.14-2.07.26a40.3,40.3,0,0,0-4.13.94c-5.48,1.54-10.84,3.68-16.33,5.51a67.23,67.23,0,0,1-8.43,2.35,22.79,22.79,0,0,1-4.49.45c-.8,0-1.5-.12-2.22-.19l-2.14-.21c-5.72-.53-11.46-1-17.19-1.26s-11.48-.43-17.2-.28c-2.87,0-5.68.29-8.57.52a61,61,0,0,1-8.76,0,110.84,110.84,0,0,1-17.23-2.55c-2.83-.65-5.64-1.4-8.42-2.27A51.72,51.72,0,0,1,1230.29,851.77Zm.87-1.64a51.36,51.36,0,0,0,7.87,3.12c2.72.85,5.48,1.58,8.26,2.22a108,108,0,0,0,16.93,2.47,57.27,57.27,0,0,0,8.49,0c2.85-.24,5.79-.49,8.68-.54,5.79-.16,11.58,0,17.35.3s11.52.74,17.27,1.29l2.15.21c.72.07,1.45.15,2.08.18a20.63,20.63,0,0,0,4.1-.4,70.43,70.43,0,0,0,8.22-2.21c5.45-1.76,10.84-3.84,16.47-5.36a42.57,42.57,0,0,1,4.3-.93c.73-.11,1.47-.2,2.22-.24l.57,0a3.7,3.7,0,0,0,.46.07,2,2,0,0,0,.72-.32,17.77,17.77,0,0,0,3-2.92c.93-1.09,1.82-2.22,2.71-3.37h0a48.19,48.19,0,0,1-18,2.84,118.66,118.66,0,0,1-18.07-2l-2.12-.28a15.94,15.94,0,0,0-1.94-.13,15.67,15.67,0,0,0-3.86.5c-2.61.64-5.49,1.84-8.61,2.59a36,36,0,0,1-9.56,1,57.53,57.53,0,0,1-9.33-1c-6.12-1.14-11.72-3.13-17.34-3.32a35.65,35.65,0,0,0-8.47.7c-2.75.62-5.81,1.47-8.8,2a50.36,50.36,0,0,1-18.37.15c-3-.44-5.9-.89-8.85-1l-1.1-.05-.56,0h-.24s0,0,.16,0a.8.8,0,0,0,.64-.69c0-.13,0-.05,0-.09a5.49,5.49,0,0,0,.31.86c.13.33.29.66.44,1,.32.65.67,1.3,1,1.94.18.32.36.63.55.93l.28.43.13.17,0,.05h0A.57.57,0,0,0,1231.16,850.13Z"/><path class="cls-75" d="M1271,870.85c0-1.89,3.2-3.7,10.29-3.7s9.53,3.21,16.38,1.85,12.71-3.79,17.12-1.85l4.4,1.93s1.95,3.87-2.45,6.29-16,3.87-21.43,3.87S1270.85,878.36,1271,870.85Z"/><ellipse class="cls-76" cx="1295.26" cy="938.75" rx="32.8" ry="27"/><path class="cls-77" d="M1270.7,922a1.46,1.46,0,0,0-.59.09l-.14.07c-.07.06,0,0,.06,0s.06,0,.15-.05a10.82,10.82,0,0,0,1.08-.6c.82-.51,1.72-1.13,2.65-1.74a56.65,56.65,0,0,1,5.9-3.45,35.09,35.09,0,0,1,13.26-3.7,33.22,33.22,0,0,1,6.77.19c1.11.11,2.2.36,3.29.55s2.16.49,3.2.83a55.58,55.58,0,0,1,11.89,5.24,54.54,54.54,0,0,0-12.31-3.28c-1-.18-2.08-.22-3.12-.31s-2.07-.1-3.1,0a29.64,29.64,0,0,0-6,.77,30.19,30.19,0,0,0-10.78,4.91,50,50,0,0,0-4.68,3.83c-.77.7-1.54,1.42-2.43,2.19a17.76,17.76,0,0,1-1.56,1.23c-.13.1-.37.23-.55.34a4,4,0,0,1-.67.35,6.6,6.6,0,0,1-.89.34,7.19,7.19,0,0,1-1.39.22,4,4,0,0,1,0-8Z"/><path class="cls-78" d="M1236.14,634.82s7.57-14.65,25-8.72,17,27.22,17.18,45,0,48.85-12,64.65c-12.31,16.16-21.93-19.63-16.13-30.33,6.61-12.19,14.1-28.1,10.33-39.91S1241,645.35,1236.14,634.82Z"/><path class="cls-79" d="M1286.89,772.31a4.77,4.77,0,0,1,.84-.15h.48c.15,0,.35,0,.46,0l.58.1,1,.2,1.79.41c1.17.25,2.34.49,3.51.69a43.94,43.94,0,0,0,7,.7,21.06,21.06,0,0,0,6.79-.89,10,10,0,0,0,5.34-4h0a.64.64,0,0,1,.89-.19.65.65,0,0,1,.25.78,11.92,11.92,0,0,1-5.35,5.85,24.63,24.63,0,0,1-7.54,2.55,50.05,50.05,0,0,1-7.78.73c-1.29,0-2.58,0-3.86,0l-1.88,0-.87,0h-.34s0,0,0,0h.24a2.44,2.44,0,0,0,.61-.12,3.5,3.5,0,0,1-2.14-6.67Z"/><path class="cls-32" d="M971.28,1081.24s-95.63.91-125.19,40.89S738.3,1502.9,738.3,1502.9H929.55l60.85-420.74Z"/><g class="cls-80"><path class="cls-81" d="M952,1286.63s-58.93,145-64.15,207.58,74.76,8.69,74.76,8.69L952,1286.63"/></g><path class="cls-35" d="M971.28,1081.24s-95.63.91-125.19,40.89S738.3,1502.9,738.3,1502.9H929.55l60.85-420.74Z"/><path class="cls-82" d="M963.76,582.15V278a57.13,57.13,0,0,0-57.13-57.13H650.55a65.82,65.82,0,0,0-65.82,65.82V438.73a58.43,58.43,0,0,0,58.43,58.43H911.6Z"/><path class="cls-83" d="M775.7,309.27s37.5-28,64.88-6.73,31.93,75-64.88,142c0,0-124.2-87.27-72-135.31C732.35,276.88,775.7,309.27,775.7,309.27Z"/><path class="cls-84" d="M1978.08,333.5V153.16A20.17,20.17,0,0,0,1957.92,133H1439.51a28.87,28.87,0,0,0-28.86,28.87V269a21.47,21.47,0,0,0,21.47,21.47h493.8Z"/><circle class="cls-85" cx="1511.61" cy="213.52" r="52.44"/><circle class="cls-86" cx="1891.52" cy="213.52" r="52.44"/><circle class="cls-67" cx="1510.4" cy="189.42" r="14.65"/><path class="cls-67" d="M1510.4,208.17a18.67,18.67,0,0,0-18.67,18.68v23.47h37.34V226.85A18.67,18.67,0,0,0,1510.4,208.17Z"/><line class="cls-87" x1="1620.24" y1="181.35" x2="1792.91" y2="181.35"/><line class="cls-87" x1="1684.14" y1="213.52" x2="1792.91" y2="213.52"/><line class="cls-87" x1="1620.24" y1="213.52" x2="1656.7" y2="213.52"/><line class="cls-87" x1="1620.24" y1="245.69" x2="1792.91" y2="245.69"/><circle class="cls-88" cx="1891.52" cy="213.52" r="23.52"/><circle class="cls-67" cx="1862.8" cy="197.85" r="7.28"/><circle class="cls-67" cx="1920.25" cy="197.85" r="7.28"/><circle class="cls-67" cx="1862.8" cy="231.87" r="7.28"/><circle class="cls-67" cx="1920.25" cy="231.87" r="7.28"/><circle class="cls-67" cx="1890.76" cy="180.61" r="7.28"/><circle class="cls-67" cx="1890.76" cy="246.42" r="7.28"/><path class="cls-40" d="M1075.3,689a20.08,20.08,0,0,0,2.15-2.17c.76-.88,1.52-1.83,2.26-2.81,1.5-2,2.94-4.06,4.34-6.19,2.79-4.28,5.42-8.74,7.89-13.28a222.57,222.57,0,0,0,13-28.14,138.06,138.06,0,0,0,4.62-14.57c.61-2.45,1.15-4.9,1.54-7.33a53.2,53.2,0,0,0,.77-7.22c0-.59.06-1.18,0-1.75v-.87c0-.28,0-.58,0-1,0-1.37-.08-2.77-.07-4.19s0-2.88.19-4.43c.07-.78.16-1.59.33-2.49a12.07,12.07,0,0,1,1.08-3.35,5.46,5.46,0,0,1,.33-.6c.16-.24.26-.41.47-.69a9.44,9.44,0,0,1,.7-.78l.48-.41a5,5,0,0,1,.57-.41,6.43,6.43,0,0,1,3.12-1,6.94,6.94,0,0,1,1.54.11,7.59,7.59,0,0,1,1.19.34,8.13,8.13,0,0,1,2.51,1.6,13.78,13.78,0,0,1,1.22,1.3,27.67,27.67,0,0,1,2.71,4.23,73.65,73.65,0,0,1,3.56,7.88l-9.35-1.47c2.68-3.4,5.39-7,8-10.61s5.23-7.24,7.78-10.92q7.66-11,14.92-22.33c4.83-7.53,9.55-15.15,14.09-22.87,2.3-3.84,4.55-7.73,6.74-11.6s4.32-7.76,6.15-11.6c.91-1.93,1.71-3.83,2.4-5.74q.49-1.44.93-2.91c.13-.5.28-1,.41-1.5l.19-.76,0-.19,0-.1,0-.11c.06-.2.12-.39.19-.58a5.72,5.72,0,0,1,3.42-3.44,6.82,6.82,0,0,1,.77-.23c.27-.06.53-.09.67-.11a7.93,7.93,0,0,1,1.09,0c.23,0,.47.06.7.1s.41.09.56.13l.45.15c.23.08.44.17.64.26l.48.24a11.29,11.29,0,0,1,1.28.8,21.63,21.63,0,0,1,1.72,1.35c1,.86,1.9,1.69,2.76,2.53,1.72,1.67,3.32,3.35,4.9,5s3.12,3.4,4.64,5.13,3,3.44,4.55,5.36a108,108,0,0,0,8.63,9.53,97.08,97.08,0,0,0,20.4,15.37,79.35,79.35,0,0,0,23.66,8.7l-5.81,7.92c-3.84-7.2-7.54-14.38-11.13-21.7-1.79-3.66-3.55-7.35-5.24-11.1l-1.26-2.84-.61-1.44-.3-.72-.08-.18-.08-.22-.12-.33c-.06-.23-.12-.43-.17-.69a6.16,6.16,0,0,1,1.94-5.75,6.18,6.18,0,0,1,8.43.12,5.79,5.79,0,0,1,.48.51l.1.11.11.14.22.26.44.52c.6.7,1.21,1.39,1.85,2.07a90.57,90.57,0,0,0,17.71,14.25,134.44,134.44,0,0,0,20.7,10.49,178.21,178.21,0,0,0,22.29,7.32,180.74,180.74,0,0,0,23,4.52c7.65.93,15.39,1.21,22.39-.1a25.31,25.31,0,0,0,9.17-3.49,11.72,11.72,0,0,0,3-2.84,8,8,0,0,0,.91-1.59c.1-.26.2-.52.27-.77s.06-.24.08-.33,0-.08,0-.11,0,0,0,0v.16h0l8-4.51c3.59,2.11,7.42,4.2,11.19,6.22s7.63,4,11.5,5.87c7.73,3.79,15.58,7.35,23.57,10.55a222.06,222.06,0,0,0,24.4,8.35,128.77,128.77,0,0,0,12.56,2.84,88.63,88.63,0,0,0,12.79,1.35l0,2a94.22,94.22,0,0,1-13.23-.27c-4.4-.37-8.77-1-13.1-1.81a229.31,229.31,0,0,1-25.61-6.4c-8.42-2.57-16.71-5.51-24.91-8.7q-6.15-2.38-12.22-5c-4.07-1.74-8.05-3.49-12.14-5.45l8-4.52v0c0,.3,0,.38,0,.52l0,.36c0,.22-.07.44-.11.63-.08.41-.17.77-.27,1.14a20.31,20.31,0,0,1-.73,2.08,19.31,19.31,0,0,1-2.07,3.67,22.67,22.67,0,0,1-5.69,5.51,35.94,35.94,0,0,1-13.23,5.19c-8.89,1.64-17.47,1.21-25.79.22a194.08,194.08,0,0,1-24.44-4.79,190.45,190.45,0,0,1-23.64-7.77,145.83,145.83,0,0,1-22.4-11.35,102,102,0,0,1-19.85-16c-.74-.79-1.47-1.61-2.19-2.44l-.53-.63-.26-.32-.13-.15,0,0s-.06-.08,0,0a4,4,0,0,0,.35.37,4.76,4.76,0,0,0,2.07,1.15,4.68,4.68,0,0,0,5.78-5.43c0-.19-.07-.34-.12-.5l-.08-.24c0-.08-.08-.18-.06-.13l.08.17.28.67.57,1.34,1.19,2.69c1.62,3.6,3.34,7.19,5.09,10.77,3.51,7.16,7.2,14.31,10.94,21.35l5.36,10.06-11.17-2.14a89.8,89.8,0,0,1-26.93-9.88,107.53,107.53,0,0,1-22.71-17.1,117.07,117.07,0,0,1-9.52-10.51c-1.28-1.63-2.75-3.29-4.21-5s-3-3.29-4.45-4.9-3-3.19-4.52-4.66c-.75-.73-1.51-1.44-2.22-2.05a11.73,11.73,0,0,0-.94-.74l-.15-.1.1.05.25.1.25.08.36.08a2.63,2.63,0,0,0,.49.07,5.06,5.06,0,0,0,.87,0c.12,0,.33,0,.57-.09a5.16,5.16,0,0,0,.67-.2,5.19,5.19,0,0,0,2.47-1.94,5.54,5.54,0,0,0,.54-1.05,4.42,4.42,0,0,0,.15-.48c0-.13,0,0,0,0l0,.11-.05.22-.23.88c-.14.58-.32,1.18-.48,1.76-.34,1.19-.72,2.37-1.13,3.54a72.7,72.7,0,0,1-2.81,6.74c-2,4.3-4.27,8.34-6.51,12.31s-4.52,7.89-6.86,11.8q-6.91,11.74-14.3,23.2t-15.15,22.68c-5.23,7.48-10.49,14.79-16.22,22.1l-5.86,7.47-3.49-8.94a62.72,62.72,0,0,0-3-6.6,18,18,0,0,0-1.54-2.47c-.09-.12-.16-.17-.13-.15a2.72,2.72,0,0,0,.86.5,3.41,3.41,0,0,0,.72.2,4.23,4.23,0,0,0,1,.08,4.61,4.61,0,0,0,2.19-.69l.37-.26.29-.26a3.17,3.17,0,0,0,.37-.4c.11-.16.13-.18.19-.28l.1-.17c.13-.31,0,0-.08.44s-.14.91-.19,1.44c-.1,1.09-.13,2.29-.14,3.51s0,2.48.06,3.75l0,1,0,1.12c0,.75,0,1.48,0,2.21a64.41,64.41,0,0,1-.9,8.57c-.45,2.8-1.06,5.53-1.73,8.22a151.88,151.88,0,0,1-5,15.71,233.88,233.88,0,0,1-13.6,29.55c-2.59,4.76-5.34,9.44-8.34,14-1.5,2.3-3.07,4.57-4.78,6.82-.85,1.13-1.75,2.25-2.73,3.37a29.49,29.49,0,0,1-3.45,3.45Z"/><path class="cls-40" d="M1150.44,394.4c.89,2.28,1.51,4.65,2.24,7l2.1,7q2.12,7,4.35,14c3,9.28,6.19,18.49,9.72,27.53a239.51,239.51,0,0,0,11.93,26.29,102.84,102.84,0,0,0,7.46,11.88,38.2,38.2,0,0,0,9,9.09l-6.39,8.82a47.79,47.79,0,0,1-10.5-12.61,111.57,111.57,0,0,1-6.89-13.62,246.12,246.12,0,0,1-9.74-28.11c-2.71-9.46-5.06-19-7.18-28.56q-1.6-7.17-3-14.36l-1.44-7.19C1151.51,399.16,1151.11,396.74,1150.44,394.4Z"/><path class="cls-40" d="M1207.59,456.56c3.16,5.63,6.56,11.14,10.06,16.56s7.18,10.71,11,15.81c1.9,2.58,3.93,5,5.93,7.52l3.1,3.6c1,1.22,2.14,2.31,3.2,3.46,4.32,4.5,8.92,8.75,13.8,11.68l-6.2,8.95-4.06-3.53c-1.27-1.22-2.42-2.51-3.62-3.76l-.89-1-.81-1-1.62-2-1.6-2-1.49-2a163.92,163.92,0,0,1-10.77-16.7c-3.29-5.69-6.31-11.49-9.15-17.36s-5.53-11.8-8-17.83Z"/><path class="cls-40" d="M1263.49,459.87a19.1,19.1,0,0,1,3,.93c1,.36,1.92.74,2.87,1.13,1.89.79,3.76,1.61,5.63,2.44,3.73,1.66,7.44,3.38,11.13,5.13q11.07,5.25,22,10.75c7.3,3.68,14.56,7.39,21.8,11.28a104.58,104.58,0,0,1,20.57,14.65l.07.07.22.25,32.73,37.56-8.42,6.91-30.45-39.43.29.32a97.36,97.36,0,0,0-18.17-15c-6.83-4.31-13.82-8.53-20.81-12.68S1292,476,1284.88,472c-3.55-2-7.11-4-10.69-5.88-1.8-.95-3.6-1.89-5.41-2.8-.91-.45-1.82-.89-2.74-1.3a17.5,17.5,0,0,0-2.72-1.06Z"/><path class="cls-40" d="M1108.33,521a128.07,128.07,0,0,0,0,20.82,123.92,123.92,0,0,0,3.28,20.31,92.52,92.52,0,0,0,6.9,19,69.22,69.22,0,0,0,11,16.12l-8.48,6.83A78.93,78.93,0,0,1,1111,584.23a91.51,91.51,0,0,1-3-10.49,104.72,104.72,0,0,1-1.77-10.63,134,134,0,0,1,2-42.1Z"/><path class="cls-44" d="M1298.59,481.66s10,38,67.47,53.52C1366.06,535.18,1335,497.41,1298.59,481.66Z"/><path class="cls-40" d="M1296.43,475.48a2.94,2.94,0,0,1,.6,1l.17.51.25.85.46,1.61c.31,1.07.65,2.11,1,3.15a64.17,64.17,0,0,0,9.2,17.28,74.63,74.63,0,0,0,19,17.65,104.56,104.56,0,0,0,23.45,11.36,152.7,152.7,0,0,0,25.48,6.37L1373.88,546a163.52,163.52,0,0,1-26.57-8.64,113.33,113.33,0,0,1-24.33-14,80.84,80.84,0,0,1-19.18-20.47,68.7,68.7,0,0,1-6.36-12.5,65.21,65.21,0,0,1-2.18-6.64c-.3-1.12-.58-2.25-.83-3.38l-.35-1.67-.17-.8-.08-.3c-.07-.25.06.19.27.28Z"/><path class="cls-42" d="M1083.94,687.48c12.6-16.49,33.94-58.53,33.34-83.47-.08-3.38,9.38-1.21,9.38-1.21"/><path class="cls-41" d="M1251.62,450.25a20.17,20.17,0,0,1,3.47.31c1.14.17,2.28.37,3.43.56,2.27.43,4.54.88,6.79,1.4,4.51,1,9,2.16,13.42,3.39q13.33,3.7,26.34,8.56a262.63,262.63,0,0,1,25.61,11c4.2,2.1,8.32,4.39,12.41,6.89a79.76,79.76,0,0,1,11.87,8.8c2,1.86,3.46,3.56,5.09,5.31s3.13,3.53,4.64,5.33c3,3.62,5.82,7.28,8.59,10.88,5.52,7.21,10.93,13.83,17.6,19.31l1.24,1,1.29,1c.86.65,1.71,1.33,2.59,2l2.72,1.84,1.36.93,1.41.86,2.83,1.75c1,.57,1.94,1.07,2.91,1.63l2.93,1.64,3,1.62c4,2.2,8.07,4.43,12,6.78,2,1.17,4,2.37,5.91,3.62,1,.63,1.93,1.27,2.88,1.94q.72.5,1.41,1c.23.19.46.37.68.57l.31.31a.51.51,0,0,1,.12.2c0,.14-.13.11-.18.1s.16,0,.12-.08a.42.42,0,0,0-.14-.12c-.12-.08-.25-.14-.37-.21l-.78-.34c-.53-.22-1.07-.42-1.6-.62-1.08-.4-2.16-.77-3.25-1.14l-6.51-2.21-13-4.42c-8.67-2.94-17.67-6.58-25.63-12.12-1-.71-2-1.37-3-2.11l-2.87-2.25c-1.84-1.58-3.68-3.18-5.37-4.88-3.47-3.35-6.58-7-9.56-10.46s-5.83-7-8.78-10.36c-1.46-1.69-2.93-3.35-4.43-5s-3.07-3.33-4.43-4.56a72.75,72.75,0,0,0-10.07-7.62c-3.64-2.4-7.49-4.62-11.37-6.82-7.79-4.37-15.86-8.43-24-12.42s-16.39-7.85-24.67-11.7l-12.45-5.74-6.27-2.82A58.5,58.5,0,0,0,1251.62,450.25Z"/><path class="cls-40" d="M1048.33,470c2.76,3.44,5.05,6.63,7.3,9.85s4.34,6.39,6.4,9.62l1.57,2.41.75,1.23c.26.41.53.8.78,1.22.5.82,1,1.63,1.49,2.49s1,1.66,1.52,2.51c.93,1.75,2,3.41,2.9,5.27a46.21,46.21,0,0,1,2.65,5.79,25.26,25.26,0,0,1-3-1.23,27.49,27.49,0,0,1-2.84-1.52,38.7,38.7,0,0,1-5.11-3.77c-.79-.69-1.57-1.4-2.33-2.14s-1.42-1.55-2.12-2.34c-.36-.39-.69-.8-1-1.2l-1-1.26c-.62-.86-1.24-1.71-1.81-2.59a43.71,43.71,0,0,1-5.24-11.53,29.32,29.32,0,0,1-.74-3.11c-.21-1-.34-2.11-.45-3.18A21.73,21.73,0,0,1,1048.33,470Z"/><path class="cls-40" d="M1396.75,456.81a41,41,0,0,1,9.35,4.24,99.58,99.58,0,0,1,8.57,5.63A138,138,0,0,1,1430.24,480a141.13,141.13,0,0,1,13.58,15.48q3.14,4.13,5.91,8.55c.47.73.93,1.47,1.37,2.22l1.29,2.14c.76,1.32,1.63,2.61,2.49,3.9a135.09,135.09,0,0,0,12.13,14.8c4.42,4.75,9.1,9.35,13.9,13.87s9.73,8.95,14.74,13.35,10,8.8,15.26,13.1a90.65,90.65,0,0,1-9.26-4.18c-3-1.51-6-3.15-8.93-4.85a196.59,196.59,0,0,1-17-11.14,166,166,0,0,1-15.79-13.08A108.18,108.18,0,0,1,1446,518.49c-1-1.48-2-3-3-4.51-.5-.81-.89-1.46-1.29-2.16s-.82-1.38-1.24-2.06c-.83-1.37-1.71-2.72-2.59-4.07s-1.77-2.7-2.69-4q-5.52-8-11.66-15.67c-4.1-5.11-8.32-10.16-12.73-15.09q-3.3-3.7-6.76-7.29c-1.15-1.2-2.32-2.39-3.54-3.52A40.06,40.06,0,0,0,1396.75,456.81Z"/><path class="cls-7" d="M2068.74,668.27c0-5.57,4.51-143.49,30.37-181.38L2141.45,473s67.34-125.31,93.22-131.53,6.52,36.44,0,45.56-48.78,76-48.78,76,24.1-17.29,39.05-6.11,9.52,32.66,9.52,32.66,22.3,6,24.77,34.38c0,0,20.61-12.76,6.33,42.4-8.19,31.61-5,45.37-5,45.37l-111.09,78.71Z"/><g class="cls-89"><path class="cls-90" d="M2168.05,508.54c-40.26-13.13-55.71,1.78-54.18,16.31s-26.18,92.1,13.92,105.68c20.68,7,31.81,10.34,31.81,10.34l80.66-35.55s9.25-27.46-5.59-20.67-50.47,22.82-56.08,14.58-37.14-64.73-37.14-64.73l1.09-13.9,25.51-12.06"/><path class="cls-90" d="M2154.15,515.11s24.17,32.26,40.24,30.4S2251,533.38,2232,533.92c-20.21.58-63.9-25.38-63.9-25.38Z"/></g><path class="cls-91" d="M2065,645.68c-.32-2.39-7.45-59.65,26.18-163.6l.65-2,2-.78c27.46-10.92,65.26-14.26,87.85-16.26l2-.17.51.07c16.6,2.37,31.49,28.22,44.15,52.27,2.09,4,3.9,7.41,4.92,8.93a7,7,0,0,1-1.33,9.79c-7.92,6.33-35.07,2-51.08-14.78-7.07-7.42-27.63-2.28-38.33,1.46,4.09,12.14,15,47.35,11.36,68.56l-8.88-1.51c3.93-23-12.23-67.72-12.4-68.17l-1.48-4.05,4-1.65c3.9-1.61,38.49-15.32,52.26-.84,13,13.62,31.4,15.78,37.37,14.53-1.15-2-2.57-4.67-4.36-8.08-7.71-14.64-23.65-44.92-37-47.47l-.93.08c-21.55,1.9-57.26,5.06-83.36,14.89-32.16,100.47-25.23,157-25.15,157.59Z"/><path class="cls-91" d="M2163.11,688.49l-7-5.62c5.71-7.13,87.22-69.3,99.24-78.45.82-2.12,3.37-9.92,10.23-38,5.27-21.64,2.61-32.3-.55-37.42-2.43-4-5.33-4.86-5.78-5l-3.07-.39-.48-3c-2.5-10.93-9.4-26.78-16.29-26.09L2234,495l.46-5.4c0-.17,1.36-18.34-8.78-25.68-6.65-4.81-17.24-4.21-31.47,1.79l-3.49-8.3c17.35-7.31,30.9-7.57,40.27-.76,10.57,7.68,12.35,22,12.53,29.27,12.08,3.34,18.38,22.9,20.33,30.21a20.37,20.37,0,0,1,8.49,7.57c6.22,9.55,6.88,24.62,2,44.81-3.94,16.14-7,27.74-9,34.48-1.46,4.78-2.39,7.81-4.75,8.76C2224.56,639.16,2167,683.65,2163.11,688.49Z"/><path class="cls-91" d="M2127.79,475.3l4.52-7.33c.2-.33,20.76-33.61,44.17-66.63,43.41-61.25,58.71-68.91,66.44-69.34l1.75-.09L2246,333c.69.57,6.78,5.94,7.14,18.84.45,15.87-7.81,36-24.55,59.89-24.62,35.12-31.73,48.4-33.79,53.11l7.25-2Zm113.67-133.82c-5.56,2.15-20.86,13.17-57.62,65-16.69,23.55-31.94,47.24-39.27,58.84l41.32-2.28c2.34-6.36,10.31-20.77,35.36-56.49C2250.83,364.41,2244.53,346.43,2241.46,341.48Z"/><path class="cls-91" d="M2192.48,607.32c-15.87-4-20.89-18.3-22.3-24.12-15-7.92-17.94-21-18.51-26.24-12.55-11.53-11.07-25.92-8.41-32.11l8.27,3.56-4.13-1.78,4.15,1.74c-.22.52-5,12.69,7.36,23l1.65,1.37,0,2.15c0,.54.22,14.16,15.5,21.21l2.25,1,.33,2.44c.09.62,2.39,15.64,16,19.05Z"/><path class="cls-91" d="M2207.38,509.23a8.64,8.64,0,0,0-.69,5.79,11.09,11.09,0,0,0,1,2.66,18,18,0,0,0,1.44,2.42,14.75,14.75,0,0,0,1.82,2,28.4,28.4,0,0,0,2.25,1.84c1.58,1.22,3.52,2.5,4.64,4.44-2-.85-3.92-1.36-5.92-2.29a13.79,13.79,0,0,1-2.88-1.77,11.19,11.19,0,0,1-3.77-5.76,12.85,12.85,0,0,1-.54-3.4A7.47,7.47,0,0,1,2207.38,509.23Z"/><path class="cls-91" d="M2244.21,570.22c-3.27,3.77-6.74,7.36-10.33,10.87s-7.31,6.89-11.24,10.08a108.73,108.73,0,0,1-12.49,8.92,58.15,58.15,0,0,1-14.67,6.53,4.51,4.51,0,0,1-2.34-8.72,5.13,5.13,0,0,1,.66-.13h0a50.3,50.3,0,0,0,13.25-3.7,100.74,100.74,0,0,0,13-6.59c4.24-2.48,8.35-5.23,12.38-8.11S2240.42,573.45,2244.21,570.22Z"/><path class="cls-91" d="M2173.17,576.75c3.56-2.5,7.08-4.84,10.67-7.16s7.2-4.57,10.88-6.73,7.39-4.26,11.19-6.19a117.13,117.13,0,0,1,11.66-5.26l.51,1.11a114.05,114.05,0,0,0-10.51,6.85c-3.4,2.44-6.68,5-9.92,7.69s-6.42,5.38-9.55,8.15-6.23,5.62-9.18,8.46Z"/><polygon class="cls-91" points="2152.92 547.46 2190.96 528.16 2191.39 528.85 2157.74 555.06 2152.92 547.46"/><polygon class="cls-91" points="2143.51 524.85 2171.25 511.87 2148.47 532.35 2143.51 524.85"/><path class="cls-91" d="M2153.88,583.88c0,.56,0,.94,0,1.39s0,.86,0,1.28c0,.84-.08,1.66-.13,2.49-.13,1.64-.3,3.27-.53,4.88a81.11,81.11,0,0,1-1.89,9.48,79.9,79.9,0,0,1-2.92,9.07,87.32,87.32,0,0,1-3.84,8.59,85.59,85.59,0,0,0,1.66-9.14,78.14,78.14,0,0,0,.64-9.14,75.07,75.07,0,0,0-.4-9c-.14-1.48-.35-3-.59-4.4-.13-.72-.25-1.44-.41-2.14-.07-.35-.15-.7-.23-1s-.18-.7-.25-.9Z"/><path class="cls-92" d="M835.93,1915l-6.44,79.6,894.64,30.64-91.83-696.08,192.39-80.71c136.34-4.91,338.91-548.93,338.91-548.93v-13.6c-64.11,5.76-105.81-48-105.81-48l-286.13,381.93L1541,1030.14c-32.18,1.16-131-4.54-131-4.54-2.66,46.91-41.26,98.82-139.28,101.88s-90.38-98.29-90.38-98.29-84.48,9.64-175.63,26.66c-100.07,18.69-155.38,50.22-216.65,91.43s-145.45,672.63-145.45,672.63-5.36,107.58,61.18,132.38C791.68,1985.05,847,1911.4,879.6,1881s208.22-355.2,208.22-355.2l-97.42-61.27L771.28,1718.8"/><g class="cls-93"><path class="cls-94" d="M1507.64,1089.63s260.56-25.29,285.27-29.13,305-432.3,305-432.3l43.49,24.57L1839.08,1136.6,1596.61,1228Z"/><path class="cls-95" d="M2187.5,628.58,2155.33,672s-113.67,269.69-135.5,305.63S1910.68,1168.48,1877.36,1195s-228.64,130-228.64,130l266.33-77,243.57-309.21,32.56-261.18Z"/><path class="cls-95" d="M1603.91,1270.94s13.41,2.68,34.56,111.83c19.43,100.25,85.66,642.42,85.66,642.42H1656.7s-32.3-483.51-36.46-522.29C1607.36,1382.77,1603.91,1270.94,1603.91,1270.94Z"/><path class="cls-96" d="M1033.81,1021.46s8.38,222.35,48.85,329.48,26.51,182.39,314.09,239.19c69.82,23.19.58,472.95.58,472.95l-878.54-81V1354.76l246.4-440.3Z"/><path class="cls-97" d="M1069.4,1454.82s-153.56,332.33-226.08,417.72-105,124.53-105,124.53S872.8,1904.85,933,1800.91,1105.3,1478,1105.3,1478l-35.9-23.18"/><path class="cls-98" d="M1601.26,997c14.14,5.13,108.72,45.89,137.26,135.81s0,191.8,0,191.8"/><path class="cls-98" d="M1663.55,982.73c14.14,5.12,108.72,45.89,137.26,135.8s0,191.81,0,191.81"/><path class="cls-99" d="M536.4,1548.85c7.5-13,64-99.13,157.54-111.66s188.9,33.23,188.9,33.23"/><path class="cls-99" d="M535.09,1623.52c7.5-13,64-99.13,157.54-111.66s185.75,26,185.75,26"/></g><path class="cls-100" d="M835.93,1915l-6.44,79.6,894.64,30.64-91.83-696.08,192.39-80.71c136.34-4.91,338.91-548.93,338.91-548.93v-13.6c-64.11,5.76-105.81-48-105.81-48l-286.13,381.93L1541,1030.14c-32.18,1.16-131-4.54-131-4.54-2.66,46.91-41.26,98.82-139.28,101.88s-90.38-98.29-90.38-98.29-84.48,9.64-175.63,26.66c-100.07,18.69-155.38,50.22-216.65,91.43s-145.45,672.63-145.45,672.63-5.36,107.58,61.18,132.38C791.68,1985.05,847,1911.4,879.6,1881s208.22-355.2,208.22-355.2l-97.42-61.27L771.28,1718.8"/><path class="cls-91" d="M1242.11,1294.48a3.74,3.74,0,0,0-1.41,2.27,7.46,7.46,0,0,0,0,2.58,12,12,0,0,0,.29,1.29,3.13,3.13,0,0,0,.46,1,3.78,3.78,0,0,0,1.59,1.22,39.07,39.07,0,0,0,5.17,1.51,16.61,16.61,0,0,1,2.87,1,5.33,5.33,0,0,1,2.38,2,9.05,9.05,0,0,0-2.81-.5l-2.84-.12a15.14,15.14,0,0,1-6.09-1.29,6.88,6.88,0,0,1-1.5-1.07,5,5,0,0,1-1.11-1.6,5.25,5.25,0,0,1-.43-1.79,12.18,12.18,0,0,1,0-1.6,7,7,0,0,1,.88-3.14A3.53,3.53,0,0,1,1242.11,1294.48Z"/><path class="cls-91" d="M1210.4,1186.49a3.7,3.7,0,0,0-.25,2.67,7.16,7.16,0,0,0,1.19,2.29,11.22,11.22,0,0,0,.83,1,2.93,2.93,0,0,0,.85.66,3.73,3.73,0,0,0,2,.39,40.77,40.77,0,0,0,5.31-1,15.62,15.62,0,0,1,3-.34,5.4,5.4,0,0,1,3,.74,9.38,9.38,0,0,0-2.74.81l-2.59,1.16a15.14,15.14,0,0,1-6,1.56,6.88,6.88,0,0,1-1.82-.28,5.21,5.21,0,0,1-1.71-.94,5.08,5.08,0,0,1-1.17-1.41,11.27,11.27,0,0,1-.74-1.42,6.86,6.86,0,0,1-.61-3.2A3.56,3.56,0,0,1,1210.4,1186.49Z"/><path class="cls-91" d="M1233.21,1329.69a3.74,3.74,0,0,0-1.41,2.27,7.52,7.52,0,0,0,0,2.59,12,12,0,0,0,.29,1.29,3.18,3.18,0,0,0,.46,1,3.8,3.8,0,0,0,1.59,1.23,40.64,40.64,0,0,0,5.17,1.51,16.55,16.55,0,0,1,2.87,1,5.4,5.4,0,0,1,2.38,2,9.41,9.41,0,0,0-2.81-.5L1239,1342a15.14,15.14,0,0,1-6.09-1.29,6.56,6.56,0,0,1-1.5-1.07,4.91,4.91,0,0,1-1.11-1.59,5.36,5.36,0,0,1-.43-1.8,12.18,12.18,0,0,1,0-1.6,7,7,0,0,1,.88-3.13A3.57,3.57,0,0,1,1233.21,1329.69Z"/><line class="cls-101" x1="1109.17" y1="1324.57" x2="1136.67" y2="1311.39"/><polygon class="cls-91" points="1109.17 1324.57 1134.72 1307.33 1138.62 1315.45 1109.17 1324.57"/><path class="cls-9" d="M1189.65,1098c-.83-2.48-49.71,19.19-49.71,19.19l-44.47,105.52,47.09-18.32,17.44-61.91S1198.37,1124.2,1189.65,1098Z"/><path class="cls-102" d="M1096.62,1449.48s55.81-25.29,77.61-65.4c0,0,43.6.87,61.92-7s12.2-26.16,12.2-26.16L1169,1316.06l-86.34,34.88,14,61Z"/><rect class="cls-103" x="1145.07" y="1055.69" width="153.96" height="309.45" rx="12"/><line class="cls-104" x1="1145.07" y1="1324.98" x2="1295.56" y2="1324.98"/><path class="cls-101" d="M1004.18,1467.79c-3.53-3.1,21.8-70.63,20.93-93.31s71.51-164.81,71.51-164.81l63.66-30.53h68.89s20.16,25.16-59,26.69c-9.51,2-46.73,27.58-46.73,27.58l-17.19,40.79,40.11-16.57,52.33,1.74,62.78,36.63s-12.1,26.64-47.09.87L1159.4,1289,1132.48,1306a1,1,0,0,0,.63,1.84l40.25-3.94,40.11,9.59,40.12,17.44s-13.08,19.19-46.22,4.36l-41.37-3.69-42,25.94s4.84,47.52-14.34,95.48-37.5,60.17-37.5,60.17S1033.15,1493.25,1004.18,1467.79Z"/><g class="cls-105"><path class="cls-90" d="M1031.64,1513.14c1.38-2.08,52.36-66.42,65.36-88.82s14.32-59.9,27.45-60.11S1166,1467.28,1166,1467.28l-45.25,69.06Z"/><polygon class="cls-106" points="1096.06 1280.11 1144.13 1260.58 1144.69 1260.35 1145.29 1260.4 1197.54 1265 1198.1 1265.05 1198.48 1265.28 1235.53 1287.48 1196.16 1269.71 1197.1 1269.98 1144.85 1265.38 1146.01 1265.21 1097.94 1284.74 1096.06 1280.11"/></g><path class="cls-107" d="M1004.18,1467.79c-3.53-3.1,21.8-70.63,20.93-93.31s71.51-164.81,71.51-164.81l63.66-30.53h68.89s20.16,25.16-59,26.69c-9.51,2-46.73,27.58-46.73,27.58l-17.19,40.79,40.11-16.57,52.33,1.74,62.78,36.63s-12.1,26.64-47.09.87L1159.4,1289,1132.48,1306a1,1,0,0,0,.63,1.84l40.25-3.94,40.11,9.59,40.12,17.44s-13.08,19.19-46.22,4.36l-41.37-3.69-42,25.94s4.84,47.52-14.34,95.48-37.5,60.17-37.5,60.17S1033.15,1493.25,1004.18,1467.79Z"/><path class="cls-106" d="M1112.3,1320q6.56-2.26,13.18-4.29c4.4-1.39,8.84-2.65,13.26-4l13.32-3.73q6.66-1.82,13.36-3.54l.51-.13.58.11q6.24,1.27,12.46,2.61c4.14.9,8.29,1.8,12.43,2.75s8.27,1.9,12.4,2.88,8.24,2,12.36,3.06l.28.07.15.08q3.48,1.86,6.93,3.79c2.29,1.29,4.61,2.53,6.89,3.86s4.58,2.59,6.84,4,4.54,2.68,6.78,4.07q-3.69-1.41-7.35-2.93c-2.44-1-4.86-2-7.28-3s-4.83-2.1-7.25-3.15-4.81-2.12-7.2-3.22l.43.15c-4.18-.75-8.36-1.5-12.53-2.31s-8.33-1.63-12.48-2.49-8.31-1.74-12.46-2.63-8.29-1.82-12.42-2.77h1.08q-6.73,1.56-13.48,3l-13.53,2.86c-4.53.88-9,1.81-13.6,2.62S1116.87,1319.29,1112.3,1320Z"/><path class="cls-106" d="M1078.59,1260.47q2.42-6,5-12c1.71-4,3.42-7.94,5.2-11.89s3.53-7.89,5.34-11.81l2.71-5.89,2.76-5.86.31-.64.69-.36,8-4.16,8-4.07c5.35-2.71,10.7-5.42,16.1-8s10.76-5.29,16.19-7.85L1157,1184l8.17-3.77.53-.25.49.07q4.77.64,9.52,1.38c3.17.48,6.34.93,9.51,1.45s6.34,1,9.5,1.55,6.32,1.11,9.48,1.69c-3.21-.12-6.42-.25-9.62-.43s-6.41-.38-9.61-.58-6.4-.45-9.6-.67-6.39-.47-9.59-.75l1-.18-7.93,4.25-8,4.16c-5.31,2.79-10.66,5.5-16,8.2s-10.72,5.37-16.11,8l-8.08,4-8.13,3.87,1-1-3,5.76-3,5.73c-2,3.82-4,7.63-6.14,11.42s-4.17,7.57-6.29,11.34S1080.81,1256.75,1078.59,1260.47Z"/><circle class="cls-108" cx="1222.05" cy="1139.29" r="26.01"/><line class="cls-109" x1="1145.07" y1="1097.84" x2="1296.5" y2="1097.84"/><circle class="cls-108" cx="1167.57" cy="1077.69" r="8.52"/><circle class="cls-108" cx="1190.94" cy="1077.69" r="4.88"/><path class="cls-106" d="M2237.79,343.45a8.19,8.19,0,0,1,3.21,2.7,14,14,0,0,1,1.92,3.84,24.27,24.27,0,0,1,.94,8.51A56.72,56.72,0,0,1,2240,375a113.81,113.81,0,0,1-7.11,15.2l-4,7.25c-1.38,2.39-2.73,4.8-4.14,7.17q-8.4,14.28-17.66,28c-6.17,9.15-12.58,18.15-19.55,26.75,5.25-9.74,10.74-19.29,16.27-28.81s11.08-19,16.63-28.49l8.33-14.22a159.54,159.54,0,0,0,7.62-14.37,76.51,76.51,0,0,0,3-7.49,44.79,44.79,0,0,0,2-7.74,27.72,27.72,0,0,0,.43-4,21.8,21.8,0,0,0-.26-3.95,12.5,12.5,0,0,0-1.21-3.77A8.26,8.26,0,0,0,2237.79,343.45Z"/><path class="cls-106" d="M2194.83,464.86a50.59,50.59,0,0,1,7.62-2,48.36,48.36,0,0,1,7.9-.88,35.39,35.39,0,0,1,8.06.61,25,25,0,0,1,7.8,2.85,20,20,0,0,1,6.27,5.79A22.85,22.85,0,0,1,2236,479a44.08,44.08,0,0,1,.42,16.41l-1.62-2.64a40.68,40.68,0,0,1,4.83,2,48.39,48.39,0,0,1,4.52,2.49,37,37,0,0,1,8.06,6.65,26.33,26.33,0,0,1,5.44,9.26,23.4,23.4,0,0,1,.86,10.75l-1.42-2.45a10.9,10.9,0,0,1,1.1.57c.33.18.64.38,1,.57.61.4,1.21.82,1.77,1.27a26.33,26.33,0,0,1,3.12,2.94,26.89,26.89,0,0,1,4.6,7.09,35.45,35.45,0,0,1,2.78,16.13,55.9,55.9,0,0,1-1,8,71.31,71.31,0,0,1-2.05,7.69,91.56,91.56,0,0,1-6.2,14.49,129.36,129.36,0,0,0,4.4-15,63.56,63.56,0,0,0,1.66-15.22,43.69,43.69,0,0,0-.86-7.44,28.78,28.78,0,0,0-2.43-6.91,25.59,25.59,0,0,0-4.13-5.86,21.76,21.76,0,0,0-2.66-2.33c-.47-.36-1-.68-1.44-1-.25-.14-.5-.29-.74-.41a6.23,6.23,0,0,0-.66-.32l-1.58-.65.17-1.8a20.28,20.28,0,0,0-.87-8.61,21.37,21.37,0,0,0-4.52-7.47,36.29,36.29,0,0,0-7-5.82c-1.3-.83-2.65-1.59-4-2.29a39.27,39.27,0,0,0-4.19-1.81l-1.94-.69.32-2a41,41,0,0,0,.16-14.73,20.45,20.45,0,0,0-2.52-6.6,16.74,16.74,0,0,0-4.86-5.06c-4-2.75-9-3.9-14.1-4.31A63.1,63.1,0,0,0,2194.83,464.86Z"/><path class="cls-106" d="M2123.13,480a201.21,201.21,0,0,1,31.83-8.76,119.56,119.56,0,0,1,16.55-2.06,64,64,0,0,1,8.52.14,28,28,0,0,1,8.74,2.07l1.09.51,1.07.69a12.12,12.12,0,0,1,2,1.69c.52.57.93,1.11,1.4,1.66s.92,1.09,1.33,1.65c1.7,2.24,3.31,4.49,4.86,6.78,3.1,4.58,6,9.25,8.79,14,5.6,9.46,10.81,19.12,15.45,29.1-6.43-8.92-12.56-18-18.74-27-3.13-4.47-6.19-9-9.38-13.37-1.6-2.18-3.19-4.36-4.86-6.45-.82-1-1.7-2-2.52-3a6.68,6.68,0,0,0-1.14-.93l-.66-.43-.77-.35a23.35,23.35,0,0,0-7.16-1.7,64.09,64.09,0,0,0-7.88-.32c-5.33.08-10.72.57-16.11,1.17C2144.75,476.36,2134,478.25,2123.13,480Z"/><path class="cls-92" d="M1564.05,1154.53s57.78,109,74.42,228.24"/><path class="cls-110" d="M1564.05,1154.53c2.8,4.21,5.42,8.53,7.94,12.9s5,8.78,7.37,13.23,4.63,9,6.9,13.47,4.36,9.11,6.49,13.69a569.76,569.76,0,0,1,22.13,56.39l2.35,7.2c.79,2.4,1.57,4.8,2.26,7.23l4.2,14.57c.72,2.43,1.29,4.89,1.91,7.34l1.81,7.37,1.78,7.36c.57,2.47,1,5,1.53,7.43q1.5,7.44,2.88,14.89c.8,5,1.49,10,2.2,15l1,7.51c.22,2.52.46,5,.64,7.55l.58,7.56c.15,2.52.34,5,.45,7.55-.69-2.44-1.3-4.89-1.94-7.32l-1.82-7.33c-.62-2.43-1.17-4.88-1.76-7.31l-2-7.27-3.78-14.52q-2.1-7.21-4.1-14.43c-.68-2.41-1.3-4.83-2-7.22l-2.17-7.17c-1.48-4.77-2.77-9.59-4.31-14.34-3-9.51-5.95-19-9.19-28.5q-9.47-28.41-19.88-56.55c-1.76-4.69-3.53-9.37-5.25-14.07l-5.35-14.06Z"/><path class="cls-92" d="M897.82,1334.09s-12.44,205.24-33.47,276.7"/><path class="cls-110" d="M897.82,1334.09q-1.58,34.85-3.87,69.68t-5.26,69.62q-3,34.78-7.27,69.52l-2.32,17.35-2.7,17.34c-1,5.77-2.15,11.53-3.22,17.31l-.41,2.16-.52,2.16-1,4.32-2.07,8.65-9.6-2.82,2.29-8.24L863,1597l.58-2.07.48-2.1c1.24-5.62,2.59-11.21,3.76-16.86l3.28-17,2.92-17.13q5.52-34.33,9.72-69t7.74-69.3Q894.94,1368.87,897.82,1334.09Z"/><rect class="cls-111" x="758.87" y="1982.07" width="1274.74" height="86.06" rx="43.03"/><g class="cls-112"><path class="cls-113" d="M708.31,1999.55c6.33,4.41,30,2.76,30,2.76H2064.19L1967,1900.55,738.3,1928.13Z"/><path class="cls-114" d="M708.31,2043c8.63-4.59,1360.43,0,1360.43,0l-14.44,57.16L668.68,2130.34Z"/><polygon class="cls-115" points="1569.68 1413.93 2378.84 1413.93 2324.63 1896.48 1509.08 1891.88 1569.68 1413.93"/></g><rect class="cls-116" x="758.87" y="1982.07" width="1274.74" height="86.06" rx="43.03"/><path class="cls-117" d="M1363.24,1424.46h735.6a40.24,40.24,0,0,1,40,44.86l-46.53,402.08a40.24,40.24,0,0,1-40,35.61h-738a40.23,40.23,0,0,1-39.94-45.1l48.93-402.07A40.24,40.24,0,0,1,1363.24,1424.46Z"/><line class="cls-118" x1="1363.24" y1="1424.46" x2="1303.94" y2="1905.66"/><path class="cls-119" d="M1643.91,1717.63h147a14,14,0,0,1,13.91,12.25l33.21,261.5a14,14,0,0,1-13.91,15.78H1702.69a14,14,0,0,1-13.68-10.94l-58.78-261.5A14,14,0,0,1,1643.91,1717.63Z"/><rect class="cls-120" x="1477.97" y="2015.19" width="594.77" height="42.95" rx="12"/><rect class="cls-121" x="668.82" y="731.8" width="138.95" height="138.95" rx="12"/><rect class="cls-122" x="668.82" y="922.8" width="138.95" height="138.95" rx="12"/><polyline class="cls-123" points="701.96 805.88 718.05 828.85 774.63 773.7"/><line class="cls-124" x1="701.96" y1="955.5" x2="774.63" y2="1029.04"/><line class="cls-124" x1="701.96" y1="1029.04" x2="774.63" y2="955.5"/><circle class="cls-125" cx="2553.64" cy="1595.86" r="209.11"/><circle class="cls-126" cx="2550.64" cy="1595.79" r="147.27"/><line class="cls-127" x1="2556.04" y1="1609.07" x2="2556.04" y2="1494.17"/><path class="cls-128" d="M2496.3,1545.88c3.44,4.59,59.74,63.19,59.74,63.19"/><line class="cls-129" x1="2556.04" y1="1451.15" x2="2556.04" y2="1466.09"/><line class="cls-129" x1="2556.04" y1="1731.49" x2="2556.04" y2="1746.43"/><line class="cls-129" x1="2703.68" y1="1598.35" x2="2688.74" y2="1598.4"/><line class="cls-129" x1="2423.34" y1="1599.18" x2="2408.41" y2="1599.23"/><line class="cls-129" x1="2627.42" y1="1728.46" x2="2620.2" y2="1715.39"/><line class="cls-129" x1="2491.88" y1="1483.07" x2="2484.66" y2="1469.99"/><line class="cls-129" x1="2482.47" y1="1727.23" x2="2489.91" y2="1714.28"/><line class="cls-129" x1="2622.17" y1="1484.18" x2="2629.62" y2="1471.23"/><line class="cls-129" x1="2426.94" y1="1670.84" x2="2440" y2="1663.6"/><line class="cls-129" x1="2672.09" y1="1534.86" x2="2685.15" y2="1527.61"/><line class="cls-129" x1="2428.59" y1="1524.72" x2="2441.48" y2="1532.25"/><line class="cls-129" x1="2670.6" y1="1666.2" x2="2683.5" y2="1673.74"/><rect class="cls-12" x="2112.82" y="913.26" width="350.28" height="439.01" rx="12"/><path class="cls-67" d="M2216.05,1072.87c7.45,5.29,15,5.17,23.71-.84,6.65-4.58,12.54-7.52,11.84-17.18-.6-8.3,6.7-6.92,11.86-6.88s10.71-1.54,12.51,6.6c3.67,16.67,16.62,24.15,32.68,19.19,8-2.49,10.49,2.84,13.43,7.9s3.9,9.44-2.14,13.94c-13.16,9.8-12.8,28.4,1,37.32,6.89,4.46,5.41,8.4,1.78,13.09s-4.68,13.67-14.89,8.15c-11.54-6.23-31.08,4.66-31.83,17.78-.47,8.22-4.24,9.81-11.15,9.51-6.47-.28-14,.43-13.28-9,.81-10.2-7-12-12.77-16.76-7.11-5.91-12.77-6.88-20.05-1-5.17,4.21-8.54.36-10.26-4.22-2-5.23-10.13-9.4-3.1-16.51,14.7-14.87,14.81-23.51,0-40.26-3.61-4.1-2-7.22-.22-11C2208.77,1075.29,2211,1072.94,2216.05,1072.87Zm48,67.76c15.05-.2,27.39-11.74,27.65-25.83.26-14.53-12.8-28.37-26.9-28.5-16.46-.17-27.83,11.55-27.43,28.26C2237.71,1130,2248.82,1140.85,2264,1140.63Z"/><path class="cls-67" d="M2227.5,1221.73c5.93,4.21,11.91,4.11,18.86-.67,5.29-3.64,10-6,9.42-13.67-.48-6.6,5.33-5.5,9.44-5.47s8.52-1.22,10,5.25c2.92,13.26,13.22,19.21,26,15.26,6.38-2,8.34,2.27,10.69,6.29s3.1,7.51-1.71,11.09c-10.47,7.8-10.18,22.59.77,29.69,5.48,3.55,4.31,6.68,1.41,10.41s-3.72,10.88-11.84,6.49c-9.18-5-24.72,3.71-25.32,14.14-.37,6.55-3.37,7.81-8.87,7.57-5.14-.23-11.16.34-10.57-7.13.65-8.11-5.58-9.52-10.16-13.33-5.65-4.71-10.16-5.48-16-.77-4.11,3.34-6.79.28-8.16-3.36-1.56-4.16-8.05-7.48-2.46-13.13,11.69-11.83,11.78-18.71,0-32-2.87-3.26-1.6-5.75-.17-8.75C2221.71,1223.66,2223.48,1221.78,2227.5,1221.73Zm38.16,53.91c12-.17,21.8-9.35,22-20.55.21-11.56-10.18-22.57-21.4-22.68-13.09-.13-22.14,9.19-21.82,22.48C2244.73,1267.17,2253.57,1275.81,2265.66,1275.64Z"/><path class="cls-15" d="M2162.87,1038.51c10.83,14.28,12.91,39.48,13.17,52.33,1.45,69.86.22,132.06,1.79,201.93.3,13.31-2.51,21.14-14.23,21.12-13.47,0-14.17-15.22-14.15-25.78.12-65.83-.08-131.67.74-197.49C2150.4,1073.7,2153.16,1056.63,2162.87,1038.51Z"/><line class="cls-130" x1="2156.48" y1="945.47" x2="2419.66" y2="945.47"/><line class="cls-130" x1="2253.88" y1="977.64" x2="2419.66" y2="977.64"/><line class="cls-130" x1="2156.48" y1="977.64" x2="2212.06" y2="977.64"/><line class="cls-130" x1="2364.08" y1="1047.86" x2="2419.66" y2="1047.86"/><line class="cls-130" x1="2364.08" y1="1086.29" x2="2419.66" y2="1086.29"/><line class="cls-130" x1="2364.08" y1="1124.73" x2="2419.66" y2="1124.73"/><line class="cls-130" x1="2364.08" y1="1163.16" x2="2419.66" y2="1163.16"/><line class="cls-130" x1="2364.08" y1="1236.53" x2="2419.66" y2="1236.53"/><line class="cls-130" x1="2364.08" y1="1271.66" x2="2419.66" y2="1271.66"/><line class="cls-130" x1="2336.77" y1="1205.68" x2="2419.66" y2="1205.68"/><line class="cls-130" x1="2336.77" y1="1306.79" x2="2419.66" y2="1306.79"/><line class="cls-130" x1="2156.48" y1="1009.81" x2="2419.66" y2="1009.81"/><line class="cls-131" x1="2408.41" y1="693.34" x2="2408.41" y2="736.23"/><line class="cls-131" x1="2408.41" y1="786.59" x2="2408.41" y2="829.49"/><line class="cls-131" x1="2340.85" y1="762.44" x2="2383.73" y2="763.6"/><line class="cls-131" x1="2433.08" y1="764.73" x2="2475.96" y2="765.89"/><line class="cls-131" x1="2359.17" y1="806.98" x2="2391.04" y2="778.28"/><line class="cls-131" x1="2426.77" y1="746.6" x2="2458.64" y2="717.89"/><line class="cls-131" x1="2454.53" y1="812.15" x2="2425.43" y2="780.63"/><line class="cls-131" x1="2392.38" y1="745.24" x2="2363.28" y2="713.72"/><line class="cls-131" x1="367.83" y1="227.58" x2="367.83" y2="270.47"/><line class="cls-131" x1="367.83" y1="320.83" x2="367.83" y2="363.72"/><line class="cls-131" x1="300.28" y1="296.68" x2="343.16" y2="297.84"/><line class="cls-131" x1="392.5" y1="298.97" x2="435.38" y2="300.13"/><line class="cls-131" x1="318.59" y1="341.22" x2="350.46" y2="312.52"/><line class="cls-131" x1="386.19" y1="280.83" x2="418.07" y2="252.13"/><line class="cls-131" x1="413.95" y1="346.39" x2="384.86" y2="314.87"/><line class="cls-131" x1="351.8" y1="279.48" x2="322.71" y2="247.96"/><line class="cls-131" x1="530.3" y1="1572.62" x2="530.3" y2="1615.52"/><line class="cls-131" x1="530.3" y1="1665.88" x2="530.3" y2="1708.77"/><line class="cls-131" x1="462.75" y1="1641.72" x2="505.63" y2="1642.89"/><line class="cls-131" x1="554.98" y1="1644.01" x2="597.86" y2="1645.18"/><line class="cls-131" x1="481.07" y1="1686.27" x2="512.94" y2="1657.56"/><line class="cls-131" x1="548.67" y1="1625.88" x2="580.54" y2="1597.17"/><line class="cls-131" x1="576.43" y1="1691.44" x2="547.33" y2="1659.92"/><line class="cls-131" x1="514.28" y1="1624.52" x2="485.18" y2="1593.01"/><rect class="cls-132" x="1704.4" y="379.38" width="44.23" height="44.23" rx="12"/><rect class="cls-132" x="1782.53" y="379.38" width="44.23" height="44.23" rx="12"/><rect class="cls-132" x="1782.53" y="379.38" width="44.23" height="44.23" rx="12"/><rect class="cls-132" x="1859.51" y="379.38" width="44.23" height="44.23" rx="12"/><rect class="cls-132" x="1859.51" y="463.25" width="44.23" height="44.23" rx="12"/><rect class="cls-132" x="1939.63" y="463.25" width="44.23" height="44.23" rx="12"/><rect class="cls-132" x="1782.53" y="463.25" width="44.23" height="44.23" rx="12"/><rect class="cls-132" x="1704.4" y="463.25" width="44.23" height="44.23" rx="12"/><rect class="cls-132" x="1782.53" y="552.87" width="44.23" height="44.23" rx="12"/><rect class="cls-132" x="1704.4" y="552.87" width="44.23" height="44.23" rx="12"/><rect class="cls-132" x="1629.72" y="463.25" width="44.23" height="44.23" rx="12"/><rect class="cls-132" x="252.63" y="508.46" width="44.23" height="44.23" rx="12"/><rect class="cls-132" x="330.76" y="508.46" width="44.23" height="44.23" rx="12"/><rect class="cls-132" x="330.76" y="508.46" width="44.23" height="44.23" rx="12"/><rect class="cls-132" x="407.74" y="508.46" width="44.23" height="44.23" rx="12"/><rect class="cls-132" x="407.74" y="592.33" width="44.23" height="44.23" rx="12"/><rect class="cls-132" x="487.86" y="592.33" width="44.23" height="44.23" rx="12"/><rect class="cls-132" x="487.86" y="595.2" width="44.23" height="44.23" rx="12"/><rect class="cls-132" x="561.39" y="595.2" width="44.23" height="44.23" rx="12"/><rect class="cls-132" x="330.76" y="592.33" width="44.23" height="44.23" rx="12"/><rect class="cls-132" x="252.63" y="592.33" width="44.23" height="44.23" rx="12"/><rect class="cls-132" x="330.76" y="681.94" width="44.23" height="44.23" rx="12"/><rect class="cls-132" x="252.63" y="681.94" width="44.23" height="44.23" rx="12"/><rect class="cls-132" x="177.95" y="592.33" width="44.23" height="44.23" rx="12"/><line class="cls-133" x1="916.61" y1="866.2" x2="916.61" y2="914.45"/><line class="cls-133" x1="891.33" y1="890.33" x2="941.88" y2="890.33"/><line class="cls-133" x1="132.91" y1="1198.62" x2="132.91" y2="1246.87"/><line class="cls-133" x1="107.63" y1="1222.75" x2="158.19" y2="1222.75"/><line class="cls-133" x1="1069.4" y1="90.87" x2="1069.4" y2="139.12"/><line class="cls-133" x1="1044.13" y1="115" x2="1094.68" y2="115"/><line class="cls-133" x1="2212.06" y1="1650.99" x2="2212.06" y2="1699.25"/><line class="cls-133" x1="2186.78" y1="1675.12" x2="2237.33" y2="1675.12"/><line class="cls-133" x1="2588" y1="1251.51" x2="2588" y2="1299.77"/><line class="cls-133" x1="2562.72" y1="1275.64" x2="2613.27" y2="1275.64"/><path class="cls-67" d="M2238.43,1903.07a257.58,257.58,0,0,1,45.4-3.56,227.82,227.82,0,0,1,45.68,4.47,109.09,109.09,0,0,1,22.42,7.18,53.14,53.14,0,0,1,10.53,6.33,33.61,33.61,0,0,1,4.69,4.42c.37.39.7.85,1,1.28l.5.66.42.6,1.62,2.4a103.09,103.09,0,0,1,10.9,20.51,61.81,61.81,0,0,1,3.14,11.23c.13,1,.28,1.93.39,2.89s.2,1.93.18,2.9a20.44,20.44,0,0,1-.57,5.74,22.77,22.77,0,0,0-.93-5.53c-.2-.9-.52-1.78-.78-2.66s-.64-1.74-1-2.6a81,81,0,0,0-4.91-9.87,137.82,137.82,0,0,0-12.77-17.92l-1.75-2.12-.43-.53-.41-.42a10.79,10.79,0,0,0-.82-.84,26.47,26.47,0,0,0-3.78-3,50.73,50.73,0,0,0-9.12-4.75,92.79,92.79,0,0,0-10.13-3.45c-3.46-1-7-1.88-10.58-2.64-14.33-3-29.13-4.86-44-6.42S2253.55,1904.56,2238.43,1903.07Z"/><rect class="cls-134" x="12.74" y="2066.81" width="2866.49" height="124.33" rx="62.16"/></svg>