<svg width="40" height="39" fill="none" xmlns="http://www.w3.org/2000/svg"><path d="M38.22 34.161h0l-.002.008c-.152.36-.466.772-.992 1.229-.523.454-1.23.933-2.135 1.434-1.657.899-3.276 1.338-4.862 1.338-.472 0-.93-.031-1.372-.092-.438-.06-.941-.169-1.51-.329a21.93 21.93 0 01-1.271-.387c-.28-.1-.783-.285-1.515-.56l-.175.468.175-.468a58.97 58.97 0 00-1.356-.498c-1.762-.63-3.327-1.373-4.7-2.229h-.002c-2.3-1.42-4.689-3.365-7.165-5.84-2.476-2.477-4.42-4.866-5.84-7.166l-.001-.002c-.856-1.373-1.6-2.938-2.229-4.7-.06-.18-.228-.636-.498-1.356a124.23 124.23 0 01-.56-1.514 21.9 21.9 0 01-.387-1.272 11.356 11.356 0 01-.329-1.51c-.06-.442-.091-.9-.091-1.372 0-1.586.438-3.205 1.337-4.862.501-.904.98-1.612 1.434-2.135.457-.526.869-.84 1.23-.991h0l.007-.004c.416-.183 1.008-.367 1.79-.546.78-.18 1.382-.262 1.822-.262.236 0 .346.028.38.042l.018.008.012.004c.003.002.033.02.09.076.073.072.165.182.276.342.223.319.491.788.807 1.419l.007.014.007.013c.198.341.47.83.817 1.47l.439-.24-.44.24c.349.641.67 1.224.964 1.748.295.524.58 1.018.858 1.48l.013.022.016.02c.047.064.2.282.468.67.258.374.439.675.551.908.1.207.143.394.143.564 0 .066-.025.185-.13.37a3.56 3.56 0 01-.515.657 12.876 12.876 0 01-1.637 1.453c-.63.47-1.214.97-1.752 1.498a4.403 4.403 0 00-.661.793c-.157.252-.27.532-.27.825 0 .25.066.518.167.791.094.253.179.46.255.613.075.15.215.387.406.697.096.155.17.275.22.36l.07.115.004.007.005.01.005.01c1.41 2.54 3.028 4.728 4.857 6.557 1.83 1.83 4.017 3.448 6.558 4.857l.01.006.009.004c-.002 0 0 0 .007.005l.115.069c.085.05.205.124.36.22.31.191.547.33.697.406.153.076.36.161.613.255.273.1.542.168.79.168.294 0 .574-.114.826-.27a4.4 4.4 0 00.793-.661 17.022 17.022 0 001.498-1.753c.44-.59.925-1.136 1.453-1.637.256-.244.475-.41.657-.515.185-.105.304-.13.37-.13.17 0 .357.043.565.143.232.112.533.293.907.55.388.269.606.422.67.47l.02.015.022.013c.462.277.956.563 1.48.858.524.294 1.107.615 1.749.963.639.347 1.128.62 1.47.817l.012.007.014.007c.631.316 1.1.585 1.42.807.159.111.27.203.341.276.057.057.074.087.076.09l.004.012.008.02c.014.033.042.143.042.378 0 .44-.082 1.043-.262 1.822-.18.782-.363 1.374-.546 1.79z" fill="#0C647B" stroke="#0C647B"/></svg>