<svg width="211" height="80" viewBox="0 0 211 80" fill="none" xmlns="http://www.w3.org/2000/svg">
<path d="M39.54 60.9302L40.13 60.8002C40.1924 60.7843 40.2483 60.7494 40.29 60.7002C40.3304 60.653 40.3518 60.5924 40.35 60.5302V55.3402C40.3515 55.2751 40.3303 55.2114 40.29 55.1602C40.2483 55.1111 40.1924 55.0761 40.13 55.0602L39.54 54.9402V54.7202H45.86V54.9402L45.26 55.0602C45.2293 55.0653 45.2001 55.0769 45.1743 55.0941C45.1484 55.1114 45.1265 55.1339 45.11 55.1602C45.0865 55.1837 45.0681 55.2119 45.0561 55.2429C45.044 55.2738 45.0385 55.307 45.04 55.3402V60.5302C45.0385 60.5634 45.044 60.5966 45.0561 60.6276C45.0681 60.6586 45.0865 60.6867 45.11 60.7102C45.1469 60.758 45.2004 60.7902 45.26 60.8002L45.86 60.9302V61.1502H43.39V60.9302L44 60.8002C44.0643 60.7891 44.1218 60.7532 44.16 60.7002C44.2004 60.653 44.2218 60.5924 44.22 60.5302V55.0702H41.22V60.5302C41.2184 60.5954 41.2396 60.659 41.28 60.7102C41.3206 60.7587 41.3775 60.7907 41.44 60.8002L42.03 60.9302V61.1502H39.54V60.9302Z" fill="#656565"/>
<path d="M46.49 61.2199C46.427 61.2283 46.3631 61.2283 46.3 61.2199H46.14L46.29 60.4599H46.37H46.52H47C47 60.4599 47.11 60.4599 47.18 60.3299C47.2558 60.2187 47.3227 60.1017 47.38 59.9799C47.44 59.8299 47.51 59.6499 47.58 59.4499C47.65 59.2499 47.7 59.0299 47.75 58.7999C47.8 58.5699 47.84 58.3299 47.87 58.0799C47.8899 57.8303 47.8899 57.5795 47.87 57.3299C47.876 57.2667 47.876 57.2031 47.87 57.1399C47.8733 57.1 47.8733 57.0598 47.87 57.0199C47.8511 56.9978 47.827 56.9807 47.8 56.9699H47.71L47.17 56.8599V56.6499H51.23V56.8599L50.73 56.9699C50.6709 56.9868 50.6187 57.0221 50.581 57.0706C50.5432 57.1192 50.5219 57.1784 50.52 57.2399V60.5799C50.5199 60.6418 50.5411 60.7018 50.58 60.7499C50.6162 60.7985 50.6701 60.8308 50.73 60.8399L51.23 60.9599V61.1699H49V60.9599L49.49 60.8399C49.5202 60.8372 49.5494 60.8278 49.5754 60.8122C49.6014 60.7966 49.6235 60.7753 49.64 60.7499C49.6813 60.7032 49.7029 60.6422 49.7 60.5799V56.9999H48.37C48.369 57.6167 48.3155 58.2322 48.21 58.8399C48.1223 59.3013 47.9814 59.751 47.79 60.1799C47.6553 60.49 47.4538 60.7665 47.2 60.9899C46.9978 61.1477 46.7464 61.2292 46.49 61.2199Z" fill="#656565"/>
<path d="M54.05 60.8799C53.9292 60.9711 53.7983 61.0483 53.66 61.1099C53.5343 61.1604 53.4036 61.1973 53.27 61.2199H52.91C52.7444 61.2246 52.58 61.1903 52.43 61.1199C52.2885 61.0626 52.1619 60.9737 52.06 60.8599C51.9509 60.7522 51.8657 60.6228 51.81 60.4799C51.7585 60.332 51.7315 60.1766 51.73 60.0199C51.7254 59.8446 51.7595 59.6705 51.83 59.5099C51.8915 59.3594 51.9834 59.2232 52.1 59.1099C52.2128 58.9947 52.3448 58.8999 52.49 58.8299C52.6324 58.7472 52.7833 58.6801 52.94 58.6299C53.0943 58.5838 53.2513 58.5471 53.41 58.5199H53.84H54H54.17H54.46V57.6999C54.4726 57.5769 54.4726 57.4529 54.46 57.3299C54.4389 57.2448 54.3978 57.1659 54.34 57.0999C54.2804 57.0418 54.2087 56.9974 54.13 56.9699C54.0304 56.9585 53.9297 56.9585 53.83 56.9699C53.6762 56.9665 53.5232 56.9937 53.38 57.0499C53.2391 57.0996 53.102 57.1598 52.97 57.2299L52.62 57.4699L52.34 57.6799H52.23L52 56.9199L52.3 56.7599C52.4171 56.709 52.5374 56.6655 52.66 56.6299L53.07 56.5299C53.2198 56.5193 53.3702 56.5193 53.52 56.5299C53.7155 56.5285 53.9105 56.552 54.1 56.5999C54.2959 56.6522 54.4818 56.7367 54.65 56.8499C54.8131 56.9719 54.9464 57.1291 55.04 57.3099C55.1466 57.5275 55.1981 57.7678 55.19 58.0099V60.4499C55.1835 60.4897 55.1835 60.5302 55.19 60.5699C55.2076 60.6096 55.2351 60.6441 55.27 60.6699L55.39 60.7299H55.56H55.63H55.75H55.87H55.98H56V60.9499L55.83 61.0699C55.7568 61.1191 55.6799 61.1626 55.6 61.1999L55.34 61.2999C55.2572 61.3135 55.1728 61.3135 55.09 61.2999C54.9873 61.316 54.8827 61.316 54.78 61.2999C54.6934 61.2828 54.6136 61.2412 54.55 61.1799C54.4863 61.1151 54.4383 61.0364 54.41 60.9499C54.3925 60.8272 54.3925 60.7026 54.41 60.5799C54.3057 60.6974 54.1844 60.7985 54.05 60.8799ZM54.42 58.7799C54.1654 58.7776 53.9111 58.7977 53.66 58.8399C53.4552 58.8744 53.2565 58.9384 53.07 59.0299C52.9198 59.1099 52.7924 59.2269 52.7 59.3699C52.6096 59.517 52.5644 59.6874 52.57 59.8599C52.5695 59.9996 52.5932 60.1383 52.64 60.2699C52.6831 60.3726 52.7479 60.4647 52.83 60.5399C52.905 60.6056 52.9939 60.6535 53.09 60.6799C53.1795 60.6941 53.2706 60.6941 53.36 60.6799H53.64C53.7397 60.6605 53.8369 60.6303 53.93 60.5899L54.2 60.4399C54.2799 60.3767 54.3506 60.3026 54.41 60.2199L54.42 58.7799Z" fill="#656565"/>
<path d="M59.88 60.1601V60.4901C59.6699 60.7042 59.4268 60.8831 59.16 61.0201C59.0104 61.0947 58.8527 61.1517 58.69 61.1901C58.5211 61.2391 58.3459 61.2627 58.17 61.2601C57.8962 61.266 57.6247 61.2086 57.3766 61.0923C57.1286 60.9761 56.9107 60.8043 56.74 60.5901C56.5662 60.3786 56.4308 60.1383 56.34 59.8801C56.2507 59.6057 56.2068 59.3186 56.21 59.0301C56.208 58.8114 56.2315 58.5933 56.28 58.3801C56.3186 58.1736 56.3895 57.9745 56.49 57.7901C56.5784 57.6017 56.6929 57.4266 56.83 57.2701C56.9681 57.1124 57.13 56.9774 57.31 56.8701C57.4895 56.7466 57.6892 56.6552 57.9 56.6001C58.138 56.5354 58.3834 56.5018 58.63 56.5001C58.7828 56.4824 58.9372 56.4824 59.09 56.5001C59.2012 56.5169 59.3091 56.5506 59.41 56.6001C59.4911 56.6268 59.5683 56.6638 59.64 56.7101L59.81 56.8101L59.66 57.5401H59.56L59.22 57.3101C59.1127 57.2307 58.999 57.1605 58.88 57.1001C58.762 57.0379 58.638 56.9876 58.51 56.9501C58.3738 56.9092 58.2322 56.8889 58.09 56.8901H57.91C57.8501 56.8994 57.7925 56.9197 57.74 56.9501L57.58 57.0501L57.46 57.1701C57.4011 57.2333 57.3507 57.3039 57.31 57.3801C57.2578 57.4843 57.2111 57.5911 57.17 57.7001C57.17 57.8301 57.1 57.9701 57.07 58.1201C57.0544 58.2864 57.0544 58.4538 57.07 58.6201C57.0645 58.9066 57.0982 59.1926 57.17 59.4701C57.2289 59.6973 57.3307 59.9111 57.47 60.1001C57.6013 60.27 57.7733 60.4041 57.97 60.4901C58.1874 60.5853 58.4227 60.633 58.66 60.6301C58.7891 60.6305 58.9174 60.6102 59.04 60.5701C59.1574 60.534 59.2712 60.4871 59.38 60.4301L59.66 60.2501L59.87 60.0801L59.88 60.1601Z" fill="#656565"/>
<path d="M61.15 60.9399L61.65 60.8199C61.7081 60.806 61.7604 60.7746 61.8 60.7299C61.8389 60.6818 61.8601 60.6218 61.86 60.5599V56.9999H61C60.9125 56.9945 60.8255 57.0154 60.75 57.0599C60.6957 57.1008 60.6541 57.1563 60.63 57.2199L60.35 58.0199H60.11V56.6299H64.32V57.9999H64.09L63.81 57.1999C63.7859 57.1363 63.7443 57.0808 63.69 57.0399C63.6145 56.9954 63.5274 56.9745 63.44 56.9799H62.61V60.5799C62.6088 60.641 62.6293 60.7005 62.6677 60.7481C62.7061 60.7956 62.76 60.8281 62.82 60.8399L63.32 60.9599V61.1699H61.12L61.15 60.9399Z" fill="#656565"/>
<path d="M64.78 60.9399L65.28 60.8199C65.3381 60.806 65.3905 60.7746 65.43 60.7299C65.4689 60.6818 65.4901 60.6218 65.49 60.5599V57.2199C65.4929 57.1576 65.4714 57.0966 65.43 57.0499C65.391 57.0024 65.3388 56.9676 65.28 56.9499L64.78 56.8399V56.6299H66.92V56.8399L66.47 56.9499C66.4137 56.9678 66.3624 56.9986 66.32 57.0399C66.2797 57.0911 66.2585 57.1547 66.26 57.2199V60.2199L68.48 56.9999V56.6499H70V56.8599L69.5 56.9699C69.4412 56.9876 69.389 57.0224 69.35 57.0699C69.3087 57.1166 69.2872 57.1776 69.29 57.2399V60.5799C69.29 60.6418 69.3111 60.7018 69.35 60.7499C69.3896 60.7946 69.442 60.826 69.5 60.8399L70 60.9599V61.1699H67.81V60.9599L68.26 60.8399C68.32 60.8281 68.3739 60.7956 68.4123 60.7481C68.4507 60.7005 68.4712 60.641 68.47 60.5799V57.5799L66.24 60.7999V61.1399H64.78V60.9399Z" fill="#656565"/>
<path d="M73 60.94L73.5 60.82C73.56 60.8083 73.6139 60.7758 73.6523 60.7282C73.6907 60.6807 73.7111 60.6211 73.71 60.56V59L73.38 59.18L73.03 59.3C72.9188 59.335 72.8051 59.3618 72.69 59.38H72.38C71.988 59.4113 71.5987 59.2935 71.29 59.05C71.1709 58.9294 71.0783 58.7853 71.0181 58.6269C70.9578 58.4685 70.9312 58.2993 70.94 58.13V57.13C70.9428 57.0677 70.9213 57.0068 70.88 56.96C70.8429 56.9105 70.79 56.8752 70.73 56.86L70.23 56.75V56.54H72.38V56.75L71.93 56.86C71.8714 56.8726 71.8186 56.9042 71.78 56.95C71.7396 57.0012 71.7184 57.0649 71.72 57.13V57.82C71.6986 57.9559 71.6986 58.0942 71.72 58.23C71.743 58.3467 71.7943 58.456 71.8692 58.5484C71.9442 58.6408 72.0405 58.7134 72.15 58.76C72.2865 58.8152 72.4327 58.8424 72.58 58.84H72.81H73.08H73.37L73.66 58.76V57.22C73.6615 57.1549 73.6403 57.0912 73.6 57.04C73.5577 56.9988 73.5063 56.968 73.45 56.95L73 56.84V56.63H75.2V56.84L74.7 56.95C74.6412 56.9678 74.589 57.0026 74.55 57.05C74.5086 57.0968 74.4871 57.1577 74.49 57.22V60.56C74.4899 60.6219 74.5111 60.6819 74.55 60.73C74.5895 60.7748 74.6419 60.8062 74.7 60.82L75.2 60.94V61.15H73V60.94Z" fill="#656565"/>
<path d="M79.4801 60.17V60.51C79.3798 60.6074 79.2729 60.6976 79.1601 60.78C79.0271 60.8717 78.8866 60.952 78.7401 61.02C78.5848 61.092 78.4244 61.1522 78.2601 61.2C78.083 61.2408 77.9018 61.261 77.7201 61.26C77.4364 61.2633 77.1547 61.2124 76.8901 61.11C76.6445 61.0122 76.4253 60.858 76.2501 60.66C76.0572 60.4457 75.9108 60.1937 75.8201 59.92C75.7206 59.5962 75.6734 59.2587 75.6801 58.92C75.676 58.611 75.7233 58.3035 75.8201 58.01C75.9059 57.7294 76.0451 57.4679 76.2301 57.24C76.4126 57.0212 76.637 56.841 76.8901 56.71C77.1643 56.5782 77.4659 56.5131 77.7701 56.52C78.0247 56.5156 78.2773 56.5668 78.5101 56.67C78.7135 56.7685 78.8966 56.9042 79.0501 57.07C79.1996 57.2342 79.3122 57.4286 79.3801 57.64C79.4552 57.8449 79.4925 58.0618 79.4901 58.28V58.47C79.4858 58.4965 79.4858 58.5235 79.4901 58.55C79.4901 58.55 79.4901 58.61 79.4901 58.63H76.4901C76.4585 59.1794 76.5908 59.7258 76.8701 60.2C76.9991 60.382 77.1724 60.5281 77.3737 60.6243C77.5749 60.7206 77.7974 60.7639 78.0201 60.75C78.182 60.751 78.3434 60.7308 78.5001 60.69C78.6332 60.6526 78.7635 60.6058 78.8901 60.55L79.2001 60.37L79.4301 60.19L79.4801 60.17ZM78.6601 58.31C78.6807 58.1206 78.6807 57.9295 78.6601 57.74C78.6357 57.5718 78.5815 57.4092 78.5001 57.26C78.4343 57.1236 78.3344 57.0065 78.2101 56.92C78.0791 56.8359 77.9256 56.794 77.7701 56.8C77.6097 56.795 77.4509 56.833 77.3101 56.91C77.1735 56.9842 77.0542 57.0864 76.9601 57.21C76.853 57.3565 76.7687 57.5183 76.7101 57.69C76.6392 57.8905 76.5922 58.0986 76.5701 58.31H78.6601Z" fill="#656565"/>
<path d="M83.66 60.1598V60.4898C83.4499 60.7039 83.2068 60.8828 82.94 61.0198C82.7904 61.0944 82.6327 61.1514 82.47 61.1898C82.3011 61.2388 82.1258 61.2624 81.95 61.2598C81.6761 61.2657 81.4046 61.2083 81.1566 61.0921C80.9086 60.9759 80.6907 60.804 80.52 60.5898C80.3461 60.3784 80.2107 60.1381 80.12 59.8798C80.0307 59.5953 79.9902 59.2978 80 58.9998C79.9979 58.7812 80.0214 58.563 80.07 58.3498C80.1085 58.1433 80.1794 57.9442 80.28 57.7598C80.372 57.5735 80.4862 57.3989 80.62 57.2398C80.9123 56.9223 81.2857 56.6907 81.7 56.5698C81.9344 56.5044 82.1766 56.4708 82.42 56.4698C82.5728 56.4521 82.7271 56.4521 82.88 56.4698C82.9939 56.4882 83.1049 56.5219 83.21 56.5698L83.43 56.6798L83.6 56.7798L83.46 57.5098H83.35L83 57.3598C82.8927 57.2804 82.779 57.2102 82.66 57.1498C82.5419 57.0876 82.418 57.0373 82.29 56.9998C82.1538 56.9589 82.0122 56.9387 81.87 56.9398H81.69C81.6301 56.9491 81.5724 56.9695 81.52 56.9998L81.36 57.0998L81.24 57.2198C81.1811 57.283 81.1307 57.3536 81.09 57.4298C81.0372 57.5324 80.9936 57.6395 80.96 57.7498C80.9116 57.8865 80.8748 58.027 80.85 58.1698C80.8343 58.3361 80.8343 58.5035 80.85 58.6698C80.8445 58.9564 80.8781 59.2423 80.95 59.5198C81.0123 59.7458 81.1138 59.959 81.25 60.1498C81.3813 60.3197 81.5532 60.4538 81.75 60.5398C81.9674 60.635 82.2026 60.6827 82.44 60.6798C82.5691 60.6811 82.6975 60.6608 82.82 60.6198C82.9374 60.5837 83.0512 60.5368 83.16 60.4798L83.44 60.2998L83.65 60.1298L83.66 60.1598Z" fill="#656565"/>
<path d="M87.52 61.1899C87.4559 61.179 87.3946 61.1551 87.34 61.1199C87.2839 61.0837 87.2362 61.0359 87.2 60.9799C87.1466 60.911 87.0997 60.8374 87.06 60.7599L86.18 59.1599L85.43 58.9999V60.5599C85.4289 60.621 85.4493 60.6805 85.4877 60.7281C85.5261 60.7756 85.58 60.8081 85.64 60.8199L86.09 60.9399V61.1499H84V60.9399L84.5 60.8199C84.5581 60.806 84.6105 60.7746 84.65 60.7299C84.6889 60.6817 84.7101 60.6217 84.71 60.5599V57.2199C84.7129 57.1576 84.6913 57.0966 84.65 57.0499C84.611 57.0024 84.5588 56.9676 84.5 56.9499L84 56.8399V56.6299H86.14V56.8399L85.69 56.9499C85.6337 56.9678 85.5823 56.9986 85.54 57.0399C85.4997 57.0911 85.4784 57.1547 85.48 57.2199V58.7299H85.89C85.9961 58.7459 86.1039 58.7459 86.21 58.7299C86.3097 58.6962 86.3992 58.6377 86.47 58.5599C86.5558 58.4535 86.6265 58.3357 86.68 58.2099C86.7453 58.0701 86.802 57.9265 86.85 57.7799C86.85 57.6299 86.96 57.4899 87.01 57.3499C87.0513 57.2307 87.1122 57.1191 87.19 57.0199L87.38 56.8099L87.57 56.6799L87.78 56.6099H88.03H88.38H88.51L88.37 57.3399H88.28H88.14H87.99H87.76C87.6902 57.3387 87.6224 57.3636 87.57 57.4099C87.5127 57.4597 87.4623 57.5168 87.42 57.5799C87.3725 57.6575 87.3291 57.7376 87.29 57.8199C87.248 57.9205 87.1978 58.0174 87.14 58.1099C87.14 58.2099 87.03 58.3099 86.97 58.4099C86.9016 58.5035 86.8246 58.5906 86.74 58.6699L87.92 60.6699C87.9562 60.7259 88.0039 60.7737 88.06 60.8099C88.1111 60.8449 88.169 60.8688 88.23 60.8799L88.73 61.0099V61.2199L87.82 61.2699C87.7164 61.259 87.6152 61.232 87.52 61.1899Z" fill="#656565"/>
<path d="M89 60.9399L89.5 60.8199C89.5581 60.806 89.6105 60.7746 89.65 60.7299C89.6889 60.6818 89.7101 60.6218 89.71 60.5599V57.2199C89.7129 57.1576 89.6913 57.0966 89.65 57.0499C89.611 57.0024 89.5588 56.9676 89.5 56.9499L89 56.8399V56.6299H91.14V56.8399L90.7 56.9499C90.6396 56.9651 90.5844 56.9962 90.54 57.0399C90.5194 57.0981 90.5194 57.1616 90.54 57.2199V60.2199L92.67 56.9999V56.6499H94.13V56.8599L93.63 56.9699C93.5712 56.9876 93.519 57.0224 93.48 57.0699C93.4387 57.1166 93.4171 57.1776 93.42 57.2399V60.5799C93.4199 60.6418 93.4411 60.7018 93.48 60.7499C93.5195 60.7946 93.5719 60.826 93.63 60.8399L94.13 60.9599V61.1699H92V60.9599L92.45 60.8399C92.51 60.8281 92.5639 60.7956 92.6023 60.7481C92.6407 60.7005 92.6611 60.641 92.66 60.5799V57.5799L90.43 60.7999V61.1399H89V60.9399Z" fill="#656565"/>
<path d="M94.5801 60.9399L95.0801 60.8199C95.1381 60.8061 95.1905 60.7746 95.2301 60.7299C95.269 60.6818 95.2901 60.6218 95.2901 60.5599V57.2199C95.2929 57.1576 95.2714 57.0966 95.2301 57.0499C95.1911 57.0025 95.1389 56.9677 95.0801 56.9499L94.5801 56.8399V56.6299H96.7201V56.8399L96.2701 56.9499C96.2137 56.9679 96.1624 56.9987 96.1201 57.0399C96.0797 57.0911 96.0585 57.1548 96.0601 57.2199V60.2199L98.2901 56.9999V56.6499H99.7501V56.8599L99.2501 56.9699C99.1913 56.9877 99.1391 57.0225 99.1001 57.0699C99.0587 57.1166 99.0372 57.1776 99.0401 57.2399V60.5799C99.04 60.6418 99.0612 60.7018 99.1001 60.7499C99.1396 60.7946 99.192 60.8261 99.2501 60.8399L99.7501 60.9599V61.1699H97.6101V60.9599L98.0601 60.8399C98.12 60.8282 98.174 60.7957 98.2124 60.7481C98.2508 60.7006 98.2712 60.641 98.2701 60.5799V57.5799L96.0401 60.7999V61.1399H94.5701L94.5801 60.9399ZM97.2201 55.5999C96.9967 55.6052 96.7739 55.5748 96.5601 55.5099C96.4015 55.4633 96.2525 55.3888 96.1201 55.2899C96.0188 55.2103 95.9339 55.1118 95.8701 54.9999C95.8257 54.9131 95.8018 54.8174 95.8001 54.7199V54.4199H96.5301V55.0699C96.5567 55.1129 96.5948 55.1475 96.6401 55.1699C96.6951 55.2067 96.7559 55.2337 96.8201 55.2499C96.8863 55.2602 96.9538 55.2602 97.0201 55.2499H97.2101H97.4101C97.4763 55.2602 97.5438 55.2602 97.6101 55.2499C97.671 55.2336 97.7286 55.2065 97.7801 55.1699C97.8263 55.1448 97.867 55.1108 97.9001 55.0699V54.4199H98.6301V54.7199C98.6284 54.8174 98.6044 54.9131 98.5601 54.9999C98.5039 55.1141 98.4217 55.2134 98.3201 55.2899C98.1864 55.3868 98.0378 55.4611 97.8801 55.5099C97.6663 55.5748 97.4435 55.6052 97.2201 55.5999Z" fill="#656565"/>
<path d="M102.35 60.9398L102.71 60.8198C102.792 60.792 102.87 60.7515 102.94 60.6998C102.996 60.664 103.047 60.6202 103.09 60.5698L104.35 58.9998L103.1 57.1898C103.078 57.1212 103.044 57.0569 103 56.9998C102.936 56.9476 102.86 56.9101 102.78 56.8898L102.44 56.7998V56.5898H104.54V56.7998L103.93 56.9398L104.66 58.0598L104.91 58.4498L105.94 56.9998L105.35 56.8398V56.6298H107V56.8398L106.63 56.9498C106.551 56.9777 106.476 57.0182 106.41 57.0698C106.356 57.1088 106.306 57.1523 106.26 57.1998L105.06 58.7298L106.36 60.5898C106.395 60.6466 106.439 60.6973 106.49 60.7398C106.556 60.7868 106.631 60.8208 106.71 60.8398L107.05 60.9398V61.1498H104.95V60.9398L105.57 60.7898L104.79 59.6198L104.54 59.2298L103.41 60.7698L104 60.9398V61.1498H102.36L102.35 60.9398Z" fill="#656565"/>
<path d="M107.25 60.9399L107.74 60.8199C107.802 60.8087 107.858 60.777 107.9 60.7299C107.914 60.6741 107.914 60.6156 107.9 60.5599V57.2199C107.917 57.1645 107.917 57.1053 107.9 57.0499C107.859 56.9996 107.803 56.9644 107.74 56.9499L107.25 56.8399V56.6299H109.39V56.8399L108.94 56.9499C108.884 56.9678 108.832 56.9986 108.79 57.0399C108.75 57.0911 108.728 57.1547 108.73 57.2199V60.2199L111 56.9999V56.6499H112.47V56.8599L111.97 56.9699C111.907 56.9844 111.851 57.0196 111.81 57.0699C111.776 57.1199 111.759 57.1794 111.76 57.2399V60.5799C111.761 60.64 111.779 60.6986 111.81 60.7499C111.852 60.797 111.908 60.8287 111.97 60.8399L112.47 60.9599V61.1699H110.32V60.9599L110.77 60.8399C110.83 60.8281 110.884 60.7956 110.922 60.7481C110.961 60.7005 110.981 60.641 110.98 60.5799V57.5799L108.74 60.7999V61.1399H107.28L107.25 60.9399Z" fill="#656565"/>
<path d="M112.77 63.1398L113.29 63.0198C113.346 63.0018 113.398 62.971 113.44 62.9298C113.48 62.8786 113.502 62.8149 113.5 62.7498V57.4798C113.502 57.4053 113.481 57.3321 113.44 57.2698C113.375 57.2066 113.296 57.1587 113.21 57.1298L112.78 56.9798V56.8598L114.25 56.5298V57.2798L114.35 57.1498C114.455 57.0124 114.58 56.8912 114.72 56.7898C114.839 56.7126 114.967 56.6488 115.1 56.5998C115.213 56.557 115.33 56.5268 115.45 56.5098H115.73C115.989 56.5035 116.246 56.5583 116.48 56.6698C116.7 56.777 116.892 56.9346 117.04 57.1298C117.195 57.3407 117.31 57.5779 117.38 57.8298C117.462 58.1123 117.503 58.4055 117.5 58.6998C117.502 59.0381 117.454 59.3749 117.36 59.6998C117.269 59.9925 117.127 60.2667 116.94 60.5098C116.751 60.7431 116.511 60.9308 116.239 61.059C115.968 61.1871 115.67 61.2523 115.37 61.2498C115.254 61.2662 115.136 61.2662 115.02 61.2498C114.915 61.2326 114.814 61.1988 114.72 61.1498C114.636 61.1113 114.555 61.0644 114.48 61.0098C114.407 60.9611 114.34 60.9041 114.28 60.8398V62.8398C114.278 62.9049 114.3 62.9686 114.34 63.0198C114.377 63.0676 114.43 63.0997 114.49 63.1098L115.14 63.2298V63.4398H112.77V63.1398ZM115.28 60.8498C115.496 60.8561 115.71 60.8043 115.9 60.6998C116.076 60.6022 116.226 60.4653 116.34 60.2998C116.46 60.1234 116.548 59.927 116.6 59.7198C116.652 59.49 116.679 59.2553 116.68 59.0198C116.68 58.7544 116.653 58.4897 116.6 58.2298C116.56 58.002 116.475 57.7845 116.35 57.5898C116.246 57.4141 116.098 57.2692 115.92 57.1698C115.727 57.0639 115.51 57.0121 115.29 57.0198H115.05C114.958 57.0372 114.867 57.064 114.78 57.0998C114.686 57.142 114.596 57.1922 114.51 57.2498C114.421 57.3207 114.343 57.405 114.28 57.4998V60.4998C114.346 60.5462 114.416 60.5864 114.49 60.6198C114.58 60.6587 114.674 60.6889 114.77 60.7098L115.05 60.7698C115.123 60.8052 115.201 60.832 115.28 60.8498Z" fill="#656565"/>
<path d="M118 62.4301H118.13C118.186 62.4682 118.246 62.4985 118.31 62.5201L118.53 62.6001L118.76 62.6601H118.93H119.1L119.26 62.5701C119.344 62.5169 119.419 62.4492 119.48 62.3701C119.554 62.2826 119.614 62.1849 119.66 62.0801C119.728 61.9538 119.788 61.8235 119.84 61.6901C119.9 61.5401 119.96 61.3701 120.04 61.1801L119.72 60.5301L118.31 57.1501C118.29 57.0924 118.251 57.043 118.2 57.0101L118 56.9201L117.68 56.8301V56.6201H119.76V56.8301L119 57.0001L120.07 59.6101L120.3 60.1901L121.46 57.0001L120.8 56.8301V56.6201H122.44V56.8301L122.11 56.9501L121.91 57.0401C121.882 57.0534 121.858 57.0729 121.839 57.0972C121.819 57.1215 121.806 57.1499 121.8 57.1801L120.07 62.0001C119.992 62.2473 119.881 62.4828 119.74 62.7001C119.641 62.8536 119.519 62.9917 119.38 63.1101C119.26 63.1964 119.124 63.2576 118.98 63.2901C118.844 63.3054 118.706 63.3054 118.57 63.2901H118.33H118.12L117.95 63.2201L117.81 63.1601L118 62.4301Z" fill="#656565"/>
<path d="M122.42 63.1402L122.93 63.0202C122.99 63.005 123.046 62.9739 123.09 62.9302C123.106 62.8712 123.106 62.8092 123.09 62.7502V57.4802C123.092 57.4058 123.071 57.3326 123.03 57.2702C122.971 57.2045 122.895 57.1562 122.81 57.1302L122.38 56.9802V56.8602L123.85 56.5302V57.2802L123.95 57.1502C124.055 57.0129 124.18 56.8916 124.32 56.7902C124.438 56.7112 124.566 56.6473 124.7 56.6002C124.813 56.5574 124.93 56.5272 125.05 56.5102H125.32C125.582 56.5042 125.842 56.559 126.08 56.6702C126.297 56.7778 126.486 56.9355 126.63 57.1302C126.788 57.3406 126.906 57.5778 126.98 57.8302C127.062 58.1128 127.103 58.4059 127.1 58.7002C127.103 59.0394 127.053 59.3769 126.95 59.7002C126.867 59.994 126.727 60.269 126.54 60.5102C126.358 60.7367 126.13 60.921 125.87 61.0502C125.591 61.1909 125.282 61.2597 124.97 61.2502C124.851 61.2661 124.729 61.2661 124.61 61.2502C124.505 61.233 124.404 61.1993 124.31 61.1502L124.07 61.0102C124 60.9619 123.936 60.9048 123.88 60.8402V62.8402C123.878 62.9054 123.9 62.969 123.94 63.0202C123.977 63.068 124.03 63.1002 124.09 63.1102L124.73 63.2302V63.4402H122.37L122.42 63.1402ZM124.92 60.8502C125.139 60.855 125.356 60.8034 125.55 60.7002C125.726 60.6027 125.876 60.4658 125.99 60.3002C126.107 60.1232 126.192 59.9268 126.24 59.7202C126.3 59.4917 126.33 59.2565 126.33 59.0202C126.33 58.7549 126.303 58.4902 126.25 58.2302C126.201 58.0051 126.116 57.7891 126 57.5902C125.894 57.4168 125.746 57.2725 125.57 57.1702C125.376 57.067 125.159 57.0154 124.94 57.0202H124.7C124.608 57.0376 124.517 57.0644 124.43 57.1002C124.334 57.1381 124.243 57.1885 124.16 57.2502C124.068 57.3185 123.99 57.4033 123.93 57.5002V60.5002C123.995 60.5486 124.065 60.5889 124.14 60.6202C124.23 60.6606 124.324 60.6908 124.42 60.7102C124.511 60.7397 124.605 60.7598 124.7 60.7702C124.77 60.8054 124.844 60.8323 124.92 60.8502Z" fill="#656565"/>
<path d="M127.62 60.9399L128.12 60.8199C128.18 60.8108 128.234 60.7785 128.27 60.7299C128.309 60.6818 128.33 60.6218 128.33 60.5599V57.2199C128.328 57.1584 128.307 57.0992 128.269 57.0506C128.231 57.0021 128.179 56.9668 128.12 56.9499L127.62 56.8399V56.6299H131.41V57.9999H131.18L130.85 57.1499C130.826 57.0863 130.784 57.0308 130.73 56.9899C130.654 56.9454 130.567 56.9245 130.48 56.9299H129.12V60.5299C129.117 60.5922 129.139 60.6532 129.18 60.6999C129.197 60.7248 129.219 60.7457 129.245 60.7612C129.271 60.7768 129.3 60.7865 129.33 60.7899L129.87 60.9099V61.1199H127.62V60.9399Z" fill="#656565"/>
<path d="M133.74 60.9301L134.14 60.8101C134.202 60.7925 134.257 60.7579 134.3 60.7101C134.349 60.6625 134.387 60.6044 134.41 60.5401L136.27 55.6901L136.83 54.6201H137L139.29 60.5401C139.313 60.6044 139.351 60.6625 139.4 60.7101C139.447 60.7582 139.505 60.7928 139.57 60.8101L139.97 60.9301V61.1501H137.7V60.9301L138.52 60.7701L137.74 58.7701H135.48L134.76 60.7701L135.55 60.9401V61.1601H133.74V60.9301ZM137.6 58.4001L136.83 56.4001L136.6 55.7601L135.6 58.3601L137.6 58.4001Z" fill="#656565"/>
<path d="M139.94 60.9399L140.44 60.8199C140.5 60.8108 140.554 60.7785 140.59 60.7299C140.629 60.6818 140.65 60.6218 140.65 60.5599V57.2199C140.648 57.1584 140.627 57.0992 140.589 57.0506C140.551 57.0021 140.499 56.9668 140.44 56.9499L139.94 56.8399V56.6299H142.09V56.8399L141.64 56.9499C141.583 56.9654 141.531 56.9965 141.49 57.0399C141.45 57.0911 141.428 57.1547 141.43 57.2199V58.6399H143.58V57.2199C143.581 57.1547 143.56 57.0911 143.52 57.0399C143.478 56.9986 143.426 56.9678 143.37 56.9499L142.92 56.8399V56.6299H145.06V56.8399L144.56 56.9499C144.501 56.9676 144.449 57.0024 144.41 57.0499C144.369 57.0966 144.347 57.1576 144.35 57.2199V60.5599C144.35 60.6218 144.371 60.6818 144.41 60.7299C144.449 60.7746 144.502 60.806 144.56 60.8199L145.06 60.9399V61.1499H142.92V60.9399L143.37 60.8199C143.43 60.8081 143.484 60.7756 143.522 60.7281C143.561 60.6805 143.581 60.621 143.58 60.5599V58.9399H141.43V60.5599C141.427 60.6222 141.449 60.6832 141.49 60.7299C141.507 60.7548 141.529 60.7757 141.555 60.7912C141.581 60.8068 141.61 60.8165 141.64 60.8199L142.09 60.9399V61.1499H139.94V60.9399Z" fill="#656565"/>
<path d="M145.39 60.8102H145.86C145.955 60.7205 146.039 60.6198 146.11 60.5102C146.209 60.3605 146.296 60.2034 146.37 60.0402C146.45 59.8602 146.53 59.6602 146.61 59.4502C146.692 59.2273 146.762 59.0004 146.82 58.7702C146.87 58.5402 146.92 58.3002 146.95 58.0602C146.987 57.822 147.003 57.5811 147 57.3402C147.006 57.277 147.006 57.2133 147 57.1502C146.991 57.1072 146.974 57.0664 146.95 57.0302C146.931 57.0081 146.907 56.9909 146.88 56.9802H146.8L146.3 56.8702V56.6602H150.41V56.8702L149.91 56.9802C149.851 56.9979 149.799 57.0327 149.76 57.0802C149.719 57.1269 149.697 57.1878 149.7 57.2502V60.8402H150.46V62.6402H150.16L149.74 61.3502C149.735 61.3219 149.725 61.2949 149.709 61.2709C149.694 61.2468 149.674 61.2261 149.65 61.2102C149.608 61.1964 149.562 61.1964 149.52 61.2102H146.34C146.295 61.1949 146.245 61.1949 146.2 61.2102C146.159 61.2484 146.128 61.2966 146.11 61.3502L145.69 62.6402H145.4L145.39 60.8102ZM148.91 60.8102V57.0002H147.43C147.43 57.4454 147.397 57.89 147.33 58.3302C147.277 58.6981 147.2 59.0622 147.1 59.4202C147.012 59.7146 146.895 59.9994 146.75 60.2702C146.643 60.4833 146.508 60.6816 146.35 60.8602L148.91 60.8102Z" fill="#656565"/>
<path d="M150.76 63.1402L151.27 63.0202C151.33 63.005 151.386 62.9739 151.43 62.9302C151.446 62.8712 151.446 62.8092 151.43 62.7502V57.4802C151.432 57.4058 151.411 57.3326 151.37 57.2702C151.311 57.2045 151.235 57.1562 151.15 57.1302L150.72 56.9802V56.8602L152.19 56.5302V57.2802L152.29 57.1502C152.395 57.0129 152.52 56.8916 152.66 56.7902C152.778 56.7112 152.906 56.6473 153.04 56.6002C153.15 56.5587 153.264 56.5286 153.38 56.5102H153.66C153.922 56.5042 154.182 56.559 154.42 56.6702C154.637 56.7778 154.826 56.9355 154.97 57.1302C155.128 57.3406 155.246 57.5778 155.32 57.8302C155.402 58.1128 155.443 58.4059 155.44 58.7002C155.443 59.0394 155.392 59.3769 155.29 59.7002C155.207 59.994 155.067 60.269 154.88 60.5102C154.698 60.7367 154.47 60.921 154.21 61.0502C153.931 61.1909 153.622 61.2597 153.31 61.2502C153.19 61.2661 153.069 61.2661 152.95 61.2502C152.845 61.233 152.744 61.1993 152.65 61.1502L152.41 61.0102C152.34 60.9619 152.276 60.9048 152.22 60.8402V62.8402C152.218 62.9054 152.24 62.969 152.28 63.0202C152.317 63.068 152.37 63.1002 152.43 63.1102L153.07 63.2302V63.4402H150.71L150.76 63.1402ZM153.26 60.8502C153.479 60.855 153.696 60.8034 153.89 60.7002C154.066 60.6027 154.216 60.4658 154.33 60.3002C154.447 60.1232 154.532 59.9268 154.58 59.7202C154.64 59.4917 154.67 59.2565 154.67 59.0202C154.67 58.7549 154.643 58.4902 154.59 58.2302C154.541 58.0051 154.456 57.7891 154.34 57.5902C154.234 57.4168 154.086 57.2725 153.91 57.1702C153.716 57.067 153.499 57.0154 153.28 57.0202L153 57.0002C152.907 57.0176 152.817 57.0444 152.73 57.0802C152.634 57.1181 152.543 57.1685 152.46 57.2302C152.368 57.2985 152.29 57.3833 152.23 57.4802V60.4802C152.295 60.5286 152.365 60.5689 152.44 60.6002C152.53 60.6406 152.624 60.6708 152.72 60.6902C152.811 60.7197 152.905 60.7398 153 60.7502C153.082 60.7955 153.169 60.8292 153.26 60.8502Z" fill="#656565"/>
<path d="M159.8 60.1699V60.5099L159.47 60.7799C159.34 60.8716 159.203 60.9519 159.06 61.0199C158.901 61.0903 158.737 61.1504 158.57 61.1999C158.396 61.2401 158.218 61.2603 158.04 61.2599C157.753 61.2642 157.468 61.2133 157.2 61.1099C156.954 61.012 156.735 60.8579 156.56 60.6599C156.374 60.4425 156.231 60.1913 156.14 59.9199C156.037 59.5968 155.986 59.2591 155.99 58.9199C155.991 58.6113 156.038 58.3046 156.13 58.0099C156.216 57.7293 156.355 57.4678 156.54 57.2399C156.722 57.0211 156.947 56.8409 157.2 56.7099C157.475 56.5805 157.776 56.5156 158.08 56.5199C158.335 56.5145 158.587 56.5657 158.82 56.6699C159.025 56.7658 159.209 56.9018 159.36 57.0699C159.51 57.2341 159.622 57.4285 159.69 57.6399C159.765 57.8448 159.802 58.0617 159.8 58.2799V58.4699C159.8 58.4699 159.8 58.5299 159.8 58.5499C159.796 58.5764 159.796 58.6034 159.8 58.6299H156.8C156.768 59.1793 156.901 59.7257 157.18 60.1999C157.309 60.3819 157.482 60.528 157.684 60.6242C157.885 60.7205 158.107 60.7637 158.33 60.7499C158.492 60.7509 158.653 60.7307 158.81 60.6899C158.944 60.6542 159.074 60.6073 159.2 60.5499L159.51 60.3699C159.59 60.3142 159.667 60.2541 159.74 60.1899L159.8 60.1699ZM159 58.3099C159.016 58.1202 159.016 57.9296 159 57.7399C158.968 57.5723 158.91 57.4105 158.83 57.2599C158.764 57.1235 158.664 57.0064 158.54 56.9199C158.412 56.8372 158.262 56.7953 158.11 56.7999C157.949 56.7934 157.79 56.8315 157.65 56.9099C157.508 56.98 157.384 57.0828 157.29 57.2099C157.183 57.3564 157.099 57.5182 157.04 57.6899C156.974 57.8917 156.927 58.0993 156.9 58.3099H159Z" fill="#656565"/>
<path d="M160.28 60.9399L160.78 60.8199C160.838 60.8061 160.89 60.7746 160.93 60.7299C160.969 60.6818 160.99 60.6218 160.99 60.5599V57.2199C160.993 57.1576 160.971 57.0966 160.93 57.0499C160.891 57.0025 160.839 56.9677 160.78 56.9499L160.28 56.8399V56.6299H162.42V56.8399L162 56.9999C161.944 57.0179 161.892 57.0487 161.85 57.0899C161.81 57.1411 161.788 57.2048 161.79 57.2699V60.2699L164 56.9999V56.6499H165.47V56.8599L165 56.9999C164.94 57.0151 164.887 57.0504 164.85 57.0999C164.809 57.1466 164.787 57.2076 164.79 57.2699V60.6099C164.79 60.6718 164.811 60.7318 164.85 60.7799C164.888 60.8263 164.941 60.8581 165 60.8699L165.5 60.9899V61.1999H163.3V60.9899L163.75 60.8699C163.78 60.8666 163.809 60.8568 163.835 60.8413C163.861 60.8258 163.883 60.8048 163.9 60.7799C163.941 60.7332 163.963 60.6722 163.96 60.6099V57.6099L161.73 60.8299V61.1699H160.26L160.28 60.9399ZM162.91 55.5999C162.687 55.6044 162.464 55.574 162.25 55.5099C162.094 55.4634 161.949 55.3889 161.82 55.2899C161.713 55.2165 161.627 55.1166 161.57 54.9999C161.523 54.9136 161.496 54.818 161.49 54.7199V54.4199H162.22V55.0699C162.253 55.1108 162.294 55.1448 162.34 55.1699C162.391 55.2065 162.449 55.2336 162.51 55.2499C162.576 55.2591 162.644 55.2591 162.71 55.2499H162.91H163.11C163.176 55.2591 163.244 55.2591 163.31 55.2499C163.371 55.2336 163.429 55.2065 163.48 55.1699C163.526 55.1448 163.567 55.1108 163.6 55.0699V54.4199H164.33V54.7199C164.324 54.818 164.297 54.9136 164.25 54.9999C164.194 55.1141 164.112 55.2134 164.01 55.2899C163.881 55.3889 163.736 55.4634 163.58 55.5099C163.363 55.5739 163.137 55.6043 162.91 55.5999Z" fill="#656565"/>
<path d="M168.28 60.9302L168.87 60.8002C168.934 60.7872 168.99 60.7517 169.03 60.7002C169.07 60.653 169.092 60.5924 169.09 60.5302V55.3402C169.092 55.2751 169.07 55.2114 169.03 55.1602C168.99 55.1087 168.934 55.0732 168.87 55.0602L168.28 54.9402V54.7202H174.6V54.9402L174.01 55.0602C173.977 55.0632 173.946 55.0739 173.918 55.0912C173.89 55.1086 173.867 55.1322 173.85 55.1602C173.81 55.2114 173.788 55.2751 173.79 55.3402V60.5302C173.788 60.5954 173.81 60.659 173.85 60.7102C173.889 60.7602 173.947 60.7926 174.01 60.8002L174.6 60.9302V61.1502H172.13V60.9302L172.73 60.8002C172.791 60.7867 172.844 60.751 172.88 60.7002C172.903 60.6786 172.922 60.6522 172.934 60.6229C172.946 60.5935 172.951 60.5619 172.95 60.5302V55.0702H169.95V60.5302C169.948 60.5954 169.97 60.659 170.01 60.7102C170.054 60.7593 170.115 60.7912 170.18 60.8002L170.76 60.9302V61.1502H168.3L168.28 60.9302Z" fill="#656565"/>
<path d="M177.41 60.8799C177.289 60.9711 177.158 61.0483 177.02 61.1099C176.894 61.1592 176.763 61.196 176.63 61.2199H176.27C176.104 61.2246 175.94 61.1903 175.79 61.1199C175.647 61.0605 175.517 60.972 175.41 60.8599C175.307 60.7491 175.226 60.6203 175.17 60.4799C175.111 60.3339 175.08 60.1777 175.08 60.0199C175.08 59.8451 175.114 59.6719 175.18 59.5099C175.249 59.3634 175.34 59.2285 175.45 59.1099C175.566 58.9991 175.698 58.9049 175.84 58.8299C175.987 58.749 176.141 58.682 176.3 58.6299C176.451 58.5839 176.605 58.5471 176.76 58.5199H177.2H177.32H177.48H177.78V57.6999C177.793 57.5769 177.793 57.453 177.78 57.3299C177.758 57.2479 177.716 57.1723 177.659 57.1097C177.601 57.047 177.53 56.9991 177.45 56.9699C177.347 56.9586 177.243 56.9586 177.14 56.9699C176.989 56.9665 176.84 56.9937 176.7 57.0499C176.558 57.0978 176.421 57.158 176.29 57.2299L175.93 57.4699L175.65 57.6799H175.55L175.41 56.9499L175.71 56.7899C175.827 56.739 175.947 56.6956 176.07 56.6599L176.47 56.5599C176.623 56.5497 176.777 56.5497 176.93 56.5599C177.125 56.5592 177.32 56.5827 177.51 56.6299C177.703 56.6803 177.886 56.765 178.05 56.8799C178.233 57.0096 178.379 57.1848 178.474 57.3883C178.569 57.5917 178.609 57.8163 178.59 58.0399V60.4799C178.579 60.5192 178.579 60.5607 178.59 60.5999C178.607 60.637 178.631 60.6708 178.66 60.6999L178.78 60.7599H178.95H179H179.11H179.24H179.35H179.4V60.9799L179.22 61.0999C179.152 61.1512 179.078 61.1948 179 61.2299L178.74 61.3299C178.657 61.3436 178.573 61.3436 178.49 61.3299C178.384 61.3471 178.276 61.3471 178.17 61.3299C178.086 61.3127 178.01 61.2709 177.95 61.2099C177.886 61.1451 177.838 61.0664 177.81 60.9799C177.792 60.8572 177.792 60.7327 177.81 60.6099C177.691 60.72 177.556 60.8111 177.41 60.8799ZM177.78 58.7799C177.522 58.778 177.264 58.7981 177.01 58.8399C176.808 58.8744 176.613 58.9384 176.43 59.0299C176.28 59.1099 176.152 59.227 176.06 59.3699C175.969 59.517 175.924 59.6874 175.93 59.8599C175.924 60 175.948 60.1397 176 60.2699C176.043 60.3726 176.108 60.4647 176.19 60.5399C176.261 60.6055 176.347 60.6534 176.44 60.6799C176.533 60.6931 176.627 60.6931 176.72 60.6799H177C177.099 60.6591 177.196 60.629 177.29 60.5899C177.382 60.5498 177.469 60.4995 177.55 60.4399C177.635 60.3796 177.71 60.3052 177.77 60.2199L177.78 58.7799Z" fill="#656565"/>
<path d="M183.24 60.1601V60.4901C183.14 60.5909 183.033 60.6844 182.92 60.7701C182.792 60.8614 182.658 60.9449 182.52 61.0201C182.37 61.0931 182.212 61.1501 182.05 61.1901C181.878 61.2392 181.699 61.2628 181.52 61.2601C181.24 61.2644 180.962 61.2027 180.71 61.0801C180.471 60.9633 180.259 60.7962 180.09 60.5901C179.916 60.3805 179.783 60.1395 179.7 59.8801C179.608 59.6062 179.56 59.3191 179.56 59.0301C179.563 58.8117 179.587 58.5941 179.63 58.3801C179.677 58.1761 179.748 57.9781 179.84 57.7901C179.936 57.6034 180.053 57.4288 180.19 57.2701C180.325 57.1132 180.484 56.9783 180.66 56.8701C180.844 56.7476 181.047 56.6563 181.26 56.6001C181.498 56.534 181.743 56.5004 181.99 56.5001C182.143 56.4824 182.297 56.4824 182.45 56.5001C182.56 56.5199 182.668 56.5535 182.77 56.6001C182.85 56.6287 182.927 56.6655 183 56.7101L183.17 56.8101L183.02 57.5401H182.91L182.58 57.3101C182.365 57.1511 182.125 57.0294 181.87 56.9501C181.731 56.9085 181.586 56.8882 181.44 56.8901C181.384 56.8806 181.326 56.8806 181.27 56.8901C181.207 56.901 181.147 56.9213 181.09 56.9501L180.94 57.0501L180.81 57.1701C180.758 57.2361 180.711 57.3063 180.67 57.3801C180.614 57.4823 180.567 57.5894 180.53 57.7001C180.485 57.837 180.452 57.9775 180.43 58.1201C180.398 58.2848 180.381 58.4522 180.38 58.6201C180.379 58.9064 180.413 59.1917 180.48 59.4701C180.542 59.6979 180.648 59.9117 180.79 60.1001C180.921 60.27 181.093 60.4041 181.29 60.4901C181.507 60.5865 181.743 60.6342 181.98 60.6301C182.109 60.6305 182.237 60.6102 182.36 60.5701C182.475 60.5356 182.586 60.4887 182.69 60.4301L182.98 60.2501L183.18 60.0801L183.24 60.1601Z" fill="#656565"/>
<path d="M187.36 60.1699V60.5099L187.03 60.7799C186.902 60.8737 186.764 60.9541 186.62 61.0199C186.462 61.0935 186.298 61.1537 186.13 61.1999C185.956 61.2401 185.778 61.2603 185.6 61.2599C185.313 61.2642 185.028 61.2133 184.76 61.1099C184.514 61.012 184.295 60.8579 184.12 60.6599C183.934 60.4425 183.791 60.1913 183.7 59.9199C183.597 59.5968 183.546 59.2591 183.55 58.9199C183.551 58.6113 183.598 58.3046 183.69 58.0099C183.78 57.731 183.919 57.4702 184.1 57.2399C184.283 57.0211 184.507 56.8409 184.76 56.7099C185.035 56.5805 185.336 56.5156 185.64 56.5199C185.895 56.5145 186.147 56.5657 186.38 56.6699C186.586 56.7633 186.771 56.8996 186.92 57.0699C187.07 57.2341 187.182 57.4285 187.25 57.6399C187.328 57.8442 187.369 58.0611 187.37 58.2799C187.375 58.3097 187.375 58.3401 187.37 58.3699V58.4699C187.37 58.4699 187.37 58.5299 187.37 58.5499C187.366 58.5764 187.366 58.6034 187.37 58.6299H184.37C184.338 59.1793 184.471 59.7257 184.75 60.1999C184.879 60.3819 185.052 60.528 185.254 60.6242C185.455 60.7205 185.677 60.7637 185.9 60.7499C186.062 60.7509 186.223 60.7307 186.38 60.6899C186.516 60.6525 186.65 60.6057 186.78 60.5499C186.884 60.4966 186.984 60.4365 187.08 60.3699C187.16 60.3142 187.237 60.2541 187.31 60.1899L187.36 60.1699ZM186.54 58.3099C186.556 58.1202 186.556 57.9296 186.54 57.7399C186.506 57.574 186.453 57.4128 186.38 57.2599C186.307 57.1251 186.205 57.0088 186.08 56.9199C185.952 56.8372 185.802 56.7953 185.65 56.7999C185.489 56.7934 185.33 56.8315 185.19 56.9099C185.048 56.98 184.925 57.0828 184.83 57.2099C184.723 57.3564 184.639 57.5182 184.58 57.6899C184.514 57.8917 184.467 58.0993 184.44 58.3099H186.54Z" fill="#656565"/>
<path d="M190.45 60.94L190.95 60.82C191.01 60.8083 191.064 60.7758 191.102 60.7282C191.141 60.6807 191.161 60.6211 191.16 60.56V59C191.054 59.0677 190.944 59.1278 190.83 59.18L190.48 59.3C190.369 59.335 190.255 59.3618 190.14 59.38H189.83C189.438 59.4113 189.049 59.2935 188.74 59.05C188.621 58.9294 188.528 58.7853 188.468 58.6269C188.408 58.4685 188.381 58.2993 188.39 58.13V57.13C188.393 57.0677 188.371 57.0068 188.33 56.96C188.293 56.9105 188.24 56.8752 188.18 56.86L187.68 56.75V56.54H189.83V56.75L189.38 56.86C189.321 56.8726 189.269 56.9042 189.23 56.95C189.19 57.0012 189.168 57.0649 189.17 57.13V57.82C189.165 57.9585 189.182 58.0968 189.22 58.23C189.243 58.3467 189.294 58.456 189.369 58.5484C189.444 58.6408 189.541 58.7134 189.65 58.76C189.786 58.8152 189.933 58.8424 190.08 58.84H190.31H190.58H190.87L191.16 58.76V57.22C191.162 57.1549 191.14 57.0912 191.1 57.04C191.069 57.022 191.035 57.0086 191 57L190.55 56.89V56.68H192.69V56.89L192.19 57C192.131 57.0178 192.079 57.0526 192.04 57.1C191.999 57.1468 191.977 57.2077 191.98 57.27V60.61C191.98 60.6719 192.001 60.7319 192.04 60.78C192.079 60.8248 192.132 60.8562 192.19 60.87L192.69 60.99V61.2H190.5L190.45 60.94Z" fill="#656565"/>
<path d="M193.09 60.9399L193.59 60.8199C193.648 60.806 193.7 60.7746 193.74 60.7299C193.779 60.6818 193.8 60.6218 193.8 60.5599V57.2199C193.803 57.1576 193.781 57.0966 193.74 57.0499C193.701 57.0024 193.649 56.9676 193.59 56.9499L193.09 56.8399V56.6299H195.23V56.8399L194.79 56.9499C194.73 56.9651 194.674 56.9962 194.63 57.0399C194.614 57.0989 194.614 57.1609 194.63 57.2199V58.6399H196.78V57.2199C196.782 57.1547 196.76 57.0911 196.72 57.0399C196.678 56.9986 196.626 56.9678 196.57 56.9499L196.12 56.8399V56.6299H198.26V56.8399L197.76 56.9499C197.701 56.9676 197.649 57.0024 197.61 57.0499C197.569 57.0966 197.547 57.1576 197.55 57.2199V60.5599C197.55 60.6218 197.571 60.6818 197.61 60.7299C197.65 60.7746 197.702 60.806 197.76 60.8199L198.26 60.9399V61.1499H196.12V60.9399L196.57 60.8199C196.63 60.8081 196.684 60.7756 196.722 60.7281C196.761 60.6805 196.781 60.621 196.78 60.5599V58.9399H194.63V60.5599C194.613 60.6153 194.613 60.6745 194.63 60.7299C194.669 60.7799 194.727 60.8123 194.79 60.8199L195.23 60.9399V61.1499H193.09V60.9399Z" fill="#656565"/>
<path d="M198.66 60.9399L199.16 60.8199C199.218 60.806 199.27 60.7746 199.31 60.7299C199.349 60.6818 199.37 60.6218 199.37 60.5599V57.2199C199.373 57.1576 199.351 57.0966 199.31 57.0499C199.271 57.0024 199.219 56.9676 199.16 56.9499L198.66 56.8399V56.6299H200.8V56.8399L200.35 56.9499C200.294 56.9678 200.242 56.9986 200.2 57.0399C200.16 57.0911 200.138 57.1547 200.14 57.2199V60.2199L202.36 56.9999V56.6499H203.83V56.8599L203.33 56.9699C203.271 56.9876 203.219 57.0224 203.18 57.0699C203.139 57.1166 203.117 57.1776 203.12 57.2399V60.5799C203.12 60.6418 203.141 60.7018 203.18 60.7499C203.22 60.7946 203.272 60.826 203.33 60.8399L203.83 60.9599V61.1699H201.69V60.9599L202.14 60.8399C202.2 60.8281 202.254 60.7956 202.292 60.7481C202.331 60.7005 202.351 60.641 202.35 60.5799V57.5799L200.12 60.7999V61.1399H198.65L198.66 60.9399Z" fill="#656565"/>
<path d="M207.85 61.1899C207.786 61.179 207.725 61.1552 207.67 61.1199C207.614 61.0837 207.566 61.036 207.53 60.9799C207.477 60.9111 207.43 60.8374 207.39 60.7599L206.5 59.1599L205.76 58.9999V60.5599C205.759 60.621 205.779 60.6805 205.818 60.7281C205.856 60.7756 205.91 60.8081 205.97 60.8199L206.42 60.9399V61.1499H204.28V60.9399L204.78 60.8199C204.838 60.806 204.89 60.7746 204.93 60.7299C204.969 60.6818 204.99 60.6218 204.99 60.5599V57.2199C204.993 57.1576 204.971 57.0966 204.93 57.0499C204.891 57.0024 204.839 56.9676 204.78 56.9499L204.28 56.8399V56.6299H206.42V56.8399L206 56.9999C205.944 57.0178 205.892 57.0486 205.85 57.0899C205.81 57.1411 205.788 57.2047 205.79 57.2699V58.7799H206.2C206.306 58.7959 206.414 58.7959 206.52 58.7799C206.62 58.7462 206.709 58.6877 206.78 58.6099C206.866 58.5035 206.937 58.3857 206.99 58.2599C207.05 58.1199 207.11 57.9699 207.16 57.8299C207.21 57.6899 207.26 57.5399 207.32 57.3999C207.361 57.2807 207.422 57.1692 207.5 57.0699L207.69 56.8599L207.88 56.7299L208.09 56.6599H208.34H208.69H208.82L208.68 57.3899H208.59H208.45H208.3H208C207.93 57.3887 207.862 57.4137 207.81 57.4599C207.753 57.5097 207.702 57.5668 207.66 57.6299C207.613 57.7076 207.569 57.7877 207.53 57.8699C207.53 57.9699 207.44 58.0599 207.38 58.1599C207.32 58.2599 207.27 58.3599 207.21 58.4599C207.139 58.5511 207.062 58.638 206.98 58.7199L208.16 60.7199C208.194 60.7781 208.242 60.8264 208.3 60.8599C208.351 60.8949 208.409 60.9188 208.47 60.9299L208.96 61.0599V61.2699L208.06 61.3199C207.985 61.2854 207.914 61.2417 207.85 61.1899Z" fill="#656565"/>
<path d="M51 27.6199C47 27.6199 43.49 34.5399 43.49 37.3899C43.49 38.4999 44.01 39.1599 44.83 39.1599C46.83 39.1599 50.45 35.1599 52.83 28.9899C55.57 21.8499 58.9 13.1899 60.93 13.1899C61.0347 13.1963 61.1371 13.2234 61.2312 13.2697C61.3254 13.316 61.4093 13.3807 61.4782 13.4598C61.5471 13.5389 61.5995 13.631 61.6325 13.7306C61.6654 13.8302 61.6781 13.9353 61.67 14.0399C61.67 16.3699 53.16 29.9099 53.16 37.2399C53.16 38.6499 53.16 39.3099 54.01 39.3099C55.53 39.3099 58.16 37.1999 59.71 33.8399L60.15 34.1699C58.7 37.9999 55.48 40.7899 53 40.7899C51.15 40.7899 50.55 39.3099 50.55 38.0199C50.6344 36.664 50.8726 35.3221 51.26 34.0199C48.85 38.0199 45.96 40.8999 43.71 40.8999C43.3178 40.8949 42.9309 40.8085 42.5739 40.646C42.2169 40.4835 41.8976 40.2486 41.6362 39.9562C41.3748 39.6638 41.177 39.3202 41.0554 38.9473C40.9339 38.5744 40.8911 38.1802 40.93 37.7899C40.93 33.6899 46.3 26.4699 50.93 26.4699C51.93 26.4699 52.55 26.8399 52.55 27.6199C52.5463 27.7921 52.5228 27.9632 52.48 28.1299C52.2948 27.929 52.0626 27.7773 51.8043 27.6883C51.546 27.5992 51.2696 27.5758 51 27.6199Z" fill="#0C647B"/>
<path d="M59.0699 35.13C60.2353 32.8711 61.2379 30.5318 62.0699 28.13C61.9501 28.0153 61.8553 27.8769 61.7917 27.7238C61.728 27.5706 61.6967 27.4058 61.6999 27.24C61.6778 26.7146 61.8136 26.1946 62.0899 25.7472C62.3662 25.2998 62.7703 24.9455 63.2499 24.73C63.7699 24.73 63.7699 25.36 63.7699 25.61C63.7699 25.86 63.3599 26.84 63.3599 26.98C63.3599 28.35 67.1399 28.98 67.1399 32.13C67.1399 34.38 65.2899 36.83 65.2899 38.38C65.2723 38.53 65.2889 38.6821 65.3384 38.8248C65.3879 38.9675 65.4692 39.0971 65.576 39.2039C65.6828 39.3108 65.8124 39.392 65.9551 39.4415C66.0978 39.4911 66.2499 39.5076 66.3999 39.49C68.7299 39.49 71.7599 36.12 72.6899 33.98L73.1699 34.35C71.7599 37.49 68.5799 40.82 65.4299 40.82C65.0905 40.8628 64.7459 40.8325 64.4192 40.7312C64.0924 40.6299 63.7911 40.4599 63.5354 40.2326C63.2797 40.0053 63.0756 39.726 62.9367 39.4134C62.7977 39.1008 62.7273 38.7621 62.7299 38.42C62.7299 36.23 64.7299 33.42 64.7299 31.5C64.7299 29.91 63.58 29.35 62.66 28.69C61.7165 31.1263 60.6141 33.4981 59.3599 35.79L59.0699 35.13Z" fill="#0C647B"/>
<path d="M72.6899 39.2002C72.6899 38.3902 73.8699 37.6802 74.8299 37.6802C75.4199 37.6802 75.8299 37.9102 75.8299 38.5702C75.7452 39.0208 75.5083 39.4286 75.1587 39.7254C74.8092 40.0221 74.3683 40.1897 73.9099 40.2002C73.2399 40.2002 72.6899 39.9002 72.6899 39.2002Z" fill="#0C647B"/>
<path d="M85.19 28.8802C83.71 33.9502 82.34 39.1302 81.19 43.0502C79.93 43.0502 78.63 42.2702 78.63 41.2002C78.7122 40.5131 78.8871 39.8403 79.15 39.2002C82.26 29.5502 84.44 22.8502 88.25 14.2002C85.4 14.7502 83.52 16.2002 83.11 16.2002C82.7 16.2002 81.96 15.5702 81.96 15.2002C84.5325 14.013 87.31 13.3339 90.14 13.2002C94.51 13.2002 99.65 15.6002 99.65 20.3402C99.65 28.0702 87.96 28.8902 85.55 28.8902L85.19 28.8802ZM90.48 14.0002C88.3754 18.6239 86.6562 23.4135 85.34 28.3202C90.78 28.0202 97.18 25.3902 97.18 19.7302C97.18 15.7002 94 14.0002 90.48 14.0002Z" fill="#0C647B"/>
<path d="M108.35 32.9101C108.35 33.7601 106.21 36.2801 106.21 38.0501C106.21 38.7901 106.58 39.6801 107.47 39.6801C108.8 39.6801 111.17 37.7601 113.39 33.8401L113.76 34.2101C112.2 38.2101 109.06 40.9401 106.43 40.9401C106.081 40.9628 105.731 40.9119 105.402 40.7907C105.074 40.6695 104.775 40.4807 104.524 40.2366C104.273 39.9924 104.077 39.6984 103.947 39.3734C103.817 39.0485 103.757 38.6998 103.77 38.3501C103.772 37.9907 103.809 37.6324 103.88 37.2801C101.73 40.1301 100.1 41.5701 98.29 41.5701C96.74 41.5701 95.55 40.5701 95.55 38.5001C95.55 34.1001 100.99 27.1401 105.8 27.1401C107.72 27.1401 109.17 28.2501 109.17 29.9101C109.17 31.1401 108.43 31.5101 107.35 31.5101C107.472 31.0874 107.536 30.6501 107.54 30.2101C107.54 29.1001 107.06 28.1401 105.73 28.1401C102.25 28.1401 98.1 35.0201 98.1 38.6101C98.1 39.6101 98.44 40.0501 99.1 40.0501C101.4 40.0501 105.1 34.6501 106.87 31.9901C107.32 32.0601 108.35 32.3601 108.35 32.9101Z" fill="#0C647B"/>
<path d="M114.31 33.54C115.804 31.9465 117.048 30.1359 118 28.17V27.73C118 25.92 118.74 25.21 119.45 25.21C119.85 25.21 120.04 25.44 120.04 25.7C119.924 26.2332 119.85 26.775 119.82 27.32C119.82 29.77 121.74 32.84 121.74 36.24C121.748 36.8504 121.674 37.4592 121.52 38.05C123.22 37.76 124.74 36.65 126.18 33.87L126.51 34.24C126.157 35.3925 125.482 36.42 124.564 37.2014C123.646 37.9828 122.524 38.4854 121.33 38.65C120.978 39.6035 120.328 40.4177 119.475 40.971C118.623 41.5243 117.614 41.7871 116.6 41.72C113.12 41.72 111.97 39.09 111.97 36.87C111.94 34 113.9 34 114.31 33.54ZM119 38.61C117.141 38.2205 115.507 37.1185 114.45 35.54C113.86 35.54 113.64 36.06 113.64 36.83C113.64 38.61 114.75 40.42 116.64 40.42C117.182 40.4367 117.713 40.2657 118.143 39.9358C118.573 39.6059 118.876 39.1375 119 38.61ZM118.19 29.61C117.172 31.3393 115.968 32.9522 114.6 34.42C115.038 35.324 115.676 36.1162 116.467 36.7366C117.257 37.3569 118.178 37.789 119.16 38C119.256 37.4249 119.307 36.843 119.31 36.26C119.31 34 118.53 31.62 118.16 29.58L118.19 29.61Z" fill="#0C647B"/>
<path d="M127.48 35.9402C127.382 36.3802 127.332 36.8295 127.33 37.2802C127.33 38.7902 127.96 40.3902 130.26 40.3902C133.4 40.3902 136.7 37.3902 138.55 33.8402L138.99 34.1702C136.99 38.6102 133.14 41.4602 129.48 41.4602C126.48 41.4602 124.97 39.5702 124.97 37.1702C124.97 32.7602 129.97 26.5102 134.36 26.5102C134.67 26.4599 134.987 26.4833 135.286 26.5784C135.586 26.6735 135.858 26.8378 136.082 27.0578C136.306 27.2779 136.475 27.5475 136.576 27.845C136.676 28.1425 136.705 28.4595 136.66 28.7702C136.66 32.5402 131.7 35.5402 127.48 35.9402ZM127.67 35.2402C130.29 34.3202 135.03 31.6902 135.03 28.5102C135.03 27.9502 134.88 27.6602 134.25 27.6602C131.89 27.6602 128.67 31.7302 127.67 35.2402Z" fill="#0C647B"/>
<path d="M148.39 30.0601C148.39 31.5101 147.68 32.7601 146.54 32.7601C146.33 32.7566 146.124 32.7053 145.936 32.61C145.749 32.5147 145.586 32.3779 145.46 32.2101C145.896 31.8578 146.246 31.4109 146.483 30.9032C146.721 30.3955 146.839 29.8404 146.83 29.2801C146.83 28.6901 146.65 28.3601 146.02 28.3601C143.39 28.3601 139.95 33.8001 139.95 37.4301C139.95 38.9401 140.54 40.5001 142.65 40.5001C145.58 40.5001 148.91 37.9101 150.5 33.8001L150.98 34.1701C149.28 38.6501 145.39 41.9001 141.8 41.9001C139.43 41.9001 137.66 40.3501 137.66 37.1701C137.66 32.1701 141.99 27.3201 145.76 27.3201C146.122 27.2925 146.486 27.3454 146.825 27.475C147.164 27.6046 147.47 27.8076 147.722 28.0695C147.973 28.3314 148.163 28.6457 148.279 28.9899C148.394 29.3341 148.432 29.6995 148.39 30.0601Z" fill="#0C647B"/>
<path d="M160.12 32.8001C160.12 31.5101 159.49 31.0201 158.71 31.0201C155.05 31.0201 153.71 41.2401 151.57 41.2401C150.64 41.2401 150.05 39.3501 150.05 37.3901C150.05 30.3201 157.9 13.3901 161.12 13.3901C162 13.3901 162.34 14.7201 162.34 15.7201C162.34 19.1601 158.19 27.1901 153.83 29.8201C152.944 32.1496 152.481 34.6181 152.46 37.1101C152.457 37.5312 152.481 37.952 152.53 38.3701C154.27 33.3001 156.75 28.7801 160.04 28.7801C162.04 28.7801 162.85 30.4901 162.85 32.1101C162.85 34.4101 161.26 36.5201 161.26 38.3301C161.26 39.3301 161.74 39.7401 162.37 39.7401C164.04 39.7401 166.67 37.0401 168.15 33.8201L168.63 34.2601C167.07 37.8901 164.37 40.7001 161.52 40.7001C161.198 40.7376 160.872 40.7053 160.563 40.6054C160.254 40.5055 159.971 40.3404 159.732 40.1212C159.493 39.9021 159.304 39.6341 159.178 39.3354C159.051 39.0367 158.991 38.7143 159 38.3901C159 36.8301 160.12 34.5801 160.12 32.8001ZM154.31 28.4001C157.71 25.6601 161.08 18.5901 161.08 16.7001C161.08 16.4801 161.08 16.4101 160.93 16.4101C160.19 16.4101 156.16 22.3701 154.31 28.4001Z" fill="#0C647B"/>
<path d="M168.7 30.4698C169.149 30.0055 169.756 29.7271 170.4 29.6898C170.536 29.6717 170.674 29.6851 170.803 29.729C170.933 29.7728 171.05 29.8459 171.147 29.9427C171.244 30.0394 171.317 30.1571 171.361 30.2867C171.405 30.4163 171.418 30.5542 171.4 30.6898C171.183 32.3575 170.788 33.9969 170.22 35.5798C172.22 32.5798 175.1 29.0698 177.91 29.0698C179.84 29.0698 180.65 30.7298 180.65 32.3998C180.65 34.6898 179.13 36.3998 179.13 38.2398C179.13 39.2398 179.61 39.6498 180.24 39.6498C182.09 39.6498 184.06 36.6498 185.42 33.8798L185.83 34.3598C184.28 37.9798 182.2 40.6098 179.43 40.6098C179.098 40.6558 178.76 40.628 178.44 40.5284C178.12 40.4287 177.825 40.2597 177.578 40.0334C177.331 39.8071 177.136 39.529 177.009 39.219C176.881 38.909 176.824 38.5747 176.84 38.2398C176.84 36.7298 177.91 34.8398 177.91 33.0998C177.91 31.7298 177.28 31.2898 176.43 31.2898C173.36 31.2898 169.96 37.1698 168.03 40.4298C167.656 40.4583 167.28 40.399 166.933 40.2566C166.586 40.1143 166.277 39.8928 166.03 39.6098C166.07 39.1298 168.66 33.6898 168.7 30.4698Z" fill="#0C647B"/>
<path d="M190.71 28.1002C190.71 29.3202 186.87 33.8002 186.87 37.2802C186.87 39.0502 187.46 39.5002 188.68 39.5002C190.34 39.5002 192.27 38.0502 194.38 33.8402L194.71 34.2102C193.27 38.4602 190.31 40.7902 187.42 40.7902C185.5 40.7902 184.57 39.4202 184.57 37.6802C184.57 34.8702 187.38 27.2902 189.9 27.2902C190.008 27.2844 190.116 27.3014 190.217 27.3401C190.318 27.3788 190.409 27.4382 190.486 27.5146C190.562 27.591 190.621 27.6826 190.66 27.7835C190.699 27.8844 190.716 27.9923 190.71 28.1002ZM190.34 22.6202C190.34 21.6202 191.86 20.7002 193.05 20.7002C193.79 20.7002 194.27 21.0002 194.27 21.8502C194.158 22.409 193.857 22.9125 193.419 23.2765C192.98 23.6405 192.43 23.843 191.86 23.8502C191.05 23.8502 190.34 23.4802 190.34 22.6202Z" fill="#0C647B"/>
<path d="M205.66 30.9999C205.651 30.7682 205.596 30.5407 205.497 30.3308C205.399 30.1209 205.259 29.9329 205.087 29.7781C204.914 29.6232 204.712 29.5046 204.493 29.4294C204.273 29.3541 204.041 29.3237 203.81 29.3399C199.45 29.3399 196.86 39.4799 196.41 40.3399C196.273 40.5481 196.086 40.7185 195.865 40.8356C195.645 40.9527 195.399 41.0126 195.15 41.0099C193.9 41.0099 193.86 39.2299 193.86 37.5299C193.86 29.7999 202.44 13.4399 205.07 13.4399C205.74 13.4399 206.22 14.5099 206.22 15.8499C206.22 19.2499 203.04 24.6199 198.67 27.2399C197.237 30.5981 196.411 34.1835 196.23 37.8299C197.78 33.8999 200.81 27.4699 204.52 27.4699C205.393 27.4699 206.229 27.8166 206.846 28.4336C207.463 29.0506 207.81 29.8874 207.81 30.7599C207.81 33.9399 204 35.0899 202.55 35.0899C202.66 35.8999 203.48 39.8599 205.44 39.8599C207.55 39.8599 209.44 37.1999 210.92 33.8599L211.29 34.2299C210.21 37.8599 207.29 41.2999 204.7 41.2999C201.89 41.2999 200.93 36.8899 200.93 34.6399C202 34.5799 205.66 33.5399 205.66 30.9999ZM199.3 25.7099C202.7 22.9699 204.96 18.6099 204.96 16.7099C204.96 16.4499 204.96 16.3799 204.85 16.3799C204.11 16.4099 201.44 20.7699 199.3 25.7299V25.7099Z" fill="#0C647B"/>
<path d="M18.62 11.27C18.5206 11.5305 18.4404 11.7979 18.38 12.07L17.82 14.37C17.59 15.37 17.32 16.56 17.01 17.95C16.7 19.34 16.38 20.89 16.01 22.59C15.64 24.29 15.35 26.13 15.1 28.06C14.99 29.06 14.88 30.06 14.85 30.99C14.8247 31.4697 14.8247 31.9504 14.85 32.43V32.76C14.8602 32.8676 14.8769 32.9745 14.9 33.08C14.9 33.34 14.99 33.61 15.04 33.88L15.2 34.6C15.27 34.85 15.32 35.1 15.39 35.35C15.46 35.6 15.52 35.84 15.61 36.08L15.72 36.44L15.85 36.8C16.0286 37.2738 16.2322 37.7378 16.46 38.19C16.6903 38.6558 16.944 39.1098 17.22 39.55C17.5 40.01 17.81 40.48 18.13 40.99C18.4707 41.5341 18.778 42.0985 19.05 42.68C19.345 43.2982 19.5762 43.9449 19.74 44.61C19.9036 45.2667 20.014 45.9356 20.07 46.61C20.07 46.93 20.07 47.26 20.07 47.61C20.07 47.77 20.07 47.93 20.07 48.09V48.56C20.07 48.88 20.07 49.19 20.07 49.5C20.07 49.81 20.07 50.12 19.99 50.42V50.68V50.9L20 51V51.13V51.39C19.94 51.72 19.88 52.03 19.8 52.34C19.65 52.95 19.48 53.54 19.3 54.12C18.5455 56.3038 17.6468 58.4352 16.61 60.5C16.12 61.5 15.61 62.45 15.11 63.39C14.8634 63.8567 14.6134 64.3167 14.36 64.77L13.6 66.1L12.85 67.39L12.1 68.63C11.61 69.43 11.1 70.21 10.66 70.95C10.22 71.69 9.70003 72.36 9.26003 73C8.82002 73.64 8.39002 74.3 7.99002 74.88L6.85003 76.52L5.85003 77.9C5.24003 78.72 4.76002 79.36 4.42002 79.8L3.90002 80.46C3.90002 80.46 4.40003 79.4 5.29003 77.56L9.00002 70L10.17 67.55L11.41 64.93L12 63.55C12.21 63.09 12.43 62.62 12.64 62.15C13.07 61.2 13.48 60.23 13.91 59.24C14.34 58.25 14.72 57.24 15.11 56.24C15.5 55.24 15.86 54.18 16.16 53.14C16.31 52.62 16.44 52.14 16.55 51.59C16.6094 51.3426 16.6561 51.0922 16.69 50.84V50.67V50.48V50.27V50.19C16.69 50.25 16.69 50.19 16.69 50.19V50.08C16.69 49.54 16.76 49 16.77 48.47V48.07C16.77 47.94 16.77 47.81 16.77 47.68C16.77 47.55 16.77 47.16 16.72 46.91C16.6733 46.4185 16.5932 45.9307 16.48 45.45C16.364 44.9869 16.2067 44.5351 16.01 44.1C15.7917 43.6337 15.548 43.1797 15.28 42.74C15 42.27 14.69 41.74 14.39 41.24C14.09 40.74 13.79 40.16 13.53 39.59C13.3199 39.0139 13.143 38.4263 13 37.83L12.86 37.39L12.69 37C12.61 36.71 12.55 36.42 12.48 36.12C12.41 35.82 12.36 35.54 12.31 35.25C12.26 34.96 12.22 34.66 12.18 34.36C12.14 34.06 12.11 33.82 12.08 33.55C12.05 33.28 12.08 33.22 12.08 33.06C12.08 32.9 12.08 32.75 12.08 32.59C12.077 32.0085 12.1104 31.4274 12.18 30.85C12.2941 29.7838 12.471 28.7253 12.71 27.68C13.1198 25.8124 13.6238 23.9667 14.22 22.15C14.77 20.47 15.32 18.95 15.83 17.62C16.34 16.29 16.83 15.14 17.25 14.2C17.67 13.26 18.01 12.54 18.25 12.05C18.3472 11.7784 18.4711 11.5171 18.62 11.27Z" fill="#0C647B"/>
<path d="M9 -1C9.02557 -0.952409 9.04569 -0.902093 9.06 -0.85C9.06 -0.74 9.15 -0.59 9.21 -0.38C9.35993 0.222719 9.44706 0.839339 9.47 1.46C9.50632 2.44703 9.39852 3.43408 9.15 4.39C9.07 4.66 8.99 4.95 8.9 5.24C8.81 5.53 8.67 5.83 8.55 6.13L8.11 7.03C7.94 7.33 7.75 7.63 7.56 7.94C7.51695 8.01784 7.46674 8.09149 7.41 8.16L7.25 8.38L6.92 8.83C6.81 8.98 6.71 9.12 6.59 9.26L6.27 9.67C5.84 10.23 5.39 10.8 5 11.39C4.60377 11.9564 4.26857 12.5631 4 13.2C3.876 13.5052 3.7757 13.8194 3.7 14.14C3.7 14.3 3.63 14.47 3.6 14.63C3.57 14.79 3.6 14.96 3.55 15.13C3.5 15.3 3.55 15.48 3.55 15.66C3.55 15.84 3.55 15.84 3.55 15.93V16.2V16.48V16.76C3.55 16.95 3.55 17.14 3.61 17.33C3.67 17.52 3.67 17.72 3.69 17.92L3.8 18.51L3.91 19.12C3.96 19.32 4.00001 19.52 4.04 19.73C4.41001 21.36 4.89 23.04 5.35 24.73L5.68 26.04C5.79 26.48 5.89 26.92 5.99 27.36C6.09 27.8 6.19 28.23 6.28 28.67C6.37 29.11 6.46 29.56 6.54 29.99C6.62 30.42 6.7 30.88 6.78 31.31C6.78 31.53 6.85 31.75 6.88 31.97C6.91 32.19 6.94 32.41 6.97 32.63C7.03 33.06 7.08 33.5 7.14 33.93L7.26 35.23C7.26 35.44 7.26 35.65 7.26 35.86V36.5C7.26 36.92 7.26 37.34 7.26 37.76V39C7.26 39.2 7.26 39.4 7.26 39.6V40.2L7.19 41.36C7.19 41.74 7.11 42.12 7.06 42.49L7 43.04V43.3V43.57L6.82 44.57C6.71 45.24 6.55 45.88 6.4 46.49L6.29 46.94C6.25933 47.0858 6.21925 47.2294 6.17 47.37C6.09 47.65 6.01 47.92 5.92 48.19C5.75 48.72 5.61 49.19 5.42 49.66C5.23 50.13 5.1 50.51 4.95 50.88L4.84 51.14L4.73 51.39L4.52 51.84C4.39 52.12 4.27 52.35 4.18 52.54L3.89 53.12L3.99 52.48C3.99 52.27 4.07 52.02 4.12 51.72L4.21 51.24V50.97V50.69C4.3 49.92 4.47 48.99 4.56 47.92C4.56 47.66 4.61 47.38 4.64 47.1C4.65029 46.9568 4.65029 46.8131 4.64 46.67V46.23C4.64 45.63 4.73 45.01 4.72 44.36V43.36V42.85C4.72 42.68 4.72 42.51 4.72 42.33C4.72 41.98 4.72 41.63 4.72 41.27C4.72 40.91 4.67 40.54 4.65 40.17C4.65 39.43 4.52 38.67 4.46 37.9C4.46 37.71 4.4 37.51 4.38 37.32L4.31 36.73L4.23 36.14C4.23 35.94 4.17 35.74 4.14 35.54C3.9 33.94 3.55 32.3 3.19 30.63L3 29.44C2.9 29.02 2.8 28.6 2.69 28.18C2.58 27.76 2.48 27.33 2.37 26.91C2.26 26.49 2.16 26.07 2.04 25.64C1.82 24.77 1.59 23.93 1.38 23.04C1.17 22.15 0.970003 21.28 0.800003 20.38C0.623467 19.4716 0.503239 18.5532 0.440005 17.63C0.360805 16.673 0.391 15.7101 0.530005 14.76C0.530005 14.52 0.620004 14.28 0.670004 14.04C0.720004 13.8 0.790005 13.56 0.870005 13.33C0.941831 13.0979 1.02868 12.8708 1.13 12.65C1.23 12.43 1.32 12.21 1.44 12C1.65409 11.5978 1.89461 11.2103 2.16 10.84C2.40146 10.4926 2.66186 10.1588 2.94 9.84C3.48 9.22 4.01 8.67 4.55 8.16L5 7.78C5.1274 7.66763 5.24763 7.5474 5.36 7.42L5.7 7.08L5.87 6.92L6 6.75C6.76962 5.93101 7.41636 5.00469 7.92 4C8.31462 3.19286 8.60688 2.33959 8.79 1.46C8.91774 0.861396 8.98806 0.251966 9 -0.36C9 -0.77 9 -1 9 -1Z" fill="#0C647B"/>
</svg>
