<svg width="211" height="80" fill="none" xmlns="http://www.w3.org/2000/svg"><path d="M39.54 60.93l.59-.13a.31.31 0 00.16-.1.25.25 0 00.06-.17v-5.19a.28.28 0 00-.06-.18.31.31 0 00-.16-.1l-.59-.12v-.22h6.32v.22l-.6.12a.22.22 0 00-.15.1.24.24 0 00-.07.18v5.19a.238.238 0 00.07.18.24.24 0 00.15.09l.6.13v.22h-2.47v-.22l.61-.13a.25.25 0 00.16-.1.25.25 0 00.06-.17v-5.46h-3v5.46a.28.28 0 00.06.18.26.26 0 00.16.09l.59.13v.22h-2.49v-.22zm6.95.29a.72.72 0 01-.19 0h-.16l.15-.76H47s.11 0 .18-.13c.076-.111.143-.228.2-.35.06-.15.13-.33.2-.53s.12-.42.17-.65c.05-.23.09-.47.12-.72.02-.25.02-.5 0-.75a1.005 1.005 0 000-.19.729.729 0 000-.12.18.18 0 00-.07-.05h-.09l-.54-.11v-.21h4.06v.21l-.5.11a.29.29 0 00-.21.27v3.34a.27.27 0 00.06.17.23.23 0 00.15.09l.5.12v.21H49v-.21l.49-.12a.2.2 0 00.15-.09.24.24 0 00.06-.17V57h-1.33a10.86 10.86 0 01-.16 1.84 6.07 6.07 0 01-.42 1.34 2.3 2.3 0 01-.59.81 1.09 1.09 0 01-.71.23zm7.56-.34c-.12.091-.252.168-.39.23a1.95 1.95 0 01-.39.11h-.36a1.06 1.06 0 01-.48-.1 1 1 0 01-.37-.26 1.09 1.09 0 01-.25-.38 1.44 1.44 0 01-.08-.46 1.19 1.19 0 01.1-.51 1.18 1.18 0 01.27-.4c.113-.115.245-.21.39-.28.142-.083.293-.15.45-.2.154-.046.311-.083.47-.11h1.05v-.82a1.816 1.816 0 000-.37.55.55 0 00-.12-.23.57.57 0 00-.21-.13 1.32 1.32 0 00-.3 0 1.162 1.162 0 00-.45.08c-.14.05-.278.11-.41.18l-.35.24-.28.21h-.11l-.23-.76.3-.16c.117-.051.237-.094.36-.13l.41-.1c.15-.01.3-.01.45 0a2.3 2.3 0 01.58.07c.196.052.382.137.55.25.163.122.296.28.39.46.107.218.158.458.15.7v2.44a.372.372 0 000 .12.25.25 0 00.08.1l.12.06H56v.22l-.17.12c-.073.05-.15.093-.23.13l-.26.1a.771.771 0 01-.25 0 1 1 0 01-.31 0 .46.46 0 01-.23-.12.59.59 0 01-.14-.23 1.31 1.31 0 010-.37 1.566 1.566 0 01-.36.3zm.37-2.1a4.349 4.349 0 00-.76.06 2.15 2.15 0 00-.59.19 1 1 0 00-.37.34.881.881 0 00-.13.49c0 .14.023.278.07.41a.77.77 0 00.19.27.66.66 0 00.26.14c.09.014.18.014.27 0h.28c.1-.02.197-.05.29-.09l.27-.15c.08-.063.15-.137.21-.22l.01-1.44zm5.46 1.38v.33a2.8 2.8 0 01-.72.53 2.17 2.17 0 01-.47.17 1.772 1.772 0 01-.52.07 1.779 1.779 0 01-1.43-.67 2.342 2.342 0 01-.4-.71 2.652 2.652 0 01-.13-.85 2.814 2.814 0 01.07-.65c.039-.206.11-.406.21-.59a2.23 2.23 0 01.34-.52c.138-.158.3-.293.48-.4.18-.123.38-.215.59-.27.238-.065.483-.098.73-.1a2 2 0 01.46 0c.111.017.22.05.32.1a1 1 0 01.23.11l.17.1-.15.73h-.1l-.34-.23a2.39 2.39 0 00-.71-.36 1.419 1.419 0 00-.42-.06h-.18a.489.489 0 00-.17.06l-.16.1-.12.12a.997.997 0 00-.15.21 3.365 3.365 0 00-.14.32c0 .13-.07.27-.1.42a2.677 2.677 0 000 .5 3.16 3.16 0 00.1.85c.059.227.16.441.3.63.131.17.303.304.5.39.217.095.453.143.69.14.13 0 .257-.02.38-.06a2.01 2.01 0 00.34-.14l.28-.18.21-.17.01.08zm1.27.78l.5-.12a.29.29 0 00.15-.09.27.27 0 00.06-.17V57H61a.439.439 0 00-.25.06.36.36 0 00-.12.16l-.28.8h-.24v-1.39h4.21V58h-.23l-.28-.8a.36.36 0 00-.12-.16.44.44 0 00-.25-.06h-.83v3.6a.26.26 0 00.21.26l.5.12v.21h-2.2l.03-.23zm3.63 0l.5-.12a.29.29 0 00.15-.09.27.27 0 00.06-.17v-3.34a.24.24 0 00-.06-.17.31.31 0 00-.15-.1l-.5-.11v-.21h2.14v.21l-.45.11a.38.38 0 00-.15.09.28.28 0 00-.06.18v3L68.48 57v-.35H70v.21l-.5.11a.31.31 0 00-.15.1.24.24 0 00-.06.17v3.34a.27.27 0 00.06.17c.04.045.092.076.15.09l.5.12v.21h-2.19v-.21l.45-.12a.26.26 0 00.21-.26v-3l-2.23 3.22v.34h-1.46v-.2zm8.22 0l.5-.12a.26.26 0 00.21-.26V59l-.33.18-.35.12a2.361 2.361 0 01-.34.08h-.31a1.56 1.56 0 01-1.09-.33 1.218 1.218 0 01-.35-.92v-1a.24.24 0 00-.06-.17.27.27 0 00-.15-.1l-.5-.11v-.21h2.15v.21l-.45.11a.27.27 0 00-.15.09.28.28 0 00-.06.18v.69a1.317 1.317 0 000 .41.73.73 0 00.43.53 1.1 1.1 0 00.43.08h.79l.29-.08v-1.54a.28.28 0 00-.06-.18.382.382 0 00-.15-.09l-.45-.11v-.21h2.2v.21l-.5.11a.31.31 0 00-.15.1.24.24 0 00-.06.17v3.34a.27.27 0 00.06.17c.04.045.092.076.15.09l.5.12v.21H73v-.21zm6.48-.77v.34c-.1.097-.207.188-.32.27a2.865 2.865 0 01-.42.24 3.398 3.398 0 01-.48.18 2.39 2.39 0 01-.54.06 2.228 2.228 0 01-.83-.15 1.69 1.69 0 01-.64-.45 2.088 2.088 0 01-.43-.74 3.19 3.19 0 01-.14-1 2.787 2.787 0 01.14-.91 2.28 2.28 0 01.41-.77c.183-.219.407-.399.66-.53a1.93 1.93 0 01.88-.19 1.76 1.76 0 01.74.15c.203.099.387.234.54.4.15.164.262.359.33.57.075.205.113.422.11.64v.19a.25.25 0 000 .08v.08h-3c-.031.55.1 1.096.38 1.57a1.31 1.31 0 001.15.55c.162.001.323-.02.48-.06.133-.037.263-.084.39-.14l.31-.18.23-.18.05-.02zm-.82-1.86c.02-.19.02-.38 0-.57a1.432 1.432 0 00-.16-.48.88.88 0 00-.29-.34.76.76 0 00-.44-.12.9.9 0 00-.46.11 1.1 1.1 0 00-.35.3 1.797 1.797 0 00-.25.48c-.07.2-.118.409-.14.62h2.09zm5 1.85v.33a2.8 2.8 0 01-.72.53 2.17 2.17 0 01-.47.17 1.772 1.772 0 01-.52.07 1.78 1.78 0 01-1.43-.67 2.336 2.336 0 01-.4-.71A2.648 2.648 0 0180 59a2.804 2.804 0 01.07-.65c.039-.207.11-.406.21-.59a2.59 2.59 0 01.34-.52 2.37 2.37 0 011.08-.67 2.72 2.72 0 01.72-.1 2 2 0 01.46 0c.114.018.225.052.33.1l.22.11.17.1-.14.73h-.11l-.35-.15a2.39 2.39 0 00-.71-.36 1.422 1.422 0 00-.42-.06h-.18a.49.49 0 00-.17.06l-.16.1-.12.12a.997.997 0 00-.15.21c-.053.102-.096.21-.13.32a2.582 2.582 0 00-.11.42 2.66 2.66 0 000 .5c-.005.286.028.572.1.85.062.226.164.439.3.63.131.17.303.304.5.39.217.095.453.143.69.14.13.001.258-.02.38-.06a2.01 2.01 0 00.34-.14l.28-.18.21-.17.01.03zm3.86 1.03a.481.481 0 01-.32-.21 1.404 1.404 0 01-.14-.22l-.88-1.6-.75-.16v1.56a.26.26 0 00.21.26l.45.12v.21H84v-.21l.5-.12a.29.29 0 00.15-.09.27.27 0 00.06-.17v-3.34a.24.24 0 00-.06-.17.31.31 0 00-.15-.1l-.5-.11v-.21h2.14v.21l-.45.11a.38.38 0 00-.15.09.28.28 0 00-.06.18v1.51h.41c.106.016.214.016.32 0a.62.62 0 00.26-.17 1.48 1.48 0 00.21-.35 3.96 3.96 0 00.17-.43c0-.15.11-.29.16-.43.041-.12.102-.23.18-.33l.19-.21.19-.13.21-.07h.73l-.14.73h-.61a.28.28 0 00-.19.07.858.858 0 00-.15.17c-.047.078-.09.158-.13.24-.042.1-.092.197-.15.29 0 .1-.11.2-.17.3a1.83 1.83 0 01-.23.26l1.18 2a.47.47 0 00.14.14.44.44 0 00.17.07l.5.13v.21l-.91.05a1 1 0 01-.3-.08zm1.48-.25l.5-.12a.29.29 0 00.15-.09.27.27 0 00.06-.17v-3.34a.24.24 0 00-.06-.17.31.31 0 00-.15-.1l-.5-.11v-.21h2.14v.21l-.44.11a.35.35 0 00-.16.09.27.27 0 000 .18v3L92.67 57v-.35h1.46v.21l-.5.11a.31.31 0 00-.15.1.24.24 0 00-.06.17v3.34a.27.27 0 00.06.17.29.29 0 00.15.09l.5.12v.21H92v-.21l.45-.12a.26.26 0 00.21-.26v-3l-2.23 3.22v.34H89v-.2zm5.58 0l.5-.12a.29.29 0 00.15-.09.27.27 0 00.06-.17v-3.34a.24.24 0 00-.06-.17.31.31 0 00-.15-.1l-.5-.11v-.21h2.14v.21l-.45.11a.38.38 0 00-.15.09.28.28 0 00-.06.18v3L98.29 57v-.35h1.46v.21l-.5.11a.31.31 0 00-.15.1.24.24 0 00-.06.17v3.34a.27.27 0 00.06.17.29.29 0 00.15.09l.5.12v.21h-2.14v-.21l.45-.12a.26.26 0 00.21-.26v-3l-2.23 3.22v.34h-1.47l.01-.2zm2.64-5.34a2.1 2.1 0 01-.66-.09 1.39 1.39 0 01-.44-.22.997.997 0 01-.25-.29.639.639 0 01-.07-.28v-.3h.73v.65a.27.27 0 00.11.1.577.577 0 00.18.08.67.67 0 00.2 0h.39a.67.67 0 00.2 0 .53.53 0 00.17-.08.4.4 0 00.12-.1v-.65h.73v.3a.64.64 0 01-.07.28.811.811 0 01-.24.29 1.51 1.51 0 01-.44.22 2.1 2.1 0 01-.66.09zm5.13 5.34l.36-.12a.844.844 0 00.23-.12.676.676 0 00.15-.13l1.26-1.57-1.25-1.81a.624.624 0 00-.1-.19.572.572 0 00-.22-.11l-.34-.09v-.21h2.1v.21l-.61.14.73 1.12.25.39 1.03-1.45-.59-.16v-.21H107v.21l-.37.11a.78.78 0 00-.22.12 1.128 1.128 0 00-.15.13l-1.2 1.53 1.3 1.86a.616.616 0 00.13.15.636.636 0 00.22.1l.34.1v.21h-2.1v-.21l.62-.15-.78-1.17-.25-.39-1.13 1.54.59.17v.21h-1.64l-.01-.21zm4.9 0l.49-.12a.281.281 0 00.16-.09.35.35 0 000-.17v-3.34a.29.29 0 000-.17.29.29 0 00-.16-.1l-.49-.11v-.21h2.14v.21l-.45.11a.38.38 0 00-.15.09.28.28 0 00-.06.18v3L111 57v-.35h1.47v.21l-.5.11a.29.29 0 00-.16.1.293.293 0 00-.05.17v3.34a.34.34 0 00.05.17.281.281 0 00.16.09l.5.12v.21h-2.15v-.21l.45-.12a.259.259 0 00.21-.26v-3l-2.24 3.22v.34h-1.46l-.03-.2zm5.52 2.2l.52-.12a.382.382 0 00.15-.09.28.28 0 00.06-.18v-5.27a.364.364 0 00-.06-.21.608.608 0 00-.23-.14l-.43-.15v-.12l1.47-.33v.75l.1-.13c.105-.138.23-.259.37-.36a1.917 1.917 0 01.73-.28h.28a1.65 1.65 0 01.75.16c.22.107.412.265.56.46.155.21.27.448.34.7.082.282.123.576.12.87.002.338-.046.675-.14 1a2.588 2.588 0 01-.42.81 1.999 1.999 0 01-1.57.74 1.251 1.251 0 01-.35 0 .997.997 0 01-.3-.1 1.399 1.399 0 01-.24-.14 1.135 1.135 0 01-.2-.17v2a.28.28 0 00.06.18.24.24 0 00.15.09l.65.12v.21h-2.37v-.3zm2.51-2.29c.216.006.43-.046.62-.15a1.3 1.3 0 00.44-.4c.12-.177.208-.373.26-.58.052-.23.079-.465.08-.7 0-.266-.027-.53-.08-.79a1.742 1.742 0 00-.25-.64 1.153 1.153 0 00-.43-.42 1.22 1.22 0 00-.63-.15h-.24a1.39 1.39 0 00-.27.08 1.836 1.836 0 00-.27.15c-.089.07-.167.155-.23.25v3a1.281 1.281 0 00.49.21l.28.06a1.1 1.1 0 00.23.08zm2.72 1.58h.13a.74.74 0 00.18.09l.22.08.23.06h.34l.16-.09a.857.857 0 00.22-.2c.074-.087.134-.185.18-.29.068-.126.128-.256.18-.39.06-.15.12-.32.2-.51l-.32-.65-1.41-3.38a.274.274 0 00-.11-.14l-.2-.09-.32-.09v-.21h2.08v.21L119 57l1.07 2.61.23.58 1.16-3.19-.66-.17v-.21h1.64v.21l-.33.12-.2.09a.197.197 0 00-.071.057.187.187 0 00-.039.083L120.07 62a2.876 2.876 0 01-.33.7 1.875 1.875 0 01-.36.41 1.1 1.1 0 01-.4.18 1.837 1.837 0 01-.41 0h-.45l-.17-.07-.14-.06.19-.73z" fill="#656565"/><path d="M122.42 63.14l.51-.12a.35.35 0 00.16-.09.344.344 0 000-.18v-5.27a.365.365 0 00-.06-.21.487.487 0 00-.22-.14l-.43-.15v-.12l1.47-.33v.75l.1-.13c.105-.137.23-.258.37-.36.118-.079.246-.143.38-.19.113-.043.23-.073.35-.09h.27c.262-.006.522.049.76.16.217.108.406.265.55.46.158.21.276.448.35.7.082.283.123.576.12.87a3.2 3.2 0 01-.15 1 2.38 2.38 0 01-.41.81c-.182.227-.41.411-.67.54-.279.14-.588.21-.9.2a1.364 1.364 0 01-.36 0 .994.994 0 01-.3-.1l-.24-.14a1.013 1.013 0 01-.19-.17v2a.28.28 0 00.06.18c.037.048.09.08.15.09l.64.12v.21h-2.36l.05-.3zm2.5-2.29c.219.005.436-.047.63-.15.176-.097.326-.234.44-.4.117-.177.202-.373.25-.58.06-.228.09-.463.09-.7 0-.265-.027-.53-.08-.79a2.2 2.2 0 00-.25-.64 1.226 1.226 0 00-.43-.42 1.282 1.282 0 00-.63-.15h-.24a1.39 1.39 0 00-.54.23.904.904 0 00-.23.25v3a1.325 1.325 0 00.49.21c.091.03.185.05.28.06.07.035.144.062.22.08zm2.7.09l.5-.12a.23.23 0 00.15-.09.27.27 0 00.06-.17v-3.34a.29.29 0 00-.21-.27l-.5-.11v-.21h3.79V58h-.23l-.33-.85a.361.361 0 00-.12-.16.44.44 0 00-.25-.06h-1.36v3.6a.24.24 0 00.06.17.207.207 0 00.15.09l.54.12v.21h-2.25v-.18zm6.12-.01l.4-.12a.34.34 0 00.16-.1.448.448 0 00.11-.17l1.86-4.85.56-1.07h.17l2.29 5.92a.448.448 0 00.11.17.37.37 0 00.17.1l.4.12v.22h-2.27v-.22l.82-.16-.78-2h-2.26l-.72 2 .79.17v.22h-1.81v-.23zm3.86-2.53l-.77-2-.23-.64-1 2.6 2 .04z" fill="#656565"/><path d="M139.94 60.94l.5-.12a.23.23 0 00.15-.09.27.27 0 00.06-.17v-3.34a.29.29 0 00-.21-.27l-.5-.11v-.21h2.15v.21l-.45.11a.323.323 0 00-.15.09.28.28 0 00-.06.18v1.42h2.15v-1.42a.285.285 0 00-.06-.18.38.38 0 00-.15-.09l-.45-.11v-.21h2.14v.21l-.5.11a.309.309 0 00-.15.1.24.24 0 00-.06.17v3.34a.27.27 0 00.06.17.289.289 0 00.15.09l.5.12v.21h-2.14v-.21l.45-.12a.259.259 0 00.21-.26v-1.62h-2.15v1.62a.24.24 0 00.06.17.207.207 0 00.15.09l.45.12v.21h-2.15v-.21zm5.45-.13h.47c.095-.09.179-.19.25-.3a3.39 3.39 0 00.26-.47c.08-.18.16-.38.24-.59.082-.223.152-.45.21-.68.05-.23.1-.47.13-.71.037-.238.053-.479.05-.72a1.005 1.005 0 000-.19.345.345 0 00-.05-.12.18.18 0 00-.07-.05h-.08l-.5-.11v-.21h4.11v.21l-.5.11a.309.309 0 00-.15.1.24.24 0 00-.06.17v3.59h.76v1.8h-.3l-.42-1.29a.207.207 0 00-.031-.08.199.199 0 00-.059-.06.21.21 0 00-.13 0h-3.18a.22.22 0 00-.14 0 .339.339 0 00-.09.14l-.42 1.29h-.29l-.01-1.83zm3.52 0V57h-1.48c0 .445-.033.89-.1 1.33-.053.368-.13.732-.23 1.09-.088.295-.205.58-.35.85a2.762 2.762 0 01-.4.59l2.56-.05zm1.85 2.33l.51-.12a.35.35 0 00.16-.09.344.344 0 000-.18v-5.27a.365.365 0 00-.06-.21.487.487 0 00-.22-.14l-.43-.15v-.12l1.47-.33v.75l.1-.13c.105-.137.23-.258.37-.36.118-.079.246-.143.38-.19.11-.041.224-.071.34-.09h.28c.262-.006.522.049.76.16.217.108.406.265.55.46.158.21.276.448.35.7.082.283.123.576.12.87a3.23 3.23 0 01-.15 1 2.38 2.38 0 01-.41.81c-.182.227-.41.411-.67.54-.279.14-.588.21-.9.2-.12.016-.241.016-.36 0a.994.994 0 01-.3-.1l-.24-.14a1.013 1.013 0 01-.19-.17v2a.28.28 0 00.06.18c.037.048.09.08.15.09l.64.12v.21h-2.36l.05-.3zm2.5-2.29c.219.005.436-.047.63-.15.176-.097.326-.234.44-.4.117-.177.202-.373.25-.58.06-.228.09-.463.09-.7 0-.265-.027-.53-.08-.79a2.2 2.2 0 00-.25-.64 1.226 1.226 0 00-.43-.42 1.282 1.282 0 00-.63-.15L153 57a1.37 1.37 0 00-.54.23.904.904 0 00-.23.25v3a1.325 1.325 0 00.49.21c.091.03.185.05.28.06.082.045.169.08.26.1zm6.54-.68v.34l-.33.27a2.79 2.79 0 01-.41.24c-.159.07-.323.13-.49.18-.174.04-.352.06-.53.06a2.24 2.24 0 01-.84-.15 1.686 1.686 0 01-.64-.45 2.229 2.229 0 01-.42-.74 3.17 3.17 0 01-.15-1c.001-.309.048-.615.14-.91a2.29 2.29 0 01.41-.77c.182-.219.407-.4.66-.53a2 2 0 01.88-.19 1.72 1.72 0 01.74.15c.205.096.389.232.54.4.15.164.262.358.33.57.075.205.112.422.11.64v.27a.268.268 0 000 .08h-3c-.032.55.101 1.096.38 1.57a1.305 1.305 0 001.15.55c.162 0 .323-.02.48-.06a2.48 2.48 0 00.39-.14l.31-.18a2.68 2.68 0 00.23-.18l.06-.02zm-.8-1.86a3.39 3.39 0 000-.57 1.707 1.707 0 00-.17-.48.884.884 0 00-.29-.34.75.75 0 00-.43-.12.869.869 0 00-.46.11.996.996 0 00-.36.3 1.811 1.811 0 00-.25.48 3.39 3.39 0 00-.14.62h2.1zm1.28 2.63l.5-.12a.292.292 0 00.15-.09.27.27 0 00.06-.17v-3.34a.24.24 0 00-.06-.17.31.31 0 00-.15-.1l-.5-.11v-.21h2.14v.21L162 57a.382.382 0 00-.15.09.28.28 0 00-.06.18v3L164 57v-.35h1.47v.21L165 57a.27.27 0 00-.15.1.24.24 0 00-.06.17v3.34a.26.26 0 00.21.26l.5.12v.21h-2.2v-.21l.45-.12a.211.211 0 00.15-.09.24.24 0 00.06-.17v-3l-2.23 3.22v.34h-1.47l.02-.23zm2.63-5.34a2.15 2.15 0 01-.66-.09 1.328 1.328 0 01-.43-.22.751.751 0 01-.25-.29.67.67 0 01-.08-.28v-.3h.73v.65c.033.04.074.075.12.1a.524.524 0 00.17.08.67.67 0 00.2 0h.4a.67.67 0 00.2 0 .524.524 0 00.17-.08.401.401 0 00.12-.1v-.65h.73v.3a.67.67 0 01-.08.28.805.805 0 01-.24.29 1.328 1.328 0 01-.43.22 2.217 2.217 0 01-.67.09zm5.37 5.33l.59-.13a.27.27 0 00.16-.1.251.251 0 00.06-.17v-5.19a.28.28 0 00-.22-.28l-.59-.12v-.22h6.32v.22l-.59.12a.21.21 0 00-.16.1.28.28 0 00-.06.18v5.19a.28.28 0 00.06.18.24.24 0 00.16.09l.59.13v.22h-2.47v-.22l.6-.13a.25.25 0 00.15-.1.223.223 0 00.054-.077.226.226 0 00.016-.093v-5.46h-3v5.46a.28.28 0 00.06.18c.044.05.105.081.17.09l.58.13v.22h-2.46l-.02-.22zm9.13-.05a2.008 2.008 0 01-.39.23c-.126.05-.257.086-.39.11h-.36a1.06 1.06 0 01-.48-.1 1.12 1.12 0 01-.62-.64 1.228 1.228 0 01-.09-.46c0-.175.034-.348.1-.51.069-.147.16-.282.27-.4a1.77 1.77 0 01.39-.28c.147-.081.301-.148.46-.2.151-.046.305-.083.46-.11h1.02v-.82a1.76 1.76 0 000-.37.533.533 0 00-.33-.36 1.422 1.422 0 00-.31 0c-.151-.003-.3.024-.44.08a2.537 2.537 0 00-.41.18l-.36.24-.28.21h-.1l-.14-.73.3-.16c.117-.051.237-.094.36-.13l.4-.1c.153-.01.307-.01.46 0 .195 0 .39.023.58.07.193.05.376.135.54.25a1.293 1.293 0 01.54 1.16v2.44a.222.222 0 000 .12c.017.037.041.07.07.1l.12.06h.62v.22l-.18.12a1.147 1.147 0 01-.22.13l-.26.1a.765.765 0 01-.25 0 .999.999 0 01-.32 0 .428.428 0 01-.22-.12.583.583 0 01-.14-.23 1.274 1.274 0 010-.37 1.59 1.59 0 01-.4.27zm.37-2.1a4.54 4.54 0 00-.77.06 2.078 2.078 0 00-.58.19 1 1 0 00-.37.34.873.873 0 00-.13.49.99.99 0 00.07.41.77.77 0 00.19.27.618.618 0 00.25.14.995.995 0 00.28 0h.28a1.346 1.346 0 00.55-.24.92.92 0 00.22-.22l.01-1.44zm5.46 1.38v.33c-.1.1-.207.194-.32.28a3.917 3.917 0 01-.4.25c-.15.073-.308.13-.47.17-.172.05-.351.073-.53.07a1.79 1.79 0 01-.81-.18 1.856 1.856 0 01-.62-.49 2.128 2.128 0 01-.39-.71 2.67 2.67 0 01-.14-.85c.003-.218.027-.436.07-.65.047-.204.118-.402.21-.59.096-.187.213-.361.35-.52a2 2 0 01.47-.4c.184-.122.387-.214.6-.27.238-.066.483-.1.73-.1a2 2 0 01.46 0c.11.02.218.053.32.1.08.029.157.066.23.11l.17.1-.15.73h-.11l-.33-.23a2.386 2.386 0 00-.71-.36 1.435 1.435 0 00-.43-.06.51.51 0 00-.17 0 .64.64 0 00-.18.06l-.15.1-.13.12a1.578 1.578 0 00-.14.21c-.056.102-.103.21-.14.32a2.627 2.627 0 00-.1.42 2.707 2.707 0 00-.05.5 3.58 3.58 0 00.1.85c.062.228.168.442.31.63.131.17.303.304.5.39.217.096.453.144.69.14.129 0 .257-.02.38-.06.115-.034.226-.081.33-.14l.29-.18.2-.17.06.08zm4.12.01v.34l-.33.27a2.34 2.34 0 01-.41.24 3.12 3.12 0 01-.49.18c-.174.04-.352.06-.53.06a2.24 2.24 0 01-.84-.15 1.686 1.686 0 01-.64-.45 2.229 2.229 0 01-.42-.74 3.17 3.17 0 01-.15-1c.001-.309.048-.615.14-.91.09-.279.229-.54.41-.77.183-.219.407-.4.66-.53a2 2 0 01.88-.19 1.72 1.72 0 01.74.15c.206.093.391.23.54.4.15.164.262.358.33.57.078.204.119.421.12.64.005.03.005.06 0 .09v.18a.268.268 0 000 .08h-3c-.032.55.101 1.096.38 1.57a1.305 1.305 0 001.15.55c.162 0 .323-.02.48-.06a3.01 3.01 0 00.4-.14 2.632 2.632 0 00.53-.36l.05-.02zm-.82-1.86a3.39 3.39 0 000-.57 2.083 2.083 0 00-.16-.48 1.001 1.001 0 00-.3-.34.75.75 0 00-.43-.12.869.869 0 00-.46.11c-.142.07-.265.173-.36.3a1.811 1.811 0 00-.25.48 3.39 3.39 0 00-.14.62h2.1zm3.91 2.63l.5-.12a.258.258 0 00.152-.092.258.258 0 00.058-.168V59a2.704 2.704 0 01-.33.18l-.35.12a2.358 2.358 0 01-.34.08h-.31a1.56 1.56 0 01-1.09-.33 1.217 1.217 0 01-.35-.92v-1a.241.241 0 00-.06-.17.27.27 0 00-.15-.1l-.5-.11v-.21h2.15v.21l-.45.11a.27.27 0 00-.15.09.28.28 0 00-.06.18v.69a1.32 1.32 0 00.05.41.728.728 0 00.43.53c.136.055.283.082.43.08h.79l.29-.08v-1.54a.28.28 0 00-.06-.18.38.38 0 00-.1-.04l-.45-.11v-.21h2.14v.21l-.5.11a.31.31 0 00-.15.1.241.241 0 00-.06.17v3.34a.27.27 0 00.06.17.287.287 0 00.15.09l.5.12v.21h-2.19l-.05-.26zm2.64 0l.5-.12a.293.293 0 00.15-.09.27.27 0 00.06-.17v-3.34a.24.24 0 00-.06-.17.309.309 0 00-.15-.1l-.5-.11v-.21h2.14v.21l-.44.11a.35.35 0 00-.16.09.344.344 0 000 .18v1.42h2.15v-1.42a.28.28 0 00-.06-.18.38.38 0 00-.15-.09l-.45-.11v-.21h2.14v.21l-.5.11a.309.309 0 00-.15.1.24.24 0 00-.06.17v3.34a.27.27 0 00.06.17c.04.045.092.076.15.09l.5.12v.21h-2.14v-.21l.45-.12a.259.259 0 00.21-.26v-1.62h-2.15v1.62a.29.29 0 000 .17.24.24 0 00.16.09l.44.12v.21h-2.14v-.21zm5.57 0l.5-.12a.293.293 0 00.15-.09.27.27 0 00.06-.17v-3.34a.24.24 0 00-.06-.17.309.309 0 00-.15-.1l-.5-.11v-.21h2.14v.21l-.45.11a.38.38 0 00-.15.09.28.28 0 00-.06.18v3l2.22-3.22v-.35h1.47v.21l-.5.11a.309.309 0 00-.15.1.24.24 0 00-.06.17v3.34a.27.27 0 00.06.17c.04.045.092.076.15.09l.5.12v.21h-2.14v-.21l.45-.12a.259.259 0 00.21-.26v-3l-2.23 3.22v.34h-1.47l.01-.2zm9.19.25a.483.483 0 01-.32-.21 1.452 1.452 0 01-.14-.22l-.89-1.6-.74-.16v1.56a.259.259 0 00.21.26l.45.12v.21h-2.14v-.21l.5-.12a.293.293 0 00.15-.09.27.27 0 00.06-.17v-3.34a.24.24 0 00-.06-.17.309.309 0 00-.15-.1l-.5-.11v-.21h2.14v.21L206 57a.38.38 0 00-.15.09.28.28 0 00-.06.18v1.51h.41c.106.016.214.016.32 0a.62.62 0 00.26-.17c.086-.106.157-.224.21-.35.06-.14.12-.29.17-.43.05-.14.1-.29.16-.43.041-.12.102-.23.18-.33l.19-.21.19-.13.21-.07h.73l-.14.73H208a.28.28 0 00-.19.07.858.858 0 00-.15.17 2.708 2.708 0 00-.13.24c0 .1-.09.19-.15.29-.06.1-.11.2-.17.3a2.792 2.792 0 01-.23.26l1.18 2a.386.386 0 00.14.14.44.44 0 00.17.07l.49.13v.21l-.9.05a.996.996 0 01-.21-.13z" fill="#656565"/><path d="M51 27.62c-4 0-7.51 6.92-7.51 9.77 0 1.11.52 1.77 1.34 1.77 2 0 5.62-4 8-10.17 2.74-7.14 6.07-15.8 8.1-15.8a.792.792 0 01.74.85c0 2.33-8.51 15.87-8.51 23.2 0 1.41 0 2.07.85 2.07 1.52 0 4.15-2.11 5.7-5.47l.44.33C58.7 38 55.48 40.79 53 40.79c-1.85 0-2.45-1.48-2.45-2.77.084-1.356.323-2.698.71-4-2.41 4-5.3 6.88-7.55 6.88a2.83 2.83 0 01-2.78-3.11c0-4.1 5.37-11.32 10-11.32 1 0 1.62.37 1.62 1.15a2.245 2.245 0 01-.07.51 1.65 1.65 0 00-1.48-.51z" fill="#0C647B"/><path d="M59.07 35.13a53.367 53.367 0 003-7 1.2 1.2 0 01-.37-.89 2.63 2.63 0 011.55-2.51c.52 0 .52.63.52.88s-.41 1.23-.41 1.37c0 1.37 3.78 2 3.78 5.15 0 2.25-1.85 4.7-1.85 6.25a1.001 1.001 0 001.11 1.11c2.33 0 5.36-3.37 6.29-5.51l.48.37c-1.41 3.14-4.59 6.47-7.74 6.47a2.4 2.4 0 01-2.7-2.4c0-2.19 2-5 2-6.92 0-1.59-1.15-2.15-2.07-2.81a59.704 59.704 0 01-3.3 7.1l-.29-.66zm13.62 4.07c0-.81 1.18-1.52 2.14-1.52.59 0 1 .23 1 .89a2 2 0 01-1.92 1.63c-.67 0-1.22-.3-1.22-1zm12.5-10.32c-1.48 5.07-2.85 10.25-4 14.17-1.26 0-2.56-.78-2.56-1.85.082-.687.257-1.36.52-2 3.11-9.65 5.29-16.35 9.1-25-2.85.55-4.73 2-5.14 2-.41 0-1.15-.63-1.15-1a21.999 21.999 0 018.18-2c4.37 0 9.51 2.4 9.51 7.14 0 7.73-11.69 8.55-14.1 8.55l-.36-.01zM90.48 14a92.272 92.272 0 00-5.14 14.32c5.44-.3 11.84-2.93 11.84-8.59 0-4.03-3.18-5.73-6.7-5.73zm17.87 18.91c0 .85-2.14 3.37-2.14 5.14 0 .74.37 1.63 1.26 1.63 1.33 0 3.7-1.92 5.92-5.84l.37.37c-1.56 4-4.7 6.73-7.33 6.73a2.503 2.503 0 01-2.483-1.567 2.504 2.504 0 01-.177-1.023c.002-.36.039-.718.11-1.07-2.15 2.85-3.78 4.29-5.59 4.29-1.55 0-2.74-1-2.74-3.07 0-4.4 5.44-11.36 10.25-11.36 1.92 0 3.37 1.11 3.37 2.77 0 1.23-.74 1.6-1.82 1.6.122-.423.186-.86.19-1.3 0-1.11-.48-2.07-1.81-2.07-3.48 0-7.63 6.88-7.63 10.47 0 1 .34 1.44 1 1.44 2.3 0 6-5.4 7.77-8.06.45.07 1.48.37 1.48.92z" fill="#0C647B"/><path d="M114.31 33.54a21.642 21.642 0 003.69-5.37v-.44c0-1.81.74-2.52 1.45-2.52.4 0 .59.23.59.49a10.28 10.28 0 00-.22 1.62c0 2.45 1.92 5.52 1.92 8.92a6.82 6.82 0 01-.22 1.81c1.7-.29 3.22-1.4 4.66-4.18l.33.37a6.319 6.319 0 01-5.18 4.41 4.71 4.71 0 01-4.73 3.07c-3.48 0-4.63-2.63-4.63-4.85-.03-2.87 1.93-2.87 2.34-3.33zm4.69 5.07a7.271 7.271 0 01-4.55-3.07c-.59 0-.81.52-.81 1.29 0 1.78 1.11 3.59 3 3.59a2.35 2.35 0 002.36-1.81zm-.81-9a27.567 27.567 0 01-3.59 4.81 6.601 6.601 0 004.56 3.58 10.91 10.91 0 00.15-1.74c0-2.26-.78-4.64-1.15-6.68l.03.03z" fill="#0C647B"/><path d="M127.48 35.94c-.098.44-.148.89-.15 1.34 0 1.51.63 3.11 2.93 3.11 3.14 0 6.44-3 8.29-6.55l.44.33c-2 4.44-5.85 7.29-9.51 7.29-3 0-4.51-1.89-4.51-4.29 0-4.41 5-10.66 9.39-10.66a1.998 1.998 0 012.3 2.26c0 3.77-4.96 6.77-9.18 7.17zm.19-.7c2.62-.92 7.36-3.55 7.36-6.73 0-.56-.15-.85-.78-.85-2.36 0-5.58 4.07-6.58 7.58z" fill="#0C647B"/><path d="M148.39 30.06c0 1.45-.71 2.7-1.85 2.7a1.386 1.386 0 01-1.08-.55 3.684 3.684 0 001.37-2.93c0-.59-.18-.92-.81-.92-2.63 0-6.07 5.44-6.07 9.07 0 1.51.59 3.07 2.7 3.07 2.93 0 6.26-2.59 7.85-6.7l.48.37c-1.7 4.48-5.59 7.73-9.18 7.73-2.37 0-4.14-1.55-4.14-4.73 0-5 4.33-9.85 8.1-9.85a2.46 2.46 0 012.63 2.74z" fill="#0C647B"/><path d="M160.12 32.8c0-1.29-.63-1.78-1.41-1.78-3.66 0-5 10.22-7.14 10.22-.93 0-1.52-1.89-1.52-3.85 0-7.07 7.85-24 11.07-24 .88 0 1.22 1.33 1.22 2.33 0 3.44-4.15 11.47-8.51 14.1a21.003 21.003 0 00-1.37 7.29c-.003.421.021.842.07 1.26 1.74-5.07 4.22-9.59 7.51-9.59 2 0 2.81 1.71 2.81 3.33 0 2.3-1.59 4.41-1.59 6.22 0 1 .48 1.41 1.11 1.41 1.67 0 4.3-2.7 5.78-5.92l.48.44c-1.56 3.63-4.26 6.44-7.11 6.44a2.26 2.26 0 01-2.52-2.31c0-1.56 1.12-3.81 1.12-5.59zm-5.81-4.4c3.4-2.74 6.77-9.81 6.77-11.7 0-.22 0-.29-.15-.29-.74 0-4.77 5.96-6.62 11.99z" fill="#0C647B"/><path d="M168.7 30.47a2.572 2.572 0 011.7-.78.888.888 0 01.961.597.89.89 0 01.039.403 23.427 23.427 0 01-1.18 4.89c2-3 4.88-6.51 7.69-6.51 1.93 0 2.74 1.66 2.74 3.33 0 2.29-1.52 4-1.52 5.84 0 1 .48 1.41 1.11 1.41 1.85 0 3.82-3 5.18-5.77l.41.48c-1.55 3.62-3.63 6.25-6.4 6.25a2.279 2.279 0 01-2.59-2.37c0-1.51 1.07-3.4 1.07-5.14 0-1.37-.63-1.81-1.48-1.81-3.07 0-6.47 5.88-8.4 9.14a2.409 2.409 0 01-2-.82c.04-.48 2.63-5.92 2.67-9.14z" fill="#0C647B"/><path d="M190.71 28.1c0 1.22-3.84 5.7-3.84 9.18 0 1.77.59 2.22 1.81 2.22 1.66 0 3.59-1.45 5.7-5.66l.33.37c-1.44 4.25-4.4 6.58-7.29 6.58-1.92 0-2.85-1.37-2.85-3.11 0-2.81 2.81-10.39 5.33-10.39a.77.77 0 01.81.81zm-.37-5.48c0-1 1.52-1.92 2.71-1.92.74 0 1.22.3 1.22 1.15a2.492 2.492 0 01-2.41 2c-.81 0-1.52-.37-1.52-1.23z" fill="#0C647B"/><path d="M205.66 31a1.725 1.725 0 00-.573-1.222 1.736 1.736 0 00-1.277-.438c-4.36 0-6.95 10.14-7.4 11a1.483 1.483 0 01-1.26.67c-1.25 0-1.29-1.78-1.29-3.48 0-7.73 8.58-24.09 11.21-24.09.67 0 1.15 1.07 1.15 2.41 0 3.4-3.18 8.77-7.55 11.39a30.883 30.883 0 00-2.44 10.59c1.55-3.93 4.58-10.36 8.29-10.36a3.288 3.288 0 013.29 3.29c0 3.18-3.81 4.33-5.26 4.33.11.81.93 4.77 2.89 4.77 2.11 0 4-2.66 5.48-6l.37.37c-1.08 3.63-4 7.07-6.59 7.07-2.81 0-3.77-4.41-3.77-6.66 1.07-.06 4.73-1.1 4.73-3.64zm-6.36-5.29c3.4-2.74 5.66-7.1 5.66-9 0-.26 0-.33-.11-.33-.74.03-3.41 4.39-5.55 9.35v-.02zM18.62 11.27c-.1.26-.18.528-.24.8l-.56 2.3c-.23 1-.5 2.19-.81 3.58-.31 1.39-.63 2.94-1 4.64-.37 1.7-.66 3.54-.91 5.47-.11 1-.22 2-.25 2.93-.025.48-.025.96 0 1.44v.33c.01.108.027.215.05.32 0 .26.09.53.14.8l.16.72c.07.25.12.5.19.75s.13.49.22.73l.11.36.13.36c.179.474.382.938.61 1.39.23.466.484.92.76 1.36.28.46.59.93.91 1.44.34.544.648 1.108.92 1.69.295.618.526 1.265.69 1.93.164.657.274 1.326.33 2v2.89c0 .31 0 .62-.08.92v.48l.01.1v.39c-.06.33-.12.64-.2.95-.15.61-.32 1.2-.5 1.78a52.22 52.22 0 01-2.69 6.38c-.49 1-1 1.95-1.5 2.89-.247.467-.497.927-.75 1.38l-.76 1.33-.75 1.29-.75 1.24c-.49.8-1 1.58-1.44 2.32-.44.74-.96 1.41-1.4 2.05-.44.64-.87 1.3-1.27 1.88l-1.14 1.64-1 1.38c-.61.82-1.09 1.46-1.43 1.9l-.52.66s.5-1.06 1.39-2.9L9 70l1.17-2.45 1.24-2.62.59-1.38c.21-.46.43-.93.64-1.4.43-.95.84-1.92 1.27-2.91.43-.99.81-2 1.2-3 .39-1 .75-2.06 1.05-3.1.15-.52.28-1 .39-1.55.06-.247.106-.498.14-.75v-.65c0 .06 0 0 0 0v-.11c0-.54.07-1.08.08-1.61v-.79c0-.13 0-.52-.05-.77-.047-.491-.127-.98-.24-1.46a7.99 7.99 0 00-.47-1.35c-.218-.466-.462-.92-.73-1.36-.28-.47-.59-1-.89-1.5-.3-.5-.6-1.08-.86-1.65a16.084 16.084 0 01-.53-1.76l-.14-.44-.17-.39c-.08-.29-.14-.58-.21-.88-.07-.3-.12-.58-.17-.87-.05-.29-.09-.59-.13-.89-.04-.3-.07-.54-.1-.81s0-.33 0-.49v-.47c-.003-.582.03-1.163.1-1.74a27.19 27.19 0 01.53-3.17 56.83 56.83 0 011.51-5.53c.55-1.68 1.1-3.2 1.61-4.53s1-2.48 1.42-3.42c.42-.94.76-1.66 1-2.15.097-.272.221-.533.37-.78zM9-1a.72.72 0 01.06.15c0 .11.09.26.15.47a9 9 0 01.26 1.84 10.16 10.16 0 01-.32 2.93c-.08.27-.16.56-.25.85-.09.29-.23.59-.35.89l-.44.9c-.17.3-.36.6-.55.91a1.43 1.43 0 01-.15.22l-.16.22-.33.45c-.11.15-.21.29-.33.43l-.32.41c-.43.56-.88 1.13-1.27 1.72a9.801 9.801 0 00-1 1.81c-.124.305-.224.62-.3.94 0 .16-.07.33-.1.49-.03.16 0 .33-.05.5-.05.17 0 .35 0 .53v1.1c0 .19 0 .38.06.57.06.19.06.39.08.59l.11.59.11.61c.05.2.09.4.13.61.37 1.63.85 3.31 1.31 5l.33 1.31c.11.44.21.88.31 1.32.1.44.2.87.29 1.31.09.44.18.89.26 1.32.08.43.16.89.24 1.32 0 .22.07.44.1.66l.09.66c.06.43.11.87.17 1.3l.12 1.3v4.97l-.07 1.16c0 .38-.08.76-.13 1.13l-.06.55v.53l-.18 1c-.11.67-.27 1.31-.42 1.92l-.11.45c-.03.146-.07.29-.12.43-.08.28-.16.55-.25.82-.17.53-.31 1-.5 1.47s-.32.85-.47 1.22l-.11.26-.11.25-.21.45c-.13.28-.25.51-.34.7l-.29.58.1-.64c0-.21.08-.46.13-.76l.09-.48v-.55c.09-.77.26-1.7.35-2.77 0-.26.05-.54.08-.82.01-.143.01-.287 0-.43v-.44c0-.6.09-1.22.08-1.87v-3.09c0-.36-.05-.73-.07-1.1 0-.74-.13-1.5-.19-2.27 0-.19-.06-.39-.08-.58l-.07-.59-.08-.59c0-.2-.06-.4-.09-.6-.24-1.6-.59-3.24-.95-4.91L3 29.44c-.1-.42-.2-.84-.31-1.26-.11-.42-.21-.85-.32-1.27-.11-.42-.21-.84-.33-1.27-.22-.87-.45-1.71-.66-2.6-.21-.89-.41-1.76-.58-2.66a22.46 22.46 0 01-.36-2.75 12.63 12.63 0 01.09-2.87c0-.24.09-.48.14-.72.05-.24.12-.48.2-.71a5.6 5.6 0 01.26-.68c.1-.22.19-.44.31-.65.214-.402.455-.79.72-1.16.241-.347.502-.681.78-1 .54-.62 1.07-1.17 1.61-1.68L5 7.78c.127-.112.248-.233.36-.36l.34-.34.17-.16.13-.17A11.62 11.62 0 007.92 4c.395-.807.687-1.66.87-2.54A9.62 9.62 0 009-.36V-1z" fill="#0C647B"/></svg>