<svg width="111" height="44" viewBox="0 0 111 44" fill="none" xmlns="http://www.w3.org/2000/svg">
<path d="M20.6021 32.9267L20.9126 32.8583C20.9454 32.85 20.9749 32.8316 20.9968 32.8057C21.0181 32.7808 21.0293 32.7489 21.0284 32.7162V29.9845C21.0292 29.9502 21.018 29.9167 20.9968 29.8898C20.9749 29.8639 20.9454 29.8455 20.9126 29.8372L20.6021 29.774V29.6582H23.9285V29.774L23.6127 29.8372C23.5966 29.8399 23.5812 29.8459 23.5676 29.855C23.554 29.8641 23.5424 29.8759 23.5337 29.8898C23.5214 29.9022 23.5117 29.917 23.5054 29.9333C23.499 29.9496 23.4961 29.967 23.4969 29.9845V32.7162C23.4961 32.7337 23.499 32.7511 23.5054 32.7675C23.5117 32.7838 23.5214 32.7986 23.5337 32.811C23.5532 32.8361 23.5814 32.853 23.6127 32.8583L23.9285 32.9267V33.0425H22.6284V32.9267L22.9495 32.8583C22.9834 32.8525 23.0136 32.8336 23.0337 32.8057C23.055 32.7808 23.0663 32.7489 23.0653 32.7162V29.8424H21.4863V32.7162C21.4855 32.7505 21.4966 32.784 21.5179 32.811C21.5393 32.8365 21.5692 32.8533 21.6021 32.8583L21.9126 32.9267V33.0425H20.6021V32.9267Z" fill="#0C647B"/>
<path d="M24.2604 33.0795C24.2272 33.0839 24.1936 33.0839 24.1604 33.0795H24.0762L24.1551 32.6795H24.1972H24.2762H24.5288C24.5288 32.6795 24.5867 32.6795 24.6236 32.611C24.6635 32.5525 24.6987 32.4909 24.7288 32.4268C24.7604 32.3479 24.7973 32.2531 24.8341 32.1479C24.8709 32.0426 24.8973 31.9268 24.9236 31.8058C24.9499 31.6847 24.9709 31.5584 24.9867 31.4268C24.9972 31.2954 24.9972 31.1634 24.9867 31.032C24.9899 30.9988 24.9899 30.9653 24.9867 30.932C24.9885 30.911 24.9885 30.8899 24.9867 30.8689C24.9768 30.8573 24.9641 30.8482 24.9499 30.8426H24.9025L24.6183 30.7847V30.6741H26.7552V30.7847L26.4921 30.8426C26.4609 30.8515 26.4335 30.87 26.4136 30.8956C26.3937 30.9211 26.3825 30.9523 26.3815 30.9847V32.7426C26.3815 32.7752 26.3926 32.8068 26.4131 32.8321C26.4322 32.8577 26.4605 32.8747 26.4921 32.8795L26.7552 32.9426V33.0532H25.5815V32.9426L25.8394 32.8795C25.8553 32.8781 25.8706 32.8731 25.8843 32.8649C25.898 32.8567 25.9096 32.8455 25.9183 32.8321C25.9401 32.8075 25.9514 32.7754 25.9499 32.7426V30.8584H25.2499C25.2494 31.183 25.2212 31.507 25.1657 31.8268C25.1195 32.0697 25.0454 32.3063 24.9446 32.5321C24.8737 32.6953 24.7677 32.8409 24.6341 32.9584C24.5276 33.0415 24.3953 33.0844 24.2604 33.0795Z" fill="#0C647B"/>
<path d="M28.2399 32.9005C28.1763 32.9485 28.1074 32.9891 28.0346 33.0216C27.9684 33.0481 27.8996 33.0675 27.8293 33.0794H27.6399C27.5527 33.0819 27.4662 33.0639 27.3872 33.0268C27.3127 32.9967 27.2461 32.9499 27.1925 32.89C27.135 32.8333 27.0902 32.7651 27.0609 32.69C27.0338 32.6121 27.0195 32.5303 27.0188 32.4478C27.0163 32.3556 27.0343 32.2639 27.0714 32.1794C27.1038 32.1002 27.1521 32.0285 27.2135 31.9689C27.2729 31.9082 27.3423 31.8584 27.4188 31.8215C27.4937 31.778 27.5731 31.7427 27.6556 31.7162C27.7369 31.692 27.8195 31.6726 27.903 31.6583H28.1293H28.2136H28.303H28.4557V31.2267C28.4623 31.162 28.4623 31.0967 28.4557 31.032C28.4446 30.9872 28.4229 30.9457 28.3925 30.9109C28.3611 30.8803 28.3234 30.857 28.282 30.8425C28.2295 30.8365 28.1765 30.8365 28.1241 30.8425C28.0431 30.8407 27.9626 30.855 27.8872 30.8846C27.813 30.9108 27.7409 30.9425 27.6714 30.9794L27.4872 31.1057L27.3398 31.2162H27.2819L27.1609 30.8162L27.3188 30.732C27.3804 30.7052 27.4437 30.6823 27.5083 30.6636L27.7241 30.6109C27.8029 30.6054 27.8821 30.6054 27.9609 30.6109C28.0638 30.6102 28.1664 30.6226 28.2662 30.6478C28.3693 30.6753 28.4671 30.7198 28.5557 30.7794C28.6415 30.8436 28.7117 30.9263 28.7609 31.0215C28.817 31.136 28.8441 31.2625 28.8399 31.3899V32.6742C28.8365 32.6951 28.8365 32.7164 28.8399 32.7373C28.8491 32.7582 28.8636 32.7764 28.882 32.79L28.9452 32.8215H29.0346H29.0715H29.1346H29.1978H29.2557H29.2662V32.9373L29.1768 33.0005C29.1382 33.0264 29.0977 33.0493 29.0557 33.0689L28.9188 33.1216C28.8753 33.1287 28.8308 33.1287 28.7873 33.1216C28.7332 33.13 28.6782 33.13 28.6241 33.1216C28.5785 33.1126 28.5365 33.0906 28.503 33.0584C28.4695 33.0243 28.4443 32.9828 28.4294 32.9373C28.4201 32.8727 28.4201 32.8072 28.4294 32.7426C28.3744 32.8044 28.3106 32.8576 28.2399 32.9005ZM28.4346 31.7952C28.3006 31.794 28.1668 31.8045 28.0346 31.8268C27.9268 31.8449 27.8222 31.8786 27.7241 31.9268C27.645 31.9689 27.5779 32.0305 27.5293 32.1057C27.4817 32.1831 27.4579 32.2728 27.4609 32.3636C27.4606 32.4372 27.4731 32.5102 27.4977 32.5794C27.5204 32.6335 27.5545 32.682 27.5977 32.7215C27.6372 32.7561 27.684 32.7813 27.7346 32.7952C27.7817 32.8027 27.8296 32.8027 27.8767 32.7952H28.0241C28.0765 32.785 28.1277 32.7691 28.1767 32.7479L28.3188 32.6689C28.3608 32.6356 28.3981 32.5966 28.4294 32.5531L28.4346 31.7952Z" fill="#0C647B"/>
<path d="M31.3072 32.5215V32.6952C31.1967 32.8079 31.0687 32.9021 30.9283 32.9742C30.8495 33.0134 30.7665 33.0434 30.6809 33.0636C30.592 33.0894 30.4997 33.1019 30.4072 33.1005C30.2631 33.1036 30.1202 33.0734 29.9896 33.0122C29.8591 32.951 29.7444 32.8606 29.6545 32.7478C29.563 32.6365 29.4918 32.5101 29.444 32.3741C29.397 32.2297 29.3739 32.0786 29.3756 31.9267C29.3745 31.8117 29.3869 31.6968 29.4124 31.5846C29.4327 31.476 29.47 31.3712 29.5229 31.2741C29.5695 31.1749 29.6297 31.0828 29.7019 31.0004C29.7746 30.9174 29.8598 30.8464 29.9545 30.7899C30.049 30.7249 30.1541 30.6768 30.2651 30.6478C30.3904 30.6137 30.5195 30.596 30.6493 30.5951C30.7297 30.5858 30.811 30.5858 30.8914 30.5951C30.9499 30.604 31.0067 30.6217 31.0599 30.6478C31.1025 30.6618 31.1432 30.6813 31.1809 30.7056L31.2704 30.7583L31.1914 31.1425H31.1388L30.9598 31.0215C30.9034 30.9797 30.8435 30.9427 30.7809 30.9109C30.7188 30.8782 30.6535 30.8517 30.5861 30.832C30.5145 30.8104 30.4399 30.7998 30.3651 30.8004H30.2703C30.2388 30.8053 30.2085 30.816 30.1809 30.832L30.0967 30.8846L30.0335 30.9478C30.0025 30.981 29.976 31.0182 29.9545 31.0583C29.9271 31.1131 29.9025 31.1693 29.8809 31.2267C29.8809 31.2951 29.844 31.3688 29.8282 31.4478C29.82 31.5353 29.82 31.6234 29.8282 31.711C29.8253 31.8618 29.843 32.0123 29.8809 32.1583C29.9119 32.2779 29.9655 32.3905 30.0388 32.4899C30.1079 32.5793 30.1984 32.6499 30.3019 32.6952C30.4164 32.7453 30.5402 32.7704 30.6651 32.7689C30.733 32.7691 30.8005 32.7584 30.8651 32.7373C30.9269 32.7183 30.9868 32.6936 31.0441 32.6636L31.1914 32.5689L31.302 32.4794L31.3072 32.5215Z" fill="#0C647B"/>
<path d="M31.9761 32.932L32.2393 32.8689C32.2698 32.8616 32.2974 32.845 32.3182 32.8215C32.3387 32.7962 32.3498 32.7646 32.3498 32.732V30.8583H31.8971C31.8511 30.8554 31.8053 30.8664 31.7656 30.8898C31.737 30.9114 31.7151 30.9406 31.7024 30.9741L31.555 31.3951H31.4287V30.6635H33.6446V31.3846H33.5235L33.3762 30.9635C33.3635 30.9301 33.3416 30.9009 33.313 30.8793C33.2733 30.8559 33.2274 30.8449 33.1814 30.8477H32.7446V32.7425C32.744 32.7747 32.7547 32.806 32.7749 32.8311C32.7951 32.8561 32.8235 32.8732 32.8551 32.8794L33.1182 32.9425V33.0531H31.9603L31.9761 32.932Z" fill="#0C647B"/>
<path d="M33.8867 32.932L34.1499 32.8689C34.1805 32.8616 34.208 32.845 34.2288 32.8215C34.2493 32.7962 34.2605 32.7646 34.2604 32.732V30.9741C34.2619 30.9413 34.2506 30.9092 34.2288 30.8846C34.2083 30.8596 34.1808 30.8413 34.1499 30.8319L33.8867 30.774V30.6635H35.0131V30.774L34.7762 30.8319C34.7466 30.8414 34.7196 30.8576 34.6973 30.8793C34.676 30.9063 34.6649 30.9398 34.6657 30.9741V32.5531L35.8342 30.8583V30.674H36.6342V30.7846L36.371 30.8425C36.3401 30.8518 36.3126 30.8701 36.2921 30.8951C36.2703 30.9197 36.259 30.9518 36.2605 30.9846V32.7425C36.2605 32.7751 36.2716 32.8067 36.2921 32.832C36.3129 32.8556 36.3405 32.8721 36.371 32.8794L36.6342 32.9425V33.0531H35.4815V32.9425L35.7184 32.8794C35.7499 32.8732 35.7783 32.8561 35.7985 32.8311C35.8187 32.806 35.8295 32.7747 35.8289 32.7425V31.1635L34.6552 32.8583V33.0373H33.8867V32.932Z" fill="#0C647B"/>
<path d="M38.2133 32.932L38.4765 32.8689C38.5081 32.8627 38.5364 32.8456 38.5567 32.8206C38.5769 32.7955 38.5876 32.7642 38.587 32.732V31.9109L38.4133 32.0057L38.2291 32.0688C38.1706 32.0873 38.1108 32.1013 38.0502 32.1109H37.887C37.6807 32.1274 37.4758 32.0654 37.3133 31.9373C37.2506 31.8738 37.2019 31.7979 37.1702 31.7145C37.1385 31.6312 37.1245 31.5421 37.1291 31.453V30.9267C37.1306 30.8939 37.1192 30.8618 37.0975 30.8372C37.078 30.8111 37.0501 30.7926 37.0185 30.7846L36.7554 30.7267V30.6161H37.887V30.7267L37.6501 30.7846C37.6193 30.7912 37.5915 30.8078 37.5712 30.8319C37.55 30.8589 37.5388 30.8924 37.5396 30.9267V31.2899C37.5284 31.3614 37.5284 31.4342 37.5396 31.5057C37.5518 31.5671 37.5787 31.6246 37.6182 31.6732C37.6576 31.7218 37.7083 31.7601 37.7659 31.7846C37.8378 31.8137 37.9148 31.828 37.9923 31.8267H38.1133H38.2554H38.4081L38.5607 31.7846V30.9741C38.5615 30.9398 38.5504 30.9063 38.5291 30.8793C38.5068 30.8576 38.4798 30.8414 38.4502 30.8319L38.2133 30.7741V30.6635H39.3713V30.7741L39.1081 30.8319C39.0771 30.8413 39.0497 30.8596 39.0291 30.8846C39.0074 30.9092 38.9961 30.9413 38.9976 30.9741V32.732C38.9975 32.7646 39.0087 32.7962 39.0291 32.8215C39.05 32.845 39.0775 32.8616 39.1081 32.8689L39.3713 32.932V33.0426H38.2133V32.932Z" fill="#0C647B"/>
<path d="M41.6239 32.5268V32.7057C41.5712 32.757 41.5149 32.8045 41.4555 32.8479C41.3855 32.8961 41.3116 32.9384 41.2345 32.9742C41.1527 33.0121 41.0683 33.0437 40.9818 33.0689C40.8886 33.0904 40.7932 33.101 40.6976 33.1005C40.5483 33.1022 40.4 33.0754 40.2607 33.0216C40.1315 32.97 40.0161 32.8889 39.9239 32.7847C39.8224 32.6719 39.7453 32.5393 39.6976 32.3952C39.6452 32.2248 39.6203 32.0471 39.6239 31.8689C39.6217 31.7062 39.6466 31.5444 39.6976 31.3899C39.7427 31.2422 39.816 31.1046 39.9134 30.9846C40.0094 30.8694 40.1275 30.7746 40.2607 30.7057C40.4051 30.6363 40.5638 30.602 40.7239 30.6057C40.8579 30.6033 40.9909 30.6303 41.1134 30.6846C41.2204 30.7364 41.3169 30.8079 41.3976 30.8952C41.4763 30.9816 41.5356 31.0839 41.5713 31.1952C41.6109 31.303 41.6305 31.4172 41.6292 31.532V31.632C41.6269 31.646 41.6269 31.6602 41.6292 31.6741C41.6292 31.6741 41.6292 31.7057 41.6292 31.7162H40.0502C40.0336 32.0054 40.1032 32.293 40.2502 32.5426C40.3181 32.6384 40.4093 32.7153 40.5153 32.7659C40.6212 32.8166 40.7383 32.8393 40.8555 32.8321C40.9407 32.8326 41.0257 32.822 41.1081 32.8005C41.1782 32.7808 41.2468 32.7562 41.3134 32.7268L41.4766 32.6321L41.5976 32.5373L41.6239 32.5268ZM41.1923 31.5478C41.2032 31.4481 41.2032 31.3475 41.1923 31.2478C41.1795 31.1593 41.151 31.0737 41.1081 30.9952C41.0735 30.9234 41.0209 30.8617 40.9555 30.8162C40.8866 30.7719 40.8057 30.7499 40.7239 30.753C40.6395 30.7504 40.5559 30.7704 40.4818 30.8109C40.4099 30.85 40.3471 30.9038 40.2976 30.9688C40.2412 31.0459 40.1969 31.1311 40.166 31.2215C40.1287 31.327 40.1039 31.4365 40.0923 31.5478H41.1923Z" fill="#0C647B"/>
<path d="M43.8241 32.5217V32.6954C43.7136 32.808 43.5856 32.9022 43.4452 32.9743C43.3664 33.0136 43.2834 33.0436 43.1978 33.0638C43.1089 33.0896 43.0166 33.102 42.9241 33.1006C42.7799 33.1037 42.637 33.0735 42.5065 33.0124C42.376 32.9512 42.2613 32.8607 42.1714 32.748C42.0799 32.6367 42.0087 32.5102 41.9609 32.3743C41.9139 32.2246 41.8926 32.068 41.8977 31.9111C41.8967 31.796 41.909 31.6812 41.9346 31.569C41.9549 31.4603 41.9922 31.3555 42.0451 31.2585C42.0936 31.1604 42.1536 31.0685 42.2241 30.9848C42.3779 30.8177 42.5744 30.6957 42.7925 30.6321C42.9159 30.5977 43.0433 30.58 43.1715 30.5795C43.2519 30.5702 43.3331 30.5702 43.4136 30.5795C43.4736 30.5892 43.532 30.6069 43.5873 30.6321L43.7031 30.69L43.7925 30.7427L43.7188 31.1269H43.6609L43.4767 31.0479C43.4203 31.0062 43.3604 30.9692 43.2978 30.9374C43.2357 30.9047 43.1704 30.8782 43.103 30.8585C43.0313 30.8369 42.9568 30.8263 42.882 30.8269H42.7872C42.7557 30.8318 42.7254 30.8425 42.6978 30.8585L42.6135 30.9111L42.5504 30.9742C42.5194 31.0075 42.4929 31.0447 42.4714 31.0848C42.4436 31.1388 42.4207 31.1951 42.403 31.2532C42.3775 31.3251 42.3582 31.3991 42.3451 31.4743C42.3369 31.5618 42.3369 31.6499 42.3451 31.7374C42.3422 31.8883 42.3599 32.0388 42.3977 32.1848C42.4305 32.3037 42.484 32.416 42.5556 32.5164C42.6248 32.6058 42.7153 32.6764 42.8188 32.7217C42.9333 32.7718 43.0571 32.7969 43.182 32.7954C43.2499 32.796 43.3175 32.7854 43.382 32.7638C43.4438 32.7448 43.5037 32.7201 43.5609 32.6901L43.7083 32.5954L43.8189 32.5059L43.8241 32.5217Z" fill="#0C647B"/>
<path d="M45.8551 33.0636C45.8214 33.0578 45.7892 33.0453 45.7604 33.0267C45.7309 33.0077 45.7058 32.9826 45.6867 32.953C45.6586 32.9168 45.6339 32.8781 45.613 32.8372L45.1499 31.9951L44.7551 31.9109V32.732C44.7545 32.7641 44.7653 32.7955 44.7855 32.8205C44.8057 32.8455 44.8341 32.8626 44.8656 32.8688L45.1025 32.932V33.0425H44.0024V32.932L44.2656 32.8688C44.2962 32.8615 44.3237 32.845 44.3446 32.8215C44.365 32.7961 44.3762 32.7645 44.3761 32.732V30.974C44.3776 30.9412 44.3663 30.9091 44.3446 30.8845C44.324 30.8596 44.2966 30.8412 44.2656 30.8319L44.0024 30.774V30.6635H45.1288V30.774L44.892 30.8319C44.8623 30.8413 44.8353 30.8576 44.813 30.8793C44.7918 30.9062 44.7806 30.9397 44.7814 30.974V31.7688H44.9972C45.053 31.7772 45.1098 31.7772 45.1656 31.7688C45.2181 31.7511 45.2652 31.7203 45.3025 31.6793C45.3477 31.6233 45.3849 31.5613 45.413 31.4951C45.4474 31.4215 45.4773 31.3459 45.5025 31.2688C45.5025 31.1898 45.5604 31.1161 45.5867 31.0424C45.6085 30.9797 45.6405 30.921 45.6815 30.8688L45.7815 30.7582L45.8815 30.6898L45.992 30.653H46.1236H46.3078H46.3762L46.3025 31.0372H46.2552H46.1815H46.1025H45.9815C45.9447 31.0366 45.909 31.0497 45.8815 31.074C45.8513 31.1002 45.8248 31.1303 45.8025 31.1635C45.7775 31.2044 45.7547 31.2465 45.7341 31.2898C45.712 31.3428 45.6856 31.3938 45.6551 31.4425C45.6551 31.4951 45.5972 31.5477 45.5657 31.6004C45.5297 31.6496 45.4891 31.6955 45.4446 31.7372L46.0657 32.7899C46.0847 32.8194 46.1098 32.8445 46.1394 32.8636C46.1663 32.882 46.1968 32.8946 46.2288 32.9004L46.492 32.9688V33.0794L46.013 33.1057C45.9585 33.0999 45.9053 33.0857 45.8551 33.0636Z" fill="#0C647B"/>
<path d="M46.6343 32.932L46.8974 32.8689C46.928 32.8616 46.9556 32.845 46.9764 32.8215C46.9969 32.7962 47.008 32.7646 47.008 32.732V30.9741C47.0095 30.9413 46.9982 30.9092 46.9764 30.8846C46.9559 30.8596 46.9284 30.8413 46.8974 30.8319L46.6343 30.774V30.6635H47.7606V30.774L47.529 30.8319C47.4973 30.84 47.4682 30.8563 47.4448 30.8793C47.434 30.91 47.434 30.9434 47.4448 30.9741V32.5531L48.5659 30.8583V30.674H49.3344V30.7846L49.0712 30.8425C49.0403 30.8518 49.0128 30.8701 48.9923 30.8951C48.9705 30.9197 48.9592 30.9518 48.9607 30.9846V32.7425C48.9606 32.7751 48.9718 32.8067 48.9923 32.832C49.0131 32.8556 49.0406 32.8721 49.0712 32.8794L49.3344 32.9425V33.0531H48.2133V32.9425L48.4501 32.8794C48.4817 32.8732 48.5101 32.8561 48.5303 32.8311C48.5505 32.806 48.5613 32.7747 48.5607 32.7425V31.1635L47.3869 32.8583V33.0373H46.6343V32.932Z" fill="#0C647B"/>
<path d="M49.5712 32.9321L49.8344 32.8689C49.8649 32.8616 49.8925 32.8451 49.9133 32.8215C49.9338 32.7962 49.9449 32.7646 49.9449 32.7321V30.9741C49.9464 30.9413 49.9351 30.9092 49.9133 30.8846C49.8928 30.8597 49.8653 30.8413 49.8344 30.832L49.5712 30.7741V30.6636H50.6975V30.7741L50.4607 30.832C50.431 30.8414 50.404 30.8577 50.3817 30.8794C50.3605 30.9063 50.3493 30.9398 50.3502 30.9741V32.5531L51.5239 30.8583V30.6741H52.2923V30.7846L52.0292 30.8425C51.9982 30.8519 51.9707 30.8702 51.9502 30.8952C51.9285 30.9197 51.9171 30.9518 51.9186 30.9846V32.7426C51.9186 32.7752 51.9298 32.8067 51.9502 32.8321C51.971 32.8556 51.9986 32.8722 52.0292 32.8794L52.2923 32.9426V33.0531H51.166V32.9426L51.4028 32.8794C51.4344 32.8733 51.4628 32.8562 51.483 32.8311C51.5032 32.8061 51.514 32.7748 51.5134 32.7426V31.1636L50.3396 32.8584V33.0373H49.5659L49.5712 32.9321ZM50.9607 30.1214C50.8431 30.1242 50.7259 30.1082 50.6133 30.0741C50.5299 30.0496 50.4514 30.0103 50.3817 29.9583C50.3285 29.9164 50.2838 29.8645 50.2502 29.8056C50.2268 29.76 50.2142 29.7096 50.2133 29.6583V29.5004H50.5975V29.8425C50.6115 29.8651 50.6316 29.8833 50.6554 29.8951C50.6844 29.9145 50.7164 29.9287 50.7502 29.9372C50.7851 29.9427 50.8206 29.9427 50.8554 29.9372H50.9554H51.0607C51.0956 29.9427 51.1311 29.9427 51.166 29.9372C51.1981 29.9286 51.2284 29.9144 51.2555 29.8951C51.2798 29.8819 51.3012 29.864 51.3186 29.8425V29.5004H51.7028V29.6583C51.7019 29.7096 51.6893 29.76 51.666 29.8056C51.6365 29.8657 51.5932 29.918 51.5397 29.9583C51.4693 30.0093 51.3911 30.0484 51.3081 30.0741C51.1956 30.1082 51.0783 30.1242 50.9607 30.1214Z" fill="#0C647B"/>
<path d="M53.6611 32.9321L53.8506 32.8689C53.894 32.8543 53.9348 32.833 53.9717 32.8058C54.0012 32.7869 54.0277 32.7638 54.0506 32.7373L54.7138 31.911L54.0559 30.9583C54.0443 30.9222 54.0265 30.8883 54.0033 30.8583C53.9693 30.8308 53.9298 30.8111 53.8875 30.8004L53.7085 30.753V30.6425H54.8138V30.753L54.4927 30.8267L54.877 31.4162L55.0086 31.6215L55.5507 30.8583L55.2401 30.7741V30.6636H56.1086V30.7741L55.9138 30.832C55.8721 30.8467 55.833 30.868 55.7981 30.8952C55.7698 30.9157 55.7434 30.9386 55.7191 30.9636L55.0875 31.7689L55.7717 32.7479C55.7901 32.7777 55.8132 32.8044 55.8402 32.8268C55.8751 32.8516 55.9144 32.8694 55.956 32.8794L56.1349 32.9321V33.0426H55.0296V32.9321L55.3559 32.8531L54.9454 32.2373L54.8138 32.032L54.2191 32.8426L54.5296 32.9321V33.0426H53.6664L53.6611 32.9321Z" fill="#0C647B"/>
<path d="M56.2412 32.932L56.4991 32.8689C56.5317 32.863 56.5614 32.8463 56.5833 32.8215C56.5909 32.7921 56.5909 32.7614 56.5833 32.732V30.9741C56.5923 30.9449 56.5923 30.9137 56.5833 30.8846C56.5619 30.8581 56.5323 30.8396 56.4991 30.8319L56.2412 30.774V30.6635H57.3676V30.774L57.1307 30.8319C57.1011 30.8414 57.074 30.8576 57.0518 30.8793C57.0305 30.9063 57.0194 30.9398 57.0202 30.9741V32.5531L58.215 30.8583V30.674H58.9887V30.7846L58.7255 30.8425C58.6924 30.8501 58.6627 30.8687 58.6413 30.8951C58.6234 30.9214 58.6142 30.9527 58.615 30.9846V32.7425C58.6157 32.7742 58.6248 32.805 58.6413 32.832C58.6633 32.8568 58.6929 32.8735 58.7255 32.8794L58.9887 32.9425V33.0531H57.8571V32.9425L58.0939 32.8794C58.1255 32.8732 58.1539 32.8561 58.1741 32.8311C58.1943 32.806 58.205 32.7747 58.2044 32.7425V31.1635L57.0255 32.8583V33.0373H56.257L56.2412 32.932Z" fill="#0C647B"/>
<path d="M59.145 34.0901L59.4187 34.0269C59.4484 34.0175 59.4754 34.0013 59.4977 33.9796C59.5189 33.9526 59.5301 33.9191 59.5292 33.8848V31.111C59.5301 31.0718 59.5191 31.0333 59.4977 31.0005C59.4633 30.9672 59.4219 30.942 59.3766 30.9268L59.1503 30.8479V30.7847L59.924 30.611V31.0058L59.9766 30.9373C60.032 30.865 60.0976 30.8012 60.1714 30.7479C60.2341 30.7072 60.3012 30.6737 60.3714 30.6478C60.4309 30.6253 60.4926 30.6094 60.5556 30.6005H60.703C60.8393 30.5972 60.9746 30.626 61.0977 30.6847C61.2136 30.7411 61.3146 30.8241 61.3925 30.9268C61.4738 31.0378 61.5345 31.1627 61.5714 31.2952C61.6148 31.444 61.6361 31.5982 61.6346 31.7532C61.6354 31.9312 61.6106 32.1085 61.5609 32.2795C61.513 32.4336 61.4382 32.5779 61.3398 32.7058C61.2402 32.8286 61.1142 32.9274 60.9711 32.9949C60.8281 33.0623 60.6716 33.0966 60.5135 33.0953C60.4524 33.1039 60.3904 33.1039 60.3293 33.0953C60.2742 33.0863 60.2209 33.0685 60.1714 33.0427C60.1269 33.0224 60.0846 32.9977 60.045 32.969C60.0066 32.9434 59.9712 32.9134 59.9398 32.8795V33.9322C59.939 33.9665 59.9501 34 59.9714 34.0269C59.9908 34.0521 60.019 34.069 60.0503 34.0743L60.3924 34.1375V34.248H59.145V34.0901ZM60.4661 32.8848C60.58 32.8881 60.6927 32.8609 60.7924 32.8058C60.8849 32.7545 60.9641 32.6824 61.024 32.5953C61.0874 32.5025 61.1337 32.3991 61.1609 32.29C61.1882 32.1691 61.2023 32.0456 61.203 31.9216C61.2031 31.7819 61.189 31.6426 61.1609 31.5058C61.1397 31.3859 61.095 31.2714 61.0293 31.1689C60.9748 31.0765 60.8967 31.0002 60.803 30.9479C60.7016 30.8922 60.587 30.8649 60.4714 30.8689H60.3451C60.2964 30.8781 60.2488 30.8922 60.203 30.911C60.1534 30.9333 60.1059 30.9597 60.0608 30.99C60.0139 31.0273 59.9731 31.0717 59.9398 31.1216V32.7006C59.9746 32.725 60.0116 32.7461 60.0503 32.7637C60.0978 32.7842 60.1472 32.8001 60.1977 32.8111L60.3451 32.8427C60.3837 32.8613 60.4243 32.8754 60.4661 32.8848Z" fill="#0C647B"/>
<path d="M61.8984 33.7163H61.9668C61.9961 33.7364 62.028 33.7523 62.0616 33.7637L62.1774 33.8058L62.2984 33.8374H62.3879H62.4774L62.5616 33.79C62.6061 33.762 62.6453 33.7264 62.6774 33.6848C62.7161 33.6387 62.748 33.5873 62.7721 33.5321C62.8077 33.4656 62.8393 33.3971 62.8669 33.3268C62.8984 33.2479 62.93 33.1584 62.9721 33.0584L62.8037 32.7163L62.0616 30.9373C62.0512 30.9069 62.0308 30.8809 62.0037 30.8636L61.8984 30.8162L61.73 30.7689V30.6583H62.8248V30.7689L62.4247 30.8583L62.9879 32.2321L63.109 32.5373L63.7195 30.8583L63.3722 30.7689V30.6583H64.2353V30.7689L64.0617 30.832L63.9564 30.8794C63.9417 30.8864 63.9288 30.8966 63.9188 30.9094C63.9087 30.9222 63.9018 30.9372 63.8985 30.9531L62.9879 33.49C62.9469 33.6201 62.8885 33.744 62.8142 33.8584C62.7619 33.9392 62.6981 34.0119 62.6248 34.0742C62.5617 34.1196 62.49 34.1519 62.4142 34.169C62.3425 34.177 62.2701 34.177 62.1984 34.169H62.0721H61.9616L61.8721 34.1321L61.7984 34.1006L61.8984 33.7163Z" fill="#0C647B"/>
<path d="M64.225 34.0901L64.4935 34.0269C64.5253 34.0189 64.5543 34.0025 64.5777 33.9795C64.586 33.9485 64.586 33.9158 64.5777 33.8848V31.111C64.5785 31.0718 64.5675 31.0333 64.5461 31.0005C64.5149 30.9659 64.4749 30.9404 64.4303 30.9268L64.204 30.8478V30.7847L64.9777 30.611V31.0057L65.0303 30.9373C65.0857 30.865 65.1513 30.8012 65.2251 30.7478C65.2873 30.7062 65.3545 30.6726 65.4251 30.6478C65.4846 30.6253 65.5464 30.6094 65.6093 30.6005H65.7514C65.8895 30.5973 66.0264 30.6261 66.1514 30.6847C66.2658 30.7413 66.365 30.8243 66.4409 30.9268C66.524 31.0375 66.5864 31.1623 66.6251 31.2952C66.6685 31.4439 66.6898 31.5982 66.6883 31.7531C66.69 31.9316 66.6633 32.1093 66.6093 32.2795C66.5654 32.4341 66.4922 32.5789 66.3935 32.7058C66.298 32.825 66.1777 32.922 66.0409 32.99C65.8943 33.0641 65.7314 33.1003 65.5672 33.0953C65.5043 33.1036 65.4406 33.1036 65.3777 33.0953C65.3226 33.0862 65.2693 33.0685 65.2198 33.0427L65.0935 32.969C65.0565 32.9435 65.0229 32.9135 64.9935 32.8795V33.9322C64.9927 33.9665 65.0038 34 65.0251 34.0269C65.0445 34.0521 65.0727 34.069 65.104 34.0743L65.4409 34.1374V34.248H64.1987L64.225 34.0901ZM65.5409 32.8848C65.6564 32.8873 65.7705 32.8601 65.8725 32.8058C65.9649 32.7545 66.0442 32.6824 66.1041 32.5953C66.1657 32.5021 66.2102 32.3987 66.2357 32.29C66.2673 32.1697 66.2832 32.0459 66.283 31.9216C66.2831 31.7819 66.269 31.6426 66.2409 31.5058C66.2151 31.3872 66.1706 31.2736 66.1093 31.1689C66.0533 31.0776 65.9756 31.0017 65.883 30.9478C65.7811 30.8935 65.6669 30.8663 65.5514 30.8689H65.4251C65.3764 30.878 65.3288 30.8921 65.283 30.911C65.2323 30.9309 65.1845 30.9575 65.1409 30.9899C65.0927 31.0259 65.0516 31.0705 65.0198 31.1215V32.7005C65.054 32.726 65.0911 32.7472 65.1303 32.7637C65.1775 32.785 65.227 32.8009 65.2777 32.8111C65.3256 32.8266 65.375 32.8372 65.4251 32.8426C65.4619 32.8612 65.5008 32.8753 65.5409 32.8848Z" fill="#0C647B"/>
<path d="M66.9619 32.932L67.2251 32.8689C67.2566 32.8641 67.285 32.8471 67.304 32.8215C67.3245 32.7962 67.3357 32.7646 67.3356 32.732V30.9741C67.3346 30.9417 67.3234 30.9105 67.3035 30.885C67.2837 30.8594 67.2562 30.8409 67.2251 30.8319L66.9619 30.774V30.6635H68.9567V31.3846H68.8357L68.662 30.9372C68.6493 30.9037 68.6274 30.8745 68.5988 30.853C68.5591 30.8296 68.5133 30.8186 68.4672 30.8214H67.7514V32.7162C67.7499 32.749 67.7612 32.7811 67.783 32.8057C67.792 32.8188 67.8037 32.8298 67.8173 32.838C67.8309 32.8462 67.8462 32.8513 67.862 32.8531L68.1462 32.9162V33.0268H66.9619V32.932Z" fill="#0C647B"/>
<path d="M70.1841 32.9268L70.3946 32.8637C70.4271 32.8544 70.4563 32.8362 70.4788 32.811C70.5047 32.786 70.5245 32.7554 70.5367 32.7216L71.5157 30.1688L71.8105 29.6057H71.8999L73.1052 32.7216C73.1175 32.7554 73.1373 32.786 73.1631 32.811C73.1877 32.8364 73.2186 32.8545 73.2526 32.8637L73.4632 32.9268V33.0426H72.2684V32.9268L72.7 32.8426L72.2894 31.7899H71.0999L70.7209 32.8426L71.1367 32.9321V33.0479H70.1841V32.9268ZM72.2157 31.5952L71.8105 30.5425L71.6894 30.2057L71.1631 31.5741L72.2157 31.5952Z" fill="#0C647B"/>
<path d="M73.4468 32.932L73.7099 32.8689C73.7415 32.8641 73.7698 32.8471 73.7889 32.8215C73.8094 32.7962 73.8205 32.7646 73.8205 32.732V30.9741C73.8195 30.9417 73.8083 30.9105 73.7884 30.885C73.7685 30.8594 73.7411 30.8409 73.7099 30.8319L73.4468 30.774V30.6635H74.5784V30.774L74.3415 30.8319C74.3113 30.8401 74.284 30.8565 74.2626 30.8793C74.2414 30.9063 74.2302 30.9398 74.231 30.9741V31.7214H75.3626V30.9741C75.3635 30.9398 75.3523 30.9063 75.3311 30.8793C75.3088 30.8576 75.2817 30.8414 75.2521 30.8319L75.0153 30.774V30.6635H76.1416V30.774L75.8784 30.8319C75.8475 30.8413 75.82 30.8596 75.7995 30.8846C75.7777 30.9092 75.7664 30.9413 75.7679 30.9741V32.732C75.7679 32.7646 75.779 32.7962 75.7995 32.8215C75.8203 32.845 75.8479 32.8616 75.8784 32.8689L76.1416 32.932V33.0426H75.0153V32.932L75.2521 32.8689C75.2837 32.8627 75.3121 32.8456 75.3323 32.8205C75.3525 32.7955 75.3632 32.7642 75.3626 32.732V31.8793H74.231V32.732C74.2295 32.7648 74.2408 32.7969 74.2626 32.8215C74.2716 32.8346 74.2833 32.8456 74.2969 32.8538C74.3105 32.862 74.3258 32.8671 74.3415 32.8689L74.5784 32.932V33.0426H73.4468V32.932Z" fill="#0C647B"/>
<path d="M76.3159 32.8637H76.5633C76.6133 32.8165 76.6575 32.7635 76.6949 32.7058C76.7469 32.627 76.7927 32.5443 76.8317 32.4584C76.8738 32.3637 76.9159 32.2584 76.958 32.1479C77.0012 32.0306 77.0381 31.9111 77.0686 31.79C77.0949 31.6689 77.1212 31.5426 77.137 31.4163C77.1562 31.2909 77.165 31.1641 77.1633 31.0373C77.1665 31.004 77.1665 30.9705 77.1633 30.9373C77.1588 30.9147 77.1499 30.8932 77.137 30.8741C77.127 30.8625 77.1144 30.8535 77.1002 30.8478H77.0581L76.7949 30.7899V30.6794H78.9581V30.7899L78.695 30.8478C78.664 30.8571 78.6365 30.8755 78.616 30.9004C78.5942 30.925 78.5829 30.9571 78.5844 30.9899V32.8795H78.9844V33.8269H78.8265L78.6055 33.1479C78.603 33.133 78.5975 33.1188 78.5894 33.1062C78.5813 33.0935 78.5706 33.0826 78.5581 33.0742C78.5359 33.067 78.5119 33.067 78.4897 33.0742H76.8159C76.792 33.0662 76.7662 33.0662 76.7422 33.0742C76.7204 33.0943 76.7041 33.1197 76.6949 33.1479L76.4738 33.8269H76.3212L76.3159 32.8637ZM78.1686 32.8637V30.8583H77.3896C77.3896 31.0927 77.372 31.3267 77.337 31.5584C77.3091 31.752 77.2687 31.9436 77.216 32.1321C77.1698 32.287 77.1081 32.4369 77.0317 32.5795C76.9753 32.6916 76.9045 32.796 76.8212 32.89L78.1686 32.8637Z" fill="#0C647B"/>
<path d="M79.1415 34.0901L79.41 34.0269C79.4418 34.0189 79.4708 34.0025 79.4942 33.9795C79.5024 33.9485 79.5024 33.9158 79.4942 33.8848V31.111C79.495 31.0718 79.484 31.0333 79.4626 31.0005C79.4314 30.9659 79.3914 30.9404 79.3468 30.9268L79.1205 30.8478V30.7847L79.8942 30.611V31.0057L79.9468 30.9373C80.0022 30.865 80.0678 30.8012 80.1416 30.7478C80.2038 30.7062 80.271 30.6726 80.3416 30.6478C80.3995 30.626 80.4594 30.6101 80.5205 30.6005H80.6679C80.806 30.5973 80.9429 30.6261 81.0679 30.6847C81.1822 30.7413 81.2815 30.8243 81.3574 30.9268C81.4405 31.0375 81.5029 31.1623 81.5416 31.2952C81.585 31.4439 81.6063 31.5982 81.6048 31.7531C81.6065 31.9316 81.5798 32.1093 81.5258 32.2795C81.4819 32.4341 81.4087 32.5789 81.3101 32.7058C81.2145 32.825 81.0942 32.922 80.9574 32.99C80.8108 33.0641 80.6479 33.1003 80.4837 33.0953C80.4208 33.1036 80.3571 33.1036 80.2942 33.0953C80.2391 33.0862 80.1858 33.0685 80.1363 33.0427L80.01 32.969C79.973 32.9435 79.9394 32.9135 79.91 32.8795V33.9322C79.9092 33.9665 79.9203 34 79.9416 34.0269C79.961 34.0521 79.9892 34.069 80.0205 34.0743L80.3574 34.1374V34.248H79.1152L79.1415 34.0901ZM80.4574 32.8848C80.5729 32.8873 80.687 32.8601 80.789 32.8058C80.8814 32.7545 80.9607 32.6824 81.0206 32.5953C81.0822 32.5021 81.1267 32.3987 81.1522 32.29C81.1838 32.1697 81.1997 32.0459 81.1995 31.9216C81.1996 31.7819 81.1855 31.6426 81.1574 31.5058C81.1315 31.3872 81.0871 31.2736 81.0258 31.1689C80.9698 31.0776 80.8921 31.0017 80.7995 30.9478C80.6976 30.8935 80.5834 30.8663 80.4679 30.8689L80.3205 30.8584C80.2719 30.8675 80.2242 30.8816 80.1784 30.9005C80.1278 30.9204 80.08 30.9469 80.0363 30.9794C79.9882 31.0154 79.9471 31.06 79.9153 31.111V32.69C79.9494 32.7155 79.9865 32.7367 80.0258 32.7532C80.073 32.7744 80.1224 32.7903 80.1732 32.8005C80.2211 32.8161 80.2705 32.8267 80.3205 32.8321C80.3635 32.856 80.4095 32.8737 80.4574 32.8848Z" fill="#0C647B"/>
<path d="M83.8995 32.5268V32.7058L83.7258 32.8479C83.6576 32.8961 83.5854 32.9384 83.51 32.9742C83.4261 33.0112 83.34 33.0429 83.2521 33.0689C83.1606 33.0901 83.067 33.1007 82.9731 33.1005C82.8221 33.1028 82.672 33.076 82.531 33.0216C82.4017 32.97 82.2864 32.8889 82.1942 32.7847C82.0962 32.6703 82.0211 32.538 81.9731 32.3952C81.9188 32.2251 81.8921 32.0474 81.8941 31.8689C81.8947 31.7064 81.9195 31.545 81.9678 31.3899C82.013 31.2422 82.0863 31.1046 82.1836 30.9846C82.2797 30.8694 82.3978 30.7746 82.531 30.7057C82.6758 30.6376 82.8342 30.6034 82.9942 30.6057C83.1283 30.6028 83.2613 30.6298 83.3837 30.6846C83.4916 30.7351 83.5882 30.8067 83.6679 30.8952C83.7466 30.9816 83.8059 31.0839 83.8416 31.1952C83.8812 31.303 83.9008 31.4172 83.8995 31.532V31.632C83.8995 31.632 83.8995 31.6636 83.8995 31.6741C83.8972 31.6881 83.8972 31.7023 83.8995 31.7162H82.3205C82.3039 32.0054 82.3735 32.293 82.5205 32.5426C82.5884 32.6384 82.6796 32.7153 82.7855 32.7659C82.8915 32.8166 83.0086 32.8394 83.1258 32.8321C83.211 32.8326 83.2959 32.822 83.3784 32.8005C83.4488 32.7817 83.5174 32.757 83.5837 32.7268L83.7468 32.6321C83.7889 32.6027 83.8293 32.5711 83.8679 32.5373L83.8995 32.5268ZM83.4784 31.5478C83.4866 31.448 83.4866 31.3476 83.4784 31.2478C83.4614 31.1596 83.4313 31.0744 83.3889 30.9952C83.3543 30.9234 83.3017 30.8617 83.2363 30.8162C83.169 30.7727 83.0901 30.7506 83.01 30.753C82.9255 30.7496 82.8417 30.7697 82.7679 30.8109C82.6931 30.8478 82.6281 30.9019 82.5784 30.9688C82.522 31.0459 82.4777 31.1311 82.4468 31.2215C82.4119 31.3277 82.3872 31.4369 82.3731 31.5478H83.4784Z" fill="#0C647B"/>
<path d="M84.1526 32.9321L84.4158 32.8689C84.4464 32.8616 84.4739 32.8451 84.4947 32.8215C84.5152 32.7962 84.5264 32.7646 84.5263 32.7321V30.9741C84.5278 30.9413 84.5165 30.9092 84.4947 30.8846C84.4742 30.8597 84.4467 30.8413 84.4158 30.832L84.1526 30.7741V30.6636H85.279V30.7741L85.0579 30.8583C85.0283 30.8677 85.0012 30.884 84.979 30.9057C84.9577 30.9326 84.9466 30.9661 84.9474 31.0004V32.5794L86.1106 30.8583V30.6741H86.8843V30.7846L86.6369 30.8583C86.6054 30.8663 86.5775 30.8849 86.558 30.9109C86.5362 30.9355 86.5249 30.9676 86.5264 31.0004V32.7584C86.5264 32.7909 86.5375 32.8225 86.558 32.8479C86.578 32.8723 86.6059 32.889 86.6369 32.8952L86.9001 32.9584V33.0689H85.7422V32.9584L85.979 32.8952C85.9948 32.8935 86.01 32.8883 86.0237 32.8802C86.0373 32.872 86.049 32.861 86.058 32.8479C86.0797 32.8233 86.091 32.7912 86.0895 32.7584V31.1794L84.9158 32.8742V33.0531H84.1421L84.1526 32.9321ZM85.5369 30.1214C85.4193 30.1238 85.3021 30.1078 85.1895 30.0741C85.1076 30.0496 85.0309 30.0104 84.9632 29.9583C84.9069 29.9196 84.8615 29.867 84.8316 29.8056C84.8069 29.7602 84.7925 29.7099 84.7895 29.6583V29.5004H85.1737V29.8425C85.1911 29.864 85.2126 29.8819 85.2369 29.8951C85.2639 29.9144 85.2943 29.9286 85.3263 29.9372C85.3613 29.9421 85.3967 29.9421 85.4316 29.9372H85.5369H85.6422C85.6771 29.9421 85.7125 29.9421 85.7474 29.9372C85.7795 29.9286 85.8098 29.9144 85.8369 29.8951C85.8612 29.8819 85.8827 29.864 85.9001 29.8425V29.5004H86.2843V29.6583C86.2812 29.7099 86.2668 29.7602 86.2422 29.8056C86.2126 29.8657 86.1694 29.918 86.1158 29.9583C86.0481 30.0104 85.9714 30.0496 85.8895 30.0741C85.7751 30.1078 85.6562 30.1237 85.5369 30.1214Z" fill="#0C647B"/>
<path d="M88.3633 32.9267L88.6738 32.8583C88.7073 32.8515 88.7372 32.8328 88.758 32.8057C88.7793 32.7808 88.7906 32.7489 88.7896 32.7162V29.9845C88.7904 29.9502 88.7793 29.9167 88.758 29.8898C88.7372 29.8627 88.7073 29.844 88.6738 29.8372L88.3633 29.774V29.6582H91.6897V29.774L91.3792 29.8372C91.362 29.8388 91.3455 29.8443 91.3308 29.8535C91.3162 29.8626 91.3039 29.8751 91.295 29.8898C91.2737 29.9167 91.2626 29.9502 91.2634 29.9845V32.7162C91.2626 32.7505 91.2737 32.784 91.295 32.811C91.3157 32.8373 91.3459 32.8543 91.3792 32.8583L91.6897 32.9267V33.0425H90.3897V32.9267L90.7055 32.8583C90.7374 32.8512 90.7656 32.8324 90.7844 32.8057C90.7967 32.7943 90.8063 32.7804 90.8126 32.765C90.819 32.7495 90.8219 32.7329 90.8213 32.7162V29.8424H89.2423V32.7162C89.2414 32.7505 89.2526 32.784 89.2738 32.811C89.2971 32.8368 89.3288 32.8536 89.3633 32.8583L89.6686 32.9267V33.0425H88.3738L88.3633 32.9267Z" fill="#0C647B"/>
<path d="M93.1683 32.9005C93.1046 32.9485 93.0358 32.9891 92.963 33.0216C92.8966 33.0475 92.8279 33.0669 92.7577 33.0795H92.5682C92.4811 33.0819 92.3945 33.0639 92.3156 33.0268C92.2402 32.9956 92.1721 32.949 92.1156 32.89C92.0616 32.8316 92.0187 32.7638 91.9893 32.69C91.958 32.6131 91.9419 32.5309 91.9419 32.4479C91.942 32.3558 91.9599 32.2647 91.9945 32.1794C92.0307 32.1023 92.0786 32.0313 92.1366 31.9689C92.198 31.9106 92.267 31.861 92.3419 31.8215C92.4191 31.7789 92.5002 31.7437 92.584 31.7162C92.6635 31.692 92.7443 31.6727 92.8261 31.6583H93.0577H93.1209H93.2051H93.363V31.2268C93.3696 31.162 93.3696 31.0968 93.363 31.032C93.3514 30.9888 93.3295 30.949 93.2993 30.9161C93.2691 30.8831 93.2313 30.8579 93.1893 30.8425C93.1351 30.8366 93.0804 30.8366 93.0261 30.8425C92.9469 30.8407 92.8681 30.855 92.7946 30.8846C92.72 30.9098 92.6478 30.9415 92.5788 30.9794L92.3893 31.1057L92.2419 31.2162H92.1893L92.1156 30.832L92.2735 30.7478C92.3351 30.721 92.3984 30.6981 92.463 30.6794L92.6735 30.6267C92.7541 30.6213 92.835 30.6213 92.9156 30.6267C93.0185 30.6263 93.121 30.6387 93.2209 30.6636C93.3227 30.6901 93.419 30.7346 93.5051 30.7952C93.6015 30.8634 93.6784 30.9556 93.7283 31.0627C93.7781 31.1698 93.7991 31.288 93.7893 31.4057V32.69C93.7835 32.7106 93.7835 32.7325 93.7893 32.7531C93.7985 32.7726 93.811 32.7904 93.8262 32.8058L93.8893 32.8373H93.9788H94.0051H94.063H94.1315H94.1894H94.2157V32.9531L94.1209 33.0163C94.085 33.0433 94.0461 33.0662 94.0051 33.0847L93.8683 33.1374C93.8247 33.1445 93.7803 33.1445 93.7367 33.1374C93.6809 33.1464 93.624 33.1464 93.5683 33.1374C93.5243 33.1283 93.4839 33.1063 93.4525 33.0742C93.4189 33.0401 93.3937 32.9986 93.3788 32.9531C93.3696 32.8885 93.3696 32.823 93.3788 32.7584C93.3164 32.8163 93.2453 32.8643 93.1683 32.9005ZM93.363 31.7952C93.2273 31.7942 93.0917 31.8048 92.9577 31.8268C92.8516 31.8449 92.7487 31.8786 92.6524 31.9268C92.5734 31.9689 92.5063 32.0305 92.4577 32.1057C92.4101 32.1831 92.3863 32.2728 92.3893 32.3636C92.3863 32.4374 92.3989 32.5109 92.4261 32.5794C92.4488 32.6335 92.4829 32.682 92.5261 32.7215C92.5636 32.756 92.6087 32.7813 92.6577 32.7952C92.7066 32.8021 92.7562 32.8021 92.8051 32.7952H92.9525C93.0047 32.7843 93.0558 32.7684 93.1051 32.7479C93.1535 32.7267 93.1994 32.7002 93.2419 32.6689C93.2868 32.6372 93.326 32.598 93.3577 32.5531L93.363 31.7952Z" fill="#0C647B"/>
<path d="M96.2367 32.5215V32.6952C96.1841 32.7482 96.1279 32.7975 96.0683 32.8426C96.0008 32.8907 95.9305 32.9346 95.8578 32.9742C95.7787 33.0126 95.6958 33.0426 95.6104 33.0636C95.5197 33.0895 95.4257 33.1019 95.3314 33.1005C95.1839 33.1027 95.0378 33.0703 94.9051 33.0057C94.779 32.9443 94.6677 32.8563 94.5788 32.7478C94.4871 32.6375 94.4174 32.5107 94.3735 32.3741C94.3248 32.23 94.2999 32.0789 94.2998 31.9267C94.3014 31.8118 94.3137 31.6973 94.3367 31.5846C94.3616 31.4772 94.3986 31.3731 94.4472 31.2741C94.4975 31.1758 94.5593 31.084 94.6314 31.0004C94.7025 30.9178 94.7859 30.8468 94.8788 30.7899C94.9755 30.7254 95.0822 30.6774 95.1946 30.6478C95.3197 30.613 95.4489 30.5953 95.5788 30.5951C95.6592 30.5858 95.7405 30.5858 95.8209 30.5951C95.879 30.6055 95.9356 30.6232 95.9893 30.6478C96.0316 30.6628 96.0722 30.6822 96.1104 30.7056L96.1999 30.7583L96.1209 31.1425H96.063L95.8893 31.0215C95.7763 30.9378 95.65 30.8737 95.5156 30.832C95.4422 30.8101 95.3659 30.7994 95.2893 30.8004C95.2597 30.7954 95.2295 30.7954 95.1998 30.8004C95.1669 30.8062 95.1349 30.8168 95.1051 30.832L95.0262 30.8846L94.9577 30.9478C94.9301 30.9825 94.9055 31.0195 94.884 31.0583C94.8544 31.1121 94.8297 31.1685 94.8104 31.2267C94.7867 31.2988 94.7691 31.3728 94.7577 31.4478C94.7406 31.5345 94.7318 31.6226 94.7314 31.711C94.7311 31.8616 94.7488 32.0118 94.784 32.1583C94.8169 32.2782 94.8722 32.3908 94.9472 32.4899C95.0163 32.5793 95.1068 32.6499 95.2104 32.6952C95.3246 32.7459 95.4486 32.7711 95.5735 32.7689C95.6415 32.7691 95.709 32.7584 95.7735 32.7373C95.834 32.7192 95.8922 32.6945 95.9472 32.6636L96.0999 32.5689L96.2051 32.4794L96.2367 32.5215Z" fill="#0C647B"/>
<path d="M98.4049 32.5268V32.7058L98.2312 32.8479C98.1637 32.8972 98.0914 32.9395 98.0154 32.9742C97.9322 33.0129 97.8459 33.0446 97.7575 33.0689C97.666 33.0901 97.5724 33.1007 97.4785 33.1005C97.3274 33.1028 97.1773 33.076 97.0364 33.0216C96.9071 32.97 96.7917 32.8889 96.6995 32.7847C96.6015 32.6703 96.5265 32.538 96.4785 32.3952C96.4242 32.2251 96.3975 32.0474 96.3995 31.8689C96.4 31.7064 96.4249 31.545 96.4732 31.3899C96.5205 31.2431 96.5936 31.1059 96.689 30.9846C96.7851 30.8694 96.9032 30.7746 97.0364 30.7057C97.1812 30.6376 97.3396 30.6034 97.4996 30.6057C97.6336 30.6028 97.7667 30.6298 97.8891 30.6846C97.9977 30.7338 98.0946 30.8055 98.1733 30.8952C98.252 30.9816 98.3112 31.0839 98.347 31.1952C98.3882 31.3027 98.4096 31.4168 98.4101 31.532C98.4127 31.5477 98.4127 31.5637 98.4101 31.5794V31.632C98.4101 31.632 98.4101 31.6636 98.4101 31.6741C98.4079 31.6881 98.4079 31.7023 98.4101 31.7162H96.8311C96.8145 32.0054 96.8841 32.293 97.0311 32.5426C97.099 32.6384 97.1902 32.7153 97.2962 32.7659C97.4021 32.8166 97.5192 32.8394 97.6364 32.8321C97.7216 32.8326 97.8066 32.822 97.8891 32.8005C97.9608 32.7808 98.0312 32.7562 98.0996 32.7268C98.1543 32.6988 98.207 32.6671 98.2575 32.6321C98.2995 32.6027 98.3399 32.5711 98.3785 32.5373L98.4049 32.5268ZM97.9733 31.5478C97.9815 31.448 97.9815 31.3476 97.9733 31.2478C97.9556 31.1605 97.9273 31.0756 97.8891 30.9952C97.8508 30.9242 97.7968 30.863 97.7311 30.8162C97.6639 30.7727 97.5849 30.7506 97.5048 30.753C97.4203 30.7496 97.3365 30.7697 97.2627 30.8109C97.1879 30.8478 97.123 30.9019 97.0732 30.9688C97.0169 31.0459 96.9725 31.1311 96.9416 31.2215C96.9068 31.3277 96.8821 31.4369 96.868 31.5478H97.9733Z" fill="#0C647B"/>
<path d="M100.032 32.932L100.295 32.8689C100.326 32.8627 100.355 32.8456 100.375 32.8206C100.395 32.7955 100.406 32.7642 100.405 32.732V31.9109C100.35 31.9465 100.292 31.9782 100.232 32.0057L100.047 32.0688C99.9889 32.0873 99.9291 32.1013 99.8685 32.1109H99.7054C99.4991 32.1274 99.2942 32.0654 99.1317 31.9373C99.069 31.8738 99.0203 31.7979 98.9885 31.7145C98.9568 31.6312 98.9428 31.5421 98.9474 31.453V30.9267C98.9489 30.8939 98.9376 30.8618 98.9159 30.8372C98.8963 30.8111 98.8685 30.7926 98.8369 30.7846L98.5737 30.7267V30.6161H99.7054V30.7267L99.4685 30.7846C99.4377 30.7912 99.4099 30.8078 99.3896 30.8319C99.3683 30.8589 99.3572 30.8924 99.358 30.9267V31.2899C99.3554 31.3627 99.3643 31.4356 99.3843 31.5057C99.3964 31.5671 99.4234 31.6246 99.4628 31.6732C99.5023 31.7218 99.553 31.7601 99.6106 31.7846C99.6825 31.8137 99.7594 31.828 99.8369 31.8267H99.958H100.1H100.253L100.405 31.7846V30.9741C100.406 30.9398 100.395 30.9063 100.374 30.8793C100.357 30.8698 100.34 30.8627 100.321 30.8583L100.084 30.8004V30.6898H101.211V30.8004L100.948 30.8583C100.917 30.8676 100.889 30.8859 100.869 30.9109C100.847 30.9355 100.835 30.9676 100.837 31.0004V32.7583C100.837 32.7909 100.848 32.8225 100.869 32.8478C100.889 32.8714 100.917 32.8879 100.948 32.8952L101.211 32.9583V33.0689H100.058L100.032 32.932Z" fill="#0C647B"/>
<path d="M101.421 32.932L101.684 32.8689C101.715 32.8616 101.742 32.845 101.763 32.8215C101.783 32.7962 101.795 32.7646 101.795 32.732V30.9741C101.796 30.9413 101.785 30.9092 101.763 30.8846C101.742 30.8596 101.715 30.8413 101.684 30.8319L101.421 30.774V30.6635H102.547V30.774L102.316 30.8319C102.284 30.84 102.255 30.8563 102.231 30.8793C102.223 30.9104 102.223 30.943 102.231 30.9741V31.7214H103.363V30.9741C103.364 30.9398 103.353 30.9063 103.331 30.8793C103.309 30.8576 103.282 30.8414 103.253 30.8319L103.016 30.774V30.6635H104.142V30.774L103.879 30.8319C103.848 30.8413 103.82 30.8596 103.8 30.8846C103.778 30.9092 103.767 30.9413 103.768 30.9741V32.732C103.768 32.7646 103.779 32.7962 103.8 32.8215C103.821 32.845 103.848 32.8616 103.879 32.8689L104.142 32.932V33.0426H103.016V32.932L103.253 32.8689C103.284 32.8627 103.312 32.8456 103.333 32.8205C103.353 32.7955 103.364 32.7642 103.363 32.732V31.8793H102.231V32.732C102.223 32.7612 102.223 32.7923 102.231 32.8215C102.252 32.8478 102.282 32.8649 102.316 32.8689L102.547 32.932V33.0426H101.421V32.932Z" fill="#0C647B"/>
<path d="M104.354 32.932L104.617 32.8689C104.648 32.8616 104.675 32.845 104.696 32.8215C104.716 32.7962 104.728 32.7646 104.728 32.732V30.9741C104.729 30.9413 104.718 30.9092 104.696 30.8846C104.675 30.8596 104.648 30.8413 104.617 30.8319L104.354 30.774V30.6635H105.48V30.774L105.243 30.8319C105.214 30.8414 105.187 30.8576 105.164 30.8793C105.143 30.9063 105.132 30.9398 105.133 30.9741V32.5531L106.301 30.8583V30.674H107.075V30.7846L106.812 30.8425C106.781 30.8518 106.753 30.8701 106.733 30.8951C106.711 30.9197 106.7 30.9518 106.701 30.9846V32.7425C106.701 32.7751 106.712 32.8067 106.733 32.832C106.754 32.8556 106.781 32.8721 106.812 32.8794L107.075 32.9425V33.0531H105.949V32.9425L106.186 32.8794C106.217 32.8732 106.246 32.8561 106.266 32.8311C106.286 32.806 106.297 32.7747 106.296 32.7425V31.1635L105.122 32.8583V33.0373H104.349L104.354 32.932Z" fill="#0C647B"/>
<path d="M109.19 33.0636C109.156 33.0579 109.124 33.0453 109.095 33.0268C109.066 33.0077 109.041 32.9826 109.022 32.9531C108.994 32.9169 108.969 32.8781 108.948 32.8373L108.48 31.9951L108.09 31.9109V32.732C108.089 32.7642 108.1 32.7955 108.12 32.8205C108.141 32.8456 108.169 32.8627 108.201 32.8689L108.437 32.932V33.0426H107.311V32.932L107.574 32.8689C107.605 32.8616 107.632 32.845 107.653 32.8215C107.674 32.7962 107.685 32.7646 107.685 32.732V30.9741C107.686 30.9413 107.675 30.9092 107.653 30.8846C107.633 30.8596 107.605 30.8413 107.574 30.8319L107.311 30.774V30.6635H108.437V30.774L108.216 30.8583C108.187 30.8677 108.16 30.8839 108.137 30.9056C108.116 30.9326 108.105 30.9661 108.106 31.0004V31.7951H108.322C108.377 31.8036 108.434 31.8036 108.49 31.7951C108.542 31.7774 108.59 31.7466 108.627 31.7057C108.672 31.6497 108.709 31.5877 108.737 31.5214C108.769 31.4478 108.801 31.3688 108.827 31.2951C108.853 31.2214 108.88 31.1425 108.911 31.0688C108.933 31.0061 108.965 30.9474 109.006 30.8951L109.106 30.7846L109.206 30.7161L109.316 30.6793H109.448H109.632H109.701L109.627 31.0635H109.58H109.506H109.427H109.269C109.232 31.0629 109.197 31.076 109.169 31.1004C109.139 31.1266 109.112 31.1567 109.09 31.1898C109.065 31.2307 109.042 31.2729 109.022 31.3162C109.022 31.3688 108.974 31.4162 108.943 31.4688C108.911 31.5214 108.885 31.5741 108.853 31.6267C108.816 31.6747 108.775 31.7204 108.732 31.7636L109.353 32.8162C109.371 32.8469 109.396 32.8723 109.427 32.8899C109.454 32.9084 109.484 32.9209 109.516 32.9268L109.774 32.9952V33.1057L109.301 33.132C109.261 33.1139 109.224 33.0909 109.19 33.0636Z" fill="#0C647B"/>
<path d="M26.6342 15.3946C24.5288 15.3946 22.6814 19.0368 22.6814 20.5369C22.6814 21.1211 22.9551 21.4685 23.3867 21.4685C24.4394 21.4685 26.3447 19.3632 27.5974 16.1157C29.0395 12.3576 30.7922 7.79956 31.8607 7.79956C31.9158 7.80289 31.9697 7.81716 32.0193 7.84155C32.0688 7.86593 32.113 7.89994 32.1492 7.94159C32.1855 7.98323 32.2131 8.03168 32.2304 8.08411C32.2478 8.13654 32.2545 8.1919 32.2502 8.24695C32.2502 9.47331 27.7711 16.5999 27.7711 20.4579C27.7711 21.2001 27.7711 21.5475 28.2185 21.5475C29.0185 21.5475 30.4027 20.4369 31.2186 18.6684L31.4502 18.8421C30.687 20.858 28.9922 22.3264 27.6869 22.3264C26.7131 22.3264 26.3973 21.5475 26.3973 20.8685C26.4418 20.1548 26.5672 19.4485 26.771 18.7631C25.5026 20.8685 23.9814 22.3843 22.7972 22.3843C22.5908 22.3817 22.3871 22.3362 22.1992 22.2507C22.0113 22.1652 21.8432 22.0415 21.7057 21.8876C21.5681 21.7337 21.464 21.5529 21.4 21.3566C21.336 21.1603 21.3135 20.9529 21.334 20.7474C21.334 18.5894 24.1604 14.7893 26.5973 14.7893C27.1237 14.7893 27.45 14.984 27.45 15.3946C27.4481 15.4852 27.4357 15.5753 27.4132 15.663C27.3157 15.5573 27.1935 15.4774 27.0575 15.4305C26.9216 15.3837 26.7761 15.3713 26.6342 15.3946Z" fill="#0C647B"/>
<path d="M30.8809 19.3473C31.4942 18.1583 32.0219 16.9271 32.4599 15.663C32.3968 15.6026 32.3469 15.5298 32.3134 15.4491C32.2799 15.3685 32.2634 15.2818 32.2651 15.1945C32.2534 14.918 32.3249 14.6443 32.4704 14.4088C32.6158 14.1733 32.8285 13.9868 33.0809 13.8734C33.3546 13.8734 33.3546 14.205 33.3546 14.3366C33.3546 14.4682 33.1388 14.984 33.1388 15.0577C33.1388 15.7787 35.1284 16.1103 35.1284 17.7683C35.1284 18.9526 34.1547 20.2421 34.1547 21.0579C34.1454 21.1369 34.1541 21.2169 34.1802 21.292C34.2062 21.3671 34.249 21.4354 34.3052 21.4916C34.3614 21.5478 34.4297 21.5905 34.5048 21.6166C34.5799 21.6427 34.6599 21.6514 34.7389 21.6421C35.9653 21.6421 37.5601 19.8684 38.0496 18.742L38.3022 18.9368C37.5601 20.5895 35.8863 22.3422 34.2284 22.3422C34.0497 22.3647 33.8683 22.3487 33.6963 22.2954C33.5244 22.2421 33.3658 22.1526 33.2312 22.033C33.0966 21.9134 32.9892 21.7664 32.916 21.6018C32.8429 21.4373 32.8058 21.259 32.8072 21.0789C32.8072 19.9263 33.8599 18.4473 33.8599 17.4367C33.8599 16.5998 33.2546 16.3051 32.7704 15.9577C32.2738 17.24 31.6936 18.4884 31.0335 19.6947L30.8809 19.3473Z" fill="#0C647B"/>
<path d="M38.0508 21.4895C38.0508 21.0632 38.6719 20.6895 39.1771 20.6895C39.4877 20.6895 39.7035 20.8105 39.7035 21.1579C39.6589 21.3951 39.5342 21.6097 39.3502 21.7659C39.1662 21.9221 38.9342 22.0103 38.6929 22.0158C38.3403 22.0158 38.0508 21.8579 38.0508 21.4895Z" fill="#0C647B"/>
<path d="M44.6305 16.0578C43.8515 18.7263 43.1304 21.4527 42.5252 23.5159C41.862 23.5159 41.1777 23.1054 41.1777 22.5422C41.221 22.1806 41.3131 21.8265 41.4514 21.4895C43.0883 16.4104 44.2357 12.884 46.2411 8.33115C44.741 8.62063 43.7515 9.38382 43.5357 9.38382C43.3199 9.38382 42.9304 9.05223 42.9304 8.85748C44.2844 8.23264 45.7463 7.8752 47.2359 7.80481C49.5359 7.80481 52.2413 9.06802 52.2413 11.5628C52.2413 15.6314 46.0885 16.063 44.82 16.063L44.6305 16.0578ZM47.4148 8.22588C46.3071 10.6595 45.4022 13.1804 44.7094 15.763C47.5727 15.6051 50.9413 14.2208 50.9413 11.2418C50.9413 9.12065 49.2675 8.22588 47.4148 8.22588Z" fill="#0C647B"/>
<path d="M56.8191 18.1789C56.8191 18.6262 55.6928 19.9526 55.6928 20.8842C55.6928 21.2737 55.8875 21.7422 56.356 21.7422C57.056 21.7422 58.3034 20.7316 59.4719 18.6684L59.6666 18.8631C58.8455 20.9684 57.1928 22.4053 55.8086 22.4053C55.6248 22.4173 55.4405 22.3905 55.2677 22.3267C55.0949 22.2629 54.9374 22.1635 54.8054 22.035C54.6735 21.9065 54.5699 21.7517 54.5016 21.5807C54.4332 21.4097 54.4015 21.2262 54.4085 21.0421C54.4095 20.853 54.4289 20.6644 54.4664 20.479C53.3348 21.979 52.4769 22.7369 51.5242 22.7369C50.7084 22.7369 50.082 22.2106 50.082 21.1211C50.082 18.8052 52.9453 15.1419 55.477 15.1419C56.4875 15.1419 57.2507 15.7261 57.2507 16.5999C57.2507 17.2473 56.8612 17.442 56.2928 17.442C56.3569 17.2195 56.3905 16.9893 56.3928 16.7578C56.3928 16.1735 56.1402 15.6682 55.4401 15.6682C53.6085 15.6682 51.4242 19.2894 51.4242 21.179C51.4242 21.7053 51.6031 21.9369 51.9505 21.9369C53.1611 21.9369 55.1085 19.0947 56.0402 17.6946C56.277 17.7315 56.8191 17.8894 56.8191 18.1789Z" fill="#0C647B"/>
<path d="M59.9564 18.5105C60.7427 17.6718 61.3976 16.7189 61.8986 15.6841V15.4525C61.8986 14.4999 62.2881 14.1262 62.6618 14.1262C62.8723 14.1262 62.9723 14.2472 62.9723 14.3841C62.911 14.6647 62.8723 14.9499 62.8565 15.2367C62.8565 16.5263 63.8671 18.1421 63.8671 19.9316C63.8714 20.253 63.8325 20.5734 63.7513 20.8843C64.6461 20.7317 65.4461 20.1474 66.204 18.6842L66.3777 18.879C66.1919 19.4856 65.8365 20.0264 65.3535 20.4377C64.8704 20.8489 64.2798 21.1135 63.6513 21.2001C63.4662 21.702 63.1237 22.1305 62.675 22.4218C62.2263 22.713 61.6955 22.8513 61.1617 22.816C59.3301 22.816 58.7248 21.4317 58.7248 20.2632C58.709 18.7527 59.7406 18.7527 59.9564 18.5105ZM62.4249 21.1791C61.4462 20.9741 60.5866 20.3941 60.0301 19.5632C59.7196 19.5632 59.6038 19.8369 59.6038 20.2422C59.6038 21.1791 60.188 22.1317 61.1828 22.1317C61.4679 22.1405 61.7474 22.0505 61.9737 21.8769C62.2001 21.7033 62.3595 21.4567 62.4249 21.1791ZM61.9986 16.442C61.4629 17.3522 60.8293 18.2012 60.1091 18.9737C60.3396 19.4495 60.6756 19.8665 61.0915 20.193C61.5074 20.5195 61.9922 20.7469 62.5091 20.858C62.5598 20.5553 62.5862 20.2491 62.5881 19.9422C62.5881 18.7527 62.1776 17.5 61.9828 16.4262L61.9986 16.442Z" fill="#0C647B"/>
<path d="M66.8885 19.7736C66.837 20.0052 66.8105 20.2416 66.8095 20.4789C66.8095 21.2736 67.1411 22.1158 68.3517 22.1158C70.0044 22.1158 71.7413 20.5368 72.715 18.6683L72.9466 18.842C71.8939 21.1789 69.8675 22.679 67.9412 22.679C66.3621 22.679 65.5674 21.6842 65.5674 20.421C65.5674 18.0998 68.1991 14.8102 70.5097 14.8102C70.6728 14.7838 70.8398 14.796 70.9973 14.8461C71.1548 14.8962 71.2983 14.9826 71.4162 15.0985C71.5341 15.2143 71.623 15.3562 71.6758 15.5128C71.7286 15.6694 71.7439 15.8362 71.7203 15.9998C71.7203 17.984 69.1096 19.563 66.8885 19.7736ZM66.9885 19.4051C68.3675 18.9209 70.8623 17.5367 70.8623 15.8629C70.8623 15.5682 70.7834 15.4155 70.4518 15.4155C69.2096 15.4155 67.5148 17.5577 66.9885 19.4051Z" fill="#0C647B"/>
<path d="M77.8937 16.6789C77.8937 17.4421 77.52 18.1 76.9199 18.1C76.8094 18.0982 76.7008 18.0711 76.6022 18.021C76.5037 17.9708 76.418 17.8988 76.3515 17.8105C76.5809 17.6251 76.7651 17.3898 76.89 17.1226C77.015 16.8554 77.0774 16.5633 77.0726 16.2683C77.0726 15.9578 76.9779 15.7841 76.6463 15.7841C75.262 15.7841 73.4514 18.6474 73.4514 20.558C73.4514 21.3527 73.7619 22.1738 74.8725 22.1738C76.4147 22.1738 78.1674 20.8106 79.0042 18.6474L79.2569 18.8421C78.3621 21.2001 76.3147 22.9107 74.4251 22.9107C73.1777 22.9107 72.2461 22.0949 72.2461 20.4211C72.2461 17.7894 74.5251 15.2367 76.5094 15.2367C76.6999 15.2222 76.8913 15.25 77.0698 15.3182C77.2483 15.3864 77.4095 15.4933 77.5418 15.6311C77.6742 15.769 77.7743 15.9344 77.8352 16.1156C77.896 16.2967 77.916 16.4891 77.8937 16.6789Z" fill="#0C647B"/>
<path d="M84.0673 18.1211C84.0673 17.4421 83.7357 17.1842 83.3252 17.1842C81.3988 17.1842 80.6935 22.5634 79.5671 22.5634C79.0776 22.5634 78.7671 21.5686 78.7671 20.537C78.7671 16.8158 82.8988 7.90491 84.5936 7.90491C85.0568 7.90491 85.2358 8.60493 85.2358 9.13127C85.2358 10.9419 83.0515 15.1683 80.7566 16.5526C80.2905 17.7787 80.0463 19.0779 80.0356 20.3896C80.0341 20.6112 80.0464 20.8327 80.0724 21.0528C80.9882 18.3843 82.2935 16.0052 84.0252 16.0052C85.0779 16.0052 85.5042 16.9052 85.5042 17.7579C85.5042 18.9685 84.6673 20.0791 84.6673 21.0317C84.6673 21.5581 84.92 21.7739 85.2515 21.7739C86.1305 21.7739 87.5148 20.3527 88.2938 18.6579L88.5464 18.8895C87.7253 20.8001 86.3042 22.2791 84.8042 22.2791C84.6346 22.2988 84.4628 22.2818 84.3004 22.2293C84.138 22.1767 83.9889 22.0898 83.863 21.9744C83.7372 21.8591 83.6377 21.718 83.5712 21.5608C83.5047 21.4036 83.4729 21.2339 83.4778 21.0633C83.4778 20.2422 84.0673 19.058 84.0673 18.1211ZM81.0093 15.8052C82.7988 14.363 84.5726 10.6419 84.5726 9.64708C84.5726 9.53129 84.5726 9.49444 84.4936 9.49444C84.1041 9.49444 81.983 12.6314 81.0093 15.8052Z" fill="#0C647B"/>
<path d="M88.584 16.8946C88.8201 16.6502 89.1396 16.5036 89.4788 16.484C89.5502 16.4745 89.6228 16.4816 89.691 16.5046C89.7592 16.5277 89.8211 16.5662 89.8721 16.6171C89.923 16.668 89.9615 16.73 89.9845 16.7982C90.0076 16.8664 90.0147 16.939 90.0051 17.0104C89.8911 17.8881 89.6829 18.751 89.3841 19.5842C90.4367 18.0052 91.9526 16.1577 93.4316 16.1577C94.4474 16.1577 94.8737 17.0314 94.8737 17.9104C94.8737 19.1157 94.0737 20.0158 94.0737 20.9842C94.0737 21.5106 94.3264 21.7263 94.6579 21.7263C95.6317 21.7263 96.6685 20.1473 97.3844 18.6894L97.6002 18.942C96.7843 20.8474 95.6896 22.2316 94.2316 22.2316C94.0568 22.2558 93.8789 22.2412 93.7104 22.1888C93.5419 22.1363 93.3871 22.0474 93.2569 21.9283C93.1267 21.8091 93.0244 21.6628 92.9573 21.4996C92.8901 21.3364 92.8598 21.1605 92.8684 20.9842C92.8684 20.1894 93.4316 19.1947 93.4316 18.2788C93.4316 17.5578 93.1 17.3262 92.6526 17.3262C91.0367 17.3262 89.2472 20.421 88.2314 22.1369C88.0344 22.1519 87.8367 22.1207 87.6539 22.0457C87.4712 21.9708 87.3085 21.8542 87.1787 21.7053C87.1998 21.4527 88.563 18.5894 88.584 16.8946Z" fill="#0C647B"/>
<path d="M100.168 15.6472C100.168 16.2893 98.1471 18.6473 98.1471 20.479C98.1471 21.4106 98.4576 21.6474 99.0998 21.6474C99.9735 21.6474 100.989 20.8842 102.1 18.6684L102.274 18.8631C101.516 21.1 99.9577 22.3264 98.4366 22.3264C97.426 22.3264 96.9365 21.6053 96.9365 20.6895C96.9365 19.2105 98.4155 15.2209 99.7419 15.2209C99.7987 15.2178 99.8555 15.2268 99.9086 15.2471C99.9617 15.2675 100.01 15.2988 100.05 15.339C100.09 15.3792 100.122 15.4274 100.142 15.4805C100.162 15.5336 100.171 15.5904 100.168 15.6472ZM99.9735 12.7629C99.9735 12.2365 100.774 11.7523 101.4 11.7523C101.789 11.7523 102.042 11.9102 102.042 12.3576C101.983 12.6517 101.825 12.9167 101.594 13.1083C101.363 13.2999 101.073 13.4065 100.774 13.4103C100.347 13.4103 99.9735 13.2155 99.9735 12.7629Z" fill="#0C647B"/>
<path d="M108.036 17.1737C108.032 17.0518 108.003 16.932 107.951 16.8215C107.899 16.711 107.825 16.6121 107.735 16.5306C107.644 16.4491 107.538 16.3867 107.422 16.3471C107.307 16.3075 107.184 16.2915 107.063 16.3C104.768 16.3 103.405 21.6371 103.168 22.0897C103.096 22.1993 102.997 22.289 102.881 22.3506C102.765 22.4122 102.636 22.4438 102.505 22.4424C101.847 22.4424 101.826 21.5055 101.826 20.6107C101.826 16.5421 106.342 7.93127 107.726 7.93127C108.079 7.93127 108.331 8.49445 108.331 9.19974C108.331 10.9893 106.657 13.8157 104.357 15.1947C103.603 16.9622 103.169 18.8494 103.073 20.7686C103.889 18.7001 105.484 15.3158 107.436 15.3158C107.896 15.3158 108.336 15.4982 108.661 15.823C108.986 16.1477 109.168 16.5881 109.168 17.0474C109.168 18.7212 107.163 19.3264 106.4 19.3264C106.457 19.7528 106.889 21.8371 107.921 21.8371C109.031 21.8371 110.026 20.437 110.805 18.6791L111 18.8738C110.431 20.7844 108.894 22.595 107.531 22.595C106.052 22.595 105.547 20.2738 105.547 19.0896C106.11 19.058 108.036 18.5106 108.036 17.1737ZM104.689 14.3894C106.478 12.9473 107.668 10.6524 107.668 9.65239C107.668 9.51554 107.668 9.4787 107.61 9.4787C107.221 9.49449 105.815 11.7893 104.689 14.3999V14.3894Z" fill="#0C647B"/>
<path d="M9.59166 6.78894C9.53933 6.92602 9.49711 7.06676 9.46534 7.21001L9.17059 8.42058C9.04953 8.94692 8.90742 9.57326 8.74426 10.3049C8.58109 11.0365 8.41266 11.8523 8.21792 12.7471C8.02318 13.6418 7.87054 14.6103 7.73896 15.6261C7.68106 16.1525 7.62316 16.6788 7.60737 17.1683C7.59406 17.4207 7.59406 17.6737 7.60737 17.9262V18.0999C7.61275 18.1565 7.62154 18.2128 7.63369 18.2683C7.63369 18.4052 7.68106 18.5473 7.70738 18.6894L7.79159 19.0684C7.82843 19.1999 7.85475 19.3315 7.89159 19.4631C7.92844 19.5947 7.96002 19.721 8.00739 19.8473L8.06528 20.0368L8.13371 20.2263C8.22768 20.4757 8.33486 20.7199 8.45477 20.9579C8.57599 21.2031 8.7095 21.442 8.85479 21.6737C9.00216 21.9158 9.16533 22.1632 9.33375 22.4316C9.51308 22.718 9.67479 23.0151 9.81798 23.3211C9.97324 23.6465 10.0949 23.9869 10.1812 24.337C10.2673 24.6826 10.3253 25.0347 10.3548 25.3896C10.3548 25.5581 10.3548 25.7318 10.3548 25.916C10.3548 26.0002 10.3548 26.0844 10.3548 26.1686V26.416C10.3548 26.5844 10.3548 26.7476 10.3548 26.9108C10.3548 27.0739 10.3548 27.2371 10.3127 27.395V27.5318V27.6476L10.318 27.7003V27.7687V27.9055C10.2864 28.0792 10.2548 28.2424 10.2127 28.4055C10.1338 28.7266 10.0443 29.0371 9.94957 29.3424C9.55241 30.4918 9.07943 31.6137 8.53372 32.7004C8.27582 33.2268 8.00739 33.7268 7.74422 34.2216C7.61439 34.4672 7.48281 34.7093 7.34947 34.9479L6.94945 35.6479L6.5547 36.3269L6.15995 36.9796C5.90204 37.4006 5.63361 37.8112 5.40202 38.2007C5.17044 38.5901 4.89674 38.9428 4.66515 39.2796C4.43357 39.6165 4.20724 39.9639 3.99671 40.2692L3.39669 41.1323L2.87035 41.8587C2.54928 42.2903 2.29664 42.6271 2.11769 42.8587L1.84399 43.2061C1.84399 43.2061 2.10716 42.6482 2.5756 41.6797L4.52831 37.7006L5.14412 36.4111L5.79678 35.0321L6.10731 34.3058C6.21784 34.0637 6.33364 33.8163 6.44417 33.5689C6.67049 33.0689 6.88629 32.5583 7.11262 32.0373C7.33894 31.5162 7.53895 30.9846 7.74422 30.4583C7.94949 29.9319 8.13897 29.374 8.29687 28.8266C8.37582 28.5529 8.44425 28.3003 8.50214 28.0108C8.53338 27.8805 8.55797 27.7488 8.57583 27.616V27.5266V27.4266V27.316V27.2739C8.57583 27.3055 8.57583 27.2739 8.57583 27.2739V27.216C8.57583 26.9318 8.61267 26.6476 8.61794 26.3686V26.1581C8.61794 26.0897 8.61794 26.0212 8.61794 25.9528C8.61794 25.8844 8.61794 25.6791 8.59162 25.5475C8.56705 25.2888 8.52484 25.0321 8.4653 24.7791C8.40421 24.5353 8.32142 24.2975 8.21792 24.0685C8.10301 23.8231 7.97475 23.5841 7.8337 23.3527C7.68632 23.1053 7.52316 22.8264 7.36526 22.5632C7.20736 22.3001 7.04946 21.9948 6.91261 21.6948C6.80204 21.3916 6.7089 21.0823 6.63365 20.7684L6.55996 20.5368L6.47049 20.3316C6.42838 20.1789 6.3968 20.0263 6.35996 19.8684C6.32311 19.7105 6.2968 19.5631 6.27048 19.4105C6.24416 19.2578 6.22311 19.0999 6.20206 18.942C6.181 18.7841 6.16521 18.6578 6.14942 18.5157C6.13363 18.3736 6.14942 18.342 6.14942 18.2578C6.14942 18.1736 6.14942 18.0946 6.14942 18.0104C6.14783 17.7043 6.16541 17.3985 6.20206 17.0946C6.26207 16.5334 6.35522 15.9763 6.48101 15.4261C6.69669 14.4431 6.96195 13.4717 7.27578 12.5155C7.56526 11.6312 7.85475 10.8312 8.12318 10.1312C8.39161 9.43115 8.64952 8.82586 8.87058 8.3311C9.09164 7.83635 9.27059 7.45739 9.39691 7.19948C9.44805 7.05652 9.51329 6.91899 9.59166 6.78894Z" fill="#0C647B"/>
<path d="M4.52808 0.330811C4.54154 0.355859 4.55213 0.382343 4.55966 0.409761C4.55966 0.467658 4.60703 0.546608 4.63861 0.657139C4.71752 0.974371 4.76338 1.29892 4.77546 1.6256C4.79458 2.14511 4.73784 2.66463 4.60703 3.16776C4.56493 3.30987 4.52282 3.46251 4.47545 3.61515C4.42808 3.76778 4.35439 3.92568 4.29123 4.08358L4.05964 4.55729C3.97017 4.71519 3.87016 4.87309 3.77016 5.03625C3.7475 5.07722 3.72107 5.11599 3.69121 5.15205L3.607 5.26784L3.4333 5.50469C3.37541 5.58364 3.32277 5.65733 3.25961 5.73102L3.09119 5.94681C2.86486 6.24156 2.62801 6.54157 2.42274 6.85211C2.21419 7.15022 2.03776 7.46955 1.8964 7.80478C1.83114 7.96539 1.77835 8.1308 1.7385 8.29953C1.7385 8.38375 1.70166 8.47322 1.68587 8.55744C1.67008 8.64165 1.68587 8.73113 1.65955 8.82061C1.63324 8.91008 1.65955 9.00482 1.65955 9.09956C1.65955 9.1943 1.65955 9.19431 1.65955 9.24168V9.38379V9.53116V9.67853C1.65955 9.77854 1.65955 9.87854 1.69113 9.97855C1.72271 10.0785 1.72271 10.1838 1.73324 10.2891L1.79114 10.5996L1.84903 10.9207C1.87535 11.026 1.8964 11.1312 1.91746 11.2418C2.1122 12.0997 2.36484 12.9839 2.60696 13.8734L2.78065 14.5629C2.83855 14.7945 2.89118 15.0261 2.94381 15.2577C2.99645 15.4893 3.04908 15.7156 3.09645 15.9472C3.14382 16.1788 3.19119 16.4156 3.2333 16.642C3.2754 16.8683 3.31751 17.1104 3.35962 17.3367C3.35962 17.4525 3.39646 17.5683 3.41225 17.6841C3.42804 17.7999 3.44383 17.9157 3.45962 18.0315C3.4912 18.2578 3.51752 18.4894 3.5491 18.7157L3.61226 19.4C3.61226 19.5105 3.61226 19.621 3.61226 19.7315V20.0684C3.61226 20.2895 3.61226 20.5105 3.61226 20.7316V21.3842C3.61226 21.4895 3.61226 21.5948 3.61226 21.7V22.0158L3.57542 22.6264C3.57542 22.8264 3.53331 23.0264 3.50699 23.2212L3.47541 23.5106V23.6475V23.7896L3.38067 24.3159C3.32277 24.6686 3.23856 25.0054 3.15961 25.3265L3.10171 25.5633C3.08557 25.6401 3.06447 25.7157 3.03855 25.7897C2.99645 25.937 2.95434 26.0792 2.90697 26.2213C2.81749 26.5002 2.7438 26.7476 2.6438 26.995C2.5438 27.2424 2.47537 27.4424 2.39642 27.6371L2.33853 27.774L2.28063 27.9055L2.1701 28.1424C2.10168 28.2898 2.03852 28.4108 1.99114 28.5108L1.83851 28.8161L1.89114 28.4792C1.89114 28.3687 1.93325 28.2371 1.95957 28.0792L2.00693 27.8266V27.6845V27.5371C2.0543 27.1318 2.14378 26.6423 2.19115 26.0792C2.19115 25.9423 2.21747 25.7949 2.23326 25.6476C2.23867 25.5722 2.23867 25.4966 2.23326 25.4212V25.1896C2.23326 24.8738 2.28063 24.5475 2.27537 24.2054V23.6791V23.4106C2.27537 23.3212 2.27537 23.2317 2.27537 23.1369C2.27537 22.9527 2.27537 22.7685 2.27537 22.579C2.27537 22.3895 2.24905 22.1948 2.23852 22.0001C2.23852 21.6106 2.1701 21.2106 2.13852 20.8053C2.13852 20.7053 2.10694 20.6 2.09641 20.5L2.05957 20.1895L2.01746 19.8789C2.01746 19.7737 1.98588 19.6684 1.97009 19.5631C1.84377 18.721 1.65955 17.8578 1.47007 16.9788L1.37007 16.3525C1.31744 16.1314 1.2648 15.9103 1.2069 15.6893C1.14901 15.4682 1.09637 15.2419 1.03848 15.0208C0.980581 14.7998 0.927947 14.5787 0.864787 14.3524C0.748993 13.8945 0.627935 13.4524 0.517404 12.9839C0.406874 12.5155 0.301607 12.0576 0.212129 11.5839C0.119212 11.1058 0.0559317 10.6224 0.0226492 10.1364C-0.0190363 9.63275 -0.00314346 9.12595 0.0700195 8.62586C0.0700195 8.49954 0.117389 8.37322 0.143706 8.2469C0.170023 8.12058 0.206867 7.99426 0.248974 7.8732C0.286778 7.75106 0.33249 7.6315 0.38582 7.51529C0.438454 7.3995 0.485825 7.28371 0.548985 7.17318C0.661663 6.9615 0.788262 6.75754 0.927946 6.56263C1.05503 6.37978 1.19209 6.20407 1.33849 6.03629C1.62271 5.70996 1.90167 5.42048 2.18589 5.15205L2.42274 4.95204C2.48979 4.89289 2.55308 4.82961 2.61222 4.76256L2.79118 4.5836L2.88065 4.49939L2.94908 4.40991C3.35415 3.97885 3.69455 3.4913 3.95964 2.96249C4.16734 2.53766 4.32117 2.08855 4.41755 1.6256C4.48479 1.31053 4.5218 0.989765 4.52808 0.667665C4.52808 0.451868 4.52808 0.330811 4.52808 0.330811Z" fill="#0C647B"/>
</svg>
