<svg width="212" height="82" viewBox="0 0 212 82" fill="none" xmlns="http://www.w3.org/2000/svg">
<path d="M39.9228 62.1036L40.5128 61.9736C40.5752 61.9577 40.6311 61.9227 40.6728 61.8736C40.7132 61.8264 40.7346 61.7657 40.7328 61.7036V56.5136C40.7343 56.4484 40.7131 56.3848 40.6728 56.3336C40.6311 56.2844 40.5752 56.2495 40.5128 56.2336L39.9228 56.1136V55.8936H46.2428V56.1136L45.6428 56.2336C45.6121 56.2387 45.5829 56.2503 45.5571 56.2675C45.5312 56.2847 45.5093 56.3073 45.4928 56.3336C45.4693 56.3571 45.4509 56.3852 45.4389 56.4162C45.4268 56.4472 45.4214 56.4804 45.4228 56.5136V61.7036C45.4214 61.7368 45.4268 61.77 45.4389 61.8009C45.4509 61.8319 45.4693 61.8601 45.4928 61.8836C45.5297 61.9314 45.5832 61.9635 45.6428 61.9736L46.2428 62.1036V62.3236H43.7728V62.1036L44.3828 61.9736C44.4471 61.9624 44.5046 61.9265 44.5428 61.8736C44.5832 61.8264 44.6046 61.7657 44.6028 61.7036V56.2436H41.6028V61.7036C41.6012 61.7687 41.6224 61.8324 41.6628 61.8836C41.7034 61.932 41.7603 61.964 41.8228 61.9736L42.4128 62.1036V62.3236H39.9228V62.1036Z" fill="white"/>
<path d="M46.8728 62.3936C46.8098 62.402 46.7459 62.402 46.6828 62.3936H46.5228L46.6728 61.6336H46.7528H46.9028H47.3828C47.3828 61.6336 47.4928 61.6336 47.5628 61.5036C47.6387 61.3924 47.7055 61.2754 47.7628 61.1536C47.8228 61.0036 47.8928 60.8236 47.9628 60.6236C48.0328 60.4236 48.0828 60.2036 48.1328 59.9736C48.1828 59.7436 48.2228 59.5036 48.2528 59.2536C48.2727 59.004 48.2727 58.7532 48.2528 58.5036C48.2589 58.4404 48.2589 58.3768 48.2528 58.3136C48.2561 58.2736 48.2561 58.2335 48.2528 58.1936C48.2339 58.1715 48.2099 58.1543 48.1828 58.1436H48.0928L47.5528 58.0336V57.8236H51.6128V58.0336L51.1128 58.1436C51.0537 58.1605 51.0015 58.1958 50.9638 58.2443C50.926 58.2929 50.9047 58.3521 50.9028 58.4136V61.7536C50.9028 61.8154 50.9239 61.8755 50.9628 61.9236C50.999 61.9722 51.0529 62.0045 51.1128 62.0136L51.6128 62.1336V62.3436H49.3828V62.1336L49.8728 62.0136C49.903 62.0109 49.9322 62.0014 49.9582 61.9858C49.9842 61.9703 50.0063 61.949 50.0228 61.9236C50.0642 61.8769 50.0857 61.8159 50.0828 61.7536V58.1736H48.7528C48.7518 58.7903 48.6983 59.4059 48.5928 60.0136C48.5051 60.475 48.3642 60.9247 48.1728 61.3536C48.0381 61.6637 47.8366 61.9402 47.5828 62.1636C47.3806 62.3214 47.1292 62.4028 46.8728 62.3936Z" fill="white"/>
<path d="M54.4328 62.0536C54.312 62.1448 54.1811 62.2219 54.0428 62.2836C53.9171 62.3341 53.7864 62.3709 53.6528 62.3936H53.2928C53.1272 62.3982 52.9628 62.364 52.8128 62.2936C52.6713 62.2363 52.5447 62.1474 52.4428 62.0336C52.3337 61.9259 52.2485 61.7964 52.1928 61.6536C52.1413 61.5056 52.1143 61.3503 52.1128 61.1936C52.1082 61.0183 52.1423 60.8441 52.2128 60.6836C52.2743 60.5331 52.3662 60.3969 52.4828 60.2836C52.5956 60.1683 52.7276 60.0736 52.8728 60.0036C53.0152 59.9209 53.1661 59.8538 53.3228 59.8036C53.4772 59.7575 53.6341 59.7208 53.7928 59.6936H54.2228H54.3828H54.5528H54.8428V58.8736C54.8554 58.7506 54.8554 58.6266 54.8428 58.5036C54.8218 58.4185 54.7806 58.3396 54.7228 58.2736C54.6632 58.2154 54.5915 58.1711 54.5128 58.1436C54.4132 58.1322 54.3125 58.1322 54.2128 58.1436C54.059 58.1402 53.906 58.1673 53.7628 58.2236C53.6219 58.2733 53.4848 58.3335 53.3528 58.4036L53.0028 58.6436L52.7228 58.8536H52.6128L52.3828 58.0936L52.6828 57.9336C52.8 57.8826 52.9202 57.8392 53.0428 57.8036L53.4528 57.7036C53.6027 57.693 53.753 57.693 53.9028 57.7036C54.0984 57.7022 54.2933 57.7257 54.4828 57.7736C54.6788 57.8259 54.8646 57.9104 55.0328 58.0236C55.1959 58.1456 55.3292 58.3028 55.4228 58.4836C55.5294 58.7011 55.5809 58.9415 55.5728 59.1836V61.6236C55.5663 61.6633 55.5663 61.7039 55.5728 61.7436C55.5904 61.7833 55.6179 61.8178 55.6528 61.8436L55.7728 61.9036H55.9428H56.0128H56.1328H56.2528H56.3628H56.3828V62.1236L56.2128 62.2436C56.1396 62.2928 56.0627 62.3363 55.9828 62.3736L55.7228 62.4736C55.6401 62.4872 55.5556 62.4872 55.4728 62.4736C55.3701 62.4897 55.2655 62.4897 55.1628 62.4736C55.0762 62.4565 54.9964 62.4148 54.9328 62.3536C54.8691 62.2887 54.8212 62.21 54.7928 62.1236C54.7753 62.0009 54.7753 61.8763 54.7928 61.7536C54.6885 61.871 54.5672 61.9722 54.4328 62.0536ZM54.8028 59.9536C54.5482 59.9513 54.2939 59.9713 54.0428 60.0136C53.838 60.0481 53.6393 60.1121 53.4528 60.2036C53.3026 60.2836 53.1752 60.4006 53.0828 60.5436C52.9924 60.6906 52.9472 60.861 52.9528 61.0336C52.9523 61.1733 52.976 61.312 53.0228 61.4436C53.0659 61.5463 53.1307 61.6384 53.2128 61.7136C53.2878 61.7793 53.3767 61.8272 53.4728 61.8536C53.5623 61.8678 53.6534 61.8678 53.7428 61.8536H54.0228C54.1225 61.8342 54.2197 61.804 54.3128 61.7636L54.5828 61.6136C54.6627 61.5503 54.7334 61.4763 54.7928 61.3936L54.8028 59.9536Z" fill="white"/>
<path d="M60.2628 61.3336V61.6636C60.0528 61.8777 59.8097 62.0566 59.5428 62.1936C59.3932 62.2682 59.2355 62.3252 59.0728 62.3636C58.9039 62.4126 58.7287 62.4362 58.5528 62.4336C58.279 62.4394 58.0075 62.382 57.7595 62.2658C57.5114 62.1496 57.2936 61.9778 57.1228 61.7636C56.949 61.5521 56.8136 61.3118 56.7228 61.0536C56.6335 60.7792 56.5896 60.4921 56.5928 60.2036C56.5908 59.9849 56.6143 59.7668 56.6628 59.5536C56.7014 59.3471 56.7723 59.148 56.8728 58.9636C56.9612 58.7752 57.0757 58.6001 57.2128 58.4436C57.3509 58.2859 57.5128 58.1509 57.6928 58.0436C57.8723 57.9201 58.072 57.8287 58.2828 57.7736C58.5208 57.7089 58.7662 57.6753 59.0128 57.6736C59.1656 57.6559 59.32 57.6559 59.4728 57.6736C59.584 57.6904 59.6919 57.7241 59.7928 57.7736C59.8739 57.8003 59.9512 57.8372 60.0228 57.8836L60.1928 57.9836L60.0428 58.7136H59.9428L59.6028 58.4836C59.4955 58.4042 59.3818 58.334 59.2628 58.2736C59.1448 58.2114 59.0208 58.1611 58.8928 58.1236C58.7566 58.0827 58.615 58.0624 58.4728 58.0636H58.2928C58.2329 58.0729 58.1753 58.0932 58.1228 58.1236L57.9628 58.2236L57.8428 58.3436C57.784 58.4068 57.7335 58.4774 57.6928 58.5536C57.6406 58.6578 57.5939 58.7646 57.5528 58.8736C57.5528 59.0036 57.4828 59.1436 57.4528 59.2936C57.4372 59.4599 57.4372 59.6273 57.4528 59.7936C57.4473 60.0801 57.481 60.3661 57.5528 60.6436C57.6117 60.8708 57.7136 61.0846 57.8528 61.2736C57.9841 61.4435 58.1561 61.5776 58.3528 61.6636C58.5703 61.7587 58.8055 61.8065 59.0428 61.8036C59.1719 61.804 59.3002 61.7837 59.4228 61.7436C59.5402 61.7074 59.654 61.6606 59.7628 61.6036L60.0428 61.4236L60.2528 61.2536L60.2628 61.3336Z" fill="white"/>
<path d="M61.5328 62.1136L62.0328 61.9936C62.0909 61.9797 62.1433 61.9483 62.1828 61.9036C62.2217 61.8555 62.2429 61.7955 62.2428 61.7336V58.1736H61.3828C61.2953 58.1683 61.2083 58.1891 61.1328 58.2336C61.0785 58.2745 61.0369 58.33 61.0128 58.3936L60.7328 59.1936H60.4928V57.8036H64.7028V59.1736H64.4728L64.1928 58.3736C64.1687 58.31 64.1271 58.2545 64.0728 58.2136C63.9973 58.1691 63.9102 58.1483 63.8228 58.1536H62.9928V61.7536C62.9917 61.8147 63.0121 61.8743 63.0505 61.9218C63.0889 61.9693 63.1428 62.0018 63.2028 62.0136L63.7028 62.1336V62.3436H61.5028L61.5328 62.1136Z" fill="white"/>
<path d="M65.1628 62.1136L65.6628 61.9936C65.7209 61.9797 65.7733 61.9483 65.8128 61.9036C65.8517 61.8555 65.8729 61.7955 65.8728 61.7336V58.3936C65.8757 58.3313 65.8542 58.2703 65.8128 58.2236C65.7739 58.1761 65.7216 58.1413 65.6628 58.1236L65.1628 58.0136V57.8036H67.3028V58.0136L66.8528 58.1236C66.7965 58.1415 66.7452 58.1723 66.7028 58.2136C66.6625 58.2648 66.6413 58.3284 66.6428 58.3936V61.3936L68.8628 58.1736V57.8236H70.3828V58.0336L69.8828 58.1436C69.824 58.1613 69.7718 58.1961 69.7328 58.2436C69.6915 58.2903 69.67 58.3513 69.6728 58.4136V61.7536C69.6728 61.8155 69.694 61.8755 69.7328 61.9236C69.7724 61.9683 69.8248 61.9997 69.8828 62.0136L70.3828 62.1336V62.3436H68.1928V62.1336L68.6428 62.0136C68.7028 62.0018 68.7567 61.9693 68.7952 61.9218C68.8336 61.8743 68.854 61.8147 68.8528 61.7536V58.7536L66.6228 61.9736V62.3136H65.1628V62.1136Z" fill="white"/>
<path d="M73.3828 62.1136L73.8828 61.9936C73.9428 61.9818 73.9967 61.9493 74.0351 61.9018C74.0735 61.8543 74.0939 61.7947 74.0928 61.7336V60.1736L73.7628 60.3536L73.4128 60.4736C73.3016 60.5086 73.1879 60.5353 73.0728 60.5536H72.7628C72.3708 60.5849 71.9816 60.467 71.6728 60.2236C71.5538 60.103 71.4611 59.9589 71.4009 59.8005C71.3406 59.6421 71.314 59.4728 71.3228 59.3036V58.3036C71.3256 58.2413 71.3041 58.1803 71.2628 58.1336C71.2257 58.0841 71.1728 58.0488 71.1128 58.0336L70.6128 57.9236V57.7136H72.7628V57.9236L72.3128 58.0336C72.2542 58.0461 72.2014 58.0778 72.1628 58.1236C72.1224 58.1748 72.1012 58.2384 72.1028 58.3036V58.9936C72.0814 59.1294 72.0814 59.2678 72.1028 59.4036C72.1259 59.5203 72.1771 59.6296 72.252 59.7219C72.327 59.8143 72.4234 59.887 72.5328 59.9336C72.6693 59.9888 72.8155 60.016 72.9628 60.0136H73.1928H73.4628H73.7528L74.0428 59.9336V58.3936C74.0444 58.3284 74.0231 58.2648 73.9828 58.2136C73.9405 58.1723 73.8891 58.1415 73.8328 58.1236L73.3828 58.0136V57.8036H75.5828V58.0136L75.0828 58.1236C75.024 58.1413 74.9718 58.1761 74.9328 58.2236C74.8915 58.2703 74.8699 58.3313 74.8728 58.3936V61.7336C74.8727 61.7955 74.8939 61.8555 74.9328 61.9036C74.9723 61.9483 75.0247 61.9797 75.0828 61.9936L75.5828 62.1136V62.3236H73.3828V62.1136Z" fill="white"/>
<path d="M79.8628 61.3436V61.6836C79.7626 61.7809 79.6557 61.8711 79.5428 61.9536C79.4099 62.0453 79.2693 62.1256 79.1228 62.1936C78.9676 62.2655 78.8071 62.3257 78.6428 62.3736C78.4657 62.4144 78.2845 62.4345 78.1028 62.4336C77.8191 62.4368 77.5374 62.3859 77.2728 62.2836C77.0272 62.1857 76.808 62.0316 76.6328 61.8336C76.44 61.6192 76.2936 61.3673 76.2028 61.0936C76.1034 60.7698 76.0561 60.4322 76.0628 60.0936C76.0588 59.7846 76.1061 59.4771 76.2028 59.1836C76.2887 58.9029 76.4279 58.6415 76.6128 58.4136C76.7953 58.1947 77.0197 58.0145 77.2728 57.8836C77.5471 57.7518 77.8486 57.6867 78.1528 57.6936C78.4075 57.6891 78.66 57.7403 78.8928 57.8436C79.0962 57.942 79.2794 58.0777 79.4328 58.2436C79.5824 58.4077 79.6949 58.6021 79.7628 58.8136C79.838 59.0185 79.8753 59.2353 79.8728 59.4536V59.6436C79.8685 59.6701 79.8685 59.6971 79.8728 59.7236C79.8728 59.7236 79.8728 59.7836 79.8728 59.8036H76.8728C76.8413 60.353 76.9736 60.8994 77.2528 61.3736C77.3818 61.5556 77.5552 61.7016 77.7564 61.7979C77.9577 61.8941 78.1802 61.9374 78.4028 61.9236C78.5647 61.9246 78.7261 61.9044 78.8828 61.8636C79.016 61.8262 79.1463 61.7794 79.2728 61.7236L79.5828 61.5436L79.8128 61.3636L79.8628 61.3436ZM79.0428 59.4836C79.0635 59.2941 79.0635 59.103 79.0428 58.9136C79.0184 58.7453 78.9643 58.5828 78.8828 58.4336C78.817 58.2972 78.7171 58.1801 78.5928 58.0936C78.4619 58.0095 78.3083 57.9676 78.1528 57.9736C77.9924 57.9686 77.8336 58.0066 77.6928 58.0836C77.5563 58.1577 77.437 58.26 77.3428 58.3836C77.2358 58.5301 77.1515 58.6919 77.0928 58.8636C77.0219 59.064 76.9749 59.2721 76.9528 59.4836H79.0428Z" fill="white"/>
<path d="M84.0428 61.3336V61.6636C83.8328 61.8777 83.5897 62.0566 83.3228 62.1936C83.1732 62.2682 83.0155 62.3252 82.8528 62.3636C82.6839 62.4126 82.5087 62.4362 82.3328 62.4336C82.059 62.4394 81.7875 62.382 81.5395 62.2658C81.2914 62.1496 81.0736 61.9778 80.9028 61.7636C80.729 61.5521 80.5936 61.3118 80.5028 61.0536C80.4136 60.7691 80.373 60.4716 80.3828 60.1736C80.3808 59.9549 80.4043 59.7368 80.4528 59.5236C80.4914 59.3171 80.5623 59.118 80.6628 58.9336C80.7549 58.7472 80.8691 58.5726 81.0028 58.4136C81.2951 58.0961 81.6685 57.8644 82.0828 57.7436C82.3173 57.6782 82.5594 57.6445 82.8028 57.6436C82.9557 57.6259 83.11 57.6259 83.2628 57.6436C83.3768 57.662 83.4878 57.6956 83.5928 57.7436L83.8128 57.8536L83.9828 57.9536L83.8428 58.6836H83.7328L83.3828 58.5336C83.2756 58.4542 83.1618 58.384 83.0428 58.3236C82.9248 58.2614 82.8009 58.2111 82.6728 58.1736C82.5366 58.1327 82.3951 58.1124 82.2528 58.1136H82.0728C82.013 58.1229 81.9553 58.1432 81.9028 58.1736L81.7428 58.2736L81.6228 58.3936C81.564 58.4568 81.5136 58.5274 81.4728 58.6036C81.42 58.7061 81.3765 58.8132 81.3428 58.9236C81.2944 59.0602 81.2576 59.2007 81.2328 59.3436C81.2172 59.5099 81.2172 59.6773 81.2328 59.8436C81.2273 60.1301 81.261 60.4161 81.3328 60.6936C81.3951 60.9195 81.4967 61.1328 81.6328 61.3236C81.7642 61.4935 81.9361 61.6276 82.1328 61.7136C82.3503 61.8087 82.5855 61.8565 82.8228 61.8536C82.952 61.8549 83.0804 61.8346 83.2028 61.7936C83.3202 61.7574 83.434 61.7106 83.5428 61.6536L83.8228 61.4736L84.0328 61.3036L84.0428 61.3336Z" fill="white"/>
<path d="M87.9028 62.3636C87.8387 62.3527 87.7774 62.3289 87.7228 62.2936C87.6667 62.2574 87.619 62.2096 87.5828 62.1536C87.5294 62.0848 87.4825 62.0111 87.4428 61.9336L86.5628 60.3336L85.8128 60.1736V61.7336C85.8117 61.7947 85.8321 61.8542 85.8705 61.9018C85.9089 61.9493 85.9628 61.9818 86.0228 61.9936L86.4728 62.1136V62.3236H84.3828V62.1136L84.8828 61.9936C84.9409 61.9797 84.9933 61.9483 85.0328 61.9036C85.0717 61.8554 85.0929 61.7954 85.0928 61.7336V58.3936C85.0957 58.3313 85.0741 58.2703 85.0328 58.2236C84.9938 58.1761 84.9416 58.1413 84.8828 58.1236L84.3828 58.0136V57.8036H86.5228V58.0136L86.0728 58.1236C86.0165 58.1415 85.9651 58.1723 85.9228 58.2136C85.8825 58.2648 85.8613 58.3284 85.8628 58.3936V59.9036H86.2728C86.3789 59.9196 86.4867 59.9196 86.5928 59.9036C86.6925 59.8699 86.782 59.8114 86.8528 59.7336C86.9386 59.6272 87.0093 59.5094 87.0628 59.3836C87.1281 59.2438 87.1849 59.1002 87.2328 58.9536C87.2328 58.8036 87.3428 58.6636 87.3928 58.5236C87.4341 58.4044 87.495 58.2929 87.5728 58.1936L87.7628 57.9836L87.9528 57.8536L88.1628 57.7836H88.4128H88.7628H88.8928L88.7528 58.5136H88.6628H88.5228H88.3728H88.1428C88.073 58.5124 88.0052 58.5374 87.9528 58.5836C87.8955 58.6334 87.8451 58.6905 87.8028 58.7536C87.7553 58.8312 87.7119 58.9113 87.6728 58.9936C87.6308 59.0942 87.5806 59.1912 87.5228 59.2836C87.5228 59.3836 87.4128 59.4836 87.3528 59.5836C87.2844 59.6772 87.2074 59.7643 87.1228 59.8436L88.3028 61.8436C88.339 61.8996 88.3867 61.9474 88.4428 61.9836C88.4939 62.0186 88.5519 62.0425 88.6128 62.0536L89.1128 62.1836V62.3936L88.2028 62.4436C88.0993 62.4327 87.998 62.4057 87.9028 62.3636Z" fill="white"/>
<path d="M89.3828 62.1136L89.8828 61.9936C89.9409 61.9797 89.9933 61.9483 90.0328 61.9036C90.0717 61.8555 90.0929 61.7955 90.0928 61.7336V58.3936C90.0957 58.3313 90.0741 58.2703 90.0328 58.2236C89.9938 58.1761 89.9416 58.1413 89.8828 58.1236L89.3828 58.0136V57.8036H91.5228V58.0136L91.0828 58.1236C91.0224 58.1388 90.9672 58.1699 90.9228 58.2136C90.9022 58.2718 90.9022 58.3354 90.9228 58.3936V61.3936L93.0528 58.1736V57.8236H94.5128V58.0336L94.0128 58.1436C93.954 58.1613 93.9018 58.1961 93.8628 58.2436C93.8215 58.2903 93.8 58.3513 93.8028 58.4136V61.7536C93.8027 61.8155 93.8239 61.8755 93.8628 61.9236C93.9024 61.9683 93.9547 61.9997 94.0128 62.0136L94.5128 62.1336V62.3436H92.3828V62.1336L92.8328 62.0136C92.8928 62.0018 92.9467 61.9693 92.9851 61.9218C93.0235 61.8743 93.044 61.8147 93.0428 61.7536V58.7536L90.8128 61.9736V62.3136H89.3828V62.1136Z" fill="white"/>
<path d="M94.9628 62.1136L95.4628 61.9936C95.5209 61.9797 95.5733 61.9483 95.6128 61.9036C95.6517 61.8554 95.6729 61.7954 95.6728 61.7336V58.3936C95.6757 58.3313 95.6542 58.2703 95.6128 58.2236C95.5738 58.1761 95.5216 58.1413 95.4628 58.1236L94.9628 58.0136V57.8036H97.1028V58.0136L96.6528 58.1236C96.5965 58.1415 96.5451 58.1723 96.5028 58.2136C96.4625 58.2648 96.4413 58.3284 96.4428 58.3936V61.3936L98.6728 58.1736V57.8236H100.133V58.0336L99.6328 58.1436C99.574 58.1613 99.5218 58.1961 99.4828 58.2436C99.4415 58.2903 99.42 58.3513 99.4228 58.4136V61.7536C99.4228 61.8154 99.4439 61.8754 99.4828 61.9236C99.5224 61.9683 99.5747 61.9997 99.6328 62.0136L100.133 62.1336V62.3436H97.9928V62.1336L98.4428 62.0136C98.5028 62.0018 98.5567 61.9693 98.5951 61.9218C98.6335 61.8742 98.654 61.8147 98.6528 61.7536V58.7536L96.4228 61.9736V62.3136H94.9528L94.9628 62.1136ZM97.6028 56.7736C97.3794 56.7789 97.1566 56.7485 96.9428 56.6836C96.7842 56.637 96.6352 56.5625 96.5028 56.4636C96.4016 56.3839 96.3167 56.2854 96.2528 56.1736C96.2085 56.0868 96.1845 55.991 96.1828 55.8936V55.5936H96.9128V56.2436C96.9394 56.2865 96.9775 56.3212 97.0228 56.3436C97.0778 56.3803 97.1387 56.4074 97.2028 56.4236C97.2691 56.4339 97.3365 56.4339 97.4028 56.4236H97.5928H97.7928C97.8591 56.4339 97.9266 56.4339 97.9928 56.4236C98.0538 56.4072 98.1114 56.3801 98.1628 56.3436C98.209 56.3184 98.2498 56.2845 98.2828 56.2436V55.5936H99.0128V55.8936C99.0111 55.991 98.9872 56.0868 98.9428 56.1736C98.8867 56.2877 98.8045 56.3871 98.7028 56.4636C98.5692 56.5605 98.4205 56.6348 98.2628 56.6836C98.049 56.7485 97.8262 56.7789 97.6028 56.7736Z" fill="white"/>
<path d="M102.733 62.1136L103.093 61.9936C103.175 61.9657 103.253 61.9252 103.323 61.8736C103.379 61.8377 103.429 61.7939 103.473 61.7436L104.733 60.1736L103.483 58.3636C103.461 58.2949 103.427 58.2306 103.383 58.1736C103.318 58.1213 103.243 58.0838 103.163 58.0636L102.823 57.9736V57.7636H104.923V57.9736L104.313 58.1136L105.043 59.2336L105.293 59.6236L106.323 58.1736L105.733 58.0136V57.8036H107.383V58.0136L107.013 58.1236C106.933 58.1515 106.859 58.192 106.793 58.2436C106.739 58.2825 106.689 58.326 106.643 58.3736L105.443 59.9036L106.743 61.7636C106.778 61.8203 106.822 61.871 106.873 61.9136C106.939 61.9606 107.014 61.9945 107.093 62.0136L107.433 62.1136V62.3236H105.333V62.1136L105.953 61.9636L105.173 60.7936L104.923 60.4036L103.793 61.9436L104.383 62.1136V62.3236H102.743L102.733 62.1136Z" fill="white"/>
<path d="M107.633 62.1136L108.123 61.9936C108.185 61.9824 108.241 61.9507 108.283 61.9036C108.297 61.8478 108.297 61.7893 108.283 61.7336V58.3936C108.3 58.3382 108.3 58.279 108.283 58.2236C108.242 58.1734 108.186 58.1382 108.123 58.1236L107.633 58.0136V57.8036H109.773V58.0136L109.323 58.1236C109.266 58.1415 109.215 58.1723 109.173 58.2136C109.132 58.2648 109.111 58.3284 109.113 58.3936V61.3936L111.383 58.1736V57.8236H112.853V58.0336L112.353 58.1436C112.29 58.1582 112.234 58.1934 112.193 58.2436C112.159 58.2936 112.141 58.3531 112.143 58.4136V61.7536C112.144 61.8137 112.161 61.8723 112.193 61.9236C112.235 61.9707 112.291 62.0024 112.353 62.0136L112.853 62.1336V62.3436H110.703V62.1336L111.153 62.0136C111.213 62.0018 111.267 61.9693 111.305 61.9218C111.344 61.8743 111.364 61.8147 111.363 61.7536V58.7536L109.123 61.9736V62.3136H107.663L107.633 62.1136Z" fill="white"/>
<path d="M113.153 64.3136L113.673 64.1936C113.729 64.1757 113.781 64.1449 113.823 64.1036C113.863 64.0524 113.884 63.9888 113.883 63.9236V58.6536C113.884 58.5792 113.864 58.506 113.823 58.4436C113.758 58.3804 113.679 58.3325 113.593 58.3036L113.163 58.1536V58.0336L114.633 57.7036V58.4536L114.733 58.3236C114.838 58.1863 114.963 58.065 115.103 57.9636C115.222 57.8864 115.35 57.8227 115.483 57.7736C115.596 57.7308 115.713 57.7006 115.833 57.6836H116.113C116.372 57.6773 116.629 57.7321 116.863 57.8436C117.083 57.9508 117.275 58.1084 117.423 58.3036C117.577 58.5145 117.693 58.7517 117.763 59.0036C117.845 59.2861 117.886 59.5793 117.883 59.8736C117.884 60.2119 117.837 60.5487 117.743 60.8736C117.652 61.1663 117.51 61.4406 117.323 61.6836C117.134 61.917 116.894 62.1047 116.622 62.2328C116.35 62.3609 116.053 62.4261 115.753 62.4236C115.637 62.44 115.519 62.44 115.403 62.4236C115.298 62.4064 115.197 62.3726 115.103 62.3236C115.018 62.2851 114.938 62.2382 114.863 62.1836C114.79 62.135 114.723 62.0779 114.663 62.0136V64.0136C114.661 64.0788 114.682 64.1424 114.723 64.1936C114.76 64.2414 114.813 64.2735 114.873 64.2836L115.523 64.4036V64.6136H113.153V64.3136ZM115.663 62.0236C115.879 62.03 116.093 61.9782 116.283 61.8736C116.458 61.776 116.609 61.6391 116.723 61.4736C116.843 61.2972 116.931 61.1008 116.983 60.8936C117.035 60.6638 117.061 60.4291 117.063 60.1936C117.063 59.9282 117.036 59.6635 116.983 59.4036C116.943 59.1758 116.858 58.9583 116.733 58.7636C116.629 58.588 116.481 58.443 116.303 58.3436C116.11 58.2378 115.892 58.1859 115.673 58.1936H115.433C115.34 58.211 115.25 58.2378 115.163 58.2736C115.069 58.3159 114.978 58.366 114.893 58.4236C114.804 58.4945 114.726 58.5789 114.663 58.6736V61.6736C114.729 61.72 114.799 61.7602 114.873 61.7936C114.963 61.8326 115.057 61.8627 115.153 61.8836L115.433 61.9436C115.506 61.979 115.583 62.0059 115.663 62.0236Z" fill="white"/>
<path d="M118.383 63.6036H118.513C118.568 63.6416 118.629 63.6719 118.693 63.6936L118.913 63.7736L119.143 63.8336H119.313H119.483L119.643 63.7436C119.727 63.6904 119.802 63.6227 119.863 63.5436C119.936 63.4561 119.997 63.3584 120.043 63.2536C120.11 63.1272 120.17 62.997 120.223 62.8636C120.283 62.7136 120.343 62.5436 120.423 62.3536L120.103 61.7036L118.693 58.3236C118.673 58.2658 118.634 58.2165 118.583 58.1836L118.383 58.0936L118.063 58.0036V57.7936H120.143V58.0036L119.383 58.1736L120.453 60.7836L120.683 61.3636L121.843 58.1736L121.183 58.0036V57.7936H122.823V58.0036L122.493 58.1236L122.293 58.2136C122.265 58.2268 122.24 58.2464 122.221 58.2707C122.202 58.295 122.189 58.3233 122.183 58.3536L120.453 63.1736C120.375 63.4207 120.264 63.6562 120.123 63.8736C120.023 64.027 119.902 64.1651 119.763 64.2836C119.643 64.3698 119.507 64.431 119.363 64.4636C119.227 64.4789 119.089 64.4789 118.953 64.4636H118.713H118.503L118.333 64.3936L118.193 64.3336L118.383 63.6036Z" fill="white"/>
<path d="M122.803 64.3136L123.313 64.1936C123.373 64.1784 123.428 64.1473 123.473 64.1036C123.489 64.0446 123.489 63.9826 123.473 63.9236V58.6536C123.474 58.5791 123.453 58.506 123.413 58.4436C123.353 58.3779 123.277 58.3295 123.193 58.3036L122.763 58.1536V58.0336L124.233 57.7036V58.4536L124.333 58.3236C124.438 58.1862 124.563 58.065 124.703 57.9636C124.821 57.8845 124.949 57.8207 125.083 57.7736C125.196 57.7308 125.313 57.7006 125.433 57.6836H125.703C125.965 57.6776 126.225 57.7323 126.463 57.8436C126.68 57.9512 126.869 58.1089 127.013 58.3036C127.171 58.514 127.289 58.7511 127.363 59.0036C127.445 59.2861 127.486 59.5793 127.483 59.8736C127.486 60.2128 127.435 60.5503 127.333 60.8736C127.249 61.1674 127.11 61.4424 126.923 61.6836C126.741 61.9101 126.513 62.0943 126.253 62.2236C125.974 62.3643 125.665 62.4331 125.353 62.4236C125.233 62.4394 125.112 62.4394 124.993 62.4236C124.888 62.4064 124.787 62.3726 124.693 62.3236L124.453 62.1836C124.382 62.1353 124.319 62.0781 124.263 62.0136V64.0136C124.261 64.0787 124.282 64.1424 124.323 64.1936C124.36 64.2414 124.413 64.2735 124.473 64.2836L125.113 64.4036V64.6136H122.753L122.803 64.3136ZM125.303 62.0236C125.522 62.0284 125.739 61.9768 125.933 61.8736C126.108 61.776 126.259 61.6391 126.373 61.4736C126.49 61.2966 126.575 61.1002 126.623 60.8936C126.683 60.6651 126.713 60.4298 126.713 60.1936C126.713 59.9282 126.686 59.6635 126.633 59.4036C126.584 59.1784 126.499 58.9624 126.383 58.7636C126.276 58.5902 126.129 58.4459 125.953 58.3436C125.759 58.2404 125.542 58.1888 125.323 58.1936H125.083C124.99 58.211 124.9 58.2378 124.813 58.2736C124.717 58.3114 124.626 58.3619 124.543 58.4236C124.451 58.4919 124.373 58.5767 124.313 58.6736V61.6736C124.378 61.7219 124.448 61.7622 124.523 61.7936C124.612 61.834 124.706 61.8642 124.803 61.8836C124.894 61.9131 124.988 61.9332 125.083 61.9436C125.153 61.9788 125.227 62.0056 125.303 62.0236Z" fill="white"/>
<path d="M128.003 62.1136L128.503 61.9936C128.563 61.9845 128.617 61.9522 128.653 61.9036C128.692 61.8555 128.713 61.7955 128.713 61.7336V58.3936C128.711 58.3321 128.69 58.2729 128.652 58.2243C128.614 58.1758 128.562 58.1405 128.503 58.1236L128.003 58.0136V57.8036H131.793V59.1736H131.563L131.233 58.3236C131.209 58.26 131.167 58.2045 131.113 58.1636C131.037 58.1191 130.95 58.0983 130.863 58.1036H129.503V61.7036C129.5 61.7659 129.521 61.8269 129.563 61.8736C129.58 61.8985 129.602 61.9194 129.628 61.9349C129.654 61.9505 129.683 61.9602 129.713 61.9636L130.253 62.0836V62.2936H128.003V62.1136Z" fill="white"/>
<path d="M134.123 62.1036L134.523 61.9836C134.584 61.966 134.64 61.9313 134.683 61.8836C134.732 61.836 134.77 61.7779 134.793 61.7136L136.653 56.8636L137.213 55.7936H137.383L139.673 61.7136C139.696 61.7779 139.734 61.836 139.783 61.8836C139.829 61.9317 139.888 61.9662 139.953 61.9836L140.353 62.1036V62.3236H138.083V62.1036L138.903 61.9436L138.123 59.9436H135.863L135.143 61.9436L135.933 62.1136V62.3336H134.123V62.1036ZM137.983 59.5736L137.213 57.5736L136.983 56.9336L135.983 59.5336L137.983 59.5736Z" fill="white"/>
<path d="M140.323 62.1136L140.823 61.9936C140.883 61.9845 140.937 61.9522 140.973 61.9036C141.012 61.8555 141.033 61.7955 141.033 61.7336V58.3936C141.031 58.3321 141.01 58.2729 140.972 58.2243C140.934 58.1758 140.882 58.1405 140.823 58.1236L140.323 58.0136V57.8036H142.473V58.0136L142.023 58.1236C141.965 58.1391 141.913 58.1702 141.873 58.2136C141.832 58.2648 141.811 58.3284 141.813 58.3936V59.8136H143.963V58.3936C143.964 58.3284 143.943 58.2648 143.903 58.2136C143.86 58.1723 143.809 58.1415 143.753 58.1236L143.303 58.0136V57.8036H145.443V58.0136L144.943 58.1236C144.884 58.1413 144.832 58.1761 144.793 58.2236C144.751 58.2703 144.73 58.3313 144.733 58.3936V61.7336C144.733 61.7955 144.754 61.8555 144.793 61.9036C144.832 61.9483 144.885 61.9797 144.943 61.9936L145.443 62.1136V62.3236H143.303V62.1136L143.753 61.9936C143.813 61.9818 143.867 61.9493 143.905 61.9018C143.944 61.8543 143.964 61.7947 143.963 61.7336V60.1136H141.813V61.7336C141.81 61.7959 141.831 61.8569 141.873 61.9036C141.89 61.9285 141.912 61.9494 141.938 61.965C141.964 61.9805 141.993 61.9902 142.023 61.9936L142.473 62.1136V62.3236H140.323V62.1136Z" fill="white"/>
<path d="M145.773 61.9836H146.243C146.338 61.8939 146.422 61.7932 146.493 61.6836C146.592 61.534 146.679 61.3768 146.753 61.2136C146.833 61.0336 146.913 60.8336 146.993 60.6236C147.075 60.4008 147.145 60.1738 147.203 59.9436C147.253 59.7136 147.303 59.4736 147.333 59.2336C147.369 58.9954 147.386 58.7546 147.383 58.5136C147.389 58.4504 147.389 58.3868 147.383 58.3236C147.374 58.2807 147.357 58.2399 147.333 58.2036C147.314 58.1815 147.29 58.1644 147.263 58.1536H147.183L146.683 58.0436V57.8336H150.793V58.0436L150.293 58.1536C150.234 58.1713 150.182 58.2061 150.143 58.2536C150.101 58.3003 150.08 58.3613 150.083 58.4236V62.0136H150.843V63.8136H150.543L150.123 62.5236C150.118 62.4953 150.108 62.4684 150.092 62.4443C150.077 62.4202 150.057 62.3996 150.033 62.3836C149.991 62.3698 149.945 62.3698 149.903 62.3836H146.723C146.677 62.3683 146.628 62.3683 146.583 62.3836C146.541 62.4218 146.51 62.47 146.493 62.5236L146.073 63.8136H145.783L145.773 61.9836ZM149.293 61.9836V58.1736H147.813C147.813 58.6188 147.779 59.0634 147.713 59.5036C147.66 59.8715 147.583 60.2356 147.483 60.5936C147.395 60.888 147.278 61.1728 147.133 61.4436C147.026 61.6567 146.891 61.855 146.733 62.0336L149.293 61.9836Z" fill="white"/>
<path d="M151.143 64.3136L151.653 64.1936C151.713 64.1784 151.768 64.1473 151.813 64.1036C151.828 64.0446 151.828 63.9826 151.813 63.9236V58.6536C151.814 58.5791 151.793 58.506 151.753 58.4436C151.693 58.3779 151.617 58.3295 151.533 58.3036L151.103 58.1536V58.0336L152.573 57.7036V58.4536L152.673 58.3236C152.778 58.1862 152.903 58.065 153.043 57.9636C153.161 57.8845 153.289 57.8207 153.423 57.7736C153.533 57.7321 153.647 57.702 153.763 57.6836H154.043C154.305 57.6776 154.565 57.7323 154.803 57.8436C155.02 57.9512 155.208 58.1089 155.353 58.3036C155.511 58.514 155.629 58.7511 155.703 59.0036C155.785 59.2861 155.826 59.5793 155.823 59.8736C155.826 60.2128 155.775 60.5503 155.673 60.8736C155.589 61.1674 155.45 61.4424 155.263 61.6836C155.081 61.9101 154.853 62.0943 154.593 62.2236C154.314 62.3643 154.005 62.4331 153.693 62.4236C153.573 62.4394 153.452 62.4394 153.333 62.4236C153.228 62.4064 153.127 62.3726 153.033 62.3236L152.793 62.1836C152.722 62.1353 152.659 62.0781 152.603 62.0136V64.0136C152.601 64.0787 152.622 64.1424 152.663 64.1936C152.7 64.2414 152.753 64.2735 152.813 64.2836L153.453 64.4036V64.6136H151.093L151.143 64.3136ZM153.643 62.0236C153.862 62.0284 154.079 61.9768 154.273 61.8736C154.448 61.776 154.599 61.6391 154.713 61.4736C154.83 61.2966 154.914 61.1002 154.963 60.8936C155.023 60.6651 155.053 60.4298 155.053 60.1936C155.053 59.9282 155.026 59.6635 154.973 59.4036C154.924 59.1784 154.839 58.9624 154.723 58.7636C154.616 58.5902 154.469 58.4459 154.293 58.3436C154.099 58.2404 153.882 58.1888 153.663 58.1936L153.383 58.1736C153.29 58.191 153.2 58.2178 153.113 58.2536C153.017 58.2914 152.926 58.3419 152.843 58.4036C152.751 58.4719 152.673 58.5567 152.613 58.6536V61.6536C152.678 61.7019 152.748 61.7422 152.823 61.7736C152.912 61.814 153.006 61.8442 153.103 61.8636C153.194 61.8931 153.288 61.9132 153.383 61.9236C153.464 61.9689 153.552 62.0025 153.643 62.0236Z" fill="white"/>
<path d="M160.183 61.3436V61.6836L159.853 61.9536C159.723 62.0453 159.586 62.1256 159.443 62.1936C159.283 62.264 159.12 62.3241 158.953 62.3736C158.779 62.4138 158.601 62.4339 158.423 62.4336C158.136 62.4379 157.851 62.387 157.583 62.2836C157.337 62.1857 157.118 62.0316 156.943 61.8336C156.757 61.6162 156.614 61.3649 156.523 61.0936C156.42 60.7704 156.369 60.4328 156.373 60.0936C156.374 59.785 156.421 59.4782 156.513 59.1836C156.599 58.9029 156.738 58.6415 156.923 58.4136C157.105 58.1947 157.33 58.0146 157.583 57.8836C157.858 57.7542 158.159 57.6892 158.463 57.6936C158.717 57.6882 158.97 57.7394 159.203 57.8436C159.408 57.9394 159.591 58.0755 159.743 58.2436C159.892 58.4078 160.005 58.6021 160.073 58.8136C160.148 59.0185 160.185 59.2354 160.183 59.4536V59.6436C160.183 59.6436 160.183 59.7036 160.183 59.7236C160.178 59.7501 160.178 59.7771 160.183 59.8036H157.183C157.151 60.353 157.283 60.8994 157.563 61.3736C157.692 61.5556 157.865 61.7017 158.066 61.7979C158.268 61.8942 158.49 61.9374 158.713 61.9236C158.875 61.9246 159.036 61.9044 159.193 61.8636C159.326 61.8278 159.457 61.781 159.583 61.7236L159.893 61.5436C159.973 61.4878 160.049 61.4277 160.123 61.3636L160.183 61.3436ZM159.383 59.4836C159.398 59.2939 159.398 59.1033 159.383 58.9136C159.351 58.746 159.293 58.5842 159.213 58.4336C159.147 58.2972 159.047 58.1801 158.923 58.0936C158.795 58.0109 158.645 57.969 158.493 57.9736C158.332 57.9671 158.173 58.0052 158.033 58.0836C157.891 58.1537 157.767 58.2565 157.673 58.3836C157.566 58.5301 157.481 58.6919 157.423 58.8636C157.356 59.0653 157.31 59.273 157.283 59.4836H159.383Z" fill="white"/>
<path d="M160.663 62.1136L161.163 61.9936C161.221 61.9797 161.273 61.9483 161.313 61.9036C161.352 61.8554 161.373 61.7954 161.373 61.7336V58.3936C161.376 58.3313 161.354 58.2703 161.313 58.2236C161.274 58.1761 161.222 58.1413 161.163 58.1236L160.663 58.0136V57.8036H162.803V58.0136L162.383 58.1736C162.327 58.1915 162.275 58.2223 162.233 58.2636C162.192 58.3148 162.171 58.3784 162.173 58.4436V61.4436L164.383 58.1736V57.8236H165.853V58.0336L165.383 58.1736C165.323 58.1887 165.27 58.224 165.233 58.2736C165.192 58.3203 165.17 58.3813 165.173 58.4436V61.7836C165.173 61.8454 165.194 61.9054 165.233 61.9536C165.271 62 165.324 62.0318 165.383 62.0436L165.883 62.1636V62.3736H163.683V62.1636L164.133 62.0436C164.163 62.0402 164.192 62.0305 164.218 62.0149C164.244 61.9994 164.266 61.9785 164.283 61.9536C164.324 61.9069 164.346 61.8459 164.343 61.7836V58.7836L162.113 62.0036V62.3436H160.643L160.663 62.1136ZM163.293 56.7736C163.069 56.778 162.847 56.7477 162.633 56.6836C162.477 56.6371 162.332 56.5625 162.203 56.4636C162.096 56.3902 162.01 56.2902 161.953 56.1736C161.906 56.0872 161.879 55.9916 161.873 55.8936V55.5936H162.603V56.2436C162.636 56.2845 162.677 56.3184 162.723 56.3436C162.774 56.3801 162.832 56.4072 162.893 56.4236C162.959 56.4327 163.026 56.4327 163.093 56.4236H163.293H163.493C163.559 56.4327 163.626 56.4327 163.693 56.4236C163.754 56.4072 163.811 56.3801 163.863 56.3436C163.909 56.3184 163.95 56.2845 163.983 56.2436V55.5936H164.713V55.8936C164.707 55.9916 164.68 56.0872 164.633 56.1736C164.577 56.2877 164.494 56.3871 164.393 56.4636C164.264 56.5625 164.118 56.6371 163.963 56.6836C163.745 56.7476 163.519 56.7779 163.293 56.7736Z" fill="white"/>
<path d="M168.663 62.1036L169.253 61.9736C169.316 61.9606 169.373 61.9251 169.413 61.8736C169.453 61.8264 169.475 61.7657 169.473 61.7036V56.5136C169.474 56.4484 169.453 56.3848 169.413 56.3336C169.373 56.2821 169.316 56.2466 169.253 56.2336L168.663 56.1136V55.8936H174.983V56.1136L174.393 56.2336C174.36 56.2366 174.329 56.2472 174.301 56.2646C174.273 56.282 174.25 56.3056 174.233 56.3336C174.193 56.3848 174.171 56.4484 174.173 56.5136V61.7036C174.171 61.7687 174.193 61.8324 174.233 61.8836C174.272 61.9336 174.33 61.966 174.393 61.9736L174.983 62.1036V62.3236H172.513V62.1036L173.113 61.9736C173.174 61.9601 173.227 61.9244 173.263 61.8736C173.286 61.852 173.304 61.8256 173.316 61.7962C173.329 61.7669 173.334 61.7353 173.333 61.7036V56.2436H170.333V61.7036C170.331 61.7687 170.352 61.8324 170.393 61.8836C170.437 61.9327 170.497 61.9646 170.563 61.9736L171.143 62.1036V62.3236H168.683L168.663 62.1036Z" fill="white"/>
<path d="M177.793 62.0536C177.672 62.1448 177.541 62.2219 177.403 62.2836C177.277 62.3328 177.146 62.3696 177.013 62.3936H176.653C176.487 62.3982 176.323 62.364 176.173 62.2936C176.029 62.2342 175.9 62.1456 175.793 62.0336C175.69 61.9227 175.609 61.7939 175.553 61.6536C175.493 61.5075 175.463 61.3513 175.463 61.1936C175.463 61.0187 175.497 60.8456 175.563 60.6836C175.631 60.5371 175.723 60.4021 175.833 60.2836C175.949 60.1728 176.081 60.0786 176.223 60.0036C176.369 59.9226 176.524 59.8557 176.683 59.8036C176.834 59.7575 176.987 59.7208 177.143 59.6936H177.583H177.703H177.863H178.163V58.8736C178.175 58.7506 178.175 58.6266 178.163 58.5036C178.141 58.4215 178.099 58.346 178.042 58.2833C177.984 58.2207 177.913 58.1727 177.833 58.1436C177.73 58.1323 177.626 58.1323 177.523 58.1436C177.372 58.1401 177.222 58.1673 177.083 58.2236C176.941 58.2714 176.804 58.3316 176.673 58.4036L176.313 58.6436L176.033 58.8536H175.933L175.793 58.1236L176.093 57.9636C176.21 57.9126 176.33 57.8692 176.453 57.8336L176.853 57.7336C177.006 57.7233 177.16 57.7233 177.313 57.7336C177.508 57.7328 177.703 57.7563 177.893 57.8036C178.086 57.8539 178.269 57.9386 178.433 58.0536C178.616 58.1833 178.762 58.3585 178.857 58.5619C178.951 58.7653 178.991 58.99 178.973 59.2136V61.6536C178.962 61.6928 178.962 61.7344 178.973 61.7736C178.99 61.8107 179.014 61.8445 179.043 61.8736L179.163 61.9336H179.333H179.383H179.493H179.623H179.733H179.783V62.1536L179.603 62.2736C179.534 62.3249 179.461 62.3685 179.383 62.4036L179.123 62.5036C179.04 62.5172 178.956 62.5172 178.873 62.5036C178.767 62.5208 178.659 62.5208 178.553 62.5036C178.469 62.4863 178.393 62.4445 178.333 62.3836C178.269 62.3187 178.221 62.24 178.193 62.1536C178.175 62.0309 178.175 61.9063 178.193 61.7836C178.074 61.8937 177.939 61.9847 177.793 62.0536ZM178.163 59.9536C177.905 59.9517 177.647 59.9718 177.393 60.0136C177.191 60.0481 176.996 60.1121 176.813 60.2036C176.662 60.2836 176.535 60.4006 176.443 60.5436C176.352 60.6906 176.307 60.861 176.313 61.0336C176.307 61.1737 176.331 61.3133 176.383 61.4436C176.426 61.5463 176.491 61.6384 176.573 61.7136C176.644 61.7791 176.73 61.8271 176.823 61.8536C176.916 61.8667 177.01 61.8667 177.103 61.8536H177.383C177.482 61.8328 177.579 61.8027 177.673 61.7636C177.765 61.7234 177.852 61.6731 177.933 61.6136C178.018 61.5533 178.092 61.4789 178.153 61.3936L178.163 59.9536Z" fill="white"/>
<path d="M183.623 61.3336V61.6636C183.523 61.7644 183.416 61.8579 183.303 61.9436C183.175 62.0349 183.041 62.1184 182.903 62.1936C182.753 62.2666 182.595 62.3236 182.433 62.3636C182.261 62.4127 182.082 62.4363 181.903 62.4336C181.623 62.4378 181.345 62.3762 181.093 62.2536C180.853 62.1368 180.642 61.9697 180.473 61.7636C180.299 61.554 180.166 61.313 180.083 61.0536C179.99 60.7797 179.943 60.4926 179.943 60.2036C179.946 59.9852 179.969 59.7676 180.013 59.5536C180.06 59.3496 180.131 59.1516 180.223 58.9636C180.318 58.7769 180.436 58.6023 180.573 58.4436C180.708 58.2867 180.866 58.1518 181.043 58.0436C181.227 57.9211 181.429 57.8298 181.643 57.7736C181.881 57.7075 182.126 57.6739 182.373 57.6736C182.526 57.6559 182.68 57.6559 182.833 57.6736C182.943 57.6934 183.051 57.727 183.153 57.7736C183.233 57.8022 183.31 57.839 183.383 57.8836L183.553 57.9836L183.403 58.7136H183.293L182.963 58.4836C182.748 58.3246 182.508 58.2029 182.253 58.1236C182.113 58.082 181.968 58.0617 181.823 58.0636C181.767 58.0541 181.709 58.0541 181.653 58.0636C181.59 58.0745 181.53 58.0947 181.473 58.1236L181.323 58.2236L181.193 58.3436C181.14 58.4095 181.094 58.4798 181.053 58.5536C180.997 58.6558 180.95 58.7629 180.913 58.8736C180.868 59.0105 180.834 59.151 180.813 59.2936C180.78 59.4583 180.764 59.6257 180.763 59.7936C180.762 60.0799 180.796 60.3652 180.863 60.6436C180.925 60.8714 181.03 61.0852 181.173 61.2736C181.304 61.4435 181.476 61.5776 181.673 61.6636C181.89 61.76 182.125 61.8077 182.363 61.8036C182.492 61.804 182.62 61.7837 182.743 61.7436C182.858 61.7091 182.968 61.6622 183.073 61.6036L183.363 61.4236L183.563 61.2536L183.623 61.3336Z" fill="white"/>
<path d="M187.743 61.3436V61.6836L187.413 61.9536C187.285 62.0474 187.147 62.1278 187.003 62.1936C186.845 62.2672 186.681 62.3274 186.513 62.3736C186.339 62.4138 186.161 62.4339 185.983 62.4336C185.696 62.4379 185.411 62.387 185.143 62.2836C184.897 62.1857 184.678 62.0316 184.503 61.8336C184.317 61.6162 184.174 61.3649 184.083 61.0936C183.98 60.7704 183.929 60.4328 183.933 60.0936C183.934 59.785 183.981 59.4782 184.073 59.1836C184.163 58.9046 184.302 58.6439 184.483 58.4136C184.665 58.1947 184.89 58.0146 185.143 57.8836C185.418 57.7542 185.719 57.6892 186.023 57.6936C186.278 57.6882 186.53 57.7394 186.763 57.8436C186.969 57.9369 187.153 58.0733 187.303 58.2436C187.452 58.4078 187.565 58.6021 187.633 58.8136C187.711 59.0179 187.752 59.2348 187.753 59.4536C187.758 59.4834 187.758 59.5138 187.753 59.5436V59.6436C187.753 59.6436 187.753 59.7036 187.753 59.7236C187.749 59.7501 187.749 59.7771 187.753 59.8036H184.753C184.721 60.353 184.854 60.8994 185.133 61.3736C185.262 61.5556 185.435 61.7017 185.636 61.7979C185.838 61.8942 186.06 61.9374 186.283 61.9236C186.445 61.9246 186.606 61.9044 186.763 61.8636C186.899 61.8261 187.033 61.7794 187.163 61.7236C187.267 61.6703 187.367 61.6102 187.463 61.5436C187.543 61.4878 187.619 61.4277 187.693 61.3636L187.743 61.3436ZM186.923 59.4836C186.939 59.2939 186.939 59.1033 186.923 58.9136C186.889 58.7477 186.835 58.5865 186.763 58.4336C186.69 58.2988 186.588 58.1825 186.463 58.0936C186.335 58.0109 186.185 57.969 186.033 57.9736C185.872 57.9671 185.713 58.0052 185.573 58.0836C185.431 58.1537 185.307 58.2565 185.213 58.3836C185.106 58.5301 185.021 58.6919 184.963 58.8636C184.897 59.0653 184.85 59.273 184.823 59.4836H186.923Z" fill="white"/>
<path d="M190.833 62.1136L191.333 61.9936C191.393 61.9818 191.447 61.9493 191.485 61.9018C191.523 61.8543 191.544 61.7947 191.543 61.7336V60.1736C191.437 60.2412 191.327 60.3014 191.213 60.3536L190.863 60.4736C190.752 60.5086 190.638 60.5353 190.523 60.5536H190.213C189.821 60.5849 189.432 60.467 189.123 60.2236C189.004 60.103 188.911 59.9589 188.851 59.8005C188.791 59.6421 188.764 59.4728 188.773 59.3036V58.3036C188.776 58.2413 188.754 58.1803 188.713 58.1336C188.676 58.0841 188.623 58.0488 188.563 58.0336L188.063 57.9236V57.7136H190.213V57.9236L189.763 58.0336C189.704 58.0461 189.651 58.0778 189.613 58.1236C189.572 58.1748 189.551 58.2384 189.553 58.3036V58.9936C189.548 59.132 189.565 59.2704 189.603 59.4036C189.626 59.5203 189.677 59.6296 189.752 59.7219C189.827 59.8143 189.923 59.887 190.033 59.9336C190.169 59.9888 190.316 60.016 190.463 60.0136H190.693H190.963H191.253L191.543 59.9336V58.3936C191.544 58.3284 191.523 58.2648 191.483 58.2136C191.451 58.1956 191.418 58.1821 191.383 58.1736L190.933 58.0636V57.8536H193.073V58.0636L192.573 58.1736C192.514 58.1913 192.462 58.2261 192.423 58.2736C192.381 58.3203 192.36 58.3813 192.363 58.4436V61.7836C192.363 61.8455 192.384 61.9055 192.423 61.9536C192.462 61.9983 192.515 62.0297 192.573 62.0436L193.073 62.1636V62.3736H190.883L190.833 62.1136Z" fill="white"/>
<path d="M193.473 62.1136L193.973 61.9936C194.031 61.9797 194.083 61.9483 194.123 61.9036C194.162 61.8555 194.183 61.7955 194.183 61.7336V58.3936C194.186 58.3313 194.164 58.2703 194.123 58.2236C194.084 58.1761 194.032 58.1413 193.973 58.1236L193.473 58.0136V57.8036H195.613V58.0136L195.173 58.1236C195.112 58.1388 195.057 58.1699 195.013 58.2136C194.997 58.2726 194.997 58.3346 195.013 58.3936V59.8136H197.163V58.3936C197.164 58.3284 197.143 58.2648 197.103 58.2136C197.06 58.1723 197.009 58.1415 196.953 58.1236L196.503 58.0136V57.8036H198.643V58.0136L198.143 58.1236C198.084 58.1413 198.032 58.1761 197.993 58.2236C197.951 58.2703 197.93 58.3313 197.933 58.3936V61.7336C197.933 61.7955 197.954 61.8555 197.993 61.9036C198.032 61.9483 198.085 61.9797 198.143 61.9936L198.643 62.1136V62.3236H196.503V62.1136L196.953 61.9936C197.013 61.9818 197.067 61.9493 197.105 61.9018C197.143 61.8543 197.164 61.7947 197.163 61.7336V60.1136H195.013V61.7336C194.996 61.789 194.996 61.8482 195.013 61.9036C195.052 61.9536 195.11 61.986 195.173 61.9936L195.613 62.1136V62.3236H193.473V62.1136Z" fill="white"/>
<path d="M199.043 62.1136L199.543 61.9936C199.601 61.9797 199.653 61.9483 199.693 61.9036C199.732 61.8555 199.753 61.7955 199.753 61.7336V58.3936C199.756 58.3313 199.734 58.2703 199.693 58.2236C199.654 58.1761 199.602 58.1413 199.543 58.1236L199.043 58.0136V57.8036H201.183V58.0136L200.733 58.1236C200.677 58.1415 200.625 58.1723 200.583 58.2136C200.543 58.2648 200.521 58.3284 200.523 58.3936V61.3936L202.743 58.1736V57.8236H204.213V58.0336L203.713 58.1436C203.654 58.1613 203.602 58.1961 203.563 58.2436C203.522 58.2903 203.5 58.3513 203.503 58.4136V61.7536C203.503 61.8155 203.524 61.8755 203.563 61.9236C203.602 61.9683 203.655 61.9997 203.713 62.0136L204.213 62.1336V62.3436H202.073V62.1336L202.523 62.0136C202.583 62.0018 202.637 61.9693 202.675 61.9218C202.714 61.8743 202.734 61.8147 202.733 61.7536V58.7536L200.503 61.9736V62.3136H199.033L199.043 62.1136Z" fill="white"/>
<path d="M208.233 62.3636C208.169 62.3527 208.107 62.3289 208.053 62.2936C207.997 62.2574 207.949 62.2097 207.913 62.1536C207.859 62.0848 207.813 62.0111 207.773 61.9336L206.883 60.3336L206.143 60.1736V61.7336C206.142 61.7947 206.162 61.8543 206.201 61.9018C206.239 61.9493 206.293 61.9818 206.353 61.9936L206.803 62.1136V62.3236H204.663V62.1136L205.163 61.9936C205.221 61.9797 205.273 61.9483 205.313 61.9036C205.352 61.8555 205.373 61.7955 205.373 61.7336V58.3936C205.376 58.3313 205.354 58.2703 205.313 58.2236C205.274 58.1761 205.222 58.1413 205.163 58.1236L204.663 58.0136V57.8036H206.803V58.0136L206.383 58.1736C206.327 58.1915 206.275 58.2223 206.233 58.2636C206.193 58.3148 206.171 58.3784 206.173 58.4436V59.9536H206.583C206.689 59.9696 206.797 59.9696 206.903 59.9536C207.003 59.9199 207.092 59.8614 207.163 59.7836C207.249 59.6772 207.319 59.5594 207.373 59.4336C207.433 59.2936 207.493 59.1436 207.543 59.0036C207.593 58.8636 207.643 58.7136 207.703 58.5736C207.744 58.4544 207.805 58.3429 207.883 58.2436L208.073 58.0336L208.263 57.9036L208.473 57.8336H208.723H209.073H209.203L209.063 58.5636H208.973H208.833H208.683H208.383C208.313 58.5624 208.245 58.5874 208.193 58.6336C208.136 58.6834 208.085 58.7406 208.043 58.8036C207.995 58.8813 207.952 58.9614 207.913 59.0436C207.913 59.1436 207.823 59.2336 207.763 59.3336C207.703 59.4336 207.653 59.5336 207.593 59.6336C207.522 59.7248 207.445 59.8117 207.363 59.8936L208.543 61.8936C208.576 61.9518 208.625 62.0001 208.683 62.0336C208.734 62.0686 208.792 62.0925 208.853 62.1036L209.343 62.2336V62.4436L208.443 62.4936C208.368 62.4591 208.297 62.4154 208.233 62.3636Z" fill="white"/>
<path d="M51.3828 28.7936C47.3828 28.7936 43.8728 35.7136 43.8728 38.5636C43.8728 39.6736 44.3928 40.3336 45.2128 40.3336C47.2128 40.3336 50.8328 36.3336 53.2128 30.1636C55.9528 23.0236 59.2828 14.3636 61.3128 14.3636C61.4175 14.3699 61.5199 14.397 61.6141 14.4434C61.7082 14.4897 61.7921 14.5543 61.861 14.6334C61.9299 14.7125 61.9823 14.8046 62.0153 14.9042C62.0482 15.0038 62.061 15.109 62.0528 15.2136C62.0528 17.5436 53.5428 31.0836 53.5428 38.4136C53.5428 39.8236 53.5428 40.4836 54.3928 40.4836C55.9128 40.4836 58.5428 38.3736 60.0928 35.0136L60.5328 35.3436C59.0828 39.1736 55.8628 41.9636 53.3828 41.9636C51.5328 41.9636 50.9328 40.4836 50.9328 39.1936C51.0172 37.8377 51.2554 36.4957 51.6428 35.1936C49.2328 39.1936 46.3428 42.0736 44.0928 42.0736C43.7006 42.0686 43.3137 41.9821 42.9567 41.8196C42.5997 41.6572 42.2804 41.4223 42.019 41.1299C41.7576 40.8374 41.5598 40.4938 41.4382 40.1209C41.3167 39.748 41.274 39.3539 41.3128 38.9636C41.3128 34.8636 46.6828 27.6436 51.3128 27.6436C52.3128 27.6436 52.9328 28.0136 52.9328 28.7936C52.9291 28.9657 52.9057 29.1368 52.8628 29.3036C52.6776 29.1027 52.4454 28.9509 52.1871 28.8619C51.9288 28.7729 51.6524 28.7494 51.3828 28.7936Z" fill="white"/>
<path d="M59.4528 36.3036C60.6182 34.0446 61.6208 31.7053 62.4528 29.3036C62.333 29.1888 62.2382 29.0505 62.1745 28.8973C62.1109 28.7442 62.0796 28.5794 62.0828 28.4136C62.0606 27.8882 62.1965 27.3682 62.4728 26.9208C62.7491 26.4734 63.1531 26.119 63.6328 25.9036C64.1528 25.9036 64.1528 26.5336 64.1528 26.7836C64.1528 27.0336 63.7428 28.0136 63.7428 28.1536C63.7428 29.5236 67.5228 30.1536 67.5228 33.3036C67.5228 35.5536 65.6728 38.0036 65.6728 39.5536C65.6552 39.7036 65.6717 39.8557 65.7213 39.9984C65.7708 40.1411 65.852 40.2707 65.9589 40.3775C66.0657 40.4843 66.1953 40.5656 66.338 40.6151C66.4807 40.6646 66.6328 40.6812 66.7828 40.6636C69.1128 40.6636 72.1428 37.2936 73.0728 35.1536L73.5528 35.5236C72.1428 38.6636 68.9628 41.9936 65.8128 41.9936C65.4734 42.0363 65.1288 42.0061 64.802 41.9048C64.4753 41.8034 64.174 41.6335 63.9183 41.4062C63.6626 41.1789 63.4584 40.8996 63.3195 40.587C63.1806 40.2744 63.1101 39.9356 63.1128 39.5936C63.1128 37.4036 65.1128 34.5936 65.1128 32.6736C65.1128 31.0836 63.9628 30.5236 63.0428 29.8636C62.0994 32.2999 60.997 34.6717 59.7428 36.9636L59.4528 36.3036Z" fill="white"/>
<path d="M73.0728 40.3736C73.0728 39.5636 74.2528 38.8536 75.2128 38.8536C75.8028 38.8536 76.2128 39.0836 76.2128 39.7436C76.1281 40.1942 75.8911 40.602 75.5416 40.8988C75.1921 41.1955 74.7512 41.3631 74.2928 41.3736C73.6228 41.3736 73.0728 41.0736 73.0728 40.3736Z" fill="white"/>
<path d="M85.5728 30.0536C84.0928 35.1236 82.7228 40.3036 81.5728 44.2236C80.3128 44.2236 79.0128 43.4436 79.0128 42.3736C79.095 41.6865 79.2699 41.0137 79.5328 40.3736C82.6428 30.7236 84.8228 24.0236 88.6328 15.3736C85.7828 15.9236 83.9028 17.3736 83.4928 17.3736C83.0828 17.3736 82.3428 16.7436 82.3428 16.3736C84.9153 15.1864 87.6928 14.5073 90.5228 14.3736C94.8928 14.3736 100.033 16.7736 100.033 21.5136C100.033 29.2436 88.3428 30.0636 85.9328 30.0636L85.5728 30.0536ZM90.8628 15.1736C88.7582 19.7973 87.039 24.5869 85.7228 29.4936C91.1628 29.1936 97.5628 26.5636 97.5628 20.9036C97.5628 16.8736 94.3828 15.1736 90.8628 15.1736Z" fill="white"/>
<path d="M108.733 34.0836C108.733 34.9336 106.593 37.4536 106.593 39.2236C106.593 39.9636 106.963 40.8536 107.853 40.8536C109.183 40.8536 111.553 38.9336 113.773 35.0136L114.143 35.3836C112.583 39.3836 109.443 42.1136 106.813 42.1136C106.464 42.1362 106.113 42.0853 105.785 41.9641C105.457 41.8429 105.158 41.6542 104.907 41.41C104.656 41.1659 104.46 40.8718 104.33 40.5469C104.2 40.2219 104.139 39.8733 104.153 39.5236C104.155 39.1642 104.192 38.8059 104.263 38.4536C102.113 41.3036 100.483 42.7436 98.6728 42.7436C97.1228 42.7436 95.9328 41.7436 95.9328 39.6736C95.9328 35.2736 101.373 28.3136 106.183 28.3136C108.103 28.3136 109.553 29.4236 109.553 31.0836C109.553 32.3136 108.813 32.6836 107.733 32.6836C107.855 32.2608 107.918 31.8235 107.923 31.3836C107.923 30.2736 107.443 29.3136 106.113 29.3136C102.633 29.3136 98.4828 36.1936 98.4828 39.7836C98.4828 40.7836 98.8228 41.2236 99.4828 41.2236C101.783 41.2236 105.483 35.8236 107.253 33.1636C107.703 33.2336 108.733 33.5336 108.733 34.0836Z" fill="white"/>
<path d="M114.693 34.7136C116.187 33.1201 117.431 31.3096 118.383 29.3436V28.9036C118.383 27.0936 119.123 26.3836 119.833 26.3836C120.233 26.3836 120.423 26.6136 120.423 26.8736C120.306 27.4069 120.233 27.9486 120.203 28.4936C120.203 30.9436 122.123 34.0136 122.123 37.4136C122.131 38.0241 122.057 38.6329 121.903 39.2236C123.603 38.9336 125.123 37.8236 126.563 35.0436L126.893 35.4136C126.54 36.5661 125.865 37.5937 124.947 38.375C124.029 39.1564 122.907 39.659 121.713 39.8236C121.361 40.7771 120.711 41.5914 119.858 42.1447C119.006 42.698 117.997 42.9607 116.983 42.8936C113.503 42.8936 112.353 40.2636 112.353 38.0436C112.323 35.1736 114.283 35.1736 114.693 34.7136ZM119.383 39.7836C117.523 39.3941 115.89 38.2922 114.833 36.7136C114.243 36.7136 114.023 37.2336 114.023 38.0036C114.023 39.7836 115.133 41.5936 117.023 41.5936C117.565 41.6104 118.095 41.4393 118.526 41.1095C118.956 40.7796 119.259 40.3112 119.383 39.7836ZM118.573 30.7836C117.555 32.5129 116.351 34.1258 114.983 35.5936C115.421 36.4976 116.059 37.2899 116.849 37.9102C117.64 38.5305 118.561 38.9626 119.543 39.1736C119.639 38.5985 119.689 38.0167 119.693 37.4336C119.693 35.1736 118.913 32.7936 118.543 30.7536L118.573 30.7836Z" fill="white"/>
<path d="M127.863 37.1136C127.765 37.5536 127.715 38.0028 127.713 38.4536C127.713 39.9636 128.343 41.5636 130.643 41.5636C133.783 41.5636 137.083 38.5636 138.933 35.0136L139.373 35.3436C137.373 39.7836 133.523 42.6336 129.863 42.6336C126.863 42.6336 125.353 40.7436 125.353 38.3436C125.353 33.9336 130.353 27.6836 134.743 27.6836C135.053 27.6332 135.37 27.6566 135.669 27.7517C135.969 27.8469 136.241 28.0111 136.465 28.2312C136.689 28.4512 136.858 28.7209 136.958 29.0184C137.059 29.3159 137.088 29.6328 137.043 29.9436C137.043 33.7136 132.083 36.7136 127.863 37.1136ZM128.053 36.4136C130.673 35.4936 135.413 32.8636 135.413 29.6836C135.413 29.1236 135.263 28.8336 134.633 28.8336C132.273 28.8336 129.053 32.9036 128.053 36.4136Z" fill="white"/>
<path d="M148.773 31.2336C148.773 32.6836 148.063 33.9336 146.923 33.9336C146.713 33.9301 146.506 33.8788 146.319 33.7835C146.132 33.6881 145.969 33.5514 145.843 33.3836C146.279 33.0313 146.629 32.5843 146.866 32.0767C147.103 31.569 147.222 31.0139 147.213 30.4536C147.213 29.8636 147.033 29.5336 146.403 29.5336C143.773 29.5336 140.333 34.9736 140.333 38.6036C140.333 40.1136 140.923 41.6736 143.033 41.6736C145.963 41.6736 149.293 39.0836 150.883 34.9736L151.363 35.3436C149.663 39.8236 145.773 43.0736 142.183 43.0736C139.813 43.0736 138.043 41.5236 138.043 38.3436C138.043 33.3436 142.373 28.4936 146.143 28.4936C146.505 28.466 146.868 28.5189 147.208 28.6484C147.547 28.778 147.853 28.981 148.104 29.243C148.356 29.5049 148.546 29.8192 148.662 30.1634C148.777 30.5075 148.815 30.873 148.773 31.2336Z" fill="white"/>
<path d="M160.503 33.9736C160.503 32.6836 159.873 32.1936 159.093 32.1936C155.433 32.1936 154.093 42.4136 151.953 42.4136C151.023 42.4136 150.433 40.5236 150.433 38.5636C150.433 31.4936 158.283 14.5636 161.503 14.5636C162.383 14.5636 162.723 15.8936 162.723 16.8936C162.723 20.3336 158.573 28.3636 154.213 30.9936C153.327 33.3231 152.863 35.7916 152.843 38.2836C152.84 38.7046 152.863 39.1255 152.913 39.5436C154.653 34.4736 157.133 29.9536 160.423 29.9536C162.423 29.9536 163.233 31.6636 163.233 33.2836C163.233 35.5836 161.643 37.6936 161.643 39.5036C161.643 40.5036 162.123 40.9136 162.753 40.9136C164.423 40.9136 167.053 38.2136 168.533 34.9936L169.013 35.4336C167.453 39.0636 164.753 41.8736 161.903 41.8736C161.581 41.911 161.254 41.8787 160.946 41.7788C160.637 41.6789 160.354 41.5138 160.115 41.2947C159.876 41.0755 159.687 40.8075 159.56 40.5088C159.434 40.2101 159.374 39.8878 159.383 39.5636C159.383 38.0036 160.503 35.7536 160.503 33.9736ZM154.693 29.5736C158.093 26.8336 161.463 19.7636 161.463 17.8736C161.463 17.6536 161.463 17.5836 161.313 17.5836C160.573 17.5836 156.543 23.5436 154.693 29.5736Z" fill="white"/>
<path d="M169.083 31.6436C169.531 31.1793 170.138 30.9008 170.783 30.8636C170.918 30.8455 171.056 30.8589 171.186 30.9027C171.316 30.9466 171.433 31.0197 171.53 31.1164C171.627 31.2132 171.7 31.3309 171.744 31.4605C171.788 31.5901 171.801 31.728 171.783 31.8636C171.566 33.5312 171.171 35.1707 170.603 36.7536C172.603 33.7536 175.483 30.2436 178.293 30.2436C180.223 30.2436 181.033 31.9036 181.033 33.5736C181.033 35.8636 179.513 37.5736 179.513 39.4136C179.513 40.4136 179.993 40.8236 180.623 40.8236C182.473 40.8236 184.443 37.8236 185.803 35.0536L186.213 35.5336C184.663 39.1536 182.583 41.7836 179.813 41.7836C179.481 41.8296 179.143 41.8018 178.823 41.7021C178.502 41.6025 178.208 41.4335 177.961 41.2072C177.714 40.9809 177.519 40.7028 177.392 40.3928C177.264 40.0828 177.206 39.7484 177.223 39.4136C177.223 37.9036 178.293 36.0136 178.293 34.2736C178.293 32.9036 177.663 32.4636 176.813 32.4636C173.743 32.4636 170.343 38.3436 168.413 41.6036C168.039 41.6321 167.663 41.5728 167.316 41.4304C166.969 41.288 166.659 41.0666 166.413 40.7836C166.453 40.3036 169.043 34.8636 169.083 31.6436Z" fill="white"/>
<path d="M191.093 29.2736C191.093 30.4936 187.253 34.9736 187.253 38.4536C187.253 40.2236 187.843 40.6736 189.063 40.6736C190.723 40.6736 192.653 39.2236 194.763 35.0136L195.093 35.3836C193.653 39.6336 190.693 41.9636 187.803 41.9636C185.883 41.9636 184.953 40.5936 184.953 38.8536C184.953 36.0436 187.763 28.4636 190.283 28.4636C190.391 28.4578 190.499 28.4748 190.6 28.5135C190.7 28.5522 190.792 28.6116 190.868 28.688C190.945 28.7644 191.004 28.856 191.043 28.9569C191.082 29.0578 191.099 29.1657 191.093 29.2736ZM190.723 23.7936C190.723 22.7936 192.243 21.8736 193.433 21.8736C194.173 21.8736 194.653 22.1736 194.653 23.0236C194.541 23.5824 194.24 24.0859 193.802 24.4499C193.363 24.8139 192.813 25.0164 192.243 25.0236C191.433 25.0236 190.723 24.6536 190.723 23.7936Z" fill="white"/>
<path d="M206.043 32.1736C206.034 31.9419 205.979 31.7143 205.88 31.5044C205.782 31.2945 205.642 31.1066 205.469 30.9517C205.297 30.7969 205.095 30.6783 204.876 30.603C204.656 30.5277 204.424 30.4973 204.193 30.5136C199.833 30.5136 197.243 40.6536 196.793 41.5136C196.656 41.7218 196.468 41.8922 196.248 42.0092C196.028 42.1263 195.782 42.1862 195.533 42.1836C194.283 42.1836 194.243 40.4036 194.243 38.7036C194.243 30.9736 202.823 14.6136 205.453 14.6136C206.123 14.6136 206.603 15.6836 206.603 17.0236C206.603 20.4236 203.423 25.7936 199.053 28.4136C197.62 31.7717 196.794 35.3572 196.613 39.0036C198.163 35.0736 201.193 28.6436 204.903 28.6436C205.775 28.6436 206.612 28.9902 207.229 29.6072C207.846 30.2242 208.193 31.061 208.193 31.9336C208.193 35.1136 204.383 36.2636 202.933 36.2636C203.043 37.0736 203.863 41.0336 205.823 41.0336C207.933 41.0336 209.823 38.3736 211.303 35.0336L211.673 35.4036C210.593 39.0336 207.673 42.4736 205.083 42.4736C202.273 42.4736 201.313 38.0636 201.313 35.8136C202.383 35.7536 206.043 34.7136 206.043 32.1736ZM199.683 26.8836C203.083 24.1436 205.343 19.7836 205.343 17.8836C205.343 17.6236 205.343 17.5536 205.233 17.5536C204.493 17.5836 201.823 21.9436 199.683 26.9036V26.8836Z" fill="white"/>
<path d="M19.0028 12.4436C18.9034 12.7041 18.8232 12.9714 18.7628 13.2436L18.2028 15.5436C17.9728 16.5436 17.7028 17.7336 17.3928 19.1236C17.0828 20.5136 16.7628 22.0636 16.3928 23.7636C16.0228 25.4636 15.7328 27.3036 15.4828 29.2336C15.3728 30.2336 15.2628 31.2336 15.2328 32.1636C15.2075 32.6433 15.2075 33.1239 15.2328 33.6036V33.9336C15.2431 34.0412 15.2598 34.148 15.2828 34.2536C15.2828 34.5136 15.3728 34.7836 15.4228 35.0536L15.5828 35.7736C15.6528 36.0236 15.7028 36.2736 15.7728 36.5236C15.8428 36.7736 15.9028 37.0136 15.9928 37.2536L16.1028 37.6136L16.2328 37.9736C16.4114 38.4474 16.615 38.9114 16.8428 39.3636C17.0731 39.8294 17.3268 40.2833 17.6028 40.7236C17.8828 41.1836 18.1928 41.6536 18.5128 42.1636C18.8536 42.7077 19.1608 43.2721 19.4328 43.8536C19.7278 44.4718 19.959 45.1185 20.1228 45.7836C20.2864 46.4403 20.3968 47.1091 20.4528 47.7836C20.4528 48.1036 20.4528 48.4336 20.4528 48.7836C20.4528 48.9436 20.4528 49.1036 20.4528 49.2636V49.7336C20.4528 50.0536 20.4528 50.3636 20.4528 50.6736C20.4528 50.9836 20.4528 51.2936 20.3728 51.5936V51.8536V52.0736L20.3828 52.1736V52.3036V52.5636C20.3228 52.8936 20.2628 53.2036 20.1828 53.5136C20.0328 54.1236 19.8628 54.7136 19.6828 55.2936C18.9283 57.4774 18.0296 59.6088 16.9928 61.6736C16.5028 62.6736 15.9928 63.6236 15.4928 64.5636C15.2462 65.0303 14.9962 65.4903 14.7428 65.9436L13.9828 67.2736L13.2328 68.5636L12.4828 69.8036C11.9928 70.6036 11.4828 71.3836 11.0428 72.1236C10.6028 72.8636 10.0828 73.5336 9.64284 74.1736C9.20284 74.8136 8.77284 75.4736 8.37284 76.0536L7.23284 77.6936L6.23284 79.0736C5.62284 79.8936 5.14284 80.5336 4.80284 80.9736L4.28284 81.6336C4.28284 81.6336 4.78284 80.5736 5.67284 78.7336L9.38284 71.1736L10.5528 68.7236L11.7928 66.1036L12.3828 64.7236C12.5928 64.2636 12.8128 63.7936 13.0228 63.3236C13.4528 62.3736 13.8628 61.4036 14.2928 60.4136C14.7228 59.4236 15.1028 58.4136 15.4928 57.4136C15.8828 56.4136 16.2428 55.3536 16.5428 54.3136C16.6928 53.7936 16.8228 53.3136 16.9328 52.7636C16.9922 52.5161 17.0389 52.2658 17.0728 52.0136V51.8436V51.6536V51.4436V51.3636C17.0728 51.4236 17.0728 51.3636 17.0728 51.3636V51.2536C17.0728 50.7136 17.1428 50.1736 17.1528 49.6436V49.2436C17.1528 49.1136 17.1528 48.9836 17.1528 48.8536C17.1528 48.7236 17.1528 48.3336 17.1028 48.0836C17.0562 47.592 16.976 47.1042 16.8628 46.6236C16.7468 46.1605 16.5895 45.7087 16.3928 45.2736C16.1745 44.8073 15.9308 44.3533 15.6628 43.9136C15.3828 43.4436 15.0728 42.9136 14.7728 42.4136C14.4728 41.9136 14.1728 41.3336 13.9128 40.7636C13.7028 40.1875 13.5258 39.5999 13.3828 39.0036L13.2428 38.5636L13.0728 38.1736C12.9928 37.8836 12.9328 37.5936 12.8628 37.2936C12.7928 36.9936 12.7428 36.7136 12.6928 36.4236C12.6428 36.1336 12.6028 35.8336 12.5628 35.5336C12.5228 35.2336 12.4928 34.9936 12.4628 34.7236C12.4328 34.4536 12.4628 34.3936 12.4628 34.2336C12.4628 34.0736 12.4628 33.9236 12.4628 33.7636C12.4598 33.1821 12.4932 32.6009 12.5628 32.0236C12.6769 30.9574 12.8538 29.8989 13.0928 28.8536C13.5026 26.986 14.0066 25.1403 14.6028 23.3236C15.1528 21.6436 15.7028 20.1236 16.2128 18.7936C16.7228 17.4636 17.2128 16.3136 17.6328 15.3736C18.0528 14.4336 18.3928 13.7136 18.6328 13.2236C18.73 12.952 18.8539 12.6907 19.0028 12.4436Z" fill="white"/>
<path d="M9.38282 0.173584C9.40838 0.221175 9.42851 0.271491 9.44282 0.323584C9.44282 0.433584 9.53281 0.583584 9.59282 0.793584C9.74274 1.3963 9.82987 2.01292 9.85282 2.63358C9.88914 3.62061 9.78133 4.60766 9.53282 5.56358C9.45282 5.83358 9.37282 6.12358 9.28282 6.41358C9.19282 6.70358 9.05282 7.00358 8.93282 7.30358L8.49282 8.20358C8.32282 8.50358 8.13282 8.80358 7.94282 9.11358C7.89977 9.19142 7.84955 9.26508 7.79282 9.33358L7.63282 9.55358L7.30282 10.0036C7.19282 10.1536 7.09282 10.2936 6.97282 10.4336L6.65282 10.8436C6.22282 11.4036 5.77282 11.9736 5.38282 12.5636C4.98658 13.13 4.65139 13.7367 4.38282 14.3736C4.25881 14.6787 4.15852 14.993 4.08282 15.3136C4.08282 15.4736 4.01282 15.6436 3.98282 15.8036C3.95282 15.9636 3.98282 16.1336 3.93282 16.3036C3.88282 16.4736 3.93282 16.6536 3.93282 16.8336C3.93282 17.0136 3.93282 17.0136 3.93282 17.1036V17.3736V17.6536V17.9336C3.93282 18.1236 3.93282 18.3136 3.99282 18.5036C4.05282 18.6936 4.05282 18.8936 4.07282 19.0936L4.18282 19.6836L4.29282 20.2936C4.34282 20.4936 4.38282 20.6936 4.42282 20.9036C4.79282 22.5336 5.27282 24.2136 5.73282 25.9036L6.06282 27.2136C6.17282 27.6536 6.27282 28.0936 6.37282 28.5336C6.47282 28.9736 6.57282 29.4036 6.66282 29.8436C6.75282 30.2836 6.84282 30.7336 6.92282 31.1636C7.00282 31.5936 7.08282 32.0536 7.16282 32.4836C7.16282 32.7036 7.23282 32.9236 7.26282 33.1436C7.29282 33.3636 7.32282 33.5836 7.35282 33.8036C7.41282 34.2336 7.46282 34.6736 7.52282 35.1036L7.64282 36.4036C7.64282 36.6136 7.64282 36.8236 7.64282 37.0336V37.6736C7.64282 38.0936 7.64282 38.5136 7.64282 38.9336V40.1736C7.64282 40.3736 7.64282 40.5736 7.64282 40.7736V41.3736L7.57282 42.5336C7.57282 42.9136 7.49282 43.2936 7.44282 43.6636L7.38282 44.2136V44.4736V44.7436L7.20282 45.7436C7.09282 46.4136 6.93282 47.0536 6.78282 47.6636L6.67282 48.1136C6.64214 48.2594 6.60206 48.403 6.55282 48.5436C6.47282 48.8236 6.39282 49.0936 6.30282 49.3636C6.13282 49.8936 5.99282 50.3636 5.80282 50.8336C5.61282 51.3036 5.48282 51.6836 5.33282 52.0536L5.22282 52.3136L5.11282 52.5636L4.90282 53.0136C4.77282 53.2936 4.65282 53.5236 4.56282 53.7136L4.27282 54.2936L4.37282 53.6536C4.37282 53.4436 4.45282 53.1936 4.50282 52.8936L4.59282 52.4136V52.1436V51.8636C4.68282 51.0936 4.85282 50.1636 4.94282 49.0936C4.94282 48.8336 4.99282 48.5536 5.02282 48.2736C5.0331 48.1304 5.0331 47.9867 5.02282 47.8436V47.4036C5.02282 46.8036 5.11282 46.1836 5.10282 45.5336V44.5336V44.0236C5.10282 43.8536 5.10282 43.6836 5.10282 43.5036C5.10282 43.1536 5.10282 42.8036 5.10282 42.4436C5.10282 42.0836 5.05282 41.7136 5.03282 41.3436C5.03282 40.6036 4.90282 39.8436 4.84282 39.0736C4.84282 38.8836 4.78282 38.6836 4.76282 38.4936L4.69282 37.9036L4.61282 37.3136C4.61282 37.1136 4.55282 36.9136 4.52282 36.7136C4.28282 35.1136 3.93282 33.4736 3.57282 31.8036L3.38282 30.6136C3.28282 30.1936 3.18282 29.7736 3.07282 29.3536C2.96282 28.9336 2.86282 28.5036 2.75282 28.0836C2.64282 27.6636 2.54282 27.2436 2.42282 26.8136C2.20282 25.9436 1.97282 25.1036 1.76282 24.2136C1.55282 23.3236 1.35282 22.4536 1.18282 21.5536C1.00628 20.6452 0.886051 19.7268 0.822817 18.8036C0.743618 17.8466 0.773813 16.8837 0.912817 15.9336C0.912817 15.6936 1.00282 15.4536 1.05282 15.2136C1.10282 14.9736 1.17282 14.7336 1.25282 14.5036C1.32464 14.2715 1.41149 14.0444 1.51282 13.8236C1.61282 13.6036 1.70282 13.3836 1.82282 13.1736C2.0369 12.7714 2.27743 12.3839 2.54282 12.0136C2.78427 11.6662 3.04467 11.3324 3.32282 11.0136C3.86282 10.3936 4.39282 9.84358 4.93282 9.33358L5.38282 8.95358C5.51021 8.84121 5.63045 8.72098 5.74282 8.59358L6.08282 8.25358L6.25282 8.09358L6.38282 7.92358C7.15244 7.10459 7.79917 6.17828 8.30282 5.17358C8.69743 4.36644 8.9897 3.51317 9.17282 2.63358C9.30056 2.03498 9.37088 1.42555 9.38282 0.813584C9.38282 0.403584 9.38282 0.173584 9.38282 0.173584Z" fill="white"/>
</svg>
