<svg width="212" height="82" fill="none" xmlns="http://www.w3.org/2000/svg"><path d="M39.923 62.104l.59-.13a.31.31 0 00.16-.1.25.25 0 00.06-.17v-5.19a.28.28 0 00-.06-.18.31.31 0 00-.16-.1l-.59-.12v-.22h6.32v.22l-.6.12a.22.22 0 00-.15.1.239.239 0 00-.07.18v5.19a.24.24 0 00.07.18.24.24 0 00.15.09l.6.13v.22h-2.47v-.22l.61-.13a.25.25 0 00.16-.1.25.25 0 00.06-.17v-5.46h-3v5.46a.28.28 0 00.06.18.26.26 0 00.16.09l.59.13v.22h-2.49v-.22zm6.95.29a.72.72 0 01-.19 0h-.16l.15-.76h.71s.11 0 .18-.13a2.7 2.7 0 00.2-.35c.06-.15.13-.33.2-.53s.12-.42.17-.65c.05-.23.09-.47.12-.72.02-.25.02-.5 0-.75a.989.989 0 000-.19.729.729 0 000-.12.178.178 0 00-.07-.05h-.09l-.54-.11v-.21h4.06v.21l-.5.11a.29.29 0 00-.21.27v3.34a.27.27 0 00.06.17.23.23 0 00.15.09l.5.12v.21h-2.23v-.21l.49-.12a.2.2 0 00.15-.09.24.24 0 00.06-.17v-3.58h-1.33a10.86 10.86 0 01-.16 1.84 6.07 6.07 0 01-.42 1.34 2.3 2.3 0 01-.59.81 1.09 1.09 0 01-.71.23zm7.56-.34c-.121.09-.252.168-.39.23a1.9 1.9 0 01-.39.11h-.36a1.06 1.06 0 01-.48-.1 1 1 0 01-.37-.26 1.091 1.091 0 01-.25-.38 1.441 1.441 0 01-.08-.46 1.19 1.19 0 01.1-.51 1.18 1.18 0 01.27-.4 1.39 1.39 0 01.39-.28c.142-.083.293-.15.45-.2a4.01 4.01 0 01.47-.11h1.05v-.82a1.816 1.816 0 000-.37.549.549 0 00-.12-.23.57.57 0 00-.21-.13 1.32 1.32 0 00-.3 0 1.16 1.16 0 00-.45.08c-.141.05-.278.11-.41.18l-.35.24-.28.21h-.11l-.23-.76.3-.16c.117-.051.237-.095.36-.13l.41-.1c.15-.011.3-.011.45 0a2.3 2.3 0 01.58.07c.196.052.382.136.55.25.163.122.296.279.39.46.106.217.158.457.15.7v2.44a.372.372 0 000 .12.25.25 0 00.08.1l.12.06h.61v.22l-.17.12a1.79 1.79 0 01-.23.13l-.26.1a.771.771 0 01-.25 0 1 1 0 01-.31 0 .46.46 0 01-.23-.12.592.592 0 01-.14-.23 1.31 1.31 0 010-.37 1.569 1.569 0 01-.36.3zm.37-2.1a4.339 4.339 0 00-.76.06 2.15 2.15 0 00-.59.19 1 1 0 00-.37.34.88.88 0 00-.13.49c0 .14.023.278.07.41a.77.77 0 00.19.27.66.66 0 00.26.14c.09.014.18.014.27 0h.28c.1-.02.197-.05.29-.09l.27-.15c.08-.064.15-.138.21-.22l.01-1.44zm5.46 1.38v.33a2.8 2.8 0 01-.72.53 2.17 2.17 0 01-.47.17 1.772 1.772 0 01-.52.07 1.78 1.78 0 01-1.43-.67 2.342 2.342 0 01-.4-.71 2.652 2.652 0 01-.13-.85 2.814 2.814 0 01.07-.65 1.99 1.99 0 01.21-.59 2.19 2.19 0 01.34-.52c.138-.158.3-.293.48-.4a1.87 1.87 0 01.59-.27c.238-.065.483-.099.73-.1a2 2 0 01.46 0c.111.016.219.05.32.1a.995.995 0 01.23.11l.17.1-.15.73h-.1l-.34-.23a2.39 2.39 0 00-.71-.36 1.419 1.419 0 00-.42-.06h-.18a.489.489 0 00-.17.06l-.16.1-.12.12a1 1 0 00-.15.21 3.365 3.365 0 00-.14.32c0 .13-.07.27-.1.42a2.677 2.677 0 000 .5c-.006.286.028.572.1.85.059.227.16.44.3.63.131.17.303.304.5.39.217.095.453.142.69.14.129 0 .257-.02.38-.06.117-.037.231-.083.34-.14l.28-.18.21-.17.01.08zm1.27.78l.5-.12a.29.29 0 00.15-.09.27.27 0 00.06-.17v-3.56h-.86a.44.44 0 00-.25.06.36.36 0 00-.12.16l-.28.8h-.24v-1.39h4.21v1.37h-.23l-.28-.8a.36.36 0 00-.12-.16.44.44 0 00-.25-.06h-.83v3.6a.26.26 0 00.21.26l.5.12v.21h-2.2l.03-.23zm3.63 0l.5-.12a.29.29 0 00.15-.09.27.27 0 00.06-.17v-3.34a.24.24 0 00-.06-.17.309.309 0 00-.15-.1l-.5-.11v-.21h2.14v.21l-.45.11a.38.38 0 00-.15.09.28.28 0 00-.06.18v3l2.22-3.22v-.35h1.52v.21l-.5.11a.31.31 0 00-.15.1.24.24 0 00-.06.17v3.34a.27.27 0 00.06.17c.04.044.092.076.15.09l.5.12v.21h-2.19v-.21l.45-.12a.261.261 0 00.21-.26v-3l-2.23 3.22v.34h-1.46v-.2zm8.22 0l.5-.12a.26.26 0 00.21-.26v-1.56l-.33.18-.35.12a2.375 2.375 0 01-.34.08h-.31a1.56 1.56 0 01-1.09-.33 1.22 1.22 0 01-.35-.92v-1a.24.24 0 00-.06-.17.27.27 0 00-.15-.1l-.5-.11v-.21h2.15v.21l-.45.11a.27.27 0 00-.15.09.28.28 0 00-.06.18v.69a1.317 1.317 0 000 .41.73.73 0 00.43.53 1.1 1.1 0 00.43.08h.79l.29-.08v-1.54a.28.28 0 00-.06-.18.38.38 0 00-.15-.09l-.45-.11v-.21h2.2v.21l-.5.11a.31.31 0 00-.15.1.24.24 0 00-.06.17v3.34a.27.27 0 00.06.17.29.29 0 00.15.09l.5.12v.21h-2.2v-.21zm6.48-.77v.34a3 3 0 01-.32.27 2.86 2.86 0 01-.42.24 3.418 3.418 0 01-.48.18c-.177.04-.359.06-.54.06a2.232 2.232 0 01-.83-.15 1.69 1.69 0 01-.64-.45 2.092 2.092 0 01-.43-.74 3.193 3.193 0 01-.14-1 2.792 2.792 0 01.14-.91 2.28 2.28 0 01.41-.77c.182-.22.407-.4.66-.53a1.93 1.93 0 01.88-.19c.254-.005.507.046.74.15.203.098.386.234.54.4.15.164.262.358.33.57.075.205.112.421.11.64v.19a.25.25 0 000 .08v.08h-3c-.032.549.1 1.095.38 1.57a1.31 1.31 0 001.15.55c.162 0 .323-.02.48-.06.133-.038.263-.085.39-.14l.31-.18.23-.18.05-.02zm-.82-1.86c.02-.19.02-.381 0-.57a1.429 1.429 0 00-.16-.48.88.88 0 00-.29-.34.76.76 0 00-.44-.12.9.9 0 00-.46.11 1.1 1.1 0 00-.35.3 1.802 1.802 0 00-.25.48 2.7 2.7 0 00-.14.62h2.09zm5 1.85v.33a2.8 2.8 0 01-.72.53 2.17 2.17 0 01-.47.17 1.772 1.772 0 01-.52.07 1.78 1.78 0 01-1.43-.67 2.342 2.342 0 01-.4-.71 2.65 2.65 0 01-.12-.88 2.814 2.814 0 01.07-.65 1.99 1.99 0 01.21-.59c.092-.187.206-.361.34-.52a2.37 2.37 0 011.08-.67c.234-.066.476-.1.72-.1a2 2 0 01.46 0c.114.018.225.052.33.1l.22.11.17.1-.14.73h-.11l-.35-.15a2.384 2.384 0 00-.71-.36 1.418 1.418 0 00-.42-.06h-.18a.49.49 0 00-.17.06l-.16.1-.12.12a.945.945 0 00-.15.21 1.85 1.85 0 00-.13.32 2.577 2.577 0 00-.11.42 2.677 2.677 0 000 .5c-.006.286.028.572.1.85.062.225.164.439.3.63.131.17.303.304.5.39.217.095.453.142.69.14.129 0 .257-.02.38-.06.117-.037.231-.083.34-.14l.28-.18.21-.17.01.03zm3.86 1.03a.48.48 0 01-.32-.21 1.4 1.4 0 01-.14-.22l-.88-1.6-.75-.16v1.56a.26.26 0 00.21.26l.45.12v.21h-2.09v-.21l.5-.12a.29.29 0 00.15-.09.27.27 0 00.06-.17v-3.34a.24.24 0 00-.06-.17.31.31 0 00-.15-.1l-.5-.11v-.21h2.14v.21l-.45.11a.38.38 0 00-.15.09.28.28 0 00-.06.18v1.51h.41c.106.016.214.016.32 0a.62.62 0 00.26-.17 1.48 1.48 0 00.21-.35 3.96 3.96 0 00.17-.43c0-.15.11-.29.16-.43.041-.12.102-.231.18-.33l.19-.21.19-.13.21-.07h.73l-.14.73h-.61a.28.28 0 00-.19.07.858.858 0 00-.15.17 2.308 2.308 0 00-.13.24 2 2 0 01-.15.29c0 .1-.11.2-.17.3-.069.093-.146.18-.23.26l1.18 2a.47.47 0 00.14.14c.05.035.109.058.17.07l.5.13v.21l-.91.05a1.001 1.001 0 01-.3-.08zm1.48-.25l.5-.12a.29.29 0 00.15-.09.27.27 0 00.06-.17v-3.34a.24.24 0 00-.06-.17.31.31 0 00-.15-.1l-.5-.11v-.21h2.14v.21l-.44.11a.35.35 0 00-.16.09.27.27 0 000 .18v3l2.13-3.22v-.35h1.46v.21l-.5.11a.31.31 0 00-.15.1.24.24 0 00-.06.17v3.34a.27.27 0 00.06.17.29.29 0 00.15.09l.5.12v.21h-2.13v-.21l.45-.12a.26.26 0 00.21-.26v-3l-2.23 3.22v.34h-1.43v-.2zm5.58 0l.5-.12a.29.29 0 00.15-.09.27.27 0 00.06-.17v-3.34a.24.24 0 00-.06-.17.31.31 0 00-.15-.1l-.5-.11v-.21h2.14v.21l-.45.11a.38.38 0 00-.15.09.28.28 0 00-.06.18v3l2.23-3.22v-.35h1.46v.21l-.5.11a.31.31 0 00-.15.1.24.24 0 00-.06.17v3.34a.27.27 0 00.06.17.29.29 0 00.15.09l.5.12v.21h-2.14v-.21l.45-.12a.26.26 0 00.21-.26v-3l-2.23 3.22v.34h-1.47l.01-.2zm2.64-5.34a2.1 2.1 0 01-.66-.09 1.39 1.39 0 01-.44-.22 1.002 1.002 0 01-.25-.29.64.64 0 01-.07-.28v-.3h.73v.65a.27.27 0 00.11.1.58.58 0 00.18.08.67.67 0 00.2 0h.39a.67.67 0 00.2 0 .532.532 0 00.17-.08.4.4 0 00.12-.1v-.65h.73v.3a.64.64 0 01-.07.28.81.81 0 01-.24.29 1.51 1.51 0 01-.44.22 2.1 2.1 0 01-.66.09zm5.13 5.34l.36-.12a.85.85 0 00.23-.12.704.704 0 00.15-.13l1.26-1.57-1.25-1.81a.621.621 0 00-.1-.19.576.576 0 00-.22-.11l-.34-.09v-.21h2.1v.21l-.61.14.73 1.12.25.39 1.03-1.45-.59-.16v-.21h1.65v.21l-.37.11a.766.766 0 00-.22.12 1.114 1.114 0 00-.15.13l-1.2 1.53 1.3 1.86a.62.62 0 00.13.15c.066.047.141.08.22.1l.34.1v.21h-2.1v-.21l.62-.15-.78-1.17-.25-.39-1.13 1.54.59.17v.21h-1.64l-.01-.21zm4.9 0l.49-.12a.281.281 0 00.16-.09.35.35 0 000-.17v-3.34a.29.29 0 000-.17.291.291 0 00-.16-.1l-.49-.11v-.21h2.14v.21l-.45.11a.372.372 0 00-.15.09.274.274 0 00-.06.18v3l2.27-3.22v-.35h1.47v.21l-.5.11a.291.291 0 00-.16.1.286.286 0 00-.05.17v3.34a.33.33 0 00.05.17.281.281 0 00.16.09l.5.12v.21h-2.15v-.21l.45-.12a.259.259 0 00.21-.26v-3l-2.24 3.22v.34h-1.46l-.03-.2zm5.52 2.2l.52-.12a.38.38 0 00.15-.09.285.285 0 00.06-.18v-5.27a.372.372 0 00-.06-.21.608.608 0 00-.23-.14l-.43-.15v-.12l1.47-.33v.75l.1-.13c.105-.138.23-.259.37-.36a1.875 1.875 0 01.73-.28h.28a1.65 1.65 0 01.75.16c.22.107.412.264.56.46.154.21.27.448.34.7.082.282.123.575.12.87a3.56 3.56 0 01-.14 1 2.587 2.587 0 01-.42.81 1.997 1.997 0 01-1.57.74 1.251 1.251 0 01-.35 0 .997.997 0 01-.3-.1 1.362 1.362 0 01-.24-.14 1.13 1.13 0 01-.2-.17v2a.274.274 0 00.06.18.24.24 0 00.15.09l.65.12v.21h-2.37v-.3zm2.51-2.29c.216.006.43-.046.62-.15.175-.098.326-.235.44-.4.12-.177.208-.373.26-.58.052-.23.078-.465.08-.7 0-.266-.027-.53-.08-.79a1.742 1.742 0 00-.25-.64 1.154 1.154 0 00-.43-.42 1.222 1.222 0 00-.63-.15h-.24a1.37 1.37 0 00-.27.08 1.795 1.795 0 00-.27.15c-.089.07-.167.155-.23.25v3a1.281 1.281 0 00.49.21l.28.06c.073.035.15.062.23.08zm2.72 1.58h.13a.73.73 0 00.18.09l.22.08.23.06h.34l.16-.09a.857.857 0 00.22-.2c.073-.088.134-.186.18-.29.067-.127.127-.257.18-.39.06-.15.12-.32.2-.51l-.32-.65-1.41-3.38a.273.273 0 00-.11-.14l-.2-.09-.32-.09v-.21h2.08v.21l-.76.17 1.07 2.61.23.58 1.16-3.19-.66-.17v-.21h1.64v.21l-.33.12-.2.09a.2.2 0 00-.11.14l-1.73 4.82a2.88 2.88 0 01-.33.7c-.1.153-.221.291-.36.41-.12.086-.256.147-.4.18a1.837 1.837 0 01-.41 0h-.45l-.17-.07-.14-.06.19-.73z" fill="#fff"/><path d="M122.803 64.314l.51-.12a.355.355 0 00.16-.09.343.343 0 000-.18v-5.27a.38.38 0 00-.06-.21.497.497 0 00-.22-.14l-.43-.15v-.12l1.47-.33v.75l.1-.13c.105-.138.23-.259.37-.36.118-.08.246-.143.38-.19.113-.043.23-.073.35-.09h.27c.262-.006.522.048.76.16.217.107.406.265.55.46.158.21.276.447.35.7.082.282.123.575.12.87a3.23 3.23 0 01-.15 1 2.397 2.397 0 01-.41.81c-.182.226-.41.41-.67.54-.279.14-.588.21-.9.2-.12.015-.241.015-.36 0a.997.997 0 01-.3-.1l-.24-.14a.986.986 0 01-.19-.17v2a.274.274 0 00.06.18.24.24 0 00.15.09l.64.12v.21h-2.36l.05-.3zm2.5-2.29c.219.004.436-.047.63-.15.175-.098.326-.235.44-.4a1.79 1.79 0 00.25-.58c.06-.229.09-.464.09-.7 0-.266-.027-.53-.08-.79a2.199 2.199 0 00-.25-.64 1.234 1.234 0 00-.43-.42 1.282 1.282 0 00-.63-.15h-.24a1.37 1.37 0 00-.54.23.904.904 0 00-.23.25v3a1.29 1.29 0 00.49.21c.091.03.185.05.28.06.07.035.144.062.22.08zm2.7.09l.5-.12a.23.23 0 00.15-.09.27.27 0 00.06-.17v-3.34a.29.29 0 00-.21-.27l-.5-.11v-.21h3.79v1.37h-.23l-.33-.85a.361.361 0 00-.12-.16.442.442 0 00-.25-.06h-1.36v3.6a.236.236 0 00.06.17.207.207 0 00.15.09l.54.12v.21h-2.25v-.18zm6.12-.01l.4-.12a.345.345 0 00.16-.1.448.448 0 00.11-.17l1.86-4.85.56-1.07h.17l2.29 5.92a.448.448 0 00.11.17.366.366 0 00.17.1l.4.12v.22h-2.27v-.22l.82-.16-.78-2h-2.26l-.72 2 .79.17v.22h-1.81v-.23zm3.86-2.53l-.77-2-.23-.64-1 2.6 2 .04z" fill="#fff"/><path d="M140.323 62.114l.5-.12a.23.23 0 00.15-.09.27.27 0 00.06-.17v-3.34a.29.29 0 00-.21-.27l-.5-.11v-.21h2.15v.21l-.45.11a.314.314 0 00-.15.09.274.274 0 00-.06.18v1.42h2.15v-1.42a.285.285 0 00-.06-.18.386.386 0 00-.15-.09l-.45-.11v-.21h2.14v.21l-.5.11a.309.309 0 00-.15.1.236.236 0 00-.06.17v3.34a.27.27 0 00.06.17.289.289 0 00.15.09l.5.12v.21h-2.14v-.21l.45-.12a.259.259 0 00.21-.26v-1.62h-2.15v1.62a.236.236 0 00.06.17.208.208 0 00.15.09l.45.12v.21h-2.15v-.21zm5.45-.13h.47c.095-.09.179-.19.25-.3a3.42 3.42 0 00.26-.47c.08-.18.16-.38.24-.59.082-.223.152-.45.21-.68.05-.23.1-.47.13-.71.036-.239.053-.48.05-.72a1.005 1.005 0 000-.19.347.347 0 00-.05-.12.18.18 0 00-.07-.05h-.08l-.5-.11v-.21h4.11v.21l-.5.11a.309.309 0 00-.15.1.236.236 0 00-.06.17v3.59h.76v1.8h-.3l-.42-1.29a.207.207 0 00-.031-.08.2.2 0 00-.059-.06.21.21 0 00-.13 0h-3.18a.22.22 0 00-.14 0 .32.32 0 00-.09.14l-.42 1.29h-.29l-.01-1.83zm3.52 0v-3.81h-1.48c0 .445-.034.89-.1 1.33-.053.367-.13.732-.23 1.09a4.594 4.594 0 01-.35.85 2.762 2.762 0 01-.4.59l2.56-.05zm1.85 2.33l.51-.12a.355.355 0 00.16-.09.366.366 0 000-.18v-5.27a.38.38 0 00-.06-.21.497.497 0 00-.22-.14l-.43-.15v-.12l1.47-.33v.75l.1-.13c.105-.138.23-.259.37-.36.118-.08.246-.143.38-.19.11-.042.224-.072.34-.09h.28c.262-.006.522.048.76.16.217.107.405.265.55.46.158.21.276.447.35.7.082.282.123.575.12.87a3.23 3.23 0 01-.15 1 2.397 2.397 0 01-.41.81c-.182.226-.41.41-.67.54-.279.14-.588.21-.9.2-.12.015-.241.015-.36 0a.997.997 0 01-.3-.1l-.24-.14a.986.986 0 01-.19-.17v2a.274.274 0 00.06.18.24.24 0 00.15.09l.64.12v.21h-2.36l.05-.3zm2.5-2.29c.219.004.436-.047.63-.15.175-.098.326-.235.44-.4.117-.177.201-.374.25-.58.06-.229.09-.464.09-.7 0-.266-.027-.53-.08-.79a2.199 2.199 0 00-.25-.64 1.234 1.234 0 00-.43-.42 1.282 1.282 0 00-.63-.15l-.28-.02a1.37 1.37 0 00-.54.23.904.904 0 00-.23.25v3a1.29 1.29 0 00.49.21c.091.03.185.05.28.06a.993.993 0 00.26.1zm6.54-.68v.34l-.33.27a2.79 2.79 0 01-.41.24c-.16.07-.323.13-.49.18-.174.04-.352.06-.53.06a2.24 2.24 0 01-.84-.15 1.686 1.686 0 01-.64-.45 2.23 2.23 0 01-.42-.74 3.17 3.17 0 01-.15-1c.001-.309.048-.616.14-.91a2.28 2.28 0 01.41-.77c.182-.22.407-.4.66-.53.275-.13.576-.195.88-.19.254-.006.507.045.74.15.205.095.388.231.54.4.149.164.262.358.33.57.075.205.112.421.11.64v.27a.215.215 0 000 .08h-3c-.032.549.1 1.095.38 1.57a1.31 1.31 0 001.15.55c.162 0 .323-.02.48-.06a2.59 2.59 0 00.39-.14l.31-.18a2.78 2.78 0 00.23-.18l.06-.02zm-.8-1.86c.015-.19.015-.38 0-.57a1.707 1.707 0 00-.17-.48.884.884 0 00-.29-.34.75.75 0 00-.43-.12.869.869 0 00-.46.11.996.996 0 00-.36.3 1.782 1.782 0 00-.25.48 3.275 3.275 0 00-.14.62h2.1zm1.28 2.63l.5-.12a.293.293 0 00.15-.09.27.27 0 00.06-.17v-3.34a.24.24 0 00-.06-.17.309.309 0 00-.15-.1l-.5-.11v-.21h2.14v.21l-.42.16a.38.38 0 00-.15.09.274.274 0 00-.06.18v3l2.21-3.27v-.35h1.47v.21l-.47.14a.269.269 0 00-.15.1.24.24 0 00-.06.17v3.34a.26.26 0 00.21.26l.5.12v.21h-2.2v-.21l.45-.12a.211.211 0 00.15-.09.24.24 0 00.06-.17v-3l-2.23 3.22v.34h-1.47l.02-.23zm2.63-5.34a2.15 2.15 0 01-.66-.09 1.33 1.33 0 01-.43-.22.752.752 0 01-.25-.29.671.671 0 01-.08-.28v-.3h.73v.65a.43.43 0 00.12.1.528.528 0 00.17.08.744.744 0 00.2 0h.4a.744.744 0 00.2 0 .539.539 0 00.17-.08.403.403 0 00.12-.1v-.65h.73v.3a.671.671 0 01-.08.28.816.816 0 01-.24.29 1.34 1.34 0 01-.43.22 2.228 2.228 0 01-.67.09zm5.37 5.33l.59-.13a.273.273 0 00.16-.1.251.251 0 00.06-.17v-5.19a.285.285 0 00-.06-.18.273.273 0 00-.16-.1l-.59-.12v-.22h6.32v.22l-.59.12a.209.209 0 00-.16.1.28.28 0 00-.06.18v5.19a.28.28 0 00.06.18.24.24 0 00.16.09l.59.13v.22h-2.47v-.22l.6-.13a.25.25 0 00.15-.1.22.22 0 00.07-.17v-5.46h-3v5.46a.274.274 0 00.06.18c.044.049.104.08.17.09l.58.13v.22h-2.46l-.02-.22zm9.13-.05a2.013 2.013 0 01-.39.23 2.113 2.113 0 01-.39.11h-.36a1.06 1.06 0 01-.48-.1 1.111 1.111 0 01-.62-.64 1.21 1.21 0 01-.09-.46c0-.175.034-.348.1-.51a1.53 1.53 0 01.27-.4c.116-.111.248-.205.39-.28.146-.081.301-.148.46-.2.151-.047.304-.083.46-.11h1.02v-.82a1.906 1.906 0 000-.37.534.534 0 00-.33-.36 1.422 1.422 0 00-.31 0 1.105 1.105 0 00-.44.08 2.52 2.52 0 00-.41.18l-.36.24-.28.21h-.1l-.14-.73.3-.16c.117-.051.237-.095.36-.13l.4-.1c.153-.01.307-.01.46 0 .195-.001.39.022.58.07.193.05.376.135.54.25a1.294 1.294 0 01.54 1.16v2.44a.222.222 0 000 .12c.017.037.041.07.07.1l.12.06h.62v.22l-.18.12a1.178 1.178 0 01-.22.13l-.26.1a.771.771 0 01-.25 0 .999.999 0 01-.32 0 .43.43 0 01-.22-.12.584.584 0 01-.14-.23 1.274 1.274 0 010-.37c-.119.11-.254.2-.4.27zm.37-2.1a4.54 4.54 0 00-.77.06 2.078 2.078 0 00-.58.19.991.991 0 00-.37.34.873.873 0 00-.13.49.99.99 0 00.07.41.77.77 0 00.19.27.62.62 0 00.25.14c.093.013.187.013.28 0h.28a1.356 1.356 0 00.55-.24.938.938 0 00.22-.22l.01-1.44zm5.46 1.38v.33c-.1.1-.207.194-.32.28a3.917 3.917 0 01-.4.25c-.15.073-.308.13-.47.17a1.86 1.86 0 01-.53.07 1.792 1.792 0 01-.81-.18 1.846 1.846 0 01-.62-.49 2.128 2.128 0 01-.39-.71 2.643 2.643 0 01-.14-.85c.003-.219.026-.436.07-.65.047-.204.118-.402.21-.59.095-.187.213-.362.35-.52a1.98 1.98 0 01.47-.4 1.98 1.98 0 01.6-.27c.238-.066.483-.1.73-.1a2 2 0 01.46 0c.11.02.218.053.32.1.08.028.157.065.23.11l.17.1-.15.73h-.11l-.33-.23a2.386 2.386 0 00-.71-.36 1.444 1.444 0 00-.43-.06.51.51 0 00-.17 0 .636.636 0 00-.18.06l-.15.1-.13.12a1.48 1.48 0 00-.14.21 1.94 1.94 0 00-.14.32 2.523 2.523 0 00-.1.42 2.623 2.623 0 00-.05.5 3.58 3.58 0 00.1.85c.062.227.167.441.31.63.131.17.303.304.5.39.217.096.452.144.69.14.129 0 .257-.02.38-.06.115-.035.225-.082.33-.14l.29-.18.2-.17.06.08zm4.12.01v.34l-.33.27a2.34 2.34 0 01-.41.24 3.12 3.12 0 01-.49.18c-.174.04-.352.06-.53.06a2.24 2.24 0 01-.84-.15 1.686 1.686 0 01-.64-.45 2.23 2.23 0 01-.42-.74 3.17 3.17 0 01-.15-1c.001-.309.048-.616.14-.91.09-.28.229-.54.41-.77.182-.22.407-.4.66-.53.275-.13.576-.195.88-.19a1.72 1.72 0 01.74.15c.206.093.39.23.54.4.149.164.262.358.33.57.078.204.119.42.12.64.005.03.005.06 0 .09v.18a.268.268 0 000 .08h-3a2.78 2.78 0 00.38 1.57 1.31 1.31 0 001.15.55c.162 0 .323-.02.48-.06.136-.038.27-.085.4-.14a2.632 2.632 0 00.53-.36l.05-.02zm-.82-1.86a3.39 3.39 0 000-.57 2.132 2.132 0 00-.16-.48 1.001 1.001 0 00-.3-.34.75.75 0 00-.43-.12.869.869 0 00-.46.11.996.996 0 00-.36.3 1.782 1.782 0 00-.25.48 3.354 3.354 0 00-.14.62h2.1zm3.91 2.63l.5-.12a.259.259 0 00.21-.26v-1.56a2.718 2.718 0 01-.33.18l-.35.12a2.371 2.371 0 01-.34.08h-.31a1.56 1.56 0 01-1.09-.33 1.217 1.217 0 01-.35-.92v-1a.24.24 0 00-.06-.17.27.27 0 00-.15-.1l-.5-.11v-.21h2.15v.21l-.45.11a.267.267 0 00-.15.09.274.274 0 00-.06.18v.69c-.005.138.012.276.05.41a.728.728 0 00.43.53c.136.055.283.082.43.08h.79l.29-.08v-1.54a.285.285 0 00-.06-.18.391.391 0 00-.1-.04l-.45-.11v-.21h2.14v.21l-.5.11a.309.309 0 00-.15.1.236.236 0 00-.06.17v3.34a.27.27 0 00.06.17.289.289 0 00.15.09l.5.12v.21h-2.19l-.05-.26zm2.64 0l.5-.12a.293.293 0 00.15-.09.27.27 0 00.06-.17v-3.34a.24.24 0 00-.06-.17.309.309 0 00-.15-.1l-.5-.11v-.21h2.14v.21l-.44.11a.345.345 0 00-.16.09.344.344 0 000 .18v1.42h2.15v-1.42a.285.285 0 00-.06-.18.386.386 0 00-.15-.09l-.45-.11v-.21h2.14v.21l-.5.11a.309.309 0 00-.15.1.236.236 0 00-.06.17v3.34a.27.27 0 00.06.17.289.289 0 00.15.09l.5.12v.21h-2.14v-.21l.45-.12a.259.259 0 00.21-.26v-1.62h-2.15v1.62a.29.29 0 000 .17.24.24 0 00.16.09l.44.12v.21h-2.14v-.21zm5.57 0l.5-.12a.293.293 0 00.15-.09.27.27 0 00.06-.17v-3.34a.24.24 0 00-.06-.17.309.309 0 00-.15-.1l-.5-.11v-.21h2.14v.21l-.45.11a.38.38 0 00-.15.09.28.28 0 00-.06.18v3l2.22-3.22v-.35h1.47v.21l-.5.11a.309.309 0 00-.15.1.24.24 0 00-.06.17v3.34a.27.27 0 00.06.17.289.289 0 00.15.09l.5.12v.21h-2.14v-.21l.45-.12a.259.259 0 00.21-.26v-3l-2.23 3.22v.34h-1.47l.01-.2zm9.19.25a.477.477 0 01-.32-.21 1.378 1.378 0 01-.14-.22l-.89-1.6-.74-.16v1.56a.259.259 0 00.21.26l.45.12v.21h-2.14v-.21l.5-.12a.293.293 0 00.15-.09.27.27 0 00.06-.17v-3.34a.24.24 0 00-.06-.17.309.309 0 00-.15-.1l-.5-.11v-.21h2.14v.21l-.42.16a.38.38 0 00-.15.09.28.28 0 00-.06.18v1.51h.41c.106.016.214.016.32 0a.62.62 0 00.26-.17 1.52 1.52 0 00.21-.35c.06-.14.12-.29.17-.43.05-.14.1-.29.16-.43.041-.12.102-.231.18-.33l.19-.21.19-.13.21-.07h.73l-.14.73h-.68a.28.28 0 00-.19.07.861.861 0 00-.15.17 2.471 2.471 0 00-.13.24c0 .1-.09.19-.15.29-.06.1-.11.2-.17.3a2.792 2.792 0 01-.23.26l1.18 2a.378.378 0 00.14.14.44.44 0 00.17.07l.49.13v.21l-.9.05a.996.996 0 01-.21-.13zm-156.85-33.57c-4 0-7.51 6.92-7.51 9.77 0 1.11.52 1.77 1.34 1.77 2 0 5.62-4 8-10.17 2.74-7.14 6.07-15.8 8.1-15.8a.789.789 0 01.74.85c0 2.33-8.51 15.87-8.51 23.2 0 1.41 0 2.07.85 2.07 1.52 0 4.15-2.11 5.7-5.47l.44.33c-1.45 3.83-4.67 6.62-7.15 6.62-1.85 0-2.45-1.48-2.45-2.77.084-1.356.322-2.698.71-4-2.41 4-5.3 6.88-7.55 6.88a2.83 2.83 0 01-2.78-3.11c0-4.1 5.37-11.32 10-11.32 1 0 1.62.37 1.62 1.15a2.24 2.24 0 01-.07.51 1.65 1.65 0 00-1.48-.51z" fill="#fff"/><path d="M59.453 36.304a53.379 53.379 0 003-7 1.202 1.202 0 01-.37-.89 2.63 2.63 0 011.55-2.51c.52 0 .52.63.52.88s-.41 1.23-.41 1.37c0 1.37 3.78 2 3.78 5.15 0 2.25-1.85 4.7-1.85 6.25a1 1 0 001.11 1.11c2.33 0 5.36-3.37 6.29-5.51l.48.37c-1.41 3.14-4.59 6.47-7.74 6.47a2.401 2.401 0 01-2.7-2.4c0-2.19 2-5 2-6.92 0-1.59-1.15-2.15-2.07-2.81a59.688 59.688 0 01-3.3 7.1l-.29-.66zm13.62 4.07c0-.81 1.18-1.52 2.14-1.52.59 0 1 .23 1 .89a2 2 0 01-1.92 1.63c-.67 0-1.22-.3-1.22-1zm12.5-10.32c-1.48 5.07-2.85 10.25-4 14.17-1.26 0-2.56-.78-2.56-1.85.082-.688.257-1.36.52-2 3.11-9.65 5.29-16.35 9.1-25-2.85.55-4.73 2-5.14 2-.41 0-1.15-.63-1.15-1a21.999 21.999 0 018.18-2c4.37 0 9.51 2.4 9.51 7.14 0 7.73-11.69 8.55-14.1 8.55l-.36-.01zm5.29-14.88a92.272 92.272 0 00-5.14 14.32c5.44-.3 11.84-2.93 11.84-8.59 0-4.03-3.18-5.73-6.7-5.73zm17.87 18.91c0 .85-2.14 3.37-2.14 5.14 0 .74.37 1.63 1.26 1.63 1.33 0 3.7-1.92 5.92-5.84l.37.37c-1.56 4-4.7 6.73-7.33 6.73a2.502 2.502 0 01-2.66-2.59c.002-.36.039-.718.11-1.07-2.15 2.85-3.78 4.29-5.59 4.29-1.55 0-2.74-1-2.74-3.07 0-4.4 5.44-11.36 10.25-11.36 1.92 0 3.37 1.11 3.37 2.77 0 1.23-.74 1.6-1.82 1.6.122-.423.185-.86.19-1.3 0-1.11-.48-2.07-1.81-2.07-3.48 0-7.63 6.88-7.63 10.47 0 1 .34 1.44 1 1.44 2.3 0 6-5.4 7.77-8.06.45.07 1.48.37 1.48.92z" fill="#fff"/><path d="M114.693 34.714a21.64 21.64 0 003.69-5.37v-.44c0-1.81.74-2.52 1.45-2.52.4 0 .59.23.59.49-.117.533-.19 1.075-.22 1.62 0 2.45 1.92 5.52 1.92 8.92a6.82 6.82 0 01-.22 1.81c1.7-.29 3.22-1.4 4.66-4.18l.33.37a6.318 6.318 0 01-5.18 4.41 4.71 4.71 0 01-4.73 3.07c-3.48 0-4.63-2.63-4.63-4.85-.03-2.87 1.93-2.87 2.34-3.33zm4.69 5.07a7.268 7.268 0 01-4.55-3.07c-.59 0-.81.52-.81 1.29 0 1.78 1.11 3.59 3 3.59a2.352 2.352 0 002.36-1.81zm-.81-9a27.567 27.567 0 01-3.59 4.81 6.609 6.609 0 004.56 3.58c.096-.575.146-1.157.15-1.74 0-2.26-.78-4.64-1.15-6.68l.03.03z" fill="#fff"/><path d="M127.863 37.114a6.29 6.29 0 00-.15 1.34c0 1.51.63 3.11 2.93 3.11 3.14 0 6.44-3 8.29-6.55l.44.33c-2 4.44-5.85 7.29-9.51 7.29-3 0-4.51-1.89-4.51-4.29 0-4.41 5-10.66 9.39-10.66a1.997 1.997 0 012.215 1.334c.101.298.13.615.085.926 0 3.77-4.96 6.77-9.18 7.17zm.19-.7c2.62-.92 7.36-3.55 7.36-6.73 0-.56-.15-.85-.78-.85-2.36 0-5.58 4.07-6.58 7.58z" fill="#fff"/><path d="M148.773 31.234c0 1.45-.71 2.7-1.85 2.7a1.382 1.382 0 01-1.08-.55 3.685 3.685 0 001.37-2.93c0-.59-.18-.92-.81-.92-2.63 0-6.07 5.44-6.07 9.07 0 1.51.59 3.07 2.7 3.07 2.93 0 6.26-2.59 7.85-6.7l.48.37c-1.7 4.48-5.59 7.73-9.18 7.73-2.37 0-4.14-1.55-4.14-4.73 0-5 4.33-9.85 8.1-9.85a2.463 2.463 0 012.519 1.67c.115.343.153.709.111 1.07z" fill="#fff"/><path d="M160.503 33.974c0-1.29-.63-1.78-1.41-1.78-3.66 0-5 10.22-7.14 10.22-.93 0-1.52-1.89-1.52-3.85 0-7.07 7.85-24 11.07-24 .88 0 1.22 1.33 1.22 2.33 0 3.44-4.15 11.47-8.51 14.1a20.98 20.98 0 00-1.37 7.29c-.003.42.02.842.07 1.26 1.74-5.07 4.22-9.59 7.51-9.59 2 0 2.81 1.71 2.81 3.33 0 2.3-1.59 4.41-1.59 6.22 0 1 .48 1.41 1.11 1.41 1.67 0 4.3-2.7 5.78-5.92l.48.44c-1.56 3.63-4.26 6.44-7.11 6.44a2.26 2.26 0 01-2.52-2.31c0-1.56 1.12-3.81 1.12-5.59zm-5.81-4.4c3.4-2.74 6.77-9.81 6.77-11.7 0-.22 0-.29-.15-.29-.74 0-4.77 5.96-6.62 11.99z" fill="#fff"/><path d="M169.083 31.644a2.568 2.568 0 011.7-.78.892.892 0 011 1 23.428 23.428 0 01-1.18 4.89c2-3 4.88-6.51 7.69-6.51 1.93 0 2.74 1.66 2.74 3.33 0 2.29-1.52 4-1.52 5.84 0 1 .48 1.41 1.11 1.41 1.85 0 3.82-3 5.18-5.77l.41.48c-1.55 3.62-3.63 6.25-6.4 6.25a2.277 2.277 0 01-2.421-1.391 2.265 2.265 0 01-.169-.98c0-1.51 1.07-3.4 1.07-5.14 0-1.37-.63-1.81-1.48-1.81-3.07 0-6.47 5.88-8.4 9.14a2.409 2.409 0 01-2-.82c.04-.48 2.63-5.92 2.67-9.14z" fill="#fff"/><path d="M191.093 29.274c0 1.22-3.84 5.7-3.84 9.18 0 1.77.59 2.22 1.81 2.22 1.66 0 3.59-1.45 5.7-5.66l.33.37c-1.44 4.25-4.4 6.58-7.29 6.58-1.92 0-2.85-1.37-2.85-3.11 0-2.81 2.81-10.39 5.33-10.39a.77.77 0 01.81.81zm-.37-5.48c0-1 1.52-1.92 2.71-1.92.74 0 1.22.3 1.22 1.15a2.492 2.492 0 01-2.41 2c-.81 0-1.52-.37-1.52-1.23z" fill="#fff"/><path d="M206.043 32.174a1.725 1.725 0 00-.574-1.222 1.725 1.725 0 00-1.276-.438c-4.36 0-6.95 10.14-7.4 11a1.49 1.49 0 01-1.26.67c-1.25 0-1.29-1.78-1.29-3.48 0-7.73 8.58-24.09 11.21-24.09.67 0 1.15 1.07 1.15 2.41 0 3.4-3.18 8.77-7.55 11.39a30.882 30.882 0 00-2.44 10.59c1.55-3.93 4.58-10.36 8.29-10.36a3.29 3.29 0 013.29 3.29c0 3.18-3.81 4.33-5.26 4.33.11.81.93 4.77 2.89 4.77 2.11 0 4-2.66 5.48-6l.37.37c-1.08 3.63-4 7.07-6.59 7.07-2.81 0-3.77-4.41-3.77-6.66 1.07-.06 4.73-1.1 4.73-3.64zm-6.36-5.29c3.4-2.74 5.66-7.1 5.66-9 0-.26 0-.33-.11-.33-.74.03-3.41 4.39-5.55 9.35v-.02zm-180.68-14.44c-.1.26-.18.527-.24.8l-.56 2.3c-.23 1-.5 2.19-.81 3.58-.31 1.39-.63 2.94-1 4.64-.37 1.7-.66 3.54-.91 5.47-.11 1-.22 2-.25 2.93-.026.48-.026.96 0 1.44v.33c.01.107.027.214.05.32 0 .26.09.53.14.8l.16.72c.07.25.12.5.19.75s.13.49.22.73l.11.36.13.36c.178.473.382.937.61 1.39.23.465.484.92.76 1.36.28.46.59.93.91 1.44.34.544.648 1.108.92 1.69.295.618.526 1.264.69 1.93.163.656.274 1.325.33 2v2.89c0 .31 0 .62-.08.92v.48l.01.1v.39c-.06.33-.12.64-.2.95-.15.61-.32 1.2-.5 1.78a52.22 52.22 0 01-2.69 6.38c-.49 1-1 1.95-1.5 2.89-.247.466-.497.926-.75 1.38l-.76 1.33-.75 1.29-.75 1.24c-.49.8-1 1.58-1.44 2.32-.44.74-.96 1.41-1.4 2.05-.44.64-.87 1.3-1.27 1.88l-1.14 1.64-1 1.38c-.61.82-1.09 1.46-1.43 1.9l-.52.66s.5-1.06 1.39-2.9l3.71-7.56 1.17-2.45 1.24-2.62.59-1.38c.21-.46.43-.93.64-1.4.43-.95.84-1.92 1.27-2.91.43-.99.81-2 1.2-3 .39-1 .75-2.06 1.05-3.1.15-.52.28-1 .39-1.55.06-.248.106-.498.14-.75v-.65c0 .06 0 0 0 0v-.11c0-.54.07-1.08.08-1.61v-.79c0-.13 0-.52-.05-.77-.047-.492-.127-.98-.24-1.46a7.99 7.99 0 00-.47-1.35c-.219-.467-.462-.92-.73-1.36-.28-.47-.59-1-.89-1.5-.3-.5-.6-1.08-.86-1.65a16.106 16.106 0 01-.53-1.76l-.14-.44-.17-.39c-.08-.29-.14-.58-.21-.88-.07-.3-.12-.58-.17-.87-.05-.29-.09-.59-.13-.89-.04-.3-.07-.54-.1-.81s0-.33 0-.49v-.47c-.003-.582.03-1.163.1-1.74.114-1.067.29-2.125.53-3.17.41-1.868.914-3.714 1.51-5.53.55-1.68 1.1-3.2 1.61-4.53s1-2.48 1.42-3.42c.42-.94.76-1.66 1-2.15a4.25 4.25 0 01.37-.78zM9.383.174a.72.72 0 01.06.15c0 .11.09.26.15.47a9 9 0 01.26 1.84 10.16 10.16 0 01-.32 2.93c-.08.27-.16.56-.25.85-.09.29-.23.59-.35.89l-.44.9c-.17.3-.36.6-.55.91a1.43 1.43 0 01-.15.22l-.16.22-.33.45c-.11.15-.21.29-.33.43l-.32.41c-.43.56-.88 1.13-1.27 1.72a9.8 9.8 0 00-1 1.81 6.424 6.424 0 00-.3.94c0 .16-.07.33-.1.49-.03.16 0 .33-.05.5-.05.17 0 .35 0 .53v1.1c0 .19 0 .38.06.57.06.19.06.39.08.59l.11.59.11.61c.05.2.09.4.13.61.37 1.63.85 3.31 1.31 5l.33 1.31c.11.44.21.88.31 1.32.1.44.2.87.29 1.31.09.44.18.89.26 1.32.08.43.16.89.24 1.32 0 .22.07.44.1.66l.09.66c.06.43.11.87.17 1.3l.12 1.3v4.97l-.07 1.16c0 .38-.08.76-.13 1.13l-.06.55v.53l-.18 1c-.11.67-.27 1.31-.42 1.92l-.11.45a3.27 3.27 0 01-.12.43c-.08.28-.16.55-.25.82-.17.53-.31 1-.5 1.47s-.32.85-.47 1.22l-.11.26-.11.25-.21.45c-.13.28-.25.51-.34.7l-.29.58.1-.64c0-.21.08-.46.13-.76l.09-.48v-.55c.09-.77.26-1.7.35-2.77 0-.26.05-.54.08-.82.01-.144.01-.287 0-.43v-.44c0-.6.09-1.22.08-1.87v-3.09c0-.36-.05-.73-.07-1.1 0-.74-.13-1.5-.19-2.27 0-.19-.06-.39-.08-.58l-.07-.59-.08-.59c0-.2-.06-.4-.09-.6-.24-1.6-.59-3.24-.95-4.91l-.19-1.19c-.1-.42-.2-.84-.31-1.26-.11-.42-.21-.85-.32-1.27-.11-.42-.21-.84-.33-1.27-.22-.87-.45-1.71-.66-2.6-.21-.89-.41-1.76-.58-2.66a22.46 22.46 0 01-.36-2.75 12.63 12.63 0 01.09-2.87c0-.24.09-.48.14-.72.05-.24.12-.48.2-.71.072-.232.158-.46.26-.68.1-.22.19-.44.31-.65a10.1 10.1 0 01.72-1.16c.241-.348.502-.682.78-1 .54-.62 1.07-1.17 1.61-1.68l.45-.38a4.07 4.07 0 00.36-.36l.34-.34.17-.16.13-.17a11.62 11.62 0 001.92-2.75c.394-.808.687-1.66.87-2.54a9.62 9.62 0 00.21-1.82v-.64z" fill="#fff"/></svg>