<svg width="111" height="44" fill="none" xmlns="http://www.w3.org/2000/svg"><path d="M20.602 32.927l.31-.069a.163.163 0 00.085-.052.132.132 0 00.031-.09v-2.732a.147.147 0 00-.031-.094.163.163 0 00-.084-.053l-.31-.063v-.116h3.325v.116l-.315.063a.115.115 0 00-.08.053.127.127 0 00-.036.095v2.731a.125.125 0 00.037.095c.02.025.047.042.079.047l.316.069v.115h-1.3v-.115l.32-.069a.131.131 0 00.085-.052.132.132 0 00.031-.09v-2.874h-1.579v2.874a.137.137 0 00.116.142l.31.069v.115h-1.31v-.115zm3.658.153a.38.38 0 01-.1 0h-.084l.08-.4h.373s.058 0 .095-.069c.04-.058.075-.12.105-.184.031-.08.068-.174.105-.28a4.074 4.074 0 00.153-.721c.01-.13.01-.263 0-.394a.522.522 0 000-.1.37.37 0 000-.063.094.094 0 00-.037-.026h-.047l-.285-.058v-.11h2.137v.11l-.263.058a.152.152 0 00-.11.142v1.758c0 .032.01.064.031.09.02.025.047.042.08.047l.262.063v.11h-1.174v-.11l.258-.063a.105.105 0 00.08-.048.126.126 0 00.03-.09v-1.884h-.7c0 .325-.028.649-.083.969-.047.243-.12.48-.221.705a1.21 1.21 0 01-.31.426.574.574 0 01-.375.122zm3.98-.18a1.054 1.054 0 01-.205.122 1.003 1.003 0 01-.206.057h-.19a.557.557 0 01-.252-.052.525.525 0 01-.195-.137.574.574 0 01-.131-.2.757.757 0 01-.042-.242.626.626 0 01.052-.269.732.732 0 01.347-.358c.076-.043.155-.078.238-.105.08-.024.164-.043.247-.058h.553v-.431a.96.96 0 000-.195.29.29 0 00-.064-.121.3.3 0 00-.11-.069.695.695 0 00-.158 0 .611.611 0 00-.237.043 1.587 1.587 0 00-.216.094l-.184.127-.147.11h-.058l-.121-.4.158-.084c.061-.027.125-.05.19-.068l.215-.053c.079-.006.158-.006.237 0 .103 0 .205.012.305.037a.973.973 0 01.29.131.709.709 0 01.284.61v1.285a.196.196 0 000 .063c.01.021.024.04.042.053l.063.032h.321v.115l-.09.064a.902.902 0 01-.12.068l-.137.053a.409.409 0 01-.132 0 .532.532 0 01-.163 0 .243.243 0 01-.121-.064.31.31 0 01-.074-.12.683.683 0 010-.195.83.83 0 01-.19.157zm.195-1.105a2.281 2.281 0 00-.4.032 1.128 1.128 0 00-.31.1.526.526 0 00-.196.179.463.463 0 00-.068.258c0 .073.012.146.037.215a.405.405 0 00.1.142c.04.035.086.06.137.074a.452.452 0 00.142 0h.147a.741.741 0 00.153-.047l.142-.08a.581.581 0 00.11-.115l.006-.758zm2.872.727v.173c-.11.113-.238.207-.379.28a1.278 1.278 0 01-.247.089.932.932 0 01-.274.036.937.937 0 01-.753-.352 1.231 1.231 0 01-.21-.374 1.395 1.395 0 01-.068-.447 1.48 1.48 0 01.036-.342c.02-.109.058-.214.11-.31.048-.1.108-.192.18-.275.073-.083.158-.154.252-.21a.99.99 0 01.311-.142c.125-.034.255-.052.384-.053a.98.98 0 01.242 0 .58.58 0 01.169.053.528.528 0 01.12.058l.09.052-.079.384h-.052l-.18-.12a1.255 1.255 0 00-.373-.19.745.745 0 00-.22-.032h-.096a.257.257 0 00-.09.032l-.083.053-.064.063a.526.526 0 00-.079.11 1.773 1.773 0 00-.073.169c0 .068-.037.142-.053.22a1.411 1.411 0 000 .264c-.003.15.015.301.053.447.03.12.084.233.158.332.069.09.16.16.263.205a.88.88 0 00.363.074c.068 0 .136-.01.2-.032.062-.019.122-.043.18-.073l.146-.095.111-.09.005.043zm.669.41l.263-.063a.153.153 0 00.08-.047.142.142 0 00.03-.09v-1.874h-.452a.23.23 0 00-.131.032.19.19 0 00-.064.084l-.147.421h-.126v-.732h2.216v.722h-.122l-.147-.422a.19.19 0 00-.063-.084.232.232 0 00-.132-.031h-.436v1.895a.137.137 0 00.11.136l.263.064v.11H31.96l.016-.121zm1.911 0l.263-.063a.153.153 0 00.079-.047.141.141 0 00.031-.09v-1.758a.126.126 0 00-.031-.09.164.164 0 00-.08-.052l-.262-.058v-.11h1.126v.11l-.237.058a.201.201 0 00-.079.047.147.147 0 00-.031.095v1.58l1.168-1.696v-.184h.8v.11l-.263.059a.163.163 0 00-.079.052.126.126 0 00-.032.09v1.758c0 .032.012.064.032.089.02.024.048.04.079.047l.263.064v.11h-1.153v-.11l.237-.064a.137.137 0 00.11-.136v-1.58l-1.173 1.695v.18h-.768v-.106zm4.326 0l.264-.063a.137.137 0 00.11-.137v-.821l-.174.095-.184.063a1.233 1.233 0 01-.179.042h-.163a.821.821 0 01-.574-.174.641.641 0 01-.184-.484v-.526a.127.127 0 00-.032-.09.142.142 0 00-.078-.052l-.264-.058v-.11h1.132v.11l-.237.058a.142.142 0 00-.079.047.148.148 0 00-.031.095v.363a.697.697 0 000 .216.384.384 0 00.226.279.585.585 0 00.226.042h.416l.153-.042v-.81a.147.147 0 00-.032-.096.201.201 0 00-.079-.047l-.237-.058v-.11h1.158v.11l-.263.058a.164.164 0 00-.079.053.127.127 0 00-.031.09v1.757c0 .033.01.064.031.09.021.023.048.04.08.047l.262.063v.11h-1.158v-.11zm3.411-.405v.179a1.565 1.565 0 01-.169.142 1.545 1.545 0 01-.473.221 1.236 1.236 0 01-.284.031 1.176 1.176 0 01-.437-.078.89.89 0 01-.337-.237 1.098 1.098 0 01-.226-.39 1.676 1.676 0 01-.074-.526 1.465 1.465 0 01.074-.48 1.125 1.125 0 01.563-.684c.144-.069.303-.103.463-.1a.92.92 0 01.39.08.952.952 0 01.284.21.815.815 0 01.173.3c.04.108.06.222.058.337v.1a.13.13 0 000 .042v.042H40.05c-.016.29.053.577.2.827a.689.689 0 00.605.29 1.026 1.026 0 00.458-.106l.164-.095.12-.095.027-.01zm-.432-.98c.011-.099.011-.2 0-.3a.751.751 0 00-.084-.252.4.4 0 00-.384-.242.474.474 0 00-.242.058.58.58 0 00-.184.158.946.946 0 00-.132.252 1.42 1.42 0 00-.074.327h1.1zm2.632.975v.173c-.11.113-.238.207-.379.28a1.158 1.158 0 01-.247.089.932.932 0 01-.274.037.937.937 0 01-.753-.353 1.232 1.232 0 01-.21-.374 1.395 1.395 0 01-.063-.463 1.48 1.48 0 01.037-.342c.02-.109.057-.213.11-.31a1.36 1.36 0 01.18-.274c.153-.167.35-.29.567-.353.124-.034.251-.052.38-.053.08-.009.161-.009.242 0a.68.68 0 01.173.053l.116.058.09.053-.074.384h-.058l-.184-.08a1.264 1.264 0 00-.374-.189.745.745 0 00-.221-.031h-.095a.257.257 0 00-.09.031l-.084.053-.063.063a.53.53 0 00-.079.11c-.027.055-.05.111-.068.17a1.36 1.36 0 00-.058.22 1.41 1.41 0 000 .263 1.65 1.65 0 00.053.448c.032.119.086.231.158.331.069.09.16.16.263.206a.88.88 0 00.363.073.615.615 0 00.2-.031c.062-.02.122-.044.179-.074l.147-.095.11-.09.006.017zm2.031.542a.254.254 0 01-.168-.111.732.732 0 01-.074-.116l-.463-.842-.395-.084v.821a.137.137 0 00.11.137l.237.063v.11h-1.1v-.11l.264-.063a.153.153 0 00.079-.047.142.142 0 00.031-.09v-1.758a.127.127 0 00-.031-.09.164.164 0 00-.08-.052l-.263-.058v-.11h1.127v.11l-.237.058a.2.2 0 00-.079.047.147.147 0 00-.032.095v.795h.216a.566.566 0 00.169 0 .326.326 0 00.137-.09.776.776 0 00.11-.184 2.31 2.31 0 00.09-.226c0-.08.057-.153.084-.227a.6.6 0 01.094-.173l.1-.11.1-.07.111-.036h.384l-.073.384h-.322a.147.147 0 00-.1.037.452.452 0 00-.078.09c-.025.04-.048.082-.069.126a1.046 1.046 0 01-.079.152c0 .053-.058.106-.09.158a.984.984 0 01-.12.137l.62 1.053c.02.03.045.054.074.074a.232.232 0 00.09.036l.263.069v.11l-.479.027a.531.531 0 01-.158-.042zm.779-.132l.263-.063a.153.153 0 00.08-.047.142.142 0 00.031-.09v-1.758a.126.126 0 00-.032-.09.163.163 0 00-.079-.052l-.263-.058v-.11h1.127v.11l-.232.058a.186.186 0 00-.084.047.143.143 0 000 .095v1.58l1.12-1.696v-.184h.77v.11l-.264.059a.163.163 0 00-.079.052.126.126 0 00-.031.09v1.758c0 .032.01.064.031.089a.15.15 0 00.08.047l.262.064v.11h-1.12v-.11l.236-.064a.137.137 0 00.11-.136v-1.58l-1.173 1.695v.18h-.753v-.106zm2.937 0l.263-.063a.152.152 0 00.08-.047.142.142 0 00.03-.09v-1.758a.126.126 0 00-.03-.09.163.163 0 00-.08-.052l-.263-.058v-.11h1.127v.11l-.237.058a.2.2 0 00-.08.047.147.147 0 00-.03.095v1.58l1.173-1.696v-.184h.768v.11l-.263.059a.163.163 0 00-.079.052.126.126 0 00-.031.09v1.758c0 .032.01.064.031.09.021.023.049.04.08.046l.262.064v.11h-1.126v-.11l.237-.064a.136.136 0 00.11-.136v-1.58l-1.173 1.695v.18h-.774l.005-.106zm1.39-2.81a1.107 1.107 0 01-.348-.048.733.733 0 01-.231-.116.527.527 0 01-.132-.152.336.336 0 01-.037-.148V29.5h.384v.343c.014.022.035.04.058.052.03.02.061.034.095.042.035.006.07.006.105 0h.206c.035.006.07.006.105 0a.278.278 0 00.09-.042.21.21 0 00.063-.052V29.5h.384v.158a.337.337 0 01-.037.148.427.427 0 01-.126.152.796.796 0 01-.232.116c-.112.034-.23.05-.347.047zm2.7 2.81l.19-.063a.441.441 0 00.12-.063.363.363 0 00.08-.069l.663-.826-.658-.953a.327.327 0 00-.053-.1.302.302 0 00-.115-.058l-.18-.047v-.11h1.106v.11l-.321.074.384.59.132.204.542-.763-.31-.084v-.11h.868v.11l-.195.058a.606.606 0 00-.195.132l-.632.805.685.979a.32.32 0 00.068.079.335.335 0 00.116.052l.179.053v.11H55.03v-.11l.326-.079-.41-.616-.132-.205-.595.81.31.09v.11h-.863l-.005-.11zm2.58 0l.258-.063a.147.147 0 00.084-.047.179.179 0 000-.09v-1.758a.152.152 0 000-.09.152.152 0 00-.084-.052l-.258-.058v-.11h1.127v.11l-.237.058a.2.2 0 00-.08.047.147.147 0 00-.03.095v1.58l1.194-1.696v-.184h.774v.11l-.264.059a.153.153 0 00-.084.052.152.152 0 00-.026.09v1.758c0 .031.01.062.026.089a.148.148 0 00.084.047l.264.064v.11h-1.132v-.11l.237-.064a.137.137 0 00.11-.136v-1.58l-1.178 1.695v.18h-.769l-.016-.106zm2.904 1.158l.274-.063a.2.2 0 00.079-.047.147.147 0 00.031-.095V31.11a.19.19 0 00-.031-.11.321.321 0 00-.121-.074l-.227-.08v-.062l.774-.174v.395l.053-.069a.935.935 0 01.194-.19 1.008 1.008 0 01.385-.146h.147a.821.821 0 01.69.326c.08.11.142.236.178.368.044.149.065.303.064.458 0 .178-.024.355-.074.526a1.362 1.362 0 01-.221.427 1.053 1.053 0 01-.827.39.66.66 0 01-.184 0 .736.736 0 01-.39-.216v1.052c0 .035.011.068.032.095.02.025.048.042.08.047l.341.064v.11h-1.247v-.158zm1.321-1.205a.636.636 0 00.326-.08.683.683 0 00.232-.21.947.947 0 00.137-.305c.027-.12.041-.244.042-.368 0-.14-.014-.28-.042-.416a.922.922 0 00-.132-.337.605.605 0 00-.226-.221.643.643 0 00-.332-.08h-.126a.732.732 0 00-.284.122.578.578 0 00-.121.132V32.7a.69.69 0 00.258.11l.147.032c.039.018.08.032.121.042zm1.432.831h.069c.03.02.061.036.095.048l.115.042.121.031h.18l.084-.047a.629.629 0 00.21-.258c.036-.066.067-.135.095-.205.031-.08.063-.169.105-.269l-.168-.342-.742-1.779a.142.142 0 00-.058-.073l-.106-.048-.168-.047v-.11h1.095v.11l-.4.09.563 1.373.121.305.61-1.679-.347-.09v-.11h.863v.11l-.173.064-.106.047a.105.105 0 00-.058.074l-.91 2.537c-.041.13-.1.254-.174.368a.987.987 0 01-.19.216.579.579 0 01-.21.095.973.973 0 01-.216 0h-.236l-.09-.037-.074-.031.1-.385z" fill="#0C647B"/><path d="M64.225 34.09l.269-.063a.184.184 0 00.084-.047.183.183 0 000-.095V31.11c0-.04-.01-.078-.032-.11a.257.257 0 00-.116-.074l-.226-.08v-.062l.774-.174v.395l.052-.069a.938.938 0 01.195-.19.89.89 0 01.2-.1.863.863 0 01.184-.046h.142a.804.804 0 01.69.326c.083.11.145.235.184.368.043.149.065.303.063.458.002.179-.025.356-.079.526a1.25 1.25 0 01-.215.427 1.058 1.058 0 01-.353.284.984.984 0 01-.474.105.724.724 0 01-.19 0 .527.527 0 01-.157-.052l-.126-.074a.529.529 0 01-.1-.09v1.053a.147.147 0 00.031.095c.02.025.048.042.079.047l.337.063v.111h-1.242l.026-.158zm1.316-1.205a.674.674 0 00.332-.08.684.684 0 00.231-.21.945.945 0 00.132-.305 1.44 1.44 0 00.047-.368c0-.14-.014-.28-.042-.416a1.151 1.151 0 00-.132-.337.647.647 0 00-.226-.221.673.673 0 00-.332-.08h-.126a.718.718 0 00-.284.122.484.484 0 00-.121.132V32.7a.689.689 0 00.258.11.735.735 0 00.147.033.525.525 0 00.116.042zm1.421.047l.263-.063a.12.12 0 00.079-.047.141.141 0 00.032-.09v-1.758a.152.152 0 00-.11-.142l-.264-.058v-.11h1.995v.72h-.121l-.174-.447a.19.19 0 00-.063-.084.231.231 0 00-.132-.032h-.716v1.895a.126.126 0 00.032.09.111.111 0 00.079.047l.284.063v.11h-1.184v-.094zm3.222-.005l.21-.063a.179.179 0 00.085-.053.235.235 0 00.058-.09l.979-2.552.294-.563h.09l1.205 3.116a.238.238 0 00.058.089.196.196 0 00.09.053l.21.063v.116h-1.195v-.116l.432-.084-.41-1.053H71.1l-.38 1.053.417.09v.115h-.953v-.121zm2.032-1.332l-.405-1.052-.122-.337-.526 1.368 1.053.021z" fill="#0C647B"/><path d="M73.447 32.932l.263-.063a.121.121 0 00.079-.047.142.142 0 00.031-.09v-1.758a.152.152 0 00-.11-.142l-.263-.058v-.11h1.131v.11l-.237.058a.169.169 0 00-.078.047.148.148 0 00-.032.095v.747h1.132v-.747a.147.147 0 00-.032-.095.202.202 0 00-.079-.047l-.237-.058v-.11h1.127v.11l-.264.058a.164.164 0 00-.079.053.126.126 0 00-.031.09v1.757c0 .033.011.064.031.09.021.023.049.04.08.047l.263.063v.11h-1.127v-.11l.237-.063a.137.137 0 00.11-.137v-.853h-1.131v.853a.126.126 0 00.032.09.111.111 0 00.078.047l.237.063v.11h-1.131v-.11zm2.869-.068h.247c.05-.047.094-.1.132-.158.052-.079.098-.162.137-.248.042-.094.084-.2.126-.31a3.44 3.44 0 00.179-.732 2.3 2.3 0 00.026-.379.522.522 0 000-.1.173.173 0 00-.026-.063.096.096 0 00-.037-.026h-.042l-.263-.058v-.11h2.163v.11l-.263.058a.163.163 0 00-.079.052.126.126 0 00-.032.09v1.89h.4v.947h-.157l-.221-.68a.111.111 0 00-.048-.073.111.111 0 00-.068 0h-1.674a.116.116 0 00-.074 0 .173.173 0 00-.047.074l-.221.679h-.153l-.005-.963zm1.853 0v-2.006h-.78c0 .235-.017.469-.052.7a4.53 4.53 0 01-.121.574 2.4 2.4 0 01-.184.448 1.453 1.453 0 01-.21.31l1.347-.026zm.972 1.226l.269-.063a.184.184 0 00.084-.047.185.185 0 000-.095V31.11a.19.19 0 00-.031-.11.257.257 0 00-.116-.074l-.226-.08v-.062l.773-.174v.395l.053-.069a.938.938 0 01.195-.19.89.89 0 01.2-.1.907.907 0 01.178-.046h.148a.805.805 0 01.69.326c.082.11.145.235.184.368.043.149.064.303.063.458.001.179-.025.356-.08.526-.043.155-.116.3-.215.427a1.058 1.058 0 01-.353.284.984.984 0 01-.473.105.724.724 0 01-.19 0 .527.527 0 01-.158-.052l-.126-.074a.529.529 0 01-.1-.09v1.053c0 .035.01.068.032.095a.123.123 0 00.079.047l.336.063v.111h-1.242l.026-.158zm1.316-1.205a.674.674 0 00.332-.08.684.684 0 00.232-.21.945.945 0 00.131-.305 1.44 1.44 0 00.047-.368c0-.14-.013-.28-.042-.416a1.154 1.154 0 00-.131-.337.647.647 0 00-.227-.221.673.673 0 00-.331-.08l-.148-.01a.72.72 0 00-.284.121.485.485 0 00-.12.132v1.579a.692.692 0 00.258.11.728.728 0 00.147.032.526.526 0 00.136.053zm3.443-.358v.179l-.174.142a1.456 1.456 0 01-.474.22 1.224 1.224 0 01-.279.032 1.178 1.178 0 01-.442-.078.89.89 0 01-.337-.237 1.174 1.174 0 01-.22-.39 1.67 1.67 0 01-.006-1.005 1.126 1.126 0 01.563-.684c.145-.068.303-.103.463-.1a.905.905 0 01.39.079.89.89 0 01.284.21.815.815 0 01.174.3c.04.108.059.222.058.337v.142a.13.13 0 000 .042h-1.58c-.016.29.054.577.2.827a.689.689 0 00.606.29c.085 0 .17-.011.252-.032.07-.02.14-.044.206-.074l.163-.095c.042-.03.082-.06.12-.095l.032-.01zm-.422-.98a1.67 1.67 0 000-.3.893.893 0 00-.09-.252.463.463 0 00-.152-.179.395.395 0 00-.226-.063.459.459 0 00-.242.058.526.526 0 00-.19.158.946.946 0 00-.131.252c-.035.107-.06.216-.074.327h1.105zm.675 1.385l.263-.063a.152.152 0 00.079-.047.141.141 0 00.031-.09v-1.758a.126.126 0 00-.031-.09.163.163 0 00-.08-.052l-.262-.058v-.11h1.126v.11l-.221.084a.2.2 0 00-.079.048.147.147 0 00-.032.094v1.58l1.164-1.722v-.184h.773v.11l-.247.074a.143.143 0 00-.079.053.126.126 0 00-.032.09v1.757a.137.137 0 00.111.137l.263.063v.11h-1.158v-.11l.237-.063a.111.111 0 00.079-.047.127.127 0 00.031-.09V31.18l-1.173 1.695v.18h-.774l.01-.122zm1.384-2.81a1.131 1.131 0 01-.348-.048.7.7 0 01-.226-.116.396.396 0 01-.131-.152.35.35 0 01-.042-.148V29.5h.384v.343a.21.21 0 00.063.052c.027.02.057.034.09.042a.37.37 0 00.105 0h.21a.37.37 0 00.105 0 .278.278 0 00.09-.042.21.21 0 00.063-.052V29.5h.384v.158a.427.427 0 01-.169.3.7.7 0 01-.226.116c-.114.034-.233.05-.352.047zm2.826 2.805l.31-.069a.142.142 0 00.085-.052.132.132 0 00.032-.09v-2.732a.147.147 0 00-.116-.147l-.31-.063v-.116h3.326v.116l-.31.063a.11.11 0 00-.085.053.147.147 0 00-.032.095v2.731c0 .035.01.068.032.095.02.026.05.043.084.047l.31.069v.115h-1.3v-.115l.317-.069a.132.132 0 00.078-.052.115.115 0 00.037-.09v-2.874h-1.579v2.874c0 .035.01.068.032.095a.147.147 0 00.09.047l.305.069v.115h-1.295l-.01-.115zm4.805-.027a1.057 1.057 0 01-.205.122 1.1 1.1 0 01-.205.058h-.19a.558.558 0 01-.252-.053.589.589 0 01-.327-.337.642.642 0 01-.047-.242c0-.092.018-.183.053-.269a.823.823 0 01.142-.21.924.924 0 01.205-.148 1.413 1.413 0 01.484-.163h.537v-.431a.96.96 0 000-.195.278.278 0 00-.174-.19.755.755 0 00-.163 0 .584.584 0 00-.231.043 1.337 1.337 0 00-.216.094l-.19.127-.147.11h-.053l-.073-.384.157-.084c.062-.027.125-.05.19-.069l.21-.052c.081-.006.162-.006.243 0 .103 0 .205.012.305.037a.878.878 0 01.284.131.679.679 0 01.284.61v1.285a.117.117 0 000 .063.22.22 0 00.037.053l.063.031h.327v.116l-.095.063a.61.61 0 01-.116.069l-.137.052a.41.41 0 01-.131 0 .529.529 0 01-.169 0 .226.226 0 01-.115-.063.31.31 0 01-.074-.12.69.69 0 010-.196.827.827 0 01-.21.142zm.195-1.105a2.393 2.393 0 00-.405.032 1.093 1.093 0 00-.306.1.527.527 0 00-.194.179.463.463 0 00-.069.258.527.527 0 00.037.215.405.405 0 00.1.142c.038.035.083.06.132.074a.527.527 0 00.147 0h.147a.713.713 0 00.29-.126.482.482 0 00.116-.116l.005-.758zm2.874.727v.173a1.584 1.584 0 01-.169.148 2.064 2.064 0 01-.21.131 1.25 1.25 0 01-.248.09.964.964 0 01-.279.036.942.942 0 01-.426-.094.972.972 0 01-.326-.258 1.121 1.121 0 01-.205-.374 1.4 1.4 0 01-.074-.447 1.445 1.445 0 01.147-.653c.05-.098.112-.19.184-.274a1.05 1.05 0 01.248-.21c.096-.065.203-.113.316-.142.125-.035.254-.053.384-.053a.98.98 0 01.242 0 .7.7 0 01.168.053.644.644 0 01.121.058l.09.052-.08.384h-.057l-.174-.12a1.25 1.25 0 00-.373-.19.757.757 0 00-.227-.032.269.269 0 00-.09 0 .338.338 0 00-.094.032l-.079.053-.068.063a1.007 1.007 0 00-.147.279 1.365 1.365 0 00-.053.22 1.392 1.392 0 00-.027.264c0 .15.018.3.053.447a.98.98 0 00.163.332c.07.09.16.16.263.205.115.05.239.076.364.074.067 0 .135-.01.2-.032a.854.854 0 00.173-.073l.153-.095.105-.09.032.043zm2.168.005v.179l-.174.142c-.067.05-.14.092-.216.126-.083.039-.17.07-.258.095a1.224 1.224 0 01-.279.031 1.178 1.178 0 01-.442-.078.89.89 0 01-.337-.237 1.173 1.173 0 01-.22-.39 1.67 1.67 0 01-.006-1.005c.047-.147.12-.284.216-.405.096-.116.214-.21.347-.28.145-.067.304-.102.464-.1a.906.906 0 01.39.08c.108.049.205.12.283.21a.817.817 0 01.174.3.953.953 0 01.063.384v.095a.135.135 0 000 .042h-1.579c-.017.29.053.577.2.827a.689.689 0 00.605.29.98.98 0 00.253-.032 1.62 1.62 0 00.21-.074 1.386 1.386 0 00.28-.19l.026-.01zm-.432-.98c.008-.099.008-.2 0-.3a1.097 1.097 0 00-.084-.252.527.527 0 00-.158-.179.395.395 0 00-.226-.063.459.459 0 00-.242.058.527.527 0 00-.19.158.95.95 0 00-.131.252c-.035.107-.06.216-.074.327h1.105zm2.059 1.385l.263-.063a.136.136 0 00.11-.137v-.821a1.366 1.366 0 01-.173.095l-.185.063a1.216 1.216 0 01-.178.042h-.164a.821.821 0 01-.573-.174.643.643 0 01-.185-.484v-.526a.127.127 0 00-.031-.09.142.142 0 00-.08-.052l-.262-.058v-.11h1.131v.11l-.236.058a.142.142 0 00-.08.047.147.147 0 00-.031.095v.363a.696.696 0 00.026.216.384.384 0 00.227.279.581.581 0 00.226.042h.416l.152-.042v-.81a.147.147 0 00-.031-.096.199.199 0 00-.053-.02l-.237-.059v-.11h1.127v.11l-.263.058a.16.16 0 00-.079.053.124.124 0 00-.032.09v1.757a.14.14 0 00.111.137l.263.063v.11h-1.153l-.026-.136zm1.389 0l.263-.063a.152.152 0 00.079-.047.145.145 0 00.032-.09v-1.758a.128.128 0 00-.032-.09.166.166 0 00-.079-.052l-.263-.058v-.11h1.126v.11l-.231.058a.19.19 0 00-.085.047.19.19 0 000 .095v.747h1.132v-.747a.143.143 0 00-.032-.095.2.2 0 00-.078-.047l-.237-.058v-.11h1.126v.11l-.263.058a.161.161 0 00-.079.053.128.128 0 00-.032.09v1.757a.14.14 0 00.032.09c.021.023.048.04.079.047l.263.063v.11h-1.126v-.11l.237-.063a.135.135 0 00.11-.137v-.853h-1.132v.853a.17.17 0 000 .09.127.127 0 00.085.047l.231.063v.11h-1.126v-.11zm2.933 0l.263-.063a.152.152 0 00.079-.047.145.145 0 00.032-.09v-1.758a.128.128 0 00-.032-.09.166.166 0 00-.079-.052l-.263-.058v-.11h1.126v.11l-.237.058a.211.211 0 00-.079.047.147.147 0 00-.031.095v1.58l1.168-1.696v-.184h.774v.11l-.263.059a.16.16 0 00-.079.052.128.128 0 00-.032.09v1.758a.14.14 0 00.032.089c.021.024.048.04.079.047l.263.064v.11h-1.126v-.11l.237-.064a.136.136 0 00.11-.137v-1.579l-1.174 1.695v.18h-.773l.005-.106zm4.836.132a.251.251 0 01-.168-.11.753.753 0 01-.074-.117l-.468-.842-.39-.084v.821a.135.135 0 00.111.137l.236.063v.11h-1.126v-.11l.263-.063a.152.152 0 00.079-.047.14.14 0 00.032-.09v-1.758a.128.128 0 00-.032-.09.161.161 0 00-.079-.052l-.263-.058v-.11h1.126v.11l-.221.084a.21.21 0 00-.079.048.147.147 0 00-.031.094v.795h.216a.557.557 0 00.168 0 .328.328 0 00.137-.09.776.776 0 00.11-.184 3.32 3.32 0 00.09-.226c.026-.074.053-.153.084-.226a.607.607 0 01.095-.174l.1-.11.1-.069.11-.037h.385l-.074.385h-.358a.148.148 0 00-.1.036.451.451 0 00-.079.09 1.24 1.24 0 00-.068.126c0 .053-.048.1-.079.153-.032.052-.058.105-.09.158a1.451 1.451 0 01-.121.137l.621 1.052a.2.2 0 00.074.074.23.23 0 00.089.037l.258.068v.11l-.473.027a.518.518 0 01-.111-.068zM26.634 15.395c-2.105 0-3.953 3.642-3.953 5.142 0 .584.274.931.706.931 1.052 0 2.958-2.105 4.21-5.352C29.04 12.358 30.792 7.8 31.861 7.8a.416.416 0 01.39.447c0 1.226-4.48 8.353-4.48 12.21 0 .743 0 1.09.447 1.09.8 0 2.185-1.11 3-2.879l.232.174c-.763 2.016-2.458 3.484-3.763 3.484-.974 0-1.29-.779-1.29-1.457a9.45 9.45 0 01.374-2.106c-1.268 2.105-2.79 3.621-3.974 3.621a1.49 1.49 0 01-1.463-1.637c0-2.158 2.826-5.958 5.263-5.958.527 0 .853.195.853.606a1.18 1.18 0 01-.037.268.87.87 0 00-.779-.268z" fill="#0C647B"/><path d="M30.88 19.347a28.12 28.12 0 001.58-3.684.631.631 0 01-.195-.469 1.384 1.384 0 01.816-1.32c.274 0 .274.331.274.463 0 .131-.216.647-.216.72 0 .722 1.99 1.053 1.99 2.711 0 1.185-.974 2.474-.974 3.29a.526.526 0 00.584.584c1.226 0 2.821-1.774 3.31-2.9l.253.195c-.742 1.652-2.416 3.405-4.074 3.405a1.264 1.264 0 01-1.42-1.263c0-1.153 1.052-2.632 1.052-3.642 0-.837-.605-1.132-1.09-1.48a31.43 31.43 0 01-1.737 3.738l-.152-.348zm7.17 2.143c0-.427.622-.8 1.127-.8.31 0 .526.12.526.468a1.053 1.053 0 01-1.01.858c-.353 0-.642-.158-.642-.526zm6.58-5.432c-.779 2.668-1.5 5.395-2.105 7.458-.663 0-1.347-.41-1.347-.974.043-.361.135-.716.273-1.053 1.637-5.079 2.785-8.605 4.79-13.158-1.5.29-2.49 1.053-2.705 1.053-.216 0-.606-.332-.606-.527a11.58 11.58 0 014.306-1.052c2.3 0 5.005 1.263 5.005 3.758 0 4.068-6.152 4.5-7.421 4.5l-.19-.005zm2.785-7.832a48.572 48.572 0 00-2.706 7.537c2.864-.158 6.232-1.542 6.232-4.521 0-2.121-1.674-3.016-3.526-3.016zm9.405 9.953c0 .447-1.127 1.774-1.127 2.705 0 .39.195.858.663.858.7 0 1.947-1.01 3.116-3.074l.195.195c-.822 2.105-2.474 3.542-3.858 3.542a1.315 1.315 0 01-1.4-1.363c0-.189.02-.378.057-.563-1.131 1.5-1.99 2.258-2.942 2.258-.816 0-1.442-.526-1.442-1.616 0-2.316 2.863-5.98 5.395-5.98 1.01 0 1.774.585 1.774 1.459 0 .647-.39.842-.958.842a2.56 2.56 0 00.1-.684c0-.584-.253-1.09-.953-1.09-1.831 0-4.016 3.621-4.016 5.511 0 .526.18.758.526.758 1.211 0 3.158-2.842 4.09-4.242.237.037.78.194.78.484z" fill="#0C647B"/><path d="M59.956 18.51a11.389 11.389 0 001.943-2.826v-.231c0-.953.39-1.327.763-1.327.21 0 .31.121.31.258-.061.28-.1.566-.116.853 0 1.29 1.011 2.905 1.011 4.695a3.58 3.58 0 01-.116.952c.895-.152 1.695-.737 2.453-2.2l.174.195A3.327 3.327 0 0163.65 21.2a2.48 2.48 0 01-2.49 1.616c-1.83 0-2.436-1.384-2.436-2.553-.016-1.51 1.016-1.51 1.231-1.753zm2.469 2.67a3.826 3.826 0 01-2.395-1.617c-.31 0-.426.274-.426.68 0 .936.584 1.889 1.579 1.889a1.237 1.237 0 001.242-.953zm-.426-4.738c-.536.91-1.17 1.76-1.89 2.532a3.478 3.478 0 002.4 1.884 5.76 5.76 0 00.08-.916c0-1.19-.411-2.442-.606-3.516l.016.016z" fill="#0C647B"/><path d="M66.888 19.774a3.313 3.313 0 00-.079.705c0 .795.332 1.637 1.543 1.637 1.652 0 3.39-1.58 4.363-3.448l.232.174c-1.053 2.337-3.08 3.837-5.006 3.837-1.579 0-2.374-.995-2.374-2.258 0-2.321 2.632-5.61 4.943-5.61A1.053 1.053 0 0171.72 16c0 1.984-2.61 3.563-4.832 3.774zm.1-.369c1.38-.484 3.874-1.868 3.874-3.542 0-.295-.079-.447-.41-.447-1.242 0-2.937 2.142-3.463 3.99z" fill="#0C647B"/><path d="M77.894 16.679c0 .763-.374 1.421-.974 1.421a.727.727 0 01-.569-.29 1.942 1.942 0 00.722-1.542c0-.31-.095-.484-.427-.484-1.384 0-3.195 2.863-3.195 4.774 0 .795.31 1.616 1.422 1.616 1.542 0 3.294-1.363 4.131-3.527l.253.195c-.895 2.358-2.942 4.069-4.832 4.069-1.247 0-2.179-.816-2.179-2.49 0-2.632 2.28-5.184 4.263-5.184a1.295 1.295 0 011.385 1.442z" fill="#0C647B"/><path d="M84.067 18.121c0-.679-.331-.937-.742-.937-1.926 0-2.632 5.38-3.758 5.38-.49 0-.8-.995-.8-2.027 0-3.721 4.132-12.632 5.827-12.632.463 0 .642.7.642 1.226 0 1.81-2.184 6.037-4.48 7.422a11.052 11.052 0 00-.72 3.837c-.002.221.01.443.036.663.916-2.669 2.221-5.048 3.953-5.048 1.053 0 1.48.9 1.48 1.753 0 1.21-.838 2.321-.838 3.274 0 .526.253.742.584.742.88 0 2.264-1.421 3.043-3.116l.252.232c-.82 1.91-2.242 3.39-3.742 3.39a1.191 1.191 0 01-1.326-1.217c0-.82.59-2.005.59-2.942zm-3.058-2.316c1.79-1.442 3.564-5.163 3.564-6.158 0-.116 0-.153-.08-.153-.389 0-2.51 3.137-3.484 6.311z" fill="#0C647B"/><path d="M88.584 16.895c.236-.245.556-.391.895-.411a.47.47 0 01.526.526 12.371 12.371 0 01-.62 2.574c1.052-1.579 2.568-3.426 4.047-3.426 1.015 0 1.442.873 1.442 1.752 0 1.206-.8 2.106-.8 3.074 0 .527.252.742.584.742.974 0 2.01-1.579 2.726-3.037l.216.253c-.816 1.905-1.91 3.29-3.368 3.29a1.2 1.2 0 01-1.364-1.248c0-.795.564-1.79.564-2.705 0-.721-.332-.953-.78-.953-1.615 0-3.405 3.095-4.42 4.81a1.268 1.268 0 01-1.053-.43c.02-.253 1.384-3.117 1.405-4.811z" fill="#0C647B"/><path d="M100.168 15.647c0 .642-2.02 3-2.02 4.832 0 .932.31 1.168.952 1.168.874 0 1.889-.763 3-2.979l.174.195c-.758 2.237-2.316 3.463-3.837 3.463-1.011 0-1.5-.72-1.5-1.637 0-1.479 1.478-5.468 2.805-5.468a.405.405 0 01.426.426zm-.195-2.884c0-.527.801-1.01 1.427-1.01.389 0 .642.157.642.605a1.31 1.31 0 01-1.268 1.052c-.427 0-.8-.194-.8-.647z" fill="#0C647B"/><path d="M108.036 17.174a.896.896 0 00-.301-.643.909.909 0 00-.672-.231c-2.295 0-3.658 5.337-3.895 5.79a.782.782 0 01-.663.352c-.658 0-.679-.936-.679-1.831 0-4.069 4.516-12.68 5.9-12.68.353 0 .605.563.605 1.269 0 1.79-1.674 4.616-3.974 5.995a16.277 16.277 0 00-1.284 5.574c.816-2.069 2.411-5.453 4.363-5.453a1.732 1.732 0 011.732 1.731c0 1.674-2.005 2.28-2.768 2.28.057.426.489 2.51 1.521 2.51 1.11 0 2.105-1.4 2.884-3.158l.195.195c-.569 1.91-2.106 3.721-3.469 3.721-1.479 0-1.984-2.321-1.984-3.505.563-.032 2.489-.58 2.489-1.916zm-3.347-2.785c1.789-1.442 2.979-3.737 2.979-4.737 0-.136 0-.173-.058-.173-.389.015-1.795 2.31-2.921 4.92v-.01zm-95.097-7.6a3.005 3.005 0 00-.127.421l-.294 1.21c-.121.527-.264 1.153-.427 1.885-.163.732-.331 1.547-.526 2.442a34.54 34.54 0 00-.479 2.88 20.564 20.564 0 00-.132 1.541 7.198 7.198 0 000 .758v.174c.006.056.015.113.027.168 0 .137.047.28.073.421l.085.38c.036.13.063.262.1.394.036.132.068.258.115.384l.058.19.069.19a8.127 8.127 0 00.721 1.447c.147.242.31.49.479.758.18.286.34.583.484.89.155.325.277.665.363 1.015.086.346.144.698.174 1.053v1.521c0 .163 0 .326-.042.484v.253l.005.052v.206a6.987 6.987 0 01-.105.5 16.18 16.18 0 01-.263.936A27.486 27.486 0 018.534 32.7c-.258.527-.527 1.027-.79 1.522-.13.245-.261.487-.395.726l-.4.7-.394.679-.395.653c-.258.42-.526.831-.758 1.22-.232.39-.505.743-.737 1.08-.231.337-.458.684-.668.99l-.6.862-.527.727c-.32.431-.573.768-.752 1l-.274.347s.263-.558.732-1.526l1.952-3.98.616-1.289.653-1.379.31-.726c.11-.242.227-.49.337-.737.226-.5.442-1.01.669-1.532.226-.52.426-1.052.631-1.579a19.18 19.18 0 00.553-1.631 9.72 9.72 0 00.205-.816c.031-.13.056-.262.074-.395v-.342c0 .031 0 0 0 0v-.058c0-.284.037-.568.042-.847v-.416c0-.069 0-.274-.026-.405a5.712 5.712 0 00-.127-.769 4.21 4.21 0 00-.247-.71 7.425 7.425 0 00-.384-.716c-.148-.248-.31-.527-.469-.79a8.953 8.953 0 01-.452-.868 8.461 8.461 0 01-.28-.927l-.073-.231-.09-.205c-.042-.153-.073-.306-.11-.464a7.788 7.788 0 01-.09-.457c-.026-.153-.047-.311-.068-.469a18.656 18.656 0 01-.053-.426c-.015-.142 0-.174 0-.258v-.248a7.33 7.33 0 01.053-.915c.06-.562.153-1.119.279-1.669a29.86 29.86 0 01.795-2.91c.29-.885.579-1.685.847-2.385.269-.7.527-1.305.748-1.8.22-.495.4-.874.526-1.132a2.29 2.29 0 01.195-.41zM4.528.33a.379.379 0 01.032.08c0 .058.047.137.079.247.079.317.124.642.136.969.02.52-.037 1.039-.168 1.542-.042.142-.084.295-.132.447-.047.153-.12.31-.184.469l-.231.473c-.09.158-.19.316-.29.48a.753.753 0 01-.079.115l-.084.116-.174.237c-.058.079-.11.152-.173.226l-.169.216c-.226.295-.463.595-.668.905a5.158 5.158 0 00-.527.953c-.065.16-.118.326-.157.495 0 .084-.037.173-.053.257-.016.085 0 .174-.026.264-.027.09 0 .184 0 .279v.579c0 .1 0 .2.031.3.032.1.032.205.042.31l.058.31.058.322c.026.105.047.21.068.32.195.859.448 1.743.69 2.632l.174.69c.058.231.11.463.163.695.052.231.105.458.152.69.048.23.095.468.137.694l.127.695c0 .116.036.231.052.347l.048.348c.031.226.058.457.09.684l.062.684v2.616l-.037.61c0 .2-.042.4-.068.595l-.032.29v.279l-.094.526c-.058.353-.142.69-.221 1.01l-.058.237a1.812 1.812 0 01-.063.227c-.043.147-.085.29-.132.431-.09.28-.163.527-.263.774s-.169.447-.248.642l-.057.137-.058.131-.11.237c-.07.148-.132.269-.18.369l-.152.305.052-.337c0-.11.042-.242.069-.4l.047-.252v-.29c.047-.405.137-.895.184-1.458 0-.137.026-.284.042-.431a1.581 1.581 0 000-.227v-.231c0-.316.048-.643.042-.985v-1.626c0-.19-.026-.384-.036-.579 0-.39-.069-.79-.1-1.195 0-.1-.032-.205-.043-.305l-.036-.31-.043-.311c0-.105-.031-.21-.047-.316-.126-.842-.31-1.705-.5-2.584l-.1-.627a30.244 30.244 0 00-.163-.663c-.058-.22-.11-.447-.169-.668-.057-.221-.11-.442-.173-.669-.116-.457-.237-.9-.348-1.368-.11-.469-.215-.926-.305-1.4a11.82 11.82 0 01-.19-1.448 6.647 6.647 0 01.048-1.51c0-.126.047-.253.074-.38a3.04 3.04 0 01.105-.373 2.87 2.87 0 01.137-.358c.052-.115.1-.231.163-.342a5.42 5.42 0 01.379-.61c.127-.183.264-.359.41-.527.285-.326.564-.616.848-.884l.237-.2c.067-.06.13-.122.19-.19l.178-.178.09-.085.068-.09a6.116 6.116 0 001.01-1.447 5.68 5.68 0 00.459-1.336 5.06 5.06 0 00.11-.958V.33z" fill="#0C647B"/></svg>